<svg width="188" height="166" viewBox="0 0 188 166" fill="none" xmlns="http://www.w3.org/2000/svg">
<path fill-rule="evenodd" clip-rule="evenodd" d="M72.1809 40.3555C71.6185 39.5922 71.3711 38.9411 71.551 37.4369C71.776 35.5287 73.3733 31.6672 73.3733 31.6672C73.3733 31.6672 73.6883 30.5447 74.3632 30.6345C74.9931 30.7243 75.1956 31.1957 75.1056 31.8917C75.0156 32.5652 74.9931 35.1919 75.0606 35.1021C75.1731 34.9225 77.1078 34.249 81.2248 30.5447C81.5397 30.2528 82.1696 29.9161 82.7096 30.4324C83.2945 31.0161 82.777 31.8692 82.777 31.8692C82.777 31.8692 83.5645 30.9937 84.2169 31.51C84.9818 32.0938 84.3069 33.2163 84.3069 33.2163C84.3069 33.2163 84.7118 32.9918 85.1167 33.3734C85.6342 33.8673 85.0717 34.7205 85.0717 34.7205C85.0717 34.7205 85.8142 35.1246 85.0043 36.3369C83.8119 38.1329 81.8547 39.4575 79.9874 40.4453C78.6826 41.1188 75.1506 42.3311 74.2732 42.2638C73.0358 42.1964 72.6984 41.0739 72.1809 40.3555Z" fill="#F6BD94"/>
<path fill-rule="evenodd" clip-rule="evenodd" d="M55.1056 156.827L54.7682 149.193L48.2216 150.024L48.964 157.994L54.0258 159.992L55.1056 156.827Z" fill="#F6BD94"/>
<path fill-rule="evenodd" clip-rule="evenodd" d="M47.2543 161.385C47.3667 160.667 47.7042 160.038 47.9517 159.364C48.0191 159.162 48.6716 157.164 48.784 157.164H48.9415L53.9359 157.479L55.0157 155.727L55.1732 155.48C56.0506 155.84 56.9505 156.199 57.8279 156.558C59.5826 157.276 61.3374 157.995 63.1147 158.691C64.4195 159.23 65.7243 159.746 67.0291 160.285C67.3441 160.42 67.6141 160.689 67.7041 161.026C67.794 161.362 67.5241 162.081 67.0067 162.238C66.0393 162.552 64.712 162.732 63.7221 162.844C61.7199 163.091 59.8751 163.136 57.8729 163.316C55.8706 163.495 53.9809 163.563 52.0011 163.608C51.2137 163.63 50.4263 163.63 49.5939 163.652C49.5489 163.652 49.5039 163.652 49.4815 163.652C48.9415 163.675 48.1541 163.652 47.7042 163.293C47.1193 162.889 47.1418 162.036 47.2543 161.385Z" fill="#0F3970"/>
<path fill-rule="evenodd" clip-rule="evenodd" d="M12.6313 154.583L16.0059 147.713L9.86416 145.311L6.69208 152.674L10.1791 156.828L12.6313 154.583Z" fill="#F6BD94"/>
<path fill-rule="evenodd" clip-rule="evenodd" d="M3.56499 154.832C4.01493 154.271 4.62235 153.867 5.13979 153.395C5.31976 153.238 6.82706 151.824 6.93955 151.869L7.07453 151.959L11.304 154.63L13.0812 153.597L13.3287 153.463C13.9361 154.204 14.5435 154.944 15.151 155.685C16.3433 157.145 17.5582 158.626 18.7505 160.086C19.6504 161.163 20.5278 162.263 21.4276 163.341C21.6526 163.61 21.7426 163.992 21.6751 164.329C21.6076 164.688 21.0002 165.159 20.4828 165.07C19.4929 164.868 18.2331 164.396 17.2882 164.037C15.3984 163.296 13.7787 162.465 11.9339 161.657C10.0891 160.849 8.40186 159.996 6.64709 159.098C5.94968 158.739 5.25227 158.379 4.50987 157.998C4.46488 157.975 4.44238 157.953 4.39739 157.953C3.92495 157.706 3.22754 157.302 3.00257 156.785C2.71011 156.089 3.16005 155.349 3.56499 154.832ZM27.4793 82.7439C27.4793 82.7888 27.5243 82.8786 27.5693 82.9908C28.3792 85.3706 35.0608 102.478 38.6829 111.75C40.0777 115.297 41.0001 117.699 41.0001 117.699L46.1069 152.812L57.2879 152.116C57.2879 152.116 56.3205 120.73 55.0832 111.772C54.1383 104.925 52.1811 96.708 48.739 82.6765C48.1541 80.2968 47.0743 74.1902 46.5118 69.6328L27.4793 69.9022C27.9068 71.4064 27.0294 80.8805 27.4793 82.7439Z" fill="#0F3970"/>
<path fill-rule="evenodd" clip-rule="evenodd" d="M27.5693 82.988C28.3792 85.3677 35.0608 102.475 38.6829 111.747C40.3701 108.222 41.4275 103.126 41.4275 97.4685C41.4275 86.827 37.693 78.1836 33.0811 78.1836C30.9664 78.206 29.0316 80.0021 27.5693 82.988Z" fill="#17335F"/>
<path fill-rule="evenodd" clip-rule="evenodd" d="M20.4378 69.9434H39.6952C39.4253 74.3212 38.9753 81.1686 38.5254 86.2648C38.3679 88.1506 38.1879 89.7895 38.0304 90.9794C37.513 94.9756 36.9731 100.79 36.4781 107.368C36.1182 112.038 36.6806 118.077 33.8235 122.253C29.954 127.888 15.8933 151.865 15.8933 151.865L6.51208 147.465L21.0002 113.452C21.0002 113.452 18.4805 91.7652 18.9529 84.9851C19.1554 82.1564 19.6279 74.2089 20.4378 69.9434Z" fill="#0F3970"/>
<path fill-rule="evenodd" clip-rule="evenodd" d="M7.63694 143.604L5.74719 148.049L16.1408 152.741L18.4805 148.475L7.63694 143.604Z" fill="#17335F"/>
<path fill-rule="evenodd" clip-rule="evenodd" d="M45.117 149.106L45.5669 154.112L57.4004 153.349L57.6928 148.051L45.117 149.106Z" fill="#17335F"/>
<path fill-rule="evenodd" clip-rule="evenodd" d="M41.2026 7.46593C41.675 10.4743 40.1227 13.2357 37.738 13.5949C35.3533 13.9541 33.0586 11.8213 32.5862 8.81296C32.1138 5.8046 33.6661 3.0432 36.0507 2.68399C38.4354 2.32478 40.7301 4.45757 41.2026 7.46593Z" fill="#0F3970"/>
<path fill-rule="evenodd" clip-rule="evenodd" d="M2.39513 82.1782C2.39513 82.4701 2.41763 82.7619 2.46262 83.0762C2.55261 83.862 2.66509 84.6702 2.73258 85.456C2.77758 85.7927 2.80008 86.1519 2.73258 86.4887C2.66509 86.8254 2.48512 87.1622 2.19266 87.3418C1.9002 87.5214 1.47275 87.4989 1.22529 87.252C1.02281 87.0275 0.977818 86.7132 0.977818 86.3989C0.955321 85.9948 0.932827 85.5907 0.91033 85.209C0.887833 84.6702 0.842834 84.1314 0.842834 83.5926C0.842834 82.4925 0.932824 81.3475 1.54024 80.4495C1.72022 80.1576 2.68759 79.3719 2.77758 80.1577C2.80008 80.4495 2.5976 80.8312 2.53011 81.123C2.44012 81.4373 2.39513 81.7965 2.39513 82.1782Z" fill="#F4AE80"/>
<path fill-rule="evenodd" clip-rule="evenodd" d="M1.81027 82.7427C1.81027 83.0345 1.83276 83.3264 1.87776 83.6407C1.96774 84.4264 2.08023 85.2346 2.17021 86.0204C2.21521 86.3572 2.23771 86.7164 2.17021 87.0531C2.10272 87.3899 1.92275 87.7267 1.63029 87.9063C1.33783 88.0859 0.910384 88.0634 0.662917 87.8164C0.460443 87.5919 0.415448 87.2776 0.415448 86.9633C0.392951 86.5592 0.370457 86.1776 0.34796 85.7735C0.325463 85.2347 0.280464 84.6958 0.280464 84.157C0.257967 83.0569 0.370454 81.912 0.977874 81.014C1.15785 80.7221 2.12522 79.9364 2.21521 80.7221C2.23771 81.0364 2.03523 81.3956 1.96774 81.6875C1.85526 82.0018 1.81027 82.3834 1.81027 82.7427Z" fill="#F4AE80"/>
<path fill-rule="evenodd" clip-rule="evenodd" d="M6.66956 72.1015C5.92716 72.1913 5.18476 72.3484 4.46485 72.5729C4.0824 72.7076 3.72245 72.8199 3.34 72.9097C3.56497 73.1342 3.69996 73.2914 3.69996 73.3587C3.67746 73.6057 3.54247 73.8526 3.42999 74.0771C3.40749 74.0996 3.4075 74.122 3.385 74.1445C2.46262 75.7609 1.76521 77.4447 1.1128 79.1734C0.662856 80.3408 0.190417 81.5531 0.077932 82.7879C-0.0570502 84.1125 0.0104409 85.4371 0.077932 86.7616C0.077932 86.9637 0.100429 87.1882 0.190417 87.3678C0.347896 87.7045 0.820336 87.8841 1.1128 87.6147C1.76521 87.031 1.72022 85.931 1.69772 85.1227C1.69772 84.3819 1.65272 83.6186 1.76521 82.8777C1.87769 82.1368 2.21515 81.5307 2.64259 80.9245C2.95755 80.498 3.22752 80.0489 3.56497 79.6224C3.67746 79.4652 3.81244 79.2856 3.96992 79.1509C4.17239 78.9489 4.39736 78.7917 4.66733 78.7244C4.8923 78.6795 5.25225 78.6795 5.43222 78.8366C5.6347 79.0162 5.56721 79.3081 5.54471 79.5326C5.52221 79.802 5.43222 80.0489 5.31974 80.3183C5.16226 80.7449 4.93729 81.1939 4.91479 81.6429C4.91479 81.7103 4.91479 81.8001 4.91479 81.8899C4.95979 82.743 5.90466 83.6859 6.55708 82.6981C6.69206 82.496 6.78205 82.2491 6.87204 82.0021C7.27699 80.8572 7.9294 79.8244 8.15437 78.6121C8.28935 77.8488 8.33434 77.0855 8.37934 76.2997C8.53682 73.6506 8.28935 73.0219 7.95189 71.9219C7.47946 71.9892 7.07451 72.0341 6.66956 72.1015Z" fill="#F6BD94"/>
<path fill-rule="evenodd" clip-rule="evenodd" d="M3.92499 79.1727C4.01498 79.0155 4.10496 78.8584 4.21745 78.7012C4.39742 78.4318 4.62239 78.1848 4.91486 78.0501C5.20732 77.9154 5.58977 77.9379 5.81474 78.1624C6.01721 78.342 6.06221 78.6339 6.03971 78.9033C5.99471 79.5768 5.61227 80.138 5.27481 80.7218C5.09483 81.0136 4.93735 81.3279 4.82487 81.6422C4.86986 81.1708 5.07233 80.7442 5.22981 80.3176C5.3198 80.0707 5.40979 79.8013 5.45478 79.5319C5.47728 79.3074 5.56727 78.9931 5.3423 78.8359C5.16232 78.6788 4.80237 78.6788 4.5774 78.7237C4.35243 78.8135 4.12746 78.9706 3.92499 79.1727Z" fill="#F4AE80"/>
<path fill-rule="evenodd" clip-rule="evenodd" d="M10.4041 71.5603C10.4041 71.5603 10.2241 72.6155 9.90916 73.6931C9.86417 73.8053 9.84167 73.9176 9.79667 74.0298C9.68419 74.389 9.5492 74.7258 9.39172 75.0177C9.32423 75.1299 9.27924 75.2422 9.21175 75.332C9.05427 75.5565 8.89679 75.7136 8.73931 75.781C7.92942 76.1177 3.45251 74.0074 3.22754 73.491C3.13755 73.3114 3.11505 73.042 3.11505 72.7277C3.11505 72.593 3.13755 72.4808 3.13755 72.3236C3.18254 71.9868 3.25003 71.6052 3.34002 71.246C3.36252 71.1337 3.40751 70.999 3.43001 70.8868C3.69997 69.8541 4.05993 68.9336 4.05993 68.9336L10.4041 71.5603Z" fill="#8193C2"/>
<path fill-rule="evenodd" clip-rule="evenodd" d="M29.3691 21.2285L38.0979 21.5877L35.6008 26.7289L30.2015 26.5044L29.3691 21.2285Z" fill="#8193C2"/>
<path fill-rule="evenodd" clip-rule="evenodd" d="M17.1756 73.7611C19.9203 75.8265 49.9988 75.5571 49.9763 74.0979C49.9313 70.5058 49.3689 66.6218 48.8515 62.8277C48.559 60.6725 48.289 58.5621 48.1091 56.5416C47.7041 51.7821 46.3768 36.7403 46.1743 34.0912C46.0618 32.3625 45.7469 28.4337 45.7019 27.9622C45.4769 27.8051 45.2519 27.6479 45.027 27.5132L45.0045 27.4908C44.8245 27.401 44.6445 27.2887 44.4421 27.154C43.5422 26.6377 42.3723 25.9641 41.5849 25.6049C39.6502 24.6845 37.6479 24.1232 35.5332 23.8089C32.0237 23.315 28.5591 23.9212 26.017 24.6171C23.7223 25.2457 22.1925 25.9641 22.0125 26.0539H21.99C21.99 26.0539 23.4523 26.6826 23.8348 29.0623C25.4995 39.2548 20.4827 47.3594 20.4827 47.3594C20.4827 47.3594 19.2229 56.2273 18.4805 60.7399C18.053 63.6584 16.7932 73.4692 17.1756 73.7611Z" fill="#D0D9EE"/>
<path fill-rule="evenodd" clip-rule="evenodd" d="M29.2341 16.4238C29.3241 16.9402 29.4141 17.479 29.5266 18.0178C29.5266 18.0403 29.5266 18.0852 29.5491 18.1076C29.5491 18.1301 29.5491 18.1301 29.5491 18.1525C29.6841 18.8485 29.7966 19.5444 29.8865 20.2628C29.9315 20.5323 29.954 20.8241 29.9765 21.116C29.999 21.4303 30.0215 21.7446 30.0215 22.0813C30.0215 22.6875 30.0215 23.2937 29.999 23.8998C29.999 24.2366 29.9765 24.5958 29.9765 24.9325C29.9765 25.3367 29.7966 25.7632 29.9765 26.1449C30.179 26.6388 30.6514 26.8857 31.0564 27.1776C31.5063 27.4919 32.0013 27.7388 32.5187 27.9409C33.5311 28.3226 34.6559 28.4573 35.7133 28.143C37.7155 27.5368 37.1756 25.3367 37.1756 23.7651V23.3161V22.1487V20.4874C36.6132 20.3526 36.0732 20.0833 35.5333 19.8363C33.7785 18.9832 32.0238 18.1076 30.314 17.1647C30.269 17.1422 30.224 17.1198 30.179 17.0973C29.7966 16.8728 29.5266 16.6932 29.2341 16.4238Z" fill="#F6BD94"/>
<path fill-rule="evenodd" clip-rule="evenodd" d="M37.1305 23.7173C35.1508 23.2009 33.261 22.4152 31.5287 21.3375C30.9888 21.0008 30.4039 20.6191 29.864 20.2375C29.774 19.5415 29.6615 18.8455 29.5265 18.1271C29.414 17.5434 29.324 16.9821 29.2115 16.3984C29.549 16.7127 29.864 16.8923 30.2689 17.1168C31.9787 18.0598 33.7335 18.9353 35.4882 19.7884C36.0281 20.0354 36.5456 20.3048 37.1305 20.4395V23.7173Z" fill="#F4AE80"/>
<path fill-rule="evenodd" clip-rule="evenodd" d="M30.269 16.8484C29.3691 17.477 28.1317 17.5892 27.1419 17.1178C26.3095 16.7137 25.6796 15.9055 25.4771 15.0074C25.4321 14.8503 25.4096 14.6707 25.4096 14.5135C25.3871 14.2217 25.4321 13.9298 25.5221 13.638C25.7696 12.942 26.467 12.4705 27.2094 12.4256C27.9518 12.3807 28.6717 12.74 29.1216 13.3237L29.5716 14.6707L30.269 16.8484Z" fill="#F6BD94"/>
<path fill-rule="evenodd" clip-rule="evenodd" d="M30.494 77.5553C30.494 77.5553 30.4265 78.8125 30.2015 79.935C30.1791 80.0473 30.1566 80.1595 30.1341 80.2718C30.0666 80.5636 29.9766 80.833 29.8641 81.0575C29.8191 81.1698 29.7516 81.2821 29.6841 81.3719C29.6391 81.4392 29.5941 81.4841 29.5491 81.529C29.1442 81.8433 24.1274 80.7657 21.4952 79.7779C19.1105 78.8798 15.376 77.4655 15.2185 76.7695C15.196 76.6348 15.1735 76.4552 15.196 76.2531C15.196 76.1409 15.2185 76.0062 15.2185 75.8715C15.241 75.6245 15.286 75.3776 15.3535 75.1082C15.376 74.9959 15.3985 74.8612 15.421 74.749C15.6685 73.6265 16.0284 72.5488 16.0284 72.5488L30.494 77.5553Z" fill="#8193C2"/>
<path fill-rule="evenodd" clip-rule="evenodd" d="M30.5615 78.9457C29.6166 80.3601 19.8979 76.1618 16.6583 74.8372C14.2061 73.827 15.106 72.3677 15.3535 70.4819C16.1184 64.9142 17.0632 60.1322 17.9856 54.9911C18.3456 53.0379 18.683 51.0398 19.0205 48.9295C19.043 48.8397 19.043 48.7499 19.0655 48.6601C18.6605 50.0071 17.8956 52.8134 17.6032 53.7788C15.8259 59.3016 13.0138 72.3453 10.0667 72.8167C9.54923 72.9065 3.94747 70.9309 3.7 70.2349C1.92273 65.2958 7.41201 47.2008 8.28939 44.9557C9.81919 41.0718 14.6561 31.0814 15.9384 29.4425C18.4131 26.277 26.4445 24.4136 26.827 24.3013C27.9743 23.9646 29.1441 23.6727 30.314 23.4258C31.4838 26.1872 31.7538 28.8812 32.0688 31.8671C33.6661 47.7171 31.3039 77.8232 30.5615 78.9457Z" fill="#8D9FCA"/>
<path fill-rule="evenodd" clip-rule="evenodd" d="M33.1486 26.8636L33.0586 27.3126L32.9686 27.784L32.8336 28.5249L32.7436 28.9739L32.5186 30.2087L32.4287 30.6352L32.1137 32.2292L27.2543 24.1695L27.5918 23.6981L27.8168 23.3838L28.2442 22.8L28.4692 22.4857L28.8066 22.0143L29.0316 21.7L29.3691 21.2285L33.1486 26.8636Z" fill="#8193C2"/>
<path fill-rule="evenodd" clip-rule="evenodd" d="M19.8304 51.311C19.313 52.5682 18.7056 53.8254 17.9857 54.9928C18.3456 53.0397 18.6831 51.0416 19.0205 48.9312C19.2455 48.4373 21.3377 43.6329 21.9451 38.6265C22.1926 44.733 20.8878 48.7292 19.8304 51.311ZM71.7536 45.0024C71.7536 45.0024 72.676 44.5534 73.5758 43.9697C73.6658 43.9023 73.7558 43.835 73.8458 43.7901C74.1383 43.588 74.4307 43.3635 74.6557 43.139C74.7457 43.0492 74.8132 42.9819 74.8807 42.8921C75.0382 42.69 75.1506 42.5104 75.1731 42.3308C75.2631 41.5001 72.1135 37.9979 71.5736 37.9081C71.3711 37.8856 71.1237 37.9305 70.8537 38.0203C70.7412 38.0652 70.6287 38.1101 70.4937 38.155C70.2013 38.2897 69.8638 38.4469 69.5714 38.6265C69.4589 38.6938 69.3689 38.7387 69.2564 38.8061C68.379 39.3449 67.6141 39.9061 67.6141 39.9061L71.7536 45.0024ZM36.8382 77.5555C36.8382 77.5555 36.9057 78.8127 37.1306 79.9353C37.1531 80.0475 37.1756 80.1598 37.1981 80.272C37.2656 80.5639 37.3556 80.8333 37.4681 81.0578C37.5131 81.17 37.5806 81.2823 37.6481 81.3721C37.6931 81.4395 37.7381 81.4843 37.7831 81.5292C38.188 81.8436 43.2048 80.7659 45.837 79.7781C48.2217 78.8801 51.9562 77.4657 52.1137 76.7698C52.1362 76.6351 52.1587 76.4554 52.1362 76.2534C52.1362 76.1411 52.1137 76.0065 52.1137 75.8717C52.0912 75.6248 52.0462 75.3778 51.9787 75.1084C51.9562 74.9962 51.9337 74.8615 51.9112 74.7492C51.6637 73.6267 51.3038 72.5491 51.3038 72.5491L36.8382 77.5555Z" fill="#8193C2"/>
<path fill-rule="evenodd" clip-rule="evenodd" d="M73.0808 44.7322C70.9211 47.7406 55.0832 64.8253 50.2239 54.8349C50.1564 54.7002 50.0664 54.4757 49.9764 54.1838C49.459 52.7246 48.6041 49.7836 48.2666 48.6386C48.2891 48.7284 48.2891 48.8182 48.3116 48.908C48.3341 49.0876 48.3566 49.2447 48.4016 49.4244C48.7165 51.3551 49.0315 53.196 49.3465 54.9921C50.2688 60.1108 51.2137 64.9152 51.9786 70.4829C52.2486 72.3687 53.126 73.828 50.6738 74.8382C47.4342 76.1628 37.7155 80.361 36.7706 78.9467C36.2982 78.2507 36.6806 65.7234 36.3207 52.7246C36.1182 45.2261 34.6559 37.6603 35.2408 31.8457C35.5333 28.8822 35.8257 26.1657 36.9956 23.4043C38.1654 23.6737 39.3353 23.9656 40.4826 24.2799C40.8876 24.3921 48.8965 26.2555 51.3712 29.421C52.6535 31.0824 58.2328 44.822 58.2328 44.822C58.2328 44.822 63.0022 41.2748 68.7164 38.8277C69.5488 38.5134 73.6658 43.9015 73.0808 44.7322Z" fill="#8D9FCA"/>
<path fill-rule="evenodd" clip-rule="evenodd" d="M34.1835 26.8636L34.2735 27.3126L34.3635 27.784L34.4985 28.5249L34.5885 28.9739L34.8134 30.2087L34.9034 30.6352L35.1959 32.2292L40.0778 24.1695L39.7403 23.6981L39.4928 23.3838L39.0879 22.8L38.8629 22.4857L38.5255 22.0143L38.278 21.7L37.9405 21.2285L34.1835 26.8636Z" fill="#8193C2"/>
<path fill-rule="evenodd" clip-rule="evenodd" d="M40.5276 18.4434C40.1002 19.4986 39.4928 20.4639 38.5029 21.0926C37.6255 21.6538 36.5682 21.9008 35.5333 21.8783C34.3859 21.8334 33.2836 21.4293 32.3162 20.8232C31.8213 20.5088 31.3713 20.1497 30.9664 19.768C30.2465 19.072 29.6391 18.2863 29.1216 17.4331C28.2668 16.0637 27.5918 14.4921 27.2544 12.8757C26.8719 11.0348 26.9169 9.14893 27.6593 7.3978C27.9518 6.67938 28.3792 6.00587 28.9192 5.44461C31.1239 2.99751 34.9034 2.57095 37.5805 4.47924C38.9753 5.46706 40.0327 6.94879 40.5726 8.56522C40.7526 9.08158 40.9101 9.59794 41.0226 10.1368C41.675 12.8308 41.6075 15.8392 40.5276 18.4434Z" fill="#F6BD94"/>
<path fill-rule="evenodd" clip-rule="evenodd" d="M49.9764 54.2062C49.4589 52.747 48.6041 49.806 48.2666 48.661C48.2891 48.7508 48.2891 48.8406 48.3116 48.9304C48.3341 49.11 48.3566 49.2671 48.4016 49.4468L48.2441 48.6161L47.3892 35.8418C47.3892 35.8418 50.0889 47.8977 50.1114 51.9837C50.1114 52.4102 50.0439 53.3082 49.9764 54.2062Z" fill="#8193C2"/>
<path fill-rule="evenodd" clip-rule="evenodd" d="M26.8045 5.91515C26.5795 5.06203 26.872 4.11911 27.4119 3.46805C27.9743 2.81698 28.7617 2.43533 29.5716 2.32308C30.3815 2.18838 31.2139 2.27818 32.0238 2.43533C32.8112 2.59248 33.5761 2.81699 34.3635 2.77209C35.3308 2.70474 36.2757 2.23327 36.9056 1.44751C37.5131 0.706643 38.8179 0.818895 39.6053 1.33525C40.3927 1.85161 41.1576 2.74963 41.3151 3.73745C41.4725 4.68037 41.3826 6.22946 39.9202 7.08257C38.188 8.09284 32.7662 7.73363 32.0238 7.71118C31.2814 7.68873 30.494 7.89078 30.0215 8.47449C29.0542 9.64191 28.8742 11.4155 28.8067 12.987C28.2443 12.6727 27.7043 12.538 27.0519 12.538C26.7595 12.538 26.467 12.5605 26.1296 12.8074C25.5221 11.64 25.1622 10.3828 24.8922 9.08065C24.7572 8.42959 24.6673 7.75608 24.7347 7.10502C24.7572 6.85806 24.8247 6.61111 24.9597 6.3866C25.1622 6.0723 25.5221 5.91515 25.8596 5.87024C26.2195 5.82534 26.467 5.82535 26.8045 5.91515Z" fill="#0F3970"/>
<path fill-rule="evenodd" clip-rule="evenodd" d="M34.7459 18.8483C36.5232 18.8483 37.5131 18.8034 39.2453 18.6463C39.9428 18.5789 38.5029 20.5096 34.6334 18.9606C34.5435 18.9157 34.5885 18.8483 34.7459 18.8483Z" fill="#F4AE80"/>
<path fill-rule="evenodd" clip-rule="evenodd" d="M32.9911 9.50696C33.8685 9.57431 33.801 10.2703 33.1711 10.4274C26.3545 12.1112 30.8539 9.32735 32.9911 9.50696ZM36.7481 8.92324C35.9382 9.23754 36.1857 9.88861 36.8381 9.84371C43.8796 9.50696 38.7503 8.13747 36.7481 8.92324Z" fill="#0F3970"/>
<path fill-rule="evenodd" clip-rule="evenodd" d="M36.5231 16.5568H36.5681C37.333 16.3996 37.7155 16.2873 37.873 15.9955C38.008 15.7261 37.873 15.4342 37.648 14.9179C37.378 14.3342 36.9731 13.4361 36.6356 11.9544C36.6131 11.8422 36.5007 11.7748 36.3882 11.7973C36.2757 11.8197 36.2082 11.932 36.2307 12.0442C36.5906 13.5484 36.9956 14.4689 37.2655 15.075C37.423 15.4342 37.558 15.7261 37.513 15.8159C37.4455 15.9506 36.9056 16.0628 36.4782 16.1526C36.3657 16.1751 36.2982 16.2874 36.3207 16.3996C36.3432 16.4894 36.4107 16.5568 36.5231 16.5568Z" fill="#F4AE80"/>
<path fill-rule="evenodd" clip-rule="evenodd" d="M38.9079 13.1895C39.4028 13.1446 39.5828 11.2138 38.3904 11.3485C37.7605 11.4159 38.1205 13.2793 38.9079 13.1895ZM32.7437 13.9528C33.2386 13.9079 33.4186 11.9771 32.2263 12.1118C31.5963 12.1792 31.9563 14.0426 32.7437 13.9528Z" fill="#0F3970"/>
<rect x="90" y="116" width="96.5156" height="46.923" rx="7" stroke="#787878" stroke-linecap="round" stroke-dasharray="3 3"/>
<path d="M112.874 55.2612C113.107 55.1126 113.175 54.8034 113.026 54.5707C112.878 54.338 112.569 54.2698 112.336 54.4185L112.874 55.2612ZM144.428 105.825C144.626 106.018 144.942 106.014 145.135 105.816L148.275 102.592C148.467 102.395 148.463 102.078 148.265 101.885C148.068 101.693 147.751 101.697 147.558 101.895L144.767 104.76L141.902 101.969C141.704 101.777 141.388 101.781 141.195 101.979C141.002 102.176 141.006 102.493 141.204 102.686L144.428 105.825ZM103.991 82.5045L103.738 82.9354L103.991 82.5045ZM110.947 55.3078C110.715 55.4573 110.648 55.7667 110.797 55.9989C110.947 56.2311 111.256 56.2982 111.488 56.1488L110.947 55.3078ZM108.756 57.9503C108.984 57.7945 109.042 57.4834 108.887 57.2554C108.731 57.0274 108.42 56.9689 108.192 57.1247L108.756 57.9503ZM105.508 59.0841C105.292 59.2559 105.256 59.5704 105.428 59.7866C105.599 60.0029 105.914 60.039 106.13 59.8672L105.508 59.0841ZM103.744 62.0231C103.934 61.8226 103.926 61.5061 103.725 61.3162C103.525 61.1263 103.208 61.1349 103.018 61.3354L103.744 62.0231ZM100.959 64.0294C100.818 64.2668 100.896 64.5736 101.134 64.7146C101.371 64.8556 101.678 64.7775 101.819 64.54L100.959 64.0294ZM100.564 67.4332C100.642 67.1683 100.49 66.8904 100.225 66.8126C99.9602 66.7347 99.6824 66.8864 99.6045 67.1513L100.564 67.4332ZM98.9986 70.4794C98.9749 70.7545 99.1788 70.9967 99.4539 71.0204C99.729 71.0441 99.9713 70.8402 99.9949 70.5651L98.9986 70.4794ZM99.9498 73.7802C99.9366 73.5044 99.7022 73.2915 99.4264 73.3047C99.1506 73.3179 98.9377 73.5522 98.9509 73.8281L99.9498 73.7802ZM99.5463 77.7169C99.6343 77.9787 99.9179 78.1195 100.18 78.0314C100.441 77.9434 100.582 77.6598 100.494 77.3981L99.5463 77.7169ZM102.633 80.8354C102.436 80.6418 102.12 80.6443 101.926 80.8412C101.732 81.038 101.735 81.3546 101.932 81.5483L102.633 80.8354ZM105.077 83.6832C105.321 83.8123 105.623 83.7191 105.753 83.475C105.882 83.231 105.789 82.9284 105.544 82.7993L105.077 83.6832ZM108.21 84.0573C107.955 83.951 107.662 84.0714 107.556 84.3263C107.45 84.5812 107.57 84.8739 107.825 84.9802L108.21 84.0573ZM110.692 86.0246C110.956 86.1072 111.237 85.9606 111.319 85.6971C111.402 85.4336 111.255 85.153 110.992 85.0704L110.692 86.0246ZM113.844 85.8305C113.575 85.7707 113.308 85.9408 113.248 86.2104C113.188 86.48 113.359 86.747 113.628 86.8068L113.844 85.8305ZM116.623 87.3479C116.896 87.3868 117.149 87.1967 117.188 86.9233C117.227 86.6499 117.037 86.3967 116.763 86.3578L116.623 87.3479ZM119.715 86.6792C119.44 86.6576 119.199 86.8633 119.178 87.1386C119.156 87.4139 119.362 87.6546 119.637 87.6761L119.715 86.6792ZM122.653 87.8377C122.929 87.8466 123.16 87.63 123.169 87.354C123.178 87.078 122.962 86.8471 122.686 86.8382L122.653 87.8377ZM125.678 86.8918C125.401 86.8896 125.176 87.1117 125.174 87.3879C125.172 87.664 125.394 87.8896 125.67 87.8917L125.678 86.8918ZM128.671 87.9132C128.947 87.9165 129.174 87.6954 129.177 87.4193C129.181 87.1432 128.959 86.9166 128.683 86.9133L128.671 87.9132ZM131.706 87.0062C131.431 86.9903 131.194 87.2009 131.178 87.4765C131.162 87.7522 131.373 87.9886 131.649 88.0045L131.706 87.0062ZM134.574 88.3151C134.847 88.3612 135.105 88.1778 135.151 87.9056C135.197 87.6333 135.013 87.3752 134.741 87.3291L134.574 88.3151ZM137.737 88.1376C137.48 88.0355 137.189 88.1607 137.087 88.4173C136.985 88.6739 137.11 88.9646 137.367 89.0667L137.737 88.1376ZM139.806 90.4984C140.018 90.6754 140.333 90.6471 140.51 90.4352C140.687 90.2233 140.659 89.908 140.447 89.7309L139.806 90.4984ZM142.498 92.1143C142.352 91.8799 142.043 91.8083 141.809 91.9544C141.575 92.1005 141.503 92.4088 141.649 92.6432L142.498 92.1143ZM142.869 95.2544C142.959 95.5153 143.244 95.6534 143.505 95.5629C143.766 95.4724 143.904 95.1876 143.813 94.9267L142.869 95.2544ZM144.596 97.8898C144.543 97.6188 144.28 97.442 144.009 97.4949C143.738 97.5478 143.561 97.8104 143.614 98.0815L144.596 97.8898ZM144.038 101.002C144.065 101.277 144.311 101.477 144.586 101.449C144.86 101.421 145.06 101.176 145.032 100.901L144.038 101.002ZM145.237 103.914C145.227 103.639 144.995 103.423 144.719 103.434C144.443 103.445 144.228 103.677 144.238 103.953L145.237 103.914ZM112.605 54.8398L112.336 54.4185C111.862 54.7211 111.399 55.0171 110.947 55.3078L111.218 55.7283L111.488 56.1488C111.938 55.8591 112.4 55.5638 112.874 55.2612L112.605 54.8398ZM108.474 57.5375L108.192 57.1247C107.231 57.7815 106.334 58.4281 105.508 59.0841L105.819 59.4757L106.13 59.8672C106.932 59.2306 107.807 58.5985 108.756 57.9503L108.474 57.5375ZM103.381 61.6792L103.018 61.3354C102.224 62.1744 101.534 63.061 100.959 64.0294L101.389 64.2847L101.819 64.54C102.351 63.644 102.993 62.816 103.744 62.0231L103.381 61.6792ZM100.084 67.2923L99.6045 67.1513C99.305 68.1709 99.1024 69.2729 98.9986 70.4794L99.4968 70.5223L99.9949 70.5651C100.094 69.4179 100.285 68.3822 100.564 67.4332L100.084 67.2923ZM99.4503 73.8041L98.9509 73.8281C98.9767 74.3658 99.0172 74.9218 99.0727 75.4974L99.5704 75.4495L100.068 75.4015C100.014 74.8408 99.9747 74.3008 99.9498 73.7802L99.4503 73.8041ZM99.5704 75.4495L99.0727 75.4974C99.146 76.2586 99.3062 77.0033 99.5463 77.7169L100.02 77.5575L100.494 77.3981C100.278 76.7563 100.134 76.0863 100.068 75.4015L99.5704 75.4495ZM102.283 81.1918L101.932 81.5483C102.47 82.0773 103.074 82.5448 103.738 82.9354L103.991 82.5045L104.245 82.0735C103.653 81.7253 103.114 81.3082 102.633 80.8354L102.283 81.1918ZM103.991 82.5045L103.738 82.9354C104.185 83.1984 104.631 83.4474 105.077 83.6832L105.311 83.2412L105.544 82.7993C105.112 82.5705 104.679 82.3289 104.245 82.0735L103.991 82.5045ZM108.017 84.5187L107.825 84.9802C108.787 85.3814 109.744 85.727 110.692 86.0246L110.842 85.5475L110.992 85.0704C110.071 84.7815 109.143 84.4463 108.21 84.0573L108.017 84.5187ZM113.736 86.3186L113.628 86.8068C114.639 87.0307 115.637 87.2077 116.623 87.3479L116.693 86.8528L116.763 86.3578C115.801 86.2209 114.828 86.0483 113.844 85.8305L113.736 86.3186ZM119.676 87.1777L119.637 87.6761C120.662 87.7564 121.669 87.8061 122.653 87.8377L122.669 87.338L122.686 86.8382C121.713 86.807 120.722 86.758 119.715 86.6792L119.676 87.1777ZM125.674 87.3917L125.67 87.8917C126.705 87.8998 127.701 87.9014 128.671 87.9132L128.677 87.4132L128.683 86.9133C127.711 86.9015 126.703 86.8997 125.678 86.8918L125.674 87.3917ZM131.677 87.5054L131.649 88.0045C132.679 88.064 133.655 88.1596 134.574 88.3151L134.658 87.8221L134.741 87.3291C133.775 87.1657 132.761 87.067 131.706 87.0062L131.677 87.5054ZM137.552 88.6021L137.367 89.0667C138.262 89.4229 139.076 89.8886 139.806 90.4984L140.127 90.1146L140.447 89.7309C139.626 89.0454 138.718 88.5281 137.737 88.1376L137.552 88.6021ZM142.073 92.3787L141.649 92.6432C142.11 93.3833 142.519 94.2463 142.869 95.2544L143.341 95.0906L143.813 94.9267C143.443 93.8577 143.003 92.9257 142.498 92.1143L142.073 92.3787ZM144.105 97.9856L143.614 98.0815C143.788 98.9728 143.93 99.944 144.038 101.002L144.535 100.952L145.032 100.901C144.922 99.8165 144.777 98.8148 144.596 97.8898L144.105 97.9856ZM144.738 103.934L144.238 103.953C144.257 104.444 144.27 104.951 144.277 105.474L144.777 105.467L145.277 105.461C145.27 104.93 145.257 104.415 145.237 103.914L144.738 103.934Z" fill="#787878"/>
<path d="M138.201 14.0914C138.446 14.0914 138.685 14.0189 138.889 13.8833C139.092 13.7476 139.251 13.5547 139.345 13.3291C139.438 13.1034 139.463 12.8552 139.415 12.6156C139.367 12.3761 139.249 12.1561 139.076 11.9834C138.903 11.8107 138.683 11.6931 138.443 11.6454C138.203 11.5978 137.954 11.6223 137.728 11.7157C137.502 11.8092 137.309 11.9674 137.173 12.1705C137.037 12.3736 136.964 12.6123 136.964 12.8565C136.964 13.1839 137.095 13.4978 137.327 13.7293C137.559 13.9608 137.873 14.091 138.201 14.0914ZM138.201 12.2391C138.324 12.2391 138.443 12.2753 138.545 12.3432C138.647 12.411 138.726 12.5075 138.773 12.6203C138.82 12.7331 138.832 12.8572 138.808 12.977C138.784 13.0968 138.725 13.2068 138.639 13.2931C138.552 13.3795 138.442 13.4383 138.322 13.4621C138.202 13.4859 138.078 13.4737 137.965 13.4269C137.852 13.3802 137.755 13.3011 137.687 13.1996C137.619 13.098 137.583 12.9787 137.583 12.8565C137.583 12.6928 137.648 12.5358 137.764 12.4201C137.88 12.3043 138.037 12.2392 138.201 12.2391ZM154.287 3.80122C154.124 3.80122 153.965 3.8495 153.829 3.93996C153.693 4.03041 153.588 4.15898 153.525 4.3094C153.463 4.45983 153.446 4.62535 153.478 4.78503C153.51 4.94472 153.589 5.0914 153.704 5.20653C153.819 5.32166 153.966 5.40006 154.126 5.43183C154.286 5.46359 154.452 5.44729 154.603 5.38498C154.754 5.32267 154.883 5.21716 154.973 5.08178C155.064 4.94641 155.112 4.78725 155.112 4.62443C155.112 4.40617 155.025 4.19691 154.87 4.04258C154.716 3.88824 154.506 3.80144 154.287 3.80122ZM154.287 5.03604C154.206 5.03604 154.126 5.0119 154.058 4.96667C153.99 4.92144 153.938 4.85716 153.906 4.78195C153.875 4.70674 153.867 4.62398 153.883 4.54413C153.899 4.46429 153.938 4.39095 153.996 4.33338C154.053 4.27582 154.127 4.23662 154.207 4.22074C154.287 4.20485 154.37 4.21301 154.445 4.24416C154.521 4.27531 154.585 4.32807 154.63 4.39576C154.676 4.46345 154.7 4.54302 154.7 4.62443C154.7 4.73356 154.656 4.83819 154.579 4.91536C154.502 4.99253 154.397 5.03593 154.287 5.03604ZM127.89 2.56641C127.727 2.56641 127.567 2.61469 127.432 2.70514C127.296 2.7956 127.19 2.92417 127.128 3.07459C127.065 3.22501 127.049 3.39053 127.081 3.55022C127.113 3.7099 127.191 3.85659 127.307 3.97171C127.422 4.08684 127.569 4.16525 127.729 4.19701C127.889 4.22877 128.055 4.21247 128.206 4.15016C128.356 4.08786 128.485 3.98234 128.576 3.84697C128.666 3.71159 128.715 3.55243 128.715 3.38962C128.715 3.17135 128.628 2.96209 128.473 2.80776C128.318 2.65343 128.109 2.56662 127.89 2.56641ZM127.89 3.80122C127.808 3.80122 127.729 3.77708 127.661 3.73185C127.593 3.68663 127.54 3.62234 127.509 3.54713C127.478 3.47192 127.469 3.38916 127.485 3.30932C127.501 3.22947 127.541 3.15613 127.598 3.09857C127.656 3.041 127.729 3.0018 127.809 2.98592C127.889 2.97004 127.972 2.97819 128.048 3.00934C128.123 3.0405 128.188 3.09325 128.233 3.16094C128.278 3.22863 128.302 3.30821 128.302 3.38962C128.302 3.49875 128.259 3.60338 128.181 3.68055C128.104 3.75771 127.999 3.80111 127.89 3.80122ZM158.412 11.2101C158.249 11.2101 158.089 11.2584 157.954 11.3489C157.818 11.4393 157.712 11.5679 157.65 11.7183C157.587 11.8687 157.571 12.0342 157.603 12.1939C157.635 12.3536 157.713 12.5003 157.829 12.6154C157.944 12.7306 158.091 12.809 158.251 12.8407C158.411 12.8725 158.577 12.8562 158.728 12.7939C158.878 12.7316 159.007 12.6261 159.098 12.4907C159.188 12.3553 159.237 12.1961 159.237 12.0333C159.237 11.8151 159.15 11.6058 158.995 11.4515C158.84 11.2971 158.631 11.2103 158.412 11.2101ZM158.412 12.4449C158.33 12.4449 158.251 12.4208 158.183 12.3756C158.115 12.3303 158.062 12.2661 158.031 12.1908C158 12.1156 157.992 12.0329 158.007 11.953C158.023 11.8732 158.063 11.7998 158.12 11.7423C158.178 11.6847 158.251 11.6455 158.332 11.6296C158.412 11.6137 158.494 11.6219 158.57 11.6531C158.645 11.6842 158.71 11.737 158.755 11.8047C158.8 11.8723 158.824 11.9519 158.824 12.0333C158.824 12.1425 158.781 12.2471 158.703 12.3243C158.626 12.4014 158.521 12.4448 158.412 12.4449ZM109.742 25.2047C109.742 25.0419 109.693 24.8827 109.603 24.7473C109.512 24.612 109.383 24.5065 109.232 24.4442C109.082 24.3818 108.916 24.3655 108.756 24.3973C108.596 24.4291 108.449 24.5075 108.333 24.6226C108.218 24.7377 108.14 24.8844 108.108 25.0441C108.076 25.2038 108.092 25.3693 108.155 25.5197C108.217 25.6701 108.323 25.7987 108.458 25.8892C108.594 25.9796 108.754 26.0279 108.917 26.0279C109.135 26.0277 109.345 25.9409 109.5 25.7866C109.654 25.6322 109.741 25.423 109.742 25.2047ZM108.504 25.2047C108.504 25.1233 108.529 25.0437 108.574 24.976C108.619 24.9083 108.684 24.8556 108.759 24.8244C108.834 24.7933 108.917 24.7851 108.997 24.801C109.077 24.8169 109.151 24.8561 109.208 24.9136C109.266 24.9712 109.305 25.0446 109.321 25.1244C109.337 25.2042 109.329 25.287 109.298 25.3622C109.267 25.4374 109.214 25.5017 109.146 25.5469C109.078 25.5922 108.998 25.6163 108.917 25.6163C108.807 25.6162 108.703 25.5728 108.625 25.4956C108.548 25.4185 108.504 25.3138 108.504 25.2047Z" fill="white"/>
<path d="M121.531 12.8609L122.144 12.0562L121.757 11.8372L121.364 12.7386H121.35L120.95 11.8434L120.556 12.0689L121.163 12.8547V12.8674L120.214 12.7452V13.1831L121.169 13.0609V13.0737L120.556 13.859L120.924 14.0911L121.344 13.1831H121.357L121.744 14.0846L122.151 13.8528L121.531 13.0798V13.0671L122.505 13.1831V12.7452L121.531 12.8736V12.8609ZM106.35 7.94464L105.997 8.39699L106.209 8.53035L106.45 8.00762H106.457L106.68 8.52665L106.915 8.39329L106.558 7.94793V7.94052L107.119 8.00762V7.7553L106.558 7.82939V7.82198L106.911 7.35851L106.688 7.23256L106.461 7.7516H106.454L106.223 7.23586L105.997 7.36592L106.346 7.81828V7.82569L105.8 7.7553V8.00762L106.35 7.93723V7.94464ZM168.311 21.3819V20.9526L167.355 21.079V21.0662L167.957 20.2767L167.577 20.0619L167.191 20.946H167.178L166.786 20.0681L166.399 20.2895L166.994 21.06V21.0728L166.063 20.9526V21.3819L167.001 21.2621V21.2749L166.399 22.0454L166.76 22.273L167.172 21.3819H167.184L167.564 22.2664L167.963 22.0392L167.355 21.2811V21.2683L168.311 21.3819ZM168.081 4.04221L168.6 3.361L168.273 3.17578L167.939 3.93849H167.928L167.59 3.18113L167.256 3.37212L167.77 4.03686V4.04756L166.967 3.94425V4.31469L167.775 4.21097V4.22208L167.256 4.88682L167.568 5.08316L167.923 4.31469H167.934L168.261 5.0774L168.605 4.88147L168.081 4.22743V4.21632L168.905 4.31469V3.94425L168.081 4.05291V4.04221Z" fill="#FFD600"/>
<path d="M103.531 55.8691C103.986 55.8691 104.356 55.5005 104.356 55.0459C104.356 54.5912 103.986 54.2227 103.531 54.2227C103.075 54.2227 102.706 54.5912 102.706 55.0459C102.706 55.5005 103.075 55.8691 103.531 55.8691Z" fill="white"/>
<path d="M107.243 54.2227H106.006C105.787 54.2227 105.577 54.3094 105.422 54.4638C105.268 54.6182 105.181 54.8275 105.181 55.0459C105.181 55.2642 105.268 55.4736 105.422 55.628C105.577 55.7823 105.787 55.8691 106.006 55.8691H107.243C107.462 55.8691 107.672 55.7823 107.826 55.628C107.981 55.4736 108.068 55.2642 108.068 55.0459C108.068 54.8275 107.981 54.6182 107.826 54.4638C107.672 54.3094 107.462 54.2227 107.243 54.2227ZM168.699 54.2227H167.462C167.243 54.2227 167.033 54.3094 166.879 54.4638C166.724 54.6182 166.637 54.8275 166.637 55.0459C166.637 55.2642 166.724 55.4736 166.879 55.628C167.033 55.7823 167.243 55.8691 167.462 55.8691H168.699C168.918 55.8691 169.128 55.7823 169.283 55.628C169.437 55.4736 169.524 55.2642 169.524 55.0459C169.524 54.8275 169.437 54.6182 169.283 54.4638C169.128 54.3094 168.918 54.2227 168.699 54.2227Z" fill="white"/>
<path d="M171.174 55.8691C171.63 55.8691 171.999 55.5005 171.999 55.0459C171.999 54.5912 171.63 54.2227 171.174 54.2227C170.719 54.2227 170.349 54.5912 170.349 55.0459C170.349 55.5005 170.719 55.8691 171.174 55.8691Z" fill="white"/>
<path d="M151.44 57.5176H148.013C147.805 57.5336 147.611 57.6274 147.47 57.78C147.328 57.9326 147.249 58.1329 147.249 58.3408C147.249 58.5487 147.328 58.749 147.47 58.9016C147.611 59.0542 147.805 59.1479 148.013 59.164H151.44C151.647 59.1479 151.841 59.0542 151.983 58.9016C152.124 58.749 152.203 58.5487 152.203 58.3408C152.203 58.1329 152.124 57.9326 151.983 57.78C151.841 57.6274 151.647 57.5336 151.44 57.5176ZM126.692 57.5176H123.265C123.058 57.5336 122.864 57.6274 122.722 57.78C122.581 57.9326 122.502 58.1329 122.502 58.3408C122.502 58.5487 122.581 58.749 122.722 58.9016C122.864 59.0542 123.058 59.1479 123.265 59.164H126.692C126.9 59.1479 127.094 59.0542 127.235 58.9016C127.377 58.749 127.456 58.5487 127.456 58.3408C127.456 58.1329 127.377 57.9326 127.235 57.78C127.094 57.6274 126.9 57.5336 126.692 57.5176ZM145.602 57.5176H129.103C128.885 57.5176 128.675 57.6043 128.52 57.7587C128.365 57.9131 128.278 58.1225 128.278 58.3408C128.278 58.5591 128.365 58.7685 128.52 58.9229C128.675 59.0773 128.885 59.164 129.103 59.164H135.678V59.9872H132.403C132.184 59.9872 131.974 60.0739 131.82 60.2283C131.665 60.3827 131.578 60.5921 131.578 60.8104C131.578 61.0287 131.665 61.2381 131.82 61.3925C131.974 61.5469 132.184 61.6336 132.403 61.6336H142.714C142.933 61.6336 143.143 61.5469 143.298 61.3925C143.452 61.2381 143.539 61.0287 143.539 60.8104C143.539 60.5921 143.452 60.3827 143.298 60.2283C143.143 60.0739 142.933 59.9872 142.714 59.9872H139.027V59.164H145.602C145.82 59.164 146.03 59.0773 146.185 58.9229C146.34 58.7685 146.427 58.5591 146.427 58.3408C146.427 58.1225 146.34 57.9131 146.185 57.7587C146.03 57.6043 145.82 57.5176 145.602 57.5176Z" fill="#FFD600"/>
<path d="M117.656 52.4445C117.806 52.9569 118.119 53.407 118.547 53.7274C118.975 54.0478 119.495 54.2213 120.03 54.2218C120.056 54.2218 120.082 54.2177 120.107 54.2165C120.052 53.9474 120.025 53.6736 120.025 53.399V52.5717C119.848 52.5714 119.676 52.5141 119.535 52.4085C119.394 52.3029 119.291 52.1545 119.241 51.9856C119.241 51.9856 112.638 29.2703 112.634 29.2543C112.575 29.0474 112.601 28.8259 112.704 28.6375C112.808 28.4491 112.982 28.3089 113.188 28.2471C113.188 28.2471 148.657 18.0356 148.667 18.0327C148.875 17.9756 149.098 18.002 149.288 18.1062C149.477 18.2104 149.618 18.3843 149.681 18.5908L151.663 25.4095H153.381L151.266 18.1315C151.082 17.5052 150.658 16.977 150.085 16.6621C149.513 16.3472 148.838 16.2713 148.21 16.4509C148.21 16.4509 112.744 26.662 112.73 26.6661C112.107 26.8549 111.583 27.2792 111.268 27.8485C110.954 28.4179 110.875 29.0871 111.049 29.7136L117.656 52.4445Z" fill="white"/>
<path d="M147.664 41.0524C148.398 41.0524 149.116 40.8352 149.726 40.4281C150.337 40.0211 150.813 39.4425 151.094 38.7656C151.375 38.0887 151.448 37.3439 151.305 36.6253C151.162 35.9067 150.808 35.2466 150.289 34.7286C149.77 34.2105 149.108 33.8577 148.388 33.7147C147.668 33.5718 146.922 33.6452 146.243 33.9255C145.565 34.2059 144.985 34.6807 144.577 35.2899C144.17 35.8991 143.952 36.6153 143.952 37.348C143.953 38.3301 144.344 39.2718 145.04 39.9662C145.736 40.6607 146.68 41.0514 147.664 41.0524ZM147.664 35.29C148.072 35.29 148.471 35.4107 148.81 35.6368C149.149 35.8629 149.413 36.1844 149.569 36.5604C149.725 36.9365 149.766 37.3503 149.687 37.7495C149.607 38.1487 149.411 38.5154 149.122 38.8032C148.834 39.0911 148.466 39.2871 148.066 39.3665C147.666 39.4459 147.252 39.4051 146.875 39.2494C146.498 39.0936 146.176 38.8298 145.949 38.4914C145.723 38.1529 145.602 37.755 145.602 37.348C145.602 36.8024 145.82 36.2793 146.206 35.8935C146.593 35.5077 147.117 35.2906 147.664 35.29ZM147.026 20.9155L144.138 21.7387C144.033 21.7673 143.934 21.8164 143.848 21.8833C143.762 21.9503 143.69 22.0336 143.636 22.1285C143.582 22.2235 143.548 22.3281 143.535 22.4363C143.522 22.5446 143.531 22.6543 143.561 22.7591C143.591 22.8639 143.642 22.9618 143.71 23.0469C143.778 23.1321 143.863 23.2029 143.958 23.2552C144.054 23.3076 144.159 23.3404 144.268 23.3518C144.377 23.3632 144.487 23.353 144.591 23.3217L147.478 22.4985C147.584 22.4699 147.682 22.4208 147.769 22.3539C147.855 22.2869 147.927 22.2036 147.981 22.1087C148.034 22.0137 148.069 21.9091 148.081 21.8009C148.094 21.6926 148.085 21.5829 148.055 21.4781C148.025 21.3733 147.975 21.2754 147.907 21.1903C147.839 21.1051 147.754 21.0343 147.658 20.982C147.562 20.9296 147.457 20.8968 147.349 20.8854C147.24 20.874 147.13 20.8842 147.026 20.9155Z" fill="#FFD600"/>
<path d="M164.872 54.2226H163.606C163.701 53.9584 163.749 53.68 163.75 53.3994V29.5263C163.749 28.8715 163.488 28.2438 163.024 27.7808C162.56 27.3178 161.931 27.0574 161.275 27.0566H124.154C123.498 27.0574 122.869 27.3178 122.405 27.7808C121.941 28.2438 121.68 28.8715 121.679 29.5263V53.3994C121.68 53.68 121.728 53.9584 121.823 54.2226H109.833C109.716 54.2073 109.597 54.2172 109.483 54.2515C109.37 54.2859 109.266 54.344 109.177 54.4219C109.088 54.4998 109.016 54.5958 108.968 54.7034C108.919 54.8109 108.893 54.9277 108.893 55.0458C108.893 55.1639 108.919 55.2807 108.968 55.3883C109.016 55.4958 109.088 55.5918 109.177 55.6697C109.266 55.7476 109.37 55.8057 109.483 55.8401C109.597 55.8745 109.716 55.8843 109.833 55.869H164.872C164.989 55.8843 165.108 55.8745 165.222 55.8401C165.335 55.8057 165.44 55.7476 165.528 55.6697C165.617 55.5918 165.689 55.4958 165.737 55.3883C165.786 55.2807 165.812 55.1639 165.812 55.0458C165.812 54.9277 165.786 54.8109 165.737 54.7034C165.689 54.5958 165.617 54.4998 165.528 54.4219C165.44 54.344 165.335 54.2859 165.222 54.2515C165.108 54.2172 164.99 54.2073 164.872 54.2226ZM147.489 50.2473C148.496 49.6123 149.665 49.2778 150.857 49.2833C152.285 49.2566 153.676 49.7394 154.779 50.6448C155.882 51.5503 156.625 52.819 156.875 54.2226H148.066C148.035 52.8791 147.841 51.5444 147.489 50.2473ZM123.329 29.5263C123.329 29.308 123.416 29.0988 123.571 28.9444C123.725 28.7901 123.935 28.7033 124.154 28.7031H161.275C161.494 28.7033 161.704 28.7901 161.858 28.9444C162.013 29.0988 162.1 29.308 162.1 29.5263V53.3994C162.1 53.6176 162.013 53.8269 161.858 53.9812C161.704 54.1356 161.494 54.2224 161.275 54.2226H158.543C158.114 50.5235 154.833 47.6369 150.857 47.6369C149.494 47.6332 148.153 47.9813 146.964 48.6474C145.808 45.585 143.748 42.9444 141.057 41.0739C138.366 39.2034 135.17 38.1909 131.891 38.17C128.856 38.1625 125.884 39.0276 123.329 40.6618V29.5263ZM123.329 42.6618C125.796 40.8086 128.803 39.8095 131.891 39.8164C139.77 39.8164 146.201 46.242 146.416 54.2226H124.154C123.935 54.2224 123.725 54.1356 123.571 53.9812C123.416 53.8269 123.329 53.6176 123.329 53.3994V42.6618Z" fill="white"/>
<path d="M126.343 129.444V132.342H150.132C151.549 132.342 152.704 131.22 152.752 129.817C152.754 129.787 152.754 129.756 152.754 129.725C152.754 129.002 152.461 128.348 151.986 127.874C151.512 127.4 150.856 127.107 150.132 127.107H128.684C127.391 127.107 126.343 128.154 126.343 129.444Z" fill="#6B84AA"/>
<path d="M150.132 132.45H126.343C126.283 132.45 126.234 132.402 126.234 132.342V129.445C126.234 128.097 127.333 127 128.684 127H150.132C150.862 127 151.548 127.284 152.063 127.798C152.579 128.313 152.863 128.997 152.863 129.725C152.863 129.758 152.862 129.791 152.86 129.823C152.81 131.296 151.611 132.45 150.132 132.45ZM126.451 132.235H150.132C151.494 132.235 152.598 131.172 152.645 129.815C152.646 129.784 152.646 129.755 152.646 129.726C152.646 129.055 152.385 128.425 151.91 127.951C151.435 127.477 150.804 127.216 150.132 127.216H128.684C127.453 127.216 126.451 128.216 126.451 129.445V132.235Z" fill="#6B84AA"/>
<path d="M123.991 134.68V149.893C123.991 151.55 124.335 152.893 125.995 152.893H150.413C151.706 152.893 152.754 151.847 152.754 150.557V129.818H152.752C152.704 131.221 151.549 132.343 150.132 132.343H126.332C125.039 132.343 123.991 133.389 123.991 134.68Z" fill="white"/>
<path d="M150.413 152.999H125.996C124.124 152.999 123.883 151.338 123.883 149.892V134.678C123.883 133.33 124.982 132.233 126.333 132.233H150.132C151.494 132.233 152.598 131.17 152.645 129.813C152.647 129.755 152.695 129.709 152.753 129.709C152.812 129.709 152.863 129.757 152.863 129.817V150.555C152.863 151.902 151.764 152.999 150.413 152.999ZM126.333 132.449C125.101 132.449 124.099 133.449 124.099 134.678V149.891C124.099 151.918 124.666 152.783 125.995 152.783H150.413C151.644 152.783 152.646 151.783 152.646 150.555V130.794C152.232 131.773 151.264 132.449 150.132 132.449H126.333V132.449Z" fill="#6B84AA"/>
<path d="M128.285 139.87C128.225 139.87 128.177 139.822 128.177 139.762V137.732C128.177 137.672 128.225 137.624 128.285 137.624H132.049V136.088C132.049 136.029 132.097 135.98 132.157 135.98C132.217 135.98 132.265 136.029 132.265 136.088V137.732C132.265 137.792 132.217 137.84 132.157 137.84H128.393V139.762C128.393 139.822 128.345 139.87 128.285 139.87ZM141.483 142.79H133.455C133.395 142.79 133.346 142.742 133.346 142.682C133.346 142.622 133.395 142.574 133.455 142.574H141.483C141.543 142.574 141.592 142.622 141.592 142.682C141.592 142.742 141.543 142.79 141.483 142.79ZM136.582 150.058C136.557 150.058 136.531 150.049 136.511 150.031L134.914 148.633H123.992C123.932 148.633 123.883 148.584 123.883 148.525C123.883 148.465 123.932 148.417 123.992 148.417H134.955C134.982 148.417 135.007 148.426 135.027 148.444L136.654 149.869C136.698 149.909 136.703 149.977 136.663 150.022C136.642 150.046 136.612 150.058 136.582 150.058ZM145.155 139.533H137.991C137.931 139.533 137.883 139.485 137.883 139.425C137.883 139.366 137.931 139.317 137.991 139.317H145.11L147.737 136.695C147.757 136.675 147.785 136.664 147.814 136.664H152.755C152.815 136.664 152.863 136.712 152.863 136.772C152.863 136.831 152.815 136.88 152.755 136.88H147.858L145.231 139.502C145.211 139.522 145.183 139.533 145.155 139.533ZM143.502 146.855H139.241C139.181 146.855 139.133 146.807 139.133 146.747C139.133 146.687 139.181 146.639 139.241 146.639H143.458L147.499 142.606C147.519 142.586 147.547 142.574 147.576 142.574H152.755C152.815 142.574 152.863 142.622 152.863 142.682C152.863 142.742 152.815 142.79 152.755 142.79H147.62L143.579 146.823C143.558 146.844 143.531 146.855 143.502 146.855Z" fill="#6B84AA"/>
<path d="M123.108 140.372V145.422C123.108 145.759 123.381 146.031 123.718 146.031H130.282C132.008 146.031 133.441 144.657 133.461 142.935C133.472 142.055 133.119 141.257 132.542 140.682C131.974 140.114 131.189 139.764 130.322 139.764H123.718C123.381 139.763 123.108 140.036 123.108 140.372Z" fill="white"/>
<path d="M130.282 146.14H123.718C123.322 146.14 123 145.818 123 145.423V140.373C123 139.978 123.322 139.656 123.718 139.656H130.322C131.19 139.656 132.006 139.993 132.619 140.606C133.243 141.228 133.58 142.056 133.57 142.937C133.549 144.703 132.074 146.14 130.282 146.14ZM123.718 139.872C123.441 139.872 123.216 140.097 123.216 140.373V145.423C123.216 145.699 123.442 145.924 123.718 145.924H130.282C131.956 145.924 133.334 144.583 133.354 142.934C133.363 142.112 133.048 141.339 132.466 140.758C131.893 140.186 131.132 139.872 130.322 139.872H123.718V139.872Z" fill="#6B84AA"/>
<path d="M130.221 144.44C131.074 144.44 131.766 143.749 131.766 142.897C131.766 142.046 131.074 141.355 130.221 141.355C129.368 141.355 128.676 142.046 128.676 142.897C128.676 143.749 129.368 144.44 130.221 144.44Z" fill="#6B84AA"/>
<path d="M130.221 144.548C129.309 144.548 128.568 143.808 128.568 142.898C128.568 141.988 129.309 141.248 130.221 141.248C131.133 141.248 131.874 141.988 131.874 142.898C131.874 143.808 131.133 144.548 130.221 144.548ZM130.221 141.464C129.429 141.464 128.784 142.107 128.784 142.898C128.784 143.689 129.428 144.332 130.221 144.332C131.014 144.332 131.658 143.689 131.658 142.898C131.658 142.107 131.013 141.464 130.221 141.464Z" fill="#6B84AA"/>
<path d="M130.221 143.855C130.75 143.855 131.179 143.427 131.179 142.899C131.179 142.371 130.75 141.943 130.221 141.943C129.692 141.943 129.263 142.371 129.263 142.899C129.263 143.427 129.692 143.855 130.221 143.855Z" fill="white"/>
<path d="M130.221 143.961C129.633 143.961 129.155 143.484 129.155 142.898C129.155 142.311 129.633 141.834 130.221 141.834C130.809 141.834 131.287 142.311 131.287 142.898C131.287 143.484 130.809 143.961 130.221 143.961ZM130.221 142.05C129.752 142.05 129.372 142.43 129.372 142.898C129.372 143.365 129.753 143.745 130.221 143.745C130.69 143.745 131.071 143.365 131.071 142.898C131.071 142.43 130.689 142.05 130.221 142.05Z" fill="#6B84AA"/>
<path d="M132.157 136.237C132.588 136.237 132.937 135.889 132.937 135.459C132.937 135.028 132.588 134.68 132.157 134.68C131.726 134.68 131.376 135.028 131.376 135.459C131.376 135.889 131.726 136.237 132.157 136.237Z" fill="#0166FF"/>
<path d="M137.252 140.206C137.683 140.206 138.033 139.857 138.033 139.427C138.033 138.997 137.683 138.648 137.252 138.648C136.821 138.648 136.472 138.997 136.472 139.427C136.472 139.857 136.821 140.206 137.252 140.206Z" fill="#0166FF"/>
<path d="M144.967 140.206C145.398 140.206 145.747 139.857 145.747 139.427C145.747 138.997 145.398 138.648 144.967 138.648C144.536 138.648 144.186 138.997 144.186 139.427C144.186 139.857 144.536 140.206 144.967 140.206Z" fill="#0166FF"/>
<path d="M141.483 143.222C141.914 143.222 142.264 142.873 142.264 142.443C142.264 142.013 141.914 141.664 141.483 141.664C141.052 141.664 140.703 142.013 140.703 142.443C140.703 142.873 141.052 143.222 141.483 143.222Z" fill="#0166FF"/>
<path d="M139.241 147.526C139.672 147.526 140.022 147.178 140.022 146.748C140.022 146.317 139.672 145.969 139.241 145.969C138.81 145.969 138.461 146.317 138.461 146.748C138.461 147.178 138.81 147.526 139.241 147.526Z" fill="#0166FF"/>
<path d="M147.397 143.464C147.828 143.464 148.178 143.115 148.178 142.685C148.178 142.255 147.828 141.906 147.397 141.906C146.966 141.906 146.617 142.255 146.617 142.685C146.617 143.115 146.966 143.464 147.397 143.464Z" fill="#0166FF"/>
<path d="M136.582 150.73C137.013 150.73 137.363 150.381 137.363 149.951C137.363 149.521 137.013 149.172 136.582 149.172C136.151 149.172 135.802 149.521 135.802 149.951C135.802 150.381 136.151 150.73 136.582 150.73Z" fill="#0166FF"/>
</svg>
