<svg width="186" height="165" viewBox="0 0 186 165" fill="none" xmlns="http://www.w3.org/2000/svg">
<path fill-rule="evenodd" clip-rule="evenodd" d="M72.032 39.4357C71.4707 38.6723 71.2238 38.0213 71.4034 36.5171C71.6279 34.6088 73.2219 30.7473 73.2219 30.7473C73.2219 30.7473 73.5362 29.6248 74.2097 29.7146C74.8383 29.8044 75.0404 30.2758 74.9506 30.9718C74.8608 31.6453 74.8383 34.272 74.9057 34.1822C75.0179 34.0026 76.9487 33.3291 81.0572 29.6248C81.3715 29.3329 82.0001 28.9961 82.5389 29.5125C83.1226 30.0962 82.6062 30.9493 82.6062 30.9493C82.6062 30.9493 83.392 30.0738 84.0431 30.5901C84.8064 31.1738 84.1329 32.2964 84.1329 32.2964C84.1329 32.2964 84.537 32.0719 84.9411 32.4535C85.4575 32.9474 84.8962 33.8006 84.8962 33.8006C84.8962 33.8006 85.6371 34.2047 84.8289 35.417C83.639 37.2131 81.6858 38.5376 79.8224 39.5255C78.5202 40.199 74.9955 41.4113 74.1199 41.344C72.8851 41.2766 72.5484 40.1541 72.032 39.4357Z" fill="#F6BD94"/>
<path fill-rule="evenodd" clip-rule="evenodd" d="M54.992 155.909L54.6552 148.275L48.1221 149.106L48.8629 157.076L53.9143 159.074L54.992 155.909Z" fill="#F6BD94"/>
<path fill-rule="evenodd" clip-rule="evenodd" d="M47.1567 160.467C47.269 159.749 47.6057 159.12 47.8527 158.446C47.92 158.244 48.5711 156.246 48.6833 156.246H48.8405L53.8245 156.561L54.9022 154.809L55.0593 154.562C55.9349 154.922 56.8329 155.281 57.7085 155.64C59.4596 156.359 61.2108 157.077 62.9844 157.773C64.2865 158.312 65.5887 158.828 66.8908 159.367C67.2051 159.502 67.4745 159.771 67.5643 160.108C67.6541 160.445 67.3847 161.163 66.8683 161.32C65.903 161.634 64.5784 161.814 63.5906 161.926C61.5925 162.173 59.7515 162.218 57.7534 162.398C55.7553 162.577 53.8694 162.645 51.8938 162.69C51.108 162.712 50.3222 162.712 49.4916 162.735C49.4467 162.735 49.4018 162.735 49.3793 162.735C48.8405 162.757 48.0547 162.735 47.6057 162.375C47.022 161.971 47.0445 161.118 47.1567 160.467Z" fill="#0F3970"/>
<path fill-rule="evenodd" clip-rule="evenodd" d="M12.6052 153.663L15.9728 146.793L9.84382 144.391L6.67828 151.754L10.1581 155.908L12.6052 153.663Z" fill="#F6BD94"/>
<path fill-rule="evenodd" clip-rule="evenodd" d="M3.5576 153.911C4.00661 153.35 4.61278 152.946 5.12914 152.474C5.30875 152.317 6.81294 150.903 6.92519 150.948L7.05989 151.037L11.2806 153.709L13.0542 152.676L13.3012 152.542C13.9073 153.282 14.5135 154.023 15.1197 154.764C16.3095 156.223 17.5219 157.705 18.7118 159.164C19.6098 160.242 20.4854 161.342 21.3834 162.42C21.6079 162.689 21.6977 163.071 21.6303 163.408C21.563 163.767 20.9568 164.238 20.4405 164.148C19.4526 163.946 18.1954 163.475 17.2525 163.116C15.3666 162.375 13.7502 161.544 11.9092 160.736C10.0683 159.928 8.38448 159.075 6.63333 158.177C5.93737 157.817 5.2414 157.458 4.50053 157.077C4.45562 157.054 4.43317 157.032 4.38827 157.032C3.91681 156.785 3.22084 156.381 2.99633 155.864C2.70447 155.168 3.15349 154.427 3.5576 153.911ZM27.4226 81.8221C27.4226 81.867 27.4675 81.9568 27.5124 82.0691C28.3206 84.4488 34.9885 101.556 38.603 110.828C39.9949 114.375 40.9154 116.778 40.9154 116.778L46.0117 151.89L57.1697 151.194C57.1697 151.194 56.2043 119.809 54.9695 110.851C54.0266 104.003 52.0734 95.7864 48.6384 81.7547C48.0547 79.375 46.9771 73.2684 46.4158 68.7109L27.4226 68.9803C27.8492 70.4845 26.9736 79.9587 27.4226 81.8221Z" fill="#0F3970"/>
<path fill-rule="evenodd" clip-rule="evenodd" d="M27.5125 82.0681C28.3207 84.4479 34.9885 101.555 38.6031 110.827C40.2868 107.303 41.342 102.206 41.342 96.5488C41.342 85.9072 37.6152 77.2637 33.0129 77.2637C30.9025 77.2861 28.9717 79.0822 27.5125 82.0681Z" fill="#17335F"/>
<path fill-rule="evenodd" clip-rule="evenodd" d="M20.3956 69.0254H39.6133C39.3439 73.4033 38.8949 80.2507 38.4459 85.347C38.2887 87.2328 38.1091 88.8717 37.952 90.0616C37.4356 94.0578 36.8968 99.8725 36.4029 106.451C36.0437 111.12 36.6049 117.16 33.7537 121.335C29.8922 126.97 15.8606 150.948 15.8606 150.948L6.49866 146.547L20.9569 112.535C20.9569 112.535 18.4424 90.8474 18.9138 84.0673C19.1159 81.2385 19.5874 73.291 20.3956 69.0254Z" fill="#0F3970"/>
<path fill-rule="evenodd" clip-rule="evenodd" d="M7.6212 142.686L5.73535 147.131L16.1075 151.823L18.4424 147.557L7.6212 142.686Z" fill="#17335F"/>
<path fill-rule="evenodd" clip-rule="evenodd" d="M45.0239 148.186L45.4729 153.193L57.282 152.429L57.5738 147.131L45.0239 148.186Z" fill="#17335F"/>
<path fill-rule="evenodd" clip-rule="evenodd" d="M41.1175 6.5441C41.589 9.55248 40.0399 12.3139 37.6601 12.6731C35.2804 13.0323 32.9904 10.8995 32.5189 7.89113C32.0475 4.88275 33.5966 2.12133 35.9763 1.76212C38.3561 1.40291 40.6461 3.53571 41.1175 6.5441Z" fill="#0F3970"/>
<path fill-rule="evenodd" clip-rule="evenodd" d="M2.39022 81.2603C2.39022 81.5521 2.41267 81.844 2.45757 82.1583C2.54737 82.944 2.65962 83.7523 2.72698 84.538C2.77188 84.8748 2.79433 85.234 2.72698 85.5708C2.65962 85.9075 2.48002 86.2443 2.18816 86.4239C1.8963 86.6035 1.46975 86.581 1.22279 86.3341C1.02073 86.1096 0.975831 85.7953 0.975831 85.481C0.95338 85.0768 0.930932 84.6727 0.908481 84.2911C0.886031 83.7523 0.841125 83.2134 0.841125 82.6746C0.841125 81.5745 0.930929 80.4296 1.5371 79.5315C1.7167 79.2397 2.68208 78.4539 2.77188 79.2397C2.79433 79.5316 2.59227 79.9132 2.52492 80.2051C2.43512 80.5194 2.39022 80.8786 2.39022 81.2603Z" fill="#F4AE80"/>
<path fill-rule="evenodd" clip-rule="evenodd" d="M1.80649 81.8228C1.80649 82.1146 1.82894 82.4065 1.87384 82.7208C1.96365 83.5065 2.0759 84.3148 2.1657 85.1005C2.2106 85.4373 2.23305 85.7965 2.1657 86.1333C2.09835 86.47 1.91874 86.8068 1.62689 86.9864C1.33503 87.166 0.908469 87.1435 0.661512 86.8966C0.459456 86.6721 0.414554 86.3578 0.414554 86.0435C0.392103 85.6393 0.369655 85.2577 0.347205 84.8536C0.324754 84.3148 0.279849 83.7759 0.279849 83.2371C0.257398 82.137 0.369652 80.9921 0.975819 80.094C1.15542 79.8022 2.1208 79.0164 2.2106 79.8022C2.23305 80.1165 2.031 80.4757 1.96364 80.7676C1.85139 81.0819 1.80649 81.4635 1.80649 81.8228Z" fill="#F4AE80"/>
<path fill-rule="evenodd" clip-rule="evenodd" d="M6.6558 71.1796C5.91493 71.2694 5.17406 71.4266 4.45564 71.6511C4.07398 71.7858 3.71477 71.898 3.33311 71.9878C3.55762 72.2123 3.69232 72.3695 3.69232 72.4368C3.66987 72.6838 3.53516 72.9308 3.42291 73.1553C3.40046 73.1777 3.40046 73.2002 3.37801 73.2226C2.45754 74.8391 1.76157 76.5229 1.1105 78.2516C0.661489 79.419 0.190024 80.6313 0.0777712 81.8661C-0.0569325 83.1907 0.0104194 84.5153 0.0777712 85.8399C0.0777712 86.0419 0.100222 86.2664 0.190024 86.446C0.347179 86.7828 0.818643 86.9624 1.1105 86.693C1.76157 86.1093 1.71667 85.0092 1.69422 84.201C1.69422 83.4601 1.64931 82.6968 1.76157 81.9559C1.87382 81.215 2.21058 80.6089 2.63714 80.0027C2.95145 79.5762 3.22086 79.1271 3.55762 78.7006C3.66987 78.5434 3.80457 78.3638 3.96172 78.2291C4.16378 78.0271 4.38829 77.8699 4.65769 77.8025C4.8822 77.7576 5.24141 77.7576 5.42101 77.9148C5.62307 78.0944 5.55572 78.3863 5.53327 78.6108C5.51082 78.8802 5.42101 79.1271 5.30876 79.3965C5.15161 79.8231 4.9271 80.2721 4.90465 80.7211C4.90465 80.7885 4.90465 80.8783 4.90465 80.9681C4.94955 81.8212 5.89248 82.7641 6.54354 81.7763C6.67825 81.5742 6.76806 81.3273 6.85786 81.0803C7.26197 79.9353 7.91303 78.9026 8.13754 77.6903C8.27224 76.927 8.31714 76.1636 8.36205 75.3779C8.5192 72.7287 8.27224 72.1001 7.93549 71C7.46402 71.0674 7.05991 71.1123 6.6558 71.1796Z" fill="#F6BD94"/>
<path fill-rule="evenodd" clip-rule="evenodd" d="M3.91687 78.2528C4.00667 78.0956 4.09647 77.9385 4.20873 77.7813C4.38833 77.5119 4.61284 77.2649 4.9047 77.1302C5.19655 76.9955 5.57821 77.018 5.80272 77.2425C6.00478 77.4221 6.04968 77.714 6.02723 77.9834C5.98233 78.6569 5.60067 79.2181 5.26391 79.8019C5.0843 80.0937 4.92715 80.408 4.81489 80.7223C4.8598 80.2509 5.06185 79.8243 5.219 79.3977C5.30881 79.1508 5.39861 78.8814 5.44351 78.612C5.46596 78.3875 5.55576 78.0732 5.33126 77.916C5.15165 77.7588 4.79244 77.7588 4.56794 77.8037C4.34343 77.8935 4.11893 78.0507 3.91687 78.2528Z" fill="#F4AE80"/>
<path fill-rule="evenodd" clip-rule="evenodd" d="M10.3826 70.6423C10.3826 70.6423 10.203 71.6975 9.88873 72.7751C9.84383 72.8874 9.82138 72.9997 9.77648 73.1119C9.66422 73.4711 9.52952 73.8079 9.37236 74.0997C9.30501 74.212 9.26011 74.3242 9.19276 74.414C9.03561 74.6386 8.87845 74.7957 8.7213 74.8631C7.91307 75.1998 3.4454 73.0894 3.2209 72.5731C3.13109 72.3935 3.10864 72.1241 3.10864 71.8098C3.10864 71.6751 3.13109 71.5628 3.13109 71.4057C3.176 71.0689 3.24335 70.6872 3.33315 70.328C3.3556 70.2158 3.4005 70.0811 3.42295 69.9688C3.69236 68.9361 4.05157 68.0156 4.05157 68.0156L10.3826 70.6423Z" fill="#8193C2"/>
<path fill-rule="evenodd" clip-rule="evenodd" d="M29.3085 20.3086L38.0193 20.6678L35.5273 25.809L30.1391 25.5845L29.3085 20.3086Z" fill="#8193C2"/>
<path fill-rule="evenodd" clip-rule="evenodd" d="M17.1402 72.8416C19.8792 74.9071 49.8957 74.6376 49.8732 73.1784C49.8283 69.5863 49.267 65.7023 48.7507 61.9081C48.4588 59.7529 48.1894 57.6425 48.0098 55.622C47.6057 50.8624 46.2811 35.8205 46.0791 33.1714C45.9668 31.4427 45.6525 27.5138 45.6076 27.0423C45.3831 26.8852 45.1586 26.728 44.9341 26.5933L44.9116 26.5709C44.732 26.4811 44.5524 26.3688 44.3504 26.2341C43.4523 25.7178 42.2849 25.0442 41.4991 24.685C39.5684 23.7646 37.5703 23.2033 35.4599 22.889C31.9576 22.3951 28.5002 23.0012 25.9633 23.6972C23.6733 24.3258 22.1467 25.0442 21.9671 25.134H21.9446C21.9446 25.134 23.4039 25.7627 23.7856 28.1424C25.4469 38.335 20.4405 46.4397 20.4405 46.4397C20.4405 46.4397 19.1832 55.3077 18.4423 59.8202C18.0158 62.7388 16.7586 72.5497 17.1402 72.8416Z" fill="#D0D9EE"/>
<path fill-rule="evenodd" clip-rule="evenodd" d="M29.1738 15.502C29.2636 16.0183 29.3534 16.5571 29.4657 17.0959C29.4657 17.1184 29.4657 17.1633 29.4881 17.1857C29.4881 17.2082 29.4881 17.2082 29.4881 17.2307C29.6228 17.9266 29.7351 18.6226 29.8249 19.341C29.8698 19.6104 29.8922 19.9023 29.9147 20.1941C29.9371 20.5084 29.9596 20.8228 29.9596 21.1595C29.9596 21.7657 29.9596 22.3718 29.9371 22.978C29.9371 23.3148 29.9147 23.674 29.9147 24.0107C29.9147 24.4149 29.7351 24.8414 29.9147 25.2231C30.1168 25.717 30.5882 25.9639 30.9923 26.2558C31.4413 26.5701 31.9353 26.8171 32.4516 27.0191C33.4619 27.4008 34.5844 27.5355 35.6396 27.2212C37.6377 26.615 37.0989 24.4148 37.0989 22.8433V22.3943V21.2269V19.5655C36.5376 19.4308 35.9988 19.1614 35.46 18.9144C33.7089 18.0613 31.9577 17.1857 30.2515 16.2428C30.2066 16.2204 30.1617 16.1979 30.1167 16.1755C29.7351 15.951 29.4657 15.7714 29.1738 15.502Z" fill="#F6BD94"/>
<path fill-rule="evenodd" clip-rule="evenodd" d="M37.0539 22.7974C35.0783 22.281 33.1924 21.4953 31.4637 20.4177C30.9249 20.0809 30.3412 19.6992 29.8024 19.3176C29.7126 18.6216 29.6003 17.9256 29.4656 17.2072C29.3534 16.6235 29.2636 16.0622 29.1513 15.4785C29.4881 15.7928 29.8024 15.9724 30.2065 16.1969C31.9127 17.1399 33.6639 18.0154 35.415 18.8686C35.9538 19.1155 36.4702 19.3849 37.0539 19.5196V22.7974Z" fill="#F4AE80"/>
<path fill-rule="evenodd" clip-rule="evenodd" d="M30.2065 15.9285C29.3085 16.5571 28.0737 16.6694 27.0859 16.1979C26.2552 15.7938 25.6266 14.9856 25.4245 14.0875C25.3796 13.9304 25.3572 13.7508 25.3572 13.5936C25.3347 13.3018 25.3796 13.0099 25.4694 12.7181C25.7164 12.0221 26.4123 11.5506 27.1532 11.5057C27.8941 11.4608 28.6125 11.82 29.0615 12.4038L29.5105 13.7508L30.2065 15.9285Z" fill="#F6BD94"/>
<path fill-rule="evenodd" clip-rule="evenodd" d="M30.4311 76.6354C30.4311 76.6354 30.3637 77.8926 30.1392 79.0152C30.1167 79.1274 30.0943 79.2397 30.0718 79.3519C30.0045 79.6438 29.9147 79.9132 29.8024 80.1377C29.7575 80.2499 29.6902 80.3622 29.6228 80.452C29.5779 80.5194 29.533 80.5643 29.4881 80.6092C29.084 80.9235 24.0775 79.8458 21.4508 78.858C19.071 77.96 15.3442 76.5456 15.1871 75.8496C15.1646 75.7149 15.1422 75.5353 15.1646 75.3333C15.1646 75.221 15.1871 75.0863 15.1871 74.9516C15.2095 74.7047 15.2544 74.4577 15.3218 74.1883C15.3442 74.076 15.3667 73.9413 15.3891 73.8291C15.6361 72.7065 15.9953 71.6289 15.9953 71.6289L30.4311 76.6354Z" fill="#8193C2"/>
<path fill-rule="evenodd" clip-rule="evenodd" d="M30.4983 78.0262C29.5554 79.4406 19.8568 75.2423 16.6239 73.9178C14.1768 72.9075 15.0748 71.4482 15.3217 69.5624C16.0851 63.9946 17.028 59.2126 17.9485 54.0714C18.3077 52.1182 18.6444 50.1201 18.9812 48.0098C19.0036 47.9199 19.0036 47.8301 19.0261 47.7403C18.622 49.0874 17.8586 51.8937 17.5668 52.8591C15.7932 58.3819 12.9869 71.4257 10.0458 71.8972C9.52947 71.987 3.93927 70.0113 3.69231 69.3154C1.91872 64.3762 7.39666 46.2811 8.27224 44.036C9.79888 40.152 14.6258 30.1615 15.9054 28.5226C18.375 25.3571 26.3899 23.4937 26.7715 23.3814C27.9165 23.0447 29.084 22.7528 30.2514 22.5059C31.4188 25.2673 31.6882 27.9614 32.0025 30.9473C33.5965 46.7974 31.2392 76.9037 30.4983 78.0262Z" fill="#8D9FCA"/>
<path fill-rule="evenodd" clip-rule="evenodd" d="M33.0802 25.9437L32.9904 26.3927L32.9006 26.8642L32.7659 27.605L32.6761 28.0541L32.4516 29.2888L32.3618 29.7154L32.0475 31.3094L27.1981 23.2496L27.5349 22.7782L27.7594 22.4638L28.186 21.8801L28.4105 21.5658L28.7472 21.0944L28.9717 20.7801L29.3085 20.3086L33.0802 25.9437Z" fill="#8193C2"/>
<path fill-rule="evenodd" clip-rule="evenodd" d="M19.7894 50.3931C19.2731 51.6503 18.6669 52.9076 17.9485 54.075C18.3077 52.1218 18.6445 50.1237 18.9812 48.0133C19.2057 47.5194 21.2936 42.715 21.8998 37.7085C22.1468 43.8151 20.8446 47.8113 19.7894 50.3931ZM71.6054 44.0845C71.6054 44.0845 72.5259 43.6355 73.424 43.0518C73.5138 42.9844 73.6036 42.9171 73.6934 42.8722C73.9852 42.6701 74.2771 42.4456 74.5016 42.2211C74.5914 42.1313 74.6587 42.0639 74.7261 41.9741C74.8832 41.7721 74.9955 41.5925 75.0179 41.4129C75.1077 40.5822 71.9647 37.0799 71.4258 36.9901C71.2238 36.9676 70.9768 37.0125 70.7074 37.1023C70.5952 37.1473 70.4829 37.1921 70.3482 37.237C70.0564 37.3718 69.7196 37.5289 69.4277 37.7085C69.3155 37.7759 69.2257 37.8208 69.1134 37.8881C68.2379 38.4269 67.4745 38.9882 67.4745 38.9882L71.6054 44.0845ZM36.7621 76.6379C36.7621 76.6379 36.8295 77.8951 37.054 79.0176C37.0764 79.1299 37.0989 79.2422 37.1213 79.3544C37.1887 79.6463 37.2785 79.9157 37.3907 80.1402C37.4356 80.2524 37.503 80.3647 37.5703 80.4545C37.6152 80.5218 37.6601 80.5667 37.705 80.6116C38.1091 80.9259 43.1156 79.8483 45.7423 78.8605C48.1221 77.9625 51.8489 76.5481 52.0061 75.8521C52.0285 75.7174 52.051 75.5378 52.0285 75.3357C52.0285 75.2235 52.0061 75.0888 52.0061 74.9541C51.9836 74.7071 51.9387 74.4602 51.8714 74.1908C51.8489 74.0785 51.8265 73.9438 51.804 73.8316C51.5571 72.709 51.1978 71.6314 51.1978 71.6314L36.7621 76.6379Z" fill="#8193C2"/>
<path fill-rule="evenodd" clip-rule="evenodd" d="M72.93 43.8125C70.7748 46.8208 54.9695 63.9058 50.1202 53.9152C50.0529 53.7805 49.963 53.556 49.8732 53.2642C49.3569 51.8049 48.5038 48.8639 48.167 47.7189C48.1895 47.8087 48.1895 47.8985 48.2119 47.9883C48.2344 48.1679 48.2568 48.325 48.3017 48.5046C48.616 50.4354 48.9303 52.2764 49.2446 54.0724C50.1651 59.1911 51.108 63.9956 51.8714 69.5633C52.1408 71.4492 53.0163 72.9084 50.5692 73.9187C47.3363 75.2433 37.6377 79.4416 36.6947 78.0272C36.2233 77.3312 36.6049 64.8038 36.2457 51.8049C36.0437 44.3064 34.5844 36.7405 35.1681 30.9258C35.4599 27.9623 35.7518 25.2458 36.9192 22.4844C38.0867 22.7538 39.2541 23.0456 40.3991 23.36C40.8032 23.4722 48.7956 25.3356 51.2652 28.5012C52.5449 30.1625 58.1126 43.9023 58.1126 43.9023C58.1126 43.9023 62.8721 40.3551 68.5746 37.9079C69.4053 37.5936 73.5137 42.9818 72.93 43.8125Z" fill="#8D9FCA"/>
<path fill-rule="evenodd" clip-rule="evenodd" d="M34.113 25.9437L34.2028 26.3927L34.2926 26.8642L34.4273 27.605L34.5171 28.0541L34.7416 29.2888L34.8314 29.7154L35.1233 31.3094L39.995 23.2496L39.6583 22.7782L39.4113 22.4638L39.0072 21.8801L38.7827 21.5658L38.4459 21.0944L38.199 20.7801L37.8622 20.3086L34.113 25.9437Z" fill="#8193C2"/>
<path fill-rule="evenodd" clip-rule="evenodd" d="M40.444 17.5236C40.0174 18.5788 39.4112 19.5442 38.4234 20.1728C37.5478 20.734 36.4927 20.981 35.4599 20.9586C34.315 20.9137 33.2149 20.5095 32.2495 19.9034C31.7556 19.5891 31.3066 19.2299 30.9025 18.8482C30.184 18.1522 29.5779 17.3665 29.0615 16.5133C28.2084 15.1438 27.5349 13.5723 27.1981 11.9559C26.8164 10.1149 26.8614 8.22906 27.6022 6.47791C27.8941 5.75949 28.3206 5.08597 28.8595 4.5247C31.0596 2.07758 34.8313 1.65103 37.5029 3.55933C38.8949 4.54715 39.9501 6.0289 40.4889 7.64534C40.6685 8.16171 40.8256 8.67807 40.9379 9.21689C41.589 11.911 41.5216 14.9193 40.444 17.5236Z" fill="#F6BD94"/>
<path fill-rule="evenodd" clip-rule="evenodd" d="M49.8733 53.2865C49.3569 51.8272 48.5038 48.8861 48.167 47.7412C48.1895 47.831 48.1895 47.9208 48.2119 48.0106C48.2344 48.1902 48.2568 48.3473 48.3017 48.5269L48.1446 47.6963L47.2914 34.9219C47.2914 34.9219 49.9855 46.9779 50.008 51.0639C50.008 51.4904 49.9406 52.3884 49.8733 53.2865Z" fill="#8193C2"/>
<path fill-rule="evenodd" clip-rule="evenodd" d="M26.7491 4.99527C26.5246 4.14214 26.8165 3.19921 27.3553 2.54814C27.9166 1.89708 28.7023 1.51542 29.5106 1.40317C30.3188 1.26847 31.1494 1.35827 31.9577 1.51542C32.7434 1.67258 33.5068 1.89708 34.2925 1.85218C35.2579 1.78483 36.2008 1.31336 36.8295 0.527589C37.4356 -0.213281 38.7378 -0.101028 39.5235 0.415336C40.3093 0.9317 41.0726 1.82973 41.2298 2.81755C41.3869 3.76048 41.2971 5.30958 39.8378 6.1627C38.1091 7.17298 32.6985 6.81377 31.9577 6.79132C31.2168 6.76887 30.431 6.97091 29.9596 7.55463C28.9942 8.72206 28.8146 10.4957 28.7472 12.0672C28.186 11.7529 27.6471 11.6182 26.9961 11.6182C26.7042 11.6182 26.4124 11.6407 26.0756 11.8876C25.4694 10.7202 25.1102 9.46293 24.8408 8.1608C24.7061 7.50973 24.6163 6.83622 24.6837 6.18515C24.7061 5.93819 24.7735 5.69123 24.9082 5.46672C25.1102 5.15242 25.4694 4.99526 25.8062 4.95036C26.1654 4.90546 26.4124 4.90546 26.7491 4.99527Z" fill="#0F3970"/>
<path fill-rule="evenodd" clip-rule="evenodd" d="M34.6742 17.9284C36.4478 17.9284 37.4356 17.8835 39.1643 17.7263C39.8603 17.659 38.4234 19.5897 34.5619 18.0406C34.4721 17.9957 34.517 17.9284 34.6742 17.9284Z" fill="#F4AE80"/>
<path fill-rule="evenodd" clip-rule="evenodd" d="M32.9231 8.58704C33.7986 8.65439 33.7313 9.35036 33.1027 9.50751C26.3001 11.1913 30.7902 8.40744 32.9231 8.58704ZM36.6723 8.00332C35.8641 8.31763 36.111 8.9687 36.7621 8.9238C43.7892 8.58704 38.6704 7.21755 36.6723 8.00332Z" fill="#0F3970"/>
<path fill-rule="evenodd" clip-rule="evenodd" d="M36.4478 15.6369H36.4927C37.256 15.4797 37.6377 15.3675 37.7948 15.0756C37.9295 14.8062 37.7948 14.5143 37.5703 13.998C37.3009 13.4143 36.8968 12.5162 36.56 11.0345C36.5376 10.9222 36.4253 10.8549 36.3131 10.8773C36.2008 10.8998 36.1335 11.012 36.1559 11.1243C36.5151 12.6285 36.9192 13.549 37.1886 14.1551C37.3458 14.5143 37.4805 14.8062 37.4356 14.896C37.3682 15.0307 36.8294 15.143 36.4029 15.2328C36.2906 15.2552 36.2233 15.3675 36.2457 15.4797C36.2682 15.5695 36.3355 15.6369 36.4478 15.6369Z" fill="#F4AE80"/>
<path fill-rule="evenodd" clip-rule="evenodd" d="M38.8276 12.2695C39.3215 12.2246 39.5011 10.2939 38.3112 10.4286C37.6826 10.496 38.0418 12.3593 38.8276 12.2695ZM32.6761 13.0329C33.17 12.988 33.3496 11.0572 32.1597 11.1919C31.5311 11.2593 31.8903 13.1227 32.6761 13.0329Z" fill="#0F3970"/>
<rect x="89" y="115" width="96.3164" height="46.9234" rx="7" stroke="#616A7F" stroke-linecap="round" stroke-dasharray="3 3"/>
<path d="M112.642 54.3411C112.875 54.1922 112.943 53.883 112.794 53.6504C112.645 53.4178 112.336 53.3499 112.103 53.4988L112.642 54.3411ZM144.129 104.906C144.327 105.099 144.643 105.094 144.836 104.897L147.976 101.673C148.169 101.475 148.164 101.159 147.967 100.966C147.769 100.773 147.452 100.778 147.26 100.975L144.469 103.841L141.603 101.05C141.405 100.857 141.089 100.861 140.896 101.059C140.704 101.257 140.708 101.573 140.906 101.766L144.129 104.906ZM99.3653 74.5338L98.8676 74.5817L99.3653 74.5338ZM103.779 81.5858L103.525 82.0166L103.779 81.5858ZM110.716 54.389C110.484 54.5386 110.417 54.8481 110.567 55.0801C110.716 55.3122 111.026 55.379 111.258 55.2294L110.716 54.389ZM108.529 57.0326C108.757 56.8766 108.815 56.5654 108.659 56.3375C108.503 56.1097 108.191 56.0515 107.964 56.2076L108.529 57.0326ZM105.284 58.1689C105.068 58.3409 105.032 58.6555 105.204 58.8715C105.376 59.0876 105.691 59.1233 105.907 58.9513L105.284 58.1689ZM103.526 61.109C103.715 60.9082 103.706 60.5918 103.505 60.4022C103.305 60.2126 102.988 60.2217 102.799 60.4224L103.526 61.109ZM100.745 63.1183C100.604 63.356 100.683 63.6626 100.92 63.8032C101.158 63.9439 101.465 63.8652 101.605 63.6276L100.745 63.1183ZM100.355 66.5211C100.433 66.2561 100.281 65.9784 100.016 65.9009C99.7506 65.8233 99.4729 65.9753 99.3954 66.2404L100.355 66.5211ZM98.7926 69.5669C98.7691 69.842 98.9731 70.0841 99.2482 70.1076C99.5234 70.1311 99.7655 69.9272 99.789 69.652L98.7926 69.5669ZM99.7447 72.8655C99.7315 72.5896 99.4972 72.3768 99.2214 72.39C98.9455 72.4032 98.7327 72.6376 98.7459 72.9134L99.7447 72.8655ZM99.3402 76.7994C99.4281 77.0612 99.7116 77.2021 99.9733 77.1142C100.235 77.0262 100.376 76.7428 100.288 76.481L99.3402 76.7994ZM102.423 79.9168C102.226 79.723 101.91 79.7253 101.716 79.922C101.522 80.1187 101.525 80.4353 101.721 80.6291L102.423 79.9168ZM104.861 82.7644C105.105 82.8937 105.408 82.8008 105.537 82.5568C105.666 82.3128 105.573 82.0102 105.329 81.8808L104.861 82.7644ZM107.99 83.1389C107.735 83.0324 107.442 83.1527 107.336 83.4075C107.229 83.6623 107.35 83.9551 107.605 84.0616L107.99 83.1389ZM110.467 85.1061C110.731 85.1888 111.012 85.0424 111.094 84.7789C111.177 84.5155 111.031 84.2348 110.767 84.152L110.467 85.1061ZM113.615 84.912C113.346 84.8522 113.079 85.0223 113.019 85.2918C112.959 85.5614 113.129 85.8285 113.399 85.8883L113.615 84.912ZM116.389 86.4292C116.662 86.4681 116.915 86.2781 116.954 86.0047C116.993 85.7313 116.803 85.4781 116.53 85.4392L116.389 86.4292ZM119.477 85.7602C119.202 85.7387 118.961 85.9444 118.94 86.2197C118.918 86.495 119.124 86.7356 119.399 86.7572L119.477 85.7602ZM122.411 86.9184C122.687 86.9273 122.918 86.7107 122.927 86.4347C122.936 86.1587 122.719 85.9278 122.443 85.9189L122.411 86.9184ZM125.431 85.9722C125.155 85.9701 124.929 86.1922 124.927 86.4683C124.925 86.7444 125.147 86.97 125.423 86.9722L125.431 85.9722ZM128.42 86.9937C128.696 86.9971 128.923 86.776 128.926 86.4999C128.929 86.2238 128.708 85.9972 128.432 85.9938L128.42 86.9937ZM131.451 86.0875C131.175 86.0714 130.939 86.2819 130.923 86.5576C130.907 86.8332 131.117 87.0697 131.393 87.0858L131.451 86.0875ZM134.313 87.3984C134.585 87.4448 134.844 87.2617 134.89 86.9895C134.937 86.7173 134.754 86.459 134.481 86.4126L134.313 87.3984ZM137.472 87.2256C137.216 87.1229 136.925 87.2474 136.822 87.5038C136.719 87.7601 136.844 88.0512 137.1 88.1539L137.472 87.2256ZM139.531 89.5904C139.742 89.7682 140.057 89.7409 140.235 89.5296C140.413 89.3182 140.386 89.0028 140.174 88.8251L139.531 89.5904ZM142.214 91.2106C142.069 90.9759 141.761 90.9035 141.526 91.049C141.291 91.1944 141.219 91.5026 141.364 91.7374L142.214 91.2106ZM142.577 94.3475C142.667 94.6086 142.952 94.7471 143.213 94.657C143.474 94.5669 143.613 94.2822 143.522 94.0212L142.577 94.3475ZM144.301 96.9815C144.248 96.7105 143.985 96.5335 143.714 96.5862C143.443 96.6389 143.266 96.9013 143.319 97.1724L144.301 96.9815ZM143.74 100.089C143.768 100.363 144.013 100.564 144.288 100.536C144.562 100.508 144.763 100.263 144.735 99.9881L143.74 100.089ZM144.939 102.997C144.928 102.721 144.696 102.506 144.42 102.517C144.144 102.527 143.929 102.759 143.94 103.035L144.939 102.997ZM112.373 53.9199L112.103 53.4988C111.63 53.8017 111.167 54.098 110.716 54.389L110.987 54.8092L111.258 55.2294C111.708 54.9394 112.169 54.6439 112.642 54.3411L112.373 53.9199ZM108.246 56.6201L107.964 56.2076C107.004 56.8649 106.109 57.5122 105.284 58.1689L105.595 58.5601L105.907 58.9513C106.707 58.3141 107.582 57.6814 108.529 57.0326L108.246 56.6201ZM103.162 60.7657L102.799 60.4224C102.006 61.262 101.318 62.1492 100.745 63.1183L101.175 63.3729L101.605 63.6276C102.136 62.7308 102.777 61.9023 103.526 61.109L103.162 60.7657ZM99.8752 66.3807L99.3954 66.2404C99.0972 67.2595 98.8957 68.361 98.7926 69.5669L99.2908 69.6094L99.789 69.652C99.887 68.5052 100.078 67.4698 100.355 66.5211L99.8752 66.3807ZM99.2453 72.8894L98.7459 72.9134C98.7717 73.4508 98.8122 74.0065 98.8676 74.5817L99.3653 74.5338L99.863 74.4859C99.809 73.9255 99.7697 73.3858 99.7447 72.8655L99.2453 72.8894ZM99.3653 74.5338L98.8676 74.5817C98.9408 75.3422 99.1006 76.0864 99.3402 76.7994L99.8141 76.6402L100.288 76.481C100.073 75.8396 99.9288 75.1701 99.863 74.4859L99.3653 74.5338ZM102.072 80.2729L101.721 80.6291C102.258 81.1581 102.862 81.6257 103.525 82.0166L103.779 81.5858L104.032 81.1551C103.442 80.8067 102.903 80.3896 102.423 79.9168L102.072 80.2729ZM103.779 81.5858L103.525 82.0166C103.971 82.2796 104.416 82.5286 104.861 82.7644L105.095 82.3226L105.329 81.8808C104.898 81.6521 104.466 81.4105 104.032 81.1551L103.779 81.5858ZM107.797 83.6002L107.605 84.0616C108.565 84.4629 109.52 84.8084 110.467 85.1061L110.617 84.6291L110.767 84.152C109.848 83.8632 108.921 83.528 107.99 83.1389L107.797 83.6002ZM113.507 85.4002L113.399 85.8883C114.408 86.1122 115.405 86.2891 116.389 86.4292L116.459 85.9342L116.53 85.4392C115.569 85.3024 114.597 85.1299 113.615 84.912L113.507 85.4002ZM119.438 86.2587L119.399 86.7572C120.423 86.8373 121.428 86.8869 122.411 86.9184L122.427 86.4187L122.443 85.9189C121.472 85.8878 120.482 85.8389 119.477 85.7602L119.438 86.2587ZM125.427 86.4722L125.423 86.9722C126.456 86.9802 127.451 86.9818 128.42 86.9937L128.426 86.4937L128.432 85.9938C127.462 85.9819 126.455 85.9801 125.431 85.9722L125.427 86.4722ZM131.422 86.5866L131.393 87.0858C132.422 87.1457 133.396 87.2419 134.313 87.3984L134.397 86.9055L134.481 86.4126C133.517 86.2481 132.504 86.1488 131.451 86.0875L131.422 86.5866ZM137.286 87.6898L137.1 88.1539C137.992 88.5114 138.803 88.9787 139.531 89.5904L139.852 89.2078L140.174 88.8251C139.356 88.1372 138.451 87.618 137.472 87.2256L137.286 87.6898ZM141.789 91.474L141.364 91.7374C141.823 92.4775 142.229 93.3402 142.577 94.3475L143.05 94.1844L143.522 94.0212C143.154 92.9533 142.717 92.0219 142.214 91.2106L141.789 91.474ZM143.81 97.077L143.319 97.1724C143.492 98.0626 143.633 99.0323 143.74 100.089L144.237 100.038L144.735 99.9881C144.625 98.9053 144.48 97.9052 144.301 96.9815L143.81 97.077ZM144.439 103.016L143.94 103.035C143.958 103.526 143.971 104.033 143.978 104.554L144.478 104.548L144.978 104.541C144.971 104.012 144.958 103.497 144.939 102.997L144.439 103.016Z" fill="#616A7F"/>
<path d="M137.916 13.1715C138.16 13.1715 138.399 13.0991 138.602 12.9634C138.805 12.8277 138.964 12.6349 139.057 12.4092C139.15 12.1836 139.175 11.9353 139.127 11.6958C139.08 11.4563 138.962 11.2362 138.789 11.0635C138.617 10.8909 138.397 10.7732 138.157 10.7256C137.918 10.678 137.669 10.7024 137.444 10.7959C137.218 10.8893 137.025 11.0476 136.889 11.2507C136.754 11.4537 136.681 11.6925 136.681 11.9367C136.682 12.2641 136.812 12.578 137.043 12.8095C137.275 13.041 137.589 13.1712 137.916 13.1715ZM137.916 11.3193C138.038 11.3193 138.158 11.3555 138.259 11.4233C138.361 11.4912 138.44 11.5876 138.487 11.7004C138.533 11.8132 138.546 11.9374 138.522 12.0572C138.498 12.1769 138.439 12.2869 138.353 12.3733C138.266 12.4596 138.156 12.5184 138.037 12.5422C137.917 12.5661 137.793 12.5538 137.68 12.5071C137.567 12.4604 137.471 12.3813 137.403 12.2797C137.335 12.1782 137.299 12.0588 137.299 11.9367C137.299 11.773 137.364 11.616 137.48 11.5002C137.596 11.3845 137.752 11.3194 137.916 11.3193ZM153.969 2.88131C153.806 2.88131 153.647 2.92959 153.512 3.02005C153.376 3.1105 153.271 3.23907 153.208 3.3895C153.146 3.53992 153.13 3.70544 153.162 3.86513C153.193 4.02482 153.272 4.1715 153.387 4.28663C153.502 4.40176 153.649 4.48016 153.808 4.51193C153.968 4.54369 154.134 4.52739 154.284 4.46508C154.434 4.40277 154.563 4.29726 154.653 4.16188C154.744 4.02651 154.792 3.86734 154.792 3.70453C154.792 3.48626 154.705 3.277 154.551 3.12267C154.396 2.96833 154.187 2.88153 153.969 2.88131ZM153.969 4.11614C153.888 4.11614 153.808 4.092 153.74 4.04677C153.673 4.00154 153.62 3.93725 153.589 3.86204C153.558 3.78683 153.549 3.70407 153.565 3.62423C153.581 3.54438 153.62 3.47104 153.678 3.41348C153.735 3.35591 153.809 3.31671 153.889 3.30083C153.968 3.28495 154.051 3.2931 154.126 3.32425C154.202 3.3554 154.266 3.40816 154.311 3.47585C154.356 3.54354 154.381 3.62312 154.381 3.70453C154.38 3.81366 154.337 3.91829 154.26 3.99546C154.183 4.07263 154.078 4.11603 153.969 4.11614ZM127.626 1.64648C127.463 1.64648 127.304 1.69477 127.169 1.78522C127.033 1.87568 126.928 2.00425 126.865 2.15467C126.803 2.30509 126.787 2.47061 126.819 2.6303C126.85 2.78999 126.929 2.93668 127.044 3.0518C127.159 3.16693 127.306 3.24534 127.465 3.2771C127.625 3.30887 127.791 3.29256 127.941 3.23026C128.091 3.16795 128.22 3.06243 128.31 2.92706C128.401 2.79168 128.449 2.63252 128.449 2.4697C128.449 2.25144 128.362 2.04218 128.208 1.88784C128.054 1.7335 127.844 1.6467 127.626 1.64648ZM127.626 2.88131C127.545 2.88131 127.465 2.85717 127.397 2.81194C127.33 2.76671 127.277 2.70243 127.246 2.62722C127.215 2.55201 127.206 2.46925 127.222 2.3894C127.238 2.30956 127.277 2.23621 127.335 2.17865C127.393 2.12109 127.466 2.08188 127.546 2.066C127.626 2.05012 127.708 2.05827 127.784 2.08942C127.859 2.12058 127.923 2.17334 127.968 2.24102C128.013 2.30871 128.038 2.38829 128.038 2.4697C128.037 2.57883 127.994 2.68346 127.917 2.76063C127.84 2.8378 127.735 2.8812 127.626 2.88131ZM158.085 10.2903C157.922 10.2903 157.763 10.3385 157.628 10.429C157.492 10.5195 157.387 10.648 157.324 10.7985C157.262 10.9489 157.246 11.1144 157.278 11.2741C157.309 11.4338 157.388 11.5805 157.503 11.6956C157.618 11.8107 157.765 11.8891 157.924 11.9209C158.084 11.9526 158.25 11.9363 158.4 11.874C158.55 11.8117 158.679 11.7062 158.77 11.5708C158.86 11.4355 158.908 11.2763 158.908 11.1135C158.908 10.8952 158.821 10.686 158.667 10.5316C158.513 10.3773 158.303 10.2905 158.085 10.2903ZM158.085 11.5251C158.004 11.5251 157.924 11.501 157.856 11.4557C157.789 11.4105 157.736 11.3462 157.705 11.271C157.674 11.1958 157.665 11.113 157.681 11.0332C157.697 10.9533 157.736 10.88 157.794 10.8224C157.852 10.7649 157.925 10.7257 158.005 10.7098C158.085 10.6939 158.167 10.7021 158.243 10.7332C158.318 10.7644 158.382 10.8171 158.427 10.8848C158.472 10.9525 158.497 11.0321 158.497 11.1135C158.497 11.2226 158.453 11.3272 158.376 11.4044C158.299 11.4816 158.194 11.525 158.085 11.5251ZM109.515 24.285C109.515 24.1221 109.467 23.963 109.376 23.8276C109.286 23.6922 109.157 23.5867 109.007 23.5244C108.857 23.4621 108.691 23.4458 108.531 23.4776C108.372 23.5093 108.225 23.5877 108.11 23.7029C107.995 23.818 107.916 23.9647 107.885 24.1244C107.853 24.284 107.869 24.4496 107.931 24.6C107.994 24.7504 108.099 24.879 108.235 24.9694C108.37 25.0599 108.529 25.1082 108.692 25.1082C108.91 25.108 109.12 25.0212 109.274 24.8668C109.428 24.7125 109.515 24.5032 109.515 24.285ZM108.28 24.285C108.28 24.2036 108.305 24.124 108.35 24.0563C108.395 23.9886 108.459 23.9358 108.534 23.9047C108.61 23.8735 108.692 23.8654 108.772 23.8813C108.852 23.8971 108.925 23.9363 108.983 23.9939C109.041 24.0515 109.08 24.1248 109.096 24.2047C109.112 24.2845 109.103 24.3673 109.072 24.4425C109.041 24.5177 108.988 24.582 108.921 24.6272C108.853 24.6724 108.773 24.6966 108.692 24.6966C108.583 24.6965 108.478 24.6531 108.401 24.5759C108.324 24.4987 108.28 24.3941 108.28 24.285Z" fill="#091229"/>
<path d="M121.28 11.941L121.892 11.1363L121.506 10.9173L121.113 11.8188H121.1L120.701 10.9235L120.308 11.1491L120.913 11.9348V11.9476L119.966 11.8253V12.2633L120.919 12.1411V12.1538L120.308 12.9392L120.674 13.1713L121.093 12.2633H121.106L121.493 13.1647L121.898 12.933L121.28 12.16V12.1472L122.252 12.2633V11.8253L121.28 11.9538V11.941ZM106.13 7.02476L105.778 7.47712L105.989 7.61048L106.231 7.08773H106.238L106.46 7.60677L106.694 7.47341L106.338 7.02805V7.02064L106.898 7.08773V6.83542L106.338 6.90951V6.9021L106.69 6.43863L106.468 6.31267L106.242 6.83171H106.234L106.004 6.31597L105.778 6.44604L106.127 6.89839V6.9058L105.581 6.83542V7.08773L106.13 7.01735V7.02476ZM167.964 20.4621V20.0328L167.01 20.1592V20.1464L167.61 19.357L167.231 19.1421L166.846 20.0262H166.833L166.441 19.1483L166.056 19.3697L166.65 20.1403V20.153L165.721 20.0328V20.4621L166.656 20.3424V20.3551L166.056 21.1256L166.416 21.3533L166.827 20.4621H166.839L167.218 21.3467L167.616 21.1195L167.01 20.3613V20.3485L167.964 20.4621ZM167.734 3.1223L168.252 2.44108L167.925 2.25586L167.593 3.01857H167.582L167.244 2.26121L166.911 2.4522L167.424 3.11694V3.12765L166.623 3.02433V3.39478L167.429 3.29106V3.30217L166.911 3.96692L167.222 4.16325L167.576 3.39478H167.587L167.914 4.15749L168.257 3.96157L167.734 3.30752V3.29641L168.557 3.39478V3.02433L167.734 3.133V3.1223Z" fill="#0166FF"/>
<path d="M103.317 54.9492C103.772 54.9492 104.14 54.5806 104.14 54.126C104.14 53.6713 103.772 53.3027 103.317 53.3027C102.863 53.3027 102.494 53.6713 102.494 54.126C102.494 54.5806 102.863 54.9492 103.317 54.9492Z" fill="#091229"/>
<path d="M107.022 53.3027H105.787C105.569 53.3027 105.359 53.3895 105.205 53.5438C105.05 53.6982 104.964 53.9076 104.964 54.126C104.964 54.3443 105.05 54.5537 105.205 54.7081C105.359 54.8624 105.569 54.9492 105.787 54.9492H107.022C107.24 54.9492 107.449 54.8624 107.604 54.7081C107.758 54.5537 107.845 54.3443 107.845 54.126C107.845 53.9076 107.758 53.6982 107.604 53.5438C107.449 53.3895 107.24 53.3027 107.022 53.3027ZM168.351 53.3027H167.117C166.898 53.3027 166.689 53.3895 166.534 53.5438C166.38 53.6982 166.293 53.9076 166.293 54.126C166.293 54.3443 166.38 54.5537 166.534 54.7081C166.689 54.8624 166.898 54.9492 167.117 54.9492H168.351C168.57 54.9492 168.779 54.8624 168.933 54.7081C169.088 54.5537 169.175 54.3443 169.175 54.126C169.175 53.9076 169.088 53.6982 168.933 53.5438C168.779 53.3895 168.57 53.3027 168.351 53.3027Z" fill="#091229"/>
<path d="M170.821 54.9492C171.276 54.9492 171.644 54.5806 171.644 54.126C171.644 53.6713 171.276 53.3027 170.821 53.3027C170.366 53.3027 169.998 53.6713 169.998 54.126C169.998 54.5806 170.366 54.9492 170.821 54.9492Z" fill="#091229"/>
<path d="M151.127 56.5957H147.707C147.5 56.6118 147.307 56.7055 147.165 56.8581C147.024 57.0107 146.946 57.211 146.946 57.4189C146.946 57.6269 147.024 57.8271 147.165 57.9798C147.307 58.1324 147.5 58.2261 147.707 58.2421H151.127C151.334 58.2261 151.528 58.1324 151.669 57.9798C151.811 57.8271 151.889 57.6269 151.889 57.4189C151.889 57.211 151.811 57.0107 151.669 56.8581C151.528 56.7055 151.334 56.6118 151.127 56.5957ZM126.431 56.5957H123.011C122.804 56.6118 122.61 56.7055 122.469 56.8581C122.328 57.0107 122.249 57.211 122.249 57.4189C122.249 57.6269 122.328 57.8271 122.469 57.9798C122.61 58.1324 122.804 58.2261 123.011 58.2421H126.431C126.638 58.2261 126.832 58.1324 126.973 57.9798C127.114 57.8271 127.192 57.6269 127.192 57.4189C127.192 57.211 127.114 57.0107 126.973 56.8581C126.832 56.7055 126.638 56.6118 126.431 56.5957ZM145.301 56.5957H128.837C128.619 56.5957 128.409 56.6824 128.255 56.8368C128.1 56.9912 128.014 57.2006 128.014 57.4189C128.014 57.6373 128.1 57.8466 128.255 58.001C128.409 58.1554 128.619 58.2421 128.837 58.2421H135.398V59.0654H132.13C131.911 59.0654 131.702 59.1521 131.548 59.3065C131.393 59.4609 131.307 59.6702 131.307 59.8886C131.307 60.1069 131.393 60.3163 131.548 60.4707C131.702 60.6251 131.911 60.7118 132.13 60.7118H142.42C142.638 60.7118 142.848 60.6251 143.002 60.4707C143.156 60.3163 143.243 60.1069 143.243 59.8886C143.243 59.6702 143.156 59.4609 143.002 59.3065C142.848 59.1521 142.638 59.0654 142.42 59.0654H138.74V58.2421H145.301C145.52 58.2421 145.729 58.1554 145.883 58.001C146.038 57.8466 146.124 57.6373 146.124 57.4189C146.124 57.2006 146.038 56.9912 145.883 56.8368C145.729 56.6824 145.52 56.5957 145.301 56.5957Z" fill="#0166FF"/>
<path d="M117.413 51.5249C117.563 52.0373 117.875 52.4874 118.302 52.8078C118.729 53.1282 119.248 53.3016 119.782 53.3022C119.808 53.3022 119.834 53.2981 119.859 53.2969C119.805 53.0278 119.777 52.754 119.777 52.4794V51.6521C119.601 51.6517 119.429 51.5945 119.288 51.4889C119.147 51.3833 119.044 51.2349 118.994 51.0659C118.994 51.0659 112.405 28.3505 112.401 28.3344C112.343 28.1276 112.368 27.906 112.472 27.7176C112.575 27.5292 112.749 27.389 112.955 27.3272C112.955 27.3272 148.35 17.1156 148.36 17.1128C148.568 17.0557 148.79 17.0821 148.979 17.1863C149.169 17.2905 149.31 17.4644 149.372 17.6709L151.35 24.4896H153.065L150.954 17.2115C150.771 16.5853 150.347 16.0571 149.775 15.7422C149.204 15.4273 148.531 15.3513 147.904 15.531C147.904 15.531 112.511 25.7421 112.498 25.7463C111.876 25.9351 111.352 26.3594 111.039 26.9287C110.725 27.498 110.647 28.1673 110.82 28.7938L117.413 51.5249Z" fill="#091229"/>
<path d="M147.359 40.1307C148.092 40.1307 148.808 39.9135 149.417 39.5064C150.027 39.0994 150.501 38.5208 150.782 37.8439C151.062 37.167 151.135 36.4221 150.993 35.7035C150.85 34.985 150.497 34.3249 149.979 33.8068C149.461 33.2887 148.801 32.9359 148.082 32.793C147.363 32.65 146.619 32.7234 145.942 33.0038C145.265 33.2841 144.686 33.759 144.279 34.3682C143.872 34.9774 143.655 35.6936 143.655 36.4263C143.656 37.4084 144.047 38.35 144.741 39.0445C145.435 39.739 146.377 40.1296 147.359 40.1307ZM147.359 34.3682C147.766 34.3682 148.164 34.4889 148.503 34.7151C148.841 34.9412 149.105 35.2626 149.261 35.6387C149.416 36.0147 149.457 36.4285 149.378 36.8278C149.298 37.227 149.102 37.5937 148.815 37.8815C148.527 38.1693 148.16 38.3653 147.761 38.4448C147.362 38.5242 146.948 38.4834 146.572 38.3276C146.196 38.1719 145.874 37.9081 145.648 37.5696C145.422 37.2312 145.301 36.8333 145.301 36.4263C145.302 35.8806 145.519 35.3575 145.905 34.9717C146.291 34.5859 146.814 34.3689 147.359 34.3682ZM146.722 19.9936L143.841 20.8168C143.736 20.8454 143.637 20.8946 143.551 20.9615C143.465 21.0284 143.393 21.1118 143.34 21.2067C143.286 21.3016 143.252 21.4062 143.239 21.5145C143.226 21.6227 143.235 21.7324 143.265 21.8373C143.295 21.9421 143.345 22.0399 143.413 22.1251C143.481 22.2102 143.566 22.281 143.661 22.3334C143.757 22.3857 143.862 22.4185 143.97 22.43C144.079 22.4414 144.188 22.4311 144.293 22.3999L147.174 21.5767C147.279 21.5481 147.378 21.4989 147.464 21.432C147.55 21.3651 147.622 21.2817 147.675 21.1868C147.729 21.0919 147.763 20.9872 147.776 20.879C147.789 20.7707 147.78 20.661 147.75 20.5562C147.72 20.4514 147.67 20.3536 147.601 20.2684C147.533 20.1832 147.449 20.1124 147.354 20.0601C147.258 20.0078 147.153 19.9749 147.045 19.9635C146.936 19.9521 146.827 19.9623 146.722 19.9936Z" fill="#0166FF"/>
<path d="M164.532 53.3029H163.268C163.363 53.0387 163.411 52.7603 163.412 52.4797V28.6064C163.411 27.9516 163.151 27.3239 162.688 26.8609C162.225 26.3979 161.597 26.1375 160.942 26.1367H123.898C123.243 26.1375 122.615 26.3979 122.152 26.8609C121.689 27.3239 121.429 27.9516 121.428 28.6064V52.4797C121.429 52.7603 121.477 53.0387 121.572 53.3029H109.607C109.489 53.2876 109.37 53.2975 109.257 53.3318C109.144 53.3662 109.04 53.4243 108.951 53.5022C108.863 53.5801 108.791 53.6761 108.743 53.7837C108.694 53.8913 108.669 54.008 108.669 54.1261C108.669 54.2442 108.694 54.361 108.743 54.4686C108.791 54.5762 108.863 54.6721 108.951 54.75C109.04 54.8279 109.144 54.886 109.257 54.9204C109.37 54.9548 109.489 54.9646 109.607 54.9493H164.532C164.649 54.9646 164.768 54.9548 164.881 54.9204C164.994 54.886 165.098 54.8279 165.187 54.75C165.276 54.6721 165.347 54.5762 165.395 54.4686C165.444 54.361 165.469 54.2442 165.469 54.1261C165.469 54.008 165.444 53.8913 165.395 53.7837C165.347 53.6761 165.276 53.5801 165.187 53.5022C165.098 53.4243 164.994 53.3662 164.881 53.3318C164.768 53.2975 164.649 53.2876 164.532 53.3029ZM147.184 49.3276C148.19 48.6925 149.356 48.3581 150.546 48.3636C151.971 48.3368 153.359 48.8196 154.46 49.7251C155.561 50.6306 156.302 51.8993 156.551 53.3029H147.761C147.729 51.9594 147.536 50.6247 147.184 49.3276ZM123.074 28.6064C123.075 28.3881 123.161 28.1788 123.316 28.0245C123.47 27.8702 123.679 27.7834 123.898 27.7832H160.942C161.161 27.7834 161.37 27.8702 161.524 28.0245C161.679 28.1788 161.765 28.3881 161.766 28.6064V52.4797C161.765 52.6979 161.679 52.9072 161.524 53.0615C161.37 53.2159 161.161 53.3027 160.942 53.3029H158.216C157.788 49.6038 154.513 46.7172 150.546 46.7172C149.185 46.7135 147.847 47.0616 146.661 47.7277C145.507 44.6652 143.451 42.0246 140.766 40.1541C138.081 38.2836 134.891 37.2711 131.619 37.2502C128.59 37.2427 125.624 38.1078 123.074 39.742V28.6064ZM123.074 41.742C125.537 39.8888 128.537 38.8897 131.619 38.8966C139.482 38.8966 145.899 45.3222 146.114 53.3029H123.898C123.679 53.3027 123.47 53.2159 123.316 53.0615C123.161 52.9072 123.075 52.6979 123.074 52.4797V41.742Z" fill="#091229"/>
<path d="M126.336 128.442V131.34H150.076C151.49 131.34 152.642 130.218 152.691 128.815C152.692 128.785 152.693 128.754 152.693 128.723C152.693 128 152.4 127.346 151.926 126.872C151.453 126.398 150.798 126.105 150.076 126.105H128.672C127.382 126.105 126.336 127.152 126.336 128.442Z" fill="#6B84AA"/>
<path d="M150.076 131.45H126.336C126.276 131.45 126.228 131.402 126.228 131.343V128.445C126.228 127.097 127.324 126 128.672 126H150.076C150.804 126 151.488 126.284 152.003 126.798C152.517 127.313 152.801 127.997 152.801 128.725C152.801 128.758 152.8 128.791 152.799 128.823C152.748 130.296 151.552 131.45 150.076 131.45ZM126.444 131.235H150.076C151.435 131.235 152.536 130.172 152.583 128.815C152.585 128.784 152.585 128.755 152.585 128.726C152.585 128.055 152.324 127.425 151.85 126.951C151.376 126.477 150.746 126.216 150.076 126.216H128.672C127.444 126.216 126.444 127.216 126.444 128.445V131.235Z" fill="#6B84AA"/>
<path d="M123.989 133.678V148.891C123.989 150.548 124.332 151.891 125.989 151.891H150.356C151.647 151.891 152.693 150.845 152.693 149.555V128.816H152.691C152.642 130.219 151.49 131.341 150.076 131.341H126.325C125.035 131.341 123.989 132.387 123.989 133.678Z" fill="#091229"/>
<path d="M150.356 151.999H125.989C124.121 151.999 123.881 150.338 123.881 148.892V133.678C123.881 132.33 124.978 131.233 126.326 131.233H150.076C151.435 131.233 152.536 130.17 152.583 128.813C152.585 128.755 152.633 128.709 152.691 128.709C152.751 128.709 152.801 128.757 152.801 128.817V149.555C152.801 150.902 151.704 151.999 150.356 151.999ZM126.326 131.449C125.097 131.449 124.097 132.449 124.097 133.678V148.891C124.097 150.918 124.663 151.783 125.989 151.783H150.356C151.585 151.783 152.585 150.783 152.585 149.555V129.794C152.171 130.773 151.205 131.449 150.076 131.449H126.326V131.449Z" fill="#6B84AA"/>
<path d="M128.274 138.87C128.214 138.87 128.166 138.822 128.166 138.762V136.732C128.166 136.672 128.214 136.624 128.274 136.624H132.03V135.088C132.03 135.029 132.078 134.98 132.138 134.98C132.198 134.98 132.246 135.029 132.246 135.088V136.732C132.246 136.792 132.198 136.84 132.138 136.84H128.382V138.762C128.382 138.822 128.334 138.87 128.274 138.87ZM141.445 141.79H133.433C133.373 141.79 133.325 141.742 133.325 141.682C133.325 141.622 133.373 141.574 133.433 141.574H141.445C141.505 141.574 141.553 141.622 141.553 141.682C141.553 141.742 141.505 141.79 141.445 141.79ZM136.554 149.058C136.529 149.058 136.503 149.049 136.483 149.031L134.889 147.633H123.989C123.93 147.633 123.881 147.584 123.881 147.525C123.881 147.465 123.93 147.417 123.989 147.417H134.93C134.957 147.417 134.982 147.426 135.002 147.444L136.625 148.869C136.67 148.909 136.674 148.977 136.635 149.022C136.613 149.046 136.584 149.058 136.554 149.058ZM145.109 138.533H137.96C137.9 138.533 137.852 138.485 137.852 138.425C137.852 138.366 137.9 138.317 137.96 138.317H145.064L147.686 135.695C147.706 135.675 147.734 135.664 147.762 135.664H152.693C152.753 135.664 152.801 135.712 152.801 135.772C152.801 135.831 152.753 135.88 152.693 135.88H147.807L145.185 138.502C145.165 138.522 145.137 138.533 145.109 138.533ZM143.46 145.855H139.207C139.148 145.855 139.099 145.807 139.099 145.747C139.099 145.687 139.148 145.639 139.207 145.639H143.415L147.448 141.606C147.469 141.586 147.496 141.574 147.525 141.574H152.693C152.753 141.574 152.801 141.622 152.801 141.682C152.801 141.742 152.753 141.79 152.693 141.79H147.569L143.536 145.823C143.516 145.844 143.488 145.855 143.46 145.855Z" fill="#6B84AA"/>
<path d="M123.108 139.37V144.42C123.108 144.757 123.38 145.029 123.716 145.029H130.266C131.989 145.029 133.42 143.655 133.44 141.933C133.45 141.053 133.098 140.255 132.522 139.68C131.955 139.112 131.171 138.762 130.306 138.762H123.716C123.38 138.761 123.108 139.034 123.108 139.37Z" fill="#091229"/>
<path d="M130.267 145.14H123.717C123.322 145.14 123 144.818 123 144.423V139.373C123 138.978 123.322 138.656 123.717 138.656H130.307C131.173 138.656 131.987 138.993 132.599 139.606C133.221 140.228 133.558 141.056 133.548 141.937C133.527 143.703 132.055 145.14 130.267 145.14ZM123.717 138.872C123.44 138.872 123.216 139.097 123.216 139.373V144.423C123.216 144.699 123.441 144.924 123.717 144.924H130.267C131.938 144.924 133.313 143.583 133.332 141.934C133.342 141.112 133.027 140.339 132.446 139.758C131.875 139.186 131.115 138.872 130.307 138.872H123.717V138.872Z" fill="#6B84AA"/>
<path d="M130.206 143.438C131.058 143.438 131.748 142.747 131.748 141.896C131.748 141.044 131.058 140.354 130.206 140.354C129.354 140.354 128.664 141.044 128.664 141.896C128.664 142.747 129.354 143.438 130.206 143.438Z" fill="#6B84AA"/>
<path d="M130.206 143.548C129.296 143.548 128.556 142.808 128.556 141.898C128.556 140.988 129.296 140.248 130.206 140.248C131.116 140.248 131.856 140.988 131.856 141.898C131.856 142.808 131.116 143.548 130.206 143.548ZM130.206 140.464C129.415 140.464 128.772 141.107 128.772 141.898C128.772 142.689 129.415 143.332 130.206 143.332C130.997 143.332 131.64 142.689 131.64 141.898C131.64 141.107 130.997 140.464 130.206 140.464Z" fill="#6B84AA"/>
<path d="M130.206 142.853C130.734 142.853 131.162 142.425 131.162 141.897C131.162 141.369 130.734 140.941 130.206 140.941C129.678 140.941 129.25 141.369 129.25 141.897C129.25 142.425 129.678 142.853 130.206 142.853Z" fill="#091229"/>
<path d="M130.206 142.959C129.619 142.959 129.142 142.482 129.142 141.896C129.142 141.309 129.619 140.832 130.206 140.832C130.793 140.832 131.27 141.309 131.27 141.896C131.269 142.482 130.792 142.959 130.206 142.959ZM130.206 141.048C129.738 141.048 129.358 141.428 129.358 141.896C129.358 142.363 129.739 142.744 130.206 142.744C130.674 142.744 131.054 142.363 131.054 141.896C131.054 141.428 130.673 141.048 130.206 141.048Z" fill="#6B84AA"/>
<path d="M132.138 135.235C132.568 135.235 132.917 134.887 132.917 134.457C132.917 134.026 132.568 133.678 132.138 133.678C131.708 133.678 131.359 134.026 131.359 134.457C131.359 134.887 131.708 135.235 132.138 135.235Z" fill="#0166FF"/>
<path d="M137.223 139.206C137.653 139.206 138.002 138.857 138.002 138.427C138.002 137.997 137.653 137.648 137.223 137.648C136.793 137.648 136.444 137.997 136.444 138.427C136.444 138.857 136.793 139.206 137.223 139.206Z" fill="#0166FF"/>
<path d="M144.921 139.206C145.352 139.206 145.7 138.857 145.7 138.427C145.7 137.997 145.352 137.648 144.921 137.648C144.491 137.648 144.143 137.997 144.143 138.427C144.143 138.857 144.491 139.206 144.921 139.206Z" fill="#0166FF"/>
<path d="M141.445 142.222C141.875 142.222 142.224 141.873 142.224 141.443C142.224 141.013 141.875 140.664 141.445 140.664C141.015 140.664 140.666 141.013 140.666 141.443C140.666 141.873 141.015 142.222 141.445 142.222Z" fill="#0166FF"/>
<path d="M139.207 146.526C139.638 146.526 139.986 146.178 139.986 145.748C139.986 145.317 139.638 144.969 139.207 144.969C138.777 144.969 138.429 145.317 138.429 145.748C138.429 146.178 138.777 146.526 139.207 146.526Z" fill="#0166FF"/>
<path d="M147.347 142.462C147.777 142.462 148.126 142.113 148.126 141.683C148.126 141.253 147.777 140.904 147.347 140.904C146.917 140.904 146.568 141.253 146.568 141.683C146.568 142.113 146.917 142.462 147.347 142.462Z" fill="#0166FF"/>
<path d="M136.554 149.73C136.984 149.73 137.333 149.381 137.333 148.951C137.333 148.521 136.984 148.172 136.554 148.172C136.124 148.172 135.775 148.521 135.775 148.951C135.775 149.381 136.124 149.73 136.554 149.73Z" fill="#0166FF"/>
</svg>
