<svg width="20" height="20" viewBox="0 0 20 20" fill="none" xmlns="http://www.w3.org/2000/svg">
<path fill-rule="evenodd" clip-rule="evenodd" d="M7.87663 13.207C4.03263 13.207 0.749634 13.788 0.749634 16.116C0.749634 18.444 4.01263 19.046 7.87663 19.046C11.7216 19.046 15.0036 18.464 15.0036 16.137C15.0036 13.81 11.7416 13.207 7.87663 13.207Z" stroke="white" stroke-width="1.5" stroke-linecap="round" stroke-linejoin="round"/>
<path fill-rule="evenodd" clip-rule="evenodd" d="M7.8766 9.886C10.3996 9.886 12.4446 7.841 12.4446 5.318C12.4446 2.795 10.3996 0.75 7.8766 0.75C5.3546 0.75 3.3096 2.795 3.3096 5.318C3.3006 7.832 5.3306 9.877 7.8456 9.886H7.8766Z" stroke="white" stroke-width="1.5" stroke-linecap="round" stroke-linejoin="round"/>
<path d="M17.2037 6.66797V10.678" stroke="white" stroke-width="1.5" stroke-linecap="round" stroke-linejoin="round"/>
<path d="M19.2497 8.67578H15.1597" stroke="white" stroke-width="1.5" stroke-linecap="round" stroke-linejoin="round"/>
</svg>
