<svg width="48" height="48" viewBox="0 0 48 48" fill="none" xmlns="http://www.w3.org/2000/svg">
<path d="M30 24H18M24 18V30" stroke="white" stroke-width="1.5" stroke-linecap="round" stroke-linejoin="round"/>
<path d="M0.5 24C0.5 19.7914 0.500389 16.6649 0.702702 14.1887C0.904539 11.7184 1.30485 9.93924 2.08041 8.41714C3.47057 5.68879 5.68879 3.47057 8.41714 2.08041C9.93924 1.30485 11.7184 0.904539 14.1887 0.702702C16.6649 0.500389 19.7914 0.5 24 0.5C28.2086 0.5 31.3351 0.500389 33.8113 0.702702C36.2816 0.904539 38.0608 1.30485 39.5829 2.08041C42.3112 3.47057 44.5294 5.68879 45.9196 8.41714C46.6951 9.93924 47.0955 11.7184 47.2973 14.1887C47.4996 16.6649 47.5 19.7914 47.5 24C47.5 28.2086 47.4996 31.3351 47.2973 33.8113C47.0955 36.2816 46.6951 38.0608 45.9196 39.5829C44.5294 42.3112 42.3112 44.5294 39.5829 45.9196C38.0608 46.6951 36.2816 47.0955 33.8113 47.2973C31.3351 47.4996 28.2086 47.5 24 47.5C19.7914 47.5 16.6649 47.4996 14.1887 47.2973C11.7184 47.0955 9.93924 46.6951 8.41714 45.9196C5.68879 44.5294 3.47057 42.3112 2.08041 39.5829C1.30485 38.0608 0.904539 36.2816 0.702702 33.8113C0.500389 31.3351 0.5 28.2086 0.5 24Z" stroke="url(#paint0_linear_388_2892)"/>
<defs>
<linearGradient id="paint0_linear_388_2892" x1="24" y1="0" x2="24" y2="48" gradientUnits="userSpaceOnUse">
<stop stop-color="#2F2F2F"/>
<stop offset="0.5" stop-color="#191919"/>
<stop offset="1" stop-color="#151515"/>
</linearGradient>
</defs>
</svg>
