<svg width="38" height="38" viewBox="0 0 38 38" fill="none" xmlns="http://www.w3.org/2000/svg">
<rect x="0.5" y="0.5" width="37" height="37" rx="10.5" fill="#0D0D0D" stroke="#FFD600"/>
<g clip-path="url(#clip0_12389_25322)">
<path d="M19 9.18164C13.1354 9.18164 8.36365 13.9534 8.36365 19.818C8.36365 25.6826 13.1354 30.4544 19 30.4544C19.2645 30.4544 19.5181 30.3493 19.7051 30.1623C19.8921 29.9753 19.9972 29.7217 19.9972 29.4572C19.9972 29.1927 19.8921 28.9391 19.7051 28.7521C19.5181 28.5651 19.2645 28.4601 19 28.4601C14.2349 28.4601 10.358 24.5831 10.358 19.818C10.358 15.0529 14.2349 11.176 19 11.176C23.7651 11.176 27.6421 15.0529 27.6421 19.818C27.6421 20.6437 27.5251 21.4587 27.2937 22.2404C27.1368 22.7709 26.5957 23.1419 25.9801 23.1419C25.0641 23.1419 24.3182 22.396 24.3182 21.4799V15.497C24.3182 15.2325 24.2131 14.9789 24.0261 14.7919C23.8391 14.6049 23.5855 14.4998 23.321 14.4998C23.0566 14.4998 22.8029 14.6049 22.6159 14.7919C22.4289 14.9789 22.3239 15.2325 22.3239 15.497V15.7004C21.3874 14.929 20.2132 14.5049 19 14.4998C16.067 14.4998 13.6818 16.885 13.6818 19.818C13.6818 22.751 16.067 25.1362 19 25.1362C19.7325 25.1346 20.4566 24.9808 21.1265 24.6847C21.7964 24.3885 22.3975 23.9564 22.8916 23.4158C23.2182 23.941 23.673 24.3744 24.2134 24.6754C24.7537 24.9764 25.3617 25.1349 25.9801 25.1362C27.4732 25.1362 28.8001 24.1789 29.2069 22.8068C29.4923 21.8362 29.6369 20.8297 29.6364 19.818C29.6364 13.9534 24.8646 9.18164 19 9.18164ZM19 23.1419C17.1679 23.1419 15.6761 21.6501 15.6761 19.818C15.6761 17.9859 17.1679 16.4941 19 16.4941C20.8321 16.4941 22.3239 17.9859 22.3239 19.818C22.3239 21.6501 20.8321 23.1419 19 23.1419Z" fill="#FFD600"/>
</g>
<defs>
<clipPath id="clip0_12389_25322">
<rect width="21.2727" height="21.2727" fill="white" transform="translate(8.36365 9.18164)"/>
</clipPath>
</defs>
</svg>
