<svg width="48" height="48" viewBox="0 0 48 48" fill="none" xmlns="http://www.w3.org/2000/svg">
<path d="M0 24C0 15.5992 0 11.3988 1.6349 8.19014C3.073 5.36771 5.36771 3.073 8.19014 1.6349C11.3988 0 15.5992 0 24 0C32.4008 0 36.6012 0 39.8099 1.6349C42.6323 3.073 44.927 5.36771 46.3651 8.19014C48 11.3988 48 15.5992 48 24C48 32.4008 48 36.6012 46.3651 39.8099C44.927 42.6323 42.6323 44.927 39.8099 46.3651C36.6012 48 32.4008 48 24 48C15.5992 48 11.3988 48 8.19014 46.3651C5.36771 44.927 3.073 42.6323 1.6349 39.8099C0 36.6012 0 32.4008 0 24Z" fill="white" fill-opacity="0.3"/>
<path d="M24 0.5C28.2086 0.5 31.3353 0.500812 33.8115 0.703125C36.1272 0.892341 37.8354 1.25582 39.2939 1.93945L39.583 2.08008C42.141 3.38343 44.2503 5.41504 45.6494 7.91211L45.9199 8.41699C46.6954 9.93903 47.095 11.7183 47.2969 14.1885C47.4992 16.6647 47.5 19.7914 47.5 24C47.5 28.2086 47.4992 31.3353 47.2969 33.8115C47.1077 36.1272 46.7442 37.8354 46.0605 39.2939L45.9199 39.583C44.6166 42.141 42.585 44.2503 40.0879 45.6494L39.583 45.9199C38.061 46.6954 36.2817 47.095 33.8115 47.2969C31.3353 47.4992 28.2086 47.5 24 47.5C19.7914 47.5 16.6647 47.4992 14.1885 47.2969C11.8728 47.1077 10.1646 46.7442 8.70605 46.0605L8.41699 45.9199C5.85902 44.6166 3.74974 42.585 2.35059 40.0879L2.08008 39.583C1.30456 38.061 0.904969 36.2817 0.703125 33.8115C0.500812 31.3353 0.5 28.2086 0.5 24C0.5 19.7914 0.500812 16.6647 0.703125 14.1885C0.892341 11.8728 1.25582 10.1646 1.93945 8.70605L2.08008 8.41699C3.38343 5.85902 5.41504 3.74974 7.91211 2.35059L8.41699 2.08008C9.93903 1.30456 11.7183 0.904969 14.1885 0.703125C16.6647 0.500812 19.7914 0.5 24 0.5Z" stroke="white" stroke-opacity="0.2"/>
<path d="M17.2505 21.5898V17.7408C17.2995 15.6608 19.0045 14.0028 21.0845 14.0118H27.7365L32.8025 19.2898V28.5898C32.8025 32.3648 29.1415 32.3438 27.0725 32.3648" stroke="white" stroke-width="1.3" stroke-linecap="round" stroke-linejoin="round"/>
<path d="M27.4733 14V16.909C27.4733 18.329 28.6223 19.48 30.0423 19.484H32.7963" stroke="white" stroke-width="1.3" stroke-linecap="round" stroke-linejoin="round"/>
<path fill-rule="evenodd" clip-rule="evenodd" d="M21 23.25C23.7611 23.25 26 25.4884 26 28.25C26 31.0111 23.7611 33.25 21 33.25C18.2384 33.25 16 31.0111 16 28.25C16 25.4884 18.2384 23.25 21 23.25Z" stroke="white" stroke-width="1.1" stroke-linecap="round" stroke-linejoin="round"/>
<path d="M20.9974 26.2031V28.5918" stroke="white" stroke-width="1.1" stroke-linecap="round" stroke-linejoin="round"/>
<path d="M20.9974 30.3015H21.0028" stroke="white" stroke-width="1.1" stroke-linecap="round" stroke-linejoin="round"/>
</svg>
