<svg width="214" height="222" viewBox="0 0 214 222" fill="none" xmlns="http://www.w3.org/2000/svg">
<g clip-path="url(#clip0_9076_8744)">
<path d="M157.473 76.9107C147.541 73.9706 87.1347 69.1131 72.2144 90.333C61.0455 106.099 71.6602 123.91 69.4009 142.403C64.8395 178.963 62.6654 205.424 68.7614 221.573H177.509C187.357 195.197 181.772 124.293 181.772 99.3238C181.474 87.0946 167.321 79.8509 157.473 76.9107Z" fill="#0166FF"/>
<path d="M182.071 99.3249C182.071 87.8627 169.282 80.0224 157.601 76.5284C146.986 73.3326 87.0068 68.6028 71.7881 90.0785C64.7116 100.092 66.2462 110.702 67.8235 121.994C69.0778 128.706 69.4361 135.555 68.8893 142.361C64.8395 175.768 61.9833 204.786 68.2072 221.574C68.2399 221.649 68.2934 221.713 68.3615 221.758C68.4295 221.804 68.5091 221.828 68.5909 221.83H177.509C177.6 221.823 177.688 221.791 177.763 221.739C177.838 221.686 177.898 221.615 177.935 221.531C185.822 200.226 183.946 151.224 182.667 118.713C182.369 111.043 182.113 104.268 182.071 99.3249ZM177.211 221.148H69.0598C62.8785 204.359 65.6921 175.555 69.7419 142.447C70.2887 135.569 69.9304 128.65 68.6761 121.866C67.0988 110.787 65.6068 100.305 72.5128 90.5898C87.1773 69.7959 147.2 74.3126 157.345 77.338C168.813 80.7468 181.09 88.3314 181.218 99.3249C181.218 104.268 181.516 111.085 181.815 118.926C183.307 151.224 184.969 199.928 177.211 221.148Z" fill="#0E0E27"/>
<path d="M210.59 55.052C210.261 54.1004 209.698 53.2467 208.954 52.5691C208.209 51.8916 207.306 51.412 206.327 51.1744C205.943 47.3821 201.851 47.6804 201.851 47.6804C201.348 46.866 200.636 46.2008 199.79 45.7536C198.943 45.3065 197.993 45.0936 197.036 45.1371C196.08 45.1805 195.152 45.4787 194.35 46.0008C193.547 46.5229 192.899 47.2499 192.472 48.1065C192.147 40.6473 191.336 33.2173 190.042 25.8639C189.859 25.3914 189.537 24.9855 189.118 24.6992C188.7 24.4129 188.205 24.2598 187.698 24.2598C187.191 24.2598 186.696 24.4129 186.277 24.6992C185.859 24.9855 185.537 25.3914 185.353 25.8639C184.586 28.2501 185.353 52.538 185.353 52.538C185.353 52.538 175.847 60.4209 187.954 75.4623C190.256 78.3598 184.415 99.4946 184.415 99.4946L207.989 104.608C207.989 104.608 206.156 82.0669 209.78 78.0616C212.679 74.8232 209.78 63.3184 209.78 63.3184C210.658 62.1461 211.198 60.7557 211.34 59.2983C211.483 57.8409 211.224 56.3722 210.59 55.052Z" fill="white"/>
<path d="M210.931 54.9246C210.534 53.9782 209.918 53.1402 209.131 52.4805C208.345 51.8208 207.413 51.3585 206.412 51.1323C206.243 50.0706 205.68 49.1118 204.834 48.448C203.988 47.7842 202.922 47.4645 201.85 47.553C201.328 46.7816 200.639 46.1366 199.835 45.6648C199.032 45.193 198.132 44.9065 197.204 44.826C196.299 44.9009 195.42 45.1677 194.626 45.6085C193.832 46.0493 193.142 46.6541 192.6 47.3826C192.259 40.2352 191.447 33.118 190.17 26.0774C190.033 25.4772 189.706 24.9373 189.238 24.538C188.769 24.1387 188.184 23.9014 187.57 23.8617C187.004 23.8531 186.449 24.0099 185.972 24.3127C185.495 24.6155 185.117 25.0512 184.884 25.5661C184.159 27.9523 184.628 49.9818 184.884 52.2402C183.776 53.2628 176.102 61.3162 187.527 75.5054C189.36 77.7638 185.566 93.4018 183.946 99.2394V99.5377L208.287 104.821V104.395C208.287 104.182 206.454 81.9396 209.95 78.1047C212.806 74.9515 210.334 64.725 209.95 63.2336C210.814 62.0498 211.359 60.6632 211.531 59.2077C211.702 57.7522 211.496 56.277 210.931 54.9246ZM208.884 62.9354C208.884 62.9354 211.783 74.3123 208.884 77.3377C205.431 81.1726 206.753 100.432 207.009 103.713L184.202 98.7707C185.097 95.4045 189.829 77.4655 187.57 74.8237C175.804 60.1657 184.543 52.6663 184.927 52.3254C184.713 43.8033 184.5 27.6114 184.927 25.7365C185.059 25.2735 185.338 24.8662 185.723 24.5762C186.108 24.2862 186.576 24.1294 187.058 24.1294C187.54 24.1294 188.008 24.2862 188.393 24.5762C188.778 24.8662 189.057 25.2735 189.189 25.7365C190.567 33.1263 191.45 40.5997 191.833 48.107V49.2148L192.429 48.2774C192.945 47.4765 193.627 46.7958 194.428 46.2812C195.23 45.7665 196.133 45.4301 197.076 45.2947C197.935 45.366 198.766 45.6336 199.505 46.0769C200.244 46.5202 200.872 47.1273 201.339 47.8513H201.68C202.628 47.768 203.571 48.061 204.305 48.6669C205.039 49.2729 205.505 50.1432 205.602 51.0897V51.3453H205.858C206.831 51.5206 207.739 51.9527 208.489 52.5971C209.238 53.2414 209.802 54.0745 210.121 55.0098C210.652 56.3189 210.818 57.7477 210.6 59.1437C210.382 60.5396 209.789 61.8502 208.884 62.9354Z" fill="#0E0E27"/>
<path d="M200.358 87.1387L201.168 87.2665L202.618 75.8895L201.808 75.7617L200.358 87.1387Z" fill="#0E0E27"/>
<path d="M201.254 47.8091C202.188 50.0902 202.411 52.6003 201.893 55.0103C201.477 56.3991 200.61 57.6097 199.429 58.4509C198.248 59.292 196.82 59.7156 195.371 59.6548C194.293 59.5792 193.284 59.0971 192.548 58.306C191.812 57.515 191.404 56.474 191.406 55.3938C191.406 53.5189 191.406 52.2832 192.344 51.6867C193.794 50.664 196.607 51.9849 196.607 51.9849L196.948 51.2606C196.948 51.2606 193.751 49.7266 191.833 51.1327C191.28 51.6793 190.873 52.3558 190.65 53.1002C190.426 53.8447 190.393 54.6333 190.554 55.3938C190.58 56.6616 191.073 57.8753 191.938 58.8028C192.803 59.7304 193.98 60.3068 195.243 60.4218H195.712C197.248 60.4064 198.742 59.9143 199.987 59.0136C201.232 58.1129 202.166 56.848 202.661 55.3938C203.218 52.8023 202.996 50.1039 202.021 47.6387L201.254 47.8091Z" fill="#0E0E27"/>
<path d="M205.73 51.1315C206.228 53.1465 206.228 55.2525 205.73 57.2674C205.33 58.7102 204.457 59.9772 203.252 60.8656C202.046 61.754 200.577 62.2125 199.08 62.1676C198.445 62.1731 197.831 61.9465 197.352 61.5306C196.873 61.1146 196.563 60.538 196.479 59.9093H195.669C195.765 60.7301 196.162 61.4861 196.785 62.0296C197.408 62.5732 198.211 62.8655 199.037 62.8494H199.506C201.102 62.7851 202.637 62.2193 203.892 61.2323C205.147 60.2454 206.059 58.8877 206.497 57.3527C207.076 55.1891 207.076 52.9116 206.497 50.748L205.73 51.1315Z" fill="#0E0E27"/>
<path d="M187.57 59.6547V60.4643C190.351 60.4294 193.099 61.0752 195.573 62.3452C198.047 63.6152 200.173 65.471 201.765 67.7507L202.448 67.3672C200.801 64.9498 198.58 62.9794 195.983 61.6331C193.386 60.2868 190.495 59.607 187.57 59.6547Z" fill="#0E0E27"/>
<path d="M184.287 82.3229C177.467 86.2431 161.694 133.455 161.139 160.598C160.543 189.658 186.717 186.164 198.824 175C217.794 157.189 213.829 107.591 211.613 90.7598C210.888 83.6012 190.426 78.8289 184.287 82.3229Z" fill="#0166FF"/>
<path d="M206.156 84.4109C199.677 81.1299 188.636 79.3829 184.117 81.9395C177.381 85.817 161.267 133.072 160.713 160.598C160.415 174.447 166.17 179.943 171.072 182.116C173.59 183.189 176.308 183.712 179.044 183.65C186.613 183.341 193.817 180.315 199.336 175.128C218.775 156.849 214.256 105.716 212.38 90.5042C211.911 88.4163 209.822 86.2431 206.156 84.4109ZM198.526 174.702C192.003 180.838 180.28 185.27 171.413 181.349C164.763 178.367 161.353 171.208 161.566 160.598C162.12 133.157 177.893 86.4562 184.543 82.7065C186.382 81.856 188.404 81.4753 190.426 81.5986C195.736 81.6684 200.969 82.8743 205.773 85.1353C209.098 86.8397 211.101 88.8424 211.357 90.8025C213.148 105.929 217.709 156.721 198.526 174.702Z" fill="#0E0E27"/>
<path d="M190.042 53.3904C188.908 52.1205 187.384 51.2638 185.709 50.9552C184.034 50.6466 182.304 50.9037 180.792 51.686C179.724 52.9708 178.978 54.491 178.615 56.1211C178.252 57.7511 178.282 59.4441 178.703 61.0603C179.884 64.0082 181.604 66.7103 183.776 69.0284L184.969 59.0576C184.969 59.0576 193.112 64.256 195.499 59.7393C197.886 55.2226 192.515 55.9896 190.042 53.3904Z" fill="white"/>
<path d="M193.367 54.9678C192.225 54.5762 191.168 53.9686 190.255 53.1782C188.554 51.4507 186.243 50.4567 183.818 50.4085C182.654 50.3739 181.512 50.7344 180.579 51.4312C179.452 52.7595 178.665 54.3418 178.286 56.0417C177.907 57.7417 177.948 59.5082 178.404 61.1889C179.602 64.1738 181.352 66.906 183.563 69.2423L184.032 69.7536L185.225 59.655C187.321 60.9385 189.684 61.7255 192.131 61.9559C192.871 62.0163 193.611 61.8537 194.257 61.4891C194.903 61.1245 195.425 60.5747 195.755 59.9106C196.026 59.5011 196.212 59.0405 196.3 58.5571C196.388 58.0736 196.376 57.5773 196.266 57.0984C196.096 55.9905 194.646 55.3939 193.367 54.9678ZM195.201 59.655C194.914 60.2069 194.468 60.6603 193.921 60.9565C193.374 61.2528 192.75 61.3783 192.131 61.3168C189.641 61.0429 187.249 60.197 185.14 58.8454L184.671 58.5897L183.563 68.177C181.657 66.0514 180.129 63.616 179.044 60.9759C178.641 59.419 178.612 57.7888 178.96 56.2186C179.308 54.6485 180.024 53.1831 181.048 51.9425C181.855 51.3339 182.852 51.0319 183.861 51.0903C186.11 51.1223 188.255 52.0412 189.829 53.6469C190.805 54.4926 191.934 55.1435 193.154 55.5644C194.348 56.0757 195.414 56.4592 195.669 57.2688C195.769 57.6767 195.778 58.1014 195.698 58.5134C195.617 58.9255 195.447 59.315 195.201 59.655Z" fill="#0E0E27"/>
<path d="M144.514 10.056C146.177 9.68225 147.72 8.89738 149.001 7.77329C150.282 6.64919 151.26 5.2218 151.846 3.62185C151.846 3.62185 149.331 4.72972 135.391 1.49133C116.08 -3.02537 114.758 8.09593 114.758 8.09593C102.737 -0.553969 91.227 32.1282 104.101 51.1324C117.401 70.9462 137.523 58.8449 146.517 52.1124C155.512 45.38 146.901 40.2668 147.029 35.4944C147.157 30.722 153.466 29.4011 153.978 19.0894C154.155 17.8238 154.029 16.5341 153.609 15.3269C153.189 14.1198 152.488 13.0298 151.563 12.1472C150.638 11.2645 149.517 10.6146 148.291 10.2509C147.065 9.8873 145.771 9.82049 144.514 10.056Z" fill="#3F516C"/>
<path d="M154.404 19.0894C154.558 17.8502 154.451 16.5926 154.091 15.3968C153.732 14.201 153.127 13.0932 152.315 12.144C150.855 10.6875 148.917 9.80949 146.859 9.67255C148.101 9.08839 149.215 8.2643 150.137 7.24776C151.059 6.23123 151.77 5.04237 152.23 3.74971L152.486 2.94012L151.718 3.23839C151.154 3.32914 150.578 3.32914 150.013 3.23839C145.105 3.02626 140.232 2.29786 135.477 1.06526C132.686 0.381203 129.824 0.0237186 126.951 0C117.402 0 115.1 5.53935 114.503 7.4142C113.41 6.70207 112.141 6.30408 110.837 6.26372C107.597 6.26372 104.528 8.77773 102.098 13.2944C99.206 19.3359 97.8525 25.9979 98.1574 32.6883C98.4623 39.3787 100.416 45.8901 103.846 51.6438C105.754 54.9408 108.486 57.6867 111.773 59.6135C115.061 61.5403 118.792 62.5821 122.603 62.6372C131.54 61.9967 140.039 58.5181 146.859 52.709C153.296 47.894 151.122 43.633 149.118 40.2242C148.215 38.8901 147.659 37.3526 147.498 35.7501C147.723 33.9418 148.549 32.2613 149.843 30.9777C152.686 27.6571 154.297 23.4586 154.404 19.0894ZM146.603 35.6223C146.766 37.363 147.367 39.0341 148.351 40.4798C150.226 43.9313 152.187 47.5532 146.305 51.942C139.59 57.5984 131.271 61.0107 122.517 61.6998C118.849 61.642 115.259 60.6389 112.092 58.7876C108.926 56.9364 106.291 54.2996 104.442 51.1324C101.102 45.5255 99.1982 39.1807 98.9007 32.6616C98.6032 26.1424 99.9211 19.6508 102.737 13.7631C104.997 9.50211 107.853 7.15854 110.752 7.15854C112.115 7.20424 113.429 7.68171 114.503 8.52207L115.1 8.90557V8.13858C115.1 8.13858 116.165 0.809597 127.079 0.809597C129.853 0.84409 132.614 1.20159 135.306 1.87486C140.468 3.41173 145.821 4.21499 151.207 4.26104C150.571 5.62841 149.629 6.83135 148.453 7.77702C147.278 8.72269 145.901 9.3858 144.429 9.71516V10.5248H145.367C146.523 10.4498 147.683 10.6115 148.775 10.9997C149.867 11.388 150.869 11.9949 151.718 12.7831C152.418 13.6548 152.934 14.6594 153.234 15.736C153.535 16.8126 153.614 17.9389 153.466 19.0468C153.372 23.1859 151.868 27.1691 149.203 30.3386C147.762 31.7541 146.845 33.6173 146.603 35.6223Z" fill="#3F516C"/>
<path d="M100.776 36.5177C100.3 38.3815 100.359 40.3417 100.948 42.1733C101.536 44.0048 102.629 45.6334 104.101 46.872L105.934 33.6202C105.934 33.6202 101.501 32.5976 100.776 36.5177Z" fill="white"/>
<path d="M100.435 36.4309C100.025 38.3244 100.134 40.2932 100.749 42.1303C101.364 43.9674 102.463 45.6048 103.931 46.8705L104.357 47.1687L106.318 33.0647H105.977C105.977 33.0647 101.245 32.2125 100.435 36.4309ZM103.888 46.0183C102.645 44.8162 101.733 43.3142 101.24 41.6572C100.748 40.0002 100.69 38.2443 101.074 36.5588C101.231 35.6734 101.72 34.881 102.44 34.3427C103.161 33.8045 104.06 33.5608 104.954 33.6613H105.55L103.888 46.0183Z" fill="#0E0E27"/>
<path d="M141.53 38.3496L140.379 51.6867C142.035 50.8176 143.423 49.5131 144.392 47.9136C145.361 46.3141 145.875 44.4806 145.878 42.6106C146.006 38.6479 141.53 38.3496 141.53 38.3496Z" fill="white"/>
<path d="M141.53 38.3496H141.231L139.995 52.5389H140.507C142.293 51.5837 143.775 50.1469 144.784 48.3919C145.794 46.6369 146.291 44.6339 146.219 42.6106C146.347 38.3496 141.572 38.3496 141.53 38.3496ZM140.677 51.1327L141.743 38.7331C142.236 38.7387 142.722 38.8412 143.175 39.0348C143.628 39.2284 144.039 39.5093 144.383 39.8614C144.728 40.2136 144.999 40.6301 145.183 41.0872C145.366 41.5443 145.457 42.033 145.452 42.5254C145.465 44.2496 145.032 45.9479 144.195 47.4558C143.359 48.9638 142.147 50.2303 140.677 51.1327Z" fill="#3F516C"/>
<path d="M132.791 62.6799L109.601 61.3164C110.021 65.9632 109.733 70.6468 108.748 75.2074C119.022 86.1156 133.516 74.3552 133.516 74.3552C132.718 70.5179 132.474 66.5863 132.791 62.6799Z" fill="white"/>
<path d="M133.217 62.7224C133.237 62.6752 133.247 62.6244 133.247 62.5732C133.247 62.522 133.237 62.4713 133.217 62.4241C133.172 62.3979 133.12 62.3841 133.068 62.3841C133.015 62.3841 132.964 62.3979 132.919 62.4241L109.728 61.0605C109.728 61.0605 109.515 61.0605 109.43 61.0605C109.387 61.1701 109.387 61.2918 109.43 61.4014C109.84 66.004 109.567 70.6418 108.62 75.1646C108.59 75.2241 108.574 75.2897 108.574 75.3563C108.574 75.4229 108.59 75.4886 108.62 75.5481C109.956 77.05 111.599 78.2491 113.437 79.0648C115.275 79.8805 117.266 80.2941 119.277 80.2778C124.613 79.9205 129.72 77.9765 133.942 74.6959C133.979 74.6311 133.999 74.5576 133.999 74.4828C133.999 74.408 133.979 74.3345 133.942 74.2698C133.117 70.4794 132.873 66.586 133.217 62.7224ZM109.217 75.0794C110.125 70.7101 110.412 66.2344 110.069 61.7849L132.322 63.0632C132.072 66.7861 132.315 70.5256 133.047 74.1845C131.256 75.5055 118.425 84.6241 109.217 75.0794Z" fill="#0E0E27"/>
<path d="M120.726 16.1485C119.2 15.6682 117.586 15.5282 115.999 15.7383C114.412 15.9484 112.891 16.5036 111.541 17.3647C110.192 18.2258 109.048 19.372 108.19 20.7225C107.332 22.0731 106.78 23.5953 106.573 25.1819C105.171 32.2256 104.132 39.3367 103.462 46.4871C103.078 51.9838 101.842 59.9946 105.209 63.9574C107.451 66.3986 110.189 68.3312 113.241 69.6249C116.293 70.9185 119.587 71.5432 122.901 71.4568C124.819 66.3009 130.915 69.7098 133.899 66.9827C139.654 61.7416 139.824 52.1543 140.933 46.4871C141.906 39.4282 142.106 32.2842 141.53 25.1819C141.103 21.3044 132.876 12.9954 120.726 16.1485Z" fill="white"/>
<path d="M125.672 45.8479C123.226 44.2247 120.256 43.5854 117.359 44.0583C114.998 44.8879 112.554 45.4593 110.069 45.7627C107.857 45.7877 105.683 45.1816 103.803 44.0157C103.803 45.0383 103.59 45.9332 103.547 46.6149C103.163 52.1117 101.927 60.1224 105.295 64.0852C107.536 66.5264 110.275 68.459 113.327 69.7527C116.378 71.0464 119.672 71.671 122.986 71.5846C124.904 66.4287 131 69.8376 133.984 67.1105C139.228 62.3382 139.867 53.9013 140.763 48.1915C138.957 49.1685 136.932 49.6673 134.88 49.6403C131.454 49.5253 128.184 48.1788 125.672 45.8479ZM123.924 55.0944C122.064 55.1546 120.206 54.9099 118.425 54.37C116.651 53.7783 114.961 52.962 113.394 51.9412C112.885 51.5868 112.528 51.0541 112.394 50.4488C112.259 49.8434 112.357 49.2097 112.669 48.6733C112.98 48.1369 113.482 47.7371 114.074 47.5531C114.666 47.3691 115.306 47.4145 115.867 47.6802L117.998 48.9159L118.51 49.1716L119.576 49.555L120.641 49.8533H121.196H121.537H123.753C124.398 49.8533 125.016 50.1092 125.472 50.5647C125.927 51.0202 126.183 51.638 126.183 52.2821C126.225 52.6159 126.199 52.9545 126.107 53.2781C126.015 53.6016 125.859 53.9034 125.648 54.1656C125.438 54.4279 125.176 54.6452 124.88 54.8047C124.584 54.9642 124.259 55.0627 123.924 55.0944Z" fill="#3F516C"/>
<path d="M134.88 49.2568C131.726 49.1537 128.709 47.9473 126.354 45.848L125.97 45.5497C123.468 43.868 120.426 43.1839 117.444 43.6323C116.515 43.8118 115.602 44.0684 114.716 44.3992C113.296 44.9902 111.778 45.3082 110.24 45.3367C108.104 45.375 106.003 44.7981 104.186 43.6749L103.632 43.334V43.9731C103.632 44.9958 103.419 45.8906 103.334 46.615C103.249 47.3394 103.334 48.0637 103.334 48.8307C102.865 54.157 102.311 60.8042 105.38 64.3409C107.641 66.8496 110.421 68.8355 113.528 70.1601C116.635 71.4848 119.994 72.1163 123.37 72.0108H123.668V71.7551C124.691 68.9854 127.036 68.9002 129.508 68.7724C131.296 68.953 133.087 68.4674 134.539 67.4088C139.313 63.1478 140.336 56.0319 141.146 50.3647C141.146 49.5977 141.359 48.9159 141.445 48.2342V47.382L140.72 47.8081C138.942 48.8139 136.922 49.3149 134.88 49.2568ZM140.038 50.2369C139.228 55.7762 138.247 62.6791 133.729 66.8123C132.418 67.7929 130.801 68.2761 129.167 68.1758C126.737 68.1758 124.009 68.3889 122.73 71.3716C119.528 71.4432 116.349 70.8258 113.407 69.5612C110.465 68.2967 107.829 66.4146 105.678 64.0426C102.865 60.719 103.419 54.2848 103.845 49.129C103.845 48.3194 103.845 47.595 103.845 46.8706C103.845 46.1463 103.845 45.6349 104.059 44.9106C105.873 45.902 107.916 46.4015 109.984 46.3593C111.624 46.3416 113.245 46.0089 114.759 45.3793C115.592 45.0734 116.447 44.8313 117.316 44.6549C120.112 44.2214 122.969 44.8442 125.331 46.4019L125.757 46.7002C128.248 48.9288 131.452 50.1977 134.794 50.2795C136.648 50.302 138.484 49.9089 140.166 49.129C140.166 49.342 140.123 49.7681 140.038 50.2369Z" fill="#3F516C"/>
<path d="M123.924 49.7681H122.048H121.409H120.897L119.831 49.4699L119.362 49.0012L118.808 48.7881H118.297L116.208 47.5524C115.548 47.1877 114.772 47.0904 114.042 47.2808C113.313 47.4711 112.684 47.9344 112.286 48.5751C111.914 49.1722 111.792 49.8913 111.945 50.5777C112.131 51.3708 112.621 52.0592 113.309 52.4952C114.896 53.5435 116.617 54.3747 118.424 54.9666C120.124 55.3835 121.88 55.5274 123.625 55.3927H124.137C124.888 55.3713 125.602 55.0636 126.133 54.5328C126.664 54.002 126.972 53.2882 126.993 52.5378C127.005 52.1698 126.943 51.8031 126.811 51.4592C126.679 51.1154 126.48 50.8012 126.226 50.5351C125.916 50.2555 125.551 50.043 125.155 49.911C124.759 49.779 124.34 49.7303 123.924 49.7681ZM123.924 54.6683C122.107 54.7557 120.289 54.525 118.552 53.9866C116.81 53.4037 115.148 52.6019 113.607 51.6004C113.118 51.2692 112.768 50.7682 112.627 50.1942C112.529 49.9727 112.479 49.7332 112.479 49.4912C112.479 49.2491 112.529 49.0097 112.627 48.7881C112.824 48.4795 113.095 48.2246 113.415 48.0461C113.734 47.8677 114.094 47.7712 114.46 47.7655C114.804 47.7633 115.142 47.8515 115.44 48.0211C116.25 48.5324 116.932 48.9585 117.615 49.2994L118.126 49.5551H118.723L119.362 49.8108L120.513 50.109H121.067H121.75H123.753C124.029 50.1169 124.3 50.1815 124.549 50.2988C124.798 50.4161 125.021 50.5836 125.203 50.7908C125.38 50.9704 125.521 51.1833 125.616 51.4173C125.711 51.6513 125.759 51.9018 125.757 52.1543C125.825 52.4419 125.831 52.741 125.773 53.031C125.715 53.3209 125.594 53.5948 125.42 53.8337C125.246 54.0727 125.022 54.2711 124.763 54.4151C124.505 54.5592 124.219 54.6456 123.924 54.6683Z" fill="#0E0E27"/>
<path d="M114.801 49.0449C116.988 51.5104 120.042 53.0369 123.327 53.3059V52.4963C120.302 52.193 117.502 50.7631 115.483 48.4909L114.801 49.0449ZM112.158 25.5666L112.457 26.3336C114.807 25.3669 117.4 25.1584 119.874 25.737L120.173 24.97C117.506 24.3029 114.696 24.5121 112.158 25.5666ZM129.167 23.9474V24.757C131.761 24.7256 134.298 25.5162 136.414 27.0153L136.841 26.3336C134.606 24.7347 131.915 23.898 129.167 23.9474ZM132.151 34.7278C131.838 34.7384 131.541 34.8675 131.319 35.089C131.098 35.3105 130.968 35.6078 130.958 35.9209C130.958 36.0776 130.989 36.2327 131.049 36.3775C131.109 36.5222 131.197 36.6537 131.307 36.7645C131.418 36.8753 131.55 36.9632 131.695 37.0232C131.839 37.0831 131.995 37.114 132.151 37.114C132.308 37.114 132.463 37.0831 132.608 37.0232C132.753 36.9632 132.885 36.8753 132.995 36.7645C133.106 36.6537 133.194 36.5222 133.254 36.3775C133.314 36.2327 133.345 36.0776 133.345 35.9209C133.334 35.6078 133.205 35.3105 132.984 35.089C132.762 34.8675 132.465 34.7384 132.151 34.7278Z" fill="#0E0E27"/>
<path d="M132.151 34.3434C131.772 34.4055 131.427 34.6003 131.179 34.893C130.93 35.1857 130.793 35.5573 130.793 35.9413C130.793 36.3254 130.93 36.6969 131.179 36.9896C131.427 37.2823 131.772 37.4771 132.151 37.5392C132.531 37.4771 132.875 37.2823 133.124 36.9896C133.373 36.6969 133.509 36.3254 133.509 35.9413C133.509 35.5573 133.373 35.1857 133.124 34.893C132.875 34.6003 132.531 34.4055 132.151 34.3434ZM132.151 36.7296C132.047 36.7298 131.944 36.7086 131.848 36.6674C131.752 36.6263 131.665 36.5659 131.593 36.4901C131.521 36.4143 131.466 36.3247 131.43 36.2266C131.394 36.1286 131.378 36.0243 131.384 35.92C131.384 35.8193 131.404 35.7196 131.442 35.6265C131.481 35.5335 131.538 35.4489 131.609 35.3777C131.68 35.3065 131.765 35.25 131.858 35.2114C131.951 35.1729 132.051 35.153 132.151 35.153C132.27 35.1252 132.394 35.1246 132.513 35.1513C132.632 35.1779 132.744 35.2312 132.839 35.307C132.935 35.3828 133.012 35.4792 133.065 35.5891C133.118 35.6989 133.146 35.8193 133.146 35.9413C133.146 36.0633 133.118 36.1838 133.065 36.2936C133.012 36.4035 132.935 36.4999 132.839 36.5757C132.744 36.6515 132.632 36.7047 132.513 36.7314C132.394 36.758 132.27 36.7574 132.151 36.7296ZM114.759 32.6816C114.442 32.6816 114.138 32.8073 113.915 33.0311C113.691 33.2548 113.565 33.5583 113.565 33.8747C113.565 34.1912 113.691 34.4946 113.915 34.7184C114.138 34.9421 114.442 35.0678 114.759 35.0678C115.075 35.0678 115.379 34.9421 115.603 34.7184C115.826 34.4946 115.952 34.1912 115.952 33.8747C115.952 33.5583 115.826 33.2548 115.603 33.0311C115.379 32.8073 115.075 32.6816 114.759 32.6816Z" fill="#0E0E27"/>
<path d="M114.758 32.2994C114.548 32.2937 114.338 32.3303 114.142 32.407C113.945 32.4836 113.766 32.5989 113.615 32.7458C113.464 32.8928 113.344 33.0685 113.263 33.2626C113.181 33.4568 113.138 33.6653 113.139 33.876C113.101 34.1077 113.113 34.3449 113.176 34.5711C113.239 34.7973 113.35 35.0072 113.503 35.1861C113.655 35.365 113.844 35.5088 114.057 35.6073C114.27 35.7059 114.502 35.757 114.737 35.757C114.972 35.757 115.204 35.7059 115.417 35.6073C115.63 35.5088 115.82 35.365 115.972 35.1861C116.124 35.0072 116.235 34.7973 116.298 34.5711C116.361 34.3449 116.374 34.1077 116.336 33.876C116.336 33.4579 116.17 33.0568 115.874 32.7612C115.578 32.4655 115.177 32.2994 114.758 32.2994ZM114.758 34.643C114.555 34.643 114.36 34.5622 114.216 34.4183C114.072 34.2745 113.991 34.0794 113.991 33.876C113.991 33.6726 114.072 33.4775 114.216 33.3336C114.36 33.1898 114.555 33.109 114.758 33.109C114.962 33.109 115.157 33.1898 115.301 33.3336C115.445 33.4775 115.526 33.6726 115.526 33.876C115.526 34.0794 115.445 34.2745 115.301 34.4183C115.157 34.5622 114.962 34.643 114.758 34.643ZM124.35 40.9067C124.447 41.1211 124.496 41.3534 124.496 41.5885C124.496 41.8235 124.447 42.0559 124.35 42.2702C124.094 42.5685 123.583 42.5685 123.199 42.5685V43.3355H123.625C123.914 43.3647 124.206 43.3216 124.474 43.21C124.742 43.0984 124.977 42.9219 125.16 42.6963C125.325 42.3655 125.411 42.0008 125.411 41.6311C125.411 41.2613 125.325 40.8967 125.16 40.5658L124.35 40.9067Z" fill="#0E0E27"/>
<path d="M103.377 81.2148H23.958C21.9568 81.2148 20.3345 82.8364 20.3345 84.8367V189.488C20.3345 191.488 21.9568 193.11 23.958 193.11H103.377C105.378 193.11 107 191.488 107 189.488V84.8367C107 82.8364 105.378 81.2148 103.377 81.2148Z" fill="#F97604"/>
<path d="M103.377 193.493H23.9152C22.8638 193.493 21.8554 193.075 21.1119 192.332C20.3684 191.589 19.9507 190.581 19.9507 189.53V84.8365C19.973 83.8004 20.4005 82.8142 21.1416 82.0894C21.8827 81.3645 22.8784 80.9587 23.9152 80.959H103.377C104.428 80.959 105.436 81.3765 106.18 82.1196C106.923 82.8628 107.341 83.8708 107.341 84.9217V189.53C107.341 190.581 106.923 191.589 106.18 192.332C105.436 193.075 104.428 193.493 103.377 193.493ZM23.9152 81.5981C23.4898 81.5981 23.0685 81.6819 22.6754 81.8446C22.2823 82.0074 21.9252 82.2459 21.6243 82.5466C21.3235 82.8474 21.0848 83.2043 20.922 83.5972C20.7592 83.9901 20.6754 84.4113 20.6754 84.8365V189.53C20.6754 190.389 21.0167 191.213 21.6243 191.82C22.2319 192.427 23.056 192.769 23.9152 192.769H103.377C103.802 192.769 104.223 192.685 104.616 192.522C105.009 192.359 105.367 192.121 105.667 191.82C105.968 191.519 106.207 191.162 106.37 190.769C106.533 190.377 106.616 189.955 106.616 189.53V84.8365C106.616 84.4113 106.533 83.9901 106.37 83.5972C106.207 83.2043 105.968 82.8474 105.667 82.5466C105.367 82.2459 105.009 82.0074 104.616 81.8446C104.223 81.6819 103.802 81.5981 103.377 81.5981H23.9152Z" fill="#0E0E27"/>
<path d="M98.4239 88.459H29.7904C28.8016 88.459 28 89.2602 28 90.2486V180.54C28 181.528 28.8016 182.33 29.7904 182.33H98.4239C99.4127 182.33 100.214 181.528 100.214 180.54V90.2486C100.214 89.2602 99.4127 88.459 98.4239 88.459Z" fill="white"/>
<path d="M85.9512 172.336H73.8018V174.126H85.9512V172.336Z" fill="#0E0E27"/>
<path d="M67.8761 172.336H42V174.126H67.8761V172.336Z" fill="#0E0E27"/>
<path d="M85.9085 166.199H61.9507V167.989H85.9085V166.199Z" fill="#0E0E27"/>
<path d="M56.0251 166.199H42V167.989H56.0251V166.199Z" fill="#0E0E27"/>
<path d="M68.2071 112.832C68.2071 115.967 67.277 119.031 65.5345 121.638C63.792 124.245 61.3153 126.276 58.4176 127.476C55.5199 128.676 52.3313 128.99 49.2551 128.378C46.1789 127.766 43.3533 126.257 41.1355 124.04C38.9177 121.823 37.4073 118.999 36.7954 115.924C36.1835 112.849 36.4976 109.662 37.6979 106.766C38.8981 103.869 40.9307 101.394 43.5386 99.6518C46.1464 97.9101 49.2124 96.9805 52.3489 96.9805C56.5547 96.9805 60.5883 98.6505 63.5623 101.623C66.5363 104.596 68.2071 108.628 68.2071 112.832Z" fill="white"/>
<path d="M21.0591 189.532C21.0591 189.532 23.0627 189.532 23.7874 188.339C23.7874 188.339 28.9029 189.915 28.775 187.018C28.6471 184.12 20.6328 183.651 20.6328 183.651C19.9552 183.311 19.2576 183.013 18.544 182.757C17.0843 182.628 15.6161 182.877 14.281 183.481C12.3201 184.333 9.08021 186.038 9.08021 186.038C9.08021 186.038 10.7854 183.992 10.6149 182.842C10.4444 181.691 8.4834 181.308 6.73559 182.842C4.98778 184.376 3.23997 184.333 2.21687 187.103C1.47077 189.406 0.872741 191.754 0.426428 194.134C-0.0851257 195.923 2.00372 196.733 6.82085 202.656C11.638 208.578 18.5013 204.232 28.6045 203.252C35.9794 201.931 42.602 197.923 47.191 192.003H33.1659C25.5778 191.96 22.9774 193.154 21.0591 189.532Z" fill="white"/>
<path d="M33.1656 191.746C31.503 191.746 30.0963 191.746 28.9026 191.746C24.9381 191.746 23.1476 191.959 21.8261 189.957C22.6568 189.879 23.4303 189.5 24.0002 188.891C24.8955 189.147 27.3253 189.701 28.5616 188.891C28.7989 188.698 28.9852 188.449 29.1041 188.167C29.223 187.884 29.2709 187.577 29.2437 187.272C29.2437 184.375 21.954 183.608 20.7178 183.48C20.2915 183.48 19.0126 182.713 18.5863 182.585C17.1236 182.483 15.6585 182.746 14.3233 183.352C13.215 183.821 11.7229 184.545 10.6146 185.142C11.0336 184.51 11.2561 183.769 11.254 183.011C11.206 182.728 11.0813 182.463 10.8935 182.245C10.7056 182.027 10.4618 181.865 10.1883 181.776C9.56017 181.632 8.90573 181.65 8.28668 181.829C7.66763 182.008 7.10438 182.341 6.65003 182.798C6.13768 183.251 5.58064 183.651 4.98748 183.991C4.30318 184.3 3.68703 184.741 3.17477 185.29C2.66252 185.839 2.26436 186.483 2.00342 187.187C1.42527 188.671 0.95512 190.195 0.596648 191.746C0.464951 192.507 0.294207 193.261 0.0850944 194.005C-0.298571 195.326 0.511389 196.135 2.30183 198.01C3.32493 199.118 4.77434 200.609 6.56477 202.868C7.36918 203.911 8.41245 204.745 9.60681 205.302C10.8012 205.858 12.1117 206.119 13.4281 206.063C15.8623 205.952 18.2775 205.581 20.6325 204.956C23.2908 204.352 25.9806 203.897 28.6895 203.592C36.176 202.239 42.9001 198.173 47.5743 192.172C47.6228 192.112 47.6492 192.037 47.6492 191.959C47.6492 191.882 47.6228 191.807 47.5743 191.746C47.5467 191.668 47.4944 191.601 47.4252 191.555C47.356 191.508 47.2737 191.486 47.1907 191.491L33.1656 191.746ZM28.6468 202.782C25.8948 203.101 23.1624 203.57 20.462 204.189C14.6644 205.424 10.4867 206.319 7.24685 202.356C5.41378 200.098 3.96438 198.564 2.9839 197.456C1.23609 195.667 0.767166 195.07 0.980313 194.26C1.20941 193.505 1.39445 192.736 1.5345 191.959C1.79701 190.348 2.21093 188.764 2.77075 187.23C2.99797 186.618 3.34502 186.058 3.79155 185.583C4.23808 185.107 4.77511 184.725 5.37115 184.46C6.01629 184.106 6.61727 183.677 7.16159 183.182C7.73359 182.619 8.49183 182.286 9.29306 182.244H9.84725C9.97301 182.285 10.0862 182.357 10.1758 182.454C10.2654 182.551 10.3285 182.67 10.3588 182.798C10.1588 183.881 9.65633 184.886 8.9094 185.696C8.84335 185.773 8.80706 185.871 8.80706 185.973C8.80706 186.074 8.84335 186.172 8.9094 186.25C8.98551 186.299 9.07436 186.326 9.16517 186.326C9.25598 186.326 9.34484 186.299 9.42095 186.25C9.42095 186.25 12.7034 184.503 14.6217 183.693C15.8432 183.226 17.1604 183.065 18.4584 183.224C18.7142 183.224 19.7799 183.778 20.462 184.077C23.4034 184.332 28.1353 185.355 28.2206 187.059C28.2435 187.235 28.2203 187.414 28.153 187.579C28.0857 187.743 27.9768 187.887 27.8369 187.997C26.9417 188.678 24.597 187.997 23.7871 187.997C23.711 187.947 23.6221 187.921 23.5313 187.921C23.4405 187.921 23.3516 187.947 23.2755 187.997C22.7213 188.934 20.9735 188.977 20.9309 188.977C20.8779 188.95 20.8196 188.937 20.7604 188.937C20.7012 188.937 20.6429 188.95 20.5899 188.977C20.5592 189.044 20.5434 189.116 20.5434 189.19C20.5434 189.263 20.5592 189.336 20.5899 189.403C22.2098 192.428 24.4265 192.343 28.7747 192.172C30.011 192.172 31.4178 192.172 33.0377 192.172H46.2528C41.8754 197.737 35.6138 201.511 28.6468 202.782Z" fill="#0E0E27"/>
<path d="M9.12249 185.525C8.2699 186.292 6.05317 188.039 6.01054 188.081C6.15835 189.798 5.94041 191.526 5.37109 193.152V193.493H5.71213C6.71656 193.916 7.53412 194.688 8.01412 195.666C8.04681 195.741 8.10036 195.805 8.16839 195.85C8.23641 195.896 8.31604 195.92 8.39779 195.922C8.4349 195.958 8.47823 195.987 8.52568 196.007C8.0121 194.962 7.17489 194.11 6.13842 193.578C6.61443 192.006 6.80218 190.36 6.69261 188.721L9.67667 186.292C9.72681 186.258 9.76922 186.214 9.8011 186.163C9.83297 186.112 9.85359 186.054 9.86158 185.994C9.86957 185.935 9.86475 185.874 9.84744 185.816C9.83014 185.758 9.80073 185.705 9.76118 185.659C9.72163 185.613 9.67283 185.577 9.61803 185.551C9.56322 185.526 9.50365 185.513 9.44326 185.512C9.38288 185.511 9.32305 185.524 9.26775 185.548C9.21245 185.572 9.16294 185.608 9.12249 185.653V185.525ZM20.5046 183.224C18.9804 183.686 17.5409 184.391 16.2416 185.312C15.3191 187.094 15.0048 189.129 15.3464 191.107C15.6285 192.668 16.0275 194.207 16.54 195.709C16.5779 195.81 16.6495 195.894 16.7427 195.949C16.8359 196.003 16.945 196.024 17.0516 196.007C17.1176 195.93 17.1539 195.832 17.1539 195.73C17.1539 195.628 17.1176 195.53 17.0516 195.453C16.5342 194.072 16.1488 192.645 15.9006 191.192C15.7002 189.353 16.1042 187.498 17.0516 185.908C18.1964 185.091 19.4622 184.459 20.803 184.033C20.9104 183.994 20.9977 183.913 21.0456 183.809C21.0936 183.706 21.0983 183.587 21.0587 183.48C21.0192 183.372 20.9386 183.285 20.8346 183.237C20.7307 183.189 20.612 183.184 20.5046 183.224Z" fill="#0E0E27"/>
<path d="M8.52611 187.102C8.54281 186.996 8.52224 186.887 8.46788 186.793C8.41353 186.7 8.3287 186.629 8.22771 186.591C8.17414 186.578 8.11853 186.578 8.06465 186.589C8.01076 186.6 7.95986 186.622 7.91539 186.654C7.87092 186.687 7.83392 186.728 7.8069 186.776C7.77988 186.824 7.76347 186.877 7.75878 186.932C7.24756 190.709 7.50861 194.55 8.52611 198.223C8.55204 198.306 8.60268 198.379 8.67125 198.433C8.73982 198.486 8.82304 198.517 8.90978 198.522C8.96186 198.508 9.01036 198.483 9.05211 198.448C9.09385 198.414 9.12791 198.371 9.15205 198.323C9.17619 198.275 9.18987 198.222 9.1922 198.168C9.19453 198.114 9.18545 198.061 9.16555 198.01C8.22642 194.453 8.009 190.744 8.52611 187.102ZM19.695 183.225C19.3966 183.225 12.5759 184.546 11.4249 187.784C10.8435 190.81 10.8435 193.919 11.4249 196.945C11.4354 197.039 11.4805 197.126 11.5513 197.189C11.6222 197.252 11.7138 197.287 11.8086 197.286C11.8086 197.286 12.1496 197.073 12.1496 196.817C11.582 193.933 11.582 190.966 12.1496 188.082C13.1301 185.27 19.695 184.034 19.7803 184.034C19.8656 184.006 19.9398 183.952 19.9925 183.879C20.0451 183.807 20.0735 183.719 20.0735 183.629C20.0735 183.54 20.0451 183.452 19.9925 183.38C19.9398 183.307 19.8656 183.253 19.7803 183.225H19.695Z" fill="#0E0E27"/>
<path d="M45.0848 142.099L45.0531 142.131C44.6256 141.197 44.3564 140.136 44.2456 138.964C44.3564 140.12 44.6573 141.165 45.0848 142.099ZM55.2498 128.435C56.2492 128.435 57.2077 128.038 57.9144 127.331C58.6211 126.625 59.0181 125.666 59.0181 124.667C59.0181 123.667 58.6211 122.709 57.9144 122.002C57.2077 121.295 56.2492 120.898 55.2498 120.898C54.2503 120.898 53.2919 121.295 52.5852 122.002C51.8785 122.709 51.4814 123.667 51.4814 124.667C51.4814 125.666 51.8785 126.625 52.5852 127.331C53.2919 128.038 54.2503 128.435 55.2498 128.435Z" fill="#0E0E27"/>
<path d="M66.634 115.166H53.3657C47.6023 115.166 44.1665 118.602 44.1665 124.365V137.634C44.1665 139.359 44.4673 140.864 45.0532 142.13C46.4148 145.139 49.3282 146.833 53.3657 146.833H66.634C72.3973 146.833 75.8332 143.397 75.8332 137.634V124.365C75.8332 118.602 72.3973 115.166 66.634 115.166ZM73.2523 131.791C72.0173 130.73 70.0223 130.73 68.7873 131.791L62.2007 137.444C60.9657 138.504 58.9707 138.504 57.7357 137.444L57.1973 137C56.0732 136.019 54.284 135.924 53.0173 136.779L47.0957 140.753C46.7473 139.866 46.5415 138.837 46.5415 137.634V124.365C46.5415 119.9 48.9007 117.541 53.3657 117.541H66.634C71.099 117.541 73.4582 119.9 73.4582 124.365V131.965L73.2523 131.791Z" fill="#0E0E27"/>
<path d="M90.7806 108.011C90.2934 107.728 89.8557 107.367 89.4846 106.943C89.5221 106.353 89.6628 105.773 89.9001 105.232C90.3366 104 90.8301 102.605 90.0381 101.521C89.2461 100.436 87.7506 100.471 86.4381 100.501C85.8582 100.56 85.2723 100.521 84.7056 100.384C84.4037 99.8924 84.1881 99.3531 84.0681 98.7891C83.6961 97.5216 83.2716 96.0891 81.9681 95.6601C80.7111 95.2551 79.5471 96.1461 78.5181 96.9291C78.0741 97.3346 77.5596 97.6554 77.0001 97.8756C76.4347 97.6572 75.9145 97.3363 75.4656 96.9291C74.4396 96.1506 73.2801 95.2506 72.0171 95.6616C70.7166 96.0846 70.2921 97.5216 69.9171 98.7891C69.7973 99.3513 69.5838 99.8893 69.2856 100.381C68.7179 100.517 68.1312 100.558 67.5501 100.501C66.2331 100.465 64.7496 100.426 63.9501 101.521C63.1506 102.616 63.6501 104 64.0881 105.23C64.3288 105.771 64.4715 106.351 64.5096 106.942C64.1392 107.366 63.702 107.727 63.2151 108.011C62.1171 108.761 60.8706 109.615 60.8706 111.001C60.8706 112.387 62.1171 113.237 63.2151 113.99C63.7019 114.273 64.1391 114.634 64.5096 115.058C64.4755 115.649 64.3368 116.229 64.1001 116.771C63.6651 118.001 63.1731 119.396 63.9636 120.481C64.7541 121.565 66.2451 121.531 67.5636 121.501C68.1441 121.441 68.7304 121.48 69.2976 121.618C69.5982 122.109 69.8132 122.648 69.9336 123.212C70.3056 124.48 70.7301 125.912 72.0336 126.341C72.2426 126.408 72.4606 126.443 72.6801 126.443C73.7349 126.292 74.7153 125.812 75.4821 125.072C75.9261 124.667 76.4406 124.346 77.0001 124.126C77.5655 124.344 78.0857 124.665 78.5346 125.072C79.5621 125.857 80.7261 126.752 81.9846 126.34C83.2851 125.917 83.7096 124.48 84.0846 123.214C84.2048 122.65 84.4199 122.112 84.7206 121.621C85.2861 121.483 85.871 121.442 86.4501 121.501C87.7671 121.532 89.2506 121.576 90.0501 120.481C90.8496 119.386 90.3501 118.001 89.9121 116.77C89.6731 116.229 89.5304 115.651 89.4906 115.061C89.8612 114.636 90.299 114.275 90.7866 113.992C91.8846 113.242 93.1311 112.387 93.1311 111.001C93.1311 109.615 91.8801 108.763 90.7806 108.011Z" fill="#4CD964"/>
<path d="M75.5003 115.125C75.3525 115.125 75.2062 115.096 75.0697 115.04C74.9333 114.983 74.8094 114.9 74.7053 114.795L71.7053 111.795C71.5065 111.582 71.3984 111.3 71.4035 111.008C71.4086 110.717 71.5267 110.439 71.7328 110.233C71.9389 110.026 72.217 109.908 72.5085 109.903C72.7999 109.898 73.082 110.006 73.2953 110.205L75.6053 112.515L80.8253 108.6C81.064 108.421 81.364 108.344 81.6594 108.386C81.9547 108.429 82.2212 108.586 82.4003 108.825C82.5793 109.064 82.6561 109.364 82.614 109.659C82.5718 109.954 82.414 110.221 82.1753 110.4L76.1753 114.9C75.9805 115.046 75.7437 115.125 75.5003 115.125Z" fill="white"/>
</g>
<defs>
<clipPath id="clip0_9076_8744">
<rect width="214" height="222" fill="white"/>
</clipPath>
</defs>
</svg>
