<svg width="240" height="245" viewBox="0 0 240 245" fill="none" xmlns="http://www.w3.org/2000/svg">
<g clip-path="url(#clip0_3363_18417)">
<path d="M232.801 68.0968C220.474 47.5395 195.079 37.8 171.943 43.9843C171.898 43.997 171.857 43.997 171.815 44.0065C164.703 46.5817 158.761 51.5799 156.205 59.4673C155.645 61.1989 152.894 60.46 153.46 58.7125C156.202 50.2574 162.353 44.7582 169.809 41.7865C161.656 16.2374 136.844 -1.86198 109.584 0.151881C82.7572 2.13403 60.9607 22.4186 55.7743 48.437C58.0284 48.9698 60.2412 49.7088 62.3871 50.6824C70.9197 54.5516 77.5389 61.2243 82.2542 69.2163C83.187 70.7957 80.7259 72.2228 79.7962 70.6466C78.2457 68.0175 76.4405 65.5343 74.3965 63.2635C66.803 54.837 55.9526 49.8166 44.5131 50.3272C32.9558 50.841 20.4975 56.9904 12.7162 65.4042C3.79832 75.0422 -1.00926 88.08 0.178308 101.216C1.34677 114.108 8.08056 126.131 18.5203 133.879C28.2023 141.065 39.4635 144.335 51.4315 144.789C59.2797 145.087 67.1342 145.198 74.9887 145.302C97.4346 145.607 119.881 145.692 142.33 145.753C152.19 145.778 162.054 145.794 171.914 145.8C180.014 145.807 188.54 146.45 196.522 144.919C222.619 139.911 242.372 116.081 239.771 89.2186C239.048 81.7689 236.654 74.5221 232.801 68.1V68.0968Z" fill="#C6CBD8"/>
<path d="M107.556 241.622C109.64 241.622 111.329 239.94 111.329 237.864C111.329 235.789 109.64 234.106 107.556 234.106C105.472 234.106 103.783 235.789 103.783 237.864C103.783 239.94 105.472 241.622 107.556 241.622Z" fill="#01FFE3"/>
<path d="M153.16 207.337C155.085 206.543 155.953 204.233 155.098 202.179C154.244 200.124 151.991 199.102 150.066 199.896C148.141 200.691 147.273 203 148.127 205.055C148.982 207.11 151.235 208.132 153.16 207.337Z" fill="#FFD600"/>
<path d="M69 208C71.2091 208 73 206.209 73 204C73 201.791 71.2091 200 69 200C66.7909 200 65 201.791 65 204C65 206.209 66.7909 208 69 208Z" fill="#EC5557"/>
<path d="M121.5 227C123.985 227 126 224.985 126 222.5C126 220.015 123.985 218 121.5 218C119.015 218 117 220.015 117 222.5C117 224.985 119.015 227 121.5 227Z" fill="#0166FF"/>
<path d="M123.259 215.905C123.278 215.804 123.287 215.699 123.287 215.585C123.345 200.317 123.402 185.05 123.462 169.78C123.472 167.639 120.142 167.642 120.132 169.78C120.075 185.047 120.018 200.314 119.957 215.585C119.957 215.648 119.957 215.705 119.967 215.766C116.881 216.447 114.761 219.501 114.583 222.603C114.366 226.355 117.601 229.12 121.052 229.561C121.211 229.602 121.387 229.622 121.581 229.612C121.781 229.625 121.963 229.606 122.128 229.561C125.809 229.139 128.401 226.406 128.617 222.641C128.808 219.295 126.261 216.733 123.259 215.905ZM121.581 226.295C116.824 226.022 116.866 219.187 121.619 218.95C126.376 218.712 126.312 226.057 121.581 226.295Z" fill="#616A7F"/>
<path d="M109.247 231.299C109.323 210.793 109.399 190.286 109.476 169.78C109.482 167.639 106.155 167.642 106.146 169.78C106.069 190.239 105.993 210.694 105.916 231.153C102.838 231.838 100.72 234.892 100.542 237.991C100.326 241.743 103.56 244.508 107.012 244.949C107.171 244.99 107.346 245.009 107.54 245C107.741 245.013 107.922 244.993 108.088 244.949C111.768 244.527 114.36 241.793 114.576 238.029C114.767 234.693 112.236 232.136 109.247 231.302V231.299ZM107.54 241.679C102.783 241.407 102.825 234.572 107.578 234.334C112.335 234.096 112.271 241.441 107.54 241.679Z" fill="#616A7F"/>
<path d="M94.8367 169.117C94.7953 180.138 94.7507 191.159 94.7093 202.176C88.4403 202.154 82.1714 202.132 75.9024 202.113C74.9855 199.357 72.1105 197.495 69.1973 197.327C65.2366 197.102 62.3712 200.67 62.161 204.298C61.9445 208.05 65.1793 210.815 68.6306 211.256C68.7898 211.297 68.9649 211.316 69.1591 211.307C69.3597 211.319 69.5412 211.3 69.7067 211.256C73.0179 210.879 75.4408 208.62 76.0521 205.43C82.8241 205.452 89.5961 205.478 96.3649 205.5C97.2755 205.503 98.0268 204.742 98.03 203.841C98.0746 192.265 98.1192 180.693 98.1637 169.117C98.1733 166.976 94.843 166.979 94.8335 169.117H94.8367ZM69.1623 207.989C64.4056 207.717 64.447 200.882 69.2005 200.644C73.9571 200.406 73.8934 207.752 69.1623 207.989Z" fill="#616A7F"/>
<path d="M151.547 196.613C148.042 196.414 145.393 199.189 144.686 202.347C141.744 202.338 138.799 202.328 135.857 202.316C135.898 191.469 135.943 180.623 135.984 169.777C135.994 167.636 132.664 167.639 132.654 169.777C132.61 181.175 132.565 192.57 132.52 203.968C132.517 204.875 133.281 205.623 134.186 205.627C137.71 205.639 141.231 205.652 144.756 205.662C145.568 208.329 148.204 210.187 150.98 210.539C151.139 210.58 151.315 210.599 151.509 210.59C151.709 210.603 151.891 210.584 152.056 210.539C155.737 210.117 158.328 207.384 158.545 203.619C158.771 199.674 155.189 196.82 151.547 196.61V196.613ZM151.509 207.276C146.752 207.003 146.793 200.169 151.547 199.931C156.304 199.693 156.24 207.038 151.509 207.276Z" fill="#616A7F"/>
<g opacity="0.2">
<path d="M209.922 154.224L209.9 152.626C209.894 152.274 210.177 151.982 210.534 151.979C210.887 151.972 211.18 152.255 211.183 152.61L211.205 154.208C211.212 154.56 210.929 154.852 210.572 154.855C210.215 154.858 209.926 154.579 209.922 154.224Z" fill="#616A7F"/>
<path d="M210.406 188.631L210.359 185.19C210.352 184.838 210.636 184.546 210.992 184.543C211.346 184.537 211.638 184.819 211.642 185.174L211.689 188.615C211.696 188.967 211.412 189.259 211.056 189.262C210.702 189.269 210.41 188.986 210.406 188.631ZM210.311 181.749L210.263 178.308C210.257 177.956 210.54 177.664 210.897 177.661C211.253 177.658 211.543 177.937 211.546 178.292L211.594 181.733C211.6 182.085 211.317 182.377 210.96 182.38C210.607 182.387 210.314 182.104 210.311 181.749ZM210.212 174.867L210.164 171.426C210.158 171.074 210.441 170.782 210.798 170.779C211.155 170.776 211.444 171.055 211.447 171.41L211.495 174.851C211.502 175.203 211.218 175.495 210.862 175.498C210.505 175.501 210.215 175.222 210.212 174.867ZM210.117 167.988L210.069 164.547C210.062 164.195 210.346 163.903 210.702 163.9C211.056 163.894 211.349 164.176 211.352 164.531L211.4 167.972C211.406 168.324 211.123 168.616 210.766 168.619C210.413 168.626 210.12 168.343 210.117 167.988ZM210.018 161.106L209.97 157.665C209.964 157.313 210.247 157.021 210.604 157.018C210.957 157.012 211.25 157.294 211.253 157.649L211.301 161.09C211.307 161.442 211.024 161.734 210.667 161.737C210.314 161.744 210.021 161.461 210.018 161.106Z" fill="#616A7F"/>
<path d="M210.48 193.67L210.457 192.072C210.451 191.72 210.734 191.428 211.091 191.425C211.444 191.419 211.737 191.701 211.74 192.056L211.763 193.654C211.769 194.006 211.486 194.298 211.129 194.301C210.773 194.305 210.483 194.025 210.48 193.67Z" fill="#616A7F"/>
<path d="M201.514 154.341L201.492 152.743C201.485 152.391 201.769 152.099 202.125 152.096C202.479 152.089 202.772 152.372 202.775 152.727L202.797 154.325C202.803 154.677 202.52 154.969 202.163 154.972C201.81 154.979 201.517 154.696 201.514 154.341Z" fill="#616A7F"/>
<path d="M201.874 179.909L201.829 176.712C201.823 176.36 202.106 176.069 202.463 176.065C202.816 176.059 203.109 176.341 203.112 176.697L203.157 179.893C203.163 180.245 202.88 180.537 202.523 180.54C202.17 180.547 201.877 180.264 201.874 179.909ZM201.785 173.516L201.74 170.319C201.734 169.967 202.017 169.675 202.374 169.672C202.727 169.666 203.02 169.948 203.023 170.303L203.068 173.5C203.074 173.852 202.791 174.144 202.434 174.147C202.081 174.153 201.788 173.871 201.785 173.516ZM201.692 167.125L201.648 163.928C201.641 163.576 201.925 163.285 202.281 163.281C202.635 163.275 202.928 163.557 202.931 163.913L202.975 167.109C202.982 167.461 202.698 167.753 202.342 167.756C201.985 167.759 201.695 167.48 201.692 167.125ZM201.603 160.732L201.559 157.535C201.552 157.183 201.836 156.891 202.192 156.888C202.545 156.881 202.838 157.164 202.842 157.519L202.886 160.716C202.893 161.068 202.609 161.36 202.253 161.363C201.899 161.369 201.606 161.087 201.603 160.732Z" fill="#616A7F"/>
<path d="M201.941 184.702L201.918 183.103C201.912 182.751 202.195 182.459 202.552 182.456C202.905 182.45 203.198 182.732 203.201 183.087L203.224 184.686C203.23 185.038 202.947 185.329 202.59 185.333C202.237 185.339 201.944 185.057 201.941 184.702Z" fill="#616A7F"/>
<path d="M184.697 154.576L184.675 152.978C184.668 152.626 184.952 152.334 185.308 152.331C185.662 152.324 185.955 152.607 185.958 152.962L185.98 154.56C185.986 154.912 185.703 155.204 185.346 155.207C184.993 155.214 184.7 154.931 184.697 154.576Z" fill="#616A7F"/>
<path d="M185.057 180.144L185.012 176.948C185.006 176.596 185.289 176.304 185.646 176.301C186.002 176.297 186.292 176.577 186.295 176.932L186.34 180.129C186.346 180.481 186.063 180.772 185.706 180.776C185.353 180.782 185.06 180.5 185.057 180.144ZM184.968 173.754L184.923 170.557C184.917 170.205 185.2 169.913 185.557 169.91C185.91 169.904 186.203 170.186 186.206 170.541L186.251 173.738C186.257 174.09 185.974 174.382 185.617 174.385C185.264 174.391 184.971 174.109 184.968 173.754ZM184.878 167.36L184.834 164.164C184.828 163.811 185.111 163.52 185.467 163.517C185.821 163.51 186.114 163.792 186.117 164.148L186.162 167.344C186.168 167.696 185.885 167.988 185.528 167.991C185.175 167.998 184.882 167.716 184.878 167.36ZM184.786 160.97L184.742 157.773C184.735 157.421 185.019 157.129 185.375 157.126C185.729 157.12 186.021 157.402 186.025 157.757L186.069 160.954C186.076 161.306 185.792 161.598 185.436 161.601C185.082 161.607 184.789 161.325 184.786 160.97Z" fill="#616A7F"/>
<path d="M185.127 184.936L185.104 183.338C185.098 182.986 185.381 182.694 185.738 182.691C186.091 182.685 186.384 182.967 186.388 183.322L186.41 184.921C186.416 185.273 186.133 185.564 185.776 185.568C185.423 185.574 185.13 185.292 185.127 184.936Z" fill="#616A7F"/>
<path d="M193.105 154.459L193.083 152.86C193.077 152.508 193.36 152.217 193.717 152.213C194.07 152.207 194.363 152.489 194.366 152.845L194.389 154.443C194.395 154.795 194.112 155.087 193.755 155.09C193.402 155.096 193.109 154.814 193.105 154.459Z" fill="#616A7F"/>
<path d="M193.542 185.323L193.497 182.238C193.491 181.886 193.774 181.594 194.131 181.591C194.484 181.584 194.777 181.867 194.78 182.222L194.825 185.308C194.831 185.66 194.548 185.951 194.191 185.955C193.838 185.961 193.545 185.679 193.542 185.323ZM193.452 179.152L193.408 176.066C193.402 175.714 193.685 175.422 194.041 175.419C194.398 175.416 194.688 175.695 194.691 176.05L194.736 179.136C194.742 179.488 194.459 179.78 194.102 179.783C193.745 179.786 193.456 179.507 193.452 179.152ZM193.367 172.977L193.322 169.891C193.316 169.539 193.599 169.247 193.956 169.244C194.309 169.238 194.602 169.52 194.605 169.875L194.65 172.961C194.656 173.313 194.373 173.605 194.016 173.608C193.663 173.614 193.37 173.332 193.367 172.977ZM193.281 166.805L193.236 163.72C193.23 163.368 193.513 163.076 193.87 163.073C194.223 163.066 194.516 163.349 194.519 163.704L194.564 166.79C194.57 167.142 194.287 167.433 193.93 167.437C193.577 167.443 193.284 167.161 193.281 166.805ZM193.191 160.634L193.147 157.548C193.14 157.196 193.424 156.904 193.78 156.901C194.134 156.895 194.427 157.177 194.43 157.532L194.474 160.618C194.481 160.97 194.197 161.262 193.841 161.265C193.488 161.271 193.195 160.989 193.191 160.634Z" fill="#616A7F"/>
<path d="M193.608 190.008L193.586 188.409C193.58 188.057 193.863 187.765 194.22 187.762C194.573 187.756 194.866 188.038 194.869 188.393L194.892 189.992C194.898 190.344 194.615 190.636 194.258 190.639C193.905 190.645 193.612 190.363 193.608 190.008Z" fill="#616A7F"/>
</g>
<g opacity="0.2">
<path d="M26.3812 154.224L26.4035 152.626C26.4099 152.274 26.1265 151.982 25.7699 151.979C25.4165 151.972 25.1236 152.255 25.1204 152.61L25.0981 154.208C25.0918 154.56 25.3751 154.852 25.7317 154.855C26.0851 154.861 26.378 154.579 26.3812 154.224Z" fill="#616A7F"/>
<path d="M25.2446 189.262C24.8912 189.256 24.6078 188.967 24.611 188.615L24.6587 185.174C24.6651 184.822 24.9548 184.54 25.3082 184.543C25.6616 184.549 25.945 184.838 25.9418 185.19L25.8941 188.631C25.8877 188.983 25.598 189.265 25.2446 189.262ZM25.3401 182.38C24.9867 182.374 24.7033 182.085 24.7065 181.733L24.7543 178.292C24.7606 177.94 25.0504 177.658 25.4038 177.661C25.7572 177.664 26.0405 177.956 26.0373 178.308L25.9896 181.749C25.9832 182.101 25.6935 182.383 25.3401 182.38ZM25.4388 175.498C25.0854 175.491 24.802 175.203 24.8052 174.851L24.853 171.41C24.8593 171.058 25.1491 170.776 25.5025 170.779C25.8559 170.782 26.1392 171.074 26.136 171.426L26.0883 174.867C26.0819 175.219 25.7922 175.501 25.4388 175.498ZM25.5343 168.616C25.1809 168.609 24.8975 168.321 24.9007 167.969L24.9485 164.528C24.9548 164.176 25.2446 163.894 25.598 163.897C25.9514 163.903 26.2347 164.192 26.2316 164.544L26.1838 167.985C26.1774 168.337 25.8877 168.619 25.5343 168.616ZM25.633 161.734C25.2796 161.727 24.9962 161.439 24.9994 161.087L25.0472 157.646C25.0535 157.294 25.3433 157.012 25.6967 157.015C26.0501 157.021 26.3334 157.31 26.3303 157.662L26.2825 161.103C26.2761 161.455 25.9864 161.737 25.633 161.734Z" fill="#616A7F"/>
<path d="M25.824 193.67L25.8463 192.072C25.8527 191.72 25.5693 191.428 25.2127 191.425C24.8593 191.419 24.5664 191.701 24.5632 192.056L24.5409 193.654C24.5346 194.006 24.8179 194.298 25.1745 194.301C25.5311 194.305 25.8208 194.025 25.824 193.67Z" fill="#616A7F"/>
<path d="M34.7897 154.341L34.8119 152.743C34.8183 152.391 34.535 152.099 34.1784 152.096C33.825 152.089 33.532 152.372 33.5289 152.727L33.5066 154.325C33.5002 154.677 33.7836 154.969 34.1402 154.972C34.4936 154.979 34.7865 154.696 34.7897 154.341Z" fill="#616A7F"/>
<path d="M33.7772 180.537C33.4238 180.531 33.1405 180.242 33.1436 179.89L33.1882 176.693C33.1946 176.341 33.4843 176.059 33.8377 176.062C34.1911 176.069 34.4745 176.357 34.4713 176.709L34.4267 179.906C34.4204 180.258 34.1306 180.54 33.7772 180.537ZM33.8664 174.147C33.513 174.14 33.2296 173.852 33.2328 173.5L33.2774 170.303C33.2837 169.951 33.5735 169.669 33.9269 169.672C34.2803 169.675 34.5636 169.967 34.5604 170.319L34.5159 173.516C34.5095 173.868 34.2198 174.15 33.8664 174.147ZM33.9587 167.753C33.6053 167.747 33.3219 167.458 33.3251 167.106L33.3697 163.909C33.3761 163.557 33.6658 163.275 34.0192 163.278C34.3726 163.285 34.656 163.573 34.6528 163.925L34.6082 167.122C34.6018 167.474 34.3121 167.756 33.9587 167.753ZM34.0479 161.363C33.6944 161.356 33.4111 161.068 33.4143 160.716L33.4588 157.519C33.4652 157.167 33.7549 156.885 34.1083 156.888C34.4617 156.894 34.7451 157.183 34.7419 157.535L34.6974 160.732C34.691 161.084 34.4013 161.366 34.0479 161.363Z" fill="#616A7F"/>
<path d="M34.3598 184.702L34.3821 183.103C34.3885 182.751 34.1051 182.459 33.7486 182.456C33.3951 182.45 33.1022 182.732 33.0991 183.087L33.0768 184.686C33.0704 185.038 33.3538 185.329 33.7103 185.333C34.0638 185.339 34.3567 185.057 34.3598 184.702Z" fill="#616A7F"/>
<path d="M51.6034 154.576L51.6257 152.978C51.6321 152.626 51.3487 152.334 50.9921 152.331C50.6387 152.324 50.3458 152.607 50.3426 152.962L50.3204 154.56C50.314 154.912 50.5973 155.204 50.9539 155.207C51.3073 155.214 51.6003 154.931 51.6034 154.576Z" fill="#616A7F"/>
<path d="M50.5942 180.775C50.2408 180.769 49.9574 180.48 49.9606 180.128L50.0052 176.931C50.0115 176.579 50.3013 176.297 50.6547 176.3C51.0081 176.307 51.2914 176.595 51.2883 176.947L51.2437 180.144C51.2373 180.496 50.9476 180.778 50.5942 180.775ZM50.6833 174.382C50.3299 174.375 50.0466 174.087 50.0497 173.735L50.0943 170.538C50.1007 170.186 50.3904 169.903 50.7438 169.907C51.0972 169.913 51.3806 170.202 51.3774 170.554L51.3328 173.75C51.3265 174.102 51.0367 174.385 50.6833 174.382ZM50.7725 167.991C50.4191 167.985 50.1357 167.696 50.1389 167.344L50.1835 164.147C50.1898 163.795 50.4796 163.513 50.833 163.516C51.1864 163.523 51.4697 163.811 51.4665 164.163L51.422 167.36C51.4156 167.712 51.1259 167.994 50.7725 167.991ZM50.8648 161.597C50.5114 161.591 50.228 161.303 50.2312 160.951L50.2758 157.754C50.2822 157.402 50.5719 157.119 50.9253 157.123C51.2787 157.129 51.5621 157.418 51.5589 157.77L51.5143 160.966C51.5079 161.318 51.2182 161.601 50.8648 161.597Z" fill="#616A7F"/>
<path d="M51.1768 184.936L51.1991 183.338C51.2055 182.986 50.9221 182.694 50.5655 182.691C50.2121 182.685 49.9192 182.967 49.916 183.322L49.8937 184.921C49.8874 185.273 50.1707 185.564 50.5273 185.568C50.8807 185.574 51.1736 185.292 51.1768 184.936Z" fill="#616A7F"/>
<path d="M43.195 154.459L43.2173 152.86C43.2236 152.508 42.9403 152.217 42.5837 152.213C42.2271 152.21 41.9374 152.489 41.9342 152.845L41.9119 154.443C41.9055 154.795 42.1889 155.087 42.5455 155.09C42.8989 155.096 43.1918 154.814 43.195 154.459Z" fill="#616A7F"/>
<path d="M42.1093 185.954C41.7559 185.948 41.4726 185.659 41.4757 185.307L41.5203 182.221C41.5267 181.869 41.8164 181.587 42.1698 181.59C42.5232 181.597 42.8066 181.885 42.8034 182.237L42.7588 185.323C42.7524 185.675 42.4627 185.957 42.1093 185.954ZM42.1985 179.779C41.8451 179.773 41.5617 179.484 41.5649 179.132L41.6095 176.047C41.6158 175.695 41.9055 175.412 42.259 175.416C42.6124 175.419 42.8957 175.71 42.8925 176.062L42.848 179.148C42.8416 179.5 42.5519 179.783 42.1985 179.779ZM42.2844 173.608C41.931 173.601 41.6477 173.313 41.6508 172.961L41.6954 169.875C41.7018 169.523 41.9915 169.241 42.3449 169.244C42.6983 169.25 42.9817 169.539 42.9785 169.891L42.9339 172.977C42.9276 173.329 42.6378 173.611 42.2844 173.608ZM42.3704 167.436C42.017 167.43 41.7336 167.141 41.7368 166.789L41.7814 163.703C41.7877 163.351 42.0775 163.069 42.4309 163.072C42.7843 163.079 43.0676 163.367 43.0645 163.719L43.0199 166.805C43.0135 167.157 42.7238 167.439 42.3704 167.436ZM42.4595 161.261C42.1061 161.255 41.8228 160.966 41.826 160.614L41.8705 157.529C41.8769 157.177 42.1666 156.894 42.52 156.897C42.8734 156.904 43.1568 157.192 43.1536 157.544L43.109 160.63C43.1027 160.982 42.8129 161.265 42.4595 161.261Z" fill="#616A7F"/>
<path d="M42.6951 190.007L42.7174 188.409C42.7238 188.057 42.4404 187.765 42.0838 187.762C41.7304 187.755 41.4375 188.038 41.4343 188.393L41.412 189.991C41.4057 190.343 41.689 190.635 42.0456 190.638C42.399 190.645 42.6919 190.362 42.6951 190.007Z" fill="#616A7F"/>
</g>
<path opacity="0.1" d="M151.868 175.203C170.082 157.059 170.082 127.644 151.868 109.501C133.654 91.3574 104.124 91.3574 85.9097 109.501C67.6957 127.644 67.6957 157.059 85.9097 175.203C104.124 193.346 133.654 193.346 151.868 175.203Z" fill="#A4A4A4"/>
<path d="M145.026 165.099C160.385 149.8 160.385 124.994 145.026 109.695C129.666 94.3953 104.764 94.3953 89.4049 109.695C74.0456 124.994 74.0456 149.8 89.4049 165.099C104.764 180.399 129.666 180.399 145.026 165.099Z" fill="#F9A140"/>
<path d="M115.411 90.345C89.3223 91.3377 68.984 113.208 69.9805 139.195C70.9771 165.181 92.9327 185.441 119.021 184.448C145.109 183.455 165.448 161.585 164.451 135.598C163.455 109.612 141.499 89.3524 115.411 90.345ZM118.715 176.545C97.0112 177.372 78.7424 160.513 77.9115 138.893C77.0805 117.274 94.0057 99.076 115.71 98.2483C137.414 97.4205 155.683 114.28 156.514 135.9C157.345 157.519 140.42 175.717 118.715 176.545Z" fill="#FFD600"/>
<path d="M133.001 139.169C131.788 137.679 129.977 136.553 127.566 135.789C129.009 134.901 130.078 133.794 130.776 132.474C131.473 131.152 131.791 129.626 131.724 127.895C131.594 124.454 130.269 121.875 127.757 120.163C125.245 118.447 121.66 117.68 116.996 117.857L115.315 117.921C115.254 116.364 115.194 114.803 115.137 113.246C115.083 111.812 112.478 111.911 112.536 113.344C112.596 114.901 112.656 116.462 112.714 118.019L111.023 118.082C110.963 116.525 110.902 114.965 110.845 113.408C110.791 111.974 108.186 112.076 108.244 113.506C108.304 115.063 108.365 116.624 108.422 118.181L101.59 118.441C100.841 118.469 100.278 118.695 99.8957 119.116C99.5168 119.538 99.3385 120.131 99.3704 120.899C99.4054 121.796 99.6697 122.408 100.166 122.729C100.663 123.049 101.758 123.179 103.452 123.112L104.541 123.071L105.678 152.689L104.589 152.73C102.761 152.8 101.612 153.003 101.141 153.339C100.669 153.675 100.45 154.281 100.485 155.16C100.517 155.949 100.73 156.533 101.131 156.914C101.532 157.294 102.115 157.469 102.885 157.44L109.915 157.174C109.976 158.731 110.036 160.291 110.094 161.848C110.148 163.282 112.752 163.18 112.695 161.75C112.634 160.193 112.574 158.632 112.516 157.075L114.207 157.012C114.268 158.569 114.328 160.129 114.385 161.687C114.439 163.12 117.044 163.019 116.986 161.588C116.926 160.031 116.866 158.471 116.808 156.914L117.665 156.882L120.501 156.774C122.921 156.682 124.787 156.473 126.095 156.149C127.404 155.826 128.585 155.337 129.642 154.681C131.406 153.561 132.75 152.16 133.679 150.479C134.606 148.798 135.032 146.962 134.956 144.967C134.867 142.601 134.211 140.673 132.998 139.182L133.001 139.169ZM117.907 122.56C120.457 122.462 122.437 122.909 123.841 123.899C125.245 124.888 125.984 126.357 126.06 128.307C126.14 130.365 125.446 131.919 123.975 132.963C122.507 134.006 120.209 134.587 117.085 134.707L115.964 134.748C115.808 130.717 115.656 126.683 115.5 122.652L117.907 122.56ZM112.895 122.751C113.051 126.782 113.204 130.816 113.36 134.847L111.67 134.91C111.513 130.879 111.361 126.845 111.205 122.814L112.895 122.751ZM112.341 152.432C112.169 147.942 111.997 143.448 111.826 138.957L113.516 138.893C113.688 143.384 113.86 147.878 114.032 152.369L112.341 152.432ZM126.869 150.317C125.214 151.424 122.319 152.055 118.184 152.21L116.633 152.271C116.461 147.78 116.289 143.286 116.117 138.795L117.996 138.722C122.065 138.567 124.93 138.973 126.586 139.943C128.241 140.914 129.117 142.61 129.209 145.043C129.302 147.453 128.521 149.21 126.866 150.317H126.869Z" fill="#FFD600"/>
</g>
<defs>
<clipPath id="clip0_3363_18417">
<rect width="240" height="245" fill="white"/>
</clipPath>
</defs>
</svg>
