<svg width="240" height="245" viewBox="0 0 240 245" fill="none" xmlns="http://www.w3.org/2000/svg">
<g clip-path="url(#clip0_2440_16365)">
<path d="M232.801 68.0978C220.474 47.5405 195.079 37.801 171.943 43.9853C171.898 43.998 171.857 43.998 171.815 44.0075C164.703 46.5827 158.761 51.5809 156.205 59.4683C155.645 61.1999 152.894 60.4609 153.46 58.7135C156.202 50.2584 162.353 44.7591 169.809 41.7875C161.656 16.2384 136.844 -1.86101 109.584 0.152858C82.7572 2.13501 60.9607 22.4195 55.7743 48.438C58.0284 48.9708 60.2412 49.7098 62.3871 50.6834C70.9197 54.5525 77.5389 61.2253 82.2542 69.2173C83.187 70.7967 80.7259 72.2238 79.7962 70.6476C78.2457 68.0185 76.4405 65.5352 74.3965 63.2645C66.803 54.838 55.9526 49.8176 44.5131 50.3282C32.9558 50.842 20.4975 56.9914 12.7162 65.4052C3.79832 75.0432 -1.00926 88.081 0.178308 101.217C1.34677 114.109 8.08056 126.132 18.5203 133.88C28.2023 141.066 39.4635 144.336 51.4315 144.79C59.2797 145.088 67.1342 145.199 74.9887 145.303C97.4346 145.608 119.881 145.693 142.33 145.754C152.19 145.779 162.054 145.795 171.914 145.801C180.014 145.808 188.54 146.451 196.522 144.92C222.619 139.912 242.372 116.082 239.771 89.2196C239.048 81.7698 236.654 74.5231 232.801 68.1009V68.0978Z" fill="#24262B"/>
<path d="M123.259 215.904C123.278 215.802 123.288 215.697 123.288 215.583C123.345 200.316 123.402 185.049 123.463 169.778C123.472 167.637 120.142 167.641 120.132 169.778C120.075 185.045 120.018 200.313 119.957 215.583C119.957 215.647 119.957 215.704 119.967 215.764C116.882 216.446 114.761 219.5 114.583 222.602C114.367 226.353 117.601 229.119 121.053 229.56C121.212 229.601 121.387 229.62 121.581 229.611C121.782 229.623 121.963 229.604 122.129 229.56C125.809 229.138 128.401 226.404 128.617 222.64C128.808 219.294 126.261 216.731 123.259 215.904ZM121.581 226.293C116.824 226.02 116.866 219.186 121.619 218.948C126.376 218.71 126.312 226.055 121.581 226.293Z" fill="#24262B"/>
<path d="M109.247 231.298C109.323 210.791 109.399 190.285 109.476 169.778C109.482 167.637 106.155 167.641 106.146 169.778C106.069 190.237 105.993 210.693 105.916 231.152C102.838 231.837 100.72 234.891 100.542 237.989C100.326 241.741 103.56 244.507 107.012 244.948C107.171 244.989 107.346 245.008 107.54 244.998C107.741 245.011 107.922 244.992 108.088 244.948C111.768 244.526 114.36 241.792 114.576 238.028C114.767 234.691 112.236 232.135 109.247 231.301V231.298ZM107.54 241.678C102.783 241.405 102.825 234.571 107.578 234.333C112.335 234.095 112.271 241.44 107.54 241.678Z" fill="#24262B"/>
<path d="M94.8368 169.116C94.7954 180.137 94.7508 191.158 94.7094 202.175C88.4405 202.153 82.1715 202.131 75.9026 202.112C74.9856 199.356 72.1106 197.494 69.1974 197.326C65.2367 197.101 62.3713 200.669 62.1612 204.297C61.9447 208.049 65.1794 210.814 68.6307 211.255C68.7899 211.296 68.965 211.315 69.1592 211.306C69.3598 211.318 69.5413 211.299 69.7068 211.255C73.018 210.878 75.4409 208.62 76.0522 205.429C82.8242 205.451 89.5962 205.477 96.365 205.499C97.2756 205.502 98.027 204.741 98.0301 203.84C98.0747 192.264 98.1193 180.692 98.1639 169.116C98.1734 166.975 94.8431 166.979 94.8336 169.116H94.8368ZM69.1624 207.988C64.4058 207.716 64.4472 200.881 69.2006 200.643C73.9572 200.405 73.8936 207.751 69.1624 207.988Z" fill="#24262B"/>
<path d="M151.547 196.613C148.042 196.413 145.393 199.188 144.686 202.347C141.744 202.337 138.799 202.328 135.857 202.315C135.899 191.469 135.943 180.623 135.985 169.776C135.994 167.636 132.664 167.639 132.654 169.776C132.61 181.174 132.565 192.569 132.521 203.968C132.517 204.875 133.281 205.623 134.186 205.626C137.71 205.639 141.231 205.652 144.756 205.661C145.568 208.328 148.204 210.187 150.98 210.539C151.14 210.58 151.315 210.599 151.509 210.589C151.709 210.602 151.891 210.583 152.056 210.539C155.737 210.117 158.329 207.383 158.545 203.619C158.771 199.673 155.189 196.819 151.547 196.61V196.613ZM151.509 207.275C146.752 207.003 146.794 200.168 151.547 199.93C156.304 199.692 156.24 207.037 151.509 207.275Z" fill="#24262B"/>
<g opacity="0.2">
<path d="M209.922 154.224L209.9 152.626C209.894 152.274 210.177 151.982 210.534 151.979C210.887 151.972 211.18 152.255 211.183 152.61L211.205 154.208C211.212 154.56 210.928 154.852 210.572 154.855C210.215 154.858 209.925 154.579 209.922 154.224Z" fill="#B3D1E2"/>
<path d="M210.406 188.631L210.358 185.19C210.352 184.838 210.635 184.546 210.992 184.543C211.345 184.536 211.638 184.819 211.641 185.174L211.689 188.615C211.695 188.967 211.412 189.259 211.056 189.262C210.702 189.268 210.409 188.986 210.406 188.631ZM210.311 181.749L210.263 178.308C210.256 177.956 210.54 177.664 210.896 177.661C211.253 177.657 211.543 177.936 211.546 178.292L211.594 181.733C211.6 182.085 211.317 182.377 210.96 182.38C210.607 182.386 210.314 182.104 210.311 181.749ZM210.212 174.867L210.164 171.426C210.158 171.074 210.441 170.782 210.798 170.779C211.154 170.775 211.444 171.054 211.447 171.41L211.495 174.851C211.501 175.203 211.218 175.494 210.861 175.498C210.505 175.501 210.215 175.222 210.212 174.867ZM210.116 167.988L210.069 164.547C210.062 164.195 210.346 163.903 210.702 163.9C211.056 163.893 211.348 164.176 211.352 164.531L211.399 167.972C211.406 168.324 211.122 168.616 210.766 168.619C210.412 168.625 210.119 168.343 210.116 167.988ZM210.018 161.106L209.97 157.665C209.963 157.313 210.247 157.021 210.603 157.018C210.957 157.011 211.25 157.294 211.253 157.649L211.301 161.09C211.307 161.442 211.024 161.734 210.667 161.737C210.314 161.743 210.021 161.461 210.018 161.106Z" fill="#B3D1E2"/>
<path d="M210.479 193.671L210.457 192.073C210.451 191.721 210.734 191.429 211.091 191.426C211.444 191.42 211.737 191.702 211.74 192.057L211.762 193.655C211.769 194.007 211.486 194.299 211.129 194.302C210.772 194.306 210.483 194.026 210.479 193.671Z" fill="#B3D1E2"/>
<path d="M201.514 154.341L201.491 152.743C201.485 152.391 201.768 152.099 202.125 152.096C202.478 152.089 202.771 152.372 202.774 152.727L202.797 154.325C202.803 154.677 202.52 154.969 202.163 154.972C201.81 154.979 201.517 154.696 201.514 154.341Z" fill="#B3D1E2"/>
<path d="M201.873 179.91L201.829 176.713C201.822 176.361 202.106 176.07 202.462 176.066C202.816 176.06 203.109 176.342 203.112 176.698L203.156 179.894C203.163 180.246 202.879 180.538 202.523 180.541C202.169 180.548 201.877 180.265 201.873 179.91ZM201.784 173.517L201.74 170.32C201.733 169.968 202.017 169.676 202.373 169.673C202.727 169.667 203.02 169.949 203.023 170.304L203.067 173.501C203.074 173.853 202.79 174.145 202.434 174.148C202.08 174.154 201.787 173.872 201.784 173.517ZM201.692 167.126L201.647 163.929C201.641 163.577 201.924 163.286 202.281 163.282C202.634 163.276 202.927 163.558 202.93 163.914L202.975 167.11C202.981 167.462 202.698 167.754 202.341 167.757C201.985 167.76 201.695 167.481 201.692 167.126ZM201.603 160.733L201.558 157.536C201.552 157.184 201.835 156.892 202.192 156.889C202.545 156.882 202.838 157.165 202.841 157.52L202.886 160.717C202.892 161.069 202.609 161.361 202.252 161.364C201.899 161.37 201.606 161.088 201.603 160.733Z" fill="#B3D1E2"/>
<path d="M201.94 184.701L201.918 183.102C201.912 182.75 202.195 182.458 202.552 182.455C202.905 182.449 203.198 182.731 203.201 183.086L203.223 184.685C203.23 185.037 202.946 185.329 202.59 185.332C202.236 185.338 201.944 185.056 201.94 184.701Z" fill="#B3D1E2"/>
<path d="M184.697 154.576L184.674 152.977C184.668 152.625 184.951 152.333 185.308 152.33C185.661 152.324 185.954 152.606 185.958 152.961L185.98 154.56C185.986 154.912 185.703 155.204 185.346 155.207C184.993 155.213 184.7 154.931 184.697 154.576Z" fill="#B3D1E2"/>
<path d="M185.057 180.143L185.012 176.947C185.006 176.595 185.289 176.303 185.646 176.3C186.002 176.296 186.292 176.576 186.295 176.931L186.34 180.128C186.346 180.48 186.063 180.771 185.706 180.775C185.353 180.781 185.06 180.499 185.057 180.143ZM184.967 173.753L184.923 170.556C184.916 170.204 185.2 169.912 185.556 169.909C185.91 169.903 186.203 170.185 186.206 170.54L186.25 173.737C186.257 174.089 185.973 174.381 185.617 174.384C185.263 174.39 184.971 174.108 184.967 173.753ZM184.878 167.359L184.834 164.163C184.827 163.81 185.111 163.519 185.467 163.516C185.821 163.509 186.114 163.791 186.117 164.147L186.161 167.343C186.168 167.696 185.884 167.987 185.528 167.99C185.174 167.997 184.881 167.715 184.878 167.359ZM184.786 160.969L184.741 157.772C184.735 157.42 185.018 157.128 185.375 157.125C185.728 157.119 186.021 157.401 186.024 157.756L186.069 160.953C186.075 161.305 185.792 161.597 185.435 161.6C185.082 161.606 184.789 161.324 184.786 160.969Z" fill="#B3D1E2"/>
<path d="M185.126 184.935L185.104 183.337C185.098 182.985 185.381 182.693 185.738 182.69C186.091 182.683 186.384 182.965 186.387 183.321L186.409 184.919C186.416 185.271 186.132 185.563 185.776 185.566C185.422 185.572 185.13 185.29 185.126 184.935Z" fill="#B3D1E2"/>
<path d="M193.105 154.458L193.083 152.86C193.077 152.508 193.36 152.216 193.717 152.213C194.07 152.207 194.363 152.489 194.366 152.844L194.388 154.443C194.395 154.795 194.111 155.086 193.755 155.089C193.401 155.096 193.109 154.814 193.105 154.458Z" fill="#B3D1E2"/>
<path d="M193.541 185.323L193.497 182.237C193.49 181.885 193.774 181.593 194.13 181.59C194.484 181.584 194.777 181.866 194.78 182.221L194.824 185.307C194.831 185.659 194.547 185.951 194.191 185.954C193.837 185.96 193.545 185.678 193.541 185.323ZM193.452 179.151L193.408 176.065C193.401 175.713 193.685 175.422 194.041 175.419C194.398 175.415 194.688 175.694 194.691 176.05L194.735 179.135C194.742 179.487 194.458 179.779 194.102 179.782C193.745 179.786 193.455 179.507 193.452 179.151ZM193.366 172.977L193.322 169.891C193.315 169.539 193.599 169.247 193.955 169.244C194.309 169.237 194.602 169.52 194.605 169.875L194.649 172.961C194.656 173.313 194.372 173.604 194.016 173.608C193.662 173.614 193.369 173.332 193.366 172.977ZM193.28 166.805L193.236 163.719C193.229 163.367 193.513 163.075 193.869 163.072C194.223 163.066 194.516 163.348 194.519 163.703L194.563 166.789C194.57 167.141 194.286 167.433 193.93 167.436C193.576 167.442 193.283 167.16 193.28 166.805ZM193.191 160.633L193.147 157.547C193.14 157.195 193.424 156.904 193.78 156.9C194.134 156.894 194.426 157.176 194.43 157.532L194.474 160.617C194.481 160.969 194.197 161.261 193.841 161.264C193.487 161.271 193.194 160.988 193.191 160.633Z" fill="#B3D1E2"/>
<path d="M193.608 190.007L193.586 188.409C193.58 188.057 193.863 187.765 194.22 187.762C194.573 187.755 194.866 188.038 194.869 188.393L194.891 189.991C194.898 190.343 194.614 190.635 194.258 190.638C193.904 190.645 193.611 190.362 193.608 190.007Z" fill="#B3D1E2"/>
</g>
<g opacity="0.2">
<path d="M26.3813 154.224L26.4036 152.626C26.41 152.274 26.1266 151.982 25.77 151.979C25.4166 151.972 25.1237 152.255 25.1205 152.61L25.0982 154.208C25.0919 154.56 25.3752 154.852 25.7318 154.855C26.0852 154.861 26.3781 154.579 26.3813 154.224Z" fill="#B3D1E2"/>
<path d="M25.2449 189.263C24.8915 189.257 24.6082 188.968 24.6114 188.616L24.6591 185.175C24.6655 184.823 24.9552 184.541 25.3086 184.544C25.662 184.55 25.9454 184.839 25.9422 185.191L25.8944 188.632C25.8881 188.984 25.5983 189.266 25.2449 189.263ZM25.3404 182.381C24.987 182.374 24.7037 182.086 24.7069 181.734L24.7546 178.293C24.761 177.941 25.0507 177.659 25.4041 177.662C25.7575 177.665 26.0409 177.957 26.0377 178.309L25.9899 181.75C25.9836 182.102 25.6939 182.384 25.3404 182.381ZM25.4391 175.499C25.0857 175.492 24.8024 175.204 24.8056 174.852L24.8533 171.411C24.8597 171.059 25.1494 170.777 25.5028 170.78C25.8562 170.783 26.1396 171.075 26.1364 171.427L26.0886 174.868C26.0823 175.22 25.7926 175.502 25.4391 175.499ZM25.5347 168.617C25.1813 168.61 24.8979 168.322 24.9011 167.97L24.9488 164.529C24.9552 164.177 25.2449 163.894 25.5983 163.898C25.9517 163.904 26.2351 164.193 26.2319 164.545L26.1842 167.986C26.1778 168.338 25.8881 168.62 25.5347 168.617ZM25.6334 161.735C25.28 161.728 24.9966 161.44 24.9998 161.088L25.0475 157.647C25.0539 157.295 25.3436 157.012 25.697 157.016C26.0504 157.022 26.3338 157.311 26.3306 157.663L26.2829 161.104C26.2765 161.456 25.9868 161.738 25.6334 161.735Z" fill="#B3D1E2"/>
<path d="M25.8242 193.671L25.8465 192.073C25.8529 191.721 25.5695 191.429 25.2129 191.426C24.8595 191.42 24.5666 191.702 24.5634 192.057L24.5411 193.655C24.5348 194.007 24.8181 194.299 25.1747 194.302C25.5313 194.306 25.821 194.026 25.8242 193.671Z" fill="#B3D1E2"/>
<path d="M34.7895 154.341L34.8118 152.743C34.8182 152.391 34.5348 152.099 34.1782 152.096C33.8248 152.089 33.5319 152.372 33.5287 152.727L33.5065 154.325C33.5001 154.677 33.7834 154.969 34.14 154.972C34.4934 154.979 34.7864 154.696 34.7895 154.341Z" fill="#B3D1E2"/>
<path d="M33.7772 180.538C33.4238 180.532 33.1404 180.243 33.1436 179.891L33.1882 176.694C33.1945 176.342 33.4843 176.06 33.8377 176.063C34.1911 176.07 34.4744 176.358 34.4712 176.71L34.4267 179.907C34.4203 180.259 34.1306 180.541 33.7772 180.538ZM33.8663 174.148C33.5129 174.141 33.2295 173.853 33.2327 173.501L33.2773 170.304C33.2837 169.952 33.5734 169.67 33.9268 169.673C34.2802 169.676 34.5636 169.968 34.5604 170.32L34.5158 173.517C34.5094 173.869 34.2197 174.151 33.8663 174.148ZM33.9586 167.754C33.6052 167.748 33.3219 167.459 33.3251 167.107L33.3696 163.91C33.376 163.558 33.6657 163.276 34.0191 163.279C34.3725 163.285 34.6559 163.574 34.6527 163.926L34.6081 167.123C34.6018 167.475 34.312 167.757 33.9586 167.754ZM34.0478 161.364C33.6944 161.357 33.411 161.069 33.4142 160.717L33.4588 157.52C33.4651 157.168 33.7549 156.886 34.1083 156.889C34.4617 156.895 34.745 157.184 34.7419 157.536L34.6973 160.732C34.6909 161.085 34.4012 161.367 34.0478 161.364Z" fill="#B3D1E2"/>
<path d="M34.3598 184.701L34.3821 183.102C34.3885 182.75 34.1051 182.458 33.7486 182.455C33.3951 182.449 33.1022 182.731 33.0991 183.086L33.0768 184.685C33.0704 185.037 33.3538 185.329 33.7103 185.332C34.0638 185.338 34.3567 185.056 34.3598 184.701Z" fill="#B3D1E2"/>
<path d="M51.604 154.576L51.6263 152.977C51.6326 152.625 51.3493 152.333 50.9927 152.33C50.6393 152.324 50.3464 152.606 50.3432 152.961L50.3209 154.56C50.3145 154.912 50.5979 155.204 50.9545 155.207C51.3079 155.213 51.6008 154.931 51.604 154.576Z" fill="#B3D1E2"/>
<path d="M50.5945 180.776C50.2411 180.769 49.9578 180.481 49.961 180.129L50.0055 176.932C50.0119 176.58 50.3016 176.298 50.655 176.301C51.0084 176.307 51.2918 176.596 51.2886 176.948L51.244 180.145C51.2377 180.497 50.948 180.779 50.5945 180.776ZM50.6837 174.382C50.3303 174.376 50.0469 174.087 50.0501 173.735L50.0947 170.538C50.1011 170.186 50.3908 169.904 50.7442 169.907C51.0976 169.913 51.3809 170.202 51.3778 170.554L51.3332 173.751C51.3268 174.103 51.0371 174.385 50.6837 174.382ZM50.7728 167.992C50.4194 167.985 50.1361 167.697 50.1393 167.345L50.1838 164.148C50.1902 163.796 50.4799 163.514 50.8333 163.517C51.1867 163.523 51.4701 163.812 51.4669 164.164L51.4223 167.36C51.416 167.713 51.1262 167.995 50.7728 167.992ZM50.8652 161.598C50.5118 161.592 50.2284 161.303 50.2316 160.951L50.2762 157.754C50.2825 157.402 50.5723 157.12 50.9257 157.123C51.2791 157.129 51.5624 157.418 51.5592 157.77L51.5147 160.967C51.5083 161.319 51.2186 161.601 50.8652 161.598Z" fill="#B3D1E2"/>
<path d="M51.1772 184.935L51.1995 183.337C51.2059 182.985 50.9225 182.693 50.5659 182.69C50.2125 182.683 49.9196 182.965 49.9164 183.321L49.8941 184.919C49.8878 185.271 50.1711 185.563 50.5277 185.566C50.8811 185.572 51.174 185.29 51.1772 184.935Z" fill="#B3D1E2"/>
<path d="M43.1953 154.458L43.2176 152.86C43.224 152.508 42.9406 152.216 42.584 152.213C42.2274 152.21 41.9377 152.489 41.9345 152.844L41.9122 154.442C41.9058 154.794 42.1892 155.086 42.5458 155.089C42.8992 155.096 43.1921 154.813 43.1953 154.458Z" fill="#B3D1E2"/>
<path d="M42.1097 185.953C41.7563 185.947 41.4729 185.658 41.4761 185.306L41.5207 182.22C41.527 181.868 41.8168 181.586 42.1702 181.589C42.5236 181.596 42.8069 181.884 42.8038 182.236L42.7592 185.322C42.7528 185.674 42.4631 185.956 42.1097 185.953ZM42.1988 179.778C41.8454 179.772 41.5621 179.484 41.5652 179.131L41.6098 176.046C41.6162 175.694 41.9059 175.411 42.2593 175.415C42.6127 175.418 42.8961 175.709 42.8929 176.062L42.8483 179.147C42.842 179.499 42.5522 179.782 42.1988 179.778ZM42.2848 173.607C41.9314 173.6 41.648 173.312 41.6512 172.96L41.6958 169.874C41.7022 169.522 41.9919 169.24 42.3453 169.243C42.6987 169.249 42.9821 169.538 42.9789 169.89L42.9343 172.976C42.9279 173.328 42.6382 173.61 42.2848 173.607ZM42.3708 167.435C42.0174 167.429 41.734 167.14 41.7372 166.788L41.7817 163.702C41.7881 163.35 42.0778 163.068 42.4312 163.071C42.7847 163.078 43.068 163.366 43.0648 163.718L43.0203 166.804C43.0139 167.156 42.7242 167.438 42.3708 167.435ZM42.4599 161.26C42.1065 161.254 41.8231 160.965 41.8263 160.613L41.8709 157.528C41.8773 157.176 42.167 156.893 42.5204 156.897C42.8738 156.903 43.1572 157.191 43.154 157.543L43.1094 160.629C43.103 160.981 42.8133 161.264 42.4599 161.26Z" fill="#B3D1E2"/>
<path d="M42.6953 190.007L42.7176 188.409C42.7239 188.057 42.4406 187.765 42.084 187.762C41.7306 187.755 41.4377 188.038 41.4345 188.393L41.4122 189.991C41.4058 190.343 41.6892 190.635 42.0458 190.638C42.3992 190.645 42.6921 190.362 42.6953 190.007Z" fill="#B3D1E2"/>
</g>
<path d="M107.556 241.622C109.64 241.622 111.329 239.939 111.329 237.864C111.329 235.788 109.64 234.105 107.556 234.105C105.472 234.105 103.783 235.788 103.783 237.864C103.783 239.939 105.472 241.622 107.556 241.622Z" fill="#01FFE3"/>
<path d="M152.953 206.84C154.878 206.046 155.793 203.847 154.995 201.93C154.198 200.012 151.991 199.102 150.066 199.896C148.141 200.69 147.226 202.888 148.024 204.806C148.821 206.724 151.028 207.634 152.953 206.84Z" fill="#FFD600"/>
<path d="M69.1493 208.122C71.233 208.122 72.9221 206.439 72.9221 204.364C72.9221 202.288 71.233 200.605 69.1493 200.605C67.0656 200.605 65.3765 202.288 65.3765 204.364C65.3765 206.439 67.0656 208.122 69.1493 208.122Z" fill="#FE4A23"/>
<path d="M121.762 226.145C123.846 226.145 125.535 224.463 125.535 222.387C125.535 220.311 123.846 218.629 121.762 218.629C119.678 218.629 117.989 220.311 117.989 222.387C117.989 224.463 119.678 226.145 121.762 226.145Z" fill="#0166FF"/>
<path opacity="0.1" d="M151.868 175.201C170.082 157.058 170.082 127.642 151.868 109.499C133.654 91.3554 104.124 91.3554 85.9095 109.499C67.6955 127.642 67.6955 157.058 85.9095 175.201C104.124 193.344 133.654 193.344 151.868 175.201Z" fill="#272525"/>
<path d="M145.025 165.099C160.385 149.799 160.385 124.994 145.025 109.694C129.666 94.3948 104.764 94.3948 89.4046 109.694C74.0454 124.994 74.0454 149.799 89.4046 165.099C104.764 180.398 129.666 180.398 145.025 165.099Z" fill="#F9A140"/>
<path d="M115.41 90.3455C89.3222 91.3382 68.9839 113.208 69.9804 139.195C70.977 165.182 92.9326 185.441 119.021 184.448C145.109 183.456 165.447 161.586 164.451 135.599C163.454 109.612 141.499 89.3529 115.41 90.3455ZM118.715 176.545C97.0111 177.373 78.7423 160.514 77.9113 138.894C77.0804 117.274 94.0056 99.0765 115.71 98.2488C137.414 97.421 155.683 114.28 156.514 135.9C157.345 157.52 140.419 175.717 118.715 176.545Z" fill="#FFD600"/>
<path d="M133.001 139.169C131.788 137.679 129.976 136.553 127.566 135.789C129.009 134.901 130.078 133.794 130.776 132.474C131.473 131.152 131.791 129.626 131.724 127.895C131.594 124.454 130.269 121.875 127.757 120.163C125.245 118.447 121.66 117.68 116.996 117.857L115.315 117.921C115.254 116.364 115.194 114.803 115.137 113.246C115.083 111.812 112.478 111.911 112.535 113.344C112.596 114.901 112.656 116.462 112.714 118.019L111.023 118.082C110.963 116.525 110.902 114.965 110.845 113.408C110.791 111.974 108.186 112.076 108.244 113.506C108.304 115.063 108.365 116.624 108.422 118.181L101.589 118.441C100.841 118.469 100.278 118.695 99.8957 119.116C99.5168 119.538 99.3385 120.131 99.3703 120.899C99.4053 121.796 99.6696 122.408 100.166 122.729C100.663 123.049 101.758 123.179 103.452 123.112L104.541 123.071L105.677 152.689L104.589 152.73C102.761 152.8 101.612 153.003 101.141 153.339C100.669 153.675 100.45 154.281 100.485 155.16C100.516 155.949 100.73 156.533 101.131 156.914C101.532 157.294 102.115 157.469 102.885 157.44L109.915 157.174C109.976 158.731 110.036 160.291 110.093 161.848C110.148 163.282 112.752 163.18 112.695 161.75C112.634 160.193 112.574 158.632 112.516 157.075L114.207 157.012C114.267 158.569 114.328 160.129 114.385 161.687C114.439 163.12 117.044 163.019 116.986 161.588C116.926 160.031 116.865 158.471 116.808 156.914L117.665 156.882L120.501 156.774C122.921 156.682 124.787 156.473 126.095 156.149C127.404 155.826 128.585 155.337 129.642 154.681C131.406 153.561 132.75 152.16 133.679 150.479C134.606 148.798 135.032 146.962 134.956 144.967C134.867 142.601 134.211 140.673 132.998 139.182L133.001 139.169ZM117.907 122.56C120.457 122.462 122.437 122.909 123.841 123.899C125.245 124.888 125.984 126.357 126.06 128.307C126.14 130.365 125.446 131.919 123.975 132.963C122.507 134.006 120.208 134.587 117.085 134.707L115.964 134.748C115.808 130.717 115.656 126.683 115.5 122.652L117.907 122.56ZM112.895 122.751C113.051 126.782 113.204 130.816 113.36 134.847L111.669 134.91C111.513 130.879 111.361 126.845 111.205 122.814L112.895 122.751ZM112.341 152.432C112.169 147.942 111.997 143.448 111.825 138.957L113.516 138.893C113.688 143.384 113.86 147.878 114.032 152.369L112.341 152.432ZM126.869 150.317C125.213 151.424 122.319 152.055 118.184 152.21L116.633 152.271C116.461 147.78 116.289 143.286 116.117 138.795L117.996 138.722C122.065 138.567 124.93 138.973 126.586 139.943C128.241 140.914 129.117 142.61 129.209 145.043C129.301 147.453 128.521 149.21 126.866 150.317H126.869Z" fill="#FFD600"/>
</g>
<defs>
<clipPath id="clip0_2440_16365">
<rect width="240" height="245" fill="white"/>
</clipPath>
</defs>
</svg>
