<svg width="165" height="160" viewBox="0 0 165 160" fill="none" xmlns="http://www.w3.org/2000/svg">
<path d="M87.9427 90.7953V99.2117H156.896C161.004 99.2117 164.351 95.9529 164.491 91.8787C164.496 91.791 164.497 91.7 164.497 91.6098C164.497 89.5117 163.647 87.6103 162.271 86.2348C160.896 84.8584 158.994 84.0078 156.896 84.0078H94.7285C90.9808 84.007 87.9427 87.0467 87.9427 90.7953Z" fill="white"/>
<path d="M156.897 99.5225H87.9428C87.7692 99.5225 87.6292 99.3824 87.6292 99.2089V90.7925C87.6292 86.8764 90.8141 83.6914 94.7293 83.6914H156.897C159.012 83.6914 161 84.5154 162.494 86.0103C163.988 87.5053 164.811 89.4925 164.811 91.6069C164.811 91.7023 164.81 91.7985 164.805 91.8913C164.658 96.1691 161.184 99.5225 156.897 99.5225ZM88.2564 98.8961H156.897C160.844 98.8961 164.043 95.8083 164.18 91.8664C164.184 91.7788 164.185 91.6929 164.185 91.6078C164.185 89.6609 163.427 87.8309 162.051 86.4545C160.674 85.0773 158.844 84.3195 156.897 84.3195H94.7293C91.1603 84.3195 88.2564 87.2243 88.2564 90.7942V98.8961Z" fill="white"/>
<path d="M95.9485 105.998C102.931 105.998 108.591 100.338 108.591 93.3556C108.591 86.3732 102.931 80.7129 95.9485 80.7129C88.9661 80.7129 83.3058 86.3732 83.3058 93.3556C83.3058 100.338 88.9661 105.998 95.9485 105.998Z" fill="#FFD600"/>
<path d="M95.9485 106.312C88.8045 106.312 82.9922 100.5 82.9922 93.3558C82.9922 86.2118 88.8045 80.4004 95.9485 80.4004C103.093 80.4004 108.904 86.2127 108.904 93.3558C108.904 100.5 103.093 106.312 95.9485 106.312ZM95.9485 81.0267C89.1499 81.0267 83.6194 86.5572 83.6194 93.3558C83.6194 100.154 89.1499 105.685 95.9485 105.685C102.746 105.685 108.278 100.154 108.278 93.3558C108.278 86.5581 102.746 81.0267 95.9485 81.0267Z" fill="white"/>
<path d="M99.5313 95.2269C99.5313 95.7029 99.4471 96.1308 99.2787 96.5122C99.1094 96.8937 98.8706 97.2228 98.5613 97.4994C98.252 97.7761 97.8782 97.9969 97.4418 98.1627C97.0044 98.3285 96.5207 98.4333 95.9898 98.478L95.8153 100.253C95.8102 100.297 95.7973 100.336 95.7784 100.369C95.7586 100.402 95.7234 100.43 95.671 100.452C95.6186 100.475 95.5464 100.493 95.4554 100.507C95.3643 100.52 95.2492 100.527 95.1108 100.527C94.9338 100.527 94.7912 100.519 94.6838 100.502C94.5756 100.485 94.4914 100.462 94.4304 100.432C94.3694 100.402 94.329 100.361 94.3101 100.311C94.2912 100.262 94.2869 100.207 94.2972 100.146L94.4716 98.4617C94.2336 98.4282 94.0094 98.3861 93.7997 98.3328C93.5901 98.2795 93.3985 98.222 93.2275 98.1584C93.0565 98.0948 92.9079 98.0295 92.7833 97.9634C92.6588 97.8972 92.5651 97.8319 92.5015 97.7683C92.4379 97.7048 92.3924 97.6111 92.3649 97.4865C92.3374 97.362 92.3237 97.1781 92.3237 96.9349C92.3237 96.7468 92.3288 96.5921 92.3409 96.4701C92.352 96.349 92.3709 96.2545 92.3984 96.1883C92.4259 96.1222 92.4603 96.0766 92.5024 96.0517C92.5436 96.0268 92.5917 96.0148 92.6476 96.0148C92.7197 96.0148 92.8246 96.056 92.9629 96.1393C93.1012 96.2227 93.2782 96.3138 93.4939 96.4134C93.7095 96.5131 93.9707 96.6042 94.2774 96.6866C94.5842 96.77 94.945 96.8112 95.36 96.8112C96.0069 96.8112 96.4881 96.6909 96.8034 96.4504C97.1187 96.2098 97.2759 95.8902 97.2759 95.4924C97.2759 95.2269 97.2081 95.0087 97.0723 94.8368C96.9366 94.6659 96.7553 94.5147 96.5293 94.3849C96.3025 94.2552 96.0465 94.1392 95.7621 94.037C95.4768 93.9347 95.1856 93.8256 94.8874 93.7096C94.5885 93.5936 94.2972 93.4579 94.0119 93.3032C93.7276 93.1486 93.4715 92.9578 93.2447 92.731C93.0179 92.5042 92.8366 92.2293 92.7008 91.9054C92.5651 91.5814 92.4972 91.1905 92.4972 90.7317C92.4972 90.3168 92.5668 89.9396 92.7051 89.5993C92.8435 89.2591 93.0428 88.9618 93.3023 88.7075C93.5617 88.4532 93.8813 88.247 94.2602 88.0898C94.6391 87.9326 95.0687 87.826 95.5499 87.7702L95.7157 86.1034C95.7208 86.0587 95.7337 86.0218 95.7526 85.9917C95.7715 85.9616 95.8076 85.9333 95.86 85.9083C95.9124 85.8834 95.9829 85.8654 96.0714 85.8542C96.1599 85.8431 96.2759 85.8379 96.4193 85.8379C96.5903 85.8379 96.7329 85.8465 96.8463 85.8628C96.9598 85.8791 97.0465 85.9032 97.1075 85.9333C97.1685 85.9642 97.2072 86.0037 97.2235 86.0535C97.2398 86.1034 97.2484 86.1592 97.2484 86.2194L97.0826 87.7874C97.2373 87.8097 97.4005 87.8398 97.5724 87.8784C97.7433 87.9171 97.904 87.9626 98.0535 88.0159C98.203 88.0683 98.3387 88.1233 98.4599 88.1817C98.581 88.2393 98.6661 88.2926 98.7133 88.3389C98.7606 88.3862 98.7967 88.4326 98.8207 88.4798C98.8456 88.5271 98.8654 88.5855 98.8791 88.6543C98.8929 88.7238 98.9023 88.8063 98.9084 88.9034C98.9135 89.0005 98.917 89.1122 98.917 89.2394C98.917 89.4103 98.9127 89.5521 98.9041 89.6621C98.8955 89.7729 98.8809 89.8571 98.8585 89.9155C98.8362 89.9739 98.8113 90.0126 98.7838 90.0315C98.7563 90.0513 98.7228 90.0607 98.6841 90.0607C98.6119 90.0607 98.5071 90.0246 98.3688 89.9533C98.2305 89.8812 98.0604 89.8038 97.8585 89.7213C97.6565 89.638 97.4246 89.5607 97.1617 89.4894C96.8988 89.4181 96.6101 89.382 96.2948 89.382C96.0069 89.382 95.7612 89.4095 95.5567 89.4653C95.3522 89.5203 95.1864 89.5976 95.0593 89.6973C94.9321 89.797 94.8376 89.9155 94.7775 90.0538C94.7165 90.1922 94.6864 90.3442 94.6864 90.5101C94.6864 90.7695 94.756 90.9886 94.8943 91.1656C95.0326 91.3426 95.2165 91.4947 95.4459 91.6218C95.6753 91.749 95.9356 91.865 96.2252 91.9698C96.5156 92.0755 96.8111 92.1855 97.1127 92.3014C97.4143 92.4174 97.7098 92.5515 98.0002 92.7035C98.2906 92.8556 98.5492 93.0438 98.7761 93.268C99.0029 93.4914 99.185 93.7629 99.3233 94.0808C99.4625 94.3961 99.5313 94.7793 99.5313 95.2269Z" fill="#1A1A1A"/>
<path d="M140.551 111.854C147.534 111.854 153.194 106.193 153.194 99.2111C153.194 92.2287 147.534 86.5684 140.551 86.5684C133.569 86.5684 127.909 92.2287 127.909 99.2111C127.909 106.193 133.569 111.854 140.551 111.854Z" fill="#FFD600"/>
<path d="M140.552 112.166C133.408 112.166 127.596 106.353 127.596 99.2093C127.596 92.0653 133.408 86.2539 140.552 86.2539C147.696 86.2539 153.508 92.0662 153.508 99.2093C153.507 106.353 147.696 112.166 140.552 112.166ZM140.552 86.8811C133.754 86.8811 128.222 92.4116 128.222 99.2102C128.222 106.009 133.753 111.539 140.552 111.539C147.35 111.539 152.881 106.009 152.881 99.2102C152.881 92.4116 147.349 86.8811 140.552 86.8811Z" fill="white"/>
<path d="M144.134 101.082C144.134 101.558 144.05 101.986 143.882 102.368C143.712 102.749 143.474 103.078 143.164 103.355C142.855 103.632 142.481 103.852 142.045 104.018C141.607 104.184 141.124 104.289 140.593 104.333L140.418 106.109C140.413 106.152 140.4 106.192 140.381 106.225C140.362 106.257 140.326 106.286 140.274 106.308C140.222 106.33 140.149 106.348 140.058 106.362C139.967 106.376 139.852 106.383 139.714 106.383C139.537 106.383 139.394 106.374 139.287 106.358C139.179 106.341 139.094 106.317 139.033 106.287C138.972 106.257 138.932 106.217 138.913 106.167C138.894 106.117 138.89 106.062 138.9 106.001L139.075 104.317C138.837 104.284 138.612 104.242 138.403 104.188C138.192 104.136 138.001 104.077 137.831 104.014C137.66 103.95 137.511 103.885 137.386 103.819C137.262 103.753 137.168 103.687 137.105 103.624C137.041 103.56 136.995 103.467 136.968 103.342C136.94 103.217 136.927 103.034 136.927 102.79C136.927 102.602 136.932 102.448 136.944 102.326C136.955 102.204 136.974 102.11 137.001 102.044C137.029 101.978 137.063 101.932 137.105 101.907C137.147 101.882 137.195 101.87 137.251 101.87C137.323 101.87 137.428 101.911 137.566 101.995C137.704 102.078 137.881 102.169 138.097 102.269C138.313 102.369 138.574 102.46 138.88 102.542C139.187 102.625 139.548 102.667 139.963 102.667C140.61 102.667 141.091 102.546 141.406 102.306C141.722 102.065 141.879 101.746 141.879 101.348C141.879 101.082 141.811 100.864 141.675 100.692C141.54 100.521 141.358 100.37 141.132 100.24C140.905 100.111 140.649 99.9947 140.365 99.8924C140.08 99.7902 139.789 99.6811 139.49 99.5651C139.191 99.4491 138.9 99.3133 138.615 99.1587C138.331 99.004 138.075 98.8133 137.848 98.5865C137.621 98.3597 137.44 98.0847 137.304 97.7608C137.168 97.4369 137.1 97.046 137.1 96.5872C137.1 96.1722 137.17 95.795 137.308 95.4548C137.446 95.1146 137.646 94.8173 137.905 94.563C138.165 94.3087 138.484 94.1025 138.863 93.9453C139.242 93.788 139.672 93.6815 140.153 93.6256L140.319 91.9589C140.324 91.9142 140.337 91.8772 140.356 91.8472C140.375 91.8171 140.411 91.7887 140.463 91.7638C140.515 91.7389 140.586 91.7209 140.674 91.7097C140.763 91.6985 140.879 91.6934 141.022 91.6934C141.193 91.6934 141.336 91.702 141.449 91.7183C141.563 91.7346 141.65 91.7587 141.711 91.7887C141.772 91.8197 141.81 91.8592 141.827 91.909C141.843 91.9588 141.851 92.0147 141.851 92.0748L141.686 93.6428C141.84 93.6652 142.004 93.6952 142.175 93.7339C142.346 93.7726 142.507 93.8181 142.656 93.8714C142.806 93.9246 142.942 93.9788 143.063 94.0372C143.184 94.0947 143.269 94.148 143.316 94.1944C143.363 94.2417 143.4 94.2881 143.424 94.3353C143.449 94.3826 143.468 94.441 143.482 94.5097C143.496 94.5793 143.505 94.6618 143.511 94.7589C143.517 94.856 143.52 94.9677 143.52 95.0948C143.52 95.2658 143.516 95.4076 143.507 95.5175C143.498 95.6284 143.484 95.7126 143.462 95.771C143.439 95.8294 143.414 95.8681 143.387 95.887C143.359 95.9067 143.326 95.9162 143.287 95.9162C143.215 95.9162 143.11 95.8801 142.972 95.8088C142.833 95.7366 142.663 95.6593 142.461 95.5768C142.26 95.4935 142.028 95.4161 141.765 95.3448C141.502 95.2735 141.213 95.2374 140.898 95.2374C140.61 95.2374 140.364 95.2649 140.16 95.3208C139.955 95.3758 139.789 95.4531 139.662 95.5528C139.535 95.6524 139.441 95.771 139.38 95.9093C139.319 96.0476 139.289 96.1997 139.289 96.3655C139.289 96.625 139.359 96.8441 139.497 97.0211C139.636 97.1981 139.82 97.3501 140.049 97.4773C140.278 97.6045 140.539 97.7204 140.828 97.8253C141.119 97.9309 141.414 98.0409 141.716 98.1569C142.017 98.2729 142.313 98.4069 142.603 98.559C142.894 98.7111 143.152 98.8992 143.379 99.1235C143.606 99.3469 143.788 99.6184 143.926 99.9362C144.065 100.252 144.134 100.635 144.134 101.082Z" fill="#1A1A1A"/>
<path d="M108.311 13.9926C108.284 13.9926 108.255 13.9892 108.228 13.9815L106.415 13.484C106.248 13.4385 106.15 13.2658 106.196 13.0991C106.241 12.9324 106.414 12.8353 106.581 12.88L108.394 13.3783C108.561 13.4239 108.659 13.5965 108.614 13.7632C108.574 13.9007 108.448 13.9926 108.311 13.9926ZM142.769 71.5425C142.622 71.5425 142.492 71.4394 142.462 71.2899C142.429 71.1197 142.539 70.9548 142.709 70.9213C143.934 70.6781 145.139 70.3061 146.289 69.8155C146.447 69.7477 146.633 69.8215 146.701 69.9805C146.768 70.1394 146.695 70.3242 146.536 70.392C145.345 70.8998 144.099 71.2847 142.831 71.5356C142.81 71.5407 142.79 71.5425 142.769 71.5425ZM149.74 68.5586C149.642 68.5586 149.545 68.513 149.485 68.4263C149.385 68.2853 149.418 68.0895 149.559 67.9898C150.601 67.2483 151.533 66.4055 152.327 65.4836C152.441 65.3521 152.638 65.3384 152.77 65.4509C152.9 65.5644 152.916 65.762 152.802 65.8934C151.975 66.8531 151.006 67.7303 149.923 68.501C149.867 68.5405 149.803 68.5586 149.74 68.5586ZM154.632 62.8073C154.588 62.8073 154.543 62.7978 154.501 62.7789C154.344 62.7068 154.275 62.5203 154.347 62.3631C154.864 61.241 155.221 60.0425 155.409 58.8001C155.435 58.6291 155.593 58.5123 155.766 58.5372C155.937 58.563 156.054 58.7228 156.029 58.8937C155.832 60.1945 155.458 61.4506 154.916 62.6251C154.864 62.7394 154.75 62.8073 154.632 62.8073ZM155.777 55.3522C155.621 55.3522 155.485 55.2354 155.466 55.0756C155.32 53.8375 155.012 52.6209 154.552 51.4619C154.488 51.3013 154.566 51.1191 154.727 51.0547C154.888 50.9911 155.07 51.0693 155.134 51.2299C155.615 52.4397 155.935 53.7087 156.088 55.0008C156.109 55.1727 155.986 55.3291 155.813 55.3488C155.802 55.3514 155.79 55.3522 155.777 55.3522ZM138.55 50.5151C138.405 50.5151 138.275 50.4137 138.243 50.2668C138.207 50.0976 138.315 49.9309 138.484 49.8948C139.524 49.6749 140.506 49.2556 141.324 48.6834C141.477 48.576 141.628 48.4626 141.773 48.3448C141.908 48.2366 142.105 48.2564 142.214 48.3904C142.323 48.5244 142.303 48.722 142.168 48.8311C142.012 48.9583 141.848 49.0812 141.683 49.1972C140.797 49.8166 139.735 50.2703 138.615 50.5082C138.593 50.5125 138.571 50.5151 138.55 50.5151ZM134.768 50.4292C134.74 50.4292 134.712 50.4258 134.683 50.4172C134.065 50.2445 133.487 49.9936 132.968 49.6723C132.358 49.296 131.832 48.8071 131.4 48.2186C131.298 48.0794 131.328 47.8826 131.468 47.7804C131.608 47.6773 131.804 47.7082 131.907 47.8483C132.29 48.3715 132.758 48.8062 133.298 49.1396C133.768 49.43 134.291 49.6568 134.853 49.814C135.019 49.8604 135.116 50.0331 135.07 50.2007C135.031 50.3381 134.905 50.4292 134.768 50.4292ZM152.987 48.3354C152.892 48.3354 152.797 48.2916 152.736 48.21C152.29 47.6128 151.791 47.0475 151.256 46.5311C150.904 46.1918 150.525 45.8584 150.13 45.5431C149.995 45.4348 149.972 45.2381 150.081 45.1023C150.189 44.9674 150.386 44.9451 150.521 45.0534C150.931 45.3807 151.325 45.7261 151.691 46.0792C152.251 46.6196 152.771 47.2099 153.238 47.8345C153.342 47.9728 153.314 48.1696 153.174 48.2727C153.119 48.3148 153.052 48.3354 152.987 48.3354ZM144.301 45.9151C144.255 45.9151 144.21 45.9057 144.166 45.8842C144.01 45.8094 143.944 45.6221 144.018 45.4658C144.459 44.5447 144.749 43.5283 144.866 42.4956C144.433 42.3118 143.987 42.1348 143.529 41.9647C143.366 41.9037 143.284 41.7241 143.344 41.5617C143.405 41.3993 143.585 41.3168 143.747 41.377C144.149 41.5265 144.542 41.6811 144.925 41.8409C144.963 41.7017 145.097 41.6004 145.243 41.609C145.416 41.6175 145.549 41.7653 145.541 41.938C145.538 41.9921 145.535 42.0463 145.531 42.1004C146.141 42.3702 146.724 42.652 147.274 42.9432C147.427 43.0249 147.485 43.2139 147.403 43.3668C147.323 43.5197 147.132 43.5773 146.98 43.4965C146.5 43.2414 145.994 42.9948 145.465 42.7568C145.326 43.793 145.026 44.8102 144.584 45.7364C144.53 45.849 144.419 45.9151 144.301 45.9151ZM130.65 44.7518C130.638 44.7518 130.626 44.7509 130.613 44.7501C130.442 44.7312 130.318 44.5757 130.338 44.403C130.437 43.5249 130.78 42.7113 131.328 42.0497C131.637 41.6768 132.011 41.3409 132.439 41.0514C132.583 40.9543 132.778 40.9921 132.875 41.1355C132.972 41.279 132.934 41.4741 132.791 41.5711C132.411 41.828 132.081 42.1236 131.811 42.4501C131.34 43.018 131.047 43.7182 130.961 44.4743C130.943 44.6332 130.807 44.7518 130.65 44.7518ZM139.995 40.8469C139.971 40.8469 139.946 40.8443 139.922 40.8383C138.639 40.5324 137.536 40.4061 136.47 40.4499C136.391 40.4534 136.311 40.4577 136.232 40.4628C136.059 40.4748 135.909 40.3451 135.897 40.1724C135.885 39.9997 136.015 39.8502 136.188 39.8382C136.273 39.8322 136.359 39.827 136.444 39.8236C137.57 39.7755 138.728 39.9095 140.068 40.2283C140.236 40.2686 140.34 40.437 140.3 40.6063C140.265 40.7498 140.137 40.8469 139.995 40.8469ZM144.79 38.4584C144.651 38.4584 144.525 38.3664 144.487 38.2273C144.182 37.1026 143.715 35.9333 143.096 34.7511C143.016 34.5981 143.075 34.4082 143.229 34.3283C143.382 34.2476 143.572 34.3077 143.651 34.4607C144.291 35.6824 144.775 36.8947 145.092 38.0632C145.138 38.2298 145.039 38.4025 144.872 38.4472C144.844 38.4549 144.816 38.4584 144.79 38.4584ZM141.343 31.689C141.247 31.689 141.152 31.6452 141.09 31.5618C140.364 30.5781 139.542 29.6098 138.648 28.6836C138.527 28.559 138.531 28.3605 138.655 28.2403C138.78 28.12 138.978 28.1243 139.099 28.248C140.012 29.1939 140.852 30.1837 141.595 31.1889C141.698 31.3281 141.668 31.524 141.528 31.6271C141.473 31.6692 141.407 31.689 141.343 31.689ZM136.067 26.192C135.996 26.192 135.926 26.1688 135.867 26.1207C134.921 25.3397 133.899 24.5776 132.831 23.8559C132.688 23.7588 132.65 23.5646 132.747 23.4212C132.844 23.2777 133.038 23.2407 133.182 23.337C134.268 24.0707 135.305 24.844 136.267 25.6378C136.4 25.7478 136.419 25.9454 136.309 26.0794C136.246 26.1525 136.157 26.192 136.067 26.192ZM129.753 21.9073C129.701 21.9073 129.65 21.8944 129.601 21.8669C128.791 21.4133 127.944 20.9691 127.083 20.5481C126.797 20.4081 126.51 20.2706 126.222 20.1357C126.066 20.0627 125.998 19.8754 126.072 19.719C126.145 19.5626 126.331 19.4948 126.489 19.5686C126.78 19.7053 127.069 19.8444 127.359 19.9853C128.23 20.4124 129.088 20.8617 129.907 21.3214C130.058 21.4056 130.112 21.5971 130.028 21.7484C129.97 21.8497 129.863 21.9073 129.753 21.9073ZM122.853 18.6468C122.814 18.6468 122.774 18.6399 122.736 18.6244C121.614 18.1742 120.414 17.7266 119.172 17.2927C119.009 17.2351 118.922 17.0564 118.979 16.8932C119.037 16.7299 119.216 16.644 119.379 16.7007C120.631 17.138 121.839 17.5891 122.97 18.0419C123.131 18.1063 123.209 18.2885 123.145 18.4491C123.094 18.572 122.976 18.6468 122.853 18.6468ZM115.648 16.1156C115.617 16.1156 115.586 16.1113 115.554 16.1019C114.435 15.7531 113.24 15.3965 111.901 15.0107C111.735 14.9626 111.639 14.7891 111.686 14.6233C111.734 14.4566 111.907 14.3612 112.073 14.4085C113.417 14.7951 114.617 15.1525 115.74 15.503C115.904 15.5546 115.997 15.7307 115.946 15.8957C115.904 16.0297 115.781 16.1156 115.648 16.1156ZM138.941 71.8801C138.938 71.8801 138.936 71.8801 138.934 71.8801C138.294 71.8655 137.653 71.8148 137.025 71.7298C136.853 71.7066 136.733 71.5485 136.757 71.3766C136.78 71.2048 136.939 71.0845 137.11 71.1086C137.715 71.1911 138.332 71.24 138.948 71.2538C139.121 71.2581 139.258 71.4016 139.255 71.5743C139.25 71.7444 139.111 71.8801 138.941 71.8801Z" fill="white"/>
<path d="M81.127 105.997V150.185C81.127 154.998 82.1228 158.898 86.9358 158.898H157.711C161.459 158.898 164.497 155.86 164.497 152.112V91.877H164.491C164.351 95.9511 161.004 99.21 156.896 99.21H87.9127C84.165 99.21 81.127 102.249 81.127 105.997Z" fill="#1A1A1A"/>
<path d="M157.712 159.211H86.9367C81.511 159.211 80.8142 154.388 80.8142 150.186V105.998C80.8142 102.082 83.9992 98.8966 87.9144 98.8966H156.897C160.844 98.8966 164.043 95.8088 164.18 91.8669C164.186 91.6976 164.324 91.5645 164.492 91.5645C164.666 91.5645 164.811 91.7045 164.811 91.8781V152.113C164.811 156.025 161.626 159.211 157.712 159.211ZM87.9136 99.5221C84.3446 99.5221 81.4406 102.427 81.4406 105.997V150.185C81.4406 156.072 83.0842 158.584 86.9358 158.584H157.711C161.28 158.584 164.184 155.68 164.184 152.111V94.7168C162.982 97.558 160.177 99.523 156.896 99.523H87.9136V99.5221Z" fill="white"/>
<path d="M93.5729 121.077C93.3994 121.077 93.2593 120.936 93.2593 120.763V114.867C93.2593 114.694 93.3994 114.554 93.5729 114.554H104.482V110.093C104.482 109.919 104.622 109.779 104.795 109.779C104.969 109.779 105.109 109.919 105.109 110.093V114.866C105.109 115.04 104.969 115.18 104.795 115.18H93.8865V120.762C93.8857 120.936 93.7456 121.077 93.5729 121.077ZM131.828 129.558H108.557C108.383 129.558 108.243 129.418 108.243 129.245C108.243 129.071 108.383 128.931 108.557 128.931H131.828C132.002 128.931 132.142 129.071 132.142 129.245C132.142 129.418 132.002 129.558 131.828 129.558ZM117.622 150.669C117.549 150.669 117.475 150.643 117.415 150.591L112.787 146.528H81.1278C80.9543 146.528 80.8142 146.388 80.8142 146.214C80.8142 146.041 80.9543 145.901 81.1278 145.901H112.906C112.982 145.901 113.055 145.928 113.113 145.979L117.829 150.12C117.959 150.234 117.972 150.432 117.857 150.562C117.795 150.633 117.709 150.669 117.622 150.669ZM142.469 120.099H121.705C121.531 120.099 121.391 119.959 121.391 119.785C121.391 119.612 121.531 119.472 121.705 119.472H142.339L149.955 111.856C150.014 111.797 150.093 111.764 150.177 111.764H164.498C164.672 111.764 164.812 111.904 164.812 112.078C164.812 112.251 164.672 112.391 164.498 112.391H150.307L142.691 120.007C142.632 120.065 142.553 120.099 142.469 120.099ZM137.68 141.365H125.329C125.155 141.365 125.015 141.225 125.015 141.051C125.015 140.878 125.155 140.738 125.329 140.738H137.55L149.265 129.023C149.324 128.965 149.404 128.931 149.487 128.931H164.498C164.672 128.931 164.812 129.071 164.812 129.245C164.812 129.418 164.672 129.558 164.498 129.558H149.617L137.902 141.273C137.843 141.331 137.764 141.365 137.68 141.365Z" fill="white"/>
<path d="M78.5667 122.532V137.2C78.5667 138.176 79.3588 138.968 80.3348 138.968H99.3594C104.363 138.968 108.518 134.978 108.577 129.975C108.607 127.419 107.583 125.1 105.911 123.43C104.264 121.782 101.989 120.764 99.4754 120.764H80.3348C79.3588 120.763 78.5667 121.555 78.5667 122.532Z" fill="#1A1A1A"/>
<path d="M99.3603 139.282H80.3357C79.1878 139.282 78.2539 138.349 78.2539 137.201V122.533C78.2539 121.385 79.1878 120.451 80.3357 120.451H99.4763C101.993 120.451 104.357 121.431 106.134 123.209C107.943 125.016 108.921 127.421 108.891 129.979C108.831 135.109 104.556 139.282 99.3603 139.282ZM80.3357 121.078C79.5332 121.078 78.8811 121.73 78.8811 122.533V137.201C78.8811 138.003 79.5341 138.655 80.3357 138.655H99.3603C104.214 138.655 108.208 134.76 108.264 129.972C108.292 127.583 107.379 125.339 105.691 123.652C104.032 121.991 101.825 121.077 99.4763 121.077H80.3357V121.078Z" fill="white"/>
<path d="M99.1842 134.344C101.658 134.344 103.663 132.339 103.663 129.866C103.663 127.392 101.658 125.387 99.1842 125.387C96.7106 125.387 94.7053 127.392 94.7053 129.866C94.7053 132.339 96.7106 134.344 99.1842 134.344Z" fill="white"/>
<path d="M99.1842 134.659C96.5414 134.659 94.3917 132.509 94.3917 129.867C94.3917 127.224 96.5414 125.074 99.1842 125.074C101.827 125.074 103.977 127.224 103.977 129.867C103.977 132.509 101.826 134.659 99.1842 134.659ZM99.1842 125.701C96.8876 125.701 95.0181 127.569 95.0181 129.867C95.0181 132.163 96.8868 134.033 99.1842 134.033C101.482 134.033 103.35 132.164 103.35 129.867C103.349 127.569 101.481 125.701 99.1842 125.701Z" fill="white"/>
<path d="M99.1842 132.642C100.717 132.642 101.96 131.399 101.96 129.866C101.96 128.333 100.717 127.09 99.1842 127.09C97.6511 127.09 96.4082 128.333 96.4082 129.866C96.4082 131.399 97.6511 132.642 99.1842 132.642Z" fill="#1A1A1A"/>
<path d="M99.1842 132.955C97.4804 132.955 96.0946 131.569 96.0946 129.865C96.0946 128.161 97.4804 126.775 99.1842 126.775C100.888 126.775 102.274 128.161 102.274 129.865C102.273 131.569 100.887 132.955 99.1842 132.955ZM99.1842 127.403C97.8258 127.403 96.7218 128.507 96.7218 129.865C96.7218 131.223 97.8267 132.327 99.1842 132.327C100.543 132.327 101.647 131.222 101.647 129.865C101.647 128.507 100.542 127.403 99.1842 127.403Z" fill="white"/>
<path d="M104.795 110.52C106.045 110.52 107.058 109.508 107.058 108.258C107.058 107.009 106.045 105.996 104.795 105.996C103.546 105.996 102.533 107.009 102.533 108.258C102.533 109.508 103.546 110.52 104.795 110.52Z" fill="#01FFE3"/>
<path d="M119.565 122.048C120.814 122.048 121.827 121.035 121.827 119.786C121.827 118.536 120.814 117.523 119.565 117.523C118.315 117.523 117.302 118.536 117.302 119.786C117.302 121.035 118.315 122.048 119.565 122.048Z" fill="#01FFE3"/>
<path d="M141.925 122.048C143.175 122.048 144.188 121.035 144.188 119.786C144.188 118.536 143.175 117.523 141.925 117.523C140.676 117.523 139.663 118.536 139.663 119.786C139.663 121.035 140.676 122.048 141.925 122.048Z" fill="#01FFE3"/>
<path d="M131.828 130.81C133.078 130.81 134.091 129.797 134.091 128.547C134.091 127.298 133.078 126.285 131.828 126.285C130.579 126.285 129.566 127.298 129.566 128.547C129.566 129.797 130.579 130.81 131.828 130.81Z" fill="#01FFE3"/>
<path d="M125.329 143.313C126.578 143.313 127.591 142.301 127.591 141.051C127.591 139.802 126.578 138.789 125.329 138.789C124.079 138.789 123.067 139.802 123.067 141.051C123.067 142.301 124.079 143.313 125.329 143.313Z" fill="#01FFE3"/>
<path d="M148.97 131.509C150.219 131.509 151.232 130.496 151.232 129.247C151.232 127.997 150.219 126.984 148.97 126.984C147.72 126.984 146.708 127.997 146.708 129.247C146.708 130.496 147.72 131.509 148.97 131.509Z" fill="#01FFE3"/>
<path d="M117.622 152.62C118.871 152.62 119.884 151.607 119.884 150.358C119.884 149.109 118.871 148.096 117.622 148.096C116.373 148.096 115.36 149.109 115.36 150.358C115.36 151.607 116.373 152.62 117.622 152.62Z" fill="#01FFE3"/>
<path d="M83.3058 70.9046C83.1933 70.9046 83.085 70.8445 83.0292 70.7388C82.9476 70.5859 83.006 70.396 83.1589 70.3153L86.1987 68.6974C86.3516 68.6149 86.5415 68.6742 86.6222 68.8272C86.7038 68.9801 86.6454 69.17 86.4925 69.2507L83.4527 70.8686C83.4063 70.8926 83.3557 70.9046 83.3058 70.9046Z" fill="white"/>
<path d="M84.6745 9.67805V48.9439C84.6745 52.067 86.8619 54.8043 89.6113 55.0629L110.261 57.0081C113.509 57.3139 116.194 54.739 116.194 51.249V7.37204C116.194 3.88552 113.509 1.31059 110.261 1.61646L89.6113 3.56162C86.8619 3.82023 84.6745 6.55755 84.6745 9.67805Z" fill="white"/>
<path d="M110.784 57.3475C110.601 57.3475 110.416 57.3389 110.231 57.3209L89.5812 55.3757C86.7021 55.1051 84.36 52.22 84.36 48.944V9.67901C84.36 6.40557 86.7021 3.52219 89.5812 3.2507L110.231 1.30553C111.829 1.15432 113.362 1.66037 114.538 2.7309C115.788 3.87016 116.507 5.56186 116.507 7.37299V51.25C116.507 53.0637 115.788 54.7571 114.537 55.8964C113.498 56.8423 112.182 57.3475 110.784 57.3475ZM110.781 1.90609C110.618 1.90609 110.455 1.91383 110.29 1.92929L89.6405 3.87445C87.0741 4.11588 84.9872 6.72003 84.9872 9.67901V48.9448C84.9872 51.9055 87.0741 54.5105 89.6405 54.7528L110.29 56.698C111.713 56.8294 113.072 56.3827 114.116 55.4333C115.254 54.3971 115.88 52.9116 115.88 51.2508V7.37299C115.88 5.71394 115.254 4.22929 114.117 3.19399C113.194 2.35458 112.024 1.90609 110.781 1.90609Z" fill="white"/>
<path d="M31.8475 159.473L27.1461 117.994L27.2475 100.385L45.6355 107.855L52.1789 159.473H31.8475Z" fill="#1A1A1A"/>
<path d="M52.1781 159.785C52.0225 159.785 51.8877 159.669 51.867 159.511L45.3468 108.076L27.5577 100.85L27.4589 117.977L32.1577 159.437C32.1774 159.609 32.0537 159.765 31.8819 159.784C31.7075 159.807 31.5545 159.68 31.5356 159.508L26.8342 118.03C26.8325 118.018 26.8325 118.005 26.8325 117.993L26.9339 100.384C26.9348 100.28 26.9863 100.183 27.0731 100.125C27.159 100.068 27.2681 100.056 27.3652 100.095L45.7523 107.565C45.8571 107.608 45.931 107.703 45.9456 107.816L52.4891 159.433C52.5106 159.605 52.3894 159.762 52.2176 159.784C52.2047 159.785 52.1918 159.785 52.1781 159.785Z" fill="white"/>
<path d="M28.4804 124.116L21.022 159.471H0.312504C2.98882 144.976 6.14455 109.898 6.60163 107.858C7.19532 105.208 31.6087 110.731 31.6087 110.731" fill="#1A1A1A"/>
<path d="M0.31336 159.784C0.296176 159.784 0.278993 159.783 0.262669 159.78C0.0916938 159.752 -0.0234333 159.591 0.00406016 159.42C1.83581 148.251 3.91415 126.195 5.15565 113.016C5.75363 106.674 6.14799 102.484 6.29491 101.745C6.34474 101.491 6.50111 101.28 6.75886 101.117C9.80892 99.1955 30.7942 104.508 31.686 104.735C31.8535 104.778 31.9549 104.949 31.9119 105.116C31.869 105.284 31.698 105.385 31.5313 105.342C25.5283 103.814 9.43689 100.169 7.09308 101.648C6.93241 101.749 6.91523 101.837 6.90921 101.867C6.76831 102.574 6.35333 106.978 5.77941 113.075C4.53704 126.26 2.45785 148.331 0.622661 159.52C0.596886 159.676 0.463714 159.784 0.31336 159.784Z" fill="white"/>
<path d="M21.022 159.785C21.0005 159.785 20.979 159.783 20.9567 159.778C20.7874 159.742 20.6791 159.576 20.7144 159.407L28.172 124.051C28.2081 123.882 28.3747 123.775 28.5431 123.809C28.7124 123.845 28.8206 124.011 28.7854 124.18L21.3278 159.536C21.2977 159.684 21.1672 159.785 21.022 159.785Z" fill="white"/>
<path d="M61.4399 57.5176C61.4399 57.5176 63.8989 59.7076 63.2175 63.7105C62.5886 67.4023 59.5764 79.2022 55.7367 77.0912C51.8971 74.9802 54.7006 60.5204 54.7006 60.5204L61.4399 57.5176Z" fill="white"/>
<path d="M56.6535 77.6561C56.2952 77.6561 55.9387 77.559 55.5855 77.3649C51.5913 75.1688 54.2762 61.0595 54.3921 60.4598C54.411 60.3593 54.4789 60.2751 54.5717 60.233L61.3119 57.2302C61.4245 57.1804 61.5559 57.2001 61.6478 57.2826C61.7535 57.3771 64.2288 59.6359 63.5251 63.7625C63.0045 66.8177 60.8007 75.8854 57.6106 77.425C57.2927 77.5788 56.9722 77.6561 56.6535 77.6561ZM54.9772 60.7391C54.2057 64.8175 52.9419 75.1963 55.8871 76.8159C56.3734 77.0831 56.8485 77.0977 57.3391 76.8605C60.0455 75.5546 62.2965 67.2464 62.9082 63.6577C63.465 60.3911 61.8712 58.4167 61.372 57.8909L54.9772 60.7391Z" fill="white"/>
<path d="M97.1806 22.8733C97.2184 25.6123 95.3067 30.4984 94.5137 32.2348C92.6588 36.3029 91.2892 40.1735 91.2892 40.1735L91.2076 40.1452C89.4558 45.6138 79.9001 72.8486 74.0113 76.3395C67.4679 80.2195 51.2081 72.4405 51.2081 72.4405L55.4137 56.0218L66.6018 61.4311L78.7213 35.8888C78.7213 35.8888 76.4127 24.9378 78.4652 23.1954C80.7876 21.2211 82.255 27.5832 82.255 27.5832C82.255 27.5832 82.5609 16.7499 85.4847 16.6339C87.8886 16.5369 86.7098 22.686 86.654 23.0614C86.7829 22.7513 88.8475 17.7277 90.1483 17.2225C91.4894 16.6993 92.2197 18.1693 91.9852 19.3317C91.9852 19.3317 94.5549 17.7363 94.7964 20.764C94.7955 20.764 97.1488 20.1273 97.1806 22.8733Z" fill="#1A1A1A"/>
<path d="M69.108 77.7409C61.6693 77.7409 51.6041 72.9768 51.0723 72.7225C50.9374 72.6581 50.867 72.5069 50.9039 72.3617L55.1095 55.9429C55.1327 55.8519 55.1955 55.7762 55.2814 55.7367C55.3664 55.6972 55.4652 55.6981 55.5494 55.7384L66.4532 61.0103L78.3922 35.8486C78.0726 34.3081 76.1824 24.7198 78.2616 22.9551C78.8837 22.4267 79.4344 22.455 79.7858 22.5719C80.8194 22.9138 81.5754 24.4672 82.0359 25.7499C82.2679 22.5341 83.0292 16.4168 85.4709 16.3197C85.9237 16.3016 86.3163 16.4675 86.6093 16.8008C87.3052 17.5921 87.3903 19.2538 87.2485 20.9403C88.0639 19.2211 89.155 17.2708 90.034 16.9297C90.6208 16.702 91.1835 16.7768 91.6191 17.1428C92.0573 17.5114 92.3228 18.1489 92.3408 18.8113C92.8057 18.6291 93.5007 18.4642 94.097 18.7657C94.6185 19.0295 94.945 19.5785 95.0687 20.4016C95.4631 20.3612 96.1126 20.3793 96.6496 20.7848C97.1977 21.1998 97.4821 21.9009 97.4933 22.8691C97.5328 25.731 95.561 30.6945 94.7981 32.3647C92.9706 36.3719 91.5977 40.239 91.5839 40.2777C91.5573 40.3533 91.504 40.4126 91.4387 40.4478C89.1422 47.5574 79.9396 73.1882 74.1702 76.6086C72.8042 77.4179 71.0454 77.7409 69.108 77.7409ZM51.5758 72.2654C53.5819 73.1882 67.9447 79.571 73.8506 76.0681C79.4516 72.7474 88.8758 46.3932 90.9086 40.0474C90.9344 39.9675 90.9911 39.9005 91.0658 39.8627C91.3743 39.0104 92.6278 35.6098 94.2276 32.1027C94.9244 30.5776 96.9048 25.6082 96.8661 22.876V22.8752C96.8575 22.1131 96.6582 21.5778 96.2741 21.2857C95.7071 20.8535 94.8831 21.0632 94.8754 21.0657C94.7869 21.0898 94.6898 21.0726 94.6133 21.0185C94.5377 20.9644 94.4888 20.8802 94.4819 20.7874C94.42 20.009 94.1949 19.5167 93.8135 19.3242C93.1553 18.9908 92.1578 19.5906 92.1484 19.5966C92.0419 19.6627 91.907 19.6593 91.8047 19.588C91.7016 19.5167 91.6518 19.3912 91.6758 19.2684C91.8021 18.6455 91.608 17.953 91.2145 17.6222C90.955 17.4048 90.6345 17.367 90.2599 17.5139C89.4592 17.825 88.0192 20.576 86.947 23.1656C86.886 23.3116 86.721 23.3967 86.5706 23.3554C86.4177 23.3125 86.3181 23.1707 86.3413 23.0135L86.3602 22.9027C86.8525 20.0081 86.7717 17.9358 86.1376 17.2149C85.9666 17.0199 85.7613 16.9331 85.495 16.946C83.5782 17.0225 82.6812 23.5161 82.5661 27.5911C82.5618 27.7484 82.4406 27.8781 82.2842 27.8944C82.1253 27.9082 81.9827 27.8068 81.9475 27.653C81.6897 26.5378 80.7635 23.5565 79.5873 23.1673C79.2926 23.0693 78.9919 23.157 78.6663 23.4336C77.0992 24.7636 78.3948 32.8287 79.0263 35.8237C79.04 35.8907 79.0323 35.9603 79.0031 36.0231L66.8836 61.5653C66.8475 61.6409 66.784 61.6985 66.7049 61.7269C66.6267 61.7544 66.5399 61.7501 66.4643 61.7131L55.6207 56.4705L51.5758 72.2654Z" fill="white"/>
<path d="M89.9704 24.6849C89.9318 24.6849 89.8922 24.678 89.8544 24.6626C89.6938 24.5981 89.6156 24.416 89.68 24.2553L91.6931 19.2146C91.7575 19.0539 91.9396 18.9757 92.1003 19.0402C92.261 19.1046 92.3392 19.2867 92.2747 19.4474L90.2617 24.4882C90.2127 24.6102 90.095 24.6849 89.9704 24.6849ZM92.6381 26.0922C92.5969 26.0922 92.5548 26.0836 92.5144 26.0665C92.3555 25.9977 92.2824 25.8139 92.3503 25.6549L94.5077 20.6417C94.5764 20.4819 94.7612 20.4105 94.9192 20.4776C95.0782 20.5463 95.1512 20.7302 95.0833 20.8891L92.926 25.9024C92.8753 26.0209 92.7601 26.0922 92.6381 26.0922Z" fill="white"/>
<path d="M82.2542 9.81604V48.9693C82.2542 52.0838 84.3849 54.8125 87.063 55.0711L107.174 57.0103C110.337 57.3153 112.952 54.7472 112.952 51.2676V7.51775C112.952 4.04155 110.337 1.47349 107.174 1.77849L87.063 3.71764C84.3849 3.97539 82.2542 6.70412 82.2542 9.81604Z" fill="#1A1A1A"/>
<path d="M107.682 57.3487C107.503 57.3487 107.325 57.3401 107.144 57.3229L87.0329 55.3837C84.2251 55.1131 81.9414 52.2366 81.9414 48.97V9.81676C81.9414 6.55277 84.2251 3.67713 87.0329 3.40649L107.144 1.46734C108.68 1.31956 110.155 1.80671 111.295 2.84287C112.547 3.98041 113.265 5.68501 113.265 7.51848V51.2692C113.265 53.1052 112.547 54.8115 111.294 55.9491C110.289 56.8606 109.023 57.3487 107.682 57.3487ZM107.68 2.06704C107.522 2.06704 107.363 2.07477 107.204 2.09024L87.093 4.02939C84.598 4.26995 82.5678 6.86551 82.5678 9.8159V48.9692C82.5678 51.9213 84.598 54.5186 87.093 54.7591L107.204 56.6983C108.565 56.8297 109.866 56.3976 110.873 55.4834C111.995 54.4644 112.639 52.9274 112.639 51.2674V7.51762C112.639 5.85942 111.995 4.32494 110.874 3.30596C109.985 2.49834 108.865 2.06704 107.68 2.06704Z" fill="white"/>
<path d="M92.2137 6.6364C92.2137 6.97577 92.4534 7.22836 92.749 7.20431L97.3043 6.83229C97.611 6.80737 97.8602 6.50924 97.8602 6.16299C97.8602 5.81675 97.611 5.55728 97.3043 5.58391L92.749 5.97655C92.602 5.98944 92.4663 6.07106 92.3709 6.18963C92.2721 6.30733 92.2137 6.46542 92.2137 6.6364Z" fill="white"/>
<path d="M99.5879 5.57097C99.484 5.69297 99.423 5.85535 99.423 6.03062C99.423 6.37945 99.6756 6.63806 99.9875 6.61228L100.876 6.54011C101.035 6.52722 101.177 6.44646 101.278 6.32446C101.38 6.20246 101.445 6.03836 101.445 5.86137C101.445 5.51083 101.19 5.24792 100.876 5.27541L99.9875 5.35188C99.832 5.36477 99.6885 5.44896 99.5879 5.57097Z" fill="white"/>
<path d="M33.0924 68.8899L55.8716 77.1388C54.0072 69.4475 55.6019 62.825 61.4399 57.5162C61.4399 57.5162 50.2037 52.2426 45.9345 51.4564C41.6678 50.672 39.1805 51.0277 39.1805 51.0277L33.0924 68.8899Z" fill="#1A1A1A"/>
<path d="M52.1437 75.7901L55.8734 77.1399C54.009 69.4469 55.6036 62.8278 61.4416 57.5173C61.4416 57.5173 60.0902 56.8832 58.1467 56.0215C52.3834 61.4454 50.6127 68.1066 52.1437 75.7901Z" fill="#01FFE3"/>
<path d="M55.8716 77.4542C55.8355 77.4542 55.7995 77.4482 55.7651 77.4353L32.9859 69.1864C32.8252 69.128 32.741 68.9518 32.796 68.7903L38.8841 50.9273C38.9296 50.7924 39.0585 50.7039 39.2046 50.7159C39.2261 50.7177 41.4178 50.8886 45.6509 51.667C49.9038 52.4506 61.0851 57.0326 61.5585 57.2276C61.6581 57.268 61.7295 57.3573 61.7484 57.463C61.7664 57.5687 61.7303 57.6769 61.6504 57.7491C56.0512 62.8414 54.2598 69.1606 56.1758 77.0658C56.2033 77.1775 56.1663 77.2961 56.0804 77.3734C56.0228 77.4267 55.9481 77.4542 55.8716 77.4542ZM33.4885 68.701L55.4369 76.6491C53.7495 69.0352 55.5752 62.6395 60.8668 57.6228C58.6846 56.7396 49.25 52.9678 45.5384 52.2839C42.1361 51.6584 40.0698 51.4282 39.3987 51.3629L33.4885 68.701Z" fill="white"/>
<path d="M28.3868 49.9611C28.3868 49.9611 8.36722 48.9748 3.5447 55.855C-0.554405 61.7051 4.71919 82.0777 4.74238 90.4521C4.7862 106.381 3.44074 112.836 3.44074 112.836C19.533 118.4 30.771 118.336 47.6837 112.949C47.6837 112.949 47.3246 101.723 47.0299 88.4872C46.7155 74.3718 50.7115 61.5625 46.2171 54.5362C42.8268 49.2359 28.3868 49.9611 28.3868 49.9611Z" fill="#1A1A1A"/>
<path d="M25.2078 117.323C18.203 117.323 11.3726 115.928 3.3385 113.133C3.18127 113.079 3.0945 112.91 3.14003 112.75C3.15378 112.701 4.52759 107.705 4.48463 92.0374C4.4769 89.3508 3.90469 85.1486 3.29898 80.6998C1.96125 70.8726 0.443953 59.7335 3.28867 55.6747C8.15415 48.7318 27.5783 49.6073 28.4022 49.6476C28.4632 49.6494 36.0514 49.6133 41.5879 50.9149C41.7563 50.9544 41.8611 51.1237 41.8216 51.2921C41.7821 51.4614 41.6103 51.5636 41.4444 51.5258C35.9801 50.2413 28.4615 50.2731 28.3885 50.2748C28.1711 50.2645 8.46861 49.3744 3.80159 56.0356C1.09778 59.8933 2.66233 71.383 3.92016 80.6156C4.52931 85.0859 5.10409 89.307 5.11097 92.0357C5.14963 105.922 4.1066 111.383 3.81534 112.635C19.4179 118.02 30.4737 118.04 47.3641 112.723C47.3109 111.029 46.9861 100.532 46.718 88.4959C46.6055 83.4371 47.0531 78.4462 47.4483 74.0421C47.7997 70.1234 48.1322 66.4221 48.0394 63.1908C48.0343 63.0181 48.1709 62.8737 48.3436 62.8686C48.5085 62.8608 48.6606 63 48.6658 63.1727C48.7594 66.441 48.4252 70.1604 48.0721 74.0979C47.6588 78.6997 47.2318 83.4586 47.3444 88.4813C47.6356 101.564 47.9948 112.828 47.9982 112.939C48.0025 113.08 47.9131 113.206 47.78 113.248C39.2037 115.964 32.1207 117.323 25.2078 117.323Z" fill="white"/>
<path d="M19.9171 33.1445C19.9171 33.1445 19.2469 47.3913 16.9228 50.4267C16.9228 50.4267 27.4812 56.4727 33.626 55.7691C37.6168 55.312 35.6193 50.4628 35.6193 50.4628C35.6193 50.4628 30.2546 46.7925 32.0821 40.9028C33.9095 35.0132 19.9171 33.1445 19.9171 33.1445Z" fill="#1A1A1A"/>
<path d="M32.5675 56.1386C26.3445 56.1386 17.1772 50.9329 16.7673 50.6975C16.6892 50.6528 16.6333 50.5763 16.6161 50.487C16.5981 50.3985 16.6196 50.3066 16.6746 50.2344C18.9127 47.3115 19.5983 33.2692 19.6043 33.1274C19.6086 33.0398 19.649 32.9582 19.7169 32.9015C19.7839 32.8448 19.8698 32.819 19.9592 32.831C20.3501 32.8834 29.557 34.1524 31.9764 37.9388C32.5812 38.8847 32.717 39.9123 32.3819 40.9923C30.6455 46.5863 35.5858 50.0565 35.7971 50.2009C35.8469 50.2352 35.8865 50.2842 35.9097 50.3401C35.9543 50.45 37.0017 53.0396 36.0033 54.7313C35.5505 55.4985 34.7627 55.9513 33.6612 56.0767C33.3098 56.1197 32.9438 56.1386 32.5675 56.1386ZM17.3748 50.3186C19.1232 51.2783 28.1917 56.0759 33.5908 55.4564C34.4869 55.3542 35.1167 55.0028 35.4638 54.4143C36.2181 53.1358 35.5205 51.0884 35.3607 50.6605C34.6785 50.1528 30.0355 46.4403 31.7831 40.8084C32.0649 39.9003 31.9558 39.0729 31.448 38.2782C29.4324 35.1233 21.9009 33.771 20.2126 33.5038C20.0958 35.6878 19.3973 47.0185 17.3748 50.3186Z" fill="white"/>
<path d="M26.7518 40.4048C30.0218 42.0527 33.9911 42.9239 37.5524 40.5758C42.8045 37.1099 42.2778 25.3728 38.4846 17.8516C36.6236 14.164 33.9782 11.4912 30.8431 11.3039C23.0719 10.8408 18.1334 14.9184 17.4865 17.3576C16.8421 19.7959 19.2263 29.1901 19.2263 29.1901C19.2263 29.1901 17.7803 25.8608 15.7879 26.9485C13.7955 28.0362 15.2466 35.9019 19.9162 35.3374" fill="#1A1A1A"/>
<path d="M32.7376 42.3372C30.8431 42.3372 28.7966 41.7865 26.6109 40.685C26.4562 40.6077 26.3943 40.4187 26.4725 40.264C26.5499 40.1094 26.738 40.0466 26.8935 40.1257C30.9454 42.1671 34.474 42.2306 37.3806 40.3147C42.4024 37.0017 41.9385 25.3943 38.2054 17.9934C36.2138 14.0473 33.5933 11.7833 30.8251 11.6175C23.2927 11.1647 18.4084 15.1075 17.7898 17.4393C17.1729 19.7719 19.5072 29.0217 19.5313 29.1145C19.5717 29.2726 19.4832 29.435 19.3285 29.4883C19.1747 29.5416 19.0046 29.4668 18.9402 29.3173C18.9325 29.2993 18.1394 27.5053 17.0053 27.117C16.6471 26.9932 16.2982 27.0293 15.9391 27.2261C15.1495 27.6574 14.994 29.6189 15.6006 31.5108C15.8918 32.4215 17.0638 35.3753 19.8801 35.0282C20.0528 35.0067 20.2083 35.1296 20.2289 35.3014C20.2496 35.4733 20.1267 35.6296 19.9557 35.6503C17.3387 35.9664 15.6822 33.8176 15.0043 31.7015C14.3857 29.771 14.3977 27.3532 15.6392 26.6754C16.1556 26.3944 16.684 26.3437 17.2098 26.5241C17.7073 26.6951 18.1377 27.056 18.4883 27.4546C17.8258 24.5747 16.6977 19.1189 17.184 17.2795C17.8104 14.9176 22.6028 10.5015 30.8629 10.9929C33.8623 11.1725 36.6692 13.5593 38.7647 17.7125C42.692 25.4992 43.0932 37.2981 37.7251 40.8396C36.2087 41.838 34.5419 42.3372 32.7376 42.3372Z" fill="white"/>
<path d="M19.9171 35.3375C15.2475 35.9028 13.7963 28.0371 15.7888 26.9486C17.7812 25.8609 19.2272 29.1901 19.2272 29.1901C19.2272 29.1901 19.6842 29.4986 20.0597 29.0853C20.4351 28.6721 21.2376 22.181 19.4342 17.8989C19.4342 17.8989 32.8192 21.0469 38.4855 17.8517C39.434 17.3164 40.1669 16.6059 40.5836 15.6702C43.4944 9.15428 37.0111 3.92193 33.4799 6.24685C29.9496 8.57348 25.4115 -2.98494 17.294 1.27655C9.17486 5.54147 11.1604 11.3349 11.1604 11.3349C11.1604 11.3349 7.85431 12.2069 6.44699 18.3199C5.03795 24.4364 12.0728 39.5543 19.9171 35.3375Z" fill="white"/>
<path d="M17.1531 36.3806C15.7286 36.3806 14.2912 35.8453 12.8959 34.7808C8.14299 31.1534 5.15823 22.5153 6.1394 18.2503C7.34396 13.0188 9.91116 11.5093 10.7849 11.1381C10.5083 9.86397 9.93866 4.78627 17.1471 0.999047C22.1354 -1.61885 25.7611 1.45784 28.6737 3.9314C30.5665 5.53805 32.0597 6.80618 33.3064 5.98481C34.9062 4.93233 37.219 5.27428 39.0594 6.83883C41.0028 8.49016 42.6421 11.8272 40.8679 15.7974C40.4461 16.7434 39.696 17.5261 38.6384 18.124C33.5392 20.9997 22.602 18.9033 19.9377 18.332C21.4584 22.5943 20.7917 28.7442 20.2908 29.2958C19.85 29.7821 19.2873 29.6094 19.051 29.4496C19.002 29.417 18.9625 29.3697 18.9393 29.3147C18.9316 29.2967 18.1386 27.5027 17.0045 27.1144C16.6462 26.9907 16.2974 27.0268 15.9382 27.2235C15.1487 27.6548 14.9932 29.6163 15.5997 31.5082C15.891 32.4189 17.0629 35.3727 19.8793 35.0256C20.0279 35.0093 20.1697 35.0987 20.2152 35.2422C20.2607 35.3856 20.198 35.5411 20.0648 35.6125C19.1129 36.1262 18.136 36.3806 17.1531 36.3806ZM20.875 0.645929C19.8054 0.645929 18.6635 0.912271 17.4384 1.55493C9.6706 5.63513 11.3786 11.0075 11.4551 11.2343C11.4826 11.3168 11.4757 11.407 11.4345 11.4835C11.3932 11.56 11.3228 11.6167 11.2386 11.6382C11.2085 11.6468 8.09144 12.5661 6.75028 18.3912C5.81808 22.4439 8.81486 30.8784 13.2757 34.2825C15.0318 35.6219 16.7923 36.0515 18.5235 35.5686C16.7244 35.1227 15.5473 33.401 15.0026 31.6998C14.384 29.7692 14.396 27.3515 15.6375 26.6736C16.1539 26.3927 16.6823 26.342 17.2081 26.5224C18.441 26.946 19.2658 28.5406 19.4669 28.9642C19.5562 28.9994 19.6963 29.0175 19.826 28.8748C20.0992 28.4169 20.9128 22.2197 19.1438 18.0209C19.0983 17.9118 19.1172 17.7872 19.1936 17.697C19.2701 17.6068 19.3913 17.5673 19.5047 17.5939C19.6378 17.6257 32.8356 20.6784 38.33 17.5785C39.2682 17.0484 39.9297 16.3636 40.2957 15.5422C41.9282 11.8882 40.4315 8.82781 38.6539 7.31653C37.0266 5.93412 35.017 5.60936 33.6509 6.50805C32.0125 7.58889 30.2778 6.11541 28.2682 4.4091C26.2346 2.68302 23.834 0.645929 20.875 0.645929Z" fill="white"/>
<path d="M31.2297 27.0101C31.7288 26.9606 32.081 26.3921 32.0162 25.7405C31.9515 25.0889 31.4944 24.6009 30.9953 24.6504C30.4962 24.7 30.1441 25.2685 30.2088 25.9201C30.2736 26.5717 30.7306 27.0597 31.2297 27.0101Z" fill="white"/>
<path d="M37.1202 25.6996C37.6193 25.65 37.9714 25.0816 37.9067 24.43C37.8419 23.7783 37.3849 23.2903 36.8858 23.3399C36.3867 23.3895 36.0346 23.9579 36.0993 24.6095C36.164 25.2611 36.6211 25.7492 37.1202 25.6996Z" fill="white"/>
<path d="M31.7865 22.3094C31.7865 22.3094 30.1524 21.4606 28.4606 23.1935L31.7865 22.3094Z" fill="#1A1A1A"/>
<path d="M28.4607 23.5069C28.3816 23.5069 28.3026 23.4769 28.2416 23.4176C28.1178 23.2964 28.1153 23.098 28.2364 22.9742C30.069 21.0961 31.8561 21.9913 31.9308 22.03C32.0846 22.1099 32.1439 22.2989 32.0649 22.4527C31.985 22.6057 31.7968 22.6667 31.6439 22.5868C31.582 22.5558 30.1816 21.8771 28.6858 23.4116C28.6239 23.476 28.5423 23.5069 28.4607 23.5069Z" fill="white"/>
<path d="M38.4004 21.5106C38.4004 21.5106 36.7663 20.6618 35.0746 22.3947L38.4004 21.5106Z" fill="#1A1A1A"/>
<path d="M35.0746 22.7081C34.9955 22.7081 34.9165 22.678 34.8555 22.6187C34.7317 22.4976 34.7292 22.2991 34.8503 22.1754C36.6838 20.2973 38.47 21.1925 38.5447 21.2312C38.6985 21.3111 38.7578 21.5001 38.6788 21.6539C38.5989 21.8068 38.4107 21.8678 38.2569 21.7879C38.1908 21.7553 36.7929 21.0825 35.2988 22.6127C35.2369 22.6763 35.1553 22.7081 35.0746 22.7081Z" fill="white"/>
<path d="M34.8142 26.0391C35.3435 27.7737 35.8727 29.5084 36.402 31.2439C36.4887 31.5292 36.5772 31.829 36.5214 32.122C36.4484 32.5026 36.1391 32.8042 35.7885 32.9683C35.4371 33.1324 35.0453 33.1822 34.6604 33.2303" fill="#1A1A1A"/>
<path d="M34.6604 33.5445C34.5041 33.5445 34.3692 33.4285 34.3494 33.2696C34.3279 33.0977 34.4499 32.9414 34.6218 32.9199C34.9775 32.8752 35.3452 32.8297 35.6553 32.6853C35.9535 32.5461 36.1674 32.3073 36.2138 32.0641C36.2568 31.8408 36.1751 31.5727 36.103 31.3364L34.5152 26.1316C34.4645 25.9658 34.5582 25.7913 34.7231 25.7407C34.889 25.6891 35.0634 25.7836 35.1141 25.9486L36.7018 31.1534C36.7903 31.4447 36.9011 31.8064 36.829 32.1819C36.7439 32.626 36.4045 33.0264 35.9208 33.2532C35.5213 33.4405 35.0849 33.4947 34.6991 33.5428C34.6862 33.5436 34.6733 33.5445 34.6604 33.5445Z" fill="white"/>
<path d="M31.704 35.8906C32.8862 36.6415 34.3898 36.8658 35.7404 36.4938L31.704 35.8906Z" fill="#1A1A1A"/>
<path d="M34.4267 36.9824C33.4112 36.9824 32.3922 36.698 31.5356 36.155C31.3896 36.0622 31.3457 35.8689 31.4385 35.722C31.5313 35.5759 31.7255 35.5321 31.8716 35.6249C32.9782 36.3277 34.3924 36.539 35.6571 36.1911C35.8229 36.1447 35.9964 36.2435 36.042 36.4102C36.0875 36.5768 35.9896 36.7495 35.8229 36.7951C35.3701 36.9214 34.8984 36.9824 34.4267 36.9824Z" fill="white"/>
<path d="M15.4399 84.229C15.4399 84.229 20.5288 84.2376 24.5652 78.8317C28.8447 73.101 29.1403 66.8368 27.8 65.4011C24.9613 62.3605 18.6111 68.312 18.1635 68.9117C17.7159 69.5114 14.1726 71.747 14.1632 72.0245C14.1537 72.3011 13.353 76.566 13.3693 76.7224C13.3856 76.8788 15.4399 84.229 15.4399 84.229Z" fill="white"/>
<path d="M15.4408 84.5412C15.4399 84.5412 15.4391 84.5412 15.4391 84.5412C15.2982 84.5412 15.1753 84.4475 15.1375 84.3118C14.3677 81.5573 13.0755 76.9126 13.0583 76.7545C13.0471 76.6531 13.0841 76.4117 13.4647 74.2681C13.6322 73.3256 13.841 72.1519 13.8496 72.011C13.8582 71.7541 14.0756 71.5677 15.7853 70.3554C16.6445 69.7463 17.715 68.9876 17.9118 68.7238C18.1686 68.3802 22.2025 64.4151 25.5051 64.233C26.537 64.1763 27.3858 64.4967 28.0293 65.1866C29.4229 66.6799 29.2614 73.0661 24.8161 79.0184C20.7444 84.4716 15.6839 84.5412 15.4408 84.5412ZM13.6846 76.7021C13.7637 77.038 14.8858 81.0787 15.6736 83.902C16.702 83.8186 20.9103 83.2009 24.3134 78.6438C28.4976 73.0412 28.8052 66.9376 27.5706 65.6145C27.0525 65.0595 26.3909 64.8138 25.5395 64.8593C22.5135 65.026 18.6472 68.7874 18.4152 69.0984C18.1772 69.4181 17.3636 70.0057 16.1487 70.8666C15.5155 71.316 14.6607 71.9217 14.4682 72.1244C14.4364 72.3796 14.3161 73.0669 14.0824 74.378C13.9149 75.3206 13.7078 76.4847 13.6846 76.7021Z" fill="white"/>
<path d="M87.819 71.487C86.55 74.104 75.1042 78.0716 75.1042 78.0716C75.1042 78.0716 52.3044 97.9004 40.5389 96.86C28.7768 95.8195 9.49016 76.8714 9.49016 76.8714L19.4127 61.75L43.3973 80.0838L69.9019 65.404C69.9019 65.404 73.6066 55.5227 76.1292 56.9231C78.5769 58.2832 76.8723 61.2482 76.7684 61.4269C77.0502 61.1322 86.6377 51.0937 87.8534 53.1402C89.0691 55.1868 82.4535 62.329 82.2628 62.5361C82.4569 62.3634 85.5723 62.4425 85.1273 65.2253C85.1273 65.2253 88.3895 66.1653 86.3464 68.9739C86.3456 68.9739 88.9471 69.1646 87.819 71.487Z" fill="#1A1A1A"/>
<path d="M41.4685 97.2133C41.142 97.2133 40.8241 97.1995 40.5114 97.172C28.7725 96.1333 10.0615 77.8716 9.27022 77.0941C9.16368 76.9893 9.14564 76.8234 9.22812 76.6989L19.1507 61.5775C19.1988 61.5044 19.2744 61.4555 19.3603 61.4409C19.4462 61.4263 19.5339 61.4477 19.6035 61.5001L43.4257 79.7103L69.6502 65.1851C70.0265 64.2031 72.6882 57.4517 75.0681 56.5762C75.5003 56.4173 75.9084 56.4413 76.2812 56.6493C76.9944 57.0453 77.4549 57.6047 77.6508 58.3109C77.8183 58.9166 77.7642 59.5447 77.6336 60.0894C80.1088 57.5858 85.3343 52.5527 87.3336 52.5527C87.3749 52.5527 87.4152 52.5545 87.4539 52.5587C87.7477 52.5923 87.9797 52.7375 88.1232 52.9797C89.2573 54.888 84.7845 60.1968 82.9991 62.1918C83.4055 62.2416 83.8677 62.3705 84.2466 62.5784C84.8876 62.9298 85.5981 63.6343 85.4701 65.0133C85.9375 65.1989 86.904 65.6852 87.2271 66.6259C87.447 67.2669 87.3267 67.98 86.8697 68.749C87.3018 68.8615 87.9032 69.1107 88.2151 69.6528C88.5184 70.1795 88.4806 70.8428 88.1017 71.622C86.8241 74.2554 76.246 78.0031 75.2648 78.3459C73.8541 79.5694 53.2752 97.2116 41.4685 97.2133ZM9.89484 76.8269C11.901 78.7592 29.6583 95.5834 40.5672 96.5483C40.8585 96.5741 41.1583 96.587 41.4633 96.587C53.1979 96.5887 74.678 78.028 74.8988 77.8356C74.9289 77.8089 74.9641 77.7892 75.0019 77.7763C78.1516 76.6843 86.5423 73.4022 87.5372 71.3514C87.819 70.7706 87.8646 70.3058 87.6721 69.9698C87.3293 69.3719 86.3318 69.2877 86.3224 69.2868C86.209 69.2782 86.1093 69.2086 86.062 69.1055C86.0148 69.0024 86.026 68.8813 86.093 68.7893C86.6385 68.0393 86.8207 67.3812 86.6342 66.833C86.3198 65.9103 85.0525 65.5305 85.0396 65.5262C84.8876 65.4824 84.7922 65.332 84.8171 65.1757C84.9425 64.3887 84.7655 63.7804 84.2904 63.3671C83.6392 62.8018 82.6391 62.7554 82.4166 62.8087C82.2946 62.8774 82.1391 62.8585 82.0377 62.7554C81.9208 62.636 81.9174 62.4461 82.0317 62.3232C84.7037 59.4338 88.3852 54.6491 87.5836 53.3002C87.5518 53.2469 87.5063 53.1963 87.3826 53.1816C87.3577 53.1791 87.331 53.1774 87.3035 53.1774C85.7837 53.1774 80.9311 57.5265 76.9986 61.6385C76.8887 61.7536 76.7082 61.7691 76.5828 61.6745C76.4557 61.5792 76.4178 61.4065 76.4977 61.269C76.5897 61.1101 77.3818 59.6856 77.0468 58.4767C76.8981 57.938 76.5381 57.5076 75.9771 57.1957C75.7675 57.0797 75.5406 57.0685 75.2846 57.163C73.4211 57.8487 70.9793 63.4221 70.1957 65.5116C70.1691 65.5821 70.1193 65.6396 70.054 65.6757L43.5494 80.3555C43.4403 80.4156 43.3063 80.4053 43.2075 80.3306L19.4901 62.2012L9.89484 76.8269ZM82.4707 62.7709L82.4698 62.7717C82.4698 62.7717 82.4698 62.7717 82.4707 62.7709Z" fill="white"/>
<path d="M3.91672 55.2383C3.91672 55.2383 0.525571 59.4439 1.75247 65.8748C3.45792 74.8162 15.4399 84.2293 15.4399 84.2293C15.4399 84.2293 14.4536 69.2075 27.8008 65.4014L16.5027 56.735" fill="#1A1A1A"/>
<path d="M13.4338 82.1627V82.1652C15.6161 84.143 15.4408 84.2307 15.4408 84.2307C15.4408 84.2307 14.4527 69.2072 27.8 65.4028L25.4029 63.4121C13.8333 66.9863 12.9681 78.7629 13.4338 82.1627Z" fill="#01FFE3"/>
<path d="M15.4399 84.5421C15.3712 84.5421 15.3025 84.5198 15.2466 84.4751C14.7535 84.0876 3.15293 74.8868 1.44576 65.9333C0.206832 59.4346 3.53182 55.2178 3.67445 55.0408C3.7827 54.9059 3.97945 54.8844 4.1152 54.9935C4.25009 55.1018 4.27157 55.2994 4.16331 55.4343C4.13066 55.4755 0.879562 59.6133 2.06264 65.8156C3.52409 73.4803 12.8057 81.6295 15.116 83.5566C15.1298 80.5796 15.9099 68.864 27.1272 65.2778L16.3137 56.9825C16.1762 56.8768 16.1505 56.6801 16.2561 56.5435C16.361 56.406 16.5577 56.3802 16.6952 56.4859L27.9933 65.1523C28.0869 65.2245 28.1325 65.3439 28.1101 65.4599C28.0878 65.5759 28.0019 65.6704 27.8885 65.7022C14.945 69.3932 15.7449 84.0601 15.7544 84.2079C15.7621 84.3316 15.6968 84.4476 15.5877 84.506C15.5396 84.5301 15.4898 84.5421 15.4399 84.5421Z" fill="white"/>
<path d="M80.8254 68.0252C80.7171 68.0252 80.6114 67.9693 80.5539 67.8688C80.4671 67.7193 80.5187 67.5268 80.669 67.4409L84.9709 64.9562C85.1204 64.8694 85.312 64.921 85.3988 65.0713C85.4855 65.2208 85.434 65.4133 85.2836 65.4992L80.9818 67.9839C80.9328 68.0123 80.8787 68.0252 80.8254 68.0252Z" fill="white"/>
<path d="M78.5048 64.7833C78.3905 64.7833 78.2814 64.7214 78.2255 64.6131C78.1465 64.4593 78.2075 64.2703 78.3604 64.1904L82.1176 62.2573C82.2722 62.1782 82.4604 62.2392 82.5403 62.3922C82.6193 62.546 82.5583 62.735 82.4054 62.8149L78.6482 64.748C78.6027 64.7721 78.5537 64.7833 78.5048 64.7833Z" fill="white"/>
<path d="M95.0833 33.754C94.8428 33.754 94.6022 33.662 94.4183 33.4782L91.7154 30.7752C91.3485 30.4084 91.3485 29.813 91.7154 29.4461C92.0822 29.0792 92.6776 29.0792 93.0445 29.4461L95.0825 31.484L102.016 24.5505C102.383 24.1837 102.978 24.1837 103.345 24.5505C103.712 24.9174 103.712 25.5128 103.345 25.8797L95.7466 33.4773C95.5645 33.662 95.3239 33.754 95.0833 33.754Z" fill="#1A1A1A"/>
<path d="M122.077 90.3298C129.281 90.3298 135.122 84.4895 135.122 77.285C135.122 70.0806 129.281 64.2402 122.077 64.2402C114.872 64.2402 109.032 70.0806 109.032 77.285C109.032 84.4895 114.872 90.3298 122.077 90.3298Z" fill="#FFD600"/>
<path d="M120.447 88.2324C113.081 88.2324 107.089 82.2397 107.089 74.874C107.089 67.5083 113.081 61.5156 120.447 61.5156C127.813 61.5156 133.805 67.5083 133.805 74.874C133.805 82.2397 127.813 88.2324 120.447 88.2324ZM120.447 62.1428C113.427 62.1428 107.716 67.8537 107.716 74.874C107.716 81.8943 113.427 87.6052 120.447 87.6052C127.467 87.6052 133.178 81.8943 133.178 74.874C133.179 67.8546 127.467 62.1428 120.447 62.1428Z" fill="white"/>
<path d="M124.865 76.3111C124.865 76.8016 124.777 77.2441 124.604 77.6376C124.429 78.0311 124.183 78.3705 123.863 78.6557C123.543 78.941 123.158 79.1695 122.707 79.3405C122.256 79.5115 121.757 79.6206 121.21 79.6661L121.03 81.4979C121.024 81.5434 121.011 81.5838 120.992 81.6181C120.972 81.6525 120.934 81.6809 120.881 81.7032C120.827 81.7264 120.752 81.7444 120.658 81.7591C120.565 81.7737 120.446 81.7805 120.303 81.7805C120.12 81.7805 119.974 81.7719 119.863 81.7548C119.751 81.7376 119.664 81.7135 119.602 81.6826C119.539 81.6508 119.498 81.6096 119.477 81.558C119.457 81.5065 119.453 81.4498 119.464 81.387L119.644 79.6498C119.398 79.6154 119.167 79.5716 118.95 79.5175C118.733 79.4634 118.536 79.4032 118.359 79.3379C118.182 79.2726 118.03 79.2056 117.901 79.1369C117.773 79.069 117.675 79.002 117.61 78.9358C117.545 78.8705 117.497 78.7734 117.469 78.6446C117.441 78.5165 117.426 78.3267 117.426 78.0758C117.426 77.8816 117.431 77.7218 117.443 77.5964C117.454 77.4709 117.474 77.3738 117.503 77.3051C117.532 77.2364 117.567 77.1891 117.61 77.1642C117.653 77.1384 117.703 77.1255 117.76 77.1255C117.834 77.1255 117.942 77.1685 118.085 77.2536C118.228 77.3395 118.411 77.4331 118.633 77.5362C118.856 77.6393 119.126 77.733 119.443 77.8189C119.759 77.904 120.132 77.9469 120.559 77.9469C121.227 77.9469 121.724 77.8232 122.048 77.5749C122.373 77.3266 122.536 76.9967 122.536 76.586C122.536 76.3119 122.466 76.0868 122.327 75.9098C122.188 75.7328 122 75.5773 121.767 75.4433C121.532 75.3093 121.268 75.189 120.974 75.0833C120.681 74.9776 120.38 74.8651 120.071 74.7456C119.763 74.6254 119.462 74.4862 119.168 74.3264C118.875 74.1666 118.611 73.9698 118.376 73.7361C118.142 73.5024 117.955 73.218 117.815 72.8847C117.675 72.5505 117.606 72.1475 117.606 71.6732C117.606 71.2454 117.677 70.8562 117.82 70.5048C117.962 70.1534 118.168 69.8467 118.436 69.5846C118.704 69.3226 119.033 69.1095 119.425 68.9471C119.815 68.7847 120.259 68.6747 120.755 68.6172L120.926 66.8971C120.932 66.8516 120.945 66.8129 120.965 66.7811C120.985 66.7502 121.022 66.721 121.077 66.6961C121.131 66.6703 121.203 66.6514 121.295 66.6402C121.386 66.6291 121.505 66.623 121.654 66.623C121.831 66.623 121.978 66.6316 122.095 66.6488C122.212 66.666 122.302 66.6901 122.365 66.721C122.427 66.7528 122.468 66.794 122.485 66.8456C122.502 66.8971 122.511 66.9538 122.511 67.0165L122.34 68.6344C122.499 68.6576 122.668 68.6885 122.845 68.7289C123.022 68.7693 123.188 68.8156 123.341 68.8698C123.496 68.9239 123.635 68.9815 123.761 69.0407C123.886 69.1 123.974 69.155 124.022 69.2031C124.07 69.2521 124.108 69.3002 124.134 69.3483C124.159 69.3973 124.179 69.4566 124.194 69.5279C124.208 69.5992 124.218 69.6851 124.224 69.7848C124.23 69.8845 124.232 69.9996 124.232 70.131C124.232 70.308 124.228 70.4532 124.22 70.5675C124.211 70.6818 124.195 70.7685 124.173 70.8287C124.15 70.8888 124.124 70.9283 124.096 70.949C124.067 70.9687 124.033 70.979 123.993 70.979C123.919 70.979 123.811 70.9421 123.668 70.8673C123.525 70.7935 123.35 70.7136 123.141 70.6276C122.933 70.5417 122.693 70.4627 122.422 70.3879C122.151 70.314 121.853 70.2771 121.528 70.2771C121.23 70.2771 120.977 70.3054 120.766 70.3621C120.554 70.4197 120.383 70.4996 120.252 70.6019C120.12 70.705 120.023 70.8278 119.961 70.9704C119.898 71.1131 119.867 71.2694 119.867 71.4413C119.867 71.7093 119.938 71.9344 120.081 72.1174C120.224 72.3004 120.413 72.4568 120.651 72.5883C120.887 72.7197 121.155 72.8391 121.455 72.9474C121.755 73.0557 122.06 73.1699 122.371 73.2902C122.682 73.4096 122.987 73.5488 123.286 73.7052C123.586 73.8624 123.853 74.0566 124.087 74.2877C124.321 74.5188 124.509 74.7981 124.653 75.1263C124.793 75.4536 124.865 75.8488 124.865 76.3111Z" fill="#1A1A1A"/>
<path d="M32.0443 16.9391C28.9032 16.9391 25.7715 16.3213 22.8632 15.1168C22.7034 15.0506 22.6278 14.8676 22.6939 14.707C22.7601 14.5472 22.9439 14.4716 23.1038 14.5377C26.6959 16.0249 30.6378 16.5928 34.5032 16.1813C35.4603 16.0791 36.4467 15.9047 37.1813 15.3196C37.9966 14.67 38.4528 13.5024 38.4013 12.1956C38.3532 10.9764 37.9184 9.79251 37.4983 8.6481C37.439 8.48571 37.5215 8.30529 37.6847 8.246C37.8471 8.18586 38.0275 8.27006 38.0868 8.43244C38.5241 9.62325 38.9761 10.8536 39.0276 12.1716C39.0869 13.6777 38.543 15.0377 37.5713 15.8101C36.7087 16.4966 35.5695 16.6977 34.5685 16.8042C33.73 16.8953 32.8871 16.9391 32.0443 16.9391Z" fill="#1A1A1A"/>
<path d="M8.72894 19.0832C8.57686 19.0832 8.44369 18.9724 8.41963 18.8177C8.10947 16.8072 9.09666 14.6473 10.821 13.5665C10.9233 13.5029 11.0298 13.4402 11.1363 13.3774C11.5822 13.1162 12.0041 12.8697 12.1587 12.4719C12.322 12.0526 12.1493 11.5697 11.9663 11.0585C11.8787 10.8145 11.7884 10.5619 11.73 10.3042C11.5419 9.46735 11.7189 8.50765 12.2155 7.67082C12.621 6.98778 13.2207 6.37605 14.0498 5.80041C16.0276 4.42831 18.5295 3.82259 20.9128 4.13877C21.0847 4.16111 21.205 4.3192 21.1826 4.49017C21.1603 4.66115 20.9996 4.78401 20.8312 4.75995C18.6017 4.46526 16.2587 5.03145 14.4081 6.31505C13.6546 6.83828 13.1141 7.38557 12.755 7.99043C12.3392 8.69151 12.1888 9.48453 12.3417 10.1659C12.3916 10.3858 12.4715 10.61 12.5565 10.8463C12.7602 11.4159 12.9921 12.0612 12.743 12.6987C12.5084 13.3001 11.9482 13.6283 11.4534 13.9179C11.352 13.9771 11.2515 14.0364 11.1535 14.0974C9.63536 15.0485 8.76588 16.9507 9.0391 18.7215C9.06573 18.8925 8.94803 19.0523 8.77705 19.0789C8.76073 19.0815 8.74526 19.0832 8.72894 19.0832Z" fill="#1A1A1A"/>
<path d="M18.5983 25.7546C18.502 25.7546 18.4075 25.7108 18.3457 25.6274C18.2426 25.4882 18.2718 25.2923 18.411 25.1892C18.6704 24.9976 18.6756 24.5397 18.6464 24.117L18.4006 20.5042C18.3886 20.3315 18.5192 20.182 18.6919 20.17C18.8689 20.1674 19.0141 20.2894 19.0261 20.4612L19.2718 24.074C19.2985 24.4624 19.3535 25.2709 18.783 25.6927C18.728 25.7348 18.6627 25.7546 18.5983 25.7546Z" fill="#1A1A1A"/>
<path d="M30.4995 14.3062C28.9452 14.3062 27.3901 14.2022 25.8522 13.9952C25.6812 13.972 25.561 13.8139 25.5833 13.6429C25.6065 13.4719 25.7603 13.3525 25.9356 13.374C28.2622 13.6876 30.6292 13.7606 32.9704 13.5905C33.8451 13.5269 34.8366 13.4118 35.5351 12.8439C36.3229 12.2038 36.579 10.9529 36.1064 10.055C36.0257 9.90209 36.0849 9.71222 36.2379 9.63146C36.3908 9.55155 36.5807 9.60998 36.6614 9.76291C37.2758 10.9314 36.9553 12.4985 35.9312 13.3302C35.0917 14.0124 33.986 14.1447 33.016 14.2151C32.18 14.2761 31.3397 14.3062 30.4995 14.3062Z" fill="#1A1A1A"/>
<path d="M106 30.879C106 25.8607 101.952 21.7581 96.9998 21.7581C95.2521 21.7581 93.5624 22.2597 92.1357 23.2041L92.5726 21.0489C92.6602 20.5761 92.3689 20.1045 91.9024 20.0157C91.4359 19.9269 90.9706 20.2221 90.8829 20.6949L89.9511 25.3005C89.8635 25.7733 90.1547 26.2449 90.6212 26.3337L95.1658 27.2781C95.6323 27.3669 96.0977 27.0717 96.1853 26.5989C96.1853 26.5401 96.2149 26.4813 96.2149 26.4213C96.2149 26.0085 95.9236 25.6534 95.5163 25.5657L92.6911 24.9754C93.9438 24.031 95.4287 23.5294 97.0023 23.5294C100.993 23.5294 104.255 26.8352 104.255 30.8791C104.255 34.923 100.993 38.2288 97.0023 38.2288C93.0097 38.2288 89.7477 34.923 89.7477 30.8791C89.7477 30.3775 89.3688 29.9935 88.8738 29.9935C88.3789 29.9935 88 30.3775 88 30.8791C88 35.8974 92.0482 40 97 40C101.952 40 106 35.8973 106 30.879Z" fill="#01FFE3"/>
</svg>
