<svg width="98" height="98" viewBox="0 0 98 98" fill="none" xmlns="http://www.w3.org/2000/svg">
<path d="M48.5428 90.6859C63.3984 90.6859 75.4436 78.6407 75.4436 63.7797C75.4436 48.9241 63.3984 36.8789 48.5428 36.8789C33.6816 36.8789 21.6366 48.9241 21.6366 63.7797C21.6366 78.6407 33.6818 90.6859 48.5428 90.6859Z" fill="#0166FF" stroke="white" stroke-width="1.2" stroke-miterlimit="10" stroke-linecap="round" stroke-linejoin="round"/>
<path d="M21.9078 67.6111H12.2718C6.5748 67.6111 1.91406 62.9503 1.91406 57.2478C1.91406 51.5508 6.5748 46.89 12.2718 46.89H12.3587C11.762 45.3765 11.4564 43.7639 11.458 42.137C11.458 34.9805 17.2635 29.175 24.42 29.175C25.0493 29.175 25.668 29.2238 26.2757 29.3107C28.4242 25.1219 32.7866 22.2572 37.8161 22.2572C38.8395 22.257 39.8593 22.3772 40.8545 22.6153C45.4502 9.87032 57.7501 6.15359 66.3175 7.61306C74.8793 9.06718 83.1915 18.7412 79.7408 30.819C88.7802 32.2134 95.2855 40.3736 96.0126 48.6425C96.8318 57.915 90.7551 67.6109 79.9362 67.6109H75.1725" stroke="#616A7F" stroke-width="1.2" stroke-miterlimit="10" stroke-linecap="round" stroke-linejoin="round"/>
<path d="M36.5954 71.2849C39.0911 75.251 43.5078 77.888 48.5427 77.888C56.3286 77.888 62.6442 71.5724 62.6442 63.7812M60.4848 56.2828C57.989 52.3167 53.5723 49.6797 48.5427 49.6797C40.7514 49.6797 34.4359 55.9953 34.4359 63.7812" stroke="white" stroke-width="1.2" stroke-miterlimit="10" stroke-linecap="round" stroke-linejoin="round"/>
<path d="M58.065 67.215L62.6442 63.7806L66.0732 68.3598M39.0151 60.3515L34.4359 63.7806L31.0068 59.2012" stroke="white" stroke-width="1.2" stroke-miterlimit="10" stroke-linecap="round" stroke-linejoin="round"/>
</svg>
