<svg width="151" height="151" viewBox="0 0 151 151" fill="none" xmlns="http://www.w3.org/2000/svg">
<path d="M121.319 12.664L120.766 18.3544C120.678 19.2641 121.391 20.0552 122.311 20.0552C123.101 20.0552 123.776 19.4553 123.853 18.6533L124.406 12.963C124.489 12.1105 123.865 11.351 123.012 11.2702C122.168 11.1591 121.4 11.8095 121.319 12.664ZM126.121 22.9115C126.735 23.5171 127.716 23.5057 128.315 22.8994C130.527 20.6612 132.135 17.8716 132.963 14.8355C133.189 14.0093 132.7 13.1569 131.874 12.9306C131.03 12.7064 130.193 13.1932 129.969 14.0194C129.28 16.5424 127.945 18.8594 126.109 20.7178C125.507 21.3278 125.511 22.3096 126.121 22.9115ZM142.317 21.2268C141.944 20.4592 141.019 20.1401 140.243 20.5097L131.411 24.8063C130.642 25.182 130.321 26.1112 130.694 26.8809C131.067 27.6452 131.99 27.9727 132.769 27.598L141.6 23.3014C142.37 22.9257 142.691 21.9965 142.317 21.2268ZM115.992 81.9742L115.964 82.1812C113.838 82.9716 112.65 85.6531 113.481 87.7635C114.312 89.8739 116.995 91.0274 119.103 90.1911C121.211 89.3543 122.375 86.6899 121.568 84.5704C120.762 82.4504 118.135 81.2328 115.992 81.9742Z" fill="#FFD600"/>
<path d="M138.828 133.698C139.493 132.213 138.643 130.4 137.325 129.445C136.546 128.882 135.642 128.557 134.706 128.318C135.726 125.83 135.358 129.665 135.698 50.0963C135.734 42.2361 134.113 36.2205 126.002 35.0594C125.231 34.6998 124.433 34.3887 123.617 34.115C123.761 31.0933 123.57 29.0089 123.61 26.7571C123.675 23.0379 120.603 20.1133 116.999 20.1133C116.993 20.1133 116.986 20.1133 116.98 20.1133L36.6728 20.3658C29.1115 20.389 21.2741 20.7082 15.9611 26.1935C12.9637 28.2773 10.8403 32.2419 9.82061 35.8507C8.03419 42.1722 8.49784 39.8963 8.87878 127.133C8.91718 135.953 11.1662 139.188 21.4089 139.375C59.0067 140.059 96.7184 140.209 134.089 136.024C135.924 135.818 138.073 135.383 138.828 133.698ZM21.0015 26.1592C25.692 23.5049 31.5298 23.4847 36.6808 23.4685L116.988 23.216H116.999C118.952 23.216 120.541 24.7941 120.507 26.7026C120.473 28.7169 120.613 30.8261 120.552 33.2807C114.037 31.8807 115.505 32.2695 28.5042 32.0192C27.3626 32.0162 18.0702 32.8894 14.8637 34.7432C15.4471 31.3769 17.7604 27.9964 21.0015 26.1592ZM132.409 94.3094L121.529 94.4114C114.352 94.4667 105.3 93.0952 106.109 85.9556C106.61 81.5183 111.485 79.6538 115.91 78.932C121.354 78.0432 127.068 78.2593 132.433 79.5562C132.446 79.5592 132.458 79.5552 132.471 79.5577L132.409 94.3094ZM132.484 76.4136C126.916 75.1576 121.032 74.9531 115.409 75.8697C109.464 76.8425 103.698 79.6202 103.026 85.6082C101.988 94.788 112.281 97.5847 121.558 97.5141L132.396 97.4126C132.212 125.595 132.682 126.404 131.361 127.944C130.432 129.03 126.794 130.196 124.652 130.307C88.8135 132.155 54.9055 134.08 19.5188 131.996C17.7937 131.895 16.4403 130.442 16.4343 128.689C16.3805 108.468 14.2188 40.1176 14.691 39.3761C17.3222 39.3761 28.9417 38.8257 66.979 38.7681C84.4399 38.7456 102.652 38.7129 120.342 37.9864C135.481 37.3927 132.424 42.8199 132.484 76.4136Z" fill="white"/>
<g clip-path="url(#clip0_13847_32107)">
<path d="M75.7017 89.513C75.0643 91.3205 74.0961 92.973 72.8241 94.4244C70.1732 97.4492 66.5031 99.2606 62.4897 99.5249C62.1516 99.5471 61.8142 99.5582 61.4785 99.5582C57.8289 99.5582 54.3455 98.2515 51.5754 95.824C51.4522 95.7155 51.3307 95.6051 51.211 95.4927V98.0287C51.211 98.9434 50.4695 99.6849 49.5547 99.6849C48.6399 99.6849 47.8985 98.9434 47.8985 98.0287V90.5814C47.8985 89.6667 48.6399 88.9252 49.5547 88.9252H57.0018C57.9166 88.9252 58.6581 89.6667 58.6581 90.5814C58.6581 91.4962 57.9166 92.2377 57.0018 92.2377H52.6649C53.0053 92.6262 53.3706 92.992 53.7587 93.3328C56.1181 95.4005 59.1402 96.4256 62.2719 96.2196C65.4023 96.0134 68.2651 94.6005 70.3328 92.2411C71.3258 91.1081 72.0812 89.8195 72.5778 88.4112C72.8821 87.5486 73.8281 87.0958 74.6906 87.4001C75.5533 87.7043 76.0061 88.6504 75.7017 89.513ZM48.8603 81.6945C49.5431 81.6945 50.1823 81.2692 50.4223 80.5887C50.919 79.1803 51.6743 77.8917 52.6673 76.7588C54.735 74.3994 57.5978 72.9865 60.7282 72.7802C63.859 72.5736 66.8819 73.5992 69.2413 75.667C69.6293 76.0079 69.9947 76.3737 70.3351 76.7621H65.9982C65.0834 76.7621 64.3419 77.5036 64.3419 78.4184C64.3419 79.3331 65.0834 80.0746 65.9982 80.0746H73.4453C74.3601 80.0746 75.1015 79.3331 75.1015 78.4184V70.9712C75.1015 70.0565 74.3601 69.315 73.4453 69.315C72.5305 69.315 71.789 70.0565 71.789 70.9712V73.5072C71.6693 73.3948 71.5477 73.2844 71.4245 73.1759C68.3996 70.525 64.5242 69.2115 60.5103 69.4749C56.4969 69.7394 52.8268 71.5508 50.176 74.5754C48.904 76.0268 47.9357 77.6793 47.2983 79.4869C46.994 80.3495 47.4468 81.2956 48.3094 81.5997C48.4916 81.6641 48.6775 81.6945 48.8603 81.6945ZM88 84.5C88 99.1122 76.1122 111 61.5 111C46.8878 111 35 99.1122 35 84.5C35 69.8878 46.8878 58 61.5 58C76.1122 58 88 69.8878 88 84.5ZM84.6875 84.5C84.6875 71.7144 74.2856 61.3125 61.5 61.3125C48.7144 61.3125 38.3125 71.7144 38.3125 84.5C38.3125 97.2856 48.7144 107.688 61.5 107.688C74.2856 107.688 84.6875 97.2856 84.6875 84.5Z" fill="#FFD600"/>
</g>
<defs>
<clipPath id="clip0_13847_32107">
<rect width="53" height="53" fill="white" transform="translate(35 58)"/>
</clipPath>
</defs>
</svg>
