<svg width="240" height="245" viewBox="0 0 240 245" fill="none" xmlns="http://www.w3.org/2000/svg">
<g clip-path="url(#clip0_13052_26785)">
<path d="M232.801 68.0978C220.474 47.5405 195.079 37.801 171.943 43.9853C171.898 43.998 171.857 43.998 171.815 44.0075C164.703 46.5827 158.761 51.5809 156.205 59.4683C155.645 61.1999 152.894 60.4609 153.46 58.7135C156.202 50.2584 162.353 44.7591 169.809 41.7875C161.656 16.2384 136.844 -1.86101 109.584 0.152858C82.7572 2.13501 60.9607 22.4195 55.7743 48.438C58.0284 48.9708 60.2412 49.7098 62.3871 50.6834C70.9197 54.5525 77.5389 61.2253 82.2542 69.2173C83.187 70.7967 80.7259 72.2238 79.7962 70.6476C78.2457 68.0185 76.4405 65.5352 74.3965 63.2645C66.803 54.838 55.9526 49.8176 44.5131 50.3282C32.9558 50.842 20.4975 56.9914 12.7162 65.4052C3.79832 75.0432 -1.00926 88.081 0.178308 101.217C1.34677 114.109 8.08056 126.132 18.5203 133.88C28.2023 141.066 39.4635 144.336 51.4315 144.79C59.2797 145.088 67.1342 145.199 74.9887 145.303C97.4346 145.608 119.881 145.693 142.33 145.754C152.19 145.779 162.054 145.795 171.914 145.801C180.014 145.808 188.54 146.451 196.522 144.92C222.619 139.912 242.372 116.082 239.771 89.2196C239.048 81.7698 236.654 74.5231 232.801 68.1009V68.0978Z" fill="#24262B"/>
<path d="M123.258 215.902C123.278 215.8 123.287 215.695 123.287 215.581C123.344 200.314 123.402 185.047 123.462 169.776C123.472 167.636 120.142 167.639 120.132 169.776C120.075 185.044 120.017 200.311 119.957 215.581C119.957 215.645 119.957 215.702 119.966 215.762C116.881 216.444 114.761 219.498 114.583 222.6C114.366 226.352 117.601 229.117 121.052 229.558C121.211 229.599 121.386 229.618 121.581 229.609C121.781 229.621 121.963 229.602 122.128 229.558C125.809 229.136 128.4 226.402 128.617 222.638C128.808 219.292 126.261 216.729 123.258 215.902ZM121.581 226.291C116.824 226.019 116.865 219.184 121.619 218.946C126.375 218.708 126.312 226.053 121.581 226.291Z" fill="#24262B"/>
<path d="M109.247 231.296C109.323 210.789 109.399 190.283 109.476 169.776C109.482 167.636 106.155 167.639 106.146 169.776C106.069 190.235 105.993 210.691 105.916 231.15C102.838 231.835 100.72 234.889 100.542 237.988C100.326 241.739 103.56 244.505 107.012 244.946C107.171 244.987 107.346 245.006 107.54 244.996C107.741 245.009 107.922 244.99 108.088 244.946C111.768 244.524 114.36 241.79 114.576 238.026C114.767 234.689 112.236 232.133 109.247 231.299V231.296ZM107.54 241.676C102.783 241.403 102.825 234.569 107.578 234.331C112.335 234.093 112.271 241.438 107.54 241.676Z" fill="#24262B"/>
<path d="M94.8365 169.116C94.7951 180.137 94.7506 191.158 94.7092 202.175C88.4402 202.153 82.1713 202.131 75.9023 202.112C74.9854 199.356 72.1104 197.494 69.1972 197.326C65.2365 197.101 62.3711 200.669 62.1609 204.297C61.9444 208.049 65.1792 210.814 68.6305 211.255C68.7896 211.296 68.9648 211.315 69.159 211.306C69.3596 211.318 69.541 211.299 69.7066 211.255C73.0178 210.878 75.4407 208.62 76.052 205.429C82.824 205.451 89.596 205.477 96.3648 205.499C97.2753 205.502 98.0267 204.741 98.0299 203.84C98.0745 192.264 98.1191 180.692 98.1636 169.116C98.1732 166.975 94.8429 166.979 94.8333 169.116H94.8365ZM69.1622 207.988C64.4055 207.716 64.4469 200.881 69.2004 200.643C73.957 200.405 73.8933 207.751 69.1622 207.988Z" fill="#24262B"/>
<path d="M151.547 196.613C148.041 196.413 145.392 199.188 144.686 202.347C141.744 202.337 138.799 202.328 135.857 202.315C135.898 191.469 135.943 180.623 135.984 169.776C135.994 167.636 132.664 167.639 132.654 169.776C132.609 181.174 132.565 192.569 132.52 203.968C132.517 204.875 133.281 205.623 134.185 205.626C137.71 205.639 141.231 205.652 144.756 205.661C145.568 208.328 148.204 210.187 150.98 210.539C151.139 210.58 151.314 210.599 151.509 210.589C151.709 210.602 151.891 210.583 152.056 210.539C155.737 210.117 158.328 207.383 158.545 203.619C158.771 199.673 155.189 196.819 151.547 196.61V196.613ZM151.509 207.275C146.752 207.003 146.793 200.168 151.547 199.93C156.303 199.692 156.24 207.037 151.509 207.275Z" fill="#24262B"/>
<g opacity="0.2">
<path d="M209.923 154.222L209.9 152.624C209.894 152.272 210.177 151.98 210.534 151.977C210.887 151.97 211.18 152.253 211.183 152.608L211.206 154.206C211.212 154.558 210.929 154.85 210.572 154.853C210.215 154.856 209.926 154.577 209.923 154.222Z" fill="#B3D1E2"/>
<path d="M210.407 188.629L210.359 185.188C210.352 184.836 210.636 184.544 210.992 184.541C211.346 184.534 211.639 184.817 211.642 185.172L211.69 188.613C211.696 188.965 211.413 189.257 211.056 189.26C210.703 189.266 210.41 188.984 210.407 188.629ZM210.311 181.747L210.263 178.306C210.257 177.954 210.54 177.662 210.897 177.659C211.253 177.655 211.543 177.935 211.546 178.29L211.594 181.731C211.6 182.083 211.317 182.375 210.96 182.378C210.607 182.384 210.314 182.102 210.311 181.747ZM210.212 174.865L210.165 171.424C210.158 171.072 210.442 170.78 210.798 170.777C211.155 170.773 211.444 171.053 211.448 171.408L211.495 174.849C211.502 175.201 211.218 175.493 210.862 175.496C210.505 175.499 210.215 175.22 210.212 174.865ZM210.117 167.986L210.069 164.545C210.063 164.193 210.346 163.901 210.703 163.898C211.056 163.891 211.349 164.174 211.352 164.529L211.4 167.97C211.406 168.322 211.123 168.614 210.766 168.617C210.413 168.623 210.12 168.341 210.117 167.986ZM210.018 161.104L209.97 157.663C209.964 157.311 210.247 157.019 210.604 157.016C210.957 157.009 211.25 157.292 211.253 157.647L211.301 161.088C211.308 161.44 211.024 161.732 210.668 161.735C210.314 161.741 210.021 161.459 210.018 161.104Z" fill="#B3D1E2"/>
<path d="M210.48 193.667L210.457 192.069C210.451 191.717 210.734 191.425 211.091 191.422C211.444 191.416 211.737 191.698 211.74 192.053L211.763 193.651C211.769 194.004 211.486 194.295 211.129 194.298C210.773 194.302 210.483 194.023 210.48 193.667Z" fill="#B3D1E2"/>
<path d="M201.514 154.339L201.492 152.741C201.485 152.389 201.769 152.097 202.125 152.094C202.479 152.088 202.771 152.37 202.775 152.725L202.797 154.323C202.803 154.675 202.52 154.967 202.163 154.97C201.81 154.977 201.517 154.694 201.514 154.339Z" fill="#B3D1E2"/>
<path d="M201.874 179.908L201.829 176.711C201.823 176.359 202.106 176.068 202.463 176.065C202.816 176.058 203.109 176.34 203.112 176.696L203.157 179.892C203.163 180.244 202.88 180.536 202.523 180.539C202.17 180.546 201.877 180.264 201.874 179.908ZM201.785 173.515L201.74 170.318C201.734 169.966 202.017 169.674 202.374 169.671C202.727 169.665 203.02 169.947 203.023 170.302L203.068 173.499C203.074 173.851 202.791 174.143 202.434 174.146C202.081 174.152 201.788 173.87 201.785 173.515ZM201.692 167.124L201.648 163.927C201.641 163.575 201.925 163.284 202.281 163.28C202.635 163.274 202.927 163.556 202.931 163.912L202.975 167.108C202.982 167.46 202.698 167.752 202.342 167.755C201.985 167.759 201.695 167.479 201.692 167.124ZM201.603 160.731L201.558 157.534C201.552 157.182 201.835 156.89 202.192 156.887C202.545 156.88 202.838 157.163 202.842 157.518L202.886 160.715C202.892 161.067 202.609 161.359 202.253 161.362C201.899 161.368 201.606 161.086 201.603 160.731Z" fill="#B3D1E2"/>
<path d="M201.94 184.699L201.918 183.1C201.912 182.748 202.195 182.456 202.552 182.453C202.905 182.447 203.198 182.729 203.201 183.084L203.223 184.683C203.23 185.035 202.946 185.327 202.59 185.33C202.236 185.336 201.944 185.054 201.94 184.699Z" fill="#B3D1E2"/>
<path d="M184.697 154.574L184.675 152.975C184.668 152.623 184.952 152.331 185.308 152.328C185.662 152.322 185.955 152.604 185.958 152.959L185.98 154.558C185.986 154.91 185.703 155.202 185.346 155.205C184.993 155.211 184.7 154.929 184.697 154.574Z" fill="#B3D1E2"/>
<path d="M185.057 180.143L185.012 176.947C185.006 176.595 185.289 176.303 185.646 176.3C186.002 176.296 186.292 176.576 186.295 176.931L186.34 180.128C186.346 180.48 186.063 180.771 185.706 180.775C185.353 180.781 185.06 180.499 185.057 180.143ZM184.968 173.753L184.923 170.556C184.917 170.204 185.2 169.912 185.557 169.909C185.91 169.903 186.203 170.185 186.206 170.54L186.251 173.737C186.257 174.089 185.974 174.381 185.617 174.384C185.264 174.39 184.971 174.108 184.968 173.753ZM184.878 167.359L184.834 164.163C184.828 163.81 185.111 163.519 185.467 163.516C185.821 163.509 186.114 163.791 186.117 164.147L186.162 167.343C186.168 167.696 185.885 167.987 185.528 167.99C185.175 167.997 184.882 167.715 184.878 167.359ZM184.786 160.969L184.742 157.772C184.735 157.42 185.019 157.128 185.375 157.125C185.729 157.119 186.021 157.401 186.025 157.756L186.069 160.953C186.076 161.305 185.792 161.597 185.436 161.6C185.082 161.606 184.789 161.324 184.786 160.969Z" fill="#B3D1E2"/>
<path d="M185.127 184.933L185.105 183.335C185.098 182.983 185.382 182.691 185.738 182.688C186.092 182.681 186.384 182.964 186.388 183.319L186.41 184.917C186.416 185.269 186.133 185.561 185.776 185.564C185.423 185.57 185.13 185.288 185.127 184.933Z" fill="#B3D1E2"/>
<path d="M193.105 154.456L193.083 152.858C193.077 152.506 193.36 152.214 193.717 152.211C194.07 152.205 194.363 152.487 194.366 152.842L194.388 154.441C194.395 154.793 194.111 155.084 193.755 155.088C193.401 155.094 193.109 154.812 193.105 154.456Z" fill="#B3D1E2"/>
<path d="M193.542 185.321L193.497 182.235C193.491 181.883 193.774 181.591 194.131 181.588C194.484 181.582 194.777 181.864 194.78 182.219L194.825 185.305C194.831 185.657 194.548 185.949 194.191 185.952C193.838 185.958 193.545 185.676 193.542 185.321ZM193.452 179.149L193.408 176.064C193.402 175.712 193.685 175.42 194.041 175.417C194.398 175.413 194.688 175.692 194.691 176.048L194.736 179.134C194.742 179.486 194.459 179.777 194.102 179.78C193.745 179.784 193.456 179.505 193.452 179.149ZM193.367 172.975L193.322 169.889C193.316 169.537 193.599 169.245 193.956 169.242C194.309 169.235 194.602 169.518 194.605 169.873L194.65 172.959C194.656 173.311 194.373 173.602 194.016 173.606C193.663 173.612 193.37 173.33 193.367 172.975ZM193.281 166.803L193.236 163.717C193.23 163.365 193.513 163.073 193.87 163.07C194.223 163.064 194.516 163.346 194.519 163.701L194.564 166.787C194.57 167.139 194.287 167.431 193.93 167.434C193.577 167.44 193.284 167.158 193.281 166.803ZM193.191 160.631L193.147 157.546C193.14 157.193 193.424 156.902 193.78 156.899C194.134 156.892 194.427 157.174 194.43 157.53L194.474 160.615C194.481 160.967 194.197 161.259 193.841 161.262C193.488 161.269 193.195 160.987 193.191 160.631Z" fill="#B3D1E2"/>
<path d="M193.608 190.003L193.586 188.405C193.58 188.053 193.863 187.761 194.22 187.758C194.573 187.752 194.866 188.034 194.869 188.389L194.891 189.987C194.898 190.339 194.614 190.631 194.258 190.634C193.904 190.641 193.611 190.359 193.608 190.003Z" fill="#B3D1E2"/>
</g>
<g opacity="0.2">
<path d="M26.3811 154.222L26.4034 152.624C26.4097 152.272 26.1264 151.98 25.7698 151.977C25.4164 151.97 25.1235 152.253 25.1203 152.608L25.098 154.206C25.0916 154.558 25.375 154.85 25.7316 154.853C26.085 154.86 26.3779 154.577 26.3811 154.222Z" fill="#B3D1E2"/>
<path d="M25.2444 189.263C24.891 189.257 24.6077 188.968 24.6109 188.616L24.6586 185.175C24.665 184.823 24.9547 184.541 25.3081 184.544C25.6615 184.55 25.9449 184.839 25.9417 185.191L25.8939 188.632C25.8876 188.984 25.5979 189.266 25.2444 189.263ZM25.34 182.381C24.9866 182.374 24.7032 182.086 24.7064 181.734L24.7541 178.293C24.7605 177.941 25.0502 177.659 25.4036 177.662C25.757 177.665 26.0404 177.957 26.0372 178.309L25.9895 181.75C25.9831 182.102 25.6934 182.384 25.34 182.381ZM25.4387 175.499C25.0853 175.492 24.8019 175.204 24.8051 174.852L24.8528 171.411C24.8592 171.059 25.1489 170.777 25.5023 170.78C25.8557 170.783 26.1391 171.075 26.1359 171.427L26.0882 174.868C26.0818 175.22 25.7921 175.502 25.4387 175.499ZM25.5342 168.617C25.1808 168.61 24.8974 168.322 24.9006 167.97L24.9484 164.529C24.9547 164.177 25.2444 163.894 25.5979 163.898C25.9513 163.904 26.2346 164.193 26.2314 164.545L26.1837 167.986C26.1773 168.338 25.8876 168.62 25.5342 168.617ZM25.6329 161.735C25.2795 161.728 24.9961 161.44 24.9993 161.088L25.047 157.647C25.0534 157.295 25.3431 157.012 25.6965 157.016C26.05 157.022 26.3333 157.311 26.3301 157.663L26.2824 161.104C26.276 161.456 25.9863 161.738 25.6329 161.735Z" fill="#B3D1E2"/>
<path d="M25.824 193.667L25.8462 192.069C25.8526 191.717 25.5693 191.425 25.2127 191.422C24.8593 191.416 24.5663 191.698 24.5632 192.053L24.5409 193.651C24.5345 194.004 24.8179 194.295 25.1745 194.298C25.531 194.302 25.8208 194.023 25.824 193.667Z" fill="#B3D1E2"/>
<path d="M34.7898 154.339L34.8121 152.741C34.8184 152.389 34.5351 152.097 34.1785 152.094C33.8251 152.088 33.5322 152.37 33.529 152.725L33.5067 154.323C33.5003 154.675 33.7837 154.967 34.1403 154.97C34.4937 154.977 34.7866 154.694 34.7898 154.339Z" fill="#B3D1E2"/>
<path d="M33.7772 180.536C33.4238 180.53 33.1404 180.241 33.1436 179.889L33.1882 176.692C33.1945 176.34 33.4843 176.058 33.8377 176.061C34.1911 176.068 34.4744 176.356 34.4712 176.708L34.4267 179.905C34.4203 180.257 34.1306 180.539 33.7772 180.536ZM33.8663 174.146C33.5129 174.139 33.2295 173.851 33.2327 173.499L33.2773 170.302C33.2837 169.95 33.5734 169.668 33.9268 169.671C34.2802 169.674 34.5636 169.966 34.5604 170.318L34.5158 173.515C34.5094 173.867 34.2197 174.149 33.8663 174.146ZM33.9586 167.752C33.6052 167.746 33.3219 167.457 33.3251 167.105L33.3696 163.908C33.376 163.556 33.6657 163.274 34.0191 163.277C34.3725 163.284 34.6559 163.572 34.6527 163.924L34.6081 167.121C34.6018 167.473 34.312 167.755 33.9586 167.752ZM34.0478 161.362C33.6944 161.355 33.411 161.067 33.4142 160.715L33.4588 157.518C33.4651 157.166 33.7549 156.884 34.1083 156.887C34.4617 156.893 34.745 157.182 34.7419 157.534L34.6973 160.731C34.6909 161.083 34.4012 161.365 34.0478 161.362Z" fill="#B3D1E2"/>
<path d="M34.3598 184.699L34.3821 183.1C34.3885 182.748 34.1051 182.456 33.7486 182.453C33.3951 182.447 33.1022 182.729 33.0991 183.084L33.0768 184.683C33.0704 185.035 33.3538 185.327 33.7103 185.33C34.0638 185.336 34.3567 185.054 34.3598 184.699Z" fill="#B3D1E2"/>
<path d="M51.6033 154.574L51.6255 152.975C51.6319 152.623 51.3485 152.331 50.992 152.328C50.6386 152.322 50.3456 152.604 50.3425 152.959L50.3202 154.558C50.3138 154.91 50.5972 155.202 50.9538 155.205C51.3072 155.211 51.6001 154.929 51.6033 154.574Z" fill="#B3D1E2"/>
<path d="M50.5941 180.774C50.2407 180.767 49.9573 180.479 49.9605 180.127L50.005 176.93C50.0114 176.578 50.3011 176.296 50.6546 176.299C51.008 176.305 51.2913 176.594 51.2881 176.946L51.2436 180.143C51.2372 180.495 50.9475 180.777 50.5941 180.774ZM50.6832 174.38C50.3298 174.374 50.0464 174.085 50.0496 173.733L50.0942 170.536C50.1006 170.184 50.3903 169.902 50.7437 169.905C51.0971 169.912 51.3805 170.2 51.3773 170.552L51.3327 173.749C51.3263 174.101 51.0366 174.383 50.6832 174.38ZM50.7724 167.99C50.4189 167.983 50.1356 167.695 50.1388 167.343L50.1833 164.146C50.1897 163.794 50.4794 163.512 50.8328 163.515C51.1863 163.521 51.4696 163.81 51.4664 164.162L51.4219 167.359C51.4155 167.711 51.1258 167.993 50.7724 167.99ZM50.8647 161.596C50.5113 161.59 50.2279 161.301 50.2311 160.949L50.2757 157.752C50.282 157.4 50.5718 157.118 50.9252 157.121C51.2786 157.127 51.5619 157.416 51.5588 157.768L51.5142 160.965C51.5078 161.317 51.2181 161.599 50.8647 161.596Z" fill="#B3D1E2"/>
<path d="M51.1767 184.933L51.199 183.335C51.2054 182.983 50.922 182.691 50.5654 182.688C50.212 182.681 49.9191 182.964 49.9159 183.319L49.8937 184.917C49.8873 185.269 50.1706 185.561 50.5272 185.564C50.8806 185.57 51.1736 185.288 51.1767 184.933Z" fill="#B3D1E2"/>
<path d="M43.1948 154.456L43.2171 152.858C43.2235 152.506 42.9401 152.214 42.5835 152.211C42.2269 152.208 41.9372 152.487 41.934 152.842L41.9117 154.44C41.9054 154.793 42.1887 155.084 42.5453 155.087C42.8987 155.094 43.1916 154.812 43.1948 154.456Z" fill="#B3D1E2"/>
<path d="M42.1092 185.951C41.7558 185.945 41.4724 185.656 41.4756 185.304L41.5202 182.219C41.5266 181.866 41.8163 181.584 42.1697 181.587C42.5231 181.594 42.8065 181.882 42.8033 182.234L42.7587 185.32C42.7523 185.672 42.4626 185.954 42.1092 185.951ZM42.1983 179.776C41.8449 179.77 41.5616 179.482 41.5648 179.13L41.6093 176.044C41.6157 175.692 41.9054 175.409 42.2588 175.413C42.6122 175.416 42.8956 175.708 42.8924 176.06L42.8478 179.145C42.8415 179.497 42.5517 179.78 42.1983 179.776ZM42.2843 173.605C41.9309 173.599 41.6475 173.31 41.6507 172.958L41.6953 169.872C41.7017 169.52 41.9914 169.238 42.3448 169.241C42.6982 169.247 42.9816 169.536 42.9784 169.888L42.9338 172.974C42.9274 173.326 42.6377 173.608 42.2843 173.605ZM42.3703 167.433C42.0169 167.427 41.7335 167.138 41.7367 166.786L41.7813 163.7C41.7876 163.348 42.0774 163.066 42.4308 163.069C42.7842 163.076 43.0675 163.364 43.0643 163.716L43.0198 166.802C43.0134 167.154 42.7237 167.436 42.3703 167.433ZM42.4594 161.258C42.106 161.252 41.8226 160.964 41.8258 160.611L41.8704 157.526C41.8768 157.174 42.1665 156.891 42.5199 156.895C42.8733 156.901 43.1567 157.19 43.1535 157.542L43.1089 160.627C43.1025 160.979 42.8128 161.262 42.4594 161.258Z" fill="#B3D1E2"/>
<path d="M42.6951 190.003L42.7173 188.405C42.7237 188.053 42.4403 187.761 42.0838 187.758C41.7303 187.752 41.4374 188.034 41.4343 188.389L41.412 189.987C41.4056 190.339 41.689 190.631 42.0455 190.634C42.399 190.641 42.6919 190.359 42.6951 190.003Z" fill="#B3D1E2"/>
</g>
<path d="M107.556 241.622C109.64 241.622 111.329 239.939 111.329 237.864C111.329 235.788 109.64 234.105 107.556 234.105C105.472 234.105 103.783 235.788 103.783 237.864C103.783 239.939 105.472 241.622 107.556 241.622Z" fill="#01FFE3"/>
<path d="M152.953 206.842C154.878 206.048 155.793 203.849 154.995 201.932C154.198 200.014 151.991 199.103 150.066 199.898C148.141 200.692 147.226 202.89 148.024 204.808C148.821 206.726 151.028 207.636 152.953 206.842Z" fill="#FFD600"/>
<path d="M69.1495 208.122C71.2332 208.122 72.9224 206.439 72.9224 204.364C72.9224 202.288 71.2332 200.605 69.1495 200.605C67.0659 200.605 65.3767 202.288 65.3767 204.364C65.3767 206.439 67.0659 208.122 69.1495 208.122Z" fill="#EC5557"/>
<path d="M121.762 226.145C123.846 226.145 125.535 224.463 125.535 222.387C125.535 220.311 123.846 218.629 121.762 218.629C119.679 218.629 117.99 220.311 117.99 222.387C117.99 224.463 119.679 226.145 121.762 226.145Z" fill="#0166FF"/>
<path opacity="0.1" d="M151.869 175.203C170.083 157.059 170.083 127.644 151.869 109.501C133.655 91.3574 104.124 91.3574 85.9098 109.501C67.6958 127.644 67.6958 157.059 85.9098 175.203C104.124 193.346 133.655 193.346 151.869 175.203Z" fill="#272525"/>
<path d="M145.026 165.097C160.385 149.797 160.385 124.992 145.026 109.692C129.666 94.3929 104.764 94.3929 89.4049 109.692C74.0456 124.992 74.0456 149.797 89.4049 165.097C104.764 180.396 129.666 180.396 145.026 165.097Z" fill="#F9A140"/>
<path d="M115.41 90.3436C89.3222 91.3362 68.9839 113.206 69.9804 139.193C70.977 165.18 92.9326 185.439 119.021 184.447C145.109 183.454 165.447 161.584 164.451 135.597C163.454 109.61 141.499 89.3509 115.41 90.3436ZM118.715 176.543C97.0111 177.371 78.7423 160.512 77.9113 138.892C77.0804 117.272 94.0056 99.0745 115.71 98.2468C137.414 97.4191 155.683 114.278 156.514 135.898C157.345 157.518 140.419 175.716 118.715 176.543Z" fill="#FFD600"/>
<path d="M133.001 139.169C131.788 137.679 129.976 136.553 127.566 135.789C129.009 134.901 130.078 133.794 130.776 132.474C131.473 131.152 131.791 129.626 131.724 127.895C131.594 124.454 130.269 121.875 127.757 120.163C125.245 118.447 121.66 117.68 116.996 117.857L115.315 117.921C115.254 116.364 115.194 114.803 115.137 113.246C115.083 111.812 112.478 111.911 112.535 113.344C112.596 114.901 112.656 116.462 112.714 118.019L111.023 118.082C110.963 116.525 110.902 114.965 110.845 113.408C110.791 111.974 108.186 112.076 108.244 113.506C108.304 115.063 108.365 116.624 108.422 118.181L101.589 118.441C100.841 118.469 100.278 118.695 99.8957 119.116C99.5168 119.538 99.3385 120.131 99.3703 120.899C99.4053 121.796 99.6696 122.408 100.166 122.729C100.663 123.049 101.758 123.179 103.452 123.112L104.541 123.071L105.677 152.689L104.589 152.73C102.761 152.8 101.612 153.003 101.141 153.339C100.669 153.675 100.45 154.281 100.485 155.16C100.516 155.949 100.73 156.533 101.131 156.914C101.532 157.294 102.115 157.469 102.885 157.44L109.915 157.174C109.976 158.731 110.036 160.291 110.093 161.848C110.148 163.282 112.752 163.18 112.695 161.75C112.634 160.193 112.574 158.632 112.516 157.075L114.207 157.012C114.267 158.569 114.328 160.129 114.385 161.687C114.439 163.12 117.044 163.019 116.986 161.588C116.926 160.031 116.865 158.471 116.808 156.914L117.665 156.882L120.501 156.774C122.921 156.682 124.787 156.473 126.095 156.149C127.404 155.826 128.585 155.337 129.642 154.681C131.406 153.561 132.75 152.16 133.679 150.479C134.606 148.798 135.032 146.962 134.956 144.967C134.867 142.601 134.211 140.673 132.998 139.182L133.001 139.169ZM117.907 122.56C120.457 122.462 122.437 122.909 123.841 123.899C125.245 124.888 125.984 126.357 126.06 128.307C126.14 130.365 125.446 131.919 123.975 132.963C122.507 134.006 120.208 134.587 117.085 134.707L115.964 134.748C115.808 130.717 115.656 126.683 115.5 122.652L117.907 122.56ZM112.895 122.751C113.051 126.782 113.204 130.816 113.36 134.847L111.669 134.91C111.513 130.879 111.361 126.845 111.205 122.814L112.895 122.751ZM112.341 152.432C112.169 147.942 111.997 143.448 111.825 138.957L113.516 138.893C113.688 143.384 113.86 147.878 114.032 152.369L112.341 152.432ZM126.869 150.317C125.213 151.424 122.319 152.055 118.184 152.21L116.633 152.271C116.461 147.78 116.289 143.286 116.117 138.795L117.996 138.722C122.065 138.567 124.93 138.973 126.586 139.943C128.241 140.914 129.117 142.61 129.209 145.043C129.301 147.453 128.521 149.21 126.866 150.317H126.869Z" fill="#FFD600"/>
</g>
<defs>
<clipPath id="clip0_13052_26785">
<rect width="240" height="245" fill="white"/>
</clipPath>
</defs>
</svg>
