<svg width="98" height="82" viewBox="0 0 98 82" fill="none" xmlns="http://www.w3.org/2000/svg">
<path d="M19.1219 37.1227C9.12188 35.5227 9.28854 43.1227 10.6219 47.1227C0.221659 51.5227 0.288633 60.9561 1.62215 65.1227C8.02215 77.5227 18.6221 73.9561 23.1221 70.6227C35.5221 86.2227 50.6221 79.7894 56.6221 74.6227C64.2221 83.0227 71.9555 76.6227 75.1221 72.6227C85.6221 77.6227 93.4555 70.1227 95.1221 66.6227C100.722 56.2227 93.4555 47.9561 89.1221 45.1227C91.5221 22.3227 74.1221 20.2894 65.1221 22.1227C57.9221 10.1227 43.4555 10.456 37.1221 12.1227C23.1221 15.7227 19.2886 30.2894 19.1219 37.1227Z" stroke="white" stroke-width="1.2" stroke-linecap="round"/>
<path d="M52.6989 25.5916L52.7136 25.6386L52.7357 25.6826C54.215 28.6239 56.2456 29.7658 58.2413 29.8891C59.9109 29.9923 61.4685 29.3773 62.5447 28.6905C65.2751 31.979 68.3153 33.0056 71.0576 32.8647C73.5951 32.7343 75.8153 31.6087 77.2445 30.4922C78.0099 31.2482 78.7996 31.7181 79.5966 31.9482C80.5352 32.2194 81.4363 32.1442 82.2482 31.8774C83.6422 31.4193 84.7955 30.3911 85.5477 29.5129C87.847 30.4876 89.8864 30.1777 91.457 29.396C93.0844 28.5859 94.2194 27.265 94.6484 26.3517C95.9568 23.8493 95.7656 21.5704 94.9776 19.7559C94.2723 18.1319 93.0957 16.8893 92.1196 16.1596C92.552 11.0987 90.8798 8.1618 88.4321 6.64295C86.1543 5.22945 83.3363 5.13005 81.3032 5.47242C79.6346 2.85683 77.2246 1.56202 74.8868 1.0159C72.4595 0.448884 70.0877 0.681137 68.6226 1.07651C65.3665 1.93634 63.3013 4.10837 62.0521 6.43158C60.9681 8.44754 60.4833 10.6012 60.3514 12.1877C59.4905 12.1167 58.7713 12.2103 58.182 12.4532C57.4329 12.7618 56.9436 13.2914 56.6578 13.9108C56.2005 14.902 56.2728 16.0946 56.4888 17.0157C54.3643 18.0783 53.2458 19.6532 52.7434 21.2366C52.2131 22.908 52.3769 24.559 52.6989 25.5916Z" fill="#FFD600" stroke="white" stroke-width="1.2" stroke-linecap="round"/>
<path d="M33 55.9325C37.8333 61.2658 51 68.7325 65 55.9325" stroke="white" stroke-width="1.2" stroke-linecap="round"/>
<circle cx="61" cy="41" r="3" stroke="white" stroke-width="1.2" stroke-linecap="round"/>
<circle cx="37" cy="41" r="3" stroke="white" stroke-width="1.2" stroke-linecap="round"/>
<path d="M49 44V50.0836C49 51.0151 49.1639 52.0126 49.9108 52.5691C50.4318 52.9573 51.1386 53.2153 52 53" stroke="white" stroke-width="1.2" stroke-linecap="round"/>
</svg>
