<svg width="191" height="143" viewBox="0 0 191 143" fill="none" xmlns="http://www.w3.org/2000/svg">
<path d="M48.9658 47.2611C48.8611 47.2611 48.7573 47.2116 48.6935 47.1183C48.2851 46.5243 48.0281 45.8322 47.9529 45.1144C47.9357 44.9497 47.9253 44.7564 47.9843 44.5632C48.0633 44.3042 48.2508 44.11 48.485 44.0434C48.7021 43.9824 48.903 44.0434 49.0362 44.0834L50.9945 44.6745C51.1687 44.7269 51.2677 44.9116 51.2154 45.0858C51.163 45.26 50.9783 45.359 50.8041 45.3067L48.8458 44.7155C48.8011 44.7022 48.6954 44.6698 48.6659 44.6793C48.6564 44.6831 48.6297 44.7117 48.6164 44.7564C48.5917 44.8354 48.5983 44.9421 48.6097 45.0449C48.6745 45.6532 48.8915 46.2406 49.2381 46.7442C49.3418 46.8946 49.3038 47.1002 49.1533 47.204C49.0953 47.2421 49.0305 47.2611 48.9658 47.2611Z" fill="#3F516C"/>
<path d="M144.741 96.0651C137.271 93.1187 112.401 81.5547 106.028 56.4695C100.988 36.6308 107.996 17.7469 111.242 10.5488L113.393 5.77933L118.528 6.77988C120.982 7.25778 123.435 7.50054 125.822 7.50054C134.401 7.49959 140.676 4.38179 143.653 2.52349L147.166 0.330078L150.671 2.53586C153.617 4.38941 159.852 7.50054 168.505 7.50054C170.893 7.50054 173.348 7.25778 175.8 6.77988L180.936 5.77933L183.087 10.5488C186.335 17.7469 193.342 36.6317 188.302 56.4695C181.929 81.5547 157.06 93.1187 149.589 96.0651L147.165 97.0219L144.741 96.0651Z" fill="white"/>
<path d="M147.165 97.3528C147.124 97.3528 147.082 97.3452 147.044 97.33L144.62 96.3732C137.112 93.4116 112.119 81.7895 105.708 56.5511C100.642 36.6114 107.68 17.6428 110.941 10.4124L113.092 5.64286C113.155 5.50292 113.306 5.42485 113.457 5.45436L118.592 6.45492C121.024 6.92901 123.457 7.16987 125.821 7.16987C134.318 7.16892 140.531 4.08253 143.477 2.24327L146.99 0.0498612C147.098 -0.0167788 147.234 -0.0167779 147.341 0.0508141L150.847 2.2566C153.763 4.09206 159.934 7.16987 168.504 7.16987C170.872 7.16987 173.305 6.92901 175.737 6.45492L180.873 5.45436C181.023 5.42485 181.175 5.50292 181.237 5.64286L183.389 10.4124C186.65 17.6419 193.689 36.6105 188.622 56.5511C182.21 81.7886 157.217 93.4116 149.711 96.3732L147.286 97.33C147.247 97.3452 147.206 97.3528 147.165 97.3528ZM113.587 6.15313L111.543 10.6847C108.311 17.8513 101.333 36.6505 106.348 56.3883C112.683 81.3221 137.428 92.8261 144.862 95.7582L147.165 96.6674L149.468 95.7582C156.901 92.8261 181.647 81.3221 187.981 56.3883C192.996 36.6505 186.018 17.8504 182.786 10.6847L180.742 6.15313L175.863 7.10418C173.39 7.58589 170.914 7.83056 168.504 7.83056C159.768 7.83056 153.471 4.68801 150.494 2.81542L147.164 0.72007L143.827 2.804C140.82 4.68134 134.483 7.83056 125.821 7.83056C123.414 7.83056 120.939 7.58589 118.465 7.10418L113.587 6.15313Z" fill="#3F516C"/>
<path d="M147.165 89.92C141.249 87.5866 118.098 77.1451 112.431 54.8435C107.913 37.0583 114.257 19.9347 117.265 13.2659C120.137 13.8257 123.002 14.1084 125.821 14.1084C125.822 14.1084 125.823 14.1084 125.824 14.1084C135.902 14.1075 143.329 10.5146 147.151 8.12891C150.955 10.5222 158.348 14.1084 168.504 14.1084C171.325 14.1084 174.191 13.8257 177.064 13.2659C180.072 19.9347 186.415 37.0583 181.897 54.8435C176.232 77.1451 153.081 87.5857 147.165 89.92Z" fill="white"/>
<path d="M147.166 90.251C147.125 90.251 147.083 90.2434 147.045 90.2281C140.276 87.5578 117.752 77.121 112.112 54.9261C107.56 37.0066 113.989 19.7287 116.964 13.1314C117.027 12.9914 117.178 12.9143 117.329 12.9429C120.177 13.4979 123.034 13.7797 125.823 13.7797C135.968 13.7787 143.431 10.064 146.978 7.85064C147.085 7.784 147.222 7.784 147.329 7.8516C150.847 10.0659 158.277 13.7806 168.506 13.7806C171.296 13.7806 174.155 13.4989 177.002 12.9438C177.153 12.9153 177.303 12.9924 177.367 13.1323C180.343 19.7297 186.772 37.0075 182.219 54.927C176.581 77.122 154.056 87.5597 147.288 90.2291C147.248 90.2434 147.207 90.251 147.166 90.251ZM117.46 13.6407C114.47 20.3437 108.305 37.257 112.753 54.7633C118.281 76.5232 140.327 86.8485 147.166 89.5656C154.005 86.8485 176.05 76.5232 181.579 54.7633C186.026 37.257 179.861 20.3437 176.871 13.6407C174.067 14.171 171.254 14.4394 168.506 14.4394C158.278 14.4394 150.799 10.7818 147.152 8.51894C143.479 10.7809 135.969 14.4385 125.827 14.4394C123.076 14.4394 120.264 14.17 117.46 13.6407Z" fill="#0E0E27"/>
<path d="M79.6562 61.284L83.1206 61.2735C87.5055 61.2611 91.601 63.4621 94.0105 67.1254L113.727 96.5917C116.903 101.337 115.353 107.783 110.368 110.567C105.826 113.103 100.093 111.64 97.3235 107.236L79.9875 79.6785L79.6562 61.284Z" fill="#0166FF"/>
<path d="M83.6766 115.954L85.6044 67.3525C85.7377 63.9948 83.0159 61.2178 79.6563 61.2844C79.6563 61.2844 66.5082 61.1016 62.1671 61.6309C57.6089 62.186 45.153 64.3955 45.153 64.3955C42.5064 64.9953 40.6224 67.3391 40.6053 70.0523L39.4238 115.954H83.6766Z" fill="#0166FF"/>
<path d="M83.6781 116.284C83.6752 116.284 83.6733 116.284 83.6705 116.284C83.4877 116.279 83.3439 116.129 83.3477 115.946L84.3112 73.8286C84.3159 73.6458 84.4711 73.5125 84.6491 73.5059C84.8319 73.5106 84.9757 73.661 84.9718 73.8438L84.0084 115.961C84.0046 116.141 83.857 116.284 83.6781 116.284Z" fill="#0C1D37"/>
<path d="M169.311 116.661H6.33034C6.14756 116.661 6 116.513 6 116.33C6 116.148 6.14756 116 6.33034 116H169.312C169.495 116 169.642 116.148 169.642 116.33C169.642 116.513 169.494 116.661 169.311 116.661Z" fill="#727D8D"/>
<path d="M36.3181 142.289C47.1512 142.289 55.9331 133.507 55.9331 122.674C55.9331 111.841 47.1512 103.059 36.3181 103.059C25.4851 103.059 16.7031 111.841 16.7031 122.674C16.7031 133.507 25.4851 142.289 36.3181 142.289Z" fill="#FFD600"/>
<path d="M26.788 131.092C28.9211 131.092 30.6503 129.363 30.6503 127.229C30.6503 125.096 28.9211 123.367 26.788 123.367C24.655 123.367 22.9258 125.096 22.9258 127.229C22.9258 129.363 24.655 131.092 26.788 131.092Z" fill="white"/>
<path d="M137.951 82.3886C137.951 83.472 137.296 84.5011 136.225 84.9171L53.0169 117.423C51.6213 117.968 50.0476 117.277 49.5021 115.887C49.3736 115.562 49.3184 115.232 49.3184 114.9C49.3184 113.817 49.9733 112.788 51.0453 112.372L134.253 79.8658C135.649 79.3212 137.222 80.0124 137.768 81.409C137.896 81.7336 137.951 82.0639 137.951 82.3886Z" fill="#FFD600"/>
<path d="M134.718 82.7259L118.623 90.0918L121.485 96.3462L137.58 88.9803L134.718 82.7259Z" fill="#FFD600"/>
<path d="M126.214 94.1842L121.486 96.3477L123.562 100.883L128.289 98.7194L126.214 94.1842Z" fill="#FFD600"/>
<path d="M137.581 88.9803L130.104 92.4023L132.179 96.9375L139.657 93.5155L137.581 88.9803Z" fill="#FFD600"/>
<path d="M40.6543 121.51L44.5946 124.104C44.8764 124.253 45.1782 124.327 45.4895 124.335C46.0321 124.334 46.5843 124.085 46.9546 123.634C47.6877 122.749 47.4639 121.427 46.4881 120.812L36.3408 111.17L23.3184 120.902" fill="white"/>
<path d="M45.4899 124.664C45.1072 124.655 44.7568 124.563 44.4389 124.395L40.4719 121.785C40.3196 121.685 40.2777 121.48 40.3776 121.327C40.4785 121.175 40.6832 121.133 40.8355 121.233L44.7759 123.826C44.9758 123.931 45.2281 123.996 45.4984 124.003C45.9487 124.002 46.4019 123.785 46.6999 123.423C46.9902 123.072 47.1102 122.633 47.0388 122.184C46.9664 121.734 46.7018 121.334 46.3124 121.089C46.2943 121.078 46.2762 121.065 46.261 121.049L36.3154 111.6L23.5168 121.165C23.3711 121.275 23.1636 121.244 23.0541 121.099C22.9446 120.952 22.9751 120.746 23.1207 120.636L36.1431 110.904C36.2716 110.808 36.4516 110.817 36.5687 110.929L46.6932 120.549C47.2273 120.897 47.5909 121.453 47.6909 122.08C47.7918 122.711 47.6157 123.353 47.2092 123.843C46.7874 124.356 46.1448 124.663 45.4899 124.664Z" fill="#0C1D37"/>
<path d="M23.3184 120.9L32.2719 135.861C32.6165 136.293 33.1839 136.478 33.6971 136.476C34.0474 136.48 34.3901 136.388 34.69 136.172C35.4564 135.652 35.7163 134.592 35.2203 133.806L33.638 131.074L36.6083 136.142C36.9434 136.721 37.5565 137.116 38.2343 137.124C38.241 137.126 38.2457 137.123 38.2457 137.123C38.5961 137.127 38.9426 137.033 39.2387 136.82C40.005 136.299 40.2649 135.239 39.7708 134.457L36.7625 129.263L41.2816 137.004C41.6263 137.437 42.1956 137.615 42.7106 137.617C43.0562 137.623 43.4008 137.524 43.6988 137.316C44.4651 136.795 44.6765 135.763 44.1843 134.975L39.9136 127.437L43.0705 132.887C43.4151 133.319 43.9872 133.501 44.4994 133.5C44.845 133.507 45.1915 133.412 45.4876 133.199C46.2539 132.679 46.47 131.645 45.976 130.862L40.6524 121.508" fill="white"/>
<path d="M42.7428 137.95C42.7304 137.95 42.7181 137.95 42.7057 137.95C42.0088 137.946 41.3948 137.678 41.0245 137.213C41.0149 137.201 41.0054 137.188 40.9978 137.173L40.2714 135.929C40.1382 136.387 39.8487 136.807 39.4251 137.095C39.0957 137.332 38.6921 137.46 38.2541 137.456C38.2465 137.457 38.2389 137.457 38.2313 137.456C37.4592 137.447 36.7281 137.007 36.3235 136.309L35.7218 135.283C35.5885 135.741 35.3001 136.16 34.8764 136.448C34.5432 136.687 34.1367 136.809 33.6941 136.809C33.6912 136.809 33.6884 136.809 33.6855 136.809C33.0105 136.809 32.3841 136.533 32.0147 136.069C32.0052 136.058 31.9967 136.045 31.989 136.033L23.0355 121.072C22.9412 120.916 22.9926 120.712 23.1497 120.619C23.3058 120.526 23.5096 120.576 23.6029 120.733L32.544 135.673C32.7925 135.973 33.2095 136.167 33.6969 136.148C34.0006 136.147 34.27 136.07 34.4985 135.906C35.1402 135.47 35.3363 134.61 34.9412 133.984L33.3523 131.241C33.2609 131.083 33.3142 130.882 33.4722 130.79C33.6284 130.698 33.8312 130.751 33.9235 130.908L36.8937 135.976C37.1812 136.472 37.6915 136.784 38.2275 136.795C38.2342 136.795 38.2408 136.795 38.2494 136.795C38.5512 136.79 38.8225 136.715 39.0462 136.554C39.6888 136.117 39.8859 135.259 39.4917 134.635L36.4768 129.431C36.3854 129.273 36.4387 129.071 36.5967 128.98C36.7538 128.888 36.9566 128.941 37.048 129.099L41.5547 136.818C41.7994 137.111 42.2306 137.287 42.7133 137.29C43.0018 137.297 43.2769 137.211 43.5111 137.048C44.1337 136.625 44.306 135.793 43.9052 135.152L39.6269 127.603C39.5374 127.445 39.5927 127.244 39.7497 127.154C39.9078 127.063 40.1086 127.117 40.2 127.274L43.3435 132.702C43.5901 132.997 44.0166 133.172 44.4916 133.172C44.504 133.172 44.5145 133.172 44.5259 133.172C44.8144 133.172 45.0781 133.089 45.2961 132.933C45.9263 132.505 46.0996 131.677 45.6978 131.042L40.3666 121.674C40.2762 121.515 40.3314 121.314 40.4904 121.224C40.6484 121.133 40.8502 121.188 40.9407 121.347L46.2643 130.702C46.8497 131.627 46.5937 132.851 45.675 133.476C45.3408 133.717 44.9296 133.842 44.4955 133.834C44.2784 133.829 44.0718 133.808 43.8738 133.757L44.4736 134.816C45.0552 135.747 44.8001 136.972 43.8862 137.594C43.5511 137.825 43.155 137.95 42.7428 137.95Z" fill="#0C1D37"/>
<path d="M54.6096 62.7773L53.0769 72.0317C52.7332 75.8816 50.9577 79.4583 48.1084 82.062L28.9456 97.4539L39.5299 113.165L23.6496 125.474L11.2222 106.688C8.92976 103.167 8.07867 98.8991 8.84503 94.7684C9.53142 91.067 11.4726 87.715 14.3419 85.2769L32.6022 69.7593C35.2802 67.1032 38.7121 65.3278 42.4297 64.6756L54.6096 62.7773Z" fill="#0166FF"/>
<path d="M28.946 97.7845C28.8489 97.7845 28.7537 97.7426 28.688 97.6607C28.5738 97.5189 28.5966 97.3104 28.7385 97.1961L47.9013 81.8032C48.0441 81.689 48.2516 81.7118 48.3658 81.8537C48.4801 81.9955 48.4572 82.204 48.3154 82.3183L29.1526 97.7112C29.0916 97.7607 29.0193 97.7845 28.946 97.7845Z" fill="#0C1D37"/>
<path d="M23.6511 125.803C23.633 125.803 23.6149 125.801 23.5978 125.798C23.5073 125.783 23.4264 125.731 23.3759 125.654L10.9476 106.868C10.8467 106.716 10.8886 106.511 11.0409 106.41C11.1922 106.309 11.3979 106.351 11.4988 106.504L23.7301 124.992L39.0849 113.091L26.7651 94.7408C26.6632 94.5894 26.7041 94.3838 26.8555 94.2829C27.0069 94.181 27.2125 94.221 27.3134 94.3733L39.8056 112.979C39.9027 113.123 39.8712 113.318 39.7342 113.425L23.8548 125.734C23.7948 125.779 23.7234 125.803 23.6511 125.803Z" fill="#0C1D37"/>
<path d="M106.1 102.35C103.752 103.803 100.586 105.775 96.8003 104.638C93.8986 103.766 90.5466 95.7311 96.0235 95.376C96.0235 95.376 96.0997 93.9423 97.8399 93.0131C99.5802 92.084 100.063 92.9846 100.063 92.9846C100.063 92.9846 99.9419 90.8416 101.612 90.2942C103.282 89.7468 104.008 90.6131 104.008 90.6131C104.008 90.6131 103.266 89.0718 105.872 88.0798C108.479 87.0879 111.908 94.6344 112.023 95.7682C112.288 98.3757 108.021 101.163 106.1 102.35Z" fill="white"/>
<path d="M99.0836 105.308C98.321 105.308 97.528 105.201 96.7045 104.955C94.6149 104.327 92.4938 100.495 92.7918 97.8853C92.9774 96.2574 94.0199 95.2663 95.7382 95.0702C95.8544 94.559 96.2618 93.4813 97.6832 92.7226C98.6885 92.1857 99.3501 92.2009 99.7642 92.357C99.8623 91.6002 100.224 90.4026 101.507 89.9818C102.449 89.6733 103.135 89.7742 103.586 89.9542C103.599 89.7952 103.635 89.621 103.708 89.4382C103.985 88.7442 104.674 88.1834 105.753 87.7722C106.319 87.557 106.936 87.6522 107.588 88.054C109.927 89.4972 112.25 94.7437 112.351 95.7357C112.552 97.7215 110.565 99.9778 106.273 102.633L106.099 102.352L106.243 102.651C104.369 103.811 101.946 105.308 99.0836 105.308ZM99.2092 92.9225C98.937 92.9225 98.5457 93.012 97.9954 93.3062C96.4561 94.1277 96.357 95.3453 96.3532 95.3967C96.3418 95.5624 96.2104 95.6957 96.0448 95.7071C94.4807 95.808 93.6077 96.5667 93.4487 97.9614C93.165 100.448 95.2289 103.823 96.8949 104.323C100.522 105.413 103.628 103.492 105.896 102.089L106.1 102.352L105.926 102.071C109.925 99.5979 111.865 97.4892 111.694 95.8033C111.605 94.9312 109.33 89.9056 107.241 88.6176C106.766 88.3243 106.357 88.2501 105.989 88.39C105.11 88.7251 104.536 89.1678 104.328 89.6695C104.146 90.1103 104.3 90.4606 104.306 90.4749C104.374 90.6253 104.321 90.8043 104.182 90.8928C104.042 90.9804 103.86 90.9538 103.753 90.8271C103.731 90.8024 103.128 90.1455 101.712 90.6101C100.307 91.0699 100.387 92.8911 100.391 92.9682C100.398 93.1224 100.298 93.2624 100.15 93.3043C99.9994 93.3452 99.8433 93.2785 99.77 93.1424C99.7652 93.1319 99.6262 92.9225 99.2092 92.9225Z" fill="#0C1D37"/>
<path d="M98.8851 100.083C98.7775 100.083 98.6719 100.03 98.6081 99.9332L95.7454 95.5578C95.6454 95.4055 95.6883 95.2008 95.8406 95.1009C95.9929 95.0009 96.1986 95.0438 96.2976 95.1961L99.1602 99.5715C99.2602 99.7238 99.2174 99.9285 99.065 100.028C99.0098 100.065 98.947 100.083 98.8851 100.083Z" fill="#0C1D37"/>
<path d="M102.712 97.3674C102.604 97.3674 102.499 97.3151 102.435 97.218L99.7845 93.1672C99.6845 93.0149 99.7274 92.8102 99.8797 92.7103C100.032 92.6103 100.238 92.6531 100.337 92.8055L102.987 96.8562C103.087 97.0085 103.044 97.2132 102.892 97.3132C102.838 97.3493 102.775 97.3674 102.712 97.3674Z" fill="#0C1D37"/>
<path d="M106.563 94.8497C106.455 94.8497 106.35 94.7974 106.286 94.7003L103.732 90.7961C103.632 90.6438 103.675 90.4391 103.827 90.3392C103.979 90.2392 104.185 90.282 104.284 90.4344L106.838 94.3385C106.938 94.4908 106.895 94.6955 106.743 94.7955C106.688 94.8316 106.625 94.8497 106.563 94.8497Z" fill="#0C1D37"/>
<path d="M69.7009 35.056C73.0522 35.056 75.7689 32.3393 75.7689 28.988C75.7689 25.6367 73.0522 22.9199 69.7009 22.9199C66.3496 22.9199 63.6328 25.6367 63.6328 28.988C63.6328 32.3393 66.3496 35.056 69.7009 35.056Z" fill="#3F516C"/>
<path d="M69.0612 63.815L68.3758 54.6977L55.2058 51.9531L54.7051 63.7436C54.7051 63.7436 58.0609 69.0606 64.1613 68.7159C69.065 68.4389 69.0612 63.815 69.0612 63.815Z" fill="white"/>
<path d="M63.6021 69.0622C57.7397 69.0622 54.4591 63.9737 54.4258 63.9204C54.3896 63.8633 54.3725 63.7976 54.3753 63.73L54.8761 51.9395C54.8808 51.8424 54.9265 51.752 55.0036 51.693C55.0798 51.633 55.1778 51.6101 55.274 51.6301L68.444 54.3747C68.5887 54.4052 68.6953 54.5261 68.7058 54.6737L69.3912 63.791C69.3922 63.7995 69.3922 63.8072 69.3922 63.8157C69.3922 63.8652 69.3369 68.7547 64.18 69.046C63.9848 69.0574 63.7915 69.0622 63.6021 69.0622ZM55.0398 63.6501C55.4949 64.3117 58.7317 68.6928 64.1428 68.3863C68.5963 68.1349 68.7277 64.1232 68.7315 63.8271L68.066 54.9716L55.5206 52.3574L55.0398 63.6501Z" fill="#3F516C"/>
<path d="M55.0485 53.8681C47.9457 48.0257 47.8457 36.9025 47.8457 36.9025L65.3406 26.6152C65.7243 26.8504 73.4983 31.5885 76.261 42.8783C78.5372 52.1802 70.2206 58.7271 60.058 56.4918" fill="white"/>
<path d="M64.0195 57.2621C62.7105 57.2621 61.3568 57.1145 59.9878 56.8127C59.8098 56.7737 59.6974 56.5976 59.7365 56.4196C59.7755 56.2415 59.9516 56.1273 60.1296 56.1682C65.3961 57.3259 70.3827 56.1311 73.47 52.9714C76.008 50.3734 76.8858 46.8158 75.9404 42.9564C73.4243 32.6729 66.6861 27.8738 65.3352 27.0009L48.182 37.0863C48.2392 38.5658 48.8608 48.3495 55.2592 53.6112C55.4001 53.7273 55.4201 53.9348 55.3039 54.0757C55.1888 54.2166 54.9803 54.2366 54.8394 54.1205C47.6994 48.2486 47.5175 37.0149 47.5156 36.9026C47.5147 36.7846 47.5766 36.6751 47.6784 36.6151L65.1733 26.3268C65.279 26.265 65.4094 26.2659 65.5141 26.3307C66.3662 26.8543 73.8765 31.7399 76.5821 42.7974C77.5827 46.8872 76.6459 50.6638 73.9422 53.4312C71.5041 55.9274 67.9579 57.2621 64.0195 57.2621Z" fill="#3F516C"/>
<path d="M70.6264 40.1622C71.0532 39.9566 71.1509 39.2743 70.8445 38.6381C70.5381 38.0019 69.9438 37.6528 69.517 37.8583C69.0901 38.0638 68.9925 38.7462 69.2989 39.3824C69.6052 40.0186 70.1996 40.3677 70.6264 40.1622Z" fill="#0C1D37"/>
<path d="M70.2103 36.3643C69.3097 36.23 68.3891 36.7051 67.875 37.5695L70.2103 36.3643Z" fill="white"/>
<path d="M67.8741 37.8994C67.816 37.8994 67.7579 37.8842 67.7056 37.8528C67.5485 37.7595 67.4971 37.5567 67.5904 37.3996C68.1749 36.4171 69.2221 35.8821 70.2579 36.0373C70.4387 36.0639 70.5625 36.2325 70.5359 36.4124C70.5092 36.5923 70.3435 36.7199 70.1608 36.6904C69.3915 36.5761 68.6042 36.9864 68.1578 37.7376C68.0968 37.8413 67.9864 37.8994 67.8741 37.8994ZM48.3285 26.4078C46.4655 28.7516 49.3386 31.6657 49.3386 31.6657C49.3386 31.6657 45.2412 31.1507 43.3772 35.8802C41.5132 40.6098 49.1463 46.7606 49.1463 46.7606L53.3294 43.8056C53.3294 43.8056 53.5407 44.6186 54.6822 43.4324C54.6822 43.4324 57.6715 37.3444 54.7317 35.4709C54.7317 35.4709 72.4532 35.3471 70.871 22.24C69.6343 11.9898 51.3892 22.557 48.3285 26.4078Z" fill="#3F516C"/>
<path d="M67.8732 37.9004C67.8151 37.9004 67.757 37.8851 67.7047 37.8537C67.5476 37.7604 67.4962 37.5576 67.5895 37.4006C68.174 36.4181 69.2212 35.8831 70.257 36.0382C70.4379 36.0649 70.5616 36.2334 70.535 36.4133C70.5083 36.5933 70.3427 36.7208 70.1599 36.6913C69.3907 36.5771 68.6034 36.9874 68.1569 37.7385C68.0959 37.8423 67.9855 37.9004 67.8732 37.9004Z" fill="#0C1D37"/>
<path d="M63.5878 44.4468C64.0415 44.3106 64.2448 43.652 64.0418 42.9756C63.8389 42.2993 63.3065 41.8614 62.8528 41.9976C62.3991 42.1338 62.1958 42.7924 62.3987 43.4687C62.6017 44.145 63.134 44.5829 63.5878 44.4468Z" fill="#0C1D37"/>
<path d="M63.4398 40.5796C62.544 40.4178 61.6091 40.8652 61.0684 41.7125L63.4398 40.5796Z" fill="white"/>
<path d="M61.0682 42.0428C61.0073 42.0428 60.9454 42.0257 60.8911 41.9914C60.7369 41.8933 60.6922 41.6896 60.7902 41.5354C61.4043 40.5719 62.4667 40.0693 63.4987 40.2549C63.6786 40.2873 63.7976 40.4587 63.7652 40.6386C63.7328 40.8185 63.5615 40.9375 63.3816 40.9051C62.6143 40.7681 61.8174 41.1536 61.3471 41.8905C61.2843 41.9885 61.1777 42.0428 61.0682 42.0428Z" fill="#0C1D37"/>
<path d="M53.5507 43.8743C53.5507 43.8743 48.8126 40.9555 46.8487 42.2235C44.8847 43.4907 47.4884 50.8563 50.2026 50.9601C52.9167 51.0638 54.7274 49.5692 54.7274 49.5692" fill="white"/>
<path d="M50.476 51.2965C50.3817 51.2965 50.2865 51.2945 50.1904 51.2907C48.4397 51.2241 46.8355 48.6737 46.1549 46.189C45.5846 44.1089 45.7779 42.5228 46.6708 41.9469C48.7871 40.5836 53.5243 43.471 53.7252 43.5938C53.8803 43.69 53.9289 43.8928 53.8327 44.0479C53.7366 44.2031 53.5338 44.2517 53.3786 44.1565C52.1096 43.3758 48.4949 41.5546 47.0288 42.5019C46.41 42.9008 46.3167 44.2802 46.7918 46.0148C47.402 48.2434 48.85 50.5786 50.2161 50.631C52.7703 50.7291 54.501 49.3287 54.5182 49.3153C54.6591 49.2002 54.8676 49.2201 54.9828 49.361C55.0989 49.5019 55.0789 49.7095 54.938 49.8256C54.8628 49.8865 53.1235 51.2965 50.476 51.2965Z" fill="#3F516C"/>
<path d="M67.4805 41.7129C68.1373 42.4935 68.7933 43.2751 69.4502 44.0558C69.8462 44.527 70.2517 45.0182 70.3574 45.6075C70.4621 46.1959 70.1737 46.9118 69.5139 47.2012" fill="white"/>
<path d="M69.5124 47.5313C69.3848 47.5313 69.2639 47.458 69.2097 47.3333C69.1364 47.1657 69.2125 46.9715 69.3791 46.8982C69.9037 46.6678 70.1055 46.0919 70.0303 45.6654C69.9389 45.1523 69.5438 44.6829 69.1954 44.2688L67.2257 41.9259C67.1086 41.786 67.1267 41.5775 67.2657 41.4604C67.4056 41.3433 67.6132 41.3604 67.7312 41.5004L69.7009 43.8433C70.1027 44.3212 70.5577 44.8628 70.6805 45.5492C70.8033 46.2404 70.4873 47.1343 69.6447 47.5037C69.6019 47.5227 69.5572 47.5313 69.5124 47.5313Z" fill="#0C1D37"/>
<path d="M67.0044 51.6489C66.7559 51.6489 66.5074 51.6241 66.2618 51.5746C65.3012 51.3775 64.4387 50.7968 63.8951 49.98C63.7942 49.8277 63.8352 49.623 63.9875 49.5221C64.1389 49.4212 64.3445 49.4621 64.4454 49.6144C64.8928 50.2866 65.603 50.7654 66.3941 50.9272C67.1853 51.0891 68.0268 50.9282 68.7018 50.4855C68.8551 50.3856 69.0588 50.4284 69.1597 50.5807C69.2597 50.733 69.2168 50.9377 69.0645 51.0386C68.4533 51.4385 67.7308 51.6489 67.0044 51.6489Z" fill="#0C1D37"/>
<path d="M149.871 40.1374L153.553 47.0317C154.142 48.1342 153.343 49.465 152.094 49.465H142.233C140.984 49.465 140.185 48.1342 140.774 47.0317L144.453 40.1364C141.325 39.0207 139.084 36.0304 139.084 32.5233C139.084 27.9232 142.932 24.2199 147.588 24.456C151.728 24.6664 155.096 28.0946 155.239 32.2367C155.365 35.8724 153.084 38.9949 149.871 40.1374Z" fill="#0E0E27"/>
<path d="M169.637 68.0165H126.178C125.761 68.0165 125.424 67.6785 125.424 67.2625V55.3282C125.424 54.9112 125.762 54.5742 126.178 54.5742H169.637C170.054 54.5742 170.391 54.9122 170.391 55.3282V67.2625C170.391 67.6785 170.053 68.0165 169.637 68.0165Z" fill="#0166FF"/>
<path d="M134.791 61.2533C134.558 61.2999 134.283 61.3418 133.966 61.378C134.516 61.953 134.791 62.3452 134.791 62.5556C134.791 62.7194 134.726 62.8593 134.597 62.9745C134.467 63.0897 134.319 63.1468 134.15 63.1468C133.972 63.1468 133.791 63.0516 133.607 62.8612C133.471 62.6946 133.334 62.529 133.199 62.3652C133.07 62.211 132.955 62.0863 132.855 61.9892C132.184 62.6442 131.731 62.9717 131.495 62.9717C131.324 62.9717 131.174 62.9117 131.049 62.7908C130.923 62.6708 130.859 62.5299 130.859 62.37C130.859 62.2224 130.942 62.0673 131.107 61.9035C131.25 61.7864 131.393 61.6684 131.539 61.5475C131.629 61.4704 131.703 61.4085 131.758 61.3618C131.356 61.2352 131.06 61.1314 130.87 61.0515C130.608 60.941 130.477 60.7678 130.477 60.5307C130.477 60.3737 130.536 60.2318 130.654 60.1042C130.772 59.9776 130.919 59.9138 131.098 59.9138C131.192 59.9138 131.561 60.0309 132.205 60.2642C132.189 59.9767 132.181 59.7748 132.181 59.6577C132.181 59.4911 132.241 59.3512 132.361 59.2398C132.481 59.1275 132.629 59.0723 132.807 59.0723C132.985 59.0723 133.135 59.1284 133.256 59.2398C133.378 59.3512 133.438 59.4911 133.438 59.6577C133.438 59.8615 133.443 60.049 133.453 60.2194C134.042 60.129 134.458 60.0842 134.7 60.0842C134.878 60.0842 135.024 60.1433 135.139 60.2623C135.255 60.3813 135.312 60.5203 135.312 60.6811C135.311 60.9925 135.138 61.1838 134.791 61.2533Z" fill="white"/>
<path d="M142.398 61.2533C142.165 61.2999 141.89 61.3418 141.573 61.378C142.123 61.953 142.398 62.3452 142.398 62.5556C142.398 62.7194 142.334 62.8593 142.204 62.9745C142.075 63.0897 141.926 63.1468 141.758 63.1468C141.58 63.1468 141.399 63.0516 141.214 62.8612C141.078 62.6946 140.942 62.529 140.807 62.3652C140.677 62.211 140.562 62.0863 140.462 61.9892C139.792 62.6442 139.339 62.9717 139.103 62.9717C138.931 62.9717 138.782 62.9117 138.656 62.7908C138.53 62.6708 138.467 62.5299 138.467 62.37C138.467 62.2224 138.55 62.0673 138.714 61.9035C138.857 61.7864 139.001 61.6684 139.146 61.5475C139.237 61.4704 139.31 61.4085 139.365 61.3618C138.964 61.2352 138.668 61.1314 138.477 61.0515C138.215 60.941 138.084 60.7678 138.084 60.5307C138.084 60.3737 138.143 60.2318 138.261 60.1042C138.379 59.9776 138.527 59.9138 138.706 59.9138C138.8 59.9138 139.168 60.0309 139.813 60.2642C139.797 59.9767 139.788 59.7748 139.788 59.6577C139.788 59.4911 139.848 59.3512 139.968 59.2398C140.088 59.1275 140.236 59.0723 140.414 59.0723C140.593 59.0723 140.742 59.1284 140.864 59.2398C140.986 59.3512 141.046 59.4911 141.046 59.6577C141.046 59.8615 141.05 60.049 141.06 60.2194C141.649 60.129 142.065 60.0842 142.307 60.0842C142.485 60.0842 142.632 60.1433 142.747 60.2623C142.862 60.3813 142.919 60.5203 142.919 60.6811C142.918 60.9925 142.745 61.1838 142.398 61.2533Z" fill="white"/>
<path d="M150.008 61.2533C149.775 61.2999 149.499 61.3418 149.182 61.378C149.733 61.953 150.008 62.3452 150.008 62.5556C150.008 62.7194 149.943 62.8593 149.814 62.9745C149.684 63.0897 149.536 63.1468 149.367 63.1468C149.189 63.1468 149.008 63.0516 148.824 62.8612C148.687 62.6946 148.551 62.529 148.416 62.3652C148.287 62.211 148.171 62.0863 148.071 61.9892C147.401 62.6442 146.948 62.9717 146.712 62.9717C146.541 62.9717 146.391 62.9117 146.266 62.7908C146.14 62.6708 146.076 62.5299 146.076 62.37C146.076 62.2224 146.159 62.0673 146.324 61.9035C146.466 61.7864 146.61 61.6684 146.756 61.5475C146.846 61.4704 146.92 61.4085 146.975 61.3618C146.573 61.2352 146.277 61.1314 146.087 61.0515C145.825 60.941 145.693 60.7678 145.693 60.5307C145.693 60.3737 145.752 60.2318 145.87 60.1042C145.988 59.9776 146.136 59.9138 146.315 59.9138C146.408 59.9138 146.778 60.0309 147.422 60.2642C147.406 59.9767 147.397 59.7748 147.397 59.6577C147.397 59.4911 147.457 59.3512 147.577 59.2398C147.697 59.1275 147.846 59.0723 148.024 59.0723C148.202 59.0723 148.351 59.1284 148.473 59.2398C148.595 59.3512 148.655 59.4911 148.655 59.6577C148.655 59.8615 148.66 60.049 148.669 60.2194C149.259 60.129 149.675 60.0842 149.916 60.0842C150.094 60.0842 150.241 60.1433 150.356 60.2623C150.471 60.3813 150.529 60.5203 150.529 60.6811C150.528 60.9925 150.354 61.1838 150.008 61.2533Z" fill="white"/>
<path d="M157.615 61.2533C157.382 61.2999 157.107 61.3418 156.79 61.378C157.34 61.953 157.615 62.3452 157.615 62.5556C157.615 62.7194 157.551 62.8593 157.421 62.9745C157.292 63.0897 157.143 63.1468 156.975 63.1468C156.797 63.1468 156.616 63.0516 156.431 62.8612C156.295 62.6946 156.159 62.529 156.023 62.3652C155.894 62.211 155.779 62.0863 155.679 61.9892C155.009 62.6442 154.556 62.9717 154.319 62.9717C154.148 62.9717 153.999 62.9117 153.873 62.7908C153.747 62.6708 153.683 62.5299 153.683 62.37C153.683 62.2224 153.766 62.0673 153.931 61.9035C154.074 61.7864 154.218 61.6684 154.363 61.5475C154.454 61.4704 154.527 61.4085 154.582 61.3618C154.18 61.2352 153.884 61.1314 153.694 61.0515C153.432 60.941 153.301 60.7678 153.301 60.5307C153.301 60.3737 153.36 60.2318 153.478 60.1042C153.596 59.9776 153.743 59.9138 153.922 59.9138C154.017 59.9138 154.385 60.0309 155.03 60.2642C155.013 59.9767 155.005 59.7748 155.005 59.6577C155.005 59.4911 155.065 59.3512 155.185 59.2398C155.305 59.1275 155.453 59.0723 155.631 59.0723C155.809 59.0723 155.959 59.1284 156.081 59.2398C156.202 59.3512 156.262 59.4911 156.262 59.6577C156.262 59.8615 156.267 60.049 156.277 60.2194C156.866 60.129 157.282 60.0842 157.524 60.0842C157.702 60.0842 157.848 60.1433 157.964 60.2623C158.079 60.3813 158.136 60.5203 158.136 60.6811C158.135 60.9925 157.962 61.1838 157.615 61.2533Z" fill="white"/>
<path d="M165.225 61.2533C164.991 61.2999 164.716 61.3418 164.399 61.378C164.949 61.953 165.225 62.3452 165.225 62.5556C165.225 62.7194 165.16 62.8593 165.03 62.9745C164.901 63.0897 164.752 63.1468 164.584 63.1468C164.406 63.1468 164.225 63.0516 164.04 62.8612C163.904 62.6946 163.768 62.529 163.633 62.3652C163.503 62.211 163.388 62.0863 163.288 61.9892C162.618 62.6442 162.165 62.9717 161.929 62.9717C161.757 62.9717 161.608 62.9117 161.482 62.7908C161.357 62.6708 161.293 62.5299 161.293 62.37C161.293 62.2224 161.376 62.0673 161.54 61.9035C161.683 61.7864 161.827 61.6684 161.973 61.5475C162.063 61.4704 162.136 61.4085 162.192 61.3618C161.79 61.2352 161.494 61.1314 161.303 61.0515C161.042 60.941 160.91 60.7678 160.91 60.5307C160.91 60.3737 160.969 60.2318 161.087 60.1042C161.205 59.9776 161.353 59.9138 161.532 59.9138C161.625 59.9138 161.994 60.0309 162.639 60.2642C162.623 59.9767 162.614 59.7748 162.614 59.6577C162.614 59.4911 162.674 59.3512 162.794 59.2398C162.914 59.1275 163.063 59.0723 163.241 59.0723C163.419 59.0723 163.568 59.1284 163.69 59.2398C163.812 59.3512 163.872 59.4911 163.872 59.6577C163.872 59.8615 163.877 60.049 163.886 60.2194C164.475 60.129 164.891 60.0842 165.133 60.0842C165.311 60.0842 165.458 60.1433 165.573 60.2623C165.688 60.3813 165.745 60.5203 165.745 60.6811C165.743 60.9925 165.57 61.1838 165.225 61.2533Z" fill="white"/>
<path d="M7.46983 72.282L5.10792 73.769C3.99884 74.4602 2.54228 74.1289 1.84922 73.0284L0.362198 70.6665C-0.330858 69.565 0.000438878 68.1084 1.1019 67.4154L3.46572 65.9207C4.56718 65.2277 6.02374 65.559 6.72441 66.6614L8.20954 69.0309C8.90259 70.1324 8.57129 71.589 7.46983 72.282Z" fill="#FFD600"/>
<path d="M90.8716 39.6701L88.8743 40.9267C87.9366 41.5113 86.7057 41.2314 86.1192 40.3003L84.8626 38.304C84.2771 37.3729 84.557 36.141 85.488 35.5555L87.4863 34.2922C88.4174 33.7068 89.6483 33.9866 90.2414 34.9186L91.4971 36.9217C92.0826 37.8527 91.8027 39.0837 90.8716 39.6701Z" fill="#FFD600"/>
<path d="M44.9957 17.4832L43.4039 18.4847C42.6566 18.9502 41.6751 18.7274 41.2077 17.9849L40.2052 16.3931C39.7378 15.6506 39.9615 14.669 40.7031 14.2026L42.2958 13.1953C43.0374 12.7279 44.0199 12.9516 44.4921 13.6951L45.4926 15.2926C45.96 16.0342 45.7373 17.0157 44.9957 17.4832Z" fill="#FFD600"/>
<path d="M80.5553 4.80198L79.6423 5.37698C79.2139 5.64449 78.6504 5.51597 78.3828 5.09043L77.8078 4.17746C77.5403 3.75192 77.6679 3.18834 78.0934 2.92082L79.0074 2.34296C79.4329 2.07545 79.9965 2.20302 80.2669 2.62951L80.8409 3.54533C81.1084 3.97088 80.9809 4.53351 80.5553 4.80198Z" fill="#FFD600"/>
</svg>
