<svg width="36" height="36" viewBox="0 0 36 36" fill="none" xmlns="http://www.w3.org/2000/svg">
<path d="M18 3C9.71572 3 3 9.71572 3 18C3 26.2842 9.71572 33 18 33C26.2842 33 33 26.2842 33 18" stroke="#FFC107" stroke-width="1.5" stroke-linecap="round" stroke-linejoin="round"/>
<path d="M14.7314 15.171H20.1392C21.338 15.171 22.3103 16.2499 22.3103 17.3421C22.3103 18.5409 21.338 19.5132 20.1392 19.5132H14.7314V15.171Z" stroke="#FFC107" stroke-width="1.3" stroke-miterlimit="10" stroke-linecap="round" stroke-linejoin="round"/>
<path d="M14.7314 19.5H20.9117C22.2837 19.5 23.3892 20.4723 23.3892 21.6711C23.3892 22.8699 22.2837 23.8422 20.9117 23.8422H14.7314V19.5Z" stroke="#FFC107" stroke-width="1.3" stroke-miterlimit="10" stroke-linecap="round" stroke-linejoin="round"/>
<path d="M18.5142 23.829V26.0001" stroke="#FFC107" stroke-width="1.3" stroke-miterlimit="10" stroke-linecap="round" stroke-linejoin="round"/>
<path d="M15.8103 23.829V26.0001" stroke="#FFC107" stroke-width="1.3" stroke-miterlimit="10" stroke-linecap="round" stroke-linejoin="round"/>
<path d="M18.5142 13V15.1711" stroke="#FFC107" stroke-width="1.3" stroke-miterlimit="10" stroke-linecap="round" stroke-linejoin="round"/>
<path d="M15.8103 13V15.1711" stroke="#FFC107" stroke-width="1.3" stroke-miterlimit="10" stroke-linecap="round" stroke-linejoin="round"/>
<path d="M16.7828 15.171H13" stroke="#FFC107" stroke-width="1.3" stroke-miterlimit="10" stroke-linecap="round" stroke-linejoin="round"/>
<path d="M16.7828 23.829H13" stroke="#FFC107" stroke-width="1.3" stroke-miterlimit="10" stroke-linecap="round" stroke-linejoin="round"/>
<path d="M25.2769 5.70813H31.3648" stroke="#FFC107" stroke-width="0.65" stroke-linecap="round" stroke-linejoin="round"/>
<path d="M28.3334 8L24.8501 5.3875C24.7932 5.34481 24.747 5.28945 24.7151 5.22581C24.6833 5.16216 24.6667 5.09199 24.6667 5.02083V2.95833C24.6667 2.83678 24.715 2.7202 24.801 2.63424C24.8869 2.54829 25.0035 2.5 25.1251 2.5H31.5417C31.6633 2.5 31.7799 2.54829 31.8658 2.63424C31.9518 2.7202 32.0001 2.83678 32.0001 2.95833V5.00028C32.0001 5.07114 31.9837 5.14104 31.9521 5.20448C31.9205 5.26792 31.8747 5.32318 31.8181 5.36591L28.3334 8Z" stroke="#FFC107" stroke-linecap="round" stroke-linejoin="round"/>
<path d="M28.3334 8L24.8501 10.6125C24.7932 10.6552 24.747 10.7106 24.7151 10.7742C24.6833 10.8378 24.6667 10.908 24.6667 10.9792V13.0417C24.6667 13.1632 24.715 13.2798 24.801 13.3658C24.8869 13.4517 25.0035 13.5 25.1251 13.5H31.5417C31.6633 13.5 31.7799 13.4517 31.8658 13.3658C31.9518 13.2798 32.0001 13.1632 32.0001 13.0417V10.9997C32.0001 10.9289 31.9837 10.859 31.9521 10.7955C31.9205 10.7321 31.8747 10.6768 31.8181 10.6341L28.3334 8Z" stroke="#FFC107" stroke-linecap="round" stroke-linejoin="round"/>
<path d="M28.333 10.2914V8" stroke="#FFC107" stroke-linecap="round" stroke-linejoin="round"/>
</svg>
