<svg width="36" height="37" viewBox="0 0 36 37" fill="none" xmlns="http://www.w3.org/2000/svg">
<path d="M21 3.92701C20.0307 3.73024 19.0273 3.62695 18 3.62695C9.71572 3.62695 3 10.3427 3 18.627C3 26.9112 9.71572 33.627 18 33.627C26.2842 33.627 33 26.9112 33 18.627C33 17.5996 32.8966 16.5963 32.7 15.627" stroke="#0166FF" stroke-width="1.5" stroke-linecap="round" stroke-linejoin="round"/>
<path d="M14.8333 13.9258H20.559C21.8282 13.9258 22.8577 15.0681 22.8577 16.2245C22.8577 17.4937 21.8282 18.5232 20.559 18.5232H14.8333V13.9258Z" stroke="#0166FF" stroke-width="1.3" stroke-miterlimit="10" stroke-linecap="round" stroke-linejoin="round"/>
<path d="M14.8333 18.5088H21.3769C22.8295 18.5088 24 19.5383 24 20.8075C24 22.0767 22.8295 23.1062 21.3769 23.1062H14.8333V18.5088Z" stroke="#0166FF" stroke-width="1.3" stroke-miterlimit="10" stroke-linecap="round" stroke-linejoin="round"/>
<path d="M18.8385 23.0928V25.3915" stroke="#0166FF" stroke-width="1.3" stroke-miterlimit="10" stroke-linecap="round" stroke-linejoin="round"/>
<path d="M15.9756 23.0928V25.3915" stroke="#0166FF" stroke-width="1.3" stroke-miterlimit="10" stroke-linecap="round" stroke-linejoin="round"/>
<path d="M18.8385 11.627V13.9257" stroke="#0166FF" stroke-width="1.3" stroke-miterlimit="10" stroke-linecap="round" stroke-linejoin="round"/>
<path d="M15.9756 11.627V13.9257" stroke="#0166FF" stroke-width="1.3" stroke-miterlimit="10" stroke-linecap="round" stroke-linejoin="round"/>
<path d="M17.0051 13.9258H13" stroke="#0166FF" stroke-width="1.3" stroke-miterlimit="10" stroke-linecap="round" stroke-linejoin="round"/>
<path d="M17.0051 23.0928H13" stroke="#0166FF" stroke-width="1.3" stroke-miterlimit="10" stroke-linecap="round" stroke-linejoin="round"/>
<path d="M25.5413 5.4707H30.9374" stroke="#0166FF" stroke-width="0.65" stroke-linecap="round" stroke-linejoin="round"/>
<path d="M28.25 7.50195L25.1625 5.18633C25.112 5.14849 25.0711 5.09942 25.0429 5.04301C25.0147 4.9866 25 4.9244 25 4.86133V3.0332C25 2.92546 25.0428 2.82213 25.119 2.74594C25.1952 2.66975 25.2985 2.62695 25.4063 2.62695H31.0938C31.2015 2.62695 31.3048 2.66975 31.381 2.74594C31.4572 2.82213 31.5 2.92546 31.5 3.0332V4.84311C31.5 4.90592 31.4854 4.96787 31.4575 5.0241C31.4295 5.08034 31.3888 5.12931 31.3387 5.16719L28.25 7.50195Z" stroke="#0166FF" stroke-linecap="round" stroke-linejoin="round"/>
<path d="M28.25 7.50195L25.1625 9.81758C25.112 9.85542 25.0711 9.90449 25.0429 9.9609C25.0147 10.0173 25 10.0795 25 10.1426V11.9707C25 12.0784 25.0428 12.1818 25.119 12.258C25.1952 12.3342 25.2985 12.377 25.4063 12.377H31.0938C31.2015 12.377 31.3048 12.3342 31.381 12.258C31.4572 12.1818 31.5 12.0784 31.5 11.9707V10.1608C31.5 10.098 31.4854 10.036 31.4575 9.9798C31.4295 9.92357 31.3888 9.87459 31.3387 9.83672L28.25 7.50195Z" stroke="#0166FF" stroke-linecap="round" stroke-linejoin="round"/>
<path d="M28.25 9.53297V7.50195" stroke="#0166FF" stroke-linecap="round" stroke-linejoin="round"/>
</svg>
