<svg width="20" height="20" viewBox="0 0 20 20" fill="none" xmlns="http://www.w3.org/2000/svg">
<path d="M11.667 15.8327H5.00033C4.50033 15.8327 4.16699 15.4993 4.16699 14.9993C4.16699 14.4993 4.50033 14.166 5.00033 14.166H11.667C12.0837 14.166 12.5003 13.9993 12.8337 13.666C13.167 13.3327 13.3337 12.916 13.3337 12.4993C13.3337 12.0827 13.167 11.666 12.8337 11.3327C12.5003 10.9993 12.0837 10.8327 11.667 10.8327C11.167 10.8327 10.8337 10.4993 10.8337 9.99935C10.8337 9.49935 11.167 9.16601 11.667 9.16601C12.0837 9.16601 12.5003 8.99935 12.8337 8.66601C13.167 8.33268 13.3337 7.91601 13.3337 7.49935C13.3337 7.08268 13.167 6.66602 12.8337 6.33268C12.5003 5.99935 12.0837 5.83268 11.667 5.83268H5.00033C4.50033 5.83268 4.16699 5.49935 4.16699 4.99935C4.16699 4.49935 4.50033 4.16602 5.00033 4.16602H11.667C12.5837 4.16602 13.417 4.49935 14.0003 5.16602C14.667 5.74935 15.0003 6.58268 15.0003 7.49935C15.0003 8.41602 14.667 9.24935 14.0003 9.83268L13.8337 9.99935L14.0003 10.166C14.667 10.8327 15.0003 11.666 15.0003 12.4993C15.0003 13.3327 14.667 14.2493 14.0003 14.8327C13.3337 15.416 12.5837 15.8327 11.667 15.8327Z" fill="white"/>
<path d="M6.66732 15.8327C6.16732 15.8327 5.83398 15.4993 5.83398 14.9993V4.99935C5.83398 4.49935 6.16732 4.16602 6.66732 4.16602C7.16732 4.16602 7.50065 4.49935 7.50065 4.99935V14.9993C7.50065 15.4993 7.16732 15.8327 6.66732 15.8327Z" fill="white"/>
<path d="M11.6673 10.8327H6.66732C6.16732 10.8327 5.83398 10.4993 5.83398 9.99935C5.83398 9.49935 6.16732 9.16602 6.66732 9.16602H11.6673C12.1673 9.16602 12.5007 9.49935 12.5007 9.99935C12.5007 10.4993 12.1673 10.8327 11.6673 10.8327ZM7.50065 5.83268C7.00065 5.83268 6.66732 5.49935 6.66732 4.99935V2.49935C6.66732 1.99935 7.00065 1.66602 7.50065 1.66602C8.00065 1.66602 8.33398 1.99935 8.33398 2.49935V4.99935C8.33398 5.49935 8.00065 5.83268 7.50065 5.83268ZM10.834 5.83268C10.334 5.83268 10.0007 5.49935 10.0007 4.99935V2.49935C10.0007 1.99935 10.334 1.66602 10.834 1.66602C11.334 1.66602 11.6673 1.99935 11.6673 2.49935V4.99935C11.6673 5.49935 11.334 5.83268 10.834 5.83268ZM7.50065 18.3327C7.00065 18.3327 6.66732 17.9993 6.66732 17.4993V14.9993C6.66732 14.4993 7.00065 14.166 7.50065 14.166C8.00065 14.166 8.33398 14.4993 8.33398 14.9993V17.4993C8.33398 17.9993 8.00065 18.3327 7.50065 18.3327ZM10.834 18.3327C10.334 18.3327 10.0007 17.9993 10.0007 17.4993V14.9993C10.0007 14.4993 10.334 14.166 10.834 14.166C11.334 14.166 11.6673 14.4993 11.6673 14.9993V17.4993C11.6673 17.9993 11.334 18.3327 10.834 18.3327Z" fill="white"/>
</svg>
