<svg width="212" height="210" viewBox="0 0 212 210" fill="none" xmlns="http://www.w3.org/2000/svg">
<path d="M207.251 36.4319L198.222 24.9455C198.218 24.9412 198.214 24.9369 198.214 24.9326L197.486 24.0074C196.602 22.9914 195.525 22.1617 194.317 21.5669C193.109 20.972 191.794 20.624 190.45 20.543L128.963 190.478L58.2305 186.718L67.6467 198.708C68.8433 200.232 70.348 201.487 72.0625 202.39C73.777 203.293 75.6628 203.825 77.5967 203.949L139.629 207.939C142.578 208.13 145.511 207.366 147.993 205.761C150.474 204.156 152.373 201.794 153.409 199.026L209.317 49.7687C210.145 47.5551 210.39 45.1657 210.028 42.8301C209.667 40.4945 208.71 38.2911 207.251 36.4319Z" fill="#6562F1"/>
<path d="M199.386 34.3597L142.781 185.489C141.745 188.257 139.846 190.618 137.364 192.223C134.882 193.828 131.95 194.592 129.001 194.402L65.3764 190.309C63.7809 190.206 62.2319 189.73 60.853 188.921C59.4742 188.112 58.3038 186.991 57.4356 185.648C56.5673 184.306 56.0253 182.779 55.8528 181.189C55.6803 179.6 55.8821 177.992 56.4421 176.495L113.047 25.3652C114.084 22.5969 115.984 20.2357 118.467 18.6307C120.949 17.0256 123.882 16.2619 126.832 16.4525L190.452 20.5452C191.796 20.6262 193.111 20.9743 194.319 21.5691C195.527 22.1639 196.604 22.9936 197.488 24.0096C197.75 24.3025 197.993 24.6116 198.216 24.9349C198.216 24.9392 198.22 24.9435 198.224 24.9478C199.166 26.305 199.764 27.8708 199.966 29.5104C200.169 31.15 199.97 32.8142 199.386 34.3597Z" fill="#8380F3"/>
<path d="M126.21 47.6699L114.563 78.8422L159.617 81.7264L171.237 50.568L126.21 47.6699Z" fill="#9B99F5"/>
<path d="M128.999 194.399L65.3744 190.306C64.0028 190.222 62.6623 189.861 61.4344 189.244C60.2064 188.627 59.1164 187.767 58.2305 186.717L67.6467 198.707C68.8433 200.231 70.348 201.486 72.0625 202.389C73.777 203.292 75.6628 203.824 77.5967 203.948L139.629 207.938C142.471 208.121 145.3 207.415 147.724 205.919L137.093 192.379C134.67 193.876 131.841 194.582 128.999 194.399Z" fill="#5350EF"/>
<path d="M147.744 83.2903L134.987 67.043L69.9971 118.071L82.7538 134.319C92.1477 146.283 114.312 144.559 132.258 130.468C150.204 116.376 157.138 95.2548 147.744 83.2903Z" fill="#FFD600"/>
<path d="M133.522 90.2647L148.831 109.763C149.372 108.541 149.853 107.292 150.271 106.022L136.23 88.1387L133.522 90.2647ZM143.202 119.319L128.348 100.402L125.641 102.528L140.998 122.088C141.773 121.177 142.507 120.254 143.202 119.319ZM118.086 109.63L115.378 111.756L130.886 131.508C131.345 131.167 131.803 130.824 132.257 130.468C132.711 130.111 133.154 129.747 133.594 129.382L118.086 109.63ZM106.225 116.826L103.518 118.952L118.831 138.455C119.917 137.994 120.988 137.499 122.043 136.97L106.225 116.826ZM108.212 141.656L92.1522 121.201L89.4443 123.327L104.237 142.167C105.541 142.068 106.869 141.893 108.212 141.656Z" fill="#FFDC28"/>
<path d="M68.7979 17.671L53.5683 9.64648L18.2607 76.6574L33.4903 84.6819C43.584 89.9998 59.67 79.3101 69.4198 60.8055C79.17 42.3013 78.8915 22.9894 68.7979 17.671Z" fill="#DFDFDF"/>
<path d="M76.3166 39.145L56.9065 28.918L55.3012 31.9641L75.795 42.7618C76.0173 41.5347 76.1912 40.3291 76.3166 39.145ZM51.2498 49.2865L49.6446 52.333L68.5959 62.3182C68.8765 61.8176 69.1509 61.3136 69.4192 60.8063C69.6859 60.2981 69.9465 59.7867 70.2007 59.2721L51.2498 49.2865ZM58.1416 76.2674L39.1619 66.2672L37.5566 69.3133L55.4527 78.7424C56.3573 77.9724 57.2535 77.1474 58.1412 76.2674H58.1416Z" fill="#F4F4F4"/>
<path d="M136.366 17.0625L130.18 33.5793L176.443 36.5569L182.63 20.0402L136.366 17.0625Z" fill="#6562F1"/>
<path d="M119.525 114.158C137.471 100.066 144.403 78.9438 135.009 66.9799C125.615 55.0159 103.451 56.7407 85.5048 70.8324C67.5588 84.9241 60.6265 106.046 70.0209 118.01C79.4154 129.974 101.579 128.249 119.525 114.158Z" fill="#FFDC28"/>
<path d="M80.6807 159.413L80.901 155.977L88.4951 156.464L88.2748 159.9L80.6807 159.413ZM97.4866 160.497L97.707 157.061L134.592 159.426L134.371 162.862L97.4866 160.497ZM74.2119 175.01L74.4318 171.574L82.026 172.061L81.8056 175.497L74.2119 175.01ZM89.6601 176.003L89.8805 172.567L131.105 175.211L130.884 178.647L89.6601 176.003Z" fill="#6562F1"/>
<path d="M54.2014 52.7591C63.9466 34.2522 63.6633 14.9402 53.5687 9.62465C43.474 4.30907 27.3905 15.0028 17.6453 33.5097C7.90007 52.0167 8.18337 71.3287 18.2781 76.6442C28.3728 81.9598 44.4562 71.2661 54.2014 52.7591Z" fill="#EDEDED"/>
<path d="M60.1201 130.092C58.5723 128.77 57.1774 127.279 55.9616 125.647C52.3534 120.804 50.3914 114.931 50.1289 108.192L53.5696 108.058C53.8042 114.09 55.5377 119.315 58.7223 123.59C59.7842 125.016 61.0025 126.318 62.3546 127.473L60.1201 130.092ZM53.8946 101.465L50.4818 101.013C50.806 98.6047 51.3025 96.2226 51.9674 93.8852L55.2807 94.8216C54.6607 97.0002 54.1974 99.2203 53.8946 101.465ZM92.4156 46.472L89.0321 45.8342C90.6666 37.1659 90.7402 29.073 89.2443 22.4312L92.6033 21.6751C94.2012 28.7713 94.1362 37.3458 92.4156 46.472ZM87.0482 15.9027C85.81 13.168 83.9865 10.7385 81.7065 8.78582L83.9078 6.13867C86.5747 8.41145 88.7094 11.2426 90.161 14.4317L87.0482 15.9027Z" fill="#BEBEBE"/>
<path d="M208.608 35.3706L199.489 23.7556C198.462 22.3217 197.128 21.1352 195.585 20.2827C194.041 19.4302 192.326 18.9332 190.566 18.828L126.943 14.7335C123.623 14.5053 120.318 15.3589 117.523 17.1664C114.728 18.9739 112.594 21.6381 111.44 24.76L97.6513 61.5717C92.9245 63.6629 88.4796 66.3404 84.4212 69.5411C75.477 76.5637 68.8826 85.5144 65.8529 94.7443C62.7427 104.22 63.7342 112.882 68.6446 119.136L73.6859 125.557L54.834 175.889C54.1703 177.637 53.9292 179.516 54.1304 181.375C54.3316 183.233 54.9694 185.018 55.9916 186.583C56.2809 187.028 56.5989 187.454 56.9436 187.859L66.2987 199.774C67.6454 201.487 69.338 202.897 71.2662 203.912C73.1943 204.928 75.3148 205.525 77.4894 205.667L139.522 209.659C139.865 209.681 140.206 209.692 140.545 209.692C143.699 209.7 146.779 208.739 149.368 206.94C151.958 205.141 153.933 202.59 155.026 199.632L210.932 50.3725C211.856 47.8812 212.127 45.195 211.72 42.5693C211.314 39.9435 210.242 37.4658 208.608 35.3706ZM180.206 21.6111L175.281 34.7595L132.607 32.0129L137.532 18.865L180.206 21.6111ZM69.1241 95.818C71.9442 87.2272 78.1315 78.8567 86.5472 72.249C96.1735 64.691 107.039 60.7868 116.281 60.7868C123.525 60.7868 129.771 63.1873 133.635 68.1076C142.427 79.3064 135.611 99.3857 118.439 112.868C108.813 120.426 97.9474 124.331 88.7059 124.33C81.4629 124.33 75.2158 121.93 71.3525 117.01C67.1758 111.691 66.3844 104.164 69.1241 95.818ZM92.7422 127.527L102.942 140.517C94.7447 140.876 88.0887 138.325 84.1092 133.257L78.4857 126.094C81.7594 127.229 85.2046 127.79 88.6693 127.753C89.6519 127.753 90.6544 127.713 91.6766 127.634C92.0308 127.607 92.3867 127.564 92.7426 127.527H92.7422ZM107.003 140.114L96.6585 126.94C100.275 126.214 103.802 125.099 107.179 123.614L117.74 137.064C114.297 138.511 110.692 139.535 107.003 140.114ZM120.963 135.594L110.374 122.108C113.462 120.526 116.412 118.689 119.194 116.616L129.825 130.157C127.038 132.228 124.072 134.048 120.963 135.594ZM132.533 128.03L121.903 114.491C124.576 112.28 127.06 109.849 129.329 107.225L139.917 120.709C137.677 123.363 135.206 125.813 132.533 128.03ZM142.11 117.927L131.55 104.479C133.794 101.551 135.714 98.3884 137.277 95.0473L147.633 108.236C146.187 111.676 144.332 114.93 142.11 117.927ZM148.997 104.399L138.777 91.3828C138.898 91.0462 139.023 90.7101 139.134 90.3727C140.661 85.7179 141.194 81.2611 140.764 77.1878L146.392 84.3554C150.519 89.6127 151.206 96.8281 148.997 104.399ZM58.0578 177.097L76.1751 128.726L81.4014 135.383C85.8074 140.995 92.8446 144.001 101.426 144.001C102.409 144.001 103.412 143.961 104.434 143.882C114.119 143.129 124.379 138.846 133.323 131.823C142.266 124.801 148.861 115.85 151.891 106.62C155.001 97.1448 154.01 88.483 149.1 82.229L136.342 65.9816C131.432 59.7281 123.253 56.7104 113.31 57.4829C109.44 57.8073 105.627 58.6155 101.958 59.8886L114.663 25.9676C115.561 23.5394 117.221 21.4672 119.395 20.0614C121.569 18.6556 124.139 17.9918 126.722 18.1695L133.942 18.6339L128.569 32.9778C128.475 33.2295 128.441 33.4998 128.47 33.767C128.499 34.0342 128.59 34.291 128.736 34.5167C128.882 34.7423 129.079 34.9307 129.311 35.0667C129.542 35.2026 129.803 35.2824 130.071 35.2996L176.334 38.2772C176.371 38.2798 176.408 38.2807 176.445 38.2807C176.796 38.2805 177.138 38.1734 177.426 37.9737C177.714 37.774 177.934 37.4912 178.057 37.163L183.796 21.8422L190.344 22.264C191.672 22.3494 192.961 22.7445 194.108 23.4176C195.256 24.0907 196.23 25.0231 196.952 26.1401C197.675 27.2571 198.125 28.5278 198.269 29.8503C198.412 31.1728 198.243 32.5105 197.777 33.7563L141.171 184.885C140.274 187.314 138.614 189.386 136.44 190.791C134.266 192.197 131.695 192.861 129.113 192.683L65.4905 188.589C64.163 188.504 62.8739 188.108 61.7265 187.435C60.5791 186.762 59.6052 185.83 58.8828 184.713C58.1604 183.596 57.7096 182.325 57.5664 181.003C57.4232 179.68 57.5916 178.342 58.0582 177.097H58.0578ZM139.744 206.223L77.7106 202.231C76.0192 202.121 74.37 201.656 72.8702 200.867C71.3705 200.077 70.054 198.98 69.0066 197.648L64.5373 191.955C64.7794 191.985 65.0235 192.009 65.2693 192.025L128.892 196.119C129.234 196.141 129.576 196.153 129.915 196.153C132.251 196.155 134.557 195.628 136.66 194.612L145.093 205.352C143.399 206.044 141.57 206.342 139.744 206.223ZM207.707 49.1653L151.802 198.424C151.048 200.447 149.764 202.23 148.085 203.587L139.586 192.763C141.761 191.013 143.422 188.708 144.395 186.092L201 34.963C201.343 34.0502 201.574 33.0994 201.688 32.1313L205.901 37.4961C207.172 39.1258 208.005 41.0533 208.321 43.0956C208.637 45.1379 208.426 47.2271 207.708 49.1649L207.707 49.1653Z" fill="#292956"/>
<path d="M158.007 81.1264L161.232 82.3293L172.853 51.1708C172.947 50.9192 172.98 50.6491 172.951 50.3822C172.922 50.1153 172.831 49.8588 172.685 49.6334C172.539 49.408 172.342 49.2199 172.111 49.084C171.879 48.9482 171.619 48.8685 171.351 48.8512L126.323 45.9531L126.102 49.3891L168.817 52.1383L158.007 81.1264ZM80.6816 159.417L80.902 155.981L88.4961 156.468L88.2758 159.904L80.6816 159.417ZM97.488 160.501L97.7084 157.065L134.593 159.43L134.373 162.866L97.488 160.501ZM74.2129 175.014L74.4328 171.578L82.0269 172.065L81.8066 175.501L74.2129 175.014ZM89.6611 176.007L89.8814 172.571L131.106 175.215L130.885 178.651L89.6611 176.007Z" fill="#292956"/>
<path d="M70.9448 61.6101C75.7923 52.4103 78.3951 42.701 78.2738 34.2707C78.1464 25.4646 75.0672 19.0295 69.602 16.1504L54.3763 8.1276L54.3729 8.12544C48.9082 5.24634 41.8593 6.34505 34.5243 11.2197C27.5021 15.8857 20.9654 23.522 16.1178 32.7222C11.2702 41.9225 8.66826 51.6318 8.78919 60.0617C8.91615 68.8677 11.9954 75.3029 17.4601 78.1824L32.6896 86.2069C34.7142 87.2613 36.9671 87.8013 39.2496 87.7794C43.3423 87.7794 47.8831 86.2065 52.5387 83.113C59.5605 78.4467 66.0972 70.8104 70.9448 61.6101ZM56.5557 75.432L44.5134 69.0872C48.5876 64.9133 52.0789 60.2077 54.8923 55.0984L67.0763 61.5176C64.2605 66.6399 60.7167 71.3268 56.5557 75.432ZM68.6815 58.4715L56.4972 52.0523C59.1208 46.8428 61.028 41.3025 62.1671 35.582L74.2095 41.9268C73.1764 47.6799 71.3143 53.2528 68.6815 58.4715ZM74.8309 34.3206C74.8456 35.6421 74.7935 36.9636 74.6747 38.2799L62.7253 31.9842C62.9576 30.0806 63.064 28.1638 63.0438 26.2462C62.9835 22.0803 62.2549 18.4536 60.9337 15.4743L67.9972 19.196C72.2965 21.461 74.7229 26.8327 74.8309 34.3206ZM12.2316 60.0122C12.1185 52.1478 14.5801 43.0263 19.1639 34.327C23.7472 25.6277 29.8794 18.4399 36.4299 14.0872C40.5054 11.3785 44.3946 9.99794 47.8004 9.99794C49.5274 9.97585 51.2332 10.3789 52.7677 11.1715C57.0665 13.4365 59.4933 18.8078 59.6013 26.2957C59.7145 34.1596 57.2529 43.282 52.6691 51.9808C48.0858 60.6801 41.954 67.8684 35.4035 72.2206C29.1659 76.3663 23.3638 77.4013 19.0653 75.1363C14.7665 72.8713 12.3397 67.5005 12.2316 60.0122ZM34.2949 83.1608L27.2439 79.4455C30.444 78.8495 33.8443 77.391 37.3091 75.0886C38.9021 74.021 40.4228 72.8494 41.8615 71.5816L53.8108 77.8777C52.7922 78.7201 51.7316 79.5104 50.6331 80.2456C44.3954 84.3904 38.5929 85.4258 34.2949 83.1608ZM60.1203 130.094L62.3548 127.475C61.0028 126.32 59.7844 125.018 58.7225 123.592C55.5379 119.317 53.8044 114.092 53.5694 108.06L50.1291 108.194C50.3916 114.933 52.3541 120.806 55.9618 125.649C57.1776 127.281 58.5725 128.772 60.1203 130.094ZM50.4816 101.015L53.8943 101.467C54.1973 99.2223 54.6607 97.0021 55.281 94.8236L51.9676 93.8871C51.3025 96.2245 50.8059 98.6067 50.4816 101.015ZM89.0323 45.8361L92.4158 46.4739C94.1364 37.3482 94.2018 28.7732 92.6035 21.6766L89.2449 22.4328C90.7404 29.0754 90.6668 37.1678 89.0323 45.8357V45.8361ZM87.0484 15.9046L90.1612 14.4337C88.7096 11.2445 86.5749 8.4134 83.9081 6.14062L81.7068 8.78734C83.9867 10.7401 85.8102 13.17 87.0484 15.9046Z" fill="#292956"/>
<path d="M114.741 95.149C114.504 94.0453 113.554 93.2128 111.892 92.6521C115.081 91.8573 117.401 90.2161 118.852 87.7283C119.386 86.8269 119.635 86.0255 119.597 85.3226C119.558 84.6196 119.253 84.0285 118.677 83.5488C118.103 83.0686 117.385 82.6766 116.528 82.3721C115.67 82.0676 114.622 81.8063 113.386 81.5886L117.016 76.4804L113.203 76.1202L109.674 81.0865C109.014 81.0242 107.998 80.9425 106.625 80.8417L110.183 75.8349L106.37 75.4747L102.741 80.5829C102.186 80.545 101.381 80.4763 100.325 80.3765L95.0909 79.8602L92.7285 83.1847L95.4764 83.4443C96.7308 83.5628 97.1386 84.0918 96.7003 85.0308L92.5662 90.8486C92.7315 90.8643 92.8585 90.8837 92.948 90.9065L92.5517 90.8691L86.7615 99.0176C86.14 99.6942 85.4164 99.9938 84.591 99.9158L81.8434 99.6563L78.4398 103.293L83.3913 103.761C83.7049 103.791 84.1561 103.837 84.7461 103.899C85.3354 103.962 85.7784 104.008 86.0756 104.036L82.4026 109.205L86.2159 109.565L89.8457 104.457C90.5289 104.536 91.5309 104.638 92.8513 104.763L89.236 109.85L93.0484 110.211L96.7213 105.042C98.1134 105.116 99.3856 105.128 100.539 105.078C101.693 105.028 102.862 104.89 104.044 104.662C105.227 104.435 106.308 104.116 107.288 103.703C108.268 103.292 109.227 102.74 110.167 102.05C111.106 101.36 111.975 100.541 112.772 99.5919C114.322 97.7344 114.978 96.2532 114.741 95.149ZM104.107 84.497C104.223 84.5079 104.551 84.5353 105.092 84.5791C105.634 84.6229 106.084 84.6583 106.444 84.685C106.804 84.7119 107.27 84.774 107.844 84.8715C108.418 84.9689 108.887 85.071 109.251 85.1774C109.616 85.2839 109.991 85.4383 110.375 85.6405C110.76 85.8426 111.022 86.0692 111.16 86.3202C111.299 86.5712 111.349 86.8789 111.31 87.243C111.271 87.6071 111.094 88.0121 110.777 88.458C110.508 88.8364 110.189 89.1741 109.82 89.4711C109.451 89.7678 109.042 90.0069 108.597 90.1884C108.151 90.3698 107.715 90.5235 107.291 90.6492C106.868 90.7749 106.378 90.8621 105.824 90.9106C105.271 90.9593 104.793 90.9935 104.392 91.0132C103.99 91.033 103.51 91.0274 102.951 90.9961C102.392 90.9648 101.969 90.9395 101.684 90.9197C101.398 90.8999 101.015 90.8636 100.532 90.8109C100.05 90.7582 99.7682 90.7278 99.6855 90.72L104.108 84.4969L104.107 84.497ZM104.709 99.2847C104.331 99.5808 103.937 99.8322 103.526 100.039C103.115 100.245 102.645 100.417 102.116 100.554C101.587 100.692 101.094 100.796 100.638 100.869C100.181 100.941 99.6558 100.992 99.0621 101.023C98.4673 101.053 97.9567 101.066 97.5277 101.062C97.0995 101.057 96.5978 101.039 96.0219 101.006C95.4469 100.973 95.0019 100.942 94.6884 100.912C94.3748 100.883 93.9812 100.842 93.5073 100.79C93.0328 100.738 92.7302 100.706 92.5981 100.693L97.4668 93.8417C97.5987 93.8541 97.9954 93.8846 98.6573 93.9324C99.3192 93.9804 99.8556 94.0243 100.268 94.0633C100.681 94.1023 101.236 94.176 101.934 94.2855C102.631 94.3943 103.199 94.5126 103.637 94.6405C104.074 94.7685 104.525 94.9443 104.991 95.1688C105.457 95.393 105.786 95.6439 105.976 95.9215C106.166 96.1994 106.251 96.5386 106.229 96.9405C106.208 97.3422 106.025 97.7864 105.679 98.2731C105.41 98.6518 105.087 98.9885 104.709 99.2847Z" fill="#292956"/>
</svg>
