<svg width="256" height="243" viewBox="0 0 256 243" fill="none" xmlns="http://www.w3.org/2000/svg">
<g clip-path="url(#clip0_13052_26678)">
<path d="M255.537 120.317L235.563 191.965L222.39 239.229C221.934 240.862 220.449 241.987 218.752 241.987H156.091C155.461 241.987 154.876 241.833 154.361 241.569C153.847 241.306 153.403 240.926 153.063 240.47L150.8 237.712L148.093 234.408L155.885 224.867L185.599 118.292C186.055 116.652 187.54 115.527 189.237 115.527H245.232L249.43 110.391L254.566 116.646C255.479 117.565 255.916 118.934 255.531 120.317H255.537Z" fill="#796DFF"/>
<path d="M218.752 242.307H156.091C155.428 242.307 154.779 242.153 154.213 241.851C153.673 241.574 153.185 241.163 152.812 240.661L147.849 234.612C147.753 234.496 147.753 234.323 147.849 234.207L155.596 224.725L185.29 118.207C185.779 116.439 187.405 115.211 189.237 115.211H245.084L249.185 110.19C249.243 110.113 249.34 110.074 249.436 110.074C249.533 110.074 249.623 110.119 249.687 110.19L254.823 116.445C255.858 117.487 256.251 118.978 255.846 120.405L222.699 239.318C222.21 241.079 220.584 242.307 218.752 242.307ZM148.518 234.413L153.32 240.269C153.648 240.706 154.053 241.054 154.516 241.285C154.998 241.536 155.544 241.671 156.097 241.671H218.758C220.301 241.671 221.67 240.636 222.082 239.151L255.228 120.225C255.569 119.017 255.235 117.763 254.348 116.863L249.436 110.891L245.482 115.725C245.425 115.802 245.328 115.841 245.232 115.841H189.237C187.694 115.841 186.325 116.882 185.914 118.367L156.2 224.962C156.187 225.007 156.168 225.046 156.142 225.078L148.518 234.413Z" fill="#19116E"/>
<path d="M213.384 235.48H150.723C148.222 235.48 146.415 233.094 147.084 230.69L180.231 111.784C180.687 110.151 182.172 109.02 183.869 109.02H246.53C249.031 109.02 250.838 111.405 250.169 113.809L217.022 232.715C216.566 234.348 215.081 235.48 213.384 235.48Z" fill="#19116E"/>
<path d="M213.384 235.802H150.723C149.431 235.802 148.242 235.211 147.457 234.182C146.679 233.153 146.429 231.848 146.776 230.601L179.922 111.695C180.411 109.934 182.037 108.699 183.87 108.699H246.531C247.823 108.699 249.012 109.291 249.797 110.319C250.574 111.348 250.825 112.653 250.478 113.9L217.331 232.806C216.843 234.568 215.216 235.802 213.384 235.802ZM183.87 109.342C182.327 109.342 180.957 110.384 180.54 111.869L147.393 230.775C147.097 231.823 147.309 232.922 147.972 233.79C148.627 234.658 149.63 235.153 150.723 235.153H213.384C214.927 235.153 216.296 234.111 216.714 232.626L249.861 113.727C250.157 112.679 249.944 111.579 249.282 110.711C248.626 109.844 247.624 109.349 246.531 109.349H183.87V109.342Z" fill="#19116E"/>
<path d="M245.058 112.691H229.828L229.192 114.974C228.986 115.7 228.324 116.208 227.565 116.208H199.356C198.237 116.208 197.434 115.141 197.73 114.067L198.115 112.691H183.458C182.416 112.691 181.503 113.386 181.227 114.382L149.308 228.872C148.897 230.35 150.009 231.81 151.539 231.81H213.139C214.181 231.81 215.094 231.115 215.37 230.119L247.282 115.629C247.694 114.151 246.582 112.691 245.052 112.691H245.058Z" fill="white"/>
<path d="M235.563 191.963L222.39 239.228C221.934 240.861 220.449 241.986 218.752 241.986H156.091C155.461 241.986 154.876 241.831 154.361 241.568C153.847 241.304 153.403 240.925 153.063 240.468L150.8 237.71H213.448C216.052 237.71 218.34 235.975 219.047 233.467L229.867 194.844L235.556 191.957L235.563 191.963Z" fill="#19116E"/>
<path d="M218.752 242.308H156.091C155.429 242.308 154.779 242.153 154.214 241.851C153.674 241.575 153.185 241.163 152.812 240.662L150.562 237.917C150.485 237.82 150.466 237.685 150.517 237.576C150.568 237.467 150.684 237.39 150.806 237.39H213.454C215.904 237.39 218.083 235.744 218.739 233.378L229.559 194.754C229.584 194.671 229.642 194.593 229.719 194.555L235.409 191.668C235.524 191.61 235.659 191.623 235.756 191.707C235.852 191.79 235.897 191.919 235.859 192.041L222.686 239.305C222.198 241.067 220.571 242.295 218.739 242.295L218.752 242.308ZM151.488 238.032L153.32 240.263C153.648 240.7 154.053 241.048 154.516 241.279C154.998 241.53 155.544 241.665 156.097 241.665H218.758C220.301 241.665 221.67 240.63 222.082 239.145L235.062 192.581L230.15 195.069L219.369 233.552C218.63 236.187 216.2 238.032 213.461 238.032H151.488Z" fill="#19116E"/>
</g>
<g clip-path="url(#clip1_13052_26678)">
<path d="M40.9017 52.2778C49.9195 41.6857 50.3987 27.2834 41.9721 20.1092C33.5454 12.935 19.404 15.7058 10.3862 26.2979C1.36844 36.89 0.889238 51.2924 9.31587 58.4665C17.7425 65.6407 31.884 62.8699 40.9017 52.2778Z" fill="#C2A300"/>
<path d="M20.6299 62.7847C16.2455 62.7847 12.2533 61.3961 9.10962 58.7153C4.95665 55.1795 2.78373 49.8372 2.98945 43.6592C3.19517 37.5133 5.73453 31.271 10.1447 26.0958C14.5548 20.9207 20.3021 17.417 26.3387 16.2277C32.401 15.0384 38.0262 16.3306 42.1791 19.8664C50.7294 27.1437 50.2601 41.7756 41.1441 52.4859C36.734 57.6674 30.9867 61.1711 24.9501 62.354C23.4779 62.6433 22.0378 62.7847 20.6299 62.7847ZM30.6524 16.4463C29.2895 16.4463 27.888 16.5877 26.4608 16.8642C20.5657 18.0213 14.9469 21.4479 10.6332 26.5137C6.31955 31.5796 3.83162 37.6805 3.63233 43.6849C3.43303 49.6637 5.52881 54.8259 9.52749 58.2332C13.5262 61.6404 18.9585 62.8812 24.8279 61.7304C30.7231 60.5732 36.3418 57.1467 40.6555 52.0809C49.5465 41.6406 50.0415 27.4137 41.7613 20.3678C38.7333 17.7899 34.8889 16.4527 30.6524 16.4527V16.4463Z" fill="#19116E"/>
<path d="M37.9112 49.7388C46.929 39.1467 47.4082 24.7443 38.9816 17.5701C30.555 10.396 16.4135 13.1667 7.39572 23.7588C-1.62204 34.3509 -2.10124 48.7533 6.32539 55.9275C14.752 63.1016 28.8935 60.3308 37.9112 49.7388Z" fill="#FFD600"/>
<path d="M17.6533 60.2264C13.3782 60.2264 9.33451 58.9149 6.11371 56.1763C-2.43654 48.8989 -1.96724 34.2671 7.14874 23.5568C11.5589 18.3816 17.3062 14.8715 23.3428 13.6887C29.4051 12.4993 35.0302 13.7915 39.1832 17.3273C47.7335 24.6047 47.2642 39.2365 38.1482 49.9468C32.4652 56.6263 24.7314 60.2264 17.6469 60.2264H17.6533ZM27.6629 13.9008C26.3 13.9008 24.8985 14.0422 23.4713 14.3187C17.5762 15.4758 11.9574 18.9024 7.64375 23.9682C-1.24722 34.4085 -1.74223 48.6353 6.538 55.6813C14.8118 62.7272 28.7815 59.9628 37.666 49.5225C46.557 39.0822 47.052 24.8554 38.7718 17.8095C35.7438 15.2316 31.8994 13.8944 27.6629 13.8944V13.9008Z" fill="#19116E"/>
<path d="M36.0974 48.1917C28.3765 57.2627 16.374 59.8213 8.89736 54.1383C8.87808 54.1383 8.87808 54.1255 8.87165 54.119C8.67236 53.9712 8.47306 53.8105 8.27377 53.6433C0.848562 47.3239 1.27286 34.6335 9.21237 25.3054C17.1583 15.9708 29.6172 13.5279 37.036 19.8474C37.2353 20.0145 37.4217 20.1817 37.6017 20.3617C37.6017 20.3617 37.621 20.3617 37.6275 20.381C44.4291 26.8547 43.8184 39.1143 36.091 48.1917H36.0974Z" fill="#19116E"/>
<path d="M18.2834 57.4942C14.7861 57.4942 11.456 56.4913 8.69809 54.3955C8.69809 54.3955 8.66595 54.3698 8.65309 54.357C8.46666 54.2155 8.26737 54.0548 8.06165 53.8877C0.514291 47.4654 0.919301 34.55 8.96167 25.0997C12.8511 20.5289 17.9298 17.4367 23.2528 16.3952C28.6079 15.3473 33.5709 16.4852 37.2418 19.6096C37.4411 19.7767 37.6211 19.9439 37.8075 20.1174C37.8204 20.1303 37.8332 20.1367 37.8461 20.1496C44.8277 26.7905 44.1655 39.2044 36.3353 48.3975C31.3209 54.2927 24.5257 57.4878 18.2769 57.4878L18.2834 57.4942ZM9.09025 53.8877C16.4897 59.5128 28.2479 56.922 35.8532 47.9861C43.4584 39.0501 44.1462 27.0283 37.4089 20.6189C37.4089 20.6189 37.4089 20.6189 37.4025 20.6125C37.2096 20.426 37.0296 20.2589 36.8368 20.0982C33.3267 17.1088 28.5501 16.0159 23.3878 17.0252C18.2062 18.041 13.2561 21.056 9.46312 25.5176C1.64575 34.6978 1.2086 47.2082 8.48595 53.3991C8.67881 53.5598 8.87167 53.7141 9.06453 53.862C9.07096 53.8684 9.08382 53.8748 9.09025 53.8877Z" fill="#19116E"/>
<path d="M36.0975 48.1889C28.3765 57.2599 16.374 59.8185 8.8974 54.1355C8.87811 54.1355 8.87811 54.1227 8.87168 54.1162C2.05077 47.6425 2.6615 35.3764 10.3889 26.3055C18.1227 17.2216 30.1251 14.663 37.6082 20.3589C37.6082 20.3589 37.6275 20.3589 37.6339 20.3781C44.4355 26.8519 43.8248 39.1115 36.0975 48.1889Z" fill="white"/>
<path d="M18.2833 57.4912C14.7861 57.4912 11.456 56.4883 8.69803 54.3925C8.69803 54.3925 8.65303 54.354 8.63374 54.3347C1.65211 47.6745 2.3207 35.2863 10.1381 26.0932C17.9683 16.8936 30.1122 14.2578 37.7881 20.0952C37.8074 20.108 37.8267 20.1273 37.846 20.1466C44.8276 26.7875 44.1655 39.2014 36.3352 48.3945C31.3208 54.2897 24.5256 57.4848 18.2769 57.4848L18.2833 57.4912ZM9.09018 53.8847C16.4897 59.5098 28.2479 56.9126 35.8467 47.9831C43.4519 39.0471 44.1397 27.0253 37.4024 20.6159C37.4024 20.6159 37.4024 20.6159 37.396 20.6095C30.0029 14.9779 18.2383 17.5687 10.6267 26.511C3.01501 35.4534 2.33999 47.4752 9.09018 53.8847Z" fill="#19116E"/>
<path d="M27.7079 35.7288L26.3707 35.6966C28.5308 35.7481 30.3308 33.7616 30.3822 31.2737C30.408 30.0265 29.9965 28.8886 29.3086 28.0529C28.6208 27.2235 27.65 26.6964 26.57 26.6707L25.9014 26.6578L25.9721 23.527L23.9535 23.482L23.8828 26.6128L22.3077 26.5742L22.3785 23.4434L20.3598 23.3984L20.2891 26.5292L19.1126 26.5035L16.1811 26.4392L16.1297 28.85L17.3705 28.8757C18.3026 28.895 19.0419 29.7886 19.0162 30.8686L18.7655 41.939C18.7398 43.019 17.9619 43.874 17.0297 43.8547L15.789 43.829L15.7375 46.2398L18.6691 46.3041L19.8455 46.3298L19.7748 49.4606L21.7934 49.5056L21.8642 46.3748L23.4392 46.4134L23.3685 49.5442L25.3871 49.5892L25.4578 46.4584L27.5729 46.5034C30.1251 46.5612 32.2466 44.2469 32.3623 41.3218C32.478 38.3967 30.3244 35.7866 27.7143 35.7288H27.7079ZM23.8506 28.0207L25.2135 28.0529C25.4385 28.0529 25.6571 28.0914 25.8628 28.1493C27.1679 28.5222 28.1129 29.8979 28.0808 31.5115C28.0615 32.4501 27.7079 33.2923 27.1614 33.8902C26.7629 34.3273 26.2678 34.6359 25.715 34.7709C25.5028 34.8223 25.2842 34.848 25.0592 34.8416L23.6963 34.8095L22.1213 34.7709L22.2756 27.9821L23.8506 28.0207ZM25.8371 45.0312H25.49L23.4713 44.9798L21.8963 44.9412L22.0892 36.4745L23.6642 36.5131L25.6828 36.5581H26.03C28.055 36.6095 29.6558 38.5446 29.6044 40.8782C29.5529 43.2183 27.8686 45.0762 25.8371 45.0312Z" fill="#FFD600"/>
<path d="M25.3871 49.9152C25.3871 49.9152 25.3871 49.9152 25.3807 49.9152L23.362 49.8702C23.182 49.8702 23.047 49.7223 23.047 49.5423L23.1113 46.733L22.1727 46.7137L22.1084 49.5231C22.1084 49.6066 22.0699 49.6902 22.012 49.7481C21.9477 49.8059 21.8834 49.8381 21.7806 49.8381L19.7619 49.7931C19.5819 49.7931 19.4469 49.6452 19.4469 49.4652L19.5112 46.6558L15.7247 46.5723C15.5447 46.5723 15.4097 46.418 15.4097 46.2444L15.4611 43.8336C15.4611 43.6536 15.6411 43.5057 15.789 43.5186L17.0297 43.5443C17.7883 43.5636 18.4183 42.8436 18.4376 41.9436L18.6883 30.8732C18.7012 30.4297 18.5598 30.0118 18.2962 29.6968C18.0455 29.3946 17.7112 29.2211 17.3512 29.2146L16.1104 29.1889C15.9304 29.1889 15.7954 29.041 15.7954 28.861L15.8468 26.4503C15.8468 26.3667 15.8854 26.2831 15.9433 26.2253C16.0075 26.1674 16.104 26.1288 16.1747 26.1353L19.9612 26.2188L20.0255 23.4095C20.0255 23.3259 20.0641 23.2423 20.1219 23.1845C20.1862 23.1266 20.2634 23.088 20.3534 23.0944L22.372 23.1395C22.552 23.1395 22.687 23.2873 22.687 23.4673L22.6227 26.2767L23.5613 26.296L23.6256 23.4866C23.6256 23.403 23.6642 23.3195 23.722 23.2616C23.7863 23.2037 23.8763 23.1716 23.9535 23.1716L25.9721 23.2166C26.1521 23.2166 26.2871 23.3645 26.2871 23.5445L26.2228 26.3538H26.57C27.7079 26.386 28.7686 26.9196 29.5465 27.8646C30.3179 28.7968 30.723 30.0118 30.6972 31.2975C30.6715 32.5833 30.2087 33.779 29.3986 34.6726C29.0965 35.0069 28.7622 35.2834 28.4022 35.4955C29.3986 35.6755 30.3372 36.1898 31.0894 36.9934C32.163 38.1313 32.7416 39.7192 32.6773 41.3585C32.5616 44.4508 30.2858 46.9194 27.56 46.8487L25.7664 46.8101L25.7021 49.6195C25.7021 49.7031 25.6635 49.7866 25.6057 49.8445C25.5478 49.9023 25.4642 49.9345 25.3807 49.9345L25.3871 49.9152ZM23.6963 49.2338L25.0721 49.2659L25.1364 46.4565C25.1364 46.373 25.1749 46.2894 25.2328 46.2315C25.2971 46.1737 25.3807 46.1351 25.4642 46.1415L27.5793 46.1865C27.5793 46.1865 27.6372 46.1865 27.6629 46.1865C29.9772 46.1865 31.938 44.02 32.0409 41.3135C32.0987 39.8478 31.5844 38.427 30.6265 37.4177C29.8229 36.5627 28.7815 36.0805 27.7014 36.0548L26.3643 36.0227C26.1843 36.0227 26.0493 35.8748 26.0493 35.6948C26.0493 35.5148 26.2293 35.3734 26.3771 35.3798C27.3221 35.3991 28.235 34.9876 28.9293 34.2226C29.6365 33.4447 30.0351 32.3969 30.0608 31.2654C30.0865 30.1404 29.7329 29.0732 29.0579 28.2567C28.3958 27.4596 27.5086 27.0096 26.5636 26.9903L25.895 26.9774C25.715 26.9774 25.5735 26.8296 25.58 26.6496L25.6442 23.8402L24.2685 23.808L24.2042 26.6174C24.2042 26.701 24.1656 26.7846 24.1078 26.8424C24.0435 26.9003 23.9728 26.9388 23.8763 26.9324L22.2949 26.8938C22.1149 26.8938 21.9799 26.746 21.9799 26.566L22.0441 23.7566L20.6684 23.7245L20.6041 26.5338C20.6041 26.6174 20.5655 26.701 20.5077 26.7588C20.4434 26.8167 20.3405 26.8553 20.2762 26.8488L16.4897 26.7653L16.4511 28.5332L17.3704 28.5525C17.9169 28.5653 18.4248 28.816 18.7912 29.2661C19.1512 29.7032 19.3441 30.2689 19.3312 30.8732L19.0805 41.9436C19.0548 43.1843 18.1483 44.1743 17.0554 44.1743C17.0426 44.1743 17.0297 44.1743 17.0169 44.1743L16.0975 44.155L16.059 45.923L19.8455 46.0065C20.0255 46.0065 20.1605 46.1608 20.1605 46.3344L20.0962 49.1438L21.472 49.1759L21.5363 46.3665C21.5363 46.283 21.5748 46.1994 21.6327 46.1415C21.697 46.0837 21.7934 46.0451 21.8641 46.0515L23.4456 46.0837C23.6256 46.0837 23.7606 46.238 23.7606 46.4115L23.6963 49.2209V49.2338ZM25.9078 45.3508C25.9078 45.3508 25.8564 45.3508 25.8307 45.3508L21.8899 45.2608C21.8063 45.2608 21.7227 45.2222 21.6648 45.1644C21.607 45.1001 21.5748 45.0229 21.5748 44.9329L21.7677 36.4663C21.7677 36.2863 21.9413 36.1448 22.0956 36.1512L26.0428 36.2413C27.1164 36.267 28.1129 36.7684 28.8522 37.6556C29.5786 38.5299 29.9579 39.6742 29.9322 40.8828C29.8744 43.3643 28.0807 45.3508 25.9207 45.3508H25.9078ZM22.2177 44.6243L25.8435 44.7079C25.8435 44.7079 25.8885 44.7079 25.9078 44.7079C27.7272 44.7079 29.2315 43.0043 29.2765 40.87C29.3022 39.8156 28.9679 38.8192 28.3443 38.067C27.7272 37.3277 26.9043 36.9034 26.0171 36.8841L22.3913 36.8006L22.2177 44.6243ZM25.1171 35.1612C25.1171 35.1612 25.0721 35.1612 25.0528 35.1612L22.1084 35.0969C22.0249 35.0969 21.9413 35.0584 21.8834 35.0005C21.8256 34.9362 21.7934 34.8591 21.7934 34.7691L21.9477 27.9803C21.9477 27.8003 22.1084 27.6524 22.2756 27.6653L23.8506 27.7039L25.2135 27.736C25.4642 27.736 25.715 27.781 25.9464 27.8453C27.425 28.2632 28.4343 29.7804 28.3958 31.5225C28.37 32.5061 28.0165 33.4255 27.3929 34.1133C26.9493 34.6083 26.39 34.9426 25.7792 35.0905C25.5671 35.1419 25.3357 35.1676 25.1107 35.1676L25.1171 35.1612ZM22.4427 34.4605L25.0657 34.5183C25.2649 34.5183 25.4514 34.4991 25.6378 34.4605C26.12 34.3448 26.5636 34.0748 26.9236 33.6762C27.4443 33.104 27.74 32.3326 27.7593 31.5033C27.7914 30.0761 26.9557 28.7903 25.7792 28.456C25.5992 28.4046 25.4064 28.3725 25.2071 28.366L22.5842 28.3082L22.4427 34.4541V34.4605Z" fill="#19116E"/>
<path d="M215.259 116.317C221.615 113.305 224.827 106.767 222.433 101.714C220.039 96.6603 212.945 95.0048 206.589 98.0161C200.232 101.028 197.02 107.565 199.415 112.619C201.809 117.673 208.903 119.328 215.259 116.317Z" fill="#C2A300"/>
<path d="M208.78 118.148C204.524 118.148 200.757 116.226 199.118 112.767C196.649 107.56 199.934 100.816 206.44 97.7369C209.577 96.2519 212.997 95.8276 216.057 96.5412C219.15 97.2612 221.509 99.0548 222.711 101.594C223.913 104.127 223.804 107.097 222.403 109.945C221.014 112.767 218.526 115.14 215.382 116.631C213.197 117.666 210.921 118.161 208.774 118.161L208.78 118.148ZM213.062 96.8433C210.953 96.8433 208.78 97.3448 206.723 98.3155C200.538 101.247 197.388 107.605 199.703 112.491C202.017 117.377 208.934 118.971 215.119 116.04C218.128 114.612 220.513 112.349 221.837 109.656C223.148 106.988 223.258 104.224 222.139 101.864C221.027 99.5113 218.815 97.8398 215.922 97.1648C214.997 96.9462 214.039 96.8433 213.068 96.8433H213.062Z" fill="#19116E"/>
<path d="M214.4 114.52C220.756 111.509 223.968 104.971 221.574 99.917C219.179 94.8634 212.086 93.2079 205.73 96.2193C199.373 99.2307 196.161 105.769 198.556 110.822C200.95 115.876 208.043 117.531 214.4 114.52Z" fill="#FFD600"/>
<path d="M207.932 116.355C203.676 116.355 199.908 114.433 198.269 110.974C195.8 105.767 199.086 99.0233 205.591 95.944C208.729 94.4589 212.149 94.0346 215.209 94.7482C218.301 95.4682 220.66 97.2618 221.863 99.8012C223.065 102.334 222.956 105.304 221.554 108.152C220.165 110.974 217.677 113.347 214.534 114.838C212.348 115.873 210.072 116.368 207.925 116.368L207.932 116.355ZM212.213 95.0504C210.104 95.0504 207.932 95.5518 205.874 96.5225C199.69 99.454 196.54 105.812 198.854 110.698C201.168 115.584 208.086 117.178 214.27 114.247C217.279 112.819 219.664 110.556 220.988 107.863C222.3 105.195 222.409 102.431 221.29 100.071C220.178 97.7183 217.967 96.0468 215.074 95.3718C214.148 95.1532 213.19 95.0504 212.219 95.0504H212.213Z" fill="#19116E"/>
<path d="M213.885 113.449C208.446 116.027 202.377 114.715 200.114 110.543C200.108 110.543 200.114 110.53 200.108 110.53C200.044 110.421 199.986 110.305 199.934 110.189C197.826 105.734 200.654 99.9739 206.247 97.3253C211.847 94.6702 218.096 96.1296 220.204 100.585C220.262 100.7 220.313 100.823 220.358 100.938C220.358 100.938 220.365 100.938 220.365 100.951C222.159 105.348 219.33 110.871 213.885 113.449Z" fill="#19116E"/>
<path d="M208.163 115.095C204.576 115.095 201.387 113.54 199.838 110.698C199.832 110.685 199.825 110.672 199.819 110.666C199.761 110.563 199.703 110.447 199.645 110.325C197.466 105.716 200.365 99.7563 206.112 97.0305C211.86 94.3047 218.314 95.8348 220.5 100.444C220.558 100.56 220.609 100.682 220.654 100.798C220.654 100.811 220.661 100.817 220.667 100.83C222.538 105.42 219.619 111.09 214.026 113.739C212.085 114.658 210.066 115.095 208.163 115.095ZM200.397 110.389C202.602 114.446 208.465 115.661 213.75 113.16C219.034 110.659 221.805 105.356 220.076 101.087C220.018 100.946 219.973 100.836 219.921 100.721C217.89 96.4326 211.821 95.0376 206.389 97.6155C200.963 100.187 198.199 105.767 200.224 110.055C200.275 110.164 200.333 110.274 200.391 110.377C200.391 110.377 200.391 110.389 200.397 110.396V110.389Z" fill="#19116E"/>
<path d="M213.885 113.45C208.446 116.028 202.377 114.716 200.114 110.544C200.108 110.544 200.114 110.531 200.108 110.531C198.308 106.128 201.136 100.605 206.581 98.0274C212.033 95.443 218.095 96.7609 220.358 100.94C220.358 100.94 220.365 100.94 220.365 100.952C222.158 105.35 219.33 110.872 213.885 113.45Z" fill="white"/>
<path d="M208.163 115.093C204.576 115.093 201.387 113.538 199.838 110.696C199.825 110.67 199.812 110.645 199.806 110.619C197.954 106.016 200.866 100.365 206.447 97.7228C212.04 95.0742 218.275 96.4049 220.641 100.764C220.654 100.783 220.661 100.802 220.667 100.821C222.538 105.412 219.619 111.082 214.026 113.73C212.085 114.65 210.066 115.087 208.163 115.087V115.093ZM200.404 110.387C202.609 114.438 208.472 115.653 213.756 113.152C219.041 110.651 221.811 105.347 220.082 101.079C217.883 97.0221 212.02 95.807 206.729 98.3078C201.445 100.809 198.674 106.112 200.41 110.387H200.404Z" fill="#19116E"/>
<path d="M212.612 105.964L212.001 105.675C212.985 106.144 214.225 105.604 214.772 104.467C215.042 103.894 215.087 103.29 214.945 102.763C214.798 102.236 214.463 101.792 213.968 101.554L213.66 101.406L214.341 99.9793L213.422 99.5421L212.74 100.969L212.02 100.622L212.702 99.195L211.782 98.7578L211.101 100.185L210.567 99.9279L209.23 99.285L208.703 100.384L209.269 100.654C209.693 100.86 209.847 101.419 209.616 101.914L207.205 106.967C206.967 107.462 206.434 107.694 206.009 107.488L205.444 107.218L204.917 108.317L206.254 108.954L206.787 109.211L206.106 110.638L207.025 111.075L207.707 109.648L208.427 109.995L207.745 111.422L208.664 111.86L209.346 110.432L210.31 110.895C211.474 111.448 212.933 110.825 213.595 109.5C214.277 108.131 213.807 106.524 212.612 105.958V105.964ZM212.438 101.612L213.062 101.908C213.165 101.959 213.255 102.017 213.338 102.088C213.865 102.531 214.013 103.361 213.66 104.1C213.454 104.531 213.12 104.846 212.74 105.007C212.464 105.129 212.175 105.167 211.892 105.109C211.782 105.09 211.68 105.052 211.577 105.007L210.953 104.711L210.233 104.364L211.712 101.265L212.432 101.612H212.438ZM209.822 109.867L209.661 109.79L208.742 109.352L208.022 109.005L209.867 105.142L210.587 105.489L211.506 105.926L211.667 106.003C212.592 106.447 212.927 107.668 212.419 108.735C211.911 109.802 210.747 110.31 209.822 109.867Z" fill="#FFD600"/>
<path d="M208.658 112.192C208.613 112.192 208.562 112.179 208.517 112.16L207.597 111.723C207.437 111.646 207.372 111.453 207.443 111.292L207.99 110.154L207.848 110.09L207.302 111.228C207.263 111.305 207.199 111.363 207.122 111.395C207.038 111.421 206.955 111.421 206.877 111.382L205.958 110.945C205.797 110.868 205.733 110.675 205.804 110.514L206.35 109.376L204.769 108.618C204.608 108.541 204.544 108.348 204.614 108.187L205.142 107.088C205.219 106.927 205.412 106.863 205.572 106.934L206.138 107.204C206.402 107.332 206.749 107.165 206.91 106.831L209.32 101.778C209.41 101.598 209.423 101.392 209.365 101.225C209.333 101.135 209.269 101.013 209.127 100.948L208.562 100.678C208.401 100.601 208.337 100.408 208.407 100.248L208.935 99.1483C208.973 99.0712 209.037 99.0133 209.115 98.9812C209.198 98.9555 209.282 98.9555 209.359 98.9941L210.94 99.7526L211.487 98.6148C211.525 98.5376 211.59 98.4798 211.667 98.4476C211.75 98.4219 211.834 98.4219 211.911 98.4605L212.83 98.8976C212.908 98.9362 212.965 99.0005 212.998 99.0776C213.03 99.1548 213.023 99.2448 212.985 99.3219L212.438 100.46L212.58 100.524L213.126 99.3862C213.165 99.3091 213.229 99.2512 213.306 99.2191C213.39 99.1933 213.473 99.1933 213.55 99.2319L214.47 99.6691C214.63 99.7462 214.695 99.9391 214.624 100.1L214.078 101.238H214.097C214.656 101.514 215.068 102.016 215.241 102.658C215.415 103.282 215.344 103.97 215.048 104.587C214.753 105.204 214.264 105.693 213.666 105.95C213.557 105.995 213.448 106.034 213.338 106.066C213.653 106.355 213.898 106.734 214.052 107.171C214.322 107.956 214.258 108.856 213.872 109.634C213.139 111.112 211.474 111.8 210.162 111.177L209.487 110.855L208.941 111.993C208.902 112.07 208.838 112.128 208.761 112.16C208.729 112.173 208.69 112.179 208.652 112.179L208.658 112.192ZM208.17 111.279L208.51 111.44L209.057 110.302C209.095 110.225 209.16 110.167 209.237 110.135C209.32 110.109 209.404 110.109 209.481 110.148L210.445 110.611C211.442 111.087 212.721 110.527 213.3 109.364C213.608 108.74 213.666 108.02 213.448 107.396C213.274 106.882 212.933 106.484 212.49 106.265C212.663 106.49 212.798 106.754 212.882 107.043C213.043 107.634 212.978 108.284 212.702 108.869C212.117 110.097 210.76 110.669 209.674 110.154L207.874 109.293C207.797 109.254 207.739 109.19 207.707 109.113C207.681 109.036 207.681 108.946 207.72 108.869L209.565 105.005C209.603 104.928 209.667 104.87 209.745 104.838C209.828 104.812 209.912 104.812 209.989 104.851L211.667 105.654C211.667 105.616 211.68 105.577 211.699 105.539C211.718 105.494 211.75 105.455 211.789 105.423C211.667 105.397 211.545 105.359 211.429 105.301L210.085 104.658C209.925 104.581 209.86 104.388 209.931 104.227L211.41 101.128C211.487 100.968 211.68 100.903 211.84 100.974L212.56 101.315L213.184 101.611C213.313 101.668 213.428 101.746 213.531 101.836C214.18 102.382 214.348 103.366 213.936 104.227C213.705 104.709 213.319 105.089 212.856 105.288C212.67 105.371 212.477 105.416 212.29 105.436C212.644 105.551 213.03 105.526 213.409 105.365C213.859 105.166 214.238 104.793 214.463 104.317C214.688 103.841 214.746 103.308 214.618 102.832C214.489 102.376 214.206 102.016 213.814 101.829L213.505 101.681C213.428 101.643 213.37 101.578 213.338 101.501C213.313 101.424 213.313 101.334 213.351 101.257L213.898 100.119L213.557 99.9584L213.01 101.096C212.972 101.173 212.908 101.231 212.83 101.263C212.747 101.289 212.663 101.289 212.586 101.251L211.866 100.903C211.789 100.865 211.731 100.801 211.699 100.723C211.667 100.646 211.673 100.556 211.712 100.479L212.258 99.3412L211.918 99.1805L211.371 100.318C211.333 100.396 211.268 100.453 211.191 100.486C211.108 100.511 211.024 100.511 210.947 100.473L209.365 99.7141L209.115 100.235L209.391 100.37C209.655 100.498 209.854 100.723 209.957 101.013C210.072 101.341 210.047 101.726 209.886 102.061L207.475 107.114C207.16 107.763 206.434 108.065 205.849 107.789L205.572 107.654L205.322 108.174L206.903 108.933C207.064 109.01 207.128 109.203 207.057 109.364L206.511 110.502L206.852 110.662L207.398 109.524C207.437 109.447 207.501 109.389 207.578 109.357C207.662 109.331 207.745 109.331 207.822 109.37L208.542 109.717C208.703 109.794 208.767 109.987 208.697 110.148L208.15 111.286L208.17 111.279ZM209.957 109.569C210.722 109.936 211.693 109.492 212.123 108.592C212.335 108.149 212.387 107.66 212.265 107.216C212.149 106.792 211.885 106.464 211.519 106.291L210.008 105.571L208.44 108.849L209.95 109.569H209.957ZM210.664 104.214L211.718 104.716C211.795 104.754 211.873 104.78 211.956 104.793C212.175 104.831 212.4 104.806 212.618 104.709C212.94 104.568 213.21 104.304 213.37 103.957C213.653 103.372 213.55 102.684 213.133 102.331C213.068 102.279 212.998 102.228 212.92 102.196L211.866 101.694L210.664 104.214Z" fill="#19116E"/>
<path d="M158.025 8.40795L158.61 12.5738C158.964 15.5567 157.414 18.4818 154.605 20.8347C154.605 20.8347 154.605 20.8347 154.599 20.8347C151.635 23.3162 147.27 25.1613 142.262 25.7527C132.503 26.9035 124.011 22.8662 123.284 16.7332L122.879 12.5481L124.081 12.4066C124.628 11.288 125.431 10.2144 126.447 9.23083C129.391 6.36361 134.123 4.19712 139.639 3.54782C147.045 2.6735 153.724 4.78856 156.829 8.53653L158.032 8.39509L158.025 8.40795Z" fill="#C2A300"/>
<path d="M138.932 26.2864C135.37 26.2864 132.014 25.5985 129.237 24.2806C125.547 22.5255 123.316 19.8705 122.956 16.7847L122.551 12.5931C122.532 12.4195 122.661 12.2653 122.834 12.246L123.863 12.1238C124.422 11.0374 125.213 9.98947 126.216 9.01873C129.334 5.98436 134.207 3.88216 139.594 3.24571C146.845 2.39069 153.628 4.3386 156.958 8.21514L157.987 8.09299C158.154 8.0737 158.321 8.19585 158.34 8.36943L158.925 12.5353C159.279 15.5311 157.819 18.5654 154.811 21.0919C154.811 21.0919 154.798 21.1048 154.791 21.1048C151.641 23.7406 147.205 25.5085 142.294 26.0871C141.162 26.2221 140.037 26.2864 138.932 26.2864ZM123.226 12.8438L123.599 16.7204C123.933 19.5683 126.036 22.0498 129.52 23.702C133.049 25.3799 137.562 25.9971 142.223 25.4506C147.019 24.8849 151.339 23.162 154.393 20.6033C154.399 20.6033 154.406 20.5905 154.419 20.5841C157.247 18.2054 158.629 15.3768 158.302 12.6124L157.762 8.76801L156.874 8.87087C156.765 8.88373 156.662 8.83873 156.591 8.75515C153.441 4.94933 146.8 3.03356 139.684 3.87573C134.438 4.49289 129.7 6.53723 126.678 9.46874C125.682 10.4395 124.904 11.4809 124.377 12.5545C124.326 12.651 124.236 12.7217 124.126 12.7345L123.239 12.8374L123.226 12.8438Z" fill="#19116E"/>
<path d="M141.897 22.7185C151.653 21.5655 158.975 15.6601 158.25 9.52847C157.525 3.39682 149.029 -0.639164 139.272 0.513849C129.516 1.66686 122.194 7.57225 122.919 13.7039C123.644 19.8355 132.14 23.8715 141.897 22.7185Z" fill="#FFD600"/>
<path d="M138.61 23.2409C130.144 23.2409 123.252 19.3322 122.596 13.7456C122.23 10.6662 123.779 7.56112 126.961 4.99605C130.099 2.46955 134.457 0.765932 139.234 0.200202C144.01 -0.365528 148.646 0.277347 152.284 2.00668C155.974 3.76173 158.205 6.41681 158.565 9.49618C158.932 12.5756 157.382 15.6806 154.2 18.2457C151.063 20.7722 146.704 22.4758 141.928 23.0416C140.803 23.1766 139.69 23.2409 138.61 23.2409ZM142.596 0.643786C141.516 0.643786 140.417 0.708073 139.311 0.836648C134.65 1.38952 130.407 3.04171 127.366 5.49749C124.364 7.9147 122.898 10.8205 123.239 13.6749C123.94 19.6215 132.297 23.5366 141.863 22.4115C146.524 21.8587 150.767 20.2065 153.808 17.7507C156.81 15.3335 158.276 12.4277 157.935 9.57332C157.601 6.71896 155.499 4.23746 152.014 2.58527C149.321 1.30595 146.061 0.643786 142.603 0.643786H142.596Z" fill="#19116E"/>
<path d="M156.476 9.74669C156.521 10.126 156.527 10.5053 156.508 10.8781C156.186 15.8733 149.906 20.4634 141.741 21.4277C132.966 22.4628 125.328 18.9141 124.686 13.5011C124.666 13.3596 124.66 13.2182 124.653 13.0768C124.396 7.81806 130.876 2.82935 139.427 1.82004C148.208 0.785008 155.839 4.33368 156.482 9.74669H156.476Z" fill="#19116E"/>
<path d="M138.7 21.9273C135.518 21.9273 132.516 21.3294 130.028 20.1722C126.704 18.6229 124.692 16.27 124.371 13.5313C124.351 13.3835 124.339 13.2292 124.332 13.0813C124.068 7.61689 130.677 2.52531 139.388 1.49671C148.331 0.442399 156.142 4.11965 156.797 9.70623C156.842 10.1048 156.855 10.5034 156.829 10.8956C156.495 16.1093 150.021 20.7701 141.78 21.7409C140.745 21.863 139.71 21.9209 138.7 21.9209V21.9273ZM142.455 1.95316C141.478 1.95316 140.481 2.01101 139.459 2.13316C131.082 3.12319 124.724 7.91904 124.969 13.0556C124.969 13.1906 124.988 13.3256 125.001 13.4606C125.296 15.9678 127.174 18.1408 130.292 19.5937C133.461 21.0658 137.511 21.6059 141.696 21.1108C149.636 20.1722 155.859 15.7685 156.18 10.857C156.206 10.5034 156.193 10.137 156.154 9.78338C155.608 5.17396 149.719 1.95958 142.448 1.95958L142.455 1.95316Z" fill="#19116E"/>
<path d="M156.469 10.4523C156.489 10.5938 156.495 10.7352 156.501 10.8766C156.186 15.8075 150.066 20.3398 142.056 21.3876C141.947 21.4005 141.844 21.4134 141.735 21.4262C132.959 22.4612 125.322 18.9126 124.679 13.4996C124.66 13.3581 124.653 13.2167 124.647 13.0753C124.878 9.44302 128.26 6.02935 133.223 4.06216C133.268 4.04287 133.313 4.02358 133.345 4.01073C133.358 4.01073 133.371 4.0043 133.384 3.99787C133.403 3.99144 133.416 3.98501 133.429 3.97858C133.429 3.97858 133.442 3.97858 133.448 3.97215C135.254 3.27785 137.273 2.77641 139.414 2.51926C148.189 1.48423 155.826 5.0329 156.469 10.4459V10.4523Z" fill="white"/>
<path d="M138.7 21.9296C135.518 21.9296 132.516 21.3317 130.028 20.1746C126.704 18.6252 124.692 16.2723 124.371 13.5337C124.351 13.3858 124.338 13.2315 124.332 13.0837C124.57 9.36784 127.932 5.81274 133.114 3.76197L133.197 3.72983C133.197 3.72983 133.274 3.69768 133.281 3.69768C133.287 3.69768 133.345 3.67197 133.358 3.67197C135.229 2.95195 137.267 2.45693 139.388 2.20621C143.689 1.69834 147.868 2.25764 151.14 3.77483C154.464 5.32416 156.476 7.67708 156.797 10.4093C156.817 10.5636 156.829 10.7115 156.836 10.8593C156.508 16.0023 150.176 20.6503 142.108 21.6982C142.005 21.711 141.895 21.7239 141.786 21.7368C140.751 21.8589 139.716 21.9168 138.707 21.9168L138.7 21.9296ZM133.319 4.02555L133.442 4.32127L133.364 4.35341C128.414 6.31418 125.2 9.66356 124.981 13.0901C124.981 13.1929 125.001 13.3215 125.013 13.4565C125.309 15.9637 127.186 18.1367 130.304 19.5896C133.474 21.0617 137.524 21.6018 141.709 21.1067C141.812 21.0939 141.915 21.081 142.018 21.0682C149.79 20.0524 155.878 15.6616 156.187 10.8529C156.187 10.75 156.167 10.6214 156.154 10.4864C155.859 7.97923 153.981 5.80631 150.864 4.35341C147.694 2.88123 143.65 2.34121 139.459 2.83623C137.389 3.08052 135.409 3.56268 133.57 4.26984L133.499 4.29556L133.319 4.01912V4.02555Z" fill="#19116E"/>
<path d="M144.415 10.3116L143.374 10.1895C145.065 10.3888 146.846 9.6816 147.302 8.653C147.527 8.15799 147.392 7.68226 147 7.31582C146.621 6.95581 145.997 6.69866 145.213 6.62152L144.73 6.57651L145.316 5.47077L143.908 5.34219L143.29 6.44151L142.178 6.33222L142.821 5.24576L141.452 5.11719L140.777 6.19079L139.967 6.11364L137.974 5.92078L137.382 6.76938L138.231 6.85938C138.874 6.92367 139.195 7.30296 138.938 7.70155L135.955 12.3174C135.627 12.8188 134.772 13.1531 134.046 13.0567L133.094 12.9281L132.284 14.0853L134.592 14.4196L135.531 14.5546L134.509 16.1875L136.193 16.4446L137.17 14.786L138.469 14.9725L137.524 16.6439L139.26 16.9075L140.153 15.2103L141.953 15.4675C144.171 15.7889 146.524 14.786 147.173 13.3074C147.803 11.8674 146.473 10.5366 144.403 10.2988L144.415 10.3116ZM143.001 6.94938L143.985 7.04581C144.145 7.0651 144.3 7.09081 144.441 7.12296C145.335 7.34796 145.804 7.93941 145.496 8.57586C145.309 8.95515 144.891 9.27016 144.351 9.48231C143.959 9.6366 143.515 9.7266 143.059 9.73946C142.885 9.73946 142.712 9.73946 142.545 9.72017L141.51 9.60446L140.327 9.46945L141.883 6.84009L143.008 6.95581L143.001 6.94938ZM140.848 14.516L140.558 14.4775L138.893 14.246L137.607 14.066L139.902 10.1766L141.105 10.318L142.66 10.5045L142.93 10.5366C144.525 10.7231 145.438 11.7324 144.936 12.8317C144.435 13.931 142.558 14.7603 140.848 14.516Z" fill="#FFD600"/>
<path d="M139.266 17.2411C139.266 17.2411 139.234 17.2411 139.215 17.2411L137.479 16.9775C137.376 16.9646 137.286 16.8939 137.241 16.7975C137.196 16.701 137.196 16.5917 137.247 16.5017L137.961 15.2353L137.337 15.1453L136.47 16.6175C136.405 16.7332 136.277 16.791 136.142 16.7718L134.457 16.5146C134.348 16.4953 134.258 16.431 134.213 16.3282C134.168 16.2317 134.174 16.116 134.232 16.026L134.991 14.811L132.227 14.4124C132.117 14.3995 132.021 14.3224 131.976 14.2195C131.931 14.1167 131.944 14.001 132.008 13.911L132.818 12.7538C132.889 12.6574 133.004 12.6059 133.127 12.6188L134.078 12.7474C134.67 12.8309 135.415 12.5545 135.672 12.1559L138.655 7.54006C138.713 7.45649 138.694 7.41792 138.687 7.40506C138.649 7.32149 138.475 7.21863 138.186 7.19291L137.331 7.10291C137.215 7.09005 137.119 7.01934 137.074 6.91648C137.029 6.81362 137.035 6.69147 137.1 6.60147L137.691 5.75287C137.755 5.65644 137.865 5.60501 137.987 5.61787L140.584 5.86859L141.15 4.96213C141.214 4.85927 141.33 4.80142 141.452 4.81427L142.828 4.94285C142.937 4.95571 143.033 5.01999 143.085 5.11642C143.136 5.21286 143.13 5.32857 143.078 5.425L142.693 6.08074L143.091 6.11931L143.605 5.20643C143.67 5.09714 143.779 5.03285 143.914 5.04571L145.322 5.17428C145.431 5.18714 145.521 5.245 145.573 5.34143C145.624 5.43786 145.624 5.54715 145.573 5.64358L145.213 6.32503H145.219C146.048 6.4086 146.749 6.68504 147.199 7.10291C147.707 7.57864 147.842 8.20223 147.572 8.80653C147.283 9.46226 146.55 9.99585 145.637 10.2916C146.421 10.5809 147.038 11.0437 147.373 11.6223C147.707 12.2009 147.739 12.8374 147.463 13.4674C146.749 15.1003 144.261 16.161 141.902 15.8203L140.32 15.5953L139.53 17.0932C139.472 17.2025 139.363 17.2668 139.247 17.2668L139.266 17.2411ZM138.038 16.4053L139.086 16.566L139.877 15.0681C139.941 14.946 140.07 14.8817 140.205 14.901L142.005 15.1581C144.062 15.4539 146.293 14.5474 146.884 13.1845C147.077 12.7409 147.058 12.3166 146.826 11.918C146.434 11.243 145.521 10.7544 144.371 10.6259H144.3C144.686 10.8316 144.988 11.108 145.181 11.4487C145.444 11.9116 145.457 12.4516 145.226 12.9659C144.634 14.2581 142.654 15.0938 140.803 14.8367L137.556 14.3803C137.447 14.3674 137.357 14.2967 137.312 14.2003C137.267 14.1038 137.267 13.9881 137.325 13.8981L139.62 10.0087C139.684 9.89942 139.813 9.84156 139.935 9.85441L142.963 10.2144C142.963 10.2144 143.02 10.2209 143.053 10.2273C143.053 10.2016 143.053 10.1759 143.053 10.1501C143.053 10.118 143.065 10.0923 143.078 10.0601C143.078 10.0601 143.072 10.0601 143.065 10.0601C142.879 10.0601 142.693 10.0601 142.5 10.0344L140.282 9.77727C140.173 9.76441 140.076 9.70012 140.031 9.60369C139.98 9.50726 139.986 9.39154 140.044 9.29511L141.6 6.66575C141.664 6.55646 141.786 6.49861 141.908 6.51146H141.915C141.915 6.51146 141.895 6.48575 141.889 6.46646C141.838 6.37003 141.844 6.25431 141.902 6.15788L142.288 5.50858L141.619 5.44429L141.047 6.35074C140.983 6.45361 140.873 6.51146 140.745 6.49861L138.135 6.24146L137.961 6.48575L138.27 6.51789C138.765 6.56932 139.131 6.77504 139.285 7.09005C139.401 7.33434 139.375 7.60435 139.215 7.85507L136.232 12.4709C135.84 13.0816 134.869 13.4674 134.014 13.3517L133.255 13.2488L132.857 13.821L135.589 14.2131C135.698 14.226 135.788 14.2967 135.833 14.3931C135.878 14.4895 135.872 14.6053 135.814 14.7017L135.049 15.9232L136.032 16.0774L136.9 14.6053C136.965 14.496 137.093 14.4317 137.222 14.451L138.52 14.6374C138.623 14.6503 138.713 14.721 138.765 14.811C138.81 14.9074 138.81 15.0167 138.758 15.1131L138.045 16.3796L138.038 16.4053ZM138.122 13.8145L140.886 14.2003C142.448 14.4188 144.165 13.731 144.634 12.6959C144.782 12.3681 144.776 12.053 144.615 11.7638C144.351 11.2945 143.702 10.9537 142.879 10.8509L140.063 10.5166L138.115 13.8081L138.122 13.8145ZM144.814 6.91005C145.29 7.08362 145.631 7.36649 145.798 7.7265C145.946 8.04151 145.939 8.38866 145.772 8.72295C145.56 9.16011 145.091 9.53941 144.461 9.79013C144.358 9.8287 144.255 9.86727 144.145 9.89942C145.431 9.84156 146.666 9.27583 147 8.52366C147.161 8.17008 147.083 7.84222 146.775 7.55292C146.434 7.23148 145.862 7.01291 145.174 6.94862L144.814 6.91648V6.91005ZM140.841 9.20511L142.57 9.4044C142.725 9.42369 142.885 9.43012 143.04 9.42369C143.451 9.41083 143.863 9.33369 144.223 9.19225C144.698 9.00582 145.052 8.73581 145.193 8.44652C145.271 8.2858 145.277 8.14437 145.213 8.00293C145.103 7.75864 144.776 7.55292 144.351 7.44363C144.223 7.41149 144.088 7.38577 143.94 7.37292L142.037 7.18005L140.841 9.20511ZM143.496 6.67861L144.01 6.73004C144.19 6.74933 144.351 6.77504 144.506 6.81362C144.48 6.7879 144.454 6.76219 144.441 6.73004C144.39 6.63361 144.39 6.52432 144.441 6.42789L144.801 5.74644L144.081 5.68215L143.567 6.59504C143.567 6.59504 143.528 6.6529 143.503 6.67861H143.496Z" fill="#19116E"/>
<path d="M54.4515 155.409L50.1314 156.013C47.0391 156.38 43.9983 154.773 41.5554 151.861C41.5554 151.861 41.5554 151.861 41.5554 151.854C38.9775 148.775 37.0681 144.249 36.451 139.054C35.2552 128.929 39.4404 120.115 45.8048 119.363L50.1507 118.945L50.2985 120.192C51.4621 120.765 52.5679 121.594 53.59 122.648C56.5666 125.708 58.8102 130.613 59.4852 136.329C60.3917 144.011 58.1995 150.941 54.3036 154.168L54.4515 155.416V155.409Z" fill="#C2A300"/>
<path d="M49.257 156.385C46.4541 156.385 43.664 154.874 41.3047 152.064C41.2918 152.052 41.279 152.032 41.2725 152.019C38.5596 148.786 36.721 144.183 36.1231 139.085C35.5381 134.128 36.2002 129.326 37.9939 125.552C39.8068 121.727 42.5647 119.419 45.7598 119.04L50.1121 118.622C50.2856 118.609 50.4399 118.731 50.4592 118.905L50.5878 119.978C51.7193 120.557 52.7993 121.374 53.815 122.415C56.9587 125.649 59.1445 130.702 59.8002 136.282C60.6874 143.803 58.6687 150.843 54.6443 154.289L54.7729 155.362C54.7922 155.536 54.6701 155.697 54.4965 155.716L50.1764 156.32C49.8742 156.359 49.5656 156.372 49.2635 156.372L49.257 156.385ZM41.7997 151.647C44.2812 154.597 47.2127 156.031 50.0928 155.69L54.0979 155.124L53.9886 154.192C53.9758 154.083 54.0208 153.974 54.1043 153.909C58.0516 150.637 60.0445 143.752 59.1702 136.359C58.5273 130.914 56.4123 125.996 53.3586 122.865C52.3493 121.83 51.2692 121.026 50.1506 120.473C50.0542 120.428 49.9835 120.332 49.9706 120.223L49.8613 119.291L45.8305 119.676C42.8733 120.023 40.2954 122.209 38.5789 125.822C36.8367 129.487 36.1938 134.167 36.766 139.008C37.351 143.983 39.1382 148.471 41.7933 151.64C41.7933 151.64 41.7933 151.647 41.7933 151.653L41.7997 151.647Z" fill="#19116E"/>
<path d="M53.2865 155.637C59.6473 154.886 63.8339 146.07 62.6376 135.947C61.4412 125.824 55.3149 118.227 48.9541 118.979C42.5932 119.73 38.4066 128.546 39.603 138.669C40.7993 148.792 46.9256 156.389 53.2865 155.637Z" fill="#FFD600"/>
<path d="M52.42 156.015C46.2227 156.015 40.4368 148.519 39.2796 138.715C38.0646 128.435 42.3847 119.442 48.9163 118.67C55.4415 117.899 61.7417 125.639 62.9567 135.919C63.5417 140.875 62.8796 145.677 61.0859 149.451C59.273 153.276 56.5151 155.584 53.32 155.963C53.0179 156.002 52.7221 156.015 52.42 156.015ZM49.8228 119.255C49.5463 119.255 49.2699 119.275 48.987 119.307C42.809 120.04 38.7396 128.712 39.9161 138.638C41.0347 148.12 46.5377 155.372 52.4071 155.372C52.6836 155.372 52.96 155.353 53.2429 155.321C56.2065 154.973 58.7845 152.788 60.5009 149.168C62.2431 145.504 62.886 140.824 62.3138 135.983C61.1952 126.5 55.6922 119.249 49.8228 119.249V119.255Z" fill="#19116E"/>
<path d="M53.0628 153.803C52.6707 153.848 52.2785 153.861 51.8864 153.835C46.7048 153.501 41.9411 146.988 40.9382 138.515C39.8646 129.412 43.5418 121.486 49.1606 120.823C49.3084 120.804 49.4563 120.791 49.6041 120.785C55.0622 120.521 60.2309 127.239 61.2788 136.111C62.3524 145.221 58.6751 153.141 53.0564 153.803H53.0628Z" fill="#19116E"/>
<path d="M52.3172 154.168C52.1694 154.168 52.0215 154.168 51.8737 154.155C46.4735 153.807 41.6391 147.096 40.6298 138.552C39.5369 129.282 43.3491 121.188 49.135 120.5C49.2893 120.481 49.4436 120.468 49.6043 120.462C55.268 120.179 60.546 127.038 61.6132 136.071C62.1404 140.532 61.5618 144.859 59.9867 148.259C58.386 151.705 55.9431 153.788 53.108 154.123C52.8444 154.155 52.5808 154.168 52.3172 154.168ZM49.9322 121.098C49.8293 121.098 49.7329 121.098 49.63 121.104C49.4886 121.104 49.3472 121.124 49.2122 121.137C43.7799 121.779 40.2119 129.552 41.2662 138.468C42.2434 146.71 46.8207 153.177 51.9122 153.505C52.2787 153.531 52.658 153.518 53.0308 153.48C55.6345 153.171 57.8974 151.223 59.4017 147.983C60.9318 144.698 61.4911 140.487 60.9768 136.141C59.9675 127.61 55.1587 121.092 49.9386 121.092L49.9322 121.098Z" fill="#19116E"/>
<path d="M52.3299 153.797C52.1821 153.816 52.0342 153.829 51.8863 153.835C46.7755 153.507 42.0696 147.156 40.9832 138.85C40.9639 138.741 40.951 138.631 40.9382 138.516C39.8646 129.413 43.5418 121.486 49.1606 120.824C49.3084 120.804 49.4563 120.792 49.6041 120.785C53.3714 121.029 56.9136 124.533 58.9515 129.683C58.9708 129.734 58.9901 129.773 59.003 129.805C59.003 129.818 59.0094 129.83 59.0158 129.843C59.0223 129.863 59.0287 129.882 59.0351 129.888C59.0351 129.888 59.0351 129.901 59.0415 129.908C59.7616 131.785 60.2823 133.874 60.5459 136.098C61.6195 145.202 57.9422 153.128 52.3235 153.79L52.3299 153.797Z" fill="white"/>
<path d="M51.9056 154.154C46.5762 153.813 41.7611 147.25 40.6682 138.886C40.6553 138.776 40.636 138.667 40.6232 138.551C39.5303 129.281 43.3425 121.187 49.1284 120.5C49.2827 120.48 49.437 120.467 49.5977 120.461C53.4421 120.705 57.1322 124.196 59.2601 129.564L59.2923 129.641L59.0287 129.847L59.3308 129.738C59.3308 129.738 59.3566 129.802 59.3566 129.808C60.1087 131.756 60.6166 133.865 60.8802 136.064C61.4073 140.525 60.8287 144.852 59.2537 148.246C57.6529 151.692 55.21 153.775 52.3749 154.109C52.2206 154.128 52.0664 154.141 51.9056 154.148V154.154ZM49.5977 121.104C49.4884 121.104 49.3534 121.123 49.212 121.136C43.7797 121.779 40.2117 129.551 41.2661 138.468C41.2789 138.577 41.2918 138.68 41.3046 138.789C42.3589 146.857 46.9169 153.183 51.9121 153.505C52.0149 153.505 52.1564 153.485 52.2978 153.473C54.9014 153.164 57.1644 151.216 58.6687 147.976C60.1987 144.691 60.758 140.486 60.2437 136.134C59.9866 133.987 59.4916 131.93 58.7587 130.02C58.7587 130.02 58.733 129.95 58.733 129.943L58.6751 129.802C56.6372 124.659 53.1592 121.329 49.5977 121.097V121.104Z" fill="#19116E"/>
<path d="M52.4779 141.292L52.6065 140.212C52.4007 141.967 53.1336 143.812 54.2008 144.288C54.7151 144.519 55.2101 144.378 55.5894 143.979C55.9623 143.587 56.2259 142.938 56.3094 142.121L56.3609 141.62L57.5116 142.224L57.6466 140.765L56.5087 140.122L56.6244 138.971L57.7559 139.64L57.8845 138.219L56.7659 137.518L56.8494 136.683L57.0487 134.619L56.168 134.002L56.078 134.883C56.0073 135.551 55.6216 135.885 55.2037 135.615L50.4143 132.517C49.8935 132.182 49.5464 131.289 49.6492 130.537L49.7842 129.547L48.5821 128.711L48.2349 131.109L48.0935 132.086L46.3963 131.025L46.1263 132.767L47.8428 133.783L47.6499 135.133L45.9141 134.156L45.6377 135.956L47.3992 136.888L47.1292 138.759C46.7949 141.061 47.8363 143.503 49.3728 144.172C50.8643 144.821 52.2465 143.446 52.4972 141.298L52.4779 141.292ZM55.9623 139.82L55.8594 140.842C55.8401 141.009 55.8144 141.17 55.7758 141.318C55.5444 142.243 54.9272 142.732 54.2651 142.411C53.8729 142.218 53.5386 141.781 53.3265 141.228C53.1658 140.823 53.0758 140.36 53.0629 139.891C53.0629 139.711 53.0629 139.531 53.0886 139.357L53.2108 138.283L53.3522 137.055L56.078 138.669L55.9623 139.833V139.82ZM48.1128 137.589L48.1578 137.287L48.4021 135.558L48.5885 134.227L52.6193 136.612L52.4715 137.859L52.2786 139.473L52.2465 139.756C52.0536 141.408 51.0057 142.359 49.8614 141.838C48.6656 141.292 47.862 139.37 48.1128 137.595V137.589Z" fill="#FFD600"/>
<path d="M54.6894 144.719C54.4837 144.719 54.2715 144.674 54.0658 144.578C53.3844 144.269 52.8251 143.498 52.5165 142.546C52.2208 143.376 51.7386 144.018 51.1279 144.372C50.53 144.713 49.8743 144.745 49.225 144.468C47.5342 143.729 46.4413 141.151 46.7949 138.715L47.0328 137.069L45.4706 136.246C45.3484 136.182 45.2841 136.047 45.3034 135.912L45.5799 134.112C45.5927 134.009 45.6634 133.919 45.7599 133.874C45.8563 133.829 45.9656 133.829 46.0556 133.88L47.3863 134.626L47.4828 133.951L45.9527 133.045C45.837 132.98 45.7792 132.852 45.7984 132.717L46.0685 130.975C46.0877 130.865 46.152 130.775 46.2549 130.73C46.3513 130.685 46.467 130.692 46.557 130.75L47.8364 131.547L48.2542 128.66C48.2735 128.551 48.3442 128.454 48.4471 128.409C48.5499 128.364 48.6657 128.377 48.7621 128.442L49.9643 129.277C50.0607 129.348 50.1121 129.464 50.0993 129.586L49.9643 130.576C49.8807 131.193 50.17 131.971 50.5814 132.241L55.3709 135.34C55.4673 135.404 55.5123 135.378 55.5251 135.372C55.6152 135.327 55.7244 135.147 55.7502 134.845L55.8402 133.964C55.853 133.848 55.9237 133.752 56.0266 133.707C56.1294 133.662 56.2516 133.668 56.3416 133.732L57.2223 134.35C57.3188 134.414 57.3702 134.53 57.3573 134.645L57.0938 137.352L58.0452 137.943C58.1481 138.008 58.2059 138.123 58.1931 138.245L58.0645 139.666C58.0516 139.775 57.9874 139.872 57.8909 139.923C57.7945 139.975 57.6788 139.968 57.5823 139.917L56.888 139.505L56.843 139.949L57.7945 140.489C57.9038 140.553 57.9681 140.676 57.9552 140.798L57.8202 142.257C57.8074 142.366 57.7495 142.456 57.6531 142.508C57.5566 142.559 57.4473 142.559 57.3509 142.508L56.6245 142.122V142.148C56.5409 143.003 56.2516 143.729 55.8209 144.192C55.493 144.539 55.1008 144.713 54.6958 144.713L54.6894 144.719ZM52.8894 140.92C52.9279 142.289 53.5258 143.633 54.323 143.993C54.7858 144.198 55.133 143.98 55.3451 143.755C55.6794 143.395 55.9044 142.803 55.9752 142.09L56.0202 141.621C55.8402 142.154 55.538 142.546 55.1458 142.726C54.818 142.881 54.4644 142.868 54.1237 142.701C53.6672 142.482 53.2815 142 53.0244 141.344C52.9729 141.209 52.9279 141.068 52.8894 140.926V140.92ZM45.972 135.777L47.5278 136.6C47.6499 136.664 47.7142 136.793 47.6949 136.928L47.4249 138.798C47.1163 140.933 48.0549 143.253 49.4757 143.871C49.9386 144.07 50.3821 144.051 50.8 143.813C51.5072 143.408 52.0086 142.45 52.1501 141.261L52.1693 141.126C51.9508 141.55 51.6486 141.884 51.2822 142.09C50.8 142.36 50.2471 142.373 49.72 142.135C48.3828 141.524 47.5149 139.473 47.7849 137.558L48.2542 134.189C48.2671 134.08 48.3378 133.99 48.4342 133.945C48.5307 133.9 48.6464 133.9 48.7364 133.957L52.7672 136.343C52.8765 136.407 52.9344 136.529 52.9215 136.658L52.5486 139.795C52.5486 139.833 52.5422 139.865 52.5358 139.904C52.5615 139.904 52.5936 139.904 52.6258 139.904C52.6644 139.904 52.6965 139.917 52.7286 139.936C52.7286 139.923 52.7286 139.917 52.7286 139.904C52.7286 139.711 52.7286 139.512 52.7544 139.319L53.0179 137.018C53.0308 136.908 53.0951 136.812 53.1915 136.767C53.2879 136.722 53.4037 136.722 53.5001 136.78L56.2259 138.393C56.3352 138.458 56.393 138.58 56.3802 138.702V138.74C56.3802 138.74 56.4187 138.708 56.4445 138.695C56.5409 138.644 56.6566 138.65 56.753 138.708L57.4473 139.12L57.5116 138.4L56.5602 137.808C56.4573 137.744 56.3995 137.628 56.4123 137.506L56.6759 134.793L56.3995 134.6L56.3673 134.941C56.3159 135.449 56.0973 135.828 55.7759 135.983C55.5316 136.105 55.2487 136.073 54.998 135.912L50.2086 132.813C49.5785 132.408 49.18 131.399 49.3021 130.525L49.4114 129.734L48.7942 129.303L48.3828 132.157C48.3699 132.267 48.2992 132.357 48.1964 132.402C48.0999 132.447 47.9842 132.44 47.8878 132.382L46.6085 131.579L46.4477 132.627L47.9778 133.533C48.0871 133.597 48.1514 133.726 48.1321 133.855L47.9392 135.205C47.9264 135.308 47.8556 135.398 47.7656 135.449C47.6692 135.494 47.5599 135.494 47.4635 135.443L46.1327 134.69L45.9592 135.809L45.972 135.777ZM53.6158 137.577L53.4101 139.383C53.3908 139.544 53.3844 139.711 53.3908 139.872C53.4037 140.296 53.4872 140.727 53.6351 141.106C53.828 141.601 54.1108 141.974 54.413 142.122C54.5801 142.206 54.7344 142.212 54.8823 142.141C55.133 142.026 55.3516 141.685 55.4673 141.241C55.4994 141.106 55.5251 140.965 55.5444 140.817L55.6473 139.801L55.7437 138.837L53.6158 137.583V137.577ZM56.348 141.299C56.3995 141.299 56.4509 141.312 56.4959 141.338L57.2159 141.717L57.2866 140.946L56.3287 140.406C56.2902 140.38 56.2516 140.354 56.2259 140.315L56.168 140.875C56.1487 141.061 56.1166 141.235 56.078 141.396C56.078 141.415 56.0716 141.428 56.0652 141.447C56.0909 141.402 56.1359 141.363 56.1809 141.338C56.2259 141.312 56.2837 141.299 56.3352 141.299H56.348ZM48.8328 134.748L48.4278 137.635C48.2028 139.261 48.9164 141.048 49.99 141.537C50.3371 141.698 50.665 141.691 50.9672 141.518C51.4622 141.241 51.8158 140.566 51.9186 139.705L52.2658 136.773L48.8264 134.742L48.8328 134.748Z" fill="#19116E"/>
<path d="M114.315 231.133C125.293 229.913 133.406 221.847 132.436 213.117C131.466 204.387 121.78 198.298 110.802 199.518C99.8243 200.738 91.7111 208.804 92.6811 217.534C93.6511 226.264 103.337 232.353 114.315 231.133Z" fill="#C2A300"/>
<path d="M111.5 231.615C107.135 231.615 102.982 230.484 99.5684 228.343C95.3962 225.72 92.8375 221.895 92.3554 217.575C91.3653 208.684 99.6263 200.436 110.761 199.201C116.142 198.604 121.388 199.709 125.534 202.319C129.706 204.942 132.265 208.767 132.747 213.088C133.737 221.979 125.476 230.227 114.342 231.461C113.39 231.564 112.439 231.622 111.5 231.622V231.615ZM110.832 199.838C100.044 201.034 92.0468 208.96 92.9918 217.504C93.4483 221.625 95.904 225.283 99.9092 227.803C103.934 230.336 109.038 231.409 114.271 230.824C125.058 229.629 133.056 221.702 132.111 213.158C131.654 209.037 129.199 205.379 125.193 202.859C121.169 200.326 116.071 199.259 110.832 199.838Z" fill="#19116E"/>
<path d="M114.655 234.231C125.633 233.011 133.746 224.945 132.776 216.215C131.806 207.484 122.12 201.396 111.142 202.616C100.164 203.835 92.051 211.901 93.021 220.632C93.991 229.362 103.677 235.45 114.655 234.231Z" fill="#FFD600"/>
<path d="M111.841 234.705C107.476 234.705 103.323 233.574 99.9093 231.433C95.737 228.81 93.1783 224.985 92.6962 220.665C91.7062 211.774 99.9671 203.526 111.102 202.291C116.483 201.693 121.728 202.799 125.875 205.409C130.047 208.032 132.606 211.857 133.088 216.177C133.57 220.497 131.912 224.792 128.414 228.27C124.943 231.722 120.063 233.953 114.683 234.551C113.731 234.654 112.78 234.711 111.841 234.711V234.705ZM111.172 202.928C100.391 204.123 92.3876 212.05 93.3326 220.594C93.7891 224.715 96.2449 228.373 100.25 230.893C104.274 233.426 109.379 234.499 114.612 233.914C119.851 233.329 124.589 231.163 127.964 227.813C131.314 224.483 132.908 220.375 132.452 216.248C131.995 212.121 129.539 208.469 125.534 205.949C121.51 203.416 116.405 202.349 111.172 202.928Z" fill="#19116E"/>
<path d="M111.346 204.492C101.947 205.533 94.9206 212.29 95.3385 219.734C95.3385 219.747 95.3385 219.753 95.3385 219.76C95.3449 219.959 95.3642 220.158 95.3835 220.364C96.2385 228.059 104.769 233.421 114.438 232.347C124.114 231.274 131.256 224.164 130.407 216.475C130.382 216.269 130.356 216.076 130.324 215.877C130.324 215.877 130.324 215.864 130.324 215.851C129.096 208.497 120.758 203.45 111.353 204.492H111.346Z" fill="#19116E"/>
<path d="M111.97 232.811C108.119 232.811 104.448 231.814 101.439 229.918C97.7556 227.603 95.4927 224.222 95.0684 220.403C95.0427 220.197 95.0298 219.998 95.017 219.799C95.017 219.786 95.017 219.773 95.017 219.754C94.5927 212.078 101.748 205.231 111.314 204.171C120.88 203.11 129.372 208.214 130.639 215.794C130.639 215.794 130.639 215.826 130.639 215.845C130.671 216.025 130.703 216.224 130.722 216.437C131.597 224.293 124.306 231.576 114.47 232.663C113.628 232.759 112.792 232.804 111.963 232.804L111.97 232.811ZM95.6598 219.722V219.735C95.6727 219.947 95.6855 220.133 95.7113 220.332C96.1163 223.952 98.2699 227.166 101.786 229.378C105.322 231.602 109.816 232.547 114.413 232.033C123.895 230.978 130.928 224.016 130.092 216.514C130.073 216.314 130.041 216.128 130.009 215.935C130.009 215.922 130.009 215.909 130.009 215.903C128.794 208.664 120.61 203.791 111.391 204.813C102.166 205.836 95.2612 212.387 95.6663 219.722H95.6598Z" fill="#19116E"/>
<path d="M111.346 204.494C101.947 205.536 94.9206 212.292 95.3385 219.737C95.3385 219.75 95.3385 219.756 95.3385 219.762C96.5664 227.13 104.898 232.183 114.303 231.135C123.715 230.087 130.742 223.33 130.317 215.873C130.317 215.873 130.317 215.86 130.317 215.847C129.089 208.493 120.751 203.446 111.346 204.488V204.494Z" fill="white"/>
<path d="M111.835 231.596C103.329 231.596 96.1806 226.742 95.0234 219.825C95.0234 219.805 95.017 219.78 95.017 219.754C94.5927 212.078 101.748 205.231 111.314 204.171C120.88 203.11 129.372 208.214 130.639 215.794C130.639 215.794 130.645 215.845 130.645 215.871C131.057 223.553 123.908 230.387 114.342 231.448C113.493 231.544 112.657 231.589 111.835 231.589V231.596ZM95.6598 219.722V219.735C96.8684 226.967 105.046 231.846 114.271 230.818C123.503 229.789 130.414 223.238 130.002 215.897C128.787 208.658 120.61 203.785 111.385 204.813C102.159 205.836 95.2548 212.387 95.6598 219.722Z" fill="#19116E"/>
<path d="M111.622 221.521L112.4 220.794C111.14 221.964 111.217 224.086 112.561 225.539C113.236 226.265 114.098 226.683 114.953 226.78C115.808 226.87 116.65 226.638 117.28 226.053L117.672 225.693L119.363 227.512L120.539 226.42L118.848 224.6L119.768 223.745L121.458 225.571L122.635 224.478L120.944 222.652L121.626 222.016L123.336 220.428L122.031 219.026L121.311 219.695C120.764 220.203 119.851 220.1 119.273 219.476L113.288 213.035C112.703 212.405 112.67 211.492 113.217 210.984L113.937 210.316L112.632 208.914L110.922 210.502L110.24 211.138L108.55 209.319L107.373 210.412L109.064 212.231L108.145 213.086L106.454 211.267L105.277 212.36L106.968 214.179L105.74 215.324C104.255 216.699 104.326 219.194 105.882 220.923C107.482 222.704 110.105 222.948 111.629 221.534L111.622 221.521ZM118.083 223.777L117.286 224.517C117.158 224.639 117.016 224.742 116.862 224.819C115.91 225.327 114.612 225.07 113.738 224.131C113.23 223.584 112.966 222.916 112.94 222.267C112.921 221.797 113.037 221.347 113.281 220.962C113.371 220.814 113.487 220.679 113.615 220.563L114.413 219.824L115.332 218.969L119.003 222.922L118.083 223.777ZM107.54 215.189L107.746 215.002L108.922 213.909L109.842 213.054L114.419 217.979L113.5 218.834L112.323 219.927L112.117 220.113C110.941 221.206 108.961 220.994 107.695 219.637C106.428 218.274 106.364 216.288 107.54 215.189Z" fill="#FFD600"/>
<path d="M119.363 227.835C119.363 227.835 119.356 227.835 119.35 227.835C119.266 227.835 119.183 227.796 119.125 227.732L117.653 226.144L117.498 226.285C116.823 226.915 115.91 227.205 114.92 227.095C113.95 226.986 113.03 226.51 112.33 225.758C111.372 224.723 111.012 223.367 111.262 222.197C110.607 222.595 109.829 222.794 109 222.756C107.739 222.698 106.518 222.107 105.637 221.129C103.972 219.278 103.914 216.565 105.515 215.08L106.512 214.154L105.039 212.566C104.917 212.438 104.924 212.232 105.059 212.11L106.235 211.017C106.299 210.959 106.37 210.927 106.467 210.933C106.55 210.933 106.634 210.972 106.692 211.036L108.164 212.624L108.614 212.206L107.142 210.618C107.084 210.554 107.052 210.47 107.058 210.387C107.064 210.303 107.097 210.22 107.161 210.162L108.337 209.069C108.466 208.947 108.672 208.953 108.794 209.088L110.266 210.676L112.42 208.677C112.548 208.555 112.754 208.561 112.876 208.696L114.181 210.098C114.303 210.226 114.297 210.432 114.162 210.554L113.442 211.223C113.03 211.608 113.069 212.322 113.525 212.817L119.511 219.259C119.973 219.754 120.681 219.844 121.098 219.464L121.818 218.796C121.947 218.674 122.153 218.68 122.275 218.815L123.58 220.216C123.702 220.345 123.696 220.551 123.561 220.673L121.407 222.672L122.879 224.26C123.001 224.389 122.995 224.594 122.86 224.717L121.683 225.809C121.619 225.867 121.548 225.9 121.452 225.893C121.368 225.893 121.285 225.854 121.227 225.79L119.755 224.202L119.305 224.62L120.777 226.208C120.899 226.337 120.893 226.542 120.758 226.665L119.581 227.757C119.523 227.815 119.446 227.841 119.363 227.841V227.835ZM117.672 225.372C117.672 225.372 117.678 225.372 117.685 225.372C117.768 225.372 117.852 225.411 117.91 225.475L119.382 227.063L120.083 226.407L118.61 224.819C118.488 224.691 118.495 224.485 118.63 224.363L119.549 223.508C119.613 223.45 119.684 223.418 119.781 223.424C119.864 223.424 119.948 223.463 120.006 223.527L121.478 225.115L122.178 224.459L120.706 222.872C120.584 222.743 120.591 222.537 120.726 222.415L122.879 220.416L122.011 219.484L121.523 219.934C120.848 220.557 119.729 220.454 119.028 219.696L113.043 213.254C112.342 212.496 112.317 211.371 112.992 210.747L113.48 210.297L112.612 209.365L110.459 211.364C110.33 211.486 110.125 211.48 110.002 211.345L108.53 209.757L107.829 210.413L109.302 212.001C109.36 212.065 109.392 212.148 109.385 212.232C109.379 212.316 109.347 212.399 109.282 212.457L108.363 213.312C108.234 213.434 108.029 213.428 107.907 213.293L106.434 211.705L105.734 212.361L107.206 213.948C107.264 214.013 107.296 214.096 107.289 214.18C107.283 214.263 107.251 214.347 107.187 214.405L105.959 215.549C104.615 216.796 104.686 219.111 106.119 220.699C106.884 221.547 107.945 222.068 109.038 222.113C109.957 222.152 110.793 221.862 111.41 221.29L112.188 220.564C112.317 220.441 112.522 220.448 112.645 220.583C112.767 220.711 112.76 220.917 112.625 221.039C111.5 222.087 111.584 224.009 112.805 225.327C113.403 225.97 114.181 226.375 114.998 226.465C115.795 226.549 116.528 226.324 117.068 225.822L117.46 225.462C117.518 225.404 117.595 225.379 117.678 225.379L117.672 225.372ZM115.808 225.404C114.991 225.404 114.143 225.038 113.506 224.35C112.966 223.765 112.651 223.032 112.625 222.28C112.606 221.74 112.741 221.226 113.011 220.795C113.12 220.628 113.249 220.467 113.397 220.332L115.113 218.738C115.242 218.616 115.448 218.622 115.57 218.757L119.241 222.711C119.298 222.775 119.331 222.859 119.324 222.942C119.318 223.026 119.286 223.109 119.221 223.167L117.511 224.755C117.363 224.897 117.196 225.012 117.016 225.109C116.643 225.308 116.225 225.404 115.808 225.404ZM115.313 219.432L113.834 220.801C113.725 220.904 113.628 221.014 113.551 221.142C113.345 221.464 113.249 221.849 113.262 222.261C113.281 222.859 113.532 223.444 113.969 223.913C114.721 224.723 115.872 224.987 116.701 224.537C116.83 224.466 116.952 224.382 117.061 224.279L117.858 223.54L118.54 222.904L115.306 219.426L115.313 219.432ZM110.279 221.142C110.157 221.142 110.028 221.136 109.906 221.123C108.993 221.026 108.125 220.576 107.463 219.863C106.081 218.378 106.017 216.179 107.328 214.964L109.623 212.83C109.687 212.772 109.758 212.74 109.855 212.746C109.938 212.746 110.022 212.785 110.08 212.849L114.657 217.774C114.715 217.838 114.747 217.921 114.74 218.005C114.734 218.089 114.702 218.172 114.638 218.23L112.342 220.364C111.79 220.879 111.07 221.149 110.285 221.149L110.279 221.142ZM109.822 213.518L107.765 215.433C106.717 216.404 106.794 218.198 107.932 219.426C108.492 220.024 109.218 220.403 109.97 220.486C110.716 220.57 111.397 220.351 111.899 219.889L113.956 217.973L109.816 213.518H109.822Z" fill="#19116E"/>
<path d="M114.2 100.216C114.2 100.216 117.338 120.004 126.499 134.938C135.66 149.865 146.19 157.792 146.19 157.792C146.19 157.792 142.931 161.591 143.58 165.86C144.229 170.135 146.904 171.736 146.904 171.736C146.904 171.736 143.882 177.811 146.904 182.06C149.931 186.316 155.332 186.708 155.332 186.708C155.332 186.708 158.135 192.867 165.322 193.156C172.509 193.452 174.875 190.321 174.875 190.321C174.875 190.321 184.364 196.442 193.801 192.726C203.239 189.01 203.984 183.558 203.984 183.558C203.984 183.558 211.352 185.378 213.898 179.09C216.443 172.803 211.847 170.257 211.847 170.257C211.847 170.257 215.408 165.526 213.647 161.566C211.885 157.605 209.892 157.47 209.892 157.47C209.892 157.47 215.267 148.714 207.109 142.009C198.951 135.304 192.078 141.881 192.078 141.881C192.078 141.881 190.915 137.631 185.791 136.725C180.667 135.818 178.501 138.332 178.501 138.332C178.501 138.332 172.143 139.149 159.819 133.806C147.495 128.464 129.334 100.383 129.334 100.383L114.207 100.203L114.2 100.216Z" fill="white"/>
<path d="M187.36 194.243C181.233 194.243 176.084 191.421 174.933 190.746C174.232 191.479 171.532 193.741 165.303 193.484C158.687 193.214 155.653 188.026 155.119 187.017C154.117 186.908 149.436 186.188 146.64 182.253C143.856 178.345 145.939 173.079 146.492 171.852C145.791 171.337 143.811 169.569 143.252 165.911C142.68 162.138 144.994 158.795 145.727 157.843C144.036 156.5 134.509 148.618 126.222 135.105C117.132 120.293 113.911 100.467 113.879 100.267C113.866 100.171 113.892 100.081 113.956 100.004C114.02 99.9267 114.123 99.8945 114.2 99.8945L129.327 100.075C129.437 100.075 129.533 100.132 129.591 100.222C129.771 100.505 147.842 128.284 159.935 133.523C171.146 138.383 177.446 138.107 178.34 138.036C178.822 137.554 181.117 135.587 185.836 136.423C190.085 137.175 191.725 140.196 192.213 141.354C193.769 140.113 200.089 135.844 207.302 141.771C214.618 147.782 211.275 155.497 210.355 157.271C211.088 157.541 212.586 158.441 213.923 161.443C215.518 165.018 213.03 169.087 212.284 170.18C213.293 170.913 216.405 173.709 214.18 179.212C211.872 184.915 205.707 184.201 204.216 183.938C203.894 185.211 202.178 189.769 193.904 193.028C191.686 193.902 189.462 194.236 187.347 194.236L187.36 194.243ZM174.875 190.013C174.933 190.013 174.997 190.032 175.049 190.064C175.145 190.122 184.518 196.049 193.685 192.436C202.801 188.843 203.663 183.571 203.669 183.52C203.682 183.43 203.734 183.353 203.811 183.301C203.888 183.25 203.978 183.23 204.068 183.256C204.087 183.256 205.887 183.693 207.964 183.372C210.702 182.948 212.599 181.469 213.602 178.981C216 173.047 211.872 170.649 211.692 170.553C211.609 170.508 211.551 170.431 211.532 170.341C211.512 170.251 211.532 170.154 211.59 170.084C211.622 170.039 215.016 165.455 213.351 161.72C211.705 158.03 209.886 157.818 209.867 157.818C209.757 157.805 209.655 157.74 209.61 157.644C209.565 157.548 209.565 157.425 209.622 157.329C209.835 156.982 214.753 148.727 206.909 142.286C199.073 135.844 192.58 141.887 192.31 142.144C192.226 142.221 192.11 142.254 192.001 142.221C191.892 142.189 191.808 142.106 191.776 141.996C191.731 141.829 190.593 137.927 185.746 137.072C180.886 136.211 178.771 138.551 178.751 138.57C178.7 138.628 178.629 138.666 178.552 138.679C178.289 138.711 171.963 139.451 159.703 134.128C154.541 131.89 147.816 125.558 139.716 115.317C134.175 108.31 129.854 101.772 129.173 100.73L114.599 100.557C115.088 103.36 118.456 121.206 126.788 134.783C135.807 149.486 146.293 157.47 146.396 157.548C146.466 157.599 146.511 157.683 146.524 157.773C146.531 157.863 146.505 157.946 146.447 158.017C146.415 158.055 143.291 161.758 143.908 165.828C144.525 169.884 147.058 171.466 147.083 171.479C147.225 171.562 147.283 171.749 147.206 171.897C147.173 171.954 144.306 177.85 147.186 181.893C150.092 185.976 155.325 186.4 155.377 186.406C155.492 186.413 155.595 186.49 155.647 186.593C155.672 186.651 158.462 192.571 165.354 192.854C172.252 193.137 174.611 190.18 174.637 190.148C174.701 190.064 174.798 190.019 174.894 190.019L174.875 190.013Z" fill="#19116E"/>
<path d="M157.299 164.136C157.26 164.136 157.221 164.13 157.176 164.111C150.696 161.507 146.035 158.081 145.99 158.048C145.849 157.946 145.817 157.74 145.926 157.598C146.029 157.457 146.235 157.425 146.376 157.534C146.421 157.566 151.018 160.948 157.421 163.519C157.588 163.584 157.665 163.77 157.601 163.937C157.549 164.066 157.427 164.136 157.305 164.136H157.299Z" fill="#19116E"/>
<path d="M187.855 142.712C187.758 142.712 187.662 142.667 187.597 142.589C183.83 137.729 178.61 138.655 178.559 138.662C178.385 138.694 178.218 138.578 178.186 138.404C178.154 138.231 178.269 138.064 178.443 138.031C178.501 138.019 184.1 137.016 188.112 142.197C188.221 142.339 188.195 142.538 188.054 142.647C187.996 142.692 187.925 142.712 187.855 142.712Z" fill="#19116E"/>
<path d="M175.357 181.4C175.164 181.4 174.958 181.394 174.746 181.368C170.67 180.982 169.108 177.922 169.044 177.793C168.967 177.633 169.031 177.44 169.192 177.363C169.346 177.286 169.545 177.35 169.623 177.504C169.68 177.62 171.101 180.378 174.811 180.725C178.43 181.066 179.497 177.98 179.542 177.845C179.574 177.742 179.658 177.665 179.761 177.639C179.864 177.613 179.973 177.633 180.056 177.697C180.082 177.716 182.339 179.561 183.991 178.456C185.624 177.363 184.974 175.595 184.942 175.518C184.878 175.351 184.962 175.164 185.129 175.1C185.296 175.036 185.482 175.119 185.547 175.286C185.553 175.312 186.415 177.607 184.351 178.989C182.718 180.082 180.764 178.983 179.986 178.443C179.555 179.33 178.25 181.394 175.363 181.394L175.357 181.4Z" fill="#19116E"/>
<path d="M182.731 185.932C181.278 185.932 180.101 184.595 180.037 184.524C179.921 184.389 179.934 184.19 180.069 184.074C180.204 183.959 180.404 183.972 180.526 184.107C180.545 184.126 182.088 185.862 183.547 185.084C185.064 184.267 185.084 182.994 185.084 182.982C185.084 182.802 185.225 182.66 185.405 182.66C185.585 182.66 185.727 182.802 185.727 182.982C185.727 183.052 185.707 184.653 183.856 185.65C183.477 185.855 183.104 185.932 182.744 185.932H182.731Z" fill="#19116E"/>
<path d="M138.688 139.656C138.61 139.656 138.533 139.631 138.475 139.573C138.373 139.483 135.962 137.31 130.928 129.293C125.901 121.277 122.738 111.093 122.706 110.991C122.654 110.823 122.751 110.643 122.918 110.592C123.085 110.541 123.265 110.637 123.316 110.804C123.349 110.907 126.492 121.013 131.468 128.952C136.431 136.866 138.868 139.071 138.893 139.097C139.028 139.213 139.041 139.419 138.919 139.554C138.855 139.624 138.765 139.663 138.675 139.663L138.688 139.656Z" fill="#19116E"/>
<path d="M172.162 145.535C172.162 145.535 172.162 145.535 172.149 145.535C171.988 145.535 168.131 145.368 159.664 141.504C151.956 137.988 146.833 132.491 146.788 132.44C146.665 132.311 146.678 132.105 146.807 131.983C146.936 131.861 147.141 131.874 147.263 132.002C147.315 132.054 152.355 137.454 159.941 140.919C168.266 144.719 172.143 144.892 172.181 144.892C172.361 144.892 172.496 145.046 172.49 145.226C172.49 145.4 172.342 145.535 172.168 145.535H172.162Z" fill="#19116E"/>
<path d="M187.559 177.36C186.305 177.36 185.315 176.884 185.258 176.852C185.097 176.775 185.033 176.582 185.11 176.421C185.187 176.261 185.38 176.196 185.54 176.274C185.56 176.28 187.366 177.154 189.057 176.409C190.716 175.676 190.979 174.248 190.986 174.191C191.018 174.017 191.185 173.895 191.358 173.927C191.532 173.959 191.654 174.12 191.622 174.293C191.609 174.371 191.301 176.119 189.314 177C188.716 177.264 188.105 177.36 187.553 177.36H187.559Z" fill="#19116E"/>
<path d="M105.798 26.3591L76.1614 39.4673C76.1614 39.4673 73.8921 25.4655 74.4964 15.0316C74.805 9.76003 75.84 5.38848 78.2893 4.21844C85.5538 0.721202 105.798 26.3591 105.798 26.3591Z" fill="#FFD600"/>
<path d="M76.1615 39.7892C76.11 39.7892 76.0586 39.7764 76.0072 39.7507C75.9172 39.7057 75.8593 39.6157 75.8465 39.5192C75.8207 39.3778 73.5771 25.3631 74.1814 15.0128C74.5478 8.74478 75.885 5.01611 78.1544 3.92965C85.5603 0.361688 105.219 25.106 106.055 26.1603C106.119 26.2374 106.139 26.3403 106.113 26.4367C106.087 26.5331 106.023 26.6103 105.933 26.6553L76.2965 39.7635C76.2579 39.7828 76.2129 39.7892 76.1679 39.7892H76.1615ZM79.8387 4.21251C79.3116 4.21251 78.8423 4.30894 78.4308 4.50823C76.3865 5.49183 75.1714 9.03408 74.8179 15.0514C74.2778 24.3345 76.0522 36.6134 76.4122 39.0049L105.284 26.2374C104.178 24.8617 99.665 19.3394 94.5348 14.2028C87.9518 7.61975 82.9245 4.21251 79.8323 4.21251H79.8387Z" fill="#19116E"/>
<path d="M84.7245 71.5078C84.7245 71.5078 72.3427 130.704 81.028 128.332C89.7132 125.959 105.393 99.0807 105.393 99.0807L84.7245 71.5078Z" fill="#FFD600"/>
<path d="M80.533 128.723C80.0701 128.723 79.6522 128.549 79.2922 128.215C76.9264 125.984 77.0743 115.737 79.7294 97.7557C81.703 84.4353 84.3774 71.5778 84.4095 71.4492C84.4352 71.3271 84.5316 71.2306 84.6538 71.1985C84.7759 71.1728 84.9045 71.2178 84.9817 71.3206L105.65 98.8936C105.727 98.9964 105.734 99.1379 105.669 99.2471C105.027 100.346 89.8225 126.267 81.1116 128.646C80.9123 128.697 80.7194 128.729 80.533 128.729V128.723ZM84.8981 72.2721C84.3131 75.1265 82.0759 86.3125 80.3722 97.8457C77.1 119.967 78.2186 126.312 79.7358 127.746C80.0765 128.067 80.4623 128.157 80.9444 128.022C89.0318 125.817 103.606 101.471 105.007 99.0993L84.8981 72.2721Z" fill="#19116E"/>
<path d="M123.734 54.25C123.734 54.25 175.859 84.9152 168.26 89.7431C160.661 94.5711 130.227 88.091 130.227 88.091L123.734 54.25Z" fill="#FFD600"/>
<path d="M158.025 91.8588C146.569 91.8588 131.057 88.593 130.163 88.4001C130.034 88.3744 129.938 88.2715 129.912 88.1494L123.419 54.3084C123.393 54.1863 123.445 54.0577 123.548 53.987C123.651 53.9163 123.786 53.9099 123.895 53.9741C125.746 55.0606 169.205 80.7178 169.333 88.3808C169.346 89.0751 169.038 89.628 168.427 90.0137C166.299 91.3702 162.461 91.8588 158.019 91.8588H158.025ZM130.504 87.8151C133.197 88.3744 161.015 93.9674 168.093 89.4673C168.517 89.1973 168.71 88.8566 168.697 88.3873C168.658 86.3043 164.724 81.2063 146.151 68.741C136.47 62.2415 126.691 56.3785 124.184 54.887L130.504 87.8151Z" fill="#19116E"/>
<path d="M129.34 96.9183L112.523 104.356L109.771 98.1334L126.589 90.6953L129.34 96.9183Z" fill="#796DFF"/>
<path d="M112.523 104.678C112.484 104.678 112.445 104.672 112.407 104.659C112.33 104.627 112.265 104.569 112.227 104.492L109.475 98.2685C109.443 98.1914 109.437 98.1014 109.475 98.0242C109.507 97.9471 109.565 97.8828 109.642 97.8442L126.46 90.4062C126.621 90.3355 126.814 90.4062 126.884 90.5733L129.636 96.7964C129.668 96.8735 129.674 96.9635 129.636 97.0406C129.604 97.1178 129.546 97.1821 129.469 97.2206L112.651 104.659C112.613 104.678 112.568 104.684 112.523 104.684V104.678ZM110.195 98.3007L112.69 103.932L128.922 96.7513L126.428 91.1198L110.195 98.3007Z" fill="#19116E"/>
<path d="M129.552 96.2971C122.828 96.265 116.412 99.1001 111.918 104.095L111.545 114.908L124.679 109.103L137.813 103.298L129.559 96.2971H129.552Z" fill="#FFD600"/>
<path d="M111.539 115.229C111.474 115.229 111.41 115.21 111.359 115.171C111.269 115.107 111.211 115.004 111.217 114.895L111.59 104.082C111.59 104.005 111.622 103.934 111.674 103.876C116.2 98.8488 122.667 95.9688 129.436 95.9688C129.552 95.9688 129.674 95.9687 129.758 96.0459L138.012 103.047C138.096 103.118 138.141 103.227 138.122 103.336C138.102 103.445 138.032 103.542 137.935 103.587L111.674 115.204C111.635 115.223 111.59 115.229 111.545 115.229H111.539ZM112.227 104.223L111.873 114.406L137.196 103.208L129.424 96.6116C122.879 96.6116 116.624 99.3824 112.22 104.217L112.227 104.223Z" fill="#19116E"/>
<path d="M87.4375 31.5981L82.2302 36.7797L76.1614 39.4669C76.1614 39.4669 73.8921 25.4651 74.4964 15.0312C74.4964 15.0312 75.3578 26.2366 77.7172 29.3931C80.0765 32.5496 87.4375 31.5981 87.4375 31.5981Z" fill="#19116E"/>
<path d="M76.1615 39.7895C76.11 39.7895 76.0586 39.7766 76.0072 39.7509C75.9172 39.7059 75.8593 39.6159 75.8465 39.5195C75.8207 39.3781 73.5771 25.3634 74.1814 15.0131C74.1943 14.8459 74.3293 14.7109 74.4964 14.7109C74.6636 14.7109 74.805 14.8395 74.8179 15.0067C74.8243 15.1159 75.6986 26.1541 77.9744 29.2013C80.1987 32.1779 87.3218 31.2907 87.3925 31.2843C87.5339 31.265 87.6625 31.3357 87.7204 31.4643C87.7782 31.5864 87.7589 31.7343 87.6561 31.8307L82.4488 37.0123C82.4488 37.0123 82.3909 37.0637 82.3524 37.0766L76.2836 39.7638C76.245 39.7831 76.2 39.7895 76.155 39.7895H76.1615ZM74.7214 19.9054C74.8307 28.1727 76.11 37.0123 76.4122 39.0052L82.0438 36.5173L86.5696 32.0107C84.4867 32.1586 79.4208 32.2229 77.4536 29.5935C76.0779 27.7549 75.21 23.3833 74.715 19.9118L74.7214 19.9054Z" fill="#19116E"/>
<path d="M122.757 52.0333C128.286 64.5372 130.799 76.8804 130.343 86.4143C130.311 86.9864 130.279 87.5457 130.227 88.0922C126.801 90.8951 122.892 93.338 118.553 95.2538C114.207 97.176 109.771 98.4296 105.393 99.0789C97.6013 93.1644 89.6103 82.5441 83.7473 69.2881C79.9479 60.6928 77.5693 52.1812 76.605 44.5952C76.605 44.5695 76.5921 44.5566 76.5921 44.5566C76.3735 42.808 76.2257 41.1044 76.1614 39.4715C80.0443 35.9036 84.6666 32.8306 89.9125 30.5098C95.1583 28.189 100.539 26.839 105.798 26.3633C112.015 32.5285 118.07 41.4387 122.757 52.0397V52.0333Z" fill="#796DFF"/>
<path d="M105.387 99.3945C105.316 99.3945 105.252 99.3687 105.194 99.3302C97.0486 93.1457 89.1219 82.2425 83.4517 69.4108C79.7616 61.0662 77.2801 52.4967 76.2837 44.6279C76.0522 42.8086 75.9044 41.0857 75.8401 39.4785C75.8401 39.3821 75.8722 39.2921 75.9429 39.2278C79.9738 35.5184 84.6346 32.484 89.7841 30.2082C94.9271 27.9324 100.308 26.531 105.772 26.036C105.862 26.0295 105.959 26.0617 106.03 26.126C112.49 32.5354 118.54 41.69 123.053 51.8988C128.363 63.9077 131.14 76.476 130.665 86.3955C130.665 86.4084 130.665 86.4212 130.665 86.4341C130.632 87.0062 130.6 87.572 130.549 88.1184C130.542 88.202 130.497 88.2856 130.433 88.337C126.884 91.2428 122.931 93.6664 118.681 95.5436C114.432 97.4208 109.977 98.7194 105.438 99.388C105.425 99.388 105.406 99.388 105.393 99.388L105.387 99.3945ZM76.9073 44.4929C76.9073 44.4929 76.9137 44.5251 76.9201 44.5379C77.9101 52.3553 80.3724 60.8669 84.0367 69.1536C89.6426 81.8247 97.4471 92.5993 105.47 98.7387C109.906 98.0701 114.258 96.7972 118.418 94.9586C122.571 93.12 126.434 90.7542 129.919 87.9256C129.957 87.4434 129.989 86.942 130.015 86.4341C130.015 86.4212 130.015 86.4084 130.015 86.3955C130.491 76.5724 127.739 64.0942 122.461 52.156C118 42.0757 112.047 33.0369 105.676 26.6853C100.334 27.1867 95.0749 28.5625 90.0412 30.7932C85.0011 33.024 80.4431 35.9812 76.483 39.5942C76.5537 41.1371 76.6951 42.7829 76.9073 44.4865V44.4929Z" fill="#19116E"/>
<path d="M97.6014 56.2068C102.192 56.2068 105.914 52.4852 105.914 47.8944C105.914 43.3036 102.192 39.582 97.6014 39.582C93.0106 39.582 89.2891 43.3036 89.2891 47.8944C89.2891 52.4852 93.0106 56.2068 97.6014 56.2068Z" fill="white"/>
<path d="M97.6143 56.5272C94.297 56.5272 91.1277 54.6051 89.7069 51.3842C87.7783 47.032 89.7583 41.9211 94.1106 39.9925C96.2192 39.0603 98.5657 39.0025 100.719 39.8382C102.873 40.6675 104.57 42.2876 105.502 44.3962C106.435 46.5048 106.492 48.8513 105.657 51.0049C104.827 53.1586 103.207 54.8558 101.099 55.7879C99.9672 56.2894 98.7843 56.5272 97.6207 56.5272H97.6143ZM97.5886 39.9025C96.5085 39.9025 95.4156 40.1211 94.3678 40.5839C90.3369 42.3647 88.5112 47.0963 90.2919 51.1271C91.1534 53.0814 92.7284 54.5793 94.7213 55.3508C96.7143 56.1222 98.8872 56.0708 100.835 55.2029C102.789 54.3415 104.287 52.7664 105.059 50.7735C105.83 48.7806 105.779 46.6141 104.911 44.6598C103.593 41.6768 100.662 39.9025 97.5886 39.9025Z" fill="#19116E"/>
<path d="M130.337 86.4167C130.304 86.9888 130.272 87.5481 130.221 88.0946C126.794 90.8975 122.886 93.3405 118.546 95.2562C114.2 97.1784 109.765 98.432 105.387 99.0813C97.5949 93.1669 89.604 82.5466 83.741 69.2905C79.9416 60.6952 77.5629 52.1836 76.5986 44.5977C76.8558 45.7484 82.9052 72.2477 100.276 81.6723C118.038 91.309 130.337 86.4231 130.337 86.4231V86.4167Z" fill="#19116E"/>
<path d="M105.387 99.3961C105.316 99.3961 105.252 99.3704 105.194 99.3318C97.0485 93.1474 89.1218 82.2442 83.4516 69.4124C79.7615 61.0679 77.28 52.4984 76.2836 44.6296C76.2643 44.456 76.38 44.3017 76.5472 44.2695C76.7143 44.2438 76.875 44.3467 76.9136 44.5138C77.1643 45.6324 83.1816 72.016 100.43 81.3699C117.839 90.8137 130.099 86.1529 130.221 86.1079C130.382 86.0436 130.568 86.1207 130.639 86.2815C130.658 86.3329 130.664 86.3779 130.664 86.4293C130.632 87.0015 130.6 87.5672 130.549 88.1136C130.542 88.1972 130.497 88.2808 130.433 88.3322C126.884 91.238 122.931 93.6617 118.681 95.5388C114.432 97.416 109.977 98.7147 105.438 99.3832C105.425 99.3832 105.406 99.3832 105.393 99.3832L105.387 99.3961ZM77.9229 50.454C79.2022 56.5485 81.2787 62.9129 84.0431 69.1552C89.649 81.8263 97.4535 92.6009 105.477 98.7404C109.912 98.0718 114.265 96.7989 118.424 94.9603C122.577 93.1216 126.441 90.7559 129.925 87.9272C129.957 87.5801 129.977 87.2265 130.002 86.8729C127.585 87.6315 115.917 90.5116 100.134 81.9485C87.4246 75.0504 80.7387 59.1071 77.9294 50.4604L77.9229 50.454Z" fill="#19116E"/>
<path d="M110.015 65.1177C110.992 67.3356 126.884 108.12 124.666 109.103C122.448 110.08 102.963 70.8842 101.986 68.6728C101.009 66.4613 102.005 63.8641 104.223 62.8869C106.441 61.9097 109.032 62.9062 110.009 65.1241L110.015 65.1177Z" fill="#FFD600"/>
<path d="M124.563 109.457C123.843 109.457 121.844 107.721 112.587 90.2351C107.257 80.1677 102.185 69.901 101.703 68.8017C101.195 67.6509 101.163 66.3716 101.619 65.1951C102.076 64.0187 102.956 63.0929 104.107 62.5851C106.479 61.5372 109.269 62.6108 110.317 64.9894C110.806 66.0887 114.991 76.754 118.848 87.4643C126.486 108.654 125.348 109.155 124.801 109.393C124.737 109.425 124.66 109.457 124.563 109.457ZM105.997 62.8229C105.451 62.8229 104.891 62.9322 104.358 63.1701C103.368 63.6072 102.603 64.4108 102.211 65.4201C101.819 66.4359 101.844 67.5416 102.281 68.5317C104.216 72.9096 121.986 107.998 124.531 108.782C125.714 106.307 111.082 68.3131 109.726 65.2466C109.057 63.7294 107.559 62.8229 105.997 62.8229Z" fill="#19116E"/>
<path d="M131.577 157.295C131.584 157.417 131.603 157.539 131.622 157.655C130.883 157.269 130.034 157.07 129.147 157.134C126.614 157.32 124.705 159.526 124.891 162.065C125.078 164.598 127.283 166.507 129.822 166.321C132.355 166.134 134.265 163.929 134.078 161.39C134.046 160.953 133.95 160.541 133.808 160.149C134.2 160.278 134.625 160.336 135.068 160.303C136.862 160.175 138.212 158.613 138.083 156.813C137.955 155.019 136.393 153.669 134.592 153.798C132.799 153.926 131.449 155.488 131.577 157.288V157.295Z" fill="white"/>
<path d="M129.482 166.653C128.299 166.653 127.174 166.235 126.267 165.457C125.271 164.595 124.673 163.4 124.576 162.088C124.48 160.777 124.898 159.504 125.759 158.507C126.621 157.511 127.816 156.913 129.128 156.817C129.854 156.765 130.574 156.874 131.249 157.132C131.23 156.244 131.532 155.396 132.117 154.714C132.741 153.988 133.615 153.551 134.567 153.487C135.525 153.416 136.444 153.724 137.17 154.348C137.897 154.972 138.334 155.846 138.405 156.797C138.475 157.749 138.167 158.675 137.543 159.401C136.92 160.127 136.045 160.565 135.094 160.629C134.824 160.648 134.547 160.635 134.284 160.597C134.348 160.854 134.387 161.111 134.406 161.368C134.605 164.075 132.561 166.44 129.854 166.64C129.732 166.646 129.61 166.653 129.488 166.653H129.482ZM129.482 157.447C129.379 157.447 129.276 157.447 129.173 157.459C128.035 157.543 126.994 158.064 126.241 158.932C125.496 159.8 125.129 160.905 125.213 162.043C125.296 163.181 125.817 164.223 126.685 164.975C127.553 165.727 128.652 166.087 129.797 166.003C132.149 165.83 133.924 163.773 133.757 161.42C133.731 161.034 133.647 160.648 133.506 160.269C133.461 160.153 133.493 160.025 133.577 159.935C133.66 159.845 133.789 159.812 133.911 159.851C134.277 159.973 134.657 160.018 135.042 159.992C135.827 159.935 136.54 159.575 137.048 158.983C137.556 158.392 137.813 157.633 137.755 156.849C137.697 156.064 137.337 155.351 136.746 154.837C136.155 154.322 135.396 154.072 134.612 154.129C133.827 154.187 133.114 154.547 132.606 155.139C132.098 155.73 131.841 156.489 131.899 157.273C131.905 157.382 131.924 157.492 131.944 157.601C131.969 157.723 131.918 157.845 131.822 157.916C131.719 157.987 131.59 157.999 131.481 157.942C130.864 157.614 130.176 157.447 129.488 157.447H129.482Z" fill="#19116E"/>
<path d="M154.091 131.341C156.505 131.341 158.462 129.384 158.462 126.969C158.462 124.555 156.505 122.598 154.091 122.598C151.676 122.598 149.719 124.555 149.719 126.969C149.719 129.384 151.676 131.341 154.091 131.341Z" fill="white"/>
<path d="M154.091 131.656C151.506 131.656 149.398 129.553 149.398 126.963C149.398 124.372 151.5 122.27 154.091 122.27C156.681 122.27 158.784 124.372 158.784 126.963C158.784 129.553 156.681 131.656 154.091 131.656ZM154.091 122.919C151.86 122.919 150.041 124.732 150.041 126.969C150.041 129.206 151.853 131.019 154.091 131.019C156.328 131.019 158.141 129.206 158.141 126.969C158.141 124.732 156.328 122.919 154.091 122.919Z" fill="#19116E"/>
<path d="M154.091 120.084C155.387 120.084 156.437 119.033 156.437 117.737C156.437 116.441 155.387 115.391 154.091 115.391C152.795 115.391 151.744 116.441 151.744 117.737C151.744 119.033 152.795 120.084 154.091 120.084Z" fill="white"/>
<path d="M154.091 120.402C152.619 120.402 151.423 119.207 151.423 117.734C151.423 116.262 152.619 115.066 154.091 115.066C155.563 115.066 156.759 116.262 156.759 117.734C156.759 119.207 155.563 120.402 154.091 120.402ZM154.091 115.703C152.972 115.703 152.066 116.609 152.066 117.728C152.066 118.847 152.979 119.753 154.091 119.753C155.203 119.753 156.116 118.847 156.116 117.728C156.116 116.609 155.209 115.703 154.091 115.703Z" fill="#19116E"/>
</g>
<defs>
<clipPath id="clip0_13052_26678">
<rect width="109.379" height="133.609" fill="white" transform="translate(146.621 108.699)"/>
</clipPath>
<clipPath id="clip1_13052_26678">
<rect width="223.547" height="234.707" fill="white"/>
</clipPath>
</defs>
</svg>
