<svg width="240" height="228" viewBox="0 0 240 228" fill="none" xmlns="http://www.w3.org/2000/svg">
<g clip-path="url(#clip0_3168_37297)">
<path d="M239.566 112.796L220.84 179.966L208.491 224.277C208.063 225.808 206.67 226.862 205.079 226.862H146.334C145.744 226.862 145.195 226.718 144.713 226.47C144.231 226.223 143.815 225.868 143.496 225.44L141.374 222.854L138.837 219.756L146.142 210.812L173.998 110.897C174.426 109.36 175.818 108.306 177.409 108.306H229.904L233.84 103.49L238.656 109.354C239.511 110.216 239.921 111.5 239.56 112.796H239.566Z" fill="#796DFF"/>
<path d="M205.079 227.162H146.334C145.714 227.162 145.105 227.017 144.575 226.734C144.068 226.475 143.61 226.089 143.261 225.619L138.608 219.948C138.517 219.839 138.517 219.677 138.608 219.568L145.87 210.678L173.709 110.817C174.167 109.16 175.692 108.009 177.409 108.009H229.766L233.611 103.302C233.665 103.23 233.756 103.193 233.846 103.193C233.936 103.193 234.021 103.236 234.081 103.302L238.897 109.166C239.867 110.142 240.235 111.541 239.855 112.879L208.78 224.359C208.322 226.011 206.797 227.162 205.079 227.162ZM139.235 219.761L143.737 225.251C144.044 225.661 144.424 225.987 144.858 226.204C145.31 226.439 145.822 226.565 146.34 226.565H205.085C206.532 226.565 207.815 225.595 208.201 224.203L239.276 112.71C239.596 111.577 239.282 110.402 238.451 109.558L233.846 103.959L230.139 108.491C230.085 108.563 229.995 108.6 229.904 108.6H177.409C175.963 108.6 174.679 109.576 174.294 110.968L146.437 210.901C146.425 210.943 146.407 210.98 146.383 211.01L139.235 219.761Z" fill="#19116E"/>
<path d="M200.047 220.762H141.302C138.958 220.762 137.264 218.526 137.891 216.271L168.966 104.797C169.394 103.266 170.786 102.205 172.378 102.205H231.122C233.467 102.205 235.16 104.441 234.534 106.695L203.459 218.17C203.031 219.701 201.638 220.762 200.047 220.762Z" fill="#19116E"/>
<path d="M200.047 221.063H141.302C140.091 221.063 138.976 220.509 138.24 219.545C137.511 218.58 137.276 217.357 137.601 216.188L168.676 104.713C169.134 103.061 170.659 101.904 172.377 101.904H231.122C232.333 101.904 233.448 102.459 234.184 103.423C234.913 104.387 235.148 105.611 234.822 106.78L203.747 218.255C203.289 219.906 201.764 221.063 200.047 221.063ZM172.377 102.507C170.931 102.507 169.647 103.483 169.255 104.876L138.18 216.35C137.903 217.333 138.102 218.363 138.722 219.177C139.337 219.991 140.277 220.455 141.302 220.455H200.047C201.493 220.455 202.777 219.478 203.169 218.086L234.244 106.617C234.521 105.635 234.322 104.604 233.701 103.791C233.087 102.977 232.146 102.513 231.122 102.513H172.377V102.507Z" fill="#19116E"/>
<path d="M229.742 105.646H215.464L214.867 107.786C214.675 108.467 214.054 108.943 213.343 108.943H186.896C185.848 108.943 185.094 107.943 185.371 106.936L185.733 105.646H171.992C171.015 105.646 170.159 106.297 169.9 107.232L139.976 214.566C139.591 215.952 140.633 217.32 142.068 217.32H199.818C200.795 217.32 201.65 216.669 201.909 215.735L231.827 108.401C232.213 107.015 231.17 105.646 229.736 105.646H229.742Z" fill="white"/>
<path d="M220.841 179.965L208.491 224.275C208.063 225.806 206.671 226.861 205.08 226.861H146.335C145.745 226.861 145.196 226.716 144.714 226.469C144.232 226.222 143.816 225.866 143.496 225.438L141.375 222.853H200.108C202.549 222.853 204.694 221.226 205.357 218.875L215.501 182.665L220.835 179.959L220.841 179.965Z" fill="#19116E"/>
<path d="M205.079 227.162H146.334C145.714 227.162 145.105 227.017 144.574 226.734C144.068 226.475 143.61 226.089 143.261 225.619L141.151 223.046C141.079 222.955 141.061 222.829 141.109 222.726C141.157 222.624 141.266 222.551 141.38 222.551H200.113C202.409 222.551 204.452 221.008 205.067 218.791L215.21 182.581C215.235 182.502 215.289 182.43 215.361 182.394L220.695 179.688C220.804 179.633 220.93 179.645 221.02 179.724C221.111 179.802 221.153 179.923 221.117 180.037L208.768 224.347C208.31 225.999 206.785 227.15 205.067 227.15L205.079 227.162ZM142.019 223.154L143.737 225.245C144.044 225.655 144.424 225.981 144.858 226.198C145.31 226.433 145.822 226.559 146.34 226.559H205.085C206.532 226.559 207.815 225.589 208.201 224.197L220.37 180.543L215.765 182.876L205.658 218.953C204.965 221.424 202.686 223.154 200.119 223.154H142.019Z" fill="#19116E"/>
</g>
<g clip-path="url(#clip1_3168_37297)">
<path d="M38.3456 49.009C46.7998 39.0789 47.2491 25.5766 39.3491 18.8509C31.4491 12.1251 18.1915 14.7227 9.7373 24.6528C1.28314 34.5829 0.833884 48.0851 8.73386 54.8109C16.6338 61.5367 29.8915 58.9391 38.3456 49.009Z" fill="#C2A300"/>
<path d="M19.3406 58.8598C15.2302 58.8598 11.4874 57.558 8.54025 55.0447C4.64683 51.7299 2.60972 46.7215 2.80258 40.9296C2.99544 35.1678 5.37609 29.3156 9.51059 24.4639C13.6451 19.6122 19.0332 16.3275 24.6925 15.2125C30.3759 14.0975 35.6495 15.3089 39.543 18.6238C47.5588 25.4463 47.1189 39.1637 38.5726 49.2046C34.4381 54.0623 29.05 57.347 23.3907 58.456C22.0105 58.7272 20.6605 58.8598 19.3406 58.8598ZM28.7366 15.4174C27.4589 15.4174 26.145 15.55 24.807 15.8092C19.2803 16.894 14.0127 20.1064 9.96864 24.8557C5.92455 29.6049 3.59211 35.3245 3.40528 40.9537C3.21844 46.5588 5.18323 51.3984 8.932 54.5927C12.6808 57.787 17.7736 58.9502 23.2762 57.8714C28.8029 56.7865 34.0705 53.5741 38.1146 48.8249C46.4499 39.0371 46.9139 25.6994 39.1512 19.0939C36.3125 16.6771 32.7084 15.4234 28.7366 15.4234V15.4174Z" fill="#19116E"/>
<path d="M35.5419 46.6281C43.9961 36.6981 44.4454 23.1958 36.5454 16.47C28.6454 9.74422 15.3878 12.3418 6.93359 22.2719C-1.52057 32.202 -1.96983 45.7043 5.93015 52.4301C13.8301 59.1558 27.0878 56.5582 35.5419 46.6281Z" fill="#FFD600"/>
<path d="M16.5504 56.4608C12.5425 56.4608 8.7515 55.2313 5.73199 52.6639C-2.28387 45.8413 -1.84391 32.124 6.70233 22.083C10.8368 17.2313 16.2249 13.9406 21.8843 12.8316C27.5677 11.7167 32.8413 12.9281 36.7347 16.2429C44.7506 23.0654 44.3106 36.7828 35.7644 46.8237C30.4365 53.0857 23.1861 56.4608 16.5444 56.4608H16.5504ZM25.9344 13.0305C24.6567 13.0305 23.3428 13.1631 22.0048 13.4223C16.4781 14.5071 11.2105 17.7195 7.16641 22.4688C-1.16889 32.2566 -1.63296 45.5942 6.12977 52.1998C13.8865 58.8053 26.9831 56.2137 35.3123 46.4259C43.6476 36.6382 44.1117 23.3005 36.349 16.6949C33.5103 14.2781 29.9062 13.0245 25.9344 13.0245V13.0305Z" fill="#19116E"/>
<path d="M33.8412 45.1774C26.6028 53.6814 15.3505 56.0801 8.34112 50.7523C8.32304 50.7523 8.32304 50.7402 8.31701 50.7342C8.13017 50.5956 7.94334 50.4449 7.7565 50.2882C0.795356 44.3637 1.19314 32.4665 8.63644 23.7214C16.0858 14.9702 27.766 12.68 34.7211 18.6045C34.908 18.7612 35.0828 18.9179 35.2515 19.0866C35.2515 19.0866 35.2696 19.0866 35.2756 19.1047C41.6522 25.1739 41.0796 36.6673 33.8352 45.1774H33.8412Z" fill="#19116E"/>
<path d="M17.1406 53.8999C13.8619 53.8999 10.74 52.9597 8.15441 50.9949C8.15441 50.9949 8.12428 50.9708 8.11222 50.9588C7.93744 50.8262 7.7506 50.6755 7.55774 50.5188C0.482083 44.4978 0.861782 32.3897 8.40152 23.53C12.0478 19.2449 16.8091 16.3459 21.7995 15.3695C26.8199 14.3871 31.4727 15.4539 34.9141 18.383C35.101 18.5397 35.2697 18.6964 35.4445 18.8591C35.4566 18.8712 35.4686 18.8772 35.4807 18.8893C42.026 25.1151 41.4052 36.7532 34.0643 45.3718C29.3633 50.8985 22.9928 53.8939 17.1346 53.8939L17.1406 53.8999ZM8.52206 50.5188C15.4591 55.7924 26.4824 53.3635 33.6123 44.986C40.7422 36.6085 41.3871 25.3381 35.0708 19.3292C35.0708 19.3292 35.0708 19.3292 35.0648 19.3232C34.884 19.1484 34.7153 18.9917 34.5344 18.841C31.2437 16.0385 26.7657 15.0139 21.926 15.9602C17.0683 16.9124 12.4275 19.7391 8.87162 23.9218C1.54283 32.5283 1.133 44.2568 7.95552 50.0607C8.13633 50.2114 8.31714 50.3561 8.49795 50.4947C8.50398 50.5007 8.51603 50.5067 8.52206 50.5188Z" fill="#19116E"/>
<path d="M33.8417 45.1786C26.6033 53.6827 15.351 56.0814 8.34162 50.7536C8.32354 50.7536 8.32354 50.7415 8.31751 50.7355C1.9229 44.6663 2.49546 33.1669 9.73988 24.6628C16.9903 16.1467 28.2427 13.748 35.2581 19.0879C35.2581 19.0879 35.2761 19.0879 35.2822 19.106C41.6587 25.1751 41.0861 36.6686 33.8417 45.1786Z" fill="white"/>
<path d="M17.1405 53.8998C13.8618 53.8998 10.7398 52.9596 8.15427 50.9948C8.15427 50.9948 8.11208 50.9586 8.094 50.9405C1.54872 44.6966 2.17552 33.0826 9.50431 24.4641C16.8452 15.8395 28.2301 13.3684 35.4263 18.8409C35.4444 18.853 35.4625 18.8711 35.4805 18.8891C42.0258 25.115 41.405 36.7531 34.0642 45.3716C29.3632 50.8983 22.9927 53.8938 17.1344 53.8938L17.1405 53.8998ZM8.52191 50.5187C15.459 55.7922 26.4823 53.3574 33.6061 44.9859C40.736 36.6084 41.3809 25.338 35.0647 19.3291C35.0647 19.3291 35.0647 19.3291 35.0586 19.3231C28.1276 14.0435 17.0983 16.4723 9.96236 24.8558C2.82643 33.2393 2.1936 44.5098 8.52191 50.5187Z" fill="#19116E"/>
<path d="M25.9761 33.4972L24.7225 33.4671C26.7476 33.5153 28.4351 31.653 28.4833 29.3205C28.5074 28.1513 28.1217 27.0845 27.4768 26.301C26.8319 25.5235 25.9219 25.0293 24.9093 25.0052L24.2825 24.9932L24.3488 22.058L22.4564 22.0158L22.3901 24.951L20.9135 24.9148L20.9798 21.9797L19.0873 21.9375L19.021 24.8726L17.9181 24.8485L15.1698 24.7883L15.1216 27.0484L16.2848 27.0725C17.1587 27.0906 17.8518 27.9283 17.8277 28.9408L17.5926 39.3193C17.5685 40.3318 16.8392 41.1334 15.9653 41.1153L14.8021 41.0912L14.7539 43.3513L17.5022 43.4116L18.6051 43.4357L18.5388 46.3708L20.4313 46.413L20.4976 43.4779L21.9742 43.514L21.9079 46.4492L23.8004 46.4914L23.8667 43.5562L25.8496 43.5984C28.2423 43.6527 30.2312 41.4829 30.3396 38.7407C30.4481 35.9984 28.4291 33.5515 25.9821 33.4972H25.9761ZM22.3599 26.2709L23.6377 26.301C23.8486 26.301 24.0535 26.3372 24.2464 26.3914C25.4699 26.741 26.3558 28.0308 26.3257 29.5435C26.3076 30.4235 25.9761 31.213 25.4638 31.7735C25.0902 32.1833 24.6261 32.4726 24.1078 32.5992C23.9089 32.6474 23.704 32.6715 23.493 32.6655L22.2153 32.6354L20.7387 32.5992L20.8833 26.2347L22.3599 26.2709ZM24.2223 42.2182H23.8968L22.0043 42.17L20.5277 42.1339L20.7085 34.1963L22.1852 34.2325L24.0776 34.2747H24.4031C26.3016 34.3229 27.8023 36.137 27.7541 38.3248C27.7059 40.5186 26.1268 42.2604 24.2223 42.2182Z" fill="#FFD600"/>
<path d="M23.8001 46.7936C23.8001 46.7936 23.8001 46.7936 23.7941 46.7936L21.9016 46.7514C21.7329 46.7514 21.6063 46.6128 21.6063 46.444L21.6666 43.8102L20.7867 43.7922L20.7264 46.4259C20.7264 46.5043 20.6902 46.5826 20.636 46.6369C20.5757 46.6911 20.5154 46.7213 20.419 46.7213L18.5265 46.6791C18.3578 46.6791 18.2312 46.5405 18.2312 46.3717L18.2915 43.7379L14.7416 43.6596C14.5729 43.6596 14.4463 43.5149 14.4463 43.3522L14.4945 41.0921C14.4945 40.9233 14.6633 40.7847 14.8019 40.7968L15.9651 40.8209C16.6763 40.839 17.2669 40.1639 17.285 39.3202L17.52 28.9417C17.5321 28.5259 17.3995 28.1341 17.1524 27.8388C16.9173 27.5555 16.6039 27.3928 16.2664 27.3868L15.1032 27.3627C14.9345 27.3627 14.8079 27.224 14.8079 27.0553L14.8561 24.7952C14.8561 24.7168 14.8923 24.6385 14.9465 24.5842C15.0068 24.53 15.0972 24.4938 15.1635 24.4998L18.7134 24.5782L18.7737 21.9444C18.7737 21.8661 18.8098 21.7877 18.8641 21.7335C18.9243 21.6792 18.9966 21.6431 19.081 21.6491L20.9735 21.6913C21.1422 21.6913 21.2688 21.8299 21.2688 21.9987L21.2085 24.6324L22.0885 24.6505L22.1488 22.0167C22.1488 21.9384 22.1849 21.86 22.2392 21.8058C22.2994 21.7516 22.3838 21.7214 22.4561 21.7214L24.3486 21.7636C24.5174 21.7636 24.6439 21.9022 24.6439 22.071L24.5836 24.7048H24.9091C25.9759 24.7349 26.9703 25.2351 27.6996 26.1211C28.4228 26.995 28.8025 28.1341 28.7784 29.3395C28.7543 30.5449 28.3204 31.6659 27.561 32.5037C27.2777 32.8171 26.9643 33.0762 26.6268 33.2751C27.561 33.4439 28.4409 33.926 29.1461 34.6794C30.1526 35.7462 30.695 37.2348 30.6347 38.7717C30.5262 41.6707 28.3927 43.985 25.8373 43.9187L24.1557 43.8826L24.0955 46.5164C24.0955 46.5947 24.0593 46.6731 24.0051 46.7273C23.9508 46.7815 23.8725 46.8117 23.7941 46.8117L23.8001 46.7936ZM22.215 46.1547L23.5048 46.1849L23.5651 43.5511C23.5651 43.4727 23.6013 43.3944 23.6555 43.3401C23.7158 43.2859 23.7941 43.2497 23.8725 43.2558L25.8553 43.298C25.8553 43.298 25.9096 43.298 25.9337 43.298C28.1034 43.298 29.9416 41.2669 30.0381 38.7295C30.0923 37.3554 29.6101 36.0234 28.7121 35.0772C27.9587 34.2756 26.9824 33.8236 25.9698 33.7995L24.7162 33.7693C24.5475 33.7693 24.4209 33.6307 24.4209 33.4619C24.4209 33.2932 24.5897 33.1606 24.7283 33.1666C25.6143 33.1847 26.4701 32.799 27.121 32.0818C27.784 31.3525 28.1576 30.3701 28.1817 29.3094C28.2059 28.2546 27.8744 27.2542 27.2415 26.4887C26.6208 25.7414 25.789 25.3195 24.9031 25.3014L24.2763 25.2894C24.1075 25.2894 23.9749 25.1508 23.981 24.982L24.0412 22.3482L22.7514 22.3181L22.6912 24.9519C22.6912 25.0302 22.655 25.1086 22.6008 25.1628C22.5405 25.2171 22.4742 25.2532 22.3838 25.2472L20.9012 25.211C20.7324 25.211 20.6058 25.0724 20.6058 24.9037L20.6661 22.2699L19.3763 22.2397L19.3161 24.8735C19.3161 24.9519 19.2799 25.0302 19.2257 25.0845C19.1654 25.1387 19.069 25.1749 19.0087 25.1688L15.4588 25.0905L15.4227 26.7479L16.2845 26.766C16.7968 26.778 17.2729 27.0131 17.6165 27.435C17.954 27.8448 18.1348 28.3752 18.1227 28.9417L17.8877 39.3202C17.8636 40.4834 17.0138 41.4115 15.9892 41.4115C15.9771 41.4115 15.9651 41.4115 15.953 41.4115L15.0912 41.3934L15.055 43.0508L18.6049 43.1292C18.7737 43.1292 18.9002 43.2738 18.9002 43.4366L18.8399 46.0704L20.1297 46.1005L20.19 43.4667C20.19 43.3884 20.2262 43.31 20.2804 43.2558C20.3407 43.2015 20.4311 43.1654 20.4974 43.1714L21.98 43.2015C22.1488 43.2015 22.2753 43.3462 22.2753 43.5089L22.215 46.1427V46.1547ZM24.2883 42.5144C24.2883 42.5144 24.2401 42.5144 24.216 42.5144L20.5215 42.4301C20.4431 42.4301 20.3648 42.3939 20.3105 42.3397C20.2563 42.2794 20.2262 42.2071 20.2262 42.1227L20.407 34.1852C20.407 34.0164 20.5697 33.8838 20.7143 33.8899L24.4149 33.9742C25.4214 33.9983 26.3556 34.4684 27.0487 35.3002C27.7297 36.1198 28.0853 37.1926 28.0612 38.3257C28.007 40.6521 26.3254 42.5144 24.3004 42.5144H24.2883ZM20.8288 41.8334L24.2281 41.9118C24.2281 41.9118 24.2702 41.9118 24.2883 41.9118C25.994 41.9118 27.4043 40.3146 27.4465 38.3137C27.4706 37.3252 27.1572 36.3911 26.5725 35.6859C25.994 34.9928 25.2225 34.595 24.3908 34.5769L20.9916 34.4986L20.8288 41.8334ZM23.547 32.9617C23.547 32.9617 23.5048 32.9617 23.4867 32.9617L20.7264 32.9014C20.648 32.9014 20.5697 32.8653 20.5154 32.811C20.4612 32.7508 20.4311 32.6784 20.4311 32.5941L20.5757 26.2296C20.5757 26.0608 20.7264 25.9222 20.8831 25.9343L22.3597 25.9704L23.6374 26.0006C23.8725 26.0006 24.1075 26.0428 24.3245 26.103C25.7107 26.4948 26.6569 27.9171 26.6208 29.5504C26.5967 30.4726 26.2652 31.3344 25.6806 31.9793C25.2647 32.4434 24.7403 32.7568 24.1678 32.8954C23.9689 32.9436 23.7519 32.9677 23.541 32.9677L23.547 32.9617ZM21.0398 32.3048L23.4988 32.359C23.6856 32.359 23.8604 32.3409 24.0352 32.3048C24.4872 32.1963 24.9031 31.9432 25.2406 31.5695C25.7288 31.0331 26.006 30.3098 26.0241 29.5324C26.0542 28.1944 25.2707 26.989 24.1678 26.6756C23.999 26.6274 23.8182 26.5972 23.6314 26.5912L21.1724 26.537L21.0398 32.2987V32.3048Z" fill="#19116E"/>
<path d="M201.806 109.047C207.765 106.224 210.776 100.094 208.531 95.3567C206.287 90.619 199.636 89.067 193.677 91.8901C187.718 94.7133 184.707 100.843 186.952 105.58C189.196 110.318 195.847 111.87 201.806 109.047Z" fill="#C2A300"/>
<path d="M195.732 110.763C191.742 110.763 188.21 108.961 186.673 105.718C184.359 100.837 187.439 94.5143 193.538 91.6274C196.479 90.2352 199.686 89.8374 202.554 90.5064C205.453 91.1814 207.665 92.8629 208.792 95.2436C209.919 97.6182 209.817 100.403 208.503 103.073C207.201 105.718 204.869 107.942 201.922 109.341C199.872 110.311 197.739 110.775 195.726 110.775L195.732 110.763ZM199.746 90.7896C197.769 90.7896 195.732 91.2597 193.803 92.1698C188.005 94.9181 185.052 100.879 187.222 105.459C189.391 110.04 195.877 111.534 201.674 108.786C204.495 107.448 206.731 105.327 207.973 102.801C209.202 100.3 209.305 97.7086 208.256 95.4967C207.213 93.2908 205.14 91.7238 202.428 91.091C201.56 90.8861 200.662 90.7896 199.752 90.7896H199.746Z" fill="#19116E"/>
<path d="M201 107.363C206.959 104.54 209.97 98.4109 207.726 93.6732C205.481 88.9354 198.831 87.3834 192.872 90.2065C186.913 93.0297 183.902 99.1591 186.146 103.897C188.391 108.635 195.041 110.187 201 107.363Z" fill="#FFD600"/>
<path d="M194.936 109.081C190.946 109.081 187.414 107.279 185.877 104.037C183.563 99.1549 186.643 92.8327 192.742 89.9457C195.683 88.5535 198.89 88.1557 201.758 88.8247C204.657 89.4998 206.869 91.1813 207.996 93.5619C209.123 95.9366 209.021 98.721 207.707 101.391C206.405 104.037 204.073 106.261 201.126 107.659C199.076 108.629 196.943 109.093 194.93 109.093L194.936 109.081ZM198.95 89.108C196.973 89.108 194.936 89.5781 193.007 90.4882C187.209 93.2365 184.256 99.1971 186.426 103.778C188.596 108.358 195.081 109.853 200.879 107.105C203.699 105.767 205.935 103.645 207.177 101.12C208.406 98.6185 208.509 96.027 207.46 93.8151C206.417 91.6092 204.344 90.0422 201.632 89.4093C200.764 89.2044 199.866 89.108 198.956 89.108H198.95Z" fill="#19116E"/>
<path d="M200.517 106.358C195.418 108.775 189.729 107.545 187.608 103.634C187.601 103.634 187.608 103.622 187.601 103.622C187.541 103.519 187.487 103.411 187.439 103.302C185.462 99.1257 188.114 93.7256 193.357 91.2425C198.607 88.7533 204.465 90.1215 206.442 94.2981C206.496 94.4066 206.544 94.5211 206.586 94.6296C206.586 94.6296 206.592 94.6296 206.592 94.6417C208.274 98.7641 205.622 103.941 200.517 106.358Z" fill="#19116E"/>
<path d="M195.153 107.901C191.79 107.901 188.8 106.443 187.348 103.779C187.342 103.767 187.336 103.755 187.33 103.749C187.276 103.652 187.221 103.544 187.167 103.429C185.124 99.1081 187.842 93.5211 193.23 90.9656C198.618 88.4102 204.669 89.8446 206.719 94.1659C206.773 94.2744 206.821 94.3889 206.863 94.4974C206.863 94.5095 206.869 94.5155 206.875 94.5276C208.629 98.8308 205.893 104.147 200.649 106.63C198.829 107.492 196.937 107.901 195.153 107.901ZM187.872 103.49C189.94 107.293 195.436 108.432 200.39 106.087C205.344 103.743 207.942 98.7705 206.321 94.7686C206.267 94.636 206.224 94.5336 206.176 94.4251C204.272 90.4051 198.582 89.0973 193.489 91.5141C188.403 93.9249 185.811 99.1563 187.71 103.176C187.758 103.279 187.812 103.381 187.866 103.478C187.866 103.478 187.866 103.49 187.872 103.496V103.49Z" fill="#19116E"/>
<path d="M200.518 106.358C195.419 108.775 189.729 107.546 187.608 103.634C187.602 103.634 187.608 103.622 187.602 103.622C185.914 99.4936 188.566 94.3165 193.671 91.8997C198.782 89.4768 204.465 90.7124 206.587 94.6299C206.587 94.6299 206.593 94.6299 206.593 94.6419C208.274 98.7644 205.622 103.942 200.518 106.358Z" fill="white"/>
<path d="M195.153 107.901C191.79 107.901 188.801 106.443 187.348 103.779C187.336 103.755 187.324 103.731 187.318 103.706C185.583 99.3911 188.313 94.0934 193.544 91.6164C198.788 89.1332 204.634 90.3808 206.852 94.4671C206.864 94.4852 206.87 94.5033 206.876 94.5214C208.63 98.8246 205.893 104.14 200.65 106.624C198.83 107.485 196.937 107.895 195.153 107.895V107.901ZM187.879 103.489C189.946 107.286 195.443 108.426 200.397 106.081C205.351 103.737 207.949 98.7643 206.327 94.7624C204.266 90.9594 198.77 89.8203 193.809 92.1648C188.855 94.5093 186.258 99.4816 187.885 103.489H187.879Z" fill="#19116E"/>
<path d="M199.324 99.3422L198.751 99.071C199.673 99.5109 200.836 99.0047 201.349 97.9379C201.602 97.4015 201.644 96.835 201.511 96.3407C201.373 95.8465 201.059 95.4307 200.595 95.2077L200.306 95.0691L200.945 93.7311L200.083 93.3212L199.444 94.6592L198.769 94.3338L199.408 92.9958L198.546 92.5859L197.907 93.9239L197.407 93.6828L196.153 93.0802L195.659 94.1108L196.19 94.3639C196.587 94.5568 196.732 95.0811 196.515 95.5452L194.255 100.282C194.032 100.746 193.532 100.963 193.134 100.771L192.604 100.517L192.109 101.548L193.363 102.145L193.863 102.386L193.224 103.724L194.086 104.134L194.725 102.796L195.4 103.121L194.761 104.459L195.623 104.869L196.262 103.531L197.166 103.965C198.257 104.483 199.625 103.899 200.246 102.657C200.885 101.373 200.445 99.8665 199.324 99.3361V99.3422ZM199.161 95.2619L199.746 95.5392C199.842 95.5874 199.926 95.6416 200.005 95.7079C200.499 96.1238 200.638 96.9012 200.306 97.5943C200.113 97.9982 199.8 98.2935 199.444 98.4441C199.185 98.5587 198.914 98.5948 198.649 98.5406C198.546 98.5225 198.45 98.4863 198.353 98.4441L197.769 98.1669L197.094 97.8415L198.48 94.9365L199.155 95.2619H199.161ZM196.708 103.001L196.557 102.928L195.695 102.518L195.02 102.193L196.75 98.5707L197.425 98.8962L198.287 99.306L198.438 99.3783C199.306 99.7942 199.619 100.939 199.143 101.94C198.667 102.94 197.576 103.416 196.708 103.001Z" fill="#FFD600"/>
<path d="M195.618 105.182C195.575 105.182 195.527 105.17 195.485 105.152L194.623 104.742C194.472 104.669 194.412 104.489 194.478 104.338L194.991 103.271L194.858 103.211L194.346 104.278C194.31 104.35 194.249 104.404 194.177 104.434C194.099 104.459 194.02 104.459 193.948 104.422L193.086 104.013C192.935 103.94 192.875 103.759 192.942 103.609L193.454 102.542L191.971 101.831C191.821 101.758 191.76 101.578 191.827 101.427L192.321 100.396C192.393 100.246 192.574 100.185 192.725 100.252L193.255 100.505C193.502 100.625 193.827 100.469 193.978 100.155L196.238 95.4181C196.323 95.2493 196.335 95.0565 196.28 94.8998C196.25 94.8154 196.19 94.7009 196.057 94.6406L195.527 94.3875C195.376 94.3151 195.316 94.1343 195.382 93.9836L195.877 92.953C195.913 92.8807 195.973 92.8265 196.045 92.7963C196.124 92.7722 196.202 92.7722 196.274 92.8084L197.757 93.5196L198.269 92.4528C198.306 92.3805 198.366 92.3262 198.438 92.2961C198.516 92.272 198.595 92.272 198.667 92.3082L199.529 92.718C199.601 92.7541 199.656 92.8144 199.686 92.8867C199.716 92.9591 199.71 93.0434 199.674 93.1158L199.161 94.1825L199.294 94.2428L199.806 93.176C199.842 93.1037 199.903 93.0495 199.975 93.0193C200.053 92.9952 200.132 92.9952 200.204 93.0314L201.066 93.4412C201.217 93.5135 201.277 93.6944 201.211 93.845L200.698 94.9118H200.716C201.241 95.171 201.626 95.6411 201.789 96.2438C201.952 96.8284 201.886 97.4733 201.608 98.0519C201.331 98.6304 200.873 99.0885 200.313 99.3296C200.21 99.3718 200.108 99.4079 200.005 99.4381C200.3 99.7093 200.529 100.065 200.674 100.475C200.927 101.21 200.867 102.054 200.505 102.783C199.818 104.169 198.257 104.814 197.028 104.229L196.395 103.928L195.883 104.995C195.847 105.067 195.786 105.121 195.714 105.152C195.684 105.164 195.648 105.17 195.611 105.17L195.618 105.182ZM195.159 104.326L195.479 104.477L195.991 103.41C196.027 103.338 196.088 103.283 196.16 103.253C196.238 103.229 196.317 103.229 196.389 103.265L197.293 103.699C198.227 104.145 199.427 103.621 199.969 102.53C200.258 101.945 200.313 101.27 200.108 100.686C199.945 100.203 199.625 99.8298 199.21 99.6249C199.372 99.8358 199.499 100.083 199.577 100.354C199.728 100.909 199.668 101.517 199.408 102.066C198.86 103.217 197.588 103.753 196.57 103.271L194.882 102.464C194.81 102.427 194.756 102.367 194.726 102.295C194.701 102.223 194.701 102.138 194.738 102.066L196.467 98.4436C196.503 98.3713 196.564 98.317 196.636 98.2869C196.714 98.2628 196.793 98.2628 196.865 98.299L198.438 99.0523C198.438 99.0162 198.45 98.98 198.468 98.9438C198.486 98.9017 198.516 98.8655 198.553 98.8354C198.438 98.8113 198.324 98.7751 198.215 98.7208L196.955 98.1181C196.805 98.0458 196.745 97.865 196.811 97.7143L198.197 94.8093C198.269 94.6587 198.45 94.5984 198.601 94.6647L199.276 94.9841L199.86 95.2614C199.981 95.3156 200.09 95.3879 200.186 95.4723C200.795 95.9846 200.951 96.9067 200.566 97.7143C200.349 98.1664 199.987 98.522 199.553 98.7088C199.378 98.7871 199.198 98.8293 199.023 98.8474C199.354 98.9559 199.716 98.9318 200.071 98.7811C200.493 98.5943 200.849 98.2447 201.06 97.7987C201.271 97.3527 201.325 96.8525 201.204 96.4065C201.084 95.9786 200.819 95.6411 200.451 95.4663L200.162 95.3277C200.09 95.2915 200.035 95.2312 200.005 95.1589C199.981 95.0866 199.981 95.0022 200.017 94.9299L200.529 93.8631L200.21 93.7124L199.698 94.7792C199.662 94.8515 199.601 94.9058 199.529 94.9359C199.451 94.96 199.372 94.96 199.3 94.9239L198.625 94.5984C198.553 94.5622 198.498 94.502 198.468 94.4296C198.438 94.3573 198.444 94.2729 198.48 94.2006L198.993 93.1338L198.673 92.9832L198.161 94.0499C198.125 94.1223 198.064 94.1765 197.992 94.2066C197.914 94.2308 197.835 94.2307 197.763 94.1946L196.28 93.4834L196.045 93.9716L196.305 94.0982C196.552 94.2187 196.739 94.4296 196.835 94.7009C196.943 95.0082 196.919 95.3698 196.769 95.6832L194.509 100.42C194.213 101.029 193.532 101.312 192.984 101.053L192.725 100.927L192.49 101.415L193.972 102.126C194.123 102.198 194.183 102.379 194.117 102.53L193.605 103.597L193.924 103.747L194.436 102.681C194.472 102.608 194.533 102.554 194.605 102.524C194.683 102.5 194.762 102.5 194.834 102.536L195.509 102.861C195.66 102.934 195.72 103.115 195.654 103.265L195.141 104.332L195.159 104.326ZM196.835 102.723C197.552 103.066 198.462 102.65 198.866 101.807C199.065 101.391 199.113 100.933 198.999 100.517C198.89 100.119 198.643 99.8117 198.299 99.649L196.883 98.974L195.413 102.048L196.829 102.723H196.835ZM197.498 97.7023L198.486 98.1724C198.559 98.2086 198.631 98.2327 198.709 98.2447C198.914 98.2809 199.125 98.2568 199.33 98.1664C199.631 98.0338 199.885 97.7867 200.035 97.4612C200.3 96.9128 200.204 96.2679 199.812 95.9364C199.752 95.8882 199.686 95.84 199.613 95.8098L198.625 95.3397L197.498 97.7023Z" fill="#19116E"/>
<path d="M148.149 7.88295L148.697 11.7884C149.029 14.5849 147.576 17.3272 144.942 19.5331C144.942 19.5331 144.942 19.5331 144.936 19.5331C142.158 21.8595 138.066 23.5892 133.371 24.1437C124.222 25.2225 116.26 21.4376 115.579 15.6879L115.199 11.7643L116.326 11.6317C116.839 10.583 117.592 9.57653 118.544 8.6544C121.305 5.96638 125.74 3.93529 130.912 3.32657C137.855 2.5069 144.117 4.48977 147.028 8.00349L148.155 7.8709L148.149 7.88295Z" fill="#C2A300"/>
<path d="M130.249 24.6445C126.91 24.6445 123.764 23.9996 121.16 22.7641C117.701 21.1187 115.61 18.6296 115.272 15.7366L114.892 11.807C114.874 11.6443 114.995 11.4997 115.158 11.4816L116.122 11.3671C116.646 10.3485 117.388 9.36612 118.328 8.45605C121.251 5.61132 125.819 3.6405 130.87 3.04383C137.668 2.24224 144.027 4.06841 147.149 7.70267L148.113 7.58816C148.27 7.57008 148.426 7.68459 148.445 7.84732L148.993 11.7528C149.324 14.5614 147.956 17.4061 145.136 19.7747C145.136 19.7747 145.124 19.7867 145.118 19.7867C142.164 22.2578 138.006 23.9152 133.401 24.4576C132.34 24.5842 131.286 24.6445 130.249 24.6445ZM115.525 12.0421L115.875 15.6763C116.188 18.3463 118.159 20.6727 121.426 22.2216C124.734 23.7947 128.965 24.3733 133.335 23.861C137.831 23.3306 141.881 21.7154 144.744 19.3166C144.75 19.3166 144.756 19.3046 144.768 19.2986C147.42 17.0686 148.716 14.4167 148.408 11.8251L147.902 8.22099L147.07 8.31743C146.968 8.32948 146.871 8.28729 146.805 8.20894C143.852 4.64098 137.626 2.84494 130.954 3.63447C126.036 4.21306 121.594 6.12964 118.762 8.87793C117.828 9.788 117.098 10.7644 116.604 11.7709C116.556 11.8613 116.471 11.9276 116.369 11.9396L115.537 12.0361L115.525 12.0421Z" fill="#19116E"/>
<path d="M133.028 21.2991C142.175 20.2182 149.039 14.6819 148.36 8.93344C147.68 3.18501 139.715 -0.598733 130.568 0.482218C121.422 1.56317 114.558 7.09948 115.237 12.8479C115.916 18.5963 123.882 22.3801 133.028 21.2991Z" fill="#FFD600"/>
<path d="M129.947 21.7883C122.01 21.7883 115.549 18.1239 114.934 12.8865C114.591 9.99959 116.043 7.08856 119.027 4.68381C121.968 2.31521 126.054 0.718062 130.532 0.187689C135.01 -0.342683 139.356 0.260013 142.767 1.88127C146.226 3.52663 148.318 6.01577 148.655 8.90268C148.999 11.7896 147.546 14.7006 144.563 17.1054C141.622 19.474 137.535 21.0711 133.057 21.6015C132.003 21.7281 130.96 21.7883 129.947 21.7883ZM133.684 0.60355C132.672 0.60355 131.641 0.66382 130.604 0.784359C126.235 1.30268 122.257 2.85161 119.406 5.15391C116.592 7.42005 115.218 10.1442 115.537 12.8202C116.194 18.3952 124.029 22.0656 132.997 21.0109C137.367 20.4925 141.344 18.9436 144.195 16.6413C147.01 14.3752 148.384 11.651 148.065 8.97501C147.751 6.29903 145.78 3.97262 142.514 2.42369C139.988 1.22433 136.933 0.60355 133.69 0.60355H133.684Z" fill="#19116E"/>
<path d="M146.696 9.13656C146.738 9.49215 146.744 9.84774 146.726 10.1973C146.425 14.8803 140.536 19.1835 132.882 20.0876C124.655 21.0579 117.495 17.731 116.893 12.6563C116.874 12.5237 116.868 12.3911 116.862 12.2585C116.621 7.32847 122.697 2.65154 130.712 1.70531C138.945 0.734967 146.099 4.06185 146.702 9.13656H146.696Z" fill="#19116E"/>
<path d="M130.032 20.5571C127.049 20.5571 124.234 19.9966 121.902 18.9117C118.786 17.4592 116.899 15.2534 116.598 12.6859C116.58 12.5473 116.568 12.4026 116.562 12.264C116.315 7.14109 122.51 2.36773 130.677 1.40341C139.06 0.414992 146.383 3.86242 146.998 9.09985C147.04 9.47352 147.052 9.84719 147.028 10.2148C146.715 15.1027 140.646 19.4723 132.919 20.3823C131.949 20.4968 130.978 20.5511 130.032 20.5511V20.5571ZM133.552 1.83133C132.636 1.83133 131.702 1.88557 130.743 2.00008C122.89 2.92824 116.929 7.42435 117.159 12.2399C117.159 12.3665 117.177 12.493 117.189 12.6196C117.466 14.9701 119.226 17.0072 122.149 18.3693C125.12 19.7495 128.917 20.2558 132.841 19.7917C140.284 18.9117 146.118 14.7833 146.419 10.1787C146.444 9.84719 146.431 9.50366 146.395 9.17217C145.883 4.85084 140.362 1.83736 133.546 1.83736L133.552 1.83133Z" fill="#19116E"/>
<path d="M146.69 9.80079C146.708 9.93338 146.714 10.066 146.72 10.1986C146.425 14.8212 140.687 19.0703 133.177 20.0527C133.075 20.0647 132.979 20.0768 132.876 20.0888C124.649 21.0592 117.489 17.7323 116.887 12.6576C116.869 12.525 116.862 12.3924 116.856 12.2598C117.073 8.85455 120.244 5.65423 124.896 3.80998C124.939 3.7919 124.981 3.77382 125.011 3.76177C125.023 3.76177 125.035 3.75574 125.047 3.74971C125.065 3.74369 125.077 3.73766 125.089 3.73163C125.089 3.73163 125.101 3.73163 125.107 3.72561C126.801 3.07469 128.693 2.60459 130.7 2.36351C138.927 1.39317 146.087 4.72005 146.69 9.79476V9.80079Z" fill="white"/>
<path d="M130.032 20.5586C127.048 20.5586 124.234 19.9981 121.901 18.9132C118.785 17.4607 116.899 15.2548 116.598 12.6873C116.58 12.5487 116.568 12.4041 116.562 12.2655C116.785 8.78187 119.937 5.44896 124.794 3.52636L124.873 3.49623C124.873 3.49623 124.945 3.46609 124.951 3.46609C124.957 3.46609 125.011 3.44198 125.023 3.44198C126.777 2.76696 128.688 2.30289 130.677 2.06783C134.709 1.5917 138.626 2.11605 141.694 3.53841C144.81 4.99091 146.696 7.19678 146.998 9.75824C147.016 9.90289 147.028 10.0415 147.034 10.1801C146.726 15.0017 140.79 19.3592 133.226 20.3416C133.13 20.3536 133.027 20.3657 132.925 20.3778C131.954 20.4923 130.984 20.5465 130.038 20.5465L130.032 20.5586ZM124.987 3.77347L125.102 4.05071L125.029 4.08084C120.389 5.91907 117.375 9.05911 117.17 12.2715C117.17 12.3679 117.188 12.4885 117.2 12.615C117.478 14.9655 119.238 17.0027 122.161 18.3647C125.132 19.7449 128.929 20.2512 132.852 19.7871C132.949 19.7751 133.045 19.763 133.142 19.751C140.428 18.7987 146.136 14.6823 146.425 10.1741C146.425 10.0777 146.407 9.95713 146.395 9.83057C146.118 7.48005 144.358 5.44294 141.435 4.08084C138.464 2.70067 134.673 2.1944 130.743 2.65848C128.802 2.8875 126.946 3.33952 125.222 4.00249L125.156 4.0266L124.987 3.76744V3.77347Z" fill="#19116E"/>
<path d="M135.389 9.66666L134.413 9.55215C135.998 9.73899 137.668 9.07602 138.096 8.11171C138.307 7.64763 138.18 7.20163 137.812 6.8581C137.457 6.52059 136.872 6.27951 136.137 6.20719L135.685 6.165L136.233 5.12836L134.913 5.00782L134.335 6.03843L133.292 5.93597L133.895 4.91741L132.611 4.79688L131.978 5.80338L131.219 5.73105L129.35 5.55025L128.796 6.3458L129.592 6.43018C130.194 6.49045 130.496 6.84604 130.255 7.21971L127.458 11.5471C127.151 12.0172 126.349 12.3306 125.668 12.2402L124.776 12.1196L124.017 13.2045L126.18 13.5179L127.06 13.6445L126.102 15.1753L127.681 15.4164L128.597 13.8614L129.815 14.0362L128.929 15.6032L130.556 15.8503L131.394 14.2592L133.081 14.5003C135.16 14.8016 137.366 13.8614 137.975 12.4752C138.566 11.1252 137.318 9.87761 135.377 9.65461L135.389 9.66666ZM134.064 6.51456L134.986 6.60496C135.136 6.62305 135.281 6.64715 135.414 6.67729C136.251 6.88823 136.691 7.44271 136.402 8.03938C136.227 8.39497 135.835 8.69029 135.329 8.88918C134.962 9.03383 134.546 9.11821 134.118 9.13026C133.955 9.13026 133.792 9.13026 133.636 9.11218L132.665 9.0037L131.556 8.87713L133.015 6.4121L134.07 6.52059L134.064 6.51456ZM132.045 13.6083L131.773 13.5721L130.212 13.3552L129.007 13.1864L131.159 9.5401L132.286 9.67269L133.744 9.84747L133.997 9.87761C135.492 10.0524 136.348 10.9986 135.878 12.0292C135.408 13.0598 133.648 13.8373 132.045 13.6083Z" fill="#FFD600"/>
<path d="M130.562 16.1635C130.562 16.1635 130.532 16.1635 130.513 16.1635L128.886 15.9164C128.79 15.9043 128.705 15.838 128.663 15.7476C128.621 15.6572 128.621 15.5548 128.669 15.4704L129.338 14.2831L128.754 14.1987L127.94 15.5789C127.88 15.6874 127.759 15.7416 127.633 15.7235L126.054 15.4825C125.951 15.4644 125.867 15.4041 125.825 15.3077C125.782 15.2173 125.788 15.1088 125.843 15.0244L126.554 13.8853L123.962 13.5116C123.86 13.4996 123.769 13.4273 123.727 13.3308C123.685 13.2344 123.697 13.1259 123.757 13.0415L124.517 11.9567C124.583 11.8663 124.691 11.8181 124.806 11.8301L125.698 11.9507C126.252 12.029 126.952 11.7698 127.193 11.3962L129.989 7.06881C130.043 6.99046 130.025 6.9543 130.019 6.94225C129.983 6.8639 129.82 6.76747 129.549 6.74336L128.748 6.65898C128.639 6.64693 128.549 6.58063 128.507 6.4842C128.464 6.38777 128.47 6.27326 128.531 6.18888L129.085 5.39332C129.145 5.30291 129.248 5.2547 129.362 5.26675L131.797 5.5018L132.328 4.652C132.388 4.55557 132.496 4.50133 132.611 4.51338L133.901 4.63392C134.003 4.64597 134.094 4.70624 134.142 4.79665C134.19 4.88705 134.184 4.99554 134.136 5.08594L133.774 5.70069L134.148 5.73686L134.63 4.88103C134.69 4.77857 134.793 4.7183 134.919 4.73035L136.239 4.85089C136.342 4.86295 136.426 4.91719 136.474 5.00759C136.522 5.098 136.522 5.20046 136.474 5.29086L136.137 5.92972H136.143C136.92 6.00807 137.577 6.26723 137.999 6.65898C138.475 7.10498 138.602 7.68959 138.349 8.25613C138.077 8.87088 137.39 9.37112 136.534 9.64836C137.27 9.91957 137.848 10.3535 138.162 10.8959C138.475 11.4384 138.505 12.035 138.246 12.6257C137.577 14.1565 135.245 15.151 133.033 14.8315L131.55 14.6206L130.809 16.0249C130.755 16.1273 130.652 16.1876 130.544 16.1876L130.562 16.1635ZM129.411 15.38L130.393 15.5307L131.134 14.1264C131.195 14.0119 131.315 13.9516 131.442 13.9697L133.129 14.2108C135.058 14.488 137.149 13.6382 137.704 12.3605C137.884 11.9446 137.866 11.5469 137.649 11.1732C137.282 10.5403 136.426 10.0823 135.347 9.96176H135.281C135.642 10.1546 135.926 10.4138 136.107 10.7332C136.354 11.1672 136.366 11.6734 136.149 12.1556C135.594 13.367 133.738 14.1505 132.002 13.9094L128.959 13.4815C128.856 13.4695 128.772 13.4032 128.73 13.3128C128.687 13.2223 128.687 13.1139 128.742 13.0295L130.893 9.38317C130.953 9.28071 131.074 9.22647 131.189 9.23852L134.027 9.57603C134.027 9.57603 134.081 9.58206 134.112 9.58809C134.112 9.56398 134.112 9.53987 134.112 9.51576C134.112 9.48563 134.124 9.46152 134.136 9.43138C134.136 9.43138 134.13 9.43138 134.124 9.43138C133.949 9.43138 133.774 9.43138 133.593 9.40728L131.514 9.1662C131.412 9.15414 131.321 9.09387 131.279 9.00347C131.231 8.91307 131.237 8.80458 131.291 8.71418L132.749 6.24915C132.81 6.14669 132.924 6.09245 133.039 6.1045H133.045C133.045 6.1045 133.027 6.08039 133.021 6.06231C132.972 5.97191 132.979 5.86342 133.033 5.77302L133.394 5.16429L132.768 5.10402L132.231 5.95383C132.171 6.05026 132.068 6.1045 131.948 6.09245L129.501 5.85137L129.338 6.08039L129.628 6.11053C130.092 6.15874 130.435 6.35161 130.58 6.64693C130.688 6.87595 130.664 7.12908 130.513 7.36414L127.717 11.6915C127.349 12.2641 126.439 12.6257 125.638 12.5172L124.926 12.4208L124.553 12.9572L127.114 13.3248C127.217 13.3369 127.301 13.4032 127.343 13.4936C127.385 13.584 127.379 13.6924 127.325 13.7829L126.608 14.928L127.53 15.0726L128.344 13.6924C128.404 13.59 128.525 13.5297 128.645 13.5478L129.863 13.7226C129.959 13.7346 130.043 13.8009 130.092 13.8853C130.134 13.9757 130.134 14.0782 130.086 14.1686L129.417 15.3559L129.411 15.38ZM129.489 12.9511L132.08 13.3128C133.545 13.5177 135.154 12.8728 135.594 11.9024C135.733 11.5951 135.727 11.2997 135.576 11.0285C135.329 10.5886 134.72 10.2691 133.949 10.1727L131.309 9.8593L129.483 12.9451L129.489 12.9511ZM135.763 6.47817C136.209 6.6409 136.528 6.90609 136.685 7.2436C136.824 7.53892 136.818 7.86437 136.661 8.17778C136.462 8.58761 136.022 8.9432 135.432 9.17825C135.335 9.21441 135.239 9.25058 135.136 9.28071C136.342 9.22647 137.499 8.69609 137.812 7.99094C137.963 7.65946 137.89 7.35208 137.601 7.08087C137.282 6.77952 136.745 6.5746 136.1 6.51433L135.763 6.4842V6.47817ZM132.038 8.6298L133.66 8.81663C133.804 8.83472 133.955 8.84074 134.1 8.83472C134.485 8.82266 134.871 8.75034 135.208 8.61774C135.654 8.44296 135.986 8.18983 136.119 7.91862C136.191 7.76794 136.197 7.63535 136.137 7.50276C136.034 7.27373 135.727 7.08087 135.329 6.97841C135.208 6.94828 135.082 6.92417 134.943 6.91211L133.159 6.7313L132.038 8.6298ZM134.527 6.2612L135.01 6.30942C135.178 6.3275 135.329 6.35161 135.474 6.38777C135.45 6.36366 135.425 6.33955 135.413 6.30942C135.365 6.21901 135.365 6.11655 135.413 6.02615L135.751 5.38729L135.076 5.32702L134.594 6.18285C134.594 6.18285 134.558 6.23709 134.533 6.2612H134.527Z" fill="#19116E"/>
<path d="M51.0481 145.697L46.998 146.263C44.099 146.607 41.2483 145.1 38.958 142.37C38.958 142.37 38.958 142.37 38.958 142.364C36.5412 139.477 34.7512 135.234 34.1726 130.364C33.0516 120.872 36.9752 112.609 42.9419 111.903L47.0161 111.512L47.1547 112.681C48.2456 113.217 49.2822 113.995 50.2405 114.983C53.031 117.852 55.1344 122.451 55.7672 127.809C56.617 135.011 54.5618 141.508 50.9095 144.533L51.0481 145.703V145.697Z" fill="#C2A300"/>
<path d="M46.1784 146.612C43.5506 146.612 40.9349 145.196 38.723 142.562C38.711 142.55 38.6989 142.532 38.6929 142.52C36.1495 139.488 34.4258 135.173 33.8653 130.394C33.3168 125.747 33.9376 121.245 35.6191 117.707C37.3187 114.121 39.9043 111.957 42.8997 111.602L46.9799 111.21C47.1427 111.198 47.2873 111.312 47.3054 111.475L47.4259 112.482C48.4867 113.024 49.4992 113.789 50.4515 114.766C53.3987 117.797 55.4478 122.535 56.0626 127.766C56.8943 134.817 55.0018 141.417 51.229 144.647L51.3495 145.654C51.3676 145.817 51.2531 145.967 51.0903 145.985L47.0402 146.552C46.757 146.588 46.4677 146.6 46.1844 146.6L46.1784 146.612ZM39.1871 142.17C41.5135 144.937 44.2618 146.281 46.9619 145.961L50.7167 145.431L50.6142 144.557C50.6022 144.455 50.6443 144.352 50.7227 144.292C54.4233 141.224 56.2916 134.769 55.4719 127.838C54.8692 122.733 52.8864 118.123 50.0236 115.188C49.0773 114.217 48.0648 113.464 47.0161 112.946C46.9257 112.903 46.8594 112.813 46.8474 112.711L46.7449 111.837L42.966 112.198C40.1936 112.524 37.7768 114.573 36.1676 117.96C34.5343 121.395 33.9316 125.783 34.468 130.321C35.0164 134.986 36.6919 139.193 39.1811 142.164C39.1811 142.164 39.1811 142.17 39.1811 142.176L39.1871 142.17Z" fill="#19116E"/>
<path d="M49.9558 145.91C55.9191 145.205 59.8441 136.94 58.7225 127.45C57.6009 117.96 51.8575 110.838 45.8942 111.542C39.9309 112.247 36.0059 120.512 37.1275 130.002C38.2491 139.493 43.9925 146.615 49.9558 145.91Z" fill="#FFD600"/>
<path d="M49.1438 146.262C43.3338 146.262 37.9095 139.234 36.8247 130.043C35.6856 120.406 39.7357 111.974 45.8591 111.251C51.9765 110.528 57.8829 117.784 59.022 127.421C59.5705 132.068 58.9497 136.57 57.2682 140.108C55.5685 143.694 52.983 145.858 49.9876 146.213C49.7043 146.249 49.4271 146.262 49.1438 146.262ZM46.7089 111.799C46.4497 111.799 46.1906 111.817 45.9254 111.848C40.1335 112.535 36.3184 120.665 37.4214 129.971C38.47 138.86 43.6291 145.659 49.1317 145.659C49.3909 145.659 49.6501 145.641 49.9153 145.611C52.6937 145.285 55.1105 143.236 56.7197 139.843C58.353 136.407 58.9557 132.02 58.4193 127.481C57.3706 118.592 52.2115 111.793 46.7089 111.793V111.799Z" fill="#19116E"/>
<path d="M49.7465 144.19C49.3789 144.232 49.0112 144.244 48.6436 144.22C43.7859 143.907 39.3199 137.801 38.3797 129.858C37.3732 121.324 40.8206 113.892 46.0882 113.272C46.2268 113.254 46.3654 113.242 46.504 113.236C51.6209 112.988 56.4666 119.287 57.449 127.604C58.4555 136.144 55.0081 143.569 49.7405 144.19H49.7465Z" fill="#19116E"/>
<path d="M49.0473 144.533C48.9087 144.533 48.77 144.533 48.6314 144.521C43.5688 144.196 39.0365 137.903 38.0903 129.894C37.0657 121.203 40.6397 113.615 46.0639 112.97C46.2086 112.952 46.3532 112.94 46.5039 112.934C51.8137 112.669 56.7618 119.099 57.7623 127.567C58.2565 131.75 57.7141 135.806 56.2374 138.994C54.7367 142.225 52.4465 144.177 49.7886 144.491C49.5415 144.521 49.2944 144.533 49.0473 144.533ZM46.8113 113.53C46.7148 113.53 46.6244 113.53 46.528 113.536C46.3954 113.536 46.2628 113.554 46.1363 113.567C41.0435 114.169 37.6985 121.456 38.6869 129.815C39.603 137.542 43.8942 143.605 48.6676 143.912C49.0111 143.936 49.3667 143.924 49.7163 143.888C52.1572 143.599 54.2787 141.773 55.689 138.735C57.1234 135.655 57.6478 131.708 57.1656 127.633C56.2194 119.636 51.7112 113.524 46.8173 113.524L46.8113 113.53Z" fill="#19116E"/>
<path d="M49.0595 144.183C48.9208 144.201 48.7822 144.213 48.6436 144.219C43.8522 143.912 39.4404 137.957 38.4219 130.17C38.4038 130.068 38.3917 129.965 38.3797 129.857C37.3732 121.323 40.8206 113.891 46.0882 113.271C46.2268 113.252 46.3654 113.24 46.504 113.234C50.0358 113.463 53.3567 116.748 55.2672 121.576C55.2853 121.624 55.3034 121.66 55.3154 121.69C55.3154 121.702 55.3215 121.714 55.3275 121.726C55.3335 121.744 55.3396 121.763 55.3456 121.769C55.3456 121.769 55.3456 121.781 55.3516 121.787C56.0266 123.547 56.5148 125.505 56.7619 127.591C57.7684 136.125 54.321 143.556 49.0534 144.177L49.0595 144.183Z" fill="white"/>
<path d="M48.6617 144.521C43.6654 144.201 39.1512 138.048 38.1266 130.207C38.1145 130.104 38.0964 130.002 38.0844 129.893C37.0598 121.203 40.6338 113.615 46.0581 112.97C46.2027 112.952 46.3474 112.94 46.498 112.934C50.1022 113.163 53.5616 116.435 55.5566 121.468L55.5867 121.54L55.3396 121.733L55.6229 121.631C55.6229 121.631 55.647 121.691 55.647 121.697C56.3521 123.523 56.8283 125.5 57.0754 127.561C57.5696 131.744 57.0271 135.8 55.5505 138.982C54.0498 142.213 51.7596 144.165 49.1017 144.479C48.957 144.497 48.8124 144.509 48.6617 144.515V144.521ZM46.498 113.536C46.3956 113.536 46.269 113.554 46.1364 113.566C41.0436 114.169 37.6987 121.456 38.6871 129.815C38.6991 129.918 38.7112 130.014 38.7233 130.116C39.7117 137.68 43.9848 143.611 48.6677 143.912C48.7642 143.912 48.8968 143.894 49.0294 143.882C51.4703 143.593 53.5918 141.767 55.0021 138.729C56.4365 135.649 56.9609 131.708 56.4787 127.627C56.2376 125.614 55.7735 123.686 55.0865 121.896C55.0865 121.896 55.0624 121.829 55.0624 121.823L55.0081 121.691C53.0976 116.869 49.837 113.747 46.498 113.53V113.536Z" fill="#19116E"/>
<path d="M49.1978 132.461L49.3184 131.448C49.1255 133.094 49.8126 134.823 50.8131 135.269C51.2952 135.486 51.7593 135.354 52.1149 134.98C52.4645 134.612 52.7116 134.004 52.7899 133.238L52.8381 132.768L53.917 133.335L54.0435 131.967L52.9768 131.364L53.0852 130.285L54.146 130.912L54.2665 129.58L53.2178 128.923L53.2962 128.139L53.483 126.205L52.6573 125.626L52.573 126.452C52.5067 127.079 52.145 127.392 51.7533 127.139L47.2632 124.234C46.775 123.921 46.4496 123.083 46.546 122.378L46.6726 121.45L45.5455 120.666L45.2201 122.914L45.0875 123.83L43.4963 122.836L43.2432 124.469L44.8524 125.421L44.6716 126.687L43.0443 125.771L42.7852 127.458L44.4365 128.332L44.1834 130.086C43.87 132.244 44.8464 134.534 46.2868 135.161C47.6851 135.77 48.9809 134.48 49.2159 132.467L49.1978 132.461ZM52.4645 131.081L52.368 132.039C52.35 132.196 52.3258 132.346 52.2897 132.485C52.0727 133.353 51.4941 133.811 50.8733 133.509C50.5057 133.329 50.1923 132.919 49.9934 132.401C49.8427 132.021 49.7584 131.587 49.7463 131.147C49.7463 130.978 49.7463 130.809 49.7704 130.647L49.8849 129.64L50.0175 128.489L52.573 130.002L52.4645 131.093V131.081ZM45.1055 128.989L45.1477 128.706L45.3768 127.085L45.5515 125.837L49.3304 128.073L49.1918 129.242L49.011 130.755L48.9809 131.02C48.8001 132.569 47.8177 133.461 46.7449 132.973C45.6239 132.461 44.8705 130.659 45.1055 128.995V128.989Z" fill="#FFD600"/>
<path d="M51.2713 135.673C51.0784 135.673 50.8795 135.631 50.6867 135.54C50.0478 135.251 49.5235 134.528 49.2342 133.636C48.9569 134.413 48.5049 135.016 47.9323 135.347C47.3718 135.667 46.7571 135.697 46.1484 135.438C44.5633 134.745 43.5387 132.328 43.8702 130.044L44.0932 128.501L42.6286 127.729C42.5141 127.669 42.4538 127.542 42.4719 127.416L42.7311 125.728C42.7431 125.632 42.8094 125.548 42.8998 125.505C42.9902 125.463 43.0927 125.463 43.1771 125.511L44.4247 126.21L44.5151 125.578L43.0806 124.728C42.9722 124.668 42.9179 124.547 42.936 124.42L43.1891 122.787C43.2072 122.685 43.2675 122.6 43.3639 122.558C43.4543 122.516 43.5628 122.522 43.6472 122.576L44.8465 123.324L45.2383 120.617C45.2564 120.515 45.3227 120.425 45.4191 120.382C45.5155 120.34 45.624 120.352 45.7144 120.413L46.8415 121.196C46.9319 121.262 46.9801 121.371 46.968 121.485L46.8415 122.413C46.7631 122.992 47.0343 123.721 47.4201 123.974L51.9101 126.879C52.0005 126.94 52.0427 126.916 52.0548 126.91C52.1392 126.867 52.2416 126.699 52.2657 126.415L52.3501 125.59C52.3622 125.481 52.4285 125.391 52.5249 125.349C52.6213 125.306 52.7358 125.312 52.8202 125.373L53.6459 125.951C53.7363 126.012 53.7845 126.12 53.7725 126.229L53.5254 128.766L54.4174 129.32C54.5138 129.381 54.568 129.489 54.556 129.604L54.4354 130.936C54.4234 131.038 54.3631 131.128 54.2727 131.177C54.1823 131.225 54.0738 131.219 53.9834 131.171L53.3325 130.785L53.2903 131.201L54.1823 131.707C54.2848 131.767 54.345 131.882 54.333 131.996L54.2064 133.364C54.1944 133.467 54.1401 133.551 54.0497 133.6C53.9593 133.648 53.8569 133.648 53.7664 133.6L53.0854 133.238V133.262C53.0071 134.064 52.7358 134.745 52.332 135.179C52.0247 135.504 51.657 135.667 51.2773 135.667L51.2713 135.673ZM49.5837 132.111C49.6199 133.395 50.1804 134.654 50.9278 134.992C51.3617 135.185 51.6871 134.98 51.886 134.769C52.1994 134.431 52.4104 133.877 52.4767 133.208L52.5189 132.768C52.3501 133.268 52.0668 133.636 51.6992 133.804C51.3918 133.949 51.0603 133.937 50.7409 133.78C50.313 133.575 49.9514 133.123 49.7103 132.509C49.6621 132.382 49.6199 132.249 49.5837 132.117V132.111ZM43.0987 127.289L44.5572 128.061C44.6718 128.121 44.732 128.242 44.7139 128.368L44.4608 130.122C44.1715 132.123 45.0515 134.299 46.3834 134.877C46.8174 135.064 47.2332 135.046 47.625 134.823C48.2879 134.443 48.758 133.545 48.8906 132.43L48.9087 132.304C48.7038 132.702 48.4205 133.015 48.077 133.208C47.625 133.461 47.1067 133.473 46.6124 133.25C45.3588 132.677 44.5452 130.755 44.7983 128.959L45.2383 125.801C45.2503 125.698 45.3166 125.614 45.407 125.572C45.4975 125.529 45.6059 125.529 45.6903 125.584L49.4692 127.82C49.5717 127.88 49.6259 127.994 49.6139 128.115L49.2643 131.056C49.2643 131.092 49.2583 131.122 49.2523 131.159C49.2764 131.159 49.3065 131.159 49.3366 131.159C49.3728 131.159 49.4029 131.171 49.4331 131.189C49.4331 131.177 49.4331 131.171 49.4331 131.159C49.4331 130.978 49.4331 130.791 49.4572 130.61L49.7043 128.453C49.7163 128.35 49.7766 128.26 49.867 128.217C49.9574 128.175 50.0659 128.175 50.1563 128.23L52.7117 129.742C52.8142 129.803 52.8684 129.917 52.8564 130.032V130.068C52.8564 130.068 52.8925 130.038 52.9166 130.026C53.0071 129.977 53.1155 129.983 53.2059 130.038L53.8569 130.423L53.9171 129.748L53.0251 129.194C52.9287 129.134 52.8745 129.025 52.8865 128.911L53.1336 126.367L52.8745 126.186L52.8443 126.506C52.7961 126.982 52.5912 127.338 52.2898 127.482C52.0608 127.597 51.7956 127.567 51.5606 127.416L47.0705 124.511C46.4798 124.131 46.1062 123.185 46.2207 122.365L46.3231 121.624L45.7446 121.22L45.3588 123.896C45.3468 123.999 45.2805 124.083 45.1841 124.125C45.0936 124.167 44.9852 124.161 44.8948 124.107L43.6954 123.354L43.5447 124.336L44.9791 125.186C45.0816 125.246 45.1419 125.367 45.1238 125.487L44.943 126.753C44.9309 126.849 44.8646 126.934 44.7802 126.982C44.6898 127.024 44.5874 127.024 44.497 126.976L43.2494 126.271L43.0867 127.319L43.0987 127.289ZM50.2648 128.977L50.0719 130.67C50.0538 130.821 50.0478 130.978 50.0538 131.128C50.0659 131.526 50.1442 131.93 50.2829 132.286C50.4637 132.75 50.7289 133.099 51.0121 133.238C51.1688 133.316 51.3135 133.322 51.4521 133.256C51.6871 133.148 51.8921 132.828 52.0005 132.412C52.0307 132.286 52.0548 132.153 52.0729 132.014L52.1693 131.062L52.2597 130.158L50.2648 128.983V128.977ZM52.8262 132.466C52.8745 132.466 52.9227 132.479 52.9649 132.503L53.6399 132.858L53.7062 132.135L52.8082 131.629C52.772 131.605 52.7358 131.58 52.7117 131.544L52.6575 132.069C52.6394 132.243 52.6093 132.406 52.5731 132.557C52.5731 132.575 52.5671 132.587 52.5611 132.605C52.5852 132.563 52.6274 132.527 52.6695 132.503C52.7117 132.479 52.766 132.466 52.8142 132.466H52.8262ZM45.7807 126.325L45.401 129.031C45.1901 130.556 45.8591 132.231 46.8656 132.689C47.191 132.84 47.4984 132.834 47.7817 132.671C48.2457 132.412 48.5772 131.779 48.6737 130.972L48.9991 128.223L45.7747 126.319L45.7807 126.325Z" fill="#19116E"/>
<path d="M107.171 216.686C117.462 215.542 125.069 207.98 124.159 199.796C123.25 191.611 114.169 185.903 103.877 187.047C93.5855 188.19 85.9794 195.752 86.8888 203.937C87.7981 212.121 96.8786 217.829 107.171 216.686Z" fill="#C2A300"/>
<path d="M104.532 217.14C100.439 217.14 96.5458 216.079 93.3455 214.072C89.434 211.613 87.0353 208.027 86.5833 203.977C85.6551 195.642 93.3997 187.909 103.838 186.752C108.883 186.192 113.801 187.228 117.688 189.675C121.6 192.134 123.999 195.72 124.451 199.77C125.379 208.106 117.634 215.838 107.195 216.995C106.303 217.092 105.411 217.146 104.532 217.146V217.14ZM103.905 187.349C93.7915 188.47 86.294 195.901 87.1799 203.911C87.6078 207.774 89.9101 211.203 93.6649 213.566C97.4378 215.941 102.223 216.947 107.129 216.399C117.242 215.278 124.74 207.846 123.854 199.837C123.426 195.973 121.124 192.544 117.369 190.181C113.596 187.807 108.817 186.806 103.905 187.349Z" fill="#19116E"/>
<path d="M107.489 219.592C117.781 218.448 125.387 210.887 124.478 202.702C123.568 194.517 114.488 188.809 104.196 189.953C93.9038 191.096 86.2977 198.658 87.2071 206.843C88.1165 215.028 97.1969 220.735 107.489 219.592Z" fill="#FFD600"/>
<path d="M104.851 220.038C100.759 220.038 96.8652 218.978 93.6648 216.971C89.7533 214.512 87.3546 210.926 86.9026 206.876C85.9744 198.54 93.7191 190.808 104.158 189.651C109.202 189.09 114.12 190.127 118.008 192.574C121.919 195.033 124.318 198.619 124.77 202.669C125.222 206.719 123.667 210.745 120.388 214.005C117.134 217.242 112.559 219.333 107.515 219.894C106.623 219.99 105.731 220.044 104.851 220.044V220.038ZM104.224 190.247C94.1169 191.368 86.6133 198.799 87.4993 206.809C87.9272 210.673 90.2295 214.102 93.9843 216.464C97.7572 218.839 102.543 219.846 107.449 219.297C112.36 218.749 116.802 216.718 119.967 213.578C123.107 210.456 124.601 206.604 124.173 202.735C123.745 198.866 121.443 195.442 117.688 193.08C113.915 190.705 109.13 189.705 104.224 190.247Z" fill="#19116E"/>
<path d="M104.387 191.712C95.5756 192.688 88.9881 199.022 89.3799 206.001C89.3799 206.014 89.3799 206.02 89.3799 206.026C89.3859 206.212 89.404 206.399 89.4221 206.592C90.2237 213.806 98.2214 218.833 107.286 217.826C116.357 216.82 123.053 210.154 122.257 202.946C122.233 202.753 122.209 202.572 122.179 202.385C122.179 202.385 122.179 202.373 122.179 202.361C121.027 195.466 113.211 190.735 104.393 191.712H104.387Z" fill="#19116E"/>
<path d="M104.971 218.26C101.361 218.26 97.9199 217.326 95.0993 215.548C91.6458 213.378 89.5243 210.208 89.1265 206.628C89.1024 206.435 89.0904 206.248 89.0783 206.061C89.0783 206.049 89.0783 206.037 89.0783 206.019C88.6806 198.823 95.3886 192.404 104.357 191.41C113.325 190.415 121.286 195.201 122.474 202.307C122.474 202.307 122.474 202.337 122.474 202.355C122.504 202.524 122.534 202.71 122.552 202.909C123.372 210.274 116.537 217.103 107.316 218.121C106.526 218.212 105.743 218.254 104.965 218.254L104.971 218.26ZM89.681 205.989V206.001C89.6931 206.2 89.7051 206.375 89.7292 206.562C90.1089 209.955 92.128 212.968 95.4247 215.042C98.7396 217.127 102.952 218.013 107.262 217.531C116.151 216.542 122.745 210.015 121.961 202.982C121.943 202.795 121.913 202.62 121.883 202.439C121.883 202.427 121.883 202.415 121.883 202.409C120.744 195.623 113.072 191.054 104.429 192.013C95.7803 192.971 89.3074 199.112 89.6871 205.989H89.681Z" fill="#19116E"/>
<path d="M104.387 191.712C95.5756 192.688 88.9881 199.022 89.3799 206.002C89.3799 206.014 89.3799 206.02 89.3799 206.026C90.531 212.933 98.342 217.67 107.159 216.687C115.983 215.705 122.57 209.371 122.173 202.379C122.173 202.379 122.173 202.367 122.173 202.355C121.021 195.461 113.204 190.729 104.387 191.706V191.712Z" fill="white"/>
<path d="M104.845 217.121C96.8712 217.121 90.1692 212.571 89.0844 206.086C89.0844 206.067 89.0783 206.043 89.0783 206.019C88.6806 198.823 95.3886 192.404 104.357 191.41C113.325 190.415 121.286 195.201 122.474 202.307C122.474 202.307 122.48 202.355 122.48 202.379C122.866 209.581 116.164 215.988 107.195 216.982C106.4 217.073 105.616 217.115 104.845 217.115V217.121ZM89.681 205.989V206.001C90.8141 212.782 98.4804 217.356 107.129 216.392C115.784 215.427 122.263 209.286 121.877 202.403C120.738 195.617 113.072 191.048 104.423 192.013C95.7743 192.971 89.3013 199.112 89.681 205.989Z" fill="#19116E"/>
<path d="M104.647 207.676L105.376 206.995C104.195 208.092 104.267 210.081 105.527 211.443C106.159 212.124 106.967 212.516 107.769 212.606C108.57 212.691 109.36 212.474 109.95 211.925L110.318 211.588L111.903 213.293L113.006 212.269L111.421 210.563L112.283 209.762L113.868 211.473L114.971 210.449L113.386 208.737L114.025 208.14L115.628 206.652L114.404 205.338L113.729 205.965C113.217 206.441 112.361 206.344 111.819 205.76L106.208 199.721C105.659 199.13 105.629 198.274 106.141 197.798L106.816 197.171L105.593 195.857L103.99 197.346L103.351 197.943L101.766 196.237L100.663 197.262L102.248 198.967L101.386 199.769L99.801 198.063L98.698 199.088L100.283 200.794L99.132 201.866C97.7397 203.156 97.806 205.495 99.2646 207.116C100.765 208.785 103.224 209.014 104.653 207.688L104.647 207.676ZM110.704 209.792L109.956 210.485C109.836 210.599 109.703 210.696 109.559 210.768C108.667 211.244 107.449 211.003 106.63 210.123C106.153 209.611 105.906 208.984 105.882 208.375C105.864 207.935 105.973 207.514 106.202 207.152C106.286 207.013 106.394 206.887 106.515 206.778L107.262 206.085L108.124 205.284L111.566 208.99L110.704 209.792ZM100.82 201.74L101.012 201.565L102.115 200.54L102.977 199.739L107.268 204.355L106.407 205.157L105.304 206.182L105.111 206.356C104.008 207.381 102.151 207.182 100.964 205.91C99.7769 204.633 99.7166 202.77 100.82 201.74Z" fill="#FFD600"/>
<path d="M111.903 213.597C111.903 213.597 111.897 213.597 111.891 213.597C111.813 213.597 111.734 213.56 111.68 213.5L110.3 212.012L110.155 212.144C109.522 212.735 108.666 213.006 107.738 212.904C106.828 212.801 105.966 212.355 105.309 211.65C104.411 210.68 104.074 209.408 104.309 208.311C103.694 208.685 102.965 208.871 102.187 208.835C101.006 208.781 99.8611 208.227 99.0354 207.311C97.4744 205.575 97.4201 203.031 98.9209 201.639L99.855 200.771L98.4749 199.283C98.3603 199.162 98.3664 198.969 98.4929 198.855L99.5959 197.83C99.6561 197.776 99.7224 197.746 99.8128 197.752C99.8912 197.752 99.9695 197.788 100.024 197.848L101.404 199.337L101.826 198.945L100.446 197.456C100.391 197.396 100.361 197.318 100.367 197.239C100.373 197.161 100.403 197.083 100.464 197.029L101.567 196.004C101.687 195.889 101.88 195.895 101.995 196.022L103.375 197.511L105.394 195.636C105.514 195.522 105.707 195.528 105.822 195.654L107.045 196.968C107.16 197.089 107.154 197.282 107.027 197.396L106.352 198.023C105.966 198.385 106.003 199.054 106.43 199.518L112.042 205.557C112.475 206.021 113.138 206.105 113.53 205.75L114.205 205.123C114.326 205.008 114.519 205.014 114.633 205.141L115.857 206.455C115.971 206.575 115.965 206.768 115.839 206.883L113.82 208.757L115.2 210.246C115.314 210.366 115.308 210.559 115.182 210.674L114.079 211.698C114.018 211.752 113.952 211.783 113.862 211.776C113.783 211.776 113.705 211.74 113.651 211.68L112.271 210.191L111.849 210.583L113.229 212.072C113.343 212.192 113.337 212.385 113.211 212.5L112.108 213.524C112.054 213.579 111.981 213.603 111.903 213.603V213.597ZM110.318 211.288C110.318 211.288 110.324 211.288 110.33 211.288C110.408 211.288 110.487 211.324 110.541 211.385L111.921 212.873L112.578 212.259L111.198 210.77C111.083 210.649 111.089 210.457 111.216 210.342L112.078 209.54C112.138 209.486 112.204 209.456 112.295 209.462C112.373 209.462 112.451 209.498 112.506 209.559L113.886 211.047L114.543 210.432L113.163 208.944C113.048 208.823 113.054 208.63 113.181 208.516L115.2 206.642L114.386 205.768L113.928 206.189C113.295 206.774 112.246 206.678 111.59 205.966L105.978 199.927C105.321 199.216 105.297 198.162 105.93 197.577L106.388 197.155L105.575 196.281L103.556 198.156C103.435 198.27 103.242 198.264 103.128 198.137L101.748 196.649L101.091 197.264L102.471 198.752C102.525 198.812 102.555 198.891 102.549 198.969C102.543 199.048 102.513 199.126 102.453 199.18L101.591 199.982C101.47 200.096 101.277 200.09 101.163 199.964L99.7827 198.475L99.1258 199.09L100.506 200.578C100.56 200.639 100.59 200.717 100.584 200.795C100.578 200.874 100.548 200.952 100.488 201.006L99.3367 202.079C98.0771 203.248 98.1434 205.418 99.4874 206.907C100.205 207.702 101.199 208.19 102.224 208.233C103.085 208.269 103.869 207.998 104.448 207.461L105.177 206.78C105.297 206.666 105.49 206.672 105.605 206.798C105.719 206.919 105.713 207.112 105.587 207.226C104.532 208.209 104.61 210.011 105.755 211.246C106.316 211.849 107.045 212.229 107.811 212.313C108.558 212.391 109.245 212.18 109.751 211.71L110.119 211.373C110.173 211.318 110.246 211.294 110.324 211.294L110.318 211.288ZM108.57 211.318C107.805 211.318 107.009 210.975 106.412 210.33C105.906 209.782 105.611 209.094 105.587 208.389C105.569 207.883 105.695 207.401 105.948 206.997C106.051 206.84 106.171 206.69 106.31 206.563L107.919 205.068C108.04 204.954 108.233 204.96 108.347 205.087L111.788 208.793C111.843 208.853 111.873 208.932 111.867 209.01C111.861 209.088 111.831 209.167 111.77 209.221L110.167 210.71C110.029 210.842 109.872 210.951 109.703 211.041C109.354 211.228 108.962 211.318 108.57 211.318ZM108.106 205.719L106.72 207.003C106.617 207.1 106.527 207.202 106.455 207.323C106.262 207.624 106.171 207.986 106.183 208.371C106.201 208.932 106.436 209.48 106.846 209.92C107.551 210.68 108.63 210.927 109.408 210.505C109.528 210.438 109.643 210.36 109.745 210.264L110.493 209.571L111.131 208.974L108.1 205.713L108.106 205.719ZM103.387 207.323C103.272 207.323 103.152 207.317 103.037 207.304C102.181 207.214 101.368 206.792 100.747 206.123C99.4512 204.731 99.391 202.67 100.62 201.531L102.772 199.53C102.832 199.475 102.899 199.445 102.989 199.451C103.067 199.451 103.146 199.488 103.2 199.548L107.491 204.164C107.545 204.225 107.576 204.303 107.57 204.381C107.564 204.46 107.533 204.538 107.473 204.592L105.321 206.593C104.803 207.075 104.128 207.329 103.393 207.329L103.387 207.323ZM102.959 200.175L101.03 201.971C100.048 202.881 100.12 204.562 101.187 205.713C101.711 206.274 102.392 206.629 103.098 206.708C103.797 206.786 104.436 206.581 104.906 206.147L106.834 204.351L102.953 200.175H102.959Z" fill="#19116E"/>
<path d="M107.063 93.9535C107.063 93.9535 110.005 112.504 118.593 126.505C127.181 140.5 137.054 147.931 137.054 147.931C137.054 147.931 133.998 151.493 134.607 155.495C135.215 159.503 137.723 161.003 137.723 161.003C137.723 161.003 134.89 166.699 137.723 170.683C140.561 174.673 145.624 175.04 145.624 175.04C145.624 175.04 148.252 180.814 154.99 181.085C161.728 181.363 163.946 178.427 163.946 178.427C163.946 178.427 172.842 184.165 181.689 180.682C190.537 177.198 191.236 172.087 191.236 172.087C191.236 172.087 198.143 173.793 200.53 167.898C202.916 162.004 198.607 159.617 198.607 159.617C198.607 159.617 201.946 155.181 200.295 151.469C198.643 147.756 196.775 147.63 196.775 147.63C196.775 147.63 201.813 139.421 194.165 133.135C186.517 126.849 180.074 133.014 180.074 133.014C180.074 133.014 178.983 129.03 174.18 128.181C169.376 127.331 167.345 129.687 167.345 129.687C167.345 129.687 161.385 130.453 149.831 125.444C138.277 120.436 121.251 94.1102 121.251 94.1102L107.07 93.9414L107.063 93.9535Z" fill="white"/>
<path d="M175.65 182.104C169.906 182.104 165.079 179.458 164 178.825C163.343 179.512 160.812 181.634 154.972 181.393C148.77 181.14 145.925 176.276 145.425 175.33C144.485 175.227 140.097 174.552 137.475 170.864C134.866 167.199 136.818 162.263 137.337 161.112C136.68 160.63 134.823 158.973 134.299 155.543C133.763 152.005 135.932 148.871 136.619 147.979C135.034 146.72 126.102 139.331 118.334 126.662C109.811 112.776 106.792 94.1887 106.762 94.0019C106.75 93.9115 106.774 93.8271 106.834 93.7548C106.894 93.6825 106.991 93.6523 107.063 93.6523L121.245 93.8211C121.347 93.8211 121.437 93.8753 121.492 93.9597C121.66 94.2249 138.602 120.267 149.939 125.179C160.45 129.736 166.356 129.477 167.194 129.41C167.646 128.958 169.798 127.114 174.222 127.898C178.205 128.603 179.742 131.435 180.2 132.52C181.659 131.357 187.583 127.355 194.346 132.912C201.204 138.547 198.07 145.78 197.208 147.443C197.896 147.696 199.3 148.54 200.553 151.355C202.048 154.706 199.716 158.521 199.017 159.545C199.963 160.232 202.88 162.854 200.795 168.013C198.631 173.359 192.851 172.69 191.453 172.443C191.151 173.636 189.542 177.909 181.785 180.965C179.706 181.785 177.621 182.098 175.638 182.098L175.65 182.104ZM163.946 178.138C164 178.138 164.06 178.156 164.108 178.187C164.199 178.241 172.986 183.798 181.581 180.411C190.127 177.041 190.934 172.099 190.94 172.051C190.952 171.967 191.001 171.894 191.073 171.846C191.145 171.798 191.23 171.78 191.314 171.804C191.332 171.804 193.02 172.214 194.966 171.912C197.534 171.515 199.312 170.129 200.252 167.796C202.5 162.233 198.631 159.985 198.462 159.895C198.384 159.853 198.33 159.78 198.311 159.696C198.293 159.611 198.311 159.521 198.366 159.455C198.396 159.413 201.578 155.115 200.017 151.614C198.474 148.154 196.769 147.955 196.75 147.955C196.648 147.943 196.552 147.883 196.509 147.793C196.467 147.702 196.467 147.588 196.521 147.497C196.72 147.172 201.331 139.433 193.978 133.394C186.631 127.355 180.544 133.02 180.291 133.262C180.212 133.334 180.104 133.364 180.001 133.334C179.899 133.304 179.821 133.225 179.791 133.123C179.748 132.966 178.682 129.308 174.137 128.506C169.581 127.699 167.598 129.892 167.58 129.911C167.532 129.965 167.465 130.001 167.393 130.013C167.146 130.043 161.215 130.736 149.722 125.746C144.882 123.649 138.578 117.712 130.984 108.111C125.789 101.542 121.739 95.4122 121.1 94.4359L107.437 94.2731C107.895 96.9009 111.053 113.632 118.864 126.361C127.32 140.144 137.15 147.63 137.246 147.702C137.312 147.75 137.355 147.829 137.367 147.913C137.373 147.997 137.349 148.076 137.294 148.142C137.264 148.178 134.335 151.65 134.914 155.465C135.492 159.268 137.867 160.751 137.891 160.763C138.024 160.841 138.078 161.016 138.006 161.154C137.975 161.209 135.287 166.735 137.988 170.526C140.712 174.353 145.618 174.751 145.666 174.757C145.774 174.763 145.871 174.836 145.919 174.932C145.943 174.986 148.559 180.537 155.02 180.802C161.487 181.067 163.699 178.295 163.723 178.265C163.783 178.187 163.873 178.144 163.964 178.144L163.946 178.138Z" fill="#19116E"/>
<path d="M147.468 153.88C147.432 153.88 147.396 153.874 147.354 153.856C141.278 151.415 136.909 148.202 136.867 148.172C136.734 148.076 136.704 147.883 136.806 147.75C136.903 147.618 137.096 147.588 137.228 147.69C137.27 147.72 141.58 150.89 147.583 153.301C147.739 153.362 147.812 153.536 147.751 153.693C147.703 153.814 147.589 153.88 147.474 153.88H147.468Z" fill="#19116E"/>
<path d="M176.114 133.793C176.023 133.793 175.933 133.75 175.872 133.678C172.341 129.122 167.447 129.99 167.399 129.996C167.236 130.026 167.079 129.917 167.049 129.755C167.019 129.592 167.127 129.435 167.29 129.405C167.344 129.393 172.594 128.453 176.355 133.31C176.457 133.443 176.433 133.63 176.3 133.732C176.246 133.775 176.18 133.793 176.114 133.793Z" fill="#19116E"/>
<path d="M164.397 170.063C164.216 170.063 164.024 170.057 163.825 170.033C160.004 169.672 158.539 166.803 158.479 166.682C158.406 166.532 158.467 166.351 158.617 166.279C158.762 166.206 158.949 166.266 159.021 166.411C159.075 166.52 160.407 169.105 163.885 169.431C167.278 169.75 168.279 166.857 168.321 166.731C168.351 166.634 168.429 166.562 168.526 166.538C168.622 166.514 168.725 166.532 168.803 166.592C168.827 166.61 170.943 168.34 172.491 167.303C174.022 166.279 173.414 164.621 173.383 164.549C173.323 164.392 173.402 164.217 173.558 164.157C173.715 164.097 173.89 164.175 173.95 164.332C173.956 164.356 174.764 166.508 172.829 167.803C171.298 168.828 169.466 167.797 168.737 167.291C168.333 168.123 167.109 170.057 164.403 170.057L164.397 170.063Z" fill="#19116E"/>
<path d="M171.31 174.312C169.948 174.312 168.845 173.058 168.785 172.992C168.676 172.865 168.688 172.679 168.815 172.57C168.941 172.462 169.128 172.474 169.243 172.6C169.261 172.618 170.707 174.246 172.075 173.516C173.498 172.751 173.516 171.558 173.516 171.545C173.516 171.377 173.648 171.244 173.817 171.244C173.986 171.244 174.119 171.377 174.119 171.545C174.119 171.612 174.101 173.112 172.365 174.047C172.009 174.24 171.66 174.312 171.322 174.312H171.31Z" fill="#19116E"/>
<path d="M130.019 130.929C129.947 130.929 129.875 130.905 129.821 130.851C129.724 130.766 127.464 128.729 122.745 121.213C118.032 113.698 115.067 104.151 115.036 104.055C114.988 103.898 115.079 103.729 115.235 103.681C115.392 103.633 115.561 103.723 115.609 103.88C115.639 103.976 118.586 113.451 123.251 120.894C127.904 128.313 130.188 130.38 130.212 130.405C130.339 130.513 130.351 130.706 130.236 130.832C130.176 130.899 130.092 130.935 130.007 130.935L130.019 130.929Z" fill="#19116E"/>
<path d="M161.402 136.439C161.402 136.439 161.402 136.439 161.39 136.439C161.239 136.439 157.623 136.282 149.686 132.66C142.459 129.363 137.656 124.21 137.614 124.162C137.499 124.041 137.511 123.848 137.632 123.734C137.752 123.619 137.945 123.631 138.06 123.752C138.108 123.8 142.833 128.863 149.945 132.111C157.75 135.673 161.384 135.836 161.42 135.836C161.589 135.836 161.715 135.981 161.709 136.149C161.709 136.312 161.571 136.439 161.408 136.439H161.402Z" fill="#19116E"/>
<path d="M175.837 166.278C174.661 166.278 173.733 165.832 173.679 165.802C173.528 165.729 173.468 165.549 173.54 165.398C173.613 165.247 173.793 165.187 173.944 165.259C173.962 165.265 175.656 166.085 177.241 165.386C178.796 164.699 179.043 163.361 179.049 163.307C179.079 163.144 179.236 163.029 179.398 163.06C179.561 163.09 179.676 163.24 179.646 163.403C179.634 163.475 179.344 165.115 177.482 165.94C176.921 166.188 176.349 166.278 175.831 166.278H175.837Z" fill="#19116E"/>
<path d="M99.1854 24.7107L71.4011 36.9997C71.4011 36.9997 69.2735 23.8729 69.8401 14.0912C70.1294 9.14906 71.0997 5.05072 73.396 3.95381C80.2065 0.675145 99.1854 24.7107 99.1854 24.7107Z" fill="#FFD600"/>
<path d="M71.4014 37.3015C71.3532 37.3015 71.3049 37.2894 71.2567 37.2653C71.1724 37.2231 71.1181 37.1388 71.1061 37.0483C71.082 36.9158 68.9785 23.777 69.5451 14.0736C69.8886 8.19726 71.1422 4.70162 73.2697 3.68307C80.2128 0.338101 98.6433 23.5359 99.4268 24.5243C99.487 24.5966 99.5051 24.6931 99.481 24.7835C99.4569 24.8739 99.3966 24.9462 99.3123 24.9884L71.5279 37.2774C71.4918 37.2955 71.4496 37.3015 71.4074 37.3015H71.4014ZM74.8488 3.94825C74.3546 3.94825 73.9146 4.03866 73.5289 4.22549C71.6123 5.14762 70.4732 8.46848 70.1417 14.1097C69.6355 22.8127 71.2989 34.3242 71.6364 36.5662L98.7035 24.5966C97.6669 23.3069 93.436 18.1297 88.6265 13.3142C82.4548 7.14254 77.7417 3.94825 74.8428 3.94825H74.8488Z" fill="#19116E"/>
<path d="M79.4298 67.0371C79.4298 67.0371 67.8218 122.533 75.9643 120.309C84.1067 118.086 98.8065 92.8868 98.8065 92.8868L79.4298 67.0371Z" fill="#FFD600"/>
<path d="M75.4999 120.678C75.066 120.678 74.6742 120.515 74.3367 120.202C72.1188 118.111 72.2574 108.504 74.7466 91.6462C76.5968 79.1584 79.1041 67.1044 79.1342 66.9839C79.1583 66.8694 79.2487 66.779 79.3632 66.7488C79.4777 66.7247 79.5983 66.7669 79.6706 66.8634L99.0473 92.713C99.1196 92.8094 99.1256 92.942 99.0654 93.0445C98.4627 94.0751 84.2089 118.376 76.0424 120.606C75.8555 120.654 75.6747 120.684 75.4999 120.684V120.678ZM79.5922 67.7553C79.0438 70.4313 76.9464 80.9182 75.3493 91.7306C72.2815 112.469 73.3302 118.418 74.7526 119.762C75.072 120.063 75.4336 120.148 75.8857 120.021C83.4676 117.954 97.1307 95.1298 98.4446 92.9059L79.5922 67.7553Z" fill="#19116E"/>
<path d="M116.001 50.8613C116.001 50.8613 164.868 79.61 157.744 84.1362C150.62 88.6625 122.088 82.5873 122.088 82.5873L116.001 50.8613Z" fill="#FFD600"/>
<path d="M148.149 86.1191C137.408 86.1191 122.865 83.0574 122.028 82.8766C121.907 82.8525 121.817 82.7561 121.793 82.6416L115.705 50.9156C115.681 50.8011 115.729 50.6806 115.826 50.6143C115.922 50.548 116.049 50.542 116.151 50.6022C117.887 51.6208 158.629 75.6744 158.75 82.8585C158.762 83.5095 158.473 84.0278 157.9 84.3894C155.905 85.6611 152.307 86.1191 148.142 86.1191H148.149ZM122.347 82.3282C124.872 82.8525 150.951 88.096 157.587 83.8771C157.985 83.624 158.165 83.3045 158.153 82.8646C158.117 80.9118 154.429 76.1324 137.017 64.4462C127.94 58.3529 118.773 52.8563 116.423 51.4581L122.347 82.3282Z" fill="#19116E"/>
<path d="M121.256 90.8634L105.49 97.8366L102.91 92.0025L118.677 85.0293L121.256 90.8634Z" fill="#796DFF"/>
<path d="M105.49 98.1378C105.454 98.1378 105.418 98.1318 105.382 98.1198C105.309 98.0896 105.249 98.0354 105.213 97.9631L102.633 92.129C102.603 92.0566 102.597 91.9723 102.633 91.8999C102.663 91.8276 102.718 91.7673 102.79 91.7312L118.557 84.758C118.707 84.6917 118.888 84.758 118.954 84.9147L121.534 90.7488C121.564 90.8211 121.57 90.9055 121.534 90.9778C121.504 91.0501 121.45 91.1104 121.377 91.1466L105.611 98.1198C105.574 98.1378 105.532 98.1439 105.49 98.1439V98.1378ZM103.308 92.1591L105.647 97.4387L120.865 90.7066L118.526 85.427L103.308 92.1591Z" fill="#19116E"/>
<path d="M121.456 90.2776C115.152 90.2475 109.137 92.9054 104.924 97.5883L104.574 107.726L116.887 102.283L129.2 96.841L121.462 90.2776H121.456Z" fill="#FFD600"/>
<path d="M104.567 108.027C104.507 108.027 104.447 108.009 104.399 107.973C104.314 107.913 104.26 107.817 104.266 107.714L104.616 97.5767C104.616 97.5044 104.646 97.4381 104.694 97.3839C108.937 92.6708 115 89.9707 121.347 89.9707C121.455 89.9707 121.569 89.9707 121.648 90.043L129.386 96.6064C129.465 96.6727 129.507 96.7752 129.489 96.8776C129.471 96.9801 129.405 97.0705 129.314 97.1127L104.694 108.003C104.658 108.021 104.616 108.027 104.573 108.027H104.567ZM105.212 97.7093L104.881 107.256L128.621 96.7571L121.334 90.5734C115.199 90.5734 109.335 93.171 105.206 97.7033L105.212 97.7093Z" fill="#19116E"/>
<path d="M81.9724 29.6233L77.0905 34.481L71.4011 37.0003C71.4011 37.0003 69.2735 23.8736 69.8401 14.0918C69.8401 14.0918 70.6477 24.5968 72.8596 27.556C75.0715 30.5153 81.9724 29.6233 81.9724 29.6233Z" fill="#19116E"/>
<path d="M71.4014 37.3003C71.3532 37.3003 71.3049 37.2882 71.2567 37.2641C71.1724 37.2219 71.1181 37.1375 71.1061 37.0471C71.082 36.9145 68.9785 23.7757 69.5451 14.0723C69.5571 13.9156 69.6837 13.7891 69.8404 13.7891C69.9971 13.7891 70.1297 13.9096 70.1417 14.0663C70.1478 14.1688 70.9674 24.5171 73.101 27.3738C75.1863 30.1643 81.8642 29.3326 81.9305 29.3266C82.0631 29.3085 82.1836 29.3748 82.2379 29.4953C82.2921 29.6098 82.274 29.7485 82.1776 29.8389L77.2958 34.6966C77.2958 34.6966 77.2415 34.7448 77.2053 34.7569L71.5159 37.2761C71.4797 37.2942 71.4375 37.3003 71.3954 37.3003H71.4014ZM70.0513 18.6589C70.1538 26.4095 71.3532 34.6966 71.6364 36.565L76.9161 34.2325L81.159 30.0076C79.2063 30.1462 74.4571 30.2065 72.6128 27.7415C71.323 26.0178 70.5094 21.9194 70.0453 18.6649L70.0513 18.6589Z" fill="#19116E"/>
<path d="M115.085 48.7825C120.268 60.5049 122.625 72.0767 122.197 81.0147C122.167 81.5511 122.136 82.0754 122.088 82.5877C118.876 85.2155 115.211 87.5057 111.143 89.3018C107.069 91.1038 102.91 92.2791 98.806 92.8878C91.5013 87.343 84.0098 77.3865 78.5132 64.9588C74.9513 56.9008 72.7213 48.9211 71.8172 41.8093C71.8172 41.7852 71.8052 41.7731 71.8052 41.7731C71.6003 40.1338 71.4616 38.5366 71.4014 37.0058C75.0417 33.6608 79.375 30.7799 84.293 28.6042C89.2111 26.4285 94.2556 25.1628 99.1857 24.7168C105.014 30.4967 110.691 38.85 115.085 48.7885V48.7825Z" fill="#796DFF"/>
<path d="M98.8005 93.1827C98.7342 93.1827 98.674 93.1586 98.6197 93.1224C90.9836 87.3245 83.5523 77.1027 78.2365 65.0729C74.777 57.2499 72.4506 49.2159 71.5164 41.8389C71.2995 40.1333 71.1609 38.5181 71.1006 37.0113C71.1006 36.9209 71.1307 36.8366 71.197 36.7763C74.9759 33.2987 79.3455 30.454 84.1731 28.3205C88.9947 26.1869 94.0392 24.873 99.1621 24.409C99.2465 24.4029 99.3369 24.4331 99.4032 24.4933C105.46 30.5022 111.132 39.0846 115.363 48.6554C120.341 59.9138 122.945 71.6965 122.499 80.9961C122.499 81.0082 122.499 81.0202 122.499 81.0323C122.468 81.5687 122.438 82.0991 122.39 82.6114C122.384 82.6897 122.342 82.7681 122.282 82.8163C118.955 85.5405 115.248 87.8126 111.264 89.5725C107.28 91.3324 103.104 92.5498 98.8487 93.1766C98.8367 93.1766 98.8186 93.1766 98.8066 93.1766L98.8005 93.1827ZM72.1011 41.7124C72.1011 41.7124 72.1071 41.7425 72.1131 41.7546C73.0413 49.0834 75.3496 57.0631 78.785 64.8318C84.0405 76.711 91.3572 86.8122 98.8789 92.5679C103.037 91.9411 107.118 90.7478 111.017 89.0241C114.911 87.3004 118.533 85.0824 121.799 82.4306C121.836 81.9785 121.866 81.5084 121.89 81.0323C121.89 81.0202 121.89 81.0082 121.89 80.9961C122.336 71.7869 119.756 60.0886 114.808 48.8965C110.625 39.4462 105.044 30.9723 99.0717 25.0177C94.0633 25.4878 89.1333 26.7776 84.4142 28.8689C79.689 30.9603 75.4159 33.7327 71.7033 37.1198C71.7696 38.5663 71.9022 40.1092 72.1011 41.7063V41.7124Z" fill="#19116E"/>
<path d="M91.5019 52.6932C95.8057 52.6932 99.2947 49.2042 99.2947 44.9003C99.2947 40.5964 95.8057 37.1074 91.5019 37.1074C87.198 37.1074 83.709 40.5964 83.709 44.9003C83.709 49.2042 87.198 52.6932 91.5019 52.6932Z" fill="white"/>
<path d="M91.5139 52.9943C88.4039 52.9943 85.4326 51.1923 84.1007 48.1727C82.2926 44.0925 84.1489 39.3011 88.2292 37.493C90.206 36.6191 92.4059 36.5648 94.4249 37.3483C96.4439 38.1258 98.035 39.6446 98.9089 41.6214C99.7829 43.5983 99.8371 45.7981 99.0536 47.8172C98.2761 49.8362 96.7573 51.4273 94.7805 52.3012C93.7197 52.7713 92.6108 52.9943 91.5199 52.9943H91.5139ZM91.4898 37.4086C90.4772 37.4086 89.4526 37.6135 88.4702 38.0474C84.6913 39.7169 82.9797 44.1528 84.6491 47.9317C85.4568 49.7639 86.9334 51.1681 88.8017 51.8914C90.6701 52.6146 92.7072 52.5664 94.5334 51.7528C96.3656 50.9452 97.7699 49.4685 98.4931 47.6002C99.2163 45.7318 99.1681 43.7007 98.3545 41.8685C97.1189 39.072 94.3706 37.4086 91.4898 37.4086Z" fill="#19116E"/>
<path d="M122.191 81.014C122.161 81.5504 122.131 82.0747 122.082 82.587C118.87 85.2148 115.206 87.505 111.137 89.3011C107.063 91.1031 102.905 92.2784 98.8003 92.8871C91.4956 87.3423 84.0041 77.3858 78.5075 64.9582C74.9455 56.9001 72.7156 48.9204 71.8115 41.8086C72.0526 42.8874 77.724 67.7306 94.0088 76.5661C110.661 85.6005 122.191 81.02 122.191 81.02V81.014Z" fill="#19116E"/>
<path d="M98.7997 93.183C98.7334 93.183 98.6731 93.1588 98.6189 93.1227C90.9827 87.3247 83.5515 77.103 78.2357 65.0732C74.7762 57.2502 72.4498 49.2162 71.5156 41.8392C71.4976 41.6765 71.606 41.5319 71.7627 41.5017C71.9194 41.4776 72.0701 41.574 72.1063 41.7307C72.3413 42.7794 77.9826 67.5141 94.1529 76.2833C110.474 85.137 121.967 80.7674 122.082 80.7252C122.233 80.665 122.407 80.7373 122.474 80.888C122.492 80.9362 122.498 80.9784 122.498 81.0266C122.468 81.563 122.437 82.0933 122.389 82.6056C122.383 82.684 122.341 82.7623 122.281 82.8105C118.954 85.5347 115.247 87.8069 111.263 89.5668C107.28 91.3267 103.103 92.5441 98.8479 93.1709C98.8359 93.1709 98.8178 93.1709 98.8057 93.1709L98.7997 93.183ZM73.0525 47.2997C74.2519 53.0132 76.1986 58.9799 78.7902 64.8321C84.0457 76.7113 91.3624 86.8125 98.8841 92.5682C103.043 91.9414 107.123 90.7481 111.022 89.0244C114.916 87.3006 118.538 85.0827 121.805 82.4309C121.835 82.1054 121.853 81.7739 121.877 81.4424C119.611 82.1536 108.672 84.8537 93.8757 76.8258C81.9604 70.3588 75.6923 55.412 73.0585 47.3057L73.0525 47.2997Z" fill="#19116E"/>
<path d="M103.139 61.0466C104.055 63.1259 118.954 101.361 116.875 102.283C114.795 103.199 96.5276 66.4528 95.6115 64.3795C94.6954 62.3062 95.6296 59.8713 97.7089 58.9552C99.7882 58.0391 102.217 58.9733 103.133 61.0526L103.139 61.0466Z" fill="#FFD600"/>
<path d="M116.778 102.616C116.103 102.616 114.229 100.989 105.55 84.5952C100.554 75.157 95.7982 65.5319 95.3462 64.5013C94.8701 63.4225 94.8399 62.2231 95.2679 61.1202C95.6958 60.0173 96.5215 59.1494 97.6003 58.6732C99.8242 57.6909 102.44 58.6974 103.422 60.9273C103.88 61.9579 107.804 71.9567 111.42 81.9976C118.58 101.862 117.513 102.333 117.001 102.556C116.941 102.586 116.869 102.616 116.778 102.616ZM99.3722 58.8962C98.8599 58.8962 98.3356 58.9987 97.8353 59.2217C96.9072 59.6315 96.19 60.3849 95.8223 61.3311C95.4547 62.2834 95.4788 63.32 95.8886 64.2482C97.7028 68.3526 114.361 101.248 116.748 101.983C117.857 99.6626 104.14 64.0433 102.868 61.1684C102.241 59.746 100.837 58.8962 99.3722 58.8962Z" fill="#19116E"/>
<path d="M123.354 147.462C123.36 147.577 123.378 147.691 123.396 147.8C122.703 147.438 121.908 147.251 121.076 147.312C118.701 147.487 116.911 149.554 117.086 151.934C117.261 154.309 119.328 156.099 121.709 155.924C124.083 155.749 125.873 153.682 125.699 151.302C125.668 150.892 125.578 150.506 125.445 150.138C125.813 150.259 126.211 150.313 126.627 150.283C128.308 150.162 129.574 148.698 129.453 147.01C129.333 145.329 127.868 144.063 126.181 144.184C124.499 144.304 123.234 145.769 123.354 147.456V147.462Z" fill="white"/>
<path d="M121.389 156.237C120.28 156.237 119.225 155.846 118.375 155.116C117.441 154.309 116.881 153.188 116.79 151.958C116.7 150.729 117.091 149.535 117.899 148.601C118.707 147.667 119.828 147.106 121.057 147.016C121.738 146.968 122.413 147.07 123.046 147.311C123.028 146.48 123.311 145.684 123.86 145.045C124.444 144.364 125.264 143.954 126.156 143.894C127.054 143.828 127.916 144.117 128.597 144.702C129.278 145.286 129.688 146.106 129.754 146.998C129.82 147.89 129.531 148.758 128.947 149.439C128.362 150.12 127.542 150.53 126.65 150.59C126.397 150.608 126.138 150.596 125.891 150.56C125.951 150.801 125.987 151.042 126.005 151.283C126.192 153.82 124.276 156.038 121.738 156.225C121.624 156.231 121.509 156.237 121.395 156.237H121.389ZM121.389 147.607C121.292 147.607 121.196 147.607 121.099 147.619C120.033 147.697 119.056 148.185 118.351 148.999C117.652 149.813 117.308 150.849 117.387 151.916C117.465 152.983 117.953 153.959 118.767 154.664C119.581 155.369 120.611 155.707 121.684 155.629C123.89 155.466 125.553 153.537 125.397 151.331C125.373 150.97 125.294 150.608 125.162 150.253C125.119 150.144 125.15 150.024 125.228 149.939C125.306 149.855 125.427 149.825 125.541 149.861C125.885 149.975 126.24 150.017 126.602 149.993C127.337 149.939 128.006 149.602 128.482 149.047C128.959 148.493 129.2 147.781 129.145 147.046C129.091 146.311 128.754 145.642 128.199 145.16C127.645 144.678 126.933 144.443 126.198 144.497C125.463 144.551 124.794 144.889 124.318 145.443C123.842 145.998 123.601 146.709 123.655 147.444C123.661 147.546 123.679 147.649 123.697 147.751C123.721 147.866 123.673 147.98 123.583 148.047C123.486 148.113 123.366 148.125 123.263 148.071C122.684 147.763 122.04 147.607 121.395 147.607H121.389Z" fill="#19116E"/>
<path d="M144.461 123.13C146.724 123.13 148.559 121.295 148.559 119.032C148.559 116.768 146.724 114.934 144.461 114.934C142.197 114.934 140.362 116.768 140.362 119.032C140.362 121.295 142.197 123.13 144.461 123.13Z" fill="white"/>
<path d="M144.46 123.426C142.037 123.426 140.061 121.456 140.061 119.027C140.061 116.598 142.031 114.627 144.46 114.627C146.889 114.627 148.86 116.598 148.86 119.027C148.86 121.456 146.889 123.426 144.46 123.426ZM144.46 115.236C142.369 115.236 140.663 116.935 140.663 119.033C140.663 121.13 142.363 122.83 144.46 122.83C146.558 122.83 148.257 121.13 148.257 119.033C148.257 116.935 146.558 115.236 144.46 115.236Z" fill="#19116E"/>
<path d="M144.461 112.577C145.676 112.577 146.66 111.593 146.66 110.378C146.66 109.163 145.676 108.178 144.461 108.178C143.246 108.178 142.261 109.163 142.261 110.378C142.261 111.593 143.246 112.577 144.461 112.577Z" fill="white"/>
<path d="M144.46 112.879C143.08 112.879 141.959 111.758 141.959 110.378C141.959 108.998 143.08 107.877 144.46 107.877C145.84 107.877 146.961 108.998 146.961 110.378C146.961 111.758 145.84 112.879 144.46 112.879ZM144.46 108.474C143.411 108.474 142.562 109.323 142.562 110.372C142.562 111.421 143.418 112.271 144.46 112.271C145.503 112.271 146.359 111.421 146.359 110.372C146.359 109.323 145.509 108.474 144.46 108.474Z" fill="#19116E"/>
</g>
<defs>
<clipPath id="clip0_3168_37297">
<rect width="102.543" height="125.258" fill="white" transform="translate(137.457 101.904)"/>
</clipPath>
<clipPath id="clip1_3168_37297">
<rect width="209.576" height="220.038" fill="white"/>
</clipPath>
</defs>
</svg>
