<svg width="20" height="20" viewBox="0 0 20 20" fill="none" xmlns="http://www.w3.org/2000/svg">
<path d="M11.666 15.8327H4.99935C4.49935 15.8327 4.16602 15.4993 4.16602 14.9993C4.16602 14.4993 4.49935 14.166 4.99935 14.166H11.666C12.0827 14.166 12.4993 13.9993 12.8327 13.666C13.166 13.3327 13.3327 12.916 13.3327 12.4993C13.3327 12.0827 13.166 11.666 12.8327 11.3327C12.4993 10.9993 12.0827 10.8327 11.666 10.8327C11.166 10.8327 10.8327 10.4993 10.8327 9.99935C10.8327 9.49935 11.166 9.16601 11.666 9.16601C12.0827 9.16601 12.4993 8.99935 12.8327 8.66601C13.166 8.33268 13.3327 7.91601 13.3327 7.49935C13.3327 7.08268 13.166 6.66602 12.8327 6.33268C12.4993 5.99935 12.0827 5.83268 11.666 5.83268H4.99935C4.49935 5.83268 4.16602 5.49935 4.16602 4.99935C4.16602 4.49935 4.49935 4.16602 4.99935 4.16602H11.666C12.5827 4.16602 13.416 4.49935 13.9993 5.16602C14.666 5.74935 14.9994 6.58268 14.9994 7.49935C14.9994 8.41602 14.666 9.24935 13.9993 9.83268L13.8327 9.99935L13.9993 10.166C14.666 10.8327 14.9994 11.666 14.9994 12.4993C14.9994 13.3327 14.666 14.2493 13.9993 14.8327C13.3327 15.416 12.5827 15.8327 11.666 15.8327Z" fill="#616161"/>
<path d="M6.66634 15.8327C6.16634 15.8327 5.83301 15.4993 5.83301 14.9993V4.99935C5.83301 4.49935 6.16634 4.16602 6.66634 4.16602C7.16634 4.16602 7.49967 4.49935 7.49967 4.99935V14.9993C7.49967 15.4993 7.16634 15.8327 6.66634 15.8327Z" fill="#616161"/>
<path d="M11.6663 10.8327H6.66634C6.16634 10.8327 5.83301 10.4993 5.83301 9.99935C5.83301 9.49935 6.16634 9.16602 6.66634 9.16602H11.6663C12.1663 9.16602 12.4997 9.49935 12.4997 9.99935C12.4997 10.4993 12.1663 10.8327 11.6663 10.8327ZM7.49967 5.83268C6.99967 5.83268 6.66634 5.49935 6.66634 4.99935V2.49935C6.66634 1.99935 6.99967 1.66602 7.49967 1.66602C7.99967 1.66602 8.33301 1.99935 8.33301 2.49935V4.99935C8.33301 5.49935 7.99967 5.83268 7.49967 5.83268ZM10.833 5.83268C10.333 5.83268 9.99967 5.49935 9.99967 4.99935V2.49935C9.99967 1.99935 10.333 1.66602 10.833 1.66602C11.333 1.66602 11.6663 1.99935 11.6663 2.49935V4.99935C11.6663 5.49935 11.333 5.83268 10.833 5.83268ZM7.49967 18.3327C6.99967 18.3327 6.66634 17.9993 6.66634 17.4993V14.9993C6.66634 14.4993 6.99967 14.166 7.49967 14.166C7.99967 14.166 8.33301 14.4993 8.33301 14.9993V17.4993C8.33301 17.9993 7.99967 18.3327 7.49967 18.3327ZM10.833 18.3327C10.333 18.3327 9.99967 17.9993 9.99967 17.4993V14.9993C9.99967 14.4993 10.333 14.166 10.833 14.166C11.333 14.166 11.6663 14.4993 11.6663 14.9993V17.4993C11.6663 17.9993 11.333 18.3327 10.833 18.3327Z" fill="#616161"/>
</svg>
