<svg width="36" height="36" viewBox="0 0 36 36" fill="none" xmlns="http://www.w3.org/2000/svg">
<path d="M18 3C9.71572 3 3 9.71572 3 18C3 26.2842 9.71572 33 18 33C26.2842 33 33 26.2842 33 18" stroke="#09B96D" stroke-width="1.5" stroke-linecap="round" stroke-linejoin="round"/>
<path d="M33 3L24 12M24 12H32.1M24 12V3.9" stroke="#09B96D" stroke-width="1.5" stroke-linecap="round" stroke-linejoin="round"/>
<path d="M14.7314 15.1719H20.1392C21.338 15.1719 22.3103 16.2508 22.3103 17.343C22.3103 18.5417 21.338 19.5141 20.1392 19.5141H14.7314V15.1719Z" stroke="#09B96D" stroke-width="1.3" stroke-miterlimit="10" stroke-linecap="round" stroke-linejoin="round"/>
<path d="M14.7314 19.5H20.9117C22.2837 19.5 23.3892 20.4723 23.3892 21.6711C23.3892 22.8699 22.2837 23.8422 20.9117 23.8422H14.7314V19.5Z" stroke="#09B96D" stroke-width="1.3" stroke-miterlimit="10" stroke-linecap="round" stroke-linejoin="round"/>
<path d="M18.5142 23.8281V25.9992" stroke="#09B96D" stroke-width="1.3" stroke-miterlimit="10" stroke-linecap="round" stroke-linejoin="round"/>
<path d="M15.8103 23.8281V25.9992" stroke="#09B96D" stroke-width="1.3" stroke-miterlimit="10" stroke-linecap="round" stroke-linejoin="round"/>
<path d="M18.5142 13V15.1711" stroke="#09B96D" stroke-width="1.3" stroke-miterlimit="10" stroke-linecap="round" stroke-linejoin="round"/>
<path d="M15.8103 13V15.1711" stroke="#09B96D" stroke-width="1.3" stroke-miterlimit="10" stroke-linecap="round" stroke-linejoin="round"/>
<path d="M16.7828 15.1719H13" stroke="#09B96D" stroke-width="1.3" stroke-miterlimit="10" stroke-linecap="round" stroke-linejoin="round"/>
<path d="M16.7828 23.8281H13" stroke="#09B96D" stroke-width="1.3" stroke-miterlimit="10" stroke-linecap="round" stroke-linejoin="round"/>
</svg>
