<svg width="36" height="36" viewBox="0 0 36 36" fill="none" xmlns="http://www.w3.org/2000/svg">
<path d="M18 3.5C21.2995 3.5 23.7302 3.50097 25.6143 3.72363C27.4872 3.94503 28.7553 4.37953 29.7578 5.20215C30.1376 5.51381 30.4862 5.86243 30.7979 6.24219C31.6205 7.24466 32.055 8.51275 32.2764 10.3857C32.499 12.2698 32.5 14.7005 32.5 18C32.5 21.2995 32.499 23.7302 32.2764 25.6143C32.055 27.4872 31.6205 28.7553 30.7979 29.7578C30.4862 30.1376 30.1376 30.4862 29.7578 30.7979C28.7553 31.6205 27.4872 32.055 25.6143 32.2764C23.7302 32.499 21.2995 32.5 18 32.5C14.7005 32.5 12.2698 32.499 10.3857 32.2764C8.51275 32.055 7.24466 31.6205 6.24219 30.7979C5.86243 30.4862 5.51381 30.1376 5.20215 29.7578C4.37953 28.7553 3.94503 27.4872 3.72363 25.6143C3.50097 23.7302 3.5 21.2995 3.5 18C3.5 14.7005 3.50097 12.2698 3.72363 10.3857C3.94503 8.51275 4.37953 7.24466 5.20215 6.24219C5.51381 5.86243 5.86243 5.51381 6.24219 5.20215C7.24466 4.37953 8.51275 3.94503 10.3857 3.72363C12.2698 3.50097 14.7005 3.5 18 3.5Z" stroke="#09B96D"/>
<path d="M22.1666 13.834L13.8333 22.1673M13.8333 22.1673H22.1666M13.8333 22.1673V13.834" stroke="#09B96D" stroke-width="1.5" stroke-linecap="round" stroke-linejoin="round"/>
</svg>
