<svg width="36" height="36" viewBox="0 0 36 36" fill="none" xmlns="http://www.w3.org/2000/svg">
<path d="M21 3.30006C20.0307 3.10329 19.0273 3 18 3C9.71572 3 3 9.71572 3 18C3 26.2842 9.71572 33 18 33C26.2842 33 33 26.2842 33 18C33 16.9727 32.8966 15.9693 32.7 15" stroke="#0166FF" stroke-width="1.5" stroke-linecap="round" stroke-linejoin="round"/>
<path d="M33 3L25.5 10.5M25.5 10.5H32.25M25.5 10.5V3.75" stroke="#0166FF" stroke-width="1.5" stroke-linecap="round" stroke-linejoin="round"/>
<path d="M14.8333 13.2988H20.559C21.8282 13.2988 22.8577 14.4411 22.8577 15.5975C22.8577 16.8668 21.8282 17.8963 20.559 17.8963H14.8333V13.2988Z" stroke="#0166FF" stroke-width="1.3" stroke-miterlimit="10" stroke-linecap="round" stroke-linejoin="round"/>
<path d="M14.8333 17.8818H21.3769C22.8295 17.8818 24 18.9113 24 20.1806C24 21.4498 22.8295 22.4793 21.3769 22.4793H14.8333V17.8818Z" stroke="#0166FF" stroke-width="1.3" stroke-miterlimit="10" stroke-linecap="round" stroke-linejoin="round"/>
<path d="M18.8385 22.4658V24.7645" stroke="#0166FF" stroke-width="1.3" stroke-miterlimit="10" stroke-linecap="round" stroke-linejoin="round"/>
<path d="M15.9756 22.4658V24.7645" stroke="#0166FF" stroke-width="1.3" stroke-miterlimit="10" stroke-linecap="round" stroke-linejoin="round"/>
<path d="M18.8385 11V13.2987" stroke="#0166FF" stroke-width="1.3" stroke-miterlimit="10" stroke-linecap="round" stroke-linejoin="round"/>
<path d="M15.9756 11V13.2987" stroke="#0166FF" stroke-width="1.3" stroke-miterlimit="10" stroke-linecap="round" stroke-linejoin="round"/>
<path d="M17.0051 13.2988H13" stroke="#0166FF" stroke-width="1.3" stroke-miterlimit="10" stroke-linecap="round" stroke-linejoin="round"/>
<path d="M17.0051 22.4658H13" stroke="#0166FF" stroke-width="1.3" stroke-miterlimit="10" stroke-linecap="round" stroke-linejoin="round"/>
</svg>
