<svg width="36" height="36" viewBox="0 0 36 36" fill="none" xmlns="http://www.w3.org/2000/svg">
<path d="M21 3.30006C20.0307 3.10329 19.0273 3 18 3C9.71572 3 3 9.71572 3 18C3 26.2842 9.71572 33 18 33C26.2842 33 33 26.2842 33 18C33 16.9727 32.8966 15.9693 32.7 15" stroke="#FFA500" stroke-width="1.5" stroke-linecap="round" stroke-linejoin="round"/>
<path d="M32 4.58C31.97 4.575 31.935 4.575 31.905 4.58C31.215 4.555 30.665 3.99 30.665 3.29C30.665 2.575 31.24 2 31.955 2C32.67 2 33.245 2.58 33.245 3.29C33.24 3.99 32.69 4.555 32 4.58Z" stroke="#FFA500" stroke-width="0.8" stroke-linecap="round" stroke-linejoin="round"/>
<path d="M31.485 8.21996C32.17 8.33496 32.925 8.21496 33.455 7.85996C34.16 7.38996 34.16 6.61996 33.455 6.14996C32.92 5.79496 32.155 5.67496 31.47 5.79496" stroke="#FFA500" stroke-width="0.8" stroke-linecap="round" stroke-linejoin="round"/>
<path d="M25.985 4.58C26.015 4.575 26.05 4.575 26.08 4.58C26.77 4.555 27.32 3.99 27.32 3.29C27.32 2.575 26.745 2 26.03 2C25.315 2 24.74 2.58 24.74 3.29C24.745 3.99 25.295 4.555 25.985 4.58Z" stroke="#FFA500" stroke-width="0.8" stroke-linecap="round" stroke-linejoin="round"/>
<path d="M26.5 8.21996C25.815 8.33496 25.06 8.21496 24.53 7.85996C23.825 7.38996 23.825 6.61996 24.53 6.14996C25.065 5.79496 25.83 5.67496 26.515 5.79496" stroke="#FFA500" stroke-width="0.8" stroke-linecap="round" stroke-linejoin="round"/>
<path d="M29 8.31499C28.97 8.30999 28.935 8.30999 28.905 8.31499C28.215 8.28999 27.665 7.72499 27.665 7.02499C27.665 6.30999 28.24 5.73499 28.955 5.73499C29.67 5.73499 30.245 6.31499 30.245 7.02499C30.24 7.72499 29.69 8.29499 29 8.31499Z" stroke="#FFA500" stroke-width="0.8" stroke-linecap="round" stroke-linejoin="round"/>
<path d="M27.5451 9.89005C26.8401 10.3601 26.8401 11.1301 27.5451 11.6001C28.3451 12.1351 29.6551 12.1351 30.4551 11.6001C31.1601 11.1301 31.1601 10.3601 30.4551 9.89005C29.6601 9.36005 28.3451 9.36005 27.5451 9.89005Z" stroke="#FFA500" stroke-width="0.8" stroke-linecap="round" stroke-linejoin="round"/>
<path d="M14.8333 13.2987H20.5589C21.8281 13.2987 22.8576 14.441 22.8576 15.5974C22.8576 16.8667 21.8281 17.8961 20.5589 17.8961H14.8333V13.2987Z" stroke="#FFA500" stroke-width="1.3" stroke-miterlimit="10" stroke-linecap="round" stroke-linejoin="round"/>
<path d="M14.8333 17.8821H21.3768C22.8294 17.8821 23.9999 18.9116 23.9999 20.1808C23.9999 21.45 22.8294 22.4795 21.3768 22.4795H14.8333V17.8821Z" stroke="#FFA500" stroke-width="1.3" stroke-miterlimit="10" stroke-linecap="round" stroke-linejoin="round"/>
<path d="M18.8386 22.4655V24.7642" stroke="#FFA500" stroke-width="1.3" stroke-miterlimit="10" stroke-linecap="round" stroke-linejoin="round"/>
<path d="M15.9756 22.4655V24.7642" stroke="#FFA500" stroke-width="1.3" stroke-miterlimit="10" stroke-linecap="round" stroke-linejoin="round"/>
<path d="M18.8386 11V13.2987" stroke="#FFA500" stroke-width="1.3" stroke-miterlimit="10" stroke-linecap="round" stroke-linejoin="round"/>
<path d="M15.9756 11V13.2987" stroke="#FFA500" stroke-width="1.3" stroke-miterlimit="10" stroke-linecap="round" stroke-linejoin="round"/>
<path d="M17.0051 13.2987H13" stroke="#FFA500" stroke-width="1.3" stroke-miterlimit="10" stroke-linecap="round" stroke-linejoin="round"/>
<path d="M17.0051 22.4655H13" stroke="#FFA500" stroke-width="1.3" stroke-miterlimit="10" stroke-linecap="round" stroke-linejoin="round"/>
</svg>
