<svg width="36" height="36" viewBox="0 0 36 36" fill="none" xmlns="http://www.w3.org/2000/svg">
<path d="M21 3.30006C20.0307 3.10329 19.0273 3 18 3C9.71572 3 3 9.71572 3 18C3 26.2842 9.71572 33 18 33C26.2842 33 33 26.2842 33 18C33 16.9727 32.8966 15.9693 32.7 15" stroke="#4CD964" stroke-width="1.5" stroke-linecap="round" stroke-linejoin="round"/>
<path d="M26.4998 5.12476H31.4808" stroke="#4CD964" stroke-width="0.8" stroke-linecap="round" stroke-linejoin="round"/>
<path d="M29 7L26.15 4.8625C26.1034 4.82757 26.0656 4.78228 26.0396 4.7302C26.0136 4.67813 26 4.62072 26 4.5625V2.875C26 2.77554 26.0395 2.68016 26.1098 2.60984C26.1802 2.53951 26.2755 2.5 26.375 2.5H31.625C31.7245 2.5 31.8198 2.53951 31.8902 2.60984C31.9605 2.68016 32 2.77554 32 2.875V4.54568C32 4.60366 31.9866 4.66085 31.9607 4.71275C31.9349 4.76466 31.8974 4.80987 31.8511 4.84483L29 7Z" stroke="#4CD964" stroke-width="0.8" stroke-linecap="round" stroke-linejoin="round"/>
<path d="M29 7L26.15 9.1375C26.1034 9.17243 26.0656 9.21772 26.0396 9.26979C26.0136 9.32187 26 9.37928 26 9.4375V11.125C26 11.2245 26.0395 11.3198 26.1098 11.3902C26.1802 11.4605 26.2755 11.5 26.375 11.5H31.625C31.7245 11.5 31.8198 11.4605 31.8902 11.3902C31.9605 11.3198 32 11.2245 32 11.125V9.45432C32 9.39634 31.9866 9.33915 31.9607 9.28725C31.9349 9.23534 31.8974 9.19013 31.8511 9.15517L29 7Z" stroke="#4CD964" stroke-width="0.8" stroke-linecap="round" stroke-linejoin="round"/>
<path d="M29 8.87479V7" stroke="#4CD964" stroke-width="0.8" stroke-linecap="round" stroke-linejoin="round"/>
<path d="M14.8333 13.2987H20.5589C21.8281 13.2987 22.8576 14.441 22.8576 15.5974C22.8576 16.8667 21.8281 17.8961 20.5589 17.8961H14.8333V13.2987Z" stroke="#4CD964" stroke-width="1.3" stroke-miterlimit="10" stroke-linecap="round" stroke-linejoin="round"/>
<path d="M14.8333 17.8821H21.3768C22.8294 17.8821 23.9999 18.9116 23.9999 20.1808C23.9999 21.45 22.8294 22.4795 21.3768 22.4795H14.8333V17.8821Z" stroke="#4CD964" stroke-width="1.3" stroke-miterlimit="10" stroke-linecap="round" stroke-linejoin="round"/>
<path d="M18.8386 22.4655V24.7642" stroke="#4CD964" stroke-width="1.3" stroke-miterlimit="10" stroke-linecap="round" stroke-linejoin="round"/>
<path d="M15.9756 22.4655V24.7642" stroke="#4CD964" stroke-width="1.3" stroke-miterlimit="10" stroke-linecap="round" stroke-linejoin="round"/>
<path d="M18.8386 11V13.2987" stroke="#4CD964" stroke-width="1.3" stroke-miterlimit="10" stroke-linecap="round" stroke-linejoin="round"/>
<path d="M15.9756 11V13.2987" stroke="#4CD964" stroke-width="1.3" stroke-miterlimit="10" stroke-linecap="round" stroke-linejoin="round"/>
<path d="M17.0051 13.2987H13" stroke="#4CD964" stroke-width="1.3" stroke-miterlimit="10" stroke-linecap="round" stroke-linejoin="round"/>
<path d="M17.0051 22.4655H13" stroke="#4CD964" stroke-width="1.3" stroke-miterlimit="10" stroke-linecap="round" stroke-linejoin="round"/>
</svg>
