<svg width="105" height="105" viewBox="0 0 105 105" fill="none" xmlns="http://www.w3.org/2000/svg">
<path d="M52.5 0C81.4747 0 105 23.5252 105 52.5C105 81.4747 81.4747 105 52.5 105C23.5252 105 0 81.4747 0 52.5C0 23.5252 23.5252 0 52.5 0Z" fill="#EC5457"/>
<path fill-rule="evenodd" clip-rule="evenodd" d="M30.7032 30.1532C32.2799 28.5765 34.8362 28.5765 36.4128 30.1532C43.0912 36.8314 53.2721 47.0122 61.7834 55.5235L77.1351 70.8752L77.1361 70.8761C77.1363 70.8763 77.1364 70.8764 74.2816 73.7312C71.4267 76.586 71.4266 76.5859 71.4264 76.5857L71.4255 76.5848L56.0738 61.2331C47.5625 52.7219 37.3817 42.5411 30.7033 35.8629C29.1266 34.2862 29.1266 31.7299 30.7032 30.1532ZM77.1364 76.586C75.5597 78.1627 73.0034 78.1627 71.4267 76.586L74.2816 73.7312L77.1364 70.8764C78.713 72.4531 78.713 75.0094 77.1364 76.586Z" fill="white"/>
<path fill-rule="evenodd" clip-rule="evenodd" d="M70.325 29.1161C71.9016 27.5394 74.4579 27.5394 76.0346 29.1161C77.6113 30.6928 77.6113 33.249 76.0346 34.8257L73.1798 31.9709L70.325 29.1161ZM70.3247 29.1164C70.3249 29.1162 70.325 29.1161 73.1798 31.9709C76.0346 34.8257 76.0345 34.8258 76.0343 34.826L35.3111 75.5492C33.7344 77.1259 31.1782 77.1259 29.6015 75.5492C28.0248 73.9725 28.0248 71.4163 29.6015 69.8396L70.3247 29.1164Z" fill="white"/>
</svg>
