<svg width="20" height="20" viewBox="0 0 20 20" fill="none" xmlns="http://www.w3.org/2000/svg">
<path d="M3.75 16.25C5.13071 16.25 6.25 15.1307 6.25 13.75C6.25 12.3693 5.13071 11.25 3.75 11.25C2.36929 11.25 1.25 12.3693 1.25 13.75C1.25 15.1307 2.36929 16.25 3.75 16.25Z" fill="white"/>
<path d="M6.25 6.25C7.63071 6.25 8.75 5.13071 8.75 3.75C8.75 2.36929 7.63071 1.25 6.25 1.25C4.86929 1.25 3.75 2.36929 3.75 3.75C3.75 5.13071 4.86929 6.25 6.25 6.25Z" fill="white"/>
<path d="M16.25 8.75C17.6307 8.75 18.75 7.63071 18.75 6.25C18.75 4.86929 17.6307 3.75 16.25 3.75C14.8693 3.75 13.75 4.86929 13.75 6.25C13.75 7.63071 14.8693 8.75 16.25 8.75Z" fill="white"/>
<path d="M13.75 18.75C15.1307 18.75 16.25 17.6307 16.25 16.25C16.25 14.8693 15.1307 13.75 13.75 13.75C12.3693 13.75 11.25 14.8693 11.25 16.25C11.25 17.6307 12.3693 18.75 13.75 18.75Z" fill="white"/>
<path d="M15.3669 7.1327C15.2497 7.01553 15.0908 6.9497 14.9251 6.9497C14.7593 6.9497 14.6004 7.01553 14.4832 7.1327L12.5001 9.11582L10.4419 7.0577L9.30319 5.91895C9.05973 6.26056 8.76106 6.55924 8.41944 6.8027L9.11631 7.49957L7.05819 9.5577L4.63319 11.9827C4.57349 12.0403 4.52588 12.1093 4.49312 12.1856C4.46037 12.2618 4.44313 12.3438 4.44241 12.4268C4.44169 12.5098 4.4575 12.5921 4.48892 12.6689C4.52035 12.7457 4.56676 12.8155 4.62544 12.8742C4.68412 12.9329 4.75391 12.9793 4.83072 13.0107C4.90753 13.0421 4.98983 13.0579 5.07281 13.0572C5.1558 13.0565 5.23781 13.0393 5.31407 13.0065C5.39032 12.9738 5.45928 12.9261 5.51694 12.8664L7.50006 10.8833L9.55819 12.9414L10.6969 14.0802C10.9404 13.7386 11.2391 13.4399 11.5807 13.1964L10.8838 12.4996L12.9419 10.4414L15.3669 8.01645C15.4841 7.89924 15.5499 7.7403 15.5499 7.57457C15.5499 7.40884 15.4841 7.2499 15.3669 7.1327Z" fill="white"/>
</svg>
