<svg width="18" height="18" viewBox="0 0 18 18" fill="none" xmlns="http://www.w3.org/2000/svg">
<path d="M2.75 15.25C4.13071 15.25 5.25 14.1307 5.25 12.75C5.25 11.3693 4.13071 10.25 2.75 10.25C1.36929 10.25 0.25 11.3693 0.25 12.75C0.25 14.1307 1.36929 15.25 2.75 15.25Z" fill="#0166FF"/>
<path d="M5.25 5.25C6.63071 5.25 7.75 4.13071 7.75 2.75C7.75 1.36929 6.63071 0.25 5.25 0.25C3.86929 0.25 2.75 1.36929 2.75 2.75C2.75 4.13071 3.86929 5.25 5.25 5.25Z" fill="#0166FF"/>
<path d="M15.25 7.75C16.6307 7.75 17.75 6.63071 17.75 5.25C17.75 3.86929 16.6307 2.75 15.25 2.75C13.8693 2.75 12.75 3.86929 12.75 5.25C12.75 6.63071 13.8693 7.75 15.25 7.75Z" fill="#0166FF"/>
<path d="M12.75 17.75C14.1307 17.75 15.25 16.6307 15.25 15.25C15.25 13.8693 14.1307 12.75 12.75 12.75C11.3693 12.75 10.25 13.8693 10.25 15.25C10.25 16.6307 11.3693 17.75 12.75 17.75Z" fill="#0166FF"/>
<path d="M14.366 6.1327C14.2488 6.01553 14.0898 5.9497 13.9241 5.9497C13.7584 5.9497 13.5994 6.01553 13.4822 6.1327L11.4991 8.11582L9.44096 6.0577L8.30221 4.91895C8.05875 5.26056 7.76008 5.55924 7.41846 5.8027L8.11534 6.49957L6.05721 8.5577L3.63221 10.9827C3.57252 11.0403 3.5249 11.1093 3.49215 11.1856C3.45939 11.2618 3.44215 11.3438 3.44143 11.4268C3.44071 11.5098 3.45652 11.5921 3.48795 11.6689C3.51937 11.7457 3.56578 11.8155 3.62446 11.8742C3.68315 11.9329 3.75293 11.9793 3.82974 12.0107C3.90655 12.0421 3.98885 12.0579 4.07184 12.0572C4.15482 12.0565 4.23684 12.0393 4.31309 12.0065C4.38934 11.9738 4.45831 11.9261 4.51596 11.8664L6.49909 9.88332L8.55721 11.9414L9.69596 13.0802C9.93942 12.7386 10.2381 12.4399 10.5797 12.1964L9.88284 11.4996L11.941 9.44145L14.366 7.01645C14.4831 6.89924 14.549 6.7403 14.549 6.57457C14.549 6.40884 14.4831 6.2499 14.366 6.1327Z" fill="#0166FF"/>
</svg>
