<svg width="209" height="184" viewBox="0 0 209 184" fill="none" xmlns="http://www.w3.org/2000/svg">
<path d="M32.2686 13.4921C39.7212 6.98808 50.2222 4.1399 59.9399 5.98652C64.7314 6.89682 69.5767 9.11577 72.1525 13.2571C74.2245 16.5885 74.5188 21.0163 72.6978 24.4914C70.8767 27.9665 66.9266 30.2749 63.018 29.9327C59.1094 29.5905 55.544 26.4877 54.8737 22.622C54.2618 19.0917 55.9638 15.4742 58.4843 12.9281C63.3616 8.0015 71.1062 6.57969 77.805 8.36562C84.5038 10.1515 90.1874 14.772 94.3752 20.2967C98.5631 25.8215 101.401 32.2383 103.948 38.6862" stroke="#212121" stroke-width="2.1" stroke-linecap="round" stroke-linejoin="round" stroke-dasharray="8.4 8.4"/>
<path d="M12.3654 25.9026C13.9856 28.9541 16.6449 31.1106 19.6874 32.1518C22.9916 33.2965 26.7441 33.115 30.0716 31.3486C33.3992 29.5891 35.6559 26.5917 36.5681 23.2166C37.4119 20.1156 37.1234 16.7008 35.5102 13.6424C32.1231 7.24999 24.1968 4.81677 17.804 8.1969C11.4185 11.5835 8.97786 19.5033 12.3654 25.9026Z" fill="#4CD964"/>
<path d="M20.4668 29.8832C23.1652 30.8162 26.2271 30.6679 28.9444 29.2287C31.6617 27.7895 33.5049 25.3405 34.2495 22.584C31.5908 21.0734 28.2483 20.9093 25.3511 22.4437C22.4538 23.9781 20.7107 26.8352 20.4668 29.8832Z" fill="white"/>
<path d="M25.8971 15.3295C24.9115 13.4684 22.6018 12.7574 20.7422 13.742C18.8825 14.7266 18.1736 17.0364 19.1592 18.8975C20.1448 20.7586 22.453 21.4675 24.3127 20.4829C26.1723 19.4983 26.8827 17.1906 25.8971 15.3295Z" fill="white"/>
<path d="M93.8018 51.4086C93.8018 63.8439 103.887 73.9293 116.322 73.9293C118.35 73.9293 120.315 73.6592 122.181 73.16C125.956 75.1613 130.265 76.2893 134.835 76.2893C140.938 76.2893 146.574 74.2725 151.112 70.8672C155.052 74.2465 160.168 76.2893 165.762 76.2893C170.181 76.2893 174.309 75.0158 177.787 72.8114C179.996 73.5392 182.356 73.9293 184.81 73.9293C197.245 73.9293 207.331 63.8439 207.331 51.4086C207.331 39.6646 198.332 30.0108 186.853 28.9814C185.304 13.8326 172.494 2 156.935 2C145.934 2 136.306 7.91628 131.066 16.7437C129.772 16.4836 128.43 16.3435 127.058 16.3435C118.059 16.3435 110.443 22.3059 107.958 30.494C99.6605 33.8158 93.8018 41.9314 93.8018 51.4086Z" fill="white"/>
<path d="M93.8018 51.4086C93.8018 63.8439 103.887 73.9293 116.322 73.9293C118.35 73.9293 120.315 73.6592 122.181 73.16C125.956 75.1613 130.265 76.2893 134.835 76.2893C140.938 76.2893 146.574 74.2725 151.112 70.8672C155.052 74.2465 160.168 76.2893 165.762 76.2893C170.181 76.2893 174.309 75.0158 177.787 72.8114C179.996 73.5392 182.356 73.9293 184.81 73.9293C197.245 73.9293 207.331 63.8439 207.331 51.4086C207.331 39.6646 198.332 30.0108 186.853 28.9814C185.304 13.8326 172.494 2 156.935 2C145.934 2 136.306 7.91628 131.066 16.7437C129.772 16.4836 128.43 16.3435 127.058 16.3435C118.059 16.3435 110.443 22.3059 107.958 30.494C99.6605 33.8158 93.8018 41.9314 93.8018 51.4086Z" stroke="#212121" stroke-width="2.1" stroke-linecap="round" stroke-linejoin="round"/>
<path d="M195.13 31.3887C192.039 29.7912 188.53 28.8887 184.811 28.8887C182.635 28.8887 180.531 29.1976 178.541 29.7739" stroke="#212121" stroke-width="2.1" stroke-linecap="round" stroke-linejoin="round"/>
<path d="M134.837 17.9146C132.447 16.9021 129.818 16.3418 127.06 16.3418C116.037 16.3418 107.094 25.2847 107.094 36.3077" stroke="#212121" stroke-width="2.1" stroke-linecap="round" stroke-linejoin="round"/>
<path d="M174.266 50.5688L181.559 43.2754H189.049" stroke="#212121" stroke-width="2.1" stroke-linecap="round" stroke-linejoin="round"/>
<path d="M126.651 50.5688L119.358 43.2754H111.867" stroke="#212121" stroke-width="2.1" stroke-linecap="round" stroke-linejoin="round"/>
<path d="M150.546 41.2059V28.8203" stroke="#212121" stroke-width="2.1" stroke-linecap="round" stroke-linejoin="round"/>
<path d="M192.829 43.2758C192.829 44.317 191.981 45.1653 190.94 45.1653C189.899 45.1653 189.051 44.317 189.051 43.2758C189.051 42.2345 189.899 41.3867 190.94 41.3867C191.981 41.3867 192.829 42.2345 192.829 43.2758Z" fill="#212121"/>
<path d="M192.829 43.2758C192.829 44.317 191.981 45.1653 190.94 45.1653C189.899 45.1653 189.051 44.317 189.051 43.2758C189.051 42.2345 189.899 41.3867 190.94 41.3867C191.981 41.3867 192.829 42.2345 192.829 43.2758Z" stroke="#212121" stroke-width="2.1" stroke-linecap="round" stroke-linejoin="round"/>
<path d="M111.868 43.2758C111.868 44.317 111.02 45.1653 109.979 45.1653C108.938 45.1653 108.09 44.317 108.09 43.2758C108.09 42.2345 108.938 41.3867 109.979 41.3867C111.02 41.3867 111.868 42.2345 111.868 43.2758Z" fill="#212121"/>
<path d="M111.868 43.2758C111.868 44.317 111.02 45.1653 109.979 45.1653C108.938 45.1653 108.09 44.317 108.09 43.2758C108.09 42.2345 108.938 41.3867 109.979 41.3867C111.02 41.3867 111.868 42.2345 111.868 43.2758Z" stroke="#212121" stroke-width="2.1" stroke-linecap="round" stroke-linejoin="round"/>
<path d="M152.435 26.85C152.435 27.8912 151.588 28.7395 150.546 28.7395C149.505 28.7395 148.657 27.8912 148.657 26.85C148.657 25.8087 149.505 24.9609 150.546 24.9609C151.588 24.9609 152.435 25.8087 152.435 26.85Z" fill="#212121"/>
<path d="M152.435 26.85C152.435 27.8912 151.588 28.7395 150.546 28.7395C149.505 28.7395 148.657 27.8912 148.657 26.85C148.657 25.8087 149.505 24.9609 150.546 24.9609C151.588 24.9609 152.435 25.8087 152.435 26.85Z" stroke="#212121" stroke-width="2.1" stroke-linecap="round" stroke-linejoin="round"/>
<path d="M168.389 97.166C172.964 97.928 177.395 100.092 180.376 103.645C183.358 107.199 184.722 112.208 183.407 116.656C182.092 121.104 177.893 124.697 173.255 124.789C171.028 124.834 168.706 124.041 167.282 122.328C165.858 120.615 165.563 117.922 166.912 116.15C168.609 113.922 172.259 113.975 174.425 115.75C176.59 117.525 177.452 120.488 177.474 123.288C177.536 131.201 171.071 138.643 163.227 139.69" stroke="#212121" stroke-width="2.1" stroke-linecap="round" stroke-linejoin="round" stroke-dasharray="8.4 8.4"/>
<path d="M128.418 96.5312L117.119 107.83V118.488" stroke="#212121" stroke-width="2.1" stroke-linecap="round" stroke-linejoin="round"/>
<path d="M114.807 120.798C114.807 122.073 115.844 123.11 117.119 123.11C118.394 123.11 119.43 122.073 119.43 120.798C119.43 119.523 118.394 118.486 117.119 118.486C115.844 118.486 114.807 119.523 114.807 120.798Z" fill="#212121"/>
<path d="M114.807 120.798C114.807 122.073 115.844 123.11 117.119 123.11C118.394 123.11 119.43 122.073 119.43 120.798C119.43 119.523 118.394 118.486 117.119 118.486C115.844 118.486 114.807 119.523 114.807 120.798Z" stroke="#212121" stroke-width="2.1" stroke-linecap="round" stroke-linejoin="round"/>
<path d="M113.603 71.7933V76.7267C113.603 77.8273 114.373 78.77 115.453 78.9904L122.581 80.4145C123.303 83.7582 124.617 86.8819 126.42 89.6685L122.382 95.7367C121.769 96.6521 121.893 97.8694 122.671 98.647L126.166 102.135C126.943 102.913 128.161 103.03 129.069 102.417L135.124 98.3855C137.911 100.181 141.048 101.496 144.392 102.225L145.816 109.36C146.029 110.44 146.978 111.217 148.079 111.217H153.013C154.114 111.217 155.056 110.44 155.269 109.36L156.701 102.225C160.044 101.496 163.175 100.181 165.968 98.3855L172.016 102.417C172.931 103.03 174.149 102.913 174.926 102.135L178.415 98.647C179.192 97.8694 179.316 96.6521 178.711 95.7367L174.672 89.6685C176.468 86.8819 177.782 83.7582 178.511 80.4145L185.639 78.9904C186.712 78.77 187.49 77.8273 187.49 76.7267V71.7933C187.49 70.6927 186.712 69.7427 185.639 69.5296L178.511 68.1056C177.782 64.7619 176.468 61.6381 174.672 58.8447L178.704 52.7902C179.316 51.8748 179.192 50.6574 178.415 49.8799L174.919 46.3916C174.149 45.6209 172.931 45.4968 172.016 46.1023L165.968 50.1341C163.175 48.3454 160.044 47.0176 156.701 46.2953L155.269 39.1671C155.056 38.0871 154.114 37.3164 153.013 37.3164H148.079C146.978 37.3164 146.029 38.0871 145.816 39.1671L144.392 46.2953C141.048 47.0176 137.911 48.3454 135.124 50.1341L129.069 46.1023C128.161 45.4968 126.943 45.6209 126.166 46.3916L122.671 49.8799C121.893 50.6574 121.776 51.8748 122.382 52.7902L126.42 58.8447C124.617 61.6381 123.303 64.7619 122.581 68.1056L115.453 69.5296C114.373 69.7427 113.603 70.6927 113.603 71.7933Z" fill="#FFD600"/>
<path d="M170.16 74.2636C170.16 85.0923 161.375 93.8777 150.546 93.8777C139.718 93.8777 130.933 85.0923 130.933 74.2636C130.933 63.4354 139.718 54.6504 150.546 54.6504C161.375 54.6504 170.16 63.4354 170.16 74.2636Z" stroke="#212121" stroke-width="2.1" stroke-linecap="round" stroke-linejoin="round"/>
<g opacity="0.448645">
<path d="M2.08932 58.3086C1.97023 58.3337 1.97023 58.4925 2.08932 58.5176C3.43857 58.8001 4.64592 59.6401 5.57447 60.8497C6.46789 62.0251 7.09711 63.5428 7.33256 65.2402C7.34944 65.3611 7.5201 65.3611 7.53698 65.2402C8.01563 61.7865 10.1241 59.0734 12.7802 58.5176C12.8993 58.4925 12.8993 58.3337 12.7802 58.3086C11.431 58.0262 10.2236 57.1871 9.29507 55.9774C8.40119 54.802 7.77242 53.2844 7.53698 51.587C7.5201 51.4661 7.34944 51.4656 7.33256 51.5866C7.09711 53.284 6.46743 54.802 5.57447 55.9774C4.64592 57.1871 3.43857 58.0262 2.08932 58.3086Z" fill="white"/>
<path d="M2.08932 58.3086C1.97023 58.3337 1.97023 58.4925 2.08932 58.5176C3.43857 58.8001 4.64592 59.6401 5.57447 60.8497C6.46789 62.0251 7.09711 63.5428 7.33256 65.2402C7.34944 65.3611 7.5201 65.3611 7.53698 65.2402C8.01563 61.7865 10.1241 59.0734 12.7802 58.5176C12.8993 58.4925 12.8993 58.3337 12.7802 58.3086C11.431 58.0262 10.2236 57.1871 9.29507 55.9774C8.40119 54.802 7.77242 53.2844 7.53698 51.587C7.5201 51.4661 7.34944 51.4656 7.33256 51.5866C7.09711 53.284 6.46743 54.802 5.57447 55.9774C4.64592 57.1871 3.43857 58.0262 2.08932 58.3086Z" stroke="#212121" stroke-width="2.1" stroke-linecap="round" stroke-linejoin="round"/>
</g>
<g opacity="0.551355">
<path d="M187.504 142.969C187.371 142.997 187.371 143.174 187.504 143.202C189.008 143.517 190.354 144.453 191.389 145.802C192.385 147.112 193.086 148.804 193.349 150.696C193.367 150.831 193.558 150.831 193.577 150.696C194.111 146.846 196.461 143.822 199.422 143.202C199.554 143.174 199.554 142.997 199.422 142.969C197.918 142.654 196.572 141.718 195.537 140.37C194.54 139.06 193.839 137.368 193.577 135.476C193.558 135.341 193.367 135.341 193.349 135.476C193.086 137.368 192.385 139.06 191.389 140.37C190.354 141.718 189.008 142.654 187.504 142.969Z" fill="#212121"/>
</g>
<g opacity="0.448645">
<path d="M199.746 132.967C199.662 132.984 199.662 133.097 199.746 133.114C200.695 133.313 201.545 133.904 202.198 134.755C202.826 135.582 203.269 136.65 203.435 137.844C203.447 137.929 203.567 137.929 203.579 137.844C203.916 135.414 205.399 133.505 207.268 133.114C207.352 133.097 207.352 132.984 207.268 132.967C206.319 132.768 205.469 132.178 204.816 131.327C204.187 130.499 203.745 129.432 203.579 128.237C203.567 128.153 203.447 128.153 203.435 128.237C203.269 129.432 202.826 130.499 202.198 131.327C201.545 132.178 200.695 132.768 199.746 132.967Z" fill="#212121"/>
</g>
<path d="M122.674 104.092C124.056 99.7304 126.831 97.1241 129.173 93.2611C129.567 92.61 130.147 91.6705 130.145 90.909C130.144 90.3587 129.81 89.8216 129.317 89.5771C128.824 89.3325 128.195 89.3913 127.756 89.7231L117.371 88.2657C117.266 87.057 117.009 85.861 116.603 84.7175C116.312 83.8967 115.747 82.9699 114.877 83.0028C114.403 83.0206 113.984 83.3455 113.732 83.747C113.481 84.1485 113.371 84.6204 113.276 85.0849C112.485 88.9843 114.049 94.7541 111.826 101.216L122.674 104.092Z" fill="white"/>
<path d="M122.674 104.092C124.056 99.731 126.832 97.1247 129.173 93.2617C129.567 92.6106 130.147 91.6711 130.146 90.9096C130.144 90.3593 129.811 89.8222 129.317 89.5776C128.824 89.3331 128.195 89.3919 127.756 89.7237" stroke="#212121" stroke-width="2.1" stroke-linecap="round" stroke-linejoin="round"/>
<path d="M119.48 97.068C120.192 96.0409 120.377 94.6684 119.962 93.4893C119.547 92.3102 118.544 91.3557 117.346 90.9998C117.57 88.8853 117.314 86.7216 116.603 84.7175C116.312 83.8967 115.747 82.9699 114.877 83.0028C114.403 83.0206 113.984 83.3455 113.732 83.747C113.481 84.1486 113.371 84.6204 113.276 85.0849C112.485 88.9843 114.049 94.7541 111.826 101.216" stroke="#212121" stroke-width="2.1" stroke-linecap="round" stroke-linejoin="round"/>
<path d="M125.537 92.3733C127.121 91.3421 127.771 90.5532 128.707 89.1564C128.974 88.7572 129.061 88.253 129.082 87.773C129.103 87.293 128.966 86.7888 128.629 86.4465C128.299 86.1121 127.79 85.9656 127.333 86.0747C126.876 86.1837 126.487 86.5437 126.344 86.9913C124.934 87.3454 123.703 88.3566 123.027 89.6433" fill="white"/>
<path d="M125.537 92.3733C127.121 91.3421 127.771 90.5532 128.707 89.1564C128.974 88.7572 129.061 88.253 129.082 87.773C129.103 87.293 128.966 86.7888 128.629 86.4465C128.299 86.1121 127.79 85.9656 127.333 86.0747C126.876 86.1837 126.487 86.5437 126.344 86.9913C124.934 87.3454 123.703 88.3566 123.027 89.6433" stroke="#212121" stroke-width="2.1" stroke-linecap="round" stroke-linejoin="round"/>
<path d="M123.24 90.7329C124.915 89.1838 125.58 88.8571 126.782 86.9183C126.985 86.5916 127.182 86.2553 127.289 85.8862C127.396 85.517 127.407 85.1064 127.243 84.7587C126.931 84.1012 126.074 83.8566 125.364 84.0195C124.655 84.1824 124.234 84.703 123.622 85.3902C123.223 85.8378 120.544 86.6455 120.642 87.2368" fill="white"/>
<path d="M123.24 90.7329C124.915 89.1838 125.58 88.8571 126.782 86.9183C126.985 86.5916 127.182 86.2553 127.289 85.8862C127.396 85.517 127.407 85.1064 127.243 84.7587C126.931 84.1012 126.074 83.8566 125.364 84.0195C124.655 84.1824 124.234 84.703 123.622 85.3902C123.223 85.8378 120.544 86.6455 120.642 87.2368" stroke="#212121" stroke-width="2.1" stroke-linecap="round" stroke-linejoin="round"/>
<path d="M120.598 89.1291C122.101 87.7393 126.222 82.4641 127.3 80.7247C127.482 80.4313 127.659 80.1297 127.756 79.7984C127.852 79.4672 127.861 79.0989 127.714 78.7868C127.434 78.1968 126.665 77.9778 126.029 78.1238C125.392 78.2698 124.833 78.7672 124.284 79.3837C122.647 81.2207 118.4 86.6852 117.402 88.7134" fill="white"/>
<path d="M120.598 89.1291C122.101 87.7393 126.222 82.4641 127.3 80.7247C127.482 80.4313 127.659 80.1297 127.756 79.7984C127.852 79.4672 127.861 79.0989 127.714 78.7868C127.434 78.1968 126.665 77.9778 126.029 78.1238C125.392 78.2698 124.833 78.7672 124.284 79.3837C122.647 81.2207 118.4 86.6852 117.402 88.7134" stroke="#212121" stroke-width="2.1" stroke-linecap="round" stroke-linejoin="round"/>
<path d="M119.48 97.068C120.192 96.0409 120.377 94.6684 119.962 93.4893C119.547 92.3102 118.544 91.3557 117.346 90.9998C117.57 88.8853 117.314 86.7216 116.603 84.7175C116.312 83.8967 115.747 82.9699 114.877 83.0028C114.403 83.0206 113.984 83.3455 113.732 83.747C113.481 84.1486 113.371 84.6204 113.276 85.0849C112.541 88.706 113.407 95.3934 111.826 101.216" fill="white"/>
<path d="M119.48 97.068C120.192 96.0409 120.377 94.6684 119.962 93.4893C119.547 92.3102 118.544 91.3557 117.346 90.9998C117.57 88.8853 117.314 86.7216 116.603 84.7175C116.312 83.8967 115.747 82.9699 114.877 83.0028C114.403 83.0206 113.984 83.3455 113.732 83.747C113.481 84.1486 113.371 84.6204 113.276 85.0849C112.541 88.706 113.407 95.3934 111.826 101.216" stroke="#212121" stroke-width="2.1" stroke-linecap="round" stroke-linejoin="round"/>
<path d="M99.5497 129.664C99.1253 130.423 98.2862 131.701 97.333 133.006" stroke="#212121" stroke-width="2.1" stroke-linecap="round" stroke-linejoin="round"/>
<path d="M67.1943 94.1836C81.6309 96.8 92.4838 108.413 99.5495 129.663C104.435 121.04 108.328 111.543 111.826 101.215C115.767 100.256 119.389 101.176 122.674 104.09C122.674 104.09 124.369 161.415 100.271 161.415C94.9323 161.415 90.2119 158.14 86.2938 153.779" stroke="#212121" stroke-width="2.1" stroke-linecap="round" stroke-linejoin="round"/>
<path d="M99.5487 129.664C99.1243 130.423 98.2852 131.701 97.332 133.006" stroke="#212121" stroke-width="2.1" stroke-linecap="round" stroke-linejoin="round"/>
<path d="M24.5904 174.744C24.6442 178.66 24.3741 181.19 24.3545 181.998H79.9622C80.669 180.02 81.4224 177.574 82.1748 174.744H24.5904Z" fill="#212121"/>
<path d="M82.2412 114.457C85.9732 122.66 88.3614 131.889 87.5492 142.132C86.1625 159.675 82.7116 174.303 79.9629 182" stroke="#212121" stroke-width="2.1" stroke-linecap="round" stroke-linejoin="round"/>
<path d="M10.4473 182H101.421" stroke="#212121" stroke-width="2.1" stroke-linecap="round" stroke-linejoin="round"/>
<path d="M59.045 111.114C59.1025 111.881 59.7691 112.501 60.5366 112.501C61.3045 112.501 61.8776 111.881 61.8201 111.114C61.7627 110.346 61.0965 109.727 60.3285 109.727C59.5611 109.727 58.9875 110.346 59.045 111.114Z" fill="#212121"/>
<path d="M59.7628 117.8C59.8203 118.567 60.4869 119.187 61.2544 119.187C62.0223 119.187 62.595 118.567 62.5375 117.8C62.48 117.032 61.8142 116.412 61.0463 116.412C60.2788 116.412 59.7053 117.032 59.7628 117.8Z" fill="#212121"/>
<path d="M128.438 130.564L116.306 160.453C115.561 162.286 113.78 163.487 111.8 163.487H67.5897C65.519 163.487 64.1073 161.39 64.8862 159.472L77.019 129.583C77.7636 127.749 79.545 126.549 81.5244 126.549H125.735C127.806 126.549 129.217 128.645 128.438 130.564Z" fill="white"/>
<path d="M128.438 130.564L116.306 160.453C115.561 162.286 113.78 163.487 111.8 163.487H67.5897C65.519 163.487 64.1073 161.39 64.8862 159.472L77.019 129.583C77.7636 127.749 79.545 126.549 81.5244 126.549H125.735C127.806 126.549 129.217 128.645 128.438 130.564Z" stroke="#212121" stroke-width="2.1" stroke-linecap="round" stroke-linejoin="round"/>
<path d="M84.5779 126.545C82.6012 126.545 80.8162 127.744 80.0716 129.578L67.9433 159.469C67.1604 161.386 68.573 163.483 70.6428 163.483H67.5874C65.5177 163.483 64.105 161.386 64.888 159.469L77.0162 129.578C77.7609 127.744 79.5459 126.545 81.5226 126.545H84.5779Z" fill="#212121"/>
<path d="M84.5779 126.545C82.6012 126.545 80.8162 127.744 80.0716 129.578L67.9433 159.469C67.1604 161.386 68.573 163.483 70.6428 163.483H67.5874C65.5177 163.483 64.105 161.386 64.888 159.469L77.0162 129.578C77.7609 127.744 79.5459 126.545 81.5226 126.545H84.5779Z" stroke="#212121" stroke-width="2.1" stroke-linecap="round" stroke-linejoin="round"/>
<path d="M104.739 145.016C103.764 147.742 100.754 149.949 98.0283 149.949C95.3028 149.949 93.8856 147.742 94.8607 145.016C95.8358 142.291 98.8327 140.084 101.558 140.084C104.284 140.084 105.714 142.291 104.739 145.016Z" fill="white"/>
<path d="M104.739 145.016C103.764 147.742 100.754 149.949 98.0283 149.949C95.3028 149.949 93.8856 147.742 94.8607 145.016C95.8358 142.291 98.8327 140.084 101.558 140.084C104.284 140.084 105.714 142.291 104.739 145.016Z" stroke="#212121" stroke-width="2.1" stroke-linecap="round" stroke-linejoin="round"/>
<path d="M101.446 145.016C101.121 145.924 100.117 146.66 99.2084 146.66C98.3 146.66 97.8272 145.924 98.1526 145.016C98.4779 144.107 99.4767 143.371 100.385 143.371C101.294 143.371 101.771 144.107 101.446 145.016Z" fill="#212121"/>
<path d="M81.0429 150.399C80.5309 153.515 73.4858 154.675 68.3876 154.537C68.0377 154.531 67.7014 154.513 67.3797 154.492C67.0594 154.468 66.7495 154.439 66.4543 154.407L66.453 154.411L66.4452 154.408C65.9022 154.347 64.4019 154.457 62.961 154.583C62.7146 154.603 62.4741 154.63 62.2304 154.664C61.8499 154.72 61.4643 154.778 61.0824 154.869C60.8803 154.898 60.6832 154.948 60.487 155.006C60.1105 155.095 59.7455 155.197 59.3782 155.316C58.6791 155.542 57.9952 155.818 57.3299 156.143L54.7432 145.007C56.5825 144.899 58.3839 144.471 60.0767 143.746C63.7517 142.175 70.5427 139.427 73.5811 139.224L73.583 139.22C76.2345 139.035 83.9942 141.155 83.0099 143.769C82.8804 144.098 82.6768 144.321 82.4095 144.464C82.5313 144.709 82.6006 144.963 82.5733 145.238C82.5272 145.81 82.2092 146.156 81.7054 146.411C82.0832 146.729 82.2917 147.125 82.2584 147.591C82.2005 148.4 81.5128 148.851 80.5779 149.084L80.5797 149.089C80.6582 149.175 80.7385 149.257 80.8042 149.342C80.8772 149.43 80.9247 149.516 80.9639 149.612C81.0452 149.796 81.0894 149.995 81.0698 150.221C81.068 150.277 81.0552 150.338 81.0429 150.399Z" fill="white"/>
<path d="M82.4045 144.475C82.5381 144.711 82.5997 144.972 82.5737 145.257C82.3196 148.05 75.0381 145.998 75.0381 145.998" stroke="#212121" stroke-width="2.1" stroke-linecap="round" stroke-linejoin="round"/>
<path d="M81.7048 146.416C82.0858 146.737 82.2966 147.126 82.2651 147.591C82.0862 150.236 75.1748 149.046 75.1748 149.046" stroke="#212121" stroke-width="2.1" stroke-linecap="round" stroke-linejoin="round"/>
<path d="M54.8096 145.029C56.6028 144.904 58.3613 144.483 60.0136 143.775C63.6735 142.206 70.521 139.43 73.58 139.226C76.2292 139.042 84.0017 141.155 83.0097 143.782C82.8884 144.106 82.6744 144.331 82.4047 144.472C80.5074 145.49 75.5206 143.101 75.5206 143.101" stroke="#212121" stroke-width="2.1" stroke-linecap="round" stroke-linejoin="round"/>
<path d="M57.3281 156.145C57.9952 155.822 58.6806 155.542 59.3778 155.318C59.7437 155.199 60.1106 155.095 60.4848 155.008C60.6823 154.947 60.8813 154.902 61.0811 154.871C61.4612 154.787 61.8422 154.717 62.2305 154.665C62.4746 154.631 62.716 154.603 62.961 154.584C64.4006 154.457 65.9041 154.349 66.4453 154.411L66.4512 154.414C66.7469 154.445 67.0576 154.474 67.3793 154.495C67.701 154.515 68.0377 154.534 68.3882 154.538C73.4786 154.696 80.5282 153.522 81.0439 150.4C81.0548 150.339 81.0653 150.28 81.0676 150.223C81.0913 149.996 81.0457 149.797 80.9654 149.612C80.9239 149.523 80.87 149.429 80.8052 149.344C80.7404 149.259 80.6606 149.176 80.5807 149.092" stroke="#212121" stroke-width="2.1" stroke-linecap="round" stroke-linejoin="round"/>
<path d="M64.291 142.018C68.8407 140.442 72.0963 138.804 74.1816 136.738C74.1816 136.738 74.0602 139.163 76.0638 139.445C76.5064 141.633 69.9194 141.488 64.291 142.018Z" fill="white"/>
<path d="M64.291 142.018C68.8407 140.442 72.0963 138.804 74.1816 136.738C74.1816 136.738 73.9758 139.151 76.0638 139.445" stroke="#212121" stroke-width="2.1" stroke-linecap="round" stroke-linejoin="round"/>
<path d="M46.4921 92.1651C46.4921 92.1651 45.5954 92.0629 44.0851 92.015C37.9307 91.7983 21.5421 92.3522 14.0037 103.572C4.46172 117.771 -3.6119 149.056 7.07307 159.741C10.2557 162.923 16.4704 163.741 23.6177 163.326" stroke="#212121" stroke-width="2.1" stroke-linecap="round" stroke-linejoin="round"/>
<path d="M26.2406 142.412C26.2406 142.412 24.3452 145.002 22.4502 146.383" stroke="#212121" stroke-width="2.1" stroke-linecap="round" stroke-linejoin="round"/>
<path d="M22.4502 163.383C39.4274 162.709 62.5372 154.478 62.5372 154.478C64.46 149.919 64.5554 146.164 62.6764 142.668L26.2406 142.414C26.2406 142.414 31.1859 136.927 33.2073 120.033" stroke="#212121" stroke-width="2.1" stroke-linecap="round" stroke-linejoin="round"/>
<path d="M51.0239 54.7956C48.9369 52.6333 46.5336 50.6448 43.7383 49.8663C40.9431 49.0879 37.6957 49.786 36.1196 52.1834C34.921 54.0063 33.9189 57.1104 33.9189 60.643C33.9189 67.8803 36.1662 72.6887 40.0456 77.3488C41.9447 79.6302 44.9397 81.5681 47.6049 82.6381C50.2701 83.7081 54.1358 83.1957 55.7173 80.8677C57.2706 78.5817 56.7814 75.3785 56.305 72.5134C55.8287 69.6484 55.5312 66.3727 57.3281 64.297C58.8927 62.4896 61.8472 61.8668 62.3692 59.4498C62.7451 57.7086 61.5122 55.8456 59.959 54.9622C58.4058 54.0788 56.6117 53.9433 54.8842 53.8274L51.0239 54.7956Z" fill="#212121"/>
<path d="M51.0239 54.7956C48.9369 52.6333 46.5336 50.6448 43.7383 49.8663C40.9431 49.0879 37.6957 49.786 36.1196 52.1834C34.921 54.0063 33.9189 57.1104 33.9189 60.643C33.9189 67.8803 36.1662 72.6887 40.0456 77.3488C41.9447 79.6302 44.9397 81.5681 47.6049 82.6381C50.2701 83.7081 54.1358 83.1957 55.7173 80.8677C57.2706 78.5817 56.7814 75.3785 56.305 72.5134C55.8287 69.6484 55.5312 66.3727 57.3281 64.297C58.8927 62.4896 61.8472 61.8668 62.3692 59.4498C62.7451 57.7086 61.5122 55.8456 59.959 54.9622C58.4058 54.0788 56.6117 53.9433 54.8842 53.8274L51.0239 54.7956Z" stroke="#212121" stroke-width="2.1" stroke-linecap="round" stroke-linejoin="round"/>
<path d="M42.9268 92.1076L44.02 93.4322C44.0675 93.4902 44.12 93.5586 44.1829 93.6426C44.2459 93.7266 44.3194 93.821 44.3983 93.9209C45.0604 94.7879 46.1746 96.2544 47.846 97.9098C50.2425 100.285 53.7742 103.06 58.7404 105.047C59.2209 105.24 59.7557 105.249 60.243 105.073H60.2435C62.9922 104.069 64.6371 102.22 65.7618 100.716C66.256 100.059 66.7182 99.3654 67.1704 98.6928C67.3808 98.3775 67.5961 98.0568 67.817 97.7364C68.0533 97.3897 68.3006 97.0429 68.558 96.6961C68.8208 96.3438 69.0937 95.992 69.383 95.6503L70.066 94.8353C69.3145 94.6305 68.5475 94.4466 67.7695 94.2942L67.7431 94.2887C67.5592 94.2517 67.3753 94.2152 67.1914 94.1838L67.2019 94.2362L46.4899 92.1606C46.4899 92.1606 45.5965 92.0606 44.083 92.0132C43.7572 92.0027 43.4054 91.9922 43.0217 91.9922L42.9268 92.1076Z" fill="#212121"/>
<path d="M45.6387 92.0941C46.7105 93.3923 50.7259 99.5778 59.5236 103.099C61.5838 102.347 62.9024 101.028 64.0797 99.4568C65.2569 97.8854 66.2868 96.062 67.7743 94.2962C64.7522 92.1886 62.8924 90.0394 61.8411 86.6337C61.3734 85.1097 61.1425 83.5172 61.179 81.9247L49.5591 74.0469C49.701 77.8624 49.4067 83.3228 48.5498 86.5287C47.3516 91.0223 45.6597 92.0677 45.6387 92.0941Z" fill="white"/>
<path d="M45.6387 92.0941C46.7105 93.3923 50.7259 99.5778 59.5236 103.099C61.5838 102.347 62.9024 101.028 64.0797 99.4568C65.2569 97.8854 66.2868 96.062 67.7743 94.2962C64.7522 92.1886 62.8924 90.0394 61.8411 86.6337C61.3734 85.1097 61.1425 83.5172 61.179 81.9247L49.5591 74.0469C49.701 77.8624 49.4067 83.3228 48.5498 86.5287C47.3516 91.0223 45.6597 92.0677 45.6387 92.0941Z" stroke="#212121" stroke-width="2.1" stroke-linecap="round" stroke-linejoin="round"/>
<path d="M45.6554 72.3065C45.9428 70.7647 46.0884 68.8578 46.8061 67.4483C47.9715 65.1596 50.3237 63.7173 51.4462 61.3299C51.912 60.3389 51.8108 59.3857 51.3964 58.6141C56.4417 56.1068 63.2723 54.9451 70.5337 56.156C73.7862 62.384 75.6793 69.3178 76.043 76.3346C76.1671 78.732 76.0854 81.2544 74.9082 83.346C73.0119 86.7143 68.6374 88.0704 64.8233 87.4417C61.0091 86.8129 57.6604 84.5867 54.6169 82.2039C50.0983 80.105 47.0425 77.7633 45.1973 75.3646C45.31 74.3438 45.4647 73.3281 45.6554 72.3065Z" fill="white"/>
<path d="M51.3587 63.9454C53.413 62.0504 56.2671 61.052 59.0545 61.2537C60.6507 61.3692 62.4247 61.814 63.7288 60.8869C64.7878 60.134 65.1793 58.6761 66.263 57.9584C67.9463 56.8437 70.4039 58.0286 72.1483 57.0129C73.4241 56.2701 73.8411 54.5344 73.4647 53.1066C73.0882 51.6789 72.0935 50.5035 71.0673 49.4417C69.4758 47.7954 67.5242 46.2048 65.2346 46.1724C63.1379 46.1427 61.2187 47.4705 59.9443 49.1355C58.6699 50.8005 57.912 52.7909 57.0605 54.7068C56.2091 56.6228 55.2057 58.547 53.5909 59.8844C52.4817 60.8029 51.1447 61.3929 49.8393 62.0002C48.5338 62.6075 47.2161 63.26 46.1903 64.2707C45.233 65.2134 44.5048 66.5818 44.6517 67.9607C44.7722 69.0896 48.1086 71.1917 48.1086 71.1917C48.1086 71.1917 48.4216 68.5977 48.8396 67.5843C49.4067 66.2099 50.265 64.9542 51.3587 63.9454Z" fill="#212121"/>
<path d="M51.3587 63.9454C53.413 62.0504 56.2671 61.052 59.0545 61.2537C60.6506 61.3692 62.4247 61.814 63.7288 60.8869C64.7878 60.134 65.1793 58.6761 66.263 57.9584C67.9463 56.8437 70.4039 58.0286 72.1483 57.0129C73.4241 56.2701 73.8411 54.5344 73.4647 53.1066C73.0882 51.6789 72.0935 50.5035 71.0673 49.4417C69.4758 47.7954 67.5242 46.2048 65.2345 46.1724C63.1379 46.1427 61.2187 47.4705 59.9443 49.1355C58.6699 50.8005 57.912 52.7909 57.0605 54.7068C56.2091 56.6228 55.2057 58.547 53.5909 59.8844C52.4817 60.8029 51.1447 61.3929 49.8393 62.0002C48.5338 62.6075 47.2161 63.26 46.1903 64.2707C45.233 65.2134 44.5048 66.5818 44.6517 67.9607C44.7722 69.0896 48.1086 71.1917 48.1086 71.1917C48.1086 71.1917 48.4216 68.5977 48.8396 67.5843C49.4067 66.2099 50.265 64.9542 51.3587 63.9454Z" stroke="#212121" stroke-width="2.1" stroke-linecap="round" stroke-linejoin="round"/>
<path d="M70.534 56.1582C73.7864 62.3861 75.6796 69.3199 76.0432 76.3368C76.1674 78.7341 76.0857 81.2561 74.9085 83.3477C73.0121 86.716 68.6376 88.0721 64.8235 87.4434C61.0094 86.8146 57.6606 84.5893 54.6172 82.2061" stroke="#212121" stroke-width="2.1" stroke-linecap="round" stroke-linejoin="round"/>
<path d="M67.0952 67.166C66.7703 68.8931 67.248 70.7538 68.3641 72.1108C69.065 72.9632 70.0578 73.7544 70.0729 74.8577C70.0811 75.4719 69.7549 76.0619 69.2831 76.4552C68.8113 76.8485 68.2085 77.0598 67.6003 77.1447" stroke="#212121" stroke-width="2.1" stroke-linecap="round" stroke-linejoin="round"/>
<path d="M63.8916 76.9512C64.3639 78.3721 65.9143 79.3485 67.3996 79.1601" stroke="#212121" stroke-width="2.1" stroke-linecap="round" stroke-linejoin="round"/>
<path d="M69.3896 65.9618C70.7467 65.4133 72.6467 65.1993 74.2943 65.6839" stroke="#212121" stroke-width="2.1" stroke-linecap="round" stroke-linejoin="round"/>
<path d="M58.999 67.3145C60.309 66.662 62.1862 66.3002 63.8667 66.6542" stroke="#212121" stroke-width="2.1" stroke-linecap="round" stroke-linejoin="round"/>
<path d="M48.1085 71.1927C47.2735 69.8393 46.1296 68.6648 44.6658 68.1314C43.202 67.598 41.3805 67.9051 40.3954 69.1599C39.5248 70.2687 39.4691 71.8999 40.0039 73.2072C40.5387 74.5145 41.5795 75.5338 42.7202 76.3191C44.9998 77.8883 47.4154 78.7726 50.0656 79.4995" fill="white"/>
<path d="M48.1085 71.1927C47.2735 69.8393 46.1296 68.6648 44.6658 68.1314C43.202 67.598 41.3805 67.9051 40.3954 69.1599C39.5248 70.2687 39.4691 71.8999 40.0039 73.2072C40.5387 74.5145 41.5795 75.5338 42.7202 76.3191C44.9998 77.8883 47.4154 78.7726 50.0656 79.4995" stroke="#212121" stroke-width="2.1" stroke-linecap="round" stroke-linejoin="round"/>
<path d="M43.4482 71.2285C43.5495 71.5548 43.6531 71.8865 43.8457 72.1689C44.0382 72.4514 44.3357 72.6818 44.6761 72.7101C45.0371 72.7398 45.4053 72.5435 45.7525 72.6458C46.0865 72.7443 46.2937 73.113 46.2759 73.4607C46.2581 73.8084 46.0537 74.1255 45.7918 74.3546C45.5298 74.5836 45.2123 74.7383 44.8993 74.8903" stroke="#212121" stroke-width="2.1" stroke-linecap="round" stroke-linejoin="round"/>
<path d="M76.2655 53.7914C77.5582 50.8574 76.8446 47.2198 74.9268 44.6897C73.009 42.1596 70.0577 40.6547 67.0302 40.0465C64.0027 39.4382 60.8799 39.6532 57.8222 40.0611C53.9091 40.5831 47.9832 42.1974 44.8622 44.7262C41.7412 47.255 41.7019 51.0974 43.1557 54.9421C44.2499 57.8359 47.0369 59.7596 49.9471 60.3761C52.8573 60.9925 55.8816 60.4746 58.743 59.6456C62.2118 58.6408 64.9116 57.5521 68.5122 57.9176C71.5662 58.2274 74.9172 56.8522 76.2655 53.7914Z" fill="#212121"/>
<path d="M76.2655 53.7914C77.5582 50.8574 76.8446 47.2198 74.9268 44.6897C73.009 42.1596 70.0577 40.6547 67.0302 40.0465C64.0027 39.4382 60.8799 39.6532 57.8222 40.0611C53.9091 40.5831 47.9832 42.1974 44.8622 44.7262C41.7412 47.255 41.7019 51.0974 43.1557 54.9421C44.2499 57.8359 47.0369 59.7596 49.9471 60.3761C52.8573 60.9925 55.8816 60.4746 58.743 59.6456C62.2118 58.6408 64.9116 57.5521 68.5122 57.9176C71.5662 58.2274 74.9172 56.8522 76.2655 53.7914Z" stroke="#212121" stroke-width="2.1" stroke-linecap="round" stroke-linejoin="round"/>
<path d="M40.9813 44.3242C40.7418 46.1444 41.1953 48.0471 42.2302 49.5634C41.262 48.3341 39.8183 47.6374 38.2568 47.5351" stroke="#212121" stroke-width="2.1" stroke-linecap="round" stroke-linejoin="round"/>
<path d="M72.8684 67.7701C72.8684 68.1005 72.57 68.3747 72.2018 68.3747C71.8267 68.3747 71.5283 68.1005 71.5283 67.7701C71.5283 67.4339 71.8267 67.166 72.2018 67.166C72.57 67.166 72.8684 67.4339 72.8684 67.7701Z" fill="#212121"/>
<path d="M72.8684 67.7701C72.8684 68.1005 72.57 68.3747 72.2018 68.3747C71.8267 68.3747 71.5283 68.1005 71.5283 67.7701C71.5283 67.4339 71.8267 67.166 72.2018 67.166C72.57 67.166 72.8684 67.4339 72.8684 67.7701Z" stroke="#212121" stroke-width="2.1" stroke-linecap="round" stroke-linejoin="round"/>
<path d="M62.6093 68.846C62.6353 69.1755 62.3587 69.4716 61.9919 69.5003C61.6182 69.5295 61.2992 69.2799 61.2732 68.9505C61.2468 68.6151 61.5237 68.3245 61.8974 68.2953C62.2643 68.2665 62.5828 68.5106 62.6093 68.846Z" fill="#212121"/>
<path d="M62.6093 68.846C62.6353 69.1755 62.3587 69.4716 61.9919 69.5003C61.6182 69.5295 61.2992 69.2799 61.2732 68.9505C61.2468 68.6151 61.5237 68.3245 61.8974 68.2953C62.2643 68.2665 62.5828 68.5106 62.6093 68.846Z" stroke="#212121" stroke-width="2.1" stroke-linecap="round" stroke-linejoin="round"/>
<path d="M153.734 157.182C150.317 157.876 146.939 157.231 144.142 155.608C140.873 153.713 138.402 150.481 137.591 146.49C136.78 142.498 137.794 138.558 140.063 135.537C142.005 132.951 144.863 131.039 148.28 130.345C151.698 129.65 155.078 130.295 157.875 131.917C161.143 133.813 163.614 137.045 164.426 141.036C165.237 145.027 164.223 148.968 161.954 151.989C160.012 154.575 157.152 156.487 153.734 157.182Z" fill="#0166FF"/>
<path d="M153.073 153.926C150.484 154.453 147.926 153.964 145.808 152.735C143.332 151.299 141.46 148.851 140.845 145.827C140.231 142.804 140.999 139.82 142.718 137.532C144.189 135.574 146.353 134.125 148.942 133.599C151.531 133.073 154.091 133.561 156.209 134.79C158.685 136.226 160.557 138.674 161.171 141.697C161.785 144.72 161.018 147.705 159.299 149.993C157.828 151.951 155.661 153.4 153.073 153.926Z" stroke="white" stroke-width="2.1" stroke-linecap="round" stroke-linejoin="round"/>
<path d="M152.157 149.417C146.545 150.557 141.479 148.95 140.845 145.827C140.21 142.704 144.246 139.247 149.858 138.107C155.471 136.966 160.536 138.574 161.171 141.697C161.805 144.82 157.769 148.276 152.157 149.417Z" stroke="white" stroke-width="2.1" stroke-linecap="round" stroke-linejoin="round"/>
<path d="M145.808 152.736C143.332 151.3 141.46 148.851 140.845 145.828C140.231 142.805 140.999 139.821 142.718 137.533C144.264 139.159 145.551 141.724 146.165 144.748C146.779 147.771 146.596 150.635 145.808 152.736Z" stroke="white" stroke-width="2.1" stroke-linecap="round" stroke-linejoin="round"/>
<path d="M159.299 149.992C157.753 148.366 156.465 145.8 155.851 142.777C155.237 139.754 155.42 136.89 156.209 134.789C158.685 136.225 160.557 138.673 161.171 141.696C161.785 144.719 161.018 147.704 159.299 149.992Z" stroke="white" stroke-width="2.1" stroke-linecap="round" stroke-linejoin="round"/>
<path d="M161.171 141.697L140.845 145.828" stroke="white" stroke-width="2.1" stroke-linecap="round" stroke-linejoin="round"/>
<path d="M153.074 153.926L148.943 133.6" stroke="white" stroke-width="2.1" stroke-linecap="round" stroke-linejoin="round"/>
<path d="M156.556 68.2916C155.916 68.2637 155.298 68.375 154.702 68.6228C154.106 68.8718 153.568 69.2024 153.088 69.6139C153.19 68.9216 153.109 68.1939 152.847 67.4304C152.585 66.667 152.014 66.0064 151.135 65.448C149.985 64.718 148.799 64.5339 147.577 64.8919C146.354 65.2507 145.246 66.2097 144.256 67.7703L144.134 67.9616L142.294 66.7937C141.759 66.4543 141.051 66.6126 140.711 67.1473C140.372 67.682 140.53 68.3909 141.065 68.7303L142.905 69.8984L141.689 71.8137L139.849 70.6458C139.315 70.3064 138.605 70.4648 138.266 70.9995C137.926 71.5342 138.085 72.2433 138.62 72.5827L140.46 73.7506L139.568 75.1553C139.229 75.6901 139.387 76.3989 139.922 76.7383C140.457 77.0777 141.165 76.9194 141.505 76.3847L142.397 74.9798L153.379 81.9507L151.988 84.1421C151.649 84.6769 151.807 85.3857 152.342 85.7251C152.877 86.0645 153.586 85.9062 153.925 85.3715L155.316 83.1804L157.156 84.3482C157.691 84.6876 158.4 84.529 158.739 83.9943C159.078 83.4596 158.92 82.7507 158.386 82.4113L156.545 81.2432L157.761 79.3279L159.601 80.4958C160.136 80.8352 160.845 80.677 161.184 80.1422C161.523 79.6075 161.365 78.8983 160.831 78.5589L158.991 77.3914L159.193 77.0719C160.031 75.7521 160.531 74.5822 160.691 73.5593C160.853 72.5372 160.732 71.6444 160.331 70.8817C159.929 70.1185 159.317 69.4767 158.494 68.9543C157.841 68.54 157.194 68.3193 156.556 68.2916ZM147.998 67.1899C148.738 66.9025 149.442 66.9712 150.108 67.3942C150.563 67.6826 150.911 68.0434 151.154 68.4756C151.397 68.9086 151.467 69.4409 151.364 70.0728C151.262 70.7047 150.927 71.4677 150.36 72.361L148.118 75.8942L143.499 72.9626L145.971 69.0681C146.583 68.103 147.259 67.4774 147.998 67.1899ZM158.28 71.9248C158.505 72.3857 158.547 72.9553 158.406 73.6317C158.265 74.3081 157.884 75.1365 157.263 76.1151L154.736 80.0954L149.862 77.0014L152.401 73.0006C153.176 71.7797 153.963 70.9718 154.764 70.5735C155.564 70.1752 156.382 70.2423 157.219 70.7736C157.702 71.0801 158.056 71.4638 158.28 71.9248Z" fill="white"/>
</svg>
