<svg width="24" height="24" viewBox="0 0 24 24" fill="none" xmlns="http://www.w3.org/2000/svg">
<g clip-path="url(#clip0_2435_7524)">
<path d="M11.9998 0.674805C5.7373 0.674805 0.674805 5.7373 0.674805 11.9998C0.674805 18.2623 5.7373 23.3623 11.9998 23.3623C18.2623 23.3623 23.3623 18.2623 23.3623 11.9998C23.3623 5.7373 18.2623 0.674805 11.9998 0.674805ZM11.9998 21.6748C6.67481 21.6748 2.3623 17.3248 2.3623 11.9998C2.3623 6.67481 6.67481 2.3623 11.9998 2.3623C17.3248 2.3623 21.6748 6.7123 21.6748 12.0373C21.6748 17.3248 17.3248 21.6748 11.9998 21.6748Z" fill="#09B96D"/>
<path d="M15.2246 8.51251L10.7621 12.8625L8.73712 10.875C8.39962 10.5375 7.87462 10.575 7.53712 10.875C7.19962 11.2125 7.23712 11.7375 7.53712 12.075L9.93712 14.4C10.1621 14.625 10.4621 14.7375 10.7621 14.7375C11.0621 14.7375 11.3621 14.625 11.5871 14.4L16.4246 9.75001C16.7621 9.41251 16.7621 8.88751 16.4246 8.55001C16.0871 8.21251 15.5621 8.21251 15.2246 8.51251Z" fill="#09B96D"/>
</g>
<defs>
<clipPath id="clip0_2435_7524">
<rect width="24" height="24" fill="white"/>
</clipPath>
</defs>
</svg>
