<svg width="20" height="20" viewBox="0 0 20 20" fill="none" xmlns="http://www.w3.org/2000/svg">
<path fill-rule="evenodd" clip-rule="evenodd" d="M0.00012207 10C0.00012207 4.481 4.48012 0 10.0001 0C15.5301 0 20.0001 4.481 20.0001 10C20.0001 15.521 15.5301 20 10.0001 20C4.48012 20 0.00012207 15.521 0.00012207 10ZM13.6505 8.53033C13.9433 8.23744 13.9433 7.76256 13.6505 7.46967C13.3576 7.17678 12.8827 7.17678 12.5898 7.46967L8.37401 11.6855L6.53034 9.84256C6.23739 9.54973 5.76251 9.54983 5.46968 9.84278C5.17685 10.1357 5.17695 10.6106 5.4699 10.9034L7.8439 13.2764C8.13682 13.5692 8.6116 13.5692 8.90445 13.2763L13.6505 8.53033Z" fill="#4CD964"/>
</svg>
