<svg width="20" height="20" viewBox="0 0 20 20" fill="none" xmlns="http://www.w3.org/2000/svg">
<path fill-rule="evenodd" clip-rule="evenodd" d="M17.6753 6.58185V13.3743C17.6753 15.891 16.1003 17.666 13.5837 17.666H6.37533C3.85866 17.666 2.29199 15.891 2.29199 13.3743V6.58185C2.29199 4.06518 3.86699 2.29102 6.37533 2.29102H13.5837C16.1003 2.29102 17.6753 4.06518 17.6753 6.58185Z" stroke="#091229" stroke-linecap="round" stroke-linejoin="round"/>
<path d="M4.40137 13.6919L5.6747 12.3478C6.1172 11.8786 6.8547 11.8561 7.3247 12.2978C7.33887 12.3119 8.10553 13.0911 8.10553 13.0911C8.56803 13.5619 9.32387 13.5694 9.7947 13.1078C9.82553 13.0778 11.7397 10.7561 11.7397 10.7561C12.233 10.1569 13.1189 10.0711 13.7189 10.5653C13.7589 10.5986 15.5672 12.4544 15.5672 12.4544" stroke="#091229" stroke-width="1.5" stroke-linecap="round" stroke-linejoin="round"/>
<path fill-rule="evenodd" clip-rule="evenodd" d="M8.59423 7.6101C8.59423 8.4176 7.94006 9.07177 7.13257 9.07177C6.32507 9.07177 5.6709 8.4176 5.6709 7.6101C5.6709 6.8026 6.32507 6.14844 7.13257 6.14844C7.94006 6.14927 8.59423 6.8026 8.59423 7.6101Z" stroke="#091229" stroke-width="1.5" stroke-linecap="round" stroke-linejoin="round"/>
</svg>
