<svg width="111" height="120" viewBox="0 0 111 120" fill="none" xmlns="http://www.w3.org/2000/svg">
<path d="M4.75749 87.8572C4.87224 89.2924 5.75862 90.6257 7.02262 91.3846C5.52063 91.7925 4.22567 93.0068 3.84622 94.4942C3.27736 96.6895 4.59479 99.2515 6.78403 100.203C8.0535 100.752 9.5567 100.779 10.9385 100.295C9.97449 103.021 12.4353 105.293 15.4208 105.451C16.7425 105.513 18.0575 105.221 19.2765 104.86C18.7542 106.024 19.3272 107.715 20.1581 108.732C24.5498 114.07 33.0537 114.115 40.563 115.097C50.1825 116.336 54.4637 120 68.4719 120C88.9643 120 109.95 111.419 110.144 90.8418C110.16 80.8669 104.143 72.3048 94.4829 70.8762C92.6475 69.3817 90.6589 68.0111 89.1847 66.2245C84.0776 60.0022 85.9421 50.3366 81.6759 47.6699C78.9215 45.9184 74.0215 47.3031 71.8511 52.1188C68.7422 58.9728 72.7677 65.3532 71.3557 75.3057C66.784 76.9446 62.1131 78.6664 57.2423 79.954C57.524 79.4116 58.0002 78.4644 57.8482 77.8864C59.6428 75.0977 58.3564 71.4062 56.6326 68.5741C58.2309 67.71 58.8106 66.8516 59.6815 65.8117C60.2134 65.1742 60.8745 64.3825 60.9771 63.7354C60.9863 63.6798 60.9695 63.6284 60.9682 63.5755C63.3282 61.1921 62.7788 57.3308 61.6736 54.1533C62.4523 53.7778 63.8495 53.234 64.1997 52.5133C66.6888 51.613 67.9511 49.0205 68.5363 46.418C70.6355 37.0704 65.4765 24.5576 60.0871 16.355C58.6446 14.1621 56.8597 11.6984 54.5569 10.0543C51.9662 8.20508 48.4934 7.32697 46.1836 9.21676C43.3576 9.47061 40.596 10.9505 38.7824 13.1956C35.9885 16.6221 36.3394 21.4098 37.0509 25.6402C37.3527 27.4762 37.7086 29.163 38.113 30.7521C37.1589 30.317 36.2529 29.959 35.3911 29.7176C31.9328 28.7209 27.5594 29.1163 26.1035 32.2456C23.676 33.6686 21.8189 36.18 21.1282 38.993C20.1566 42.965 22.1783 46.8634 24.1855 49.8981C21.2181 50.0559 18.0346 51.3983 17.3521 54.2805C15.2718 56.1421 13.9612 58.9785 13.8453 61.897C13.6977 66.173 16.7578 69.7689 19.5828 72.4776C16.866 73.4645 14.3929 75.444 14.4622 78.2952C13.8342 79.2656 13.3805 80.3532 13.0991 81.4916C9.15648 81.912 4.4149 83.8868 4.75749 87.8572ZM5.37675 87.8062C5.07361 84.2867 9.49278 82.5472 12.9517 82.1361C12.5751 84.1722 12.7563 86.3409 13.5708 88.1925C11.3578 88.718 9.44613 89.701 8.04439 91.081C8.02162 91.1033 8.02428 91.1357 8.00986 91.1623C6.58664 90.6244 5.49301 89.2568 5.37675 87.8062ZM28.0297 91.4894C25.3102 97.9619 25.7989 96.6839 25.7484 96.929C24.5593 96.3764 23.3395 95.7662 22.0632 95.0697C18.4102 93.0772 14.552 90.4921 13.6383 86.4317C13.0861 84.0376 13.4474 81.4355 14.5912 79.3005C15.7629 84.6306 23.0823 89.2111 28.0297 91.4894ZM59.1405 91.8819C59.0585 92.5875 58.8659 93.2615 58.7745 93.7244C58.1733 96.541 56.5762 98.7607 53.2571 100.193L54.6565 95.7133C54.7783 95.3219 54.1867 95.135 54.0627 95.5287C52.4637 100.767 52.5355 100.206 52.5859 100.45C49.1587 101.72 43.877 102.245 38.2481 101.154C34.9897 100.539 29.2069 98.5025 26.2693 97.1748C26.3914 97.0201 26.0158 97.7864 28.5991 91.7382C34.3212 94.282 41.1851 96.029 47.495 96.029C51.5037 96.0278 57.0238 95.2615 59.1405 91.8819ZM7.03112 99.6328C5.11144 98.7974 3.95247 96.562 4.44847 94.6484C4.84917 93.0784 6.44648 91.8617 8.10207 91.8605C8.46451 91.9722 8.84517 92.0342 9.23433 92.0475C9.62617 92.0342 9.65085 91.5577 9.35514 91.4465C9.16542 91.3744 8.96659 91.3245 8.75972 91.2901C10.0816 90.0915 11.8211 89.22 13.8437 88.7616C14.8864 90.7532 16.6168 92.3381 18.5489 93.6673C15.0329 94.3901 12.8894 96.462 12.1394 98.7323C11.858 98.9101 11.604 99.1419 11.3975 99.4276C9.98836 100.132 8.36191 100.208 7.03112 99.6328ZM71.4895 75.9187C71.3596 78.0878 71.092 80.2514 70.669 82.3798C70.589 82.7845 71.1986 82.9076 71.2786 82.5013C71.8947 79.4038 72.2051 76.2335 72.2052 73.0779C72.8119 64.5623 69.659 58.4536 72.4175 52.375C74.4586 47.8441 78.9589 46.673 81.3445 48.1957C85.2357 50.6288 83.5441 60.3317 88.7045 66.6192C90.2443 68.4844 92.269 69.8708 94.1563 71.4117C94.4098 71.6229 96.1877 71.5484 98.9859 72.8348C107.927 76.9213 111.207 87.6851 108.748 97.0429C103.288 118.185 74.8162 120.592 60.52 118.92C53.7812 118.117 47.4114 115.353 40.6432 114.48C36.8059 113.979 32.8904 113.678 29.1906 112.906C20.3783 111.043 18.2959 105.524 20.4574 104.488C20.7327 104.357 20.6866 103.914 20.315 103.918C21.7723 102.182 23.8242 100.975 26.061 100.574C33.1209 99.3098 42.5204 105.656 51.267 106.057C51.6486 107.757 51.108 108.367 51.6592 108.43C51.6707 108.431 51.6817 108.431 51.6932 108.431C51.8498 108.431 51.9846 108.313 52.0016 108.154C52.1432 106.849 51.8095 105.65 51.8298 105.774C51.7052 105.39 51.5768 104.728 51.0284 103.836C50.8125 103.483 50.2841 103.813 50.499 104.162C50.7418 104.557 50.9203 104.983 51.0686 105.42C42.5569 104.935 33.1228 98.665 25.9511 99.9619C21.4611 100.767 19.4499 104.076 19.3255 104.193C18.092 104.569 16.7664 104.901 15.453 104.83C12.0862 104.654 10.4855 101.925 11.8182 99.9121C11.8914 99.8749 11.9562 99.8257 12.0275 99.7856C12.232 99.9983 12.508 99.8582 12.5473 99.6364C12.56 99.5652 12.586 99.4964 12.6017 99.4256C12.8082 99.2745 13.0071 99.1137 13.1909 98.9358C13.3955 98.7362 13.2503 98.3788 12.9401 98.4123C13.8391 96.3988 15.947 94.6476 19.2813 94.1541C21.7694 95.7509 26.0548 97.9631 29.8694 99.2916C32.7357 100.294 35.2979 101.23 38.1316 101.765C44.9167 103.081 54.8796 102.648 58.3781 96.63C59.0724 95.4351 59.2723 94.301 59.4964 93.3431C59.6623 92.6321 59.9716 91.4046 59.6538 90.7818C60.6876 87.6315 58.4466 84.3286 56.0603 82.025C56.4866 81.4186 56.6441 81.085 56.8413 80.7103C61.8122 79.4366 66.6619 77.654 71.4895 75.9187ZM55.396 81.8978C54.8624 82.7465 53.6112 83.9027 52.0156 84.6019C47.096 86.7577 39.4261 84.7889 34.4956 82.4539C31.2188 80.8777 25.8588 77.1562 23.3943 75.0807L26.7598 70.569C26.8555 70.4411 26.8277 70.2683 26.7131 70.162C33.5934 75.9722 45.9637 82.3518 53.9313 80.4258L52.8582 82.6761C52.7589 82.8829 52.9125 83.1205 53.1387 83.1205C53.4989 83.1205 53.4306 82.7737 54.5855 80.4978C54.8106 80.5728 55.0682 80.3737 54.9593 80.0956C55.8042 79.7774 56.5128 79.3515 57.0779 78.8174C56.8871 79.3091 56.043 81.0343 55.396 81.8978ZM49.2186 86.4977C49.2484 86.5961 49.2277 86.7017 49.1646 86.7806C48.347 87.752 48.3076 88.0357 47.9953 87.9427C47.3568 87.7552 45.8765 87.1997 45.5029 86.8947C44.2657 87.9041 42.2286 87.251 40.7263 86.7114C40.5349 86.6416 40.4635 86.4157 40.5709 86.2488C40.7095 86.0377 40.6989 85.9605 40.9364 85.3803C41.625 85.5405 42.2906 85.6724 42.9318 85.7716C42.464 85.8971 41.8862 85.7173 41.5119 85.5567C41.4292 85.7549 41.3644 86.0182 41.2709 86.2452C42.6123 86.7119 44.6573 87.3021 45.3666 86.0709C45.6067 86.0895 45.8257 86.0886 46.0575 86.0997C46.015 86.2132 45.972 86.3265 45.9101 86.4281C46.5762 86.7753 47.2672 87.066 47.9704 87.2858L48.4002 86.7442L46.4887 86.1176C46.7149 86.1239 47.1577 86.1824 48.3894 86.0867C48.8701 86.2753 49.1433 86.2467 49.2186 86.4977ZM23.927 77.8269C24.0114 77.7128 24.1626 77.6715 24.2913 77.7225C24.4196 77.7733 27.0039 78.7966 26.8451 78.7337C26.9278 78.6987 27.0283 78.6829 27.1181 78.6554C28.0645 79.2976 27.7376 79.0757 27.8083 79.1239C24.2225 79.5096 26.6199 84.9694 36.3706 83.9381C36.7615 84.0936 37.1524 84.2434 37.5434 84.3828C35.2358 84.8229 32.1915 84.8664 29.7109 84.1312C27.8554 83.5846 25.6913 82.3567 25.6713 80.4572C23.0391 79.3454 23.0992 79.4767 23.0339 79.2512C23.0072 79.1589 23.0248 79.0594 23.0819 78.9817L23.927 77.8269ZM29.8779 81.8642C30.5106 82.1806 32.1512 82.2707 32.8594 82.3013C33.2511 82.5146 33.6468 82.725 34.0572 82.9258C33.01 82.9439 31.9509 82.9044 30.879 82.7579C28.21 82.394 28.3426 80.6465 29.7469 80.42C30.1142 80.661 30.4805 80.9034 30.8527 81.1359C30.529 81.055 30.1814 80.9876 29.8767 81.0228C29.6077 81.0568 29.3867 81.1964 29.3843 81.3348C29.3813 81.4733 29.5658 81.7088 29.8779 81.8642ZM58.8717 65.819C55.5424 70.0738 50.4912 69.6833 45.4327 67.8577C39.3683 65.6647 35.6588 62.2811 31.6555 58.1608C31.451 57.9236 27.6239 54.2867 24.142 48.6773C24.3739 48.6203 23.9228 48.9111 28.5465 44.6817C28.5832 44.6477 28.588 44.5995 28.6045 44.5556C32.2053 50.9346 38.1465 56.8536 43.9644 60.654C43.4731 60.9486 43.3662 61.1821 40.849 64.5113C40.5996 64.8379 41.0986 65.2146 41.3444 64.8852C44.4862 60.7259 43.8862 61.4348 44.5827 61.045C48.5532 63.5406 52.4293 65.0367 55.5839 65.2339C55.2298 65.7994 55.4272 65.8791 54.0961 67.8395C53.863 68.1856 54.386 68.5209 54.611 68.1891C56.1349 65.9356 55.8624 65.7647 56.2198 65.3989C56.2563 65.361 56.2598 65.3106 56.2736 65.2635C56.4302 65.2379 58.2887 65.397 60.0417 64.3126C59.6614 64.9014 59.1792 65.4269 58.8717 65.819ZM48.7141 70.833C48.8952 70.952 48.9042 71.2133 48.7305 71.343C47.7692 71.9906 47.6068 72.3513 47.3032 72.1662C46.7235 71.8158 45.4408 70.9032 45.1614 70.516C43.7034 71.1778 41.8804 70.0048 40.591 69.1161C40.5126 69.0614 40.4635 68.9752 40.4574 68.8805C40.4426 68.6489 40.569 68.7159 40.9303 68.1495C41.1628 67.7846 41.506 67.2537 41.8258 67.5424C42.7151 68.3451 43.6209 68.3985 42.9348 67.4922C43.2101 67.6199 43.4838 67.7503 43.7716 67.8718C43.9054 68.644 43.0373 69.2803 41.6455 68.2017C41.5175 68.3686 41.3895 68.6021 41.2369 68.804C42.3073 69.5253 43.4954 70.2101 44.5117 70.0704C45.2024 69.9791 45.6708 69.4817 45.6495 68.5832C45.8585 68.6553 46.0591 68.7183 46.2618 68.7837C46.2525 68.9316 46.2582 69.0832 46.2214 69.2238C46.5351 69.4263 48.856 70.9246 48.7141 70.833ZM25.3968 57.3769C25.3918 57.1105 25.5949 57.1088 26.6244 56.2282C26.7349 56.1396 26.8909 56.1348 27.0038 56.2197C27.1326 56.3148 29.3524 57.9536 29.2141 57.8515C29.6317 57.7923 30.114 57.8555 30.6142 57.9818C32.0825 59.4871 31.5752 58.9671 31.685 59.0799C31.4215 58.9312 31.3209 58.8487 30.9367 58.7053L30.9349 58.7041C26.1209 56.8701 26.8343 64.8096 39.2871 65.5144C39.7037 65.7781 40.1229 66.0282 40.5443 66.2682C39.3008 66.0503 34.5959 66.2331 30.6028 63.8038C28.9546 62.8014 27.1702 61.0608 27.6378 59.2166C25.3945 57.4838 25.4027 57.6107 25.3968 57.3769ZM31.3447 61.6546C32.1718 62.3781 35.0485 63.1483 36.3124 63.385C36.4838 63.521 36.6435 63.6624 36.8202 63.7961C37.0019 63.9353 37.1876 64.0632 37.3708 64.198C35.5158 63.9656 31.9886 63.0462 30.9343 62.1209C29.702 61.0406 30.6064 59.4624 32.7526 60.6359L33.0185 60.4258C33.1666 60.5729 33.3157 60.7194 33.465 60.8648C33.1124 61.0956 32.915 61.4432 32.6263 61.2782C31.0622 60.3728 30.6033 61.0025 31.3447 61.6546ZM54.1957 10.5595C56.4153 12.1453 58.1571 14.5519 59.5674 16.6974C64.8091 24.6732 70.0006 37.0659 67.9291 46.2821C66.9982 50.4254 64.5423 53.2061 60.4999 51.8566C55.912 50.3218 50.7188 43.9337 47.2698 35.5823C45.1054 30.3429 43.9034 25.2468 43.6963 20.436C43.4899 15.6592 44.2901 12.206 46.075 10.1746C48.1264 7.83927 51.6736 8.76053 54.1957 10.5595ZM39.265 13.5878C40.812 11.6729 43.0867 10.3524 45.4763 9.93801C44.0257 11.6926 43.226 14.3463 43.0796 17.8388C42.8857 17.8495 39.1804 18.657 37.7436 18.9595C37.3397 19.0444 37.4736 19.6555 37.8735 19.5666L43.0536 18.4607C42.9852 22.0581 43.5281 25.6987 44.4654 29.233C44.3585 29.268 44.2646 29.2817 44.1832 29.3047L40.5315 30.366C40.1344 30.4832 40.3126 31.0778 40.7051 30.9634L44.3192 29.913C44.4314 29.9067 44.5298 29.877 44.6231 29.843C46.0017 34.7766 48.3045 40.0745 51.3383 44.4651C50.61 44.7605 48.9359 45.6378 47.4003 46.3938C47.0348 46.5758 47.3063 47.1309 47.6784 46.9499L51.2737 45.1516C51.4471 45.1317 51.5883 45.0544 51.7098 44.983C53.8345 47.9479 56.9888 51.4048 60.472 52.489L57.5482 53.9511C57.1818 54.1336 57.4556 54.69 57.8262 54.5072C61.2781 52.7411 61.1748 52.9157 61.2736 52.6945C62.071 52.85 62.5136 52.8389 63.0095 52.7879C62.4175 53.148 61.6927 53.4508 61.3414 53.6221C55.5504 56.4736 50.1878 52.2977 46.1679 47.2559C42.7977 42.976 41.4399 39.1737 39.7398 34.0803C38.8741 31.5608 38.1947 28.7668 37.6641 25.5382C36.975 21.4438 36.6271 16.8225 39.265 13.5878ZM53.5516 55.0857C53.5346 55.1852 53.469 55.2714 53.3767 55.3139C52.137 55.8812 52.1499 55.9125 52.0241 55.9125C51.947 55.9125 51.8711 55.8846 51.8128 55.83C51.2999 55.354 50.2733 54.2444 50.0518 53.7903C48.503 54.1387 46.9322 52.6085 45.8576 51.4843C45.7921 51.415 45.7611 51.3203 45.7745 51.2268C45.8069 50.997 45.9165 51.0874 46.3858 50.6064C46.6886 50.296 47.1292 49.8457 47.3851 50.1935C47.8083 50.7715 48.3134 51.12 48.5526 51.0131C48.5745 51.0034 48.5945 50.9913 48.6073 50.9403C48.614 50.9139 48.5968 50.8629 48.5964 50.8284C48.7593 50.983 48.9349 51.1387 49.1086 51.2957C49.0343 51.4172 48.9393 51.5218 48.8058 51.5814C48.138 51.8837 47.4404 51.2317 47.0755 50.8031C46.9012 50.9536 46.7408 51.1468 46.5534 51.3094C47.4543 52.2322 48.4767 53.1405 49.5039 53.2145C49.9544 53.2412 50.326 53.0907 50.5992 52.7653C50.6378 52.7192 50.6578 52.6571 50.6896 52.6051C51.1908 52.979 51.7291 53.3266 52.2889 53.6503C53.3814 54.7892 53.6005 54.8056 53.5516 55.0857ZM33.3548 36.9123C33.4039 36.6484 33.6115 36.6859 34.7894 36.0369C34.9151 35.9689 35.0681 35.9968 35.1628 36.1048C35.2753 36.2303 37.1142 38.2809 36.9972 38.1504C38.777 38.2619 40.1486 39.8315 41.2812 41.1633C41.3432 41.2362 41.3681 41.3333 41.3492 41.4268C41.2975 41.6837 41.0817 41.6545 39.9911 42.2428C39.6146 42.4251 39.4547 41.8202 38.6877 41.5531C38.4321 41.4645 38.1716 41.4887 38.1079 41.6102C38.0441 41.7328 38.103 42.0266 38.3131 42.3047C39.1563 43.4214 42.695 45.0379 44.1587 45.5134C44.3436 45.7942 44.5281 46.0756 44.7189 46.3465C44.3959 46.2453 44.0731 46.1451 43.7528 46.0372C41.967 45.4327 38.6648 43.8041 37.8171 42.6787C36.8354 41.3788 38.0259 39.9958 39.8983 41.5932L40.5509 41.2653C40.0002 40.623 39.4235 39.9843 38.7526 39.4974C34.5652 36.511 32.9625 43.3493 43.5039 47.1725C44.1598 47.411 44.448 47.4361 45.8683 47.8652C46.1277 48.185 46.3905 48.5009 46.6593 48.8079C45.4956 48.2806 44.413 48.1646 43.2914 47.7578C41.6133 47.1483 39.1509 46.1234 37.1517 44.2596C35.7411 42.945 34.3451 40.8794 35.1771 39.1674C33.3091 36.9874 33.3123 37.149 33.3548 36.9123ZM29.9957 30.0697C32.8099 29.3831 35.7169 30.2682 38.3179 31.5216C38.7537 33.1242 38.9905 33.8156 39.5123 35.3523C38.6751 34.9764 37.8236 34.6663 36.9595 34.5043C34.9451 34.1313 32.1352 34.467 31.4762 36.7921C30.8296 39.1296 31.9736 41.9769 33.1299 44.1404C38.5021 54.1993 52.6446 62.9545 56.2316 57.6434C56.7001 56.9406 56.8776 56.075 56.8753 55.1687C58.4469 55.2968 59.7784 54.9974 61.1047 54.413C62.113 57.3464 62.6916 61.183 60.3962 63.2906C60.3937 63.2947 60.3884 63.2958 60.3861 63.2999C59.6211 63.9979 58.6023 64.4278 57.343 64.5805C52.531 65.1706 45.1073 61.6275 38.4242 55.5721C34.2127 51.7619 30.9343 47.6748 28.6801 43.4225C25.9096 38.179 24.2362 31.5096 29.9957 30.0697ZM21.7317 39.1412C22.321 36.7404 23.8114 34.576 25.7828 33.1914C24.8726 36.7654 26.6069 40.9211 28.3812 44.159C28.2905 44.1448 28.1975 44.1586 28.124 44.2252C27.9993 44.3408 23.5654 48.4572 23.8476 48.1954C22.2493 45.5096 20.9533 42.3236 21.7317 39.1412ZM24.5384 50.4942H24.5847C25.2471 51.4842 26.3418 52.9952 27.4433 54.3876C25.612 54.6519 23.6837 55.6105 23.5435 57.6434C23.3694 60.0679 25.0605 62.6168 26.6395 64.4943C34.4686 73.9135 49.7255 78.6027 51.9917 73.0487C52.4018 72.0573 52.2879 70.9007 51.9426 69.7856C53.4804 69.7627 54.8378 69.4516 56.079 68.8572C58.7459 73.2209 59.2651 78.013 54.5005 79.6199C49.9204 81.1644 41.9236 79.2022 34.1325 74.6209C29.2501 71.7602 25.2159 68.4247 22.1415 64.7067C19.0902 61.024 17.6452 57.7893 17.848 55.0913C18.0655 51.9981 21.5673 50.5472 24.5384 50.4942ZM14.506 61.4896C14.5292 61.495 14.5512 61.5085 14.5745 61.5085C14.6801 61.5085 14.7833 61.4538 14.8416 61.3567C16.3062 58.8914 17.0594 58.7125 16.6295 58.3503C16.4972 58.241 16.3017 58.2556 16.1912 58.3879C15.6198 59.067 15.1032 59.7981 14.625 60.5509C14.9737 58.5585 15.8899 56.6874 17.2275 55.2726C16.995 60.5872 22.6185 66.6957 26.675 70.129C26.5399 70.0455 26.3592 70.0679 26.2619 70.1975L22.9215 74.6756C18.7339 71.0698 14.0746 66.7251 14.506 61.4896ZM20.0775 72.9496C21.4349 74.2196 22.5829 75.2314 23.6697 76.1157C19.0364 78.5745 21.7386 82.7616 26.0552 85.8181C35.4619 92.4988 51.9249 93.8838 52.7501 87.5962C52.8613 86.7846 52.6536 85.9554 52.2729 85.1663C53.7353 84.5247 54.9796 83.5101 55.6976 82.5415C59.3208 86.0778 61.044 90.533 56.8639 93.297C49.6343 98.0791 31.8966 94.4184 21.7596 87.17C17.8717 84.3906 15.6466 81.6319 15.1452 78.9727C14.5981 76.0212 17.2363 73.8799 20.0775 72.9496ZM0.278842 37.6052C-0.139787 37.6469 -0.0600435 38.273 0.338338 38.2244C6.31248 37.6542 10.7478 39.4569 10.9482 39.4569C11.2974 39.4569 11.3809 38.9653 11.0478 38.851C7.61273 37.6914 3.88993 37.2628 0.278842 37.6052ZM10.5002 28.1973C10.896 30.5226 11.5274 32.8151 12.3767 35.0128C12.5253 35.3964 13.1055 35.1733 12.9571 34.7894C12.1223 32.6293 11.5019 30.3769 11.1133 28.0929C11.0434 27.6849 10.4319 27.7934 10.5002 28.1973ZM10.1954 44.7157C10.5828 44.573 10.3624 43.9876 9.98046 44.1329C6.8581 45.2852 4.53711 48.0415 2.67146 50.255C2.50155 50.4567 2.64582 50.7662 2.90945 50.7662C2.99809 50.7662 6.05688 46.2431 10.1954 44.7157Z" fill="white"/>
<path d="M16.6769 90.5182L19.0058 86.34C19.2061 85.9801 18.6624 85.6756 18.4631 86.0365L16.1342 90.2146C16.0504 90.3652 16.1044 90.5546 16.2544 90.6384C16.4019 90.7206 16.5934 90.6691 16.6769 90.5182ZM26.2001 79.1391L24.2871 78.3873L23.8208 79.0236C24.472 79.2836 25.1207 79.5514 25.7684 79.8234C25.8546 79.566 25.9975 79.3335 26.2001 79.1391ZM45.6743 70.1685C46.2309 70.6753 46.8247 71.1329 47.4477 71.5245L48.0008 71.1116L45.9746 69.7979C45.8888 69.9367 45.7881 70.0595 45.6743 70.1685ZM28.4864 58.0783L26.829 56.8615L26.2159 57.3581C26.7788 57.7762 27.3373 58.2009 27.8938 58.6289C28.043 58.4024 28.2408 58.2143 28.4864 58.0783ZM50.6228 53.5454C51.0643 54.1531 51.5532 54.7202 52.0842 55.2308L52.7096 54.9381L50.9929 53.2431C50.8807 53.362 50.7566 53.4616 50.6228 53.5454ZM36.239 38.2253L34.8617 36.698L34.1605 37.0598C34.627 37.5823 35.0886 38.1114 35.5468 38.6437C35.7389 38.4523 35.9708 38.3084 36.239 38.2253ZM36.1688 55.1502C35.1295 56.3583 34.1277 57.6175 33.1903 58.8924C33.0382 59.1001 33.1907 59.3878 33.4411 59.3878C33.8119 59.3878 33.7023 58.972 36.6399 55.5557C36.9074 55.2463 36.4397 54.8368 36.1688 55.1502ZM37.431 83.0082C37.1429 83.3021 37.5859 83.737 37.8742 83.4429C39.1564 82.1376 40.3725 80.7485 41.4889 79.3133C41.5946 79.1785 41.5703 78.983 41.4343 78.8774C40.9508 78.4985 40.9861 79.3848 37.431 83.0082ZM56.5556 31.1514C57.6624 32.0791 58.8068 33.0383 59.1643 34.6969C59.5821 36.6351 57.7471 37.2822 57.1372 34.9956C56.9428 35.0481 56.6906 35.1612 56.4475 35.23C56.8646 36.4491 57.3977 37.7082 58.2938 38.2158C59.2818 38.7781 60.284 37.9681 60.5109 36.8437C60.7459 35.6817 60.3585 34.1299 59.5013 32.7918C57.8709 30.2475 55.4361 29.4332 52.7897 24.8969C52.5857 24.5472 52.3605 24.1368 52.267 23.6815C51.9372 22.076 53.6069 21.356 54.6134 23.5953L55.3438 23.5807C55.1083 22.7124 54.8144 21.7301 54.3311 20.9592C52.4762 17.9875 49.8153 20.162 51.5652 24.5958C52.5452 27.0776 54.5138 29.435 56.5556 31.1514ZM52.7549 18.9822L52.168 17.0117L51.38 17.0372C51.5762 17.7108 51.7656 18.3873 51.9509 19.0658C52.2058 18.9758 52.4765 18.9448 52.7549 18.9822ZM59.162 38.9977C59.2996 39.7359 59.497 40.4588 59.7569 41.1469L60.4472 41.1518L59.6262 38.8835C59.4737 38.9426 59.3188 38.9793 59.162 38.9977Z" fill="white"/>
<path d="M49.9563 33.6943C54.6592 45.0828 62.9335 49.6186 64.7544 41.2668C66.1714 34.7643 62.5221 25.9976 58.8108 20.3168C57.7209 18.6484 56.522 17.0315 55.0028 15.9293C53.3463 14.7273 50.6623 13.8244 49.073 15.6494C47.4793 17.4794 47.2874 20.5376 47.4042 22.9842C47.5818 26.7119 48.5841 30.3714 49.9563 33.6943ZM51.393 19.3792C50.6516 16.651 50.5785 16.7484 50.7163 16.5587C50.8728 16.3434 51.0401 16.4649 52.3871 16.3838C52.5358 16.4057 52.6554 16.47 52.6955 16.606C52.7326 16.7315 53.5215 19.4048 53.4731 19.241C55.032 20.1076 55.6036 22.1373 56.0468 23.804C56.0976 23.9971 55.957 24.1898 55.7529 24.195C54.5998 24.1621 54.265 24.3643 54.1246 24.0322C53.4293 22.3829 52.6757 22.5826 52.8764 23.5587C52.9505 23.9205 53.1478 24.2775 53.3263 24.5847C55.8851 28.9684 58.3464 29.8379 60.0245 32.4578C61.2281 34.3343 61.8565 37.2444 60.1683 38.5741C60.1702 38.5788 60.1764 38.5798 60.1781 38.5848C61.1495 41.4047 61.3119 41.4099 61.1453 41.647C61.087 41.7296 60.9923 41.7782 60.8915 41.7782H60.8891C59.7888 41.7168 59.3874 41.9076 59.2541 41.5718C59.0025 40.9378 58.5354 39.4321 58.5426 38.9665C56.9883 38.6134 56.243 36.5989 55.7444 35.089C55.6809 34.8971 55.8146 34.7 56.0128 34.6822C56.5616 34.6332 57.5664 33.9804 57.6787 34.579C57.8122 35.2809 58.114 35.8163 58.3811 35.8224C58.616 35.7843 58.6263 35.1537 58.5566 34.8292C58.1286 32.8433 56.3167 31.9262 55.028 30.6219C53.7737 29.3494 51.9894 27.3629 50.9871 24.8251C50.2804 23.038 49.903 20.5636 51.393 19.3792ZM45.8303 96.7313L44.5784 101.263C44.4691 101.659 45.0688 101.824 45.1783 101.428L46.4301 96.8964C46.5396 96.4995 45.9399 96.3361 45.8303 96.7313ZM73.4417 16.03C76.3935 21.2342 77.0534 27.5446 77.6356 33.1118C77.678 33.5232 78.2974 33.4575 78.2536 33.0462C77.6654 27.4183 76.9981 21.0399 73.982 15.724C73.7807 15.3674 73.2373 15.671 73.4417 16.03ZM82.7384 25.8082C82.4227 23.2158 81.8787 20.6344 81.121 18.1379C81.0035 17.748 80.4058 17.9217 80.5261 18.3176C81.2734 20.7801 81.8101 23.3263 82.1215 25.8835C82.1699 26.2891 82.7881 26.2177 82.7384 25.8082ZM68.8859 5.73459C68.5756 5.82796 68.5963 6.2751 68.9139 6.33806C70.6963 6.6914 72.0727 7.8777 72.7884 9.68083C72.9045 9.97247 73.3528 9.9267 73.3864 9.59827C73.5364 8.17155 74.2455 7.21352 75.5538 6.66955C75.7768 6.57719 75.8122 6.27952 75.6236 6.1365C74.1836 5.03641 73.1327 3.22114 72.8182 1.39009C72.8261 1.00639 72.7921 0.622693 72.715 0.247497C72.6373 -0.123388 72.0979 -0.0573476 72.0994 0.311851C72.1012 0.682191 72.1346 1.05617 72.1959 1.43016C72.134 3.49329 70.7528 5.18382 68.8859 5.73459ZM72.5759 2.87994C73.0495 4.19374 73.8503 5.41646 74.8599 6.31135C73.9049 6.82497 73.2681 7.58872 72.9572 8.59289C72.2554 7.34952 71.2178 6.4522 69.9393 5.9823C71.1537 5.36332 72.1362 4.28617 72.5759 2.87994ZM20.5308 15.3877C20.2205 15.4811 20.2412 15.9282 20.5587 15.9912C22.3406 16.3445 23.7163 17.5308 24.4327 19.3339C24.552 19.6338 24.9977 19.5734 25.0307 19.2514C25.1807 17.8259 25.8898 16.8678 27.1981 16.3239C27.4211 16.2315 27.4564 15.9338 27.2679 15.7908C25.8285 14.6895 24.7775 12.8743 24.4631 11.042C24.4703 10.6595 24.4363 10.2758 24.3586 9.90061C24.2803 9.51941 23.7409 9.60317 23.7436 9.96618C23.7461 10.3353 23.7788 10.7093 23.8402 11.0833C23.8165 11.8725 23.5925 12.6569 23.1857 13.3344C22.5962 14.3168 21.6285 15.0647 20.5308 15.3877ZM24.2202 12.5331C24.6944 13.8468 25.4945 15.0708 26.5042 15.9657C25.5498 16.4781 24.9129 17.2418 24.6015 18.246C23.8997 17.0038 22.8621 16.1065 21.5841 15.6354C22.8041 15.0149 23.7868 13.9259 24.2202 12.5331Z" fill="#FFD600"/>
</svg>
