<svg width="127" height="122" viewBox="0 0 127 122" fill="none" xmlns="http://www.w3.org/2000/svg">
<path d="M94.6901 11.0488H103.868C108.144 11.0488 111.621 14.5257 111.621 18.815V113.235C111.621 117.525 108.144 121.001 103.868 121.001H45.2288C40.9394 121.001 37.4626 117.525 37.4626 113.235V105.735" stroke="white" stroke-linecap="round" stroke-linejoin="round"/>
<path d="M100.161 8.7611V103.186C100.161 107.472 96.6864 110.947 92.4 110.947H33.7609C29.4749 110.947 26 107.472 26 103.186V8.7611C26 4.47486 29.4747 1 33.7609 1H92.4001C96.6864 1 100.161 4.47469 100.161 8.7611Z" stroke="white" stroke-linecap="round" stroke-linejoin="round"/>
<path d="M49.3098 79.0998L36 56.0506L49.3103 33H75.9252L89.2312 56.0499L75.9257 79.0998H49.3098Z" fill="#FFD600" stroke="white" stroke-linecap="round" stroke-linejoin="round"/>
<path d="M89.696 11.8789V14.562" stroke="white" stroke-linecap="round" stroke-linejoin="round"/>
<path d="M36.4647 97.3828V100.066" stroke="white" stroke-linecap="round" stroke-linejoin="round"/>
<path d="M17.6529 100.169C12.7493 101.746 7.65286 102.624 2.50564 102.778C1.94769 102.793 2.00212 103.633 2.53006 103.6C7.75334 103.444 12.9267 102.554 17.9064 100.953C18.4243 100.786 18.1701 99.9993 17.6529 100.169ZM13.5628 109.674L17.7402 105.643C18.1331 105.261 17.5553 104.674 17.1684 105.05L12.991 109.081C12.5982 109.463 13.1743 110.051 13.5628 109.674ZM20.685 109.214C19.3659 111.392 18.3299 113.735 17.6085 116.184C17.4547 116.707 18.2444 116.944 18.3974 116.416C19.1002 114.037 20.1073 111.758 21.3885 109.641C21.6715 109.175 20.9659 108.747 20.685 109.214Z" fill="white"/>
<path d="M120 27.4226V51.5774C120 52.1406 120.869 52.1411 120.869 51.5774V27.4226C120.869 26.8594 120 26.8589 120 27.4226ZM126.131 31.2556V38.6737C126.131 39.2369 127 39.2374 127 38.6737V31.2556C127 30.6924 126.131 30.6919 126.131 31.2556Z" fill="white"/>
<path d="M35.4226 17L59.5774 17C60.1406 17 60.1411 16.1309 59.5774 16.1309L35.4226 16.1309C34.8594 16.1309 34.8589 17 35.4226 17ZM39.2556 10.8691L46.6737 10.8691C47.2369 10.8691 47.2374 10 46.6737 10L39.2556 10C38.6924 10 38.6919 10.8691 39.2556 10.8691Z" fill="white"/>
<path d="M51.9906 63.6109L51.968 63.6335C51.662 62.9649 51.4693 62.2055 51.39 61.3669C51.4693 62.1942 51.6846 62.9422 51.9906 63.6109ZM59.2666 53.8302C59.982 53.8302 60.6681 53.546 61.1739 53.0402C61.6798 52.5343 61.964 51.8483 61.964 51.1329C61.964 50.4175 61.6798 49.7314 61.1739 49.2256C60.6681 48.7197 59.982 48.4355 59.2666 48.4355C58.5512 48.4355 57.8652 48.7197 57.3593 49.2256C56.8535 49.7314 56.5693 50.4175 56.5693 51.1329C56.5693 51.8483 56.8535 52.5343 57.3593 53.0402C57.8652 53.546 58.5512 53.8302 59.2666 53.8302Z" fill="black"/>
<path d="M67.4153 44.332H57.918C53.7926 44.332 51.3333 46.7914 51.3333 50.9167V60.414C51.3333 61.6494 51.5486 62.726 51.968 63.6327C52.9426 65.786 55.028 66.9987 57.918 66.9987H67.4153C71.5406 66.9987 74 64.5394 74 60.414V50.9167C74 46.7914 71.5406 44.332 67.4153 44.332ZM72.1526 56.232C71.2687 55.4727 69.8406 55.4727 68.9566 56.232L64.242 60.278C63.358 61.0374 61.93 61.0374 61.046 60.278L60.6606 59.9607C59.856 59.258 58.5753 59.19 57.6686 59.802L53.43 62.6467C53.1806 62.012 53.0333 61.2754 53.0333 60.414V50.9167C53.0333 47.7207 54.722 46.032 57.918 46.032H67.4153C70.6113 46.032 72.3 47.7207 72.3 50.9167V56.3567L72.1526 56.232Z" fill="black"/>
</svg>
