<svg width="60" height="65" viewBox="0 0 60 65" fill="none" xmlns="http://www.w3.org/2000/svg">
<rect width="60" height="65" rx="15" fill="#FF423E" fill-opacity="0.1"/>
<rect x="0.5" y="0.5" width="59" height="64" rx="14.5" stroke="#FF423E" stroke-opacity="0.5"/>
<path d="M37.3248 29.4683C37.3248 29.4683 36.7818 36.2033 36.4668 39.0403C36.3168 40.3953 35.4798 41.1893 34.1088 41.2143C31.4998 41.2613 28.8878 41.2643 26.2798 41.2093C24.9608 41.1823 24.1378 40.3783 23.9908 39.0473C23.6738 36.1853 23.1338 29.4683 23.1338 29.4683" stroke="#FF423E" stroke-width="1.5" stroke-linecap="round" stroke-linejoin="round"/>
<path d="M38.708 26.2397H21.75" stroke="#FF423E" stroke-width="1.5" stroke-linecap="round" stroke-linejoin="round"/>
<path d="M35.4406 26.2397C34.6556 26.2397 33.9796 25.6847 33.8256 24.9157L33.5826 23.6997C33.4326 23.1387 32.9246 22.7507 32.3456 22.7507H28.1126C27.5336 22.7507 27.0256 23.1387 26.8756 23.6997L26.6326 24.9157C26.4786 25.6847 25.8026 26.2397 25.0176 26.2397" stroke="#FF423E" stroke-width="1.5" stroke-linecap="round" stroke-linejoin="round"/>
</svg>
