<svg width="60" height="65" viewBox="0 0 60 65" fill="none" xmlns="http://www.w3.org/2000/svg">
<rect x="0.5" y="0.5" width="59" height="64" rx="14.5" fill="#4CD964" fill-opacity="0.1" stroke="#4CD964"/>
<path d="M25.4882 30.1026L22.2166 33.3743C21.3743 34.2295 20.9018 35.3813 20.9009 36.5816C20.8999 37.7819 21.3707 38.9345 22.2116 39.791C22.6321 40.2138 23.132 40.5493 23.6826 40.7782C24.2332 41.0072 24.8236 41.125 25.4199 41.125C26.0162 41.125 26.6066 41.0072 27.1572 40.7782C27.7078 40.5493 28.2077 40.2138 28.6282 39.791L30.2866 38.1326C30.3662 38.0558 30.4296 37.9638 30.4733 37.8622C30.517 37.7605 30.54 37.6511 30.5409 37.5405C30.5419 37.4298 30.5208 37.3201 30.4789 37.2177C30.437 37.1153 30.3751 37.0222 30.2969 36.944C30.2187 36.8657 30.1256 36.8039 30.0232 36.762C29.9208 36.7201 29.8111 36.699 29.7004 36.6999C29.5898 36.7009 29.4804 36.7239 29.3787 36.7676C29.2771 36.8112 29.1851 36.8747 29.1082 36.9543L27.4449 38.6126C26.9049 39.1402 26.1787 39.4335 25.4238 39.4289C24.6689 39.4244 23.9462 39.1223 23.4126 38.5883C22.879 38.0543 22.5776 37.3314 22.5736 36.5765C22.5697 35.8216 22.8636 35.0955 23.3916 34.556L26.6691 31.281C27.0235 30.9227 27.4675 30.666 27.9549 30.5376C28.4412 30.4064 28.9535 30.4062 29.4399 30.537C29.9262 30.6679 30.3693 30.9251 30.7241 31.2826C30.7949 31.3526 30.8649 31.4301 30.9466 31.5193C31.02 31.5999 31.1087 31.6651 31.2075 31.7112C31.3063 31.7573 31.4132 31.7834 31.5222 31.788C31.6311 31.7925 31.7398 31.7755 31.8421 31.7378C31.9445 31.7002 32.0383 31.6426 32.1182 31.5685C32.2809 31.4176 32.3773 31.2086 32.3865 30.9869C32.3957 30.7653 32.317 30.549 32.1674 30.3851C32.0819 30.29 31.9941 30.1969 31.9041 30.106C31.4833 29.6837 30.9833 29.3486 30.4327 29.12C29.8822 28.8914 29.2919 28.7737 28.6957 28.7737C28.0996 28.7737 27.5093 28.8914 26.9588 29.12C26.4082 29.3486 25.9082 29.6837 25.4874 30.106L25.4882 30.1026Z" fill="white"/>
<path d="M30.9 27.0475L32.56 25.3875C33.1054 24.8633 33.8328 24.5709 34.5893 24.5718C35.3458 24.5728 36.0725 24.8669 36.6167 25.3925C37.1416 25.9362 37.435 26.6625 37.435 27.4183C37.435 28.1741 37.1416 28.9004 36.6167 29.4442L33.3358 32.7192C32.9814 33.0775 32.5374 33.3341 32.05 33.4625C31.5637 33.5932 31.0515 33.5931 30.5653 33.4623C30.079 33.3314 29.6359 33.0745 29.2808 32.7175C29.21 32.6475 29.14 32.57 29.0583 32.4808C28.9849 32.4003 28.8962 32.3351 28.7974 32.289C28.6986 32.2428 28.5917 32.2167 28.4827 32.2122C28.3738 32.2076 28.2651 32.2246 28.1628 32.2623C28.0605 32.3 27.9666 32.3575 27.8867 32.4317C27.724 32.5825 27.6276 32.7916 27.6184 33.0132C27.6092 33.2349 27.6879 33.4512 27.8375 33.615C27.9267 33.7125 28.0158 33.81 28.1008 33.8942C28.6653 34.4539 29.3658 34.857 30.1334 35.0637C30.9009 35.2705 31.7091 35.2738 32.4783 35.0733C33.2495 34.8691 33.9525 34.4632 34.515 33.8975L37.7867 30.6258C38.6174 29.7647 39.082 28.615 39.0829 27.4185C39.0839 26.222 38.621 25.0716 37.7917 24.2092C37.3712 23.7864 36.8713 23.4509 36.3207 23.2219C35.7701 22.993 35.1796 22.8751 34.5833 22.8751C33.987 22.8751 33.3966 22.993 32.846 23.2219C32.2954 23.4509 31.7955 23.7864 31.375 24.2092L29.7167 25.8675C29.5649 26.0247 29.4809 26.2352 29.4828 26.4537C29.4847 26.6722 29.5723 26.8812 29.7268 27.0357C29.8813 27.1902 30.0903 27.2778 30.3088 27.2797C30.5273 27.2816 30.7378 27.1976 30.895 27.0458L30.9 27.0475ZM24.1775 27.3483C24.3372 27.498 24.5478 27.5812 24.7667 27.5812C24.9855 27.5812 25.1961 27.498 25.3558 27.3483C25.4336 27.2708 25.4954 27.1787 25.5374 27.0773C25.5795 26.9759 25.6012 26.8671 25.6011 26.7573C25.601 26.6475 25.5792 26.5388 25.537 26.4374C25.4948 26.3361 25.4329 26.2441 25.355 26.1667L23.3883 24.2075C23.3114 24.128 23.2193 24.0647 23.1176 24.0212C23.0158 23.9776 22.9065 23.9548 22.7958 23.954C22.6852 23.9532 22.5755 23.9744 22.4731 24.0165C22.3708 24.0585 22.2778 24.1205 22.1997 24.1989C22.1216 24.2772 22.0598 24.3704 22.0181 24.4728C21.9763 24.5753 21.9554 24.6851 21.9565 24.7957C21.9576 24.9063 21.9807 25.0157 22.0246 25.1173C22.0684 25.2189 22.132 25.3107 22.2117 25.3875L24.1775 27.3483ZM27.3817 22C27.6027 22 27.8146 22.0878 27.9709 22.2441C28.1272 22.4004 28.215 22.6123 28.215 22.8333V24.1492C28.215 24.3702 28.1272 24.5821 27.9709 24.7384C27.8146 24.8947 27.6027 24.9825 27.3817 24.9825C27.1607 24.9825 26.9487 24.8947 26.7924 24.7384C26.6361 24.5821 26.5483 24.3702 26.5483 24.1492V22.8333C26.5483 22.6123 26.6361 22.4004 26.7924 22.2441C26.9487 22.0878 27.1607 22 27.3817 22ZM20.8358 30.2142L22.155 30.2075C22.376 30.2075 22.588 30.1197 22.7443 29.9634C22.9005 29.8071 22.9883 29.5952 22.9883 29.3742C22.9883 29.1532 22.9005 28.9412 22.7443 28.7849C22.588 28.6286 22.376 28.5408 22.155 28.5408H22.1508L20.8308 28.5475C20.7214 28.5478 20.6131 28.5697 20.5121 28.6119C20.4111 28.6541 20.3195 28.7157 20.2423 28.7933C20.0865 28.9501 19.9993 29.1623 20 29.3833C20.0007 29.6043 20.0891 29.816 20.2458 29.9719C20.4026 30.1277 20.6148 30.2148 20.8358 30.2142ZM37.205 40.0358C37.3697 40.0358 37.5307 39.987 37.6676 39.8955C37.8046 39.804 37.9114 39.674 37.9745 39.5219C38.0376 39.3698 38.0543 39.2024 38.0223 39.0408C37.9904 38.8793 37.9113 38.7308 37.795 38.6142L35.8358 36.6475C35.7585 36.57 35.6667 36.5085 35.5656 36.4665C35.4645 36.4245 35.3562 36.4029 35.2467 36.4027C35.1373 36.4026 35.0289 36.4241 34.9277 36.4659C34.8265 36.5076 34.7346 36.5689 34.6571 36.6462C34.5796 36.7236 34.5181 36.8154 34.4761 36.9165C34.4341 37.0175 34.4125 37.1259 34.4123 37.2354C34.4122 37.3448 34.4337 37.4532 34.4754 37.5544C34.5172 37.6556 34.5785 37.7475 34.6558 37.825L36.6167 39.7908C36.7726 39.9472 36.9842 40.0353 37.205 40.0358ZM37.0208 34.6217C37.0208 34.8427 37.1086 35.0546 37.2649 35.2109C37.4212 35.3672 37.6332 35.455 37.8542 35.455H39.1692C39.3902 35.455 39.6021 35.3672 39.7584 35.2109C39.9147 35.0546 40.0025 34.8427 40.0025 34.6217C40.0025 34.4007 39.9147 34.1887 39.7584 34.0324C39.6021 33.8761 39.3902 33.7883 39.1692 33.7883H37.8533C37.6325 33.7886 37.4207 33.8764 37.2646 34.0327C37.1085 34.189 37.0208 34.4008 37.0208 34.6217ZM32.6217 42C32.8418 42 33.053 41.9129 33.2092 41.7577C33.3653 41.6025 33.4537 41.3918 33.455 41.1717L33.4617 39.8517C33.4617 39.6314 33.3744 39.42 33.2191 39.2639C33.0637 39.1077 32.8528 39.0194 32.6325 39.0183H32.6283C32.408 39.0183 32.1967 39.1056 32.0405 39.2609C31.8844 39.4163 31.7961 39.6272 31.795 39.8475L31.7883 41.1667C31.7883 41.3868 31.8754 41.598 32.0306 41.7542C32.1858 41.9103 32.3965 41.9987 32.6167 42H32.6217Z" fill="white"/>
</svg>
