<svg width="50" height="50" viewBox="0 0 50 50" fill="none" xmlns="http://www.w3.org/2000/svg">
<path d="M34 0.5C42.5604 0.5 49.5 7.43959 49.5 16V34C49.5 42.5604 42.5604 49.5 34 49.5H16C7.43959 49.5 0.5 42.5604 0.5 34V16C0.5 7.43959 7.43959 0.5 16 0.5H34Z" fill="white"/>
<path d="M34 0.5C42.5604 0.5 49.5 7.43959 49.5 16V34C49.5 42.5604 42.5604 49.5 34 49.5H16C7.43959 49.5 0.5 42.5604 0.5 34V16C0.5 7.43959 7.43959 0.5 16 0.5H34Z" stroke="#E8E8E8"/>
<path d="M31.0001 20.16C30.9401 20.15 30.8701 20.15 30.8101 20.16C29.4301 20.11 28.3301 18.98 28.3301 17.58C28.3301 16.15 29.4801 15 30.9101 15C32.3401 15 33.4901 16.16 33.4901 17.58C33.4801 18.98 32.3801 20.11 31.0001 20.16Z" stroke="#091229" stroke-width="1.5" stroke-linecap="round" stroke-linejoin="round"/>
<path d="M29.9699 27.4402C31.3399 27.6702 32.8499 27.4302 33.9099 26.7202C35.3199 25.7802 35.3199 24.2402 33.9099 23.3002C32.8399 22.5902 31.3099 22.3502 29.9399 22.5902" stroke="#091229" stroke-width="1.5" stroke-linecap="round" stroke-linejoin="round"/>
<path d="M18.97 20.16C19.03 20.15 19.1 20.15 19.16 20.16C20.54 20.11 21.64 18.98 21.64 17.58C21.64 16.15 20.49 15 19.06 15C17.63 15 16.48 16.16 16.48 17.58C16.49 18.98 17.59 20.11 18.97 20.16Z" stroke="#091229" stroke-width="1.5" stroke-linecap="round" stroke-linejoin="round"/>
<path d="M19.9999 27.4402C18.6299 27.6702 17.1199 27.4302 16.0599 26.7202C14.6499 25.7802 14.6499 24.2402 16.0599 23.3002C17.1299 22.5902 18.6599 22.3502 20.0299 22.5902" stroke="#091229" stroke-width="1.5" stroke-linecap="round" stroke-linejoin="round"/>
<path d="M25.0001 27.6297C24.9401 27.6197 24.8701 27.6197 24.8101 27.6297C23.4301 27.5797 22.3301 26.4497 22.3301 25.0497C22.3301 23.6197 23.4801 22.4697 24.9101 22.4697C26.3401 22.4697 27.4901 23.6297 27.4901 25.0497C27.4801 26.4497 26.3801 27.5897 25.0001 27.6297Z" stroke="#091229" stroke-width="1.5" stroke-linecap="round" stroke-linejoin="round"/>
<path d="M22.0902 30.7794C20.6802 31.7194 20.6802 33.2594 22.0902 34.1994C23.6902 35.2694 26.3102 35.2694 27.9102 34.1994C29.3202 33.2594 29.3202 31.7194 27.9102 30.7794C26.3202 29.7194 23.6902 29.7194 22.0902 30.7794Z" stroke="#091229" stroke-width="1.5" stroke-linecap="round" stroke-linejoin="round"/>
</svg>
