<svg width="48" height="48" viewBox="0 0 48 48" fill="none" xmlns="http://www.w3.org/2000/svg">
<rect x="0.5" y="0.5" width="47" height="47" rx="14.5" fill="black"/>
<rect x="0.5" y="0.5" width="47" height="47" rx="14.5" stroke="url(#paint0_linear_69_134)"/>
<path d="M29.9925 26.9268C31.6394 27.2028 33.4545 26.9148 34.7288 26.0629C36.4237 24.935 36.4237 23.0872 34.7288 21.9593C33.4425 21.1073 31.6033 20.8194 29.9564 21.1073M18.0075 26.9268C16.3606 27.2028 14.5455 26.9148 13.2712 26.0629C11.5763 24.935 11.5763 23.0872 13.2712 21.9593C14.5575 21.1073 16.3967 20.8194 18.0436 21.1073M31.2309 18.1914C31.1588 18.1794 31.0746 18.1794 31.0025 18.1914C29.3436 18.1314 28.0213 16.7755 28.0213 15.0957C28.0213 13.3799 29.4037 12 31.1227 12C32.8417 12 34.2241 13.3919 34.2241 15.0957C34.2121 16.7755 32.8898 18.1314 31.2309 18.1914ZM16.7694 18.1914C16.8415 18.1794 16.9257 18.1794 16.9978 18.1914C18.6567 18.1314 19.979 16.7755 19.979 15.0957C19.979 13.3799 18.5966 12 16.8776 12C15.1586 12 13.7762 13.3919 13.7762 15.0957C13.7882 16.7755 15.1105 18.1314 16.7694 18.1914ZM24.0182 27.1542C23.9461 27.1422 23.862 27.1422 23.7898 27.1542C22.1309 27.0942 20.8086 25.7383 20.8086 24.0585C20.8086 22.3427 22.191 20.9628 23.9101 20.9628C25.6291 20.9628 27.0115 22.3547 27.0115 24.0585C26.9995 25.7383 25.6772 27.1062 24.0182 27.1542ZM20.5203 30.9335C18.8253 32.0614 18.8253 33.9092 20.5203 35.0371C22.4436 36.321 25.5931 36.321 27.5165 35.0371C29.2115 33.9092 29.2115 32.0614 27.5165 30.9335C25.6051 29.6616 22.4436 29.6616 20.5203 30.9335Z" stroke="white" stroke-width="1.5" stroke-linecap="round" stroke-linejoin="round"/>
<defs>
<linearGradient id="paint0_linear_69_134" x1="24" y1="0" x2="24" y2="48" gradientUnits="userSpaceOnUse">
<stop stop-color="#2F2F2F"/>
<stop offset="0.5" stop-color="#191919"/>
<stop offset="1" stop-color="#151515"/>
</linearGradient>
</defs>
</svg>
