<svg width="20" height="20" viewBox="0 0 20 20" fill="none" xmlns="http://www.w3.org/2000/svg">
<path d="M16.1042 7.88867C16.1042 7.88867 15.6517 13.5012 15.3892 15.8653C15.2642 16.9945 14.5667 17.6562 13.4242 17.677C11.25 17.7162 9.07332 17.7187 6.89999 17.6728C5.80082 17.6503 5.11499 16.9803 4.99249 15.8712C4.72832 13.4862 4.27832 7.88867 4.27832 7.88867" stroke="#EC5557" stroke-width="1.5" stroke-linecap="round" stroke-linejoin="round"/>
<path d="M17.2567 5.19987H3.125" stroke="#EC5557" stroke-width="1.5" stroke-linecap="round" stroke-linejoin="round"/>
<path d="M14.5335 5.19852C13.8793 5.19852 13.316 4.73602 13.1877 4.09518L12.9852 3.08185C12.8602 2.61435 12.4368 2.29102 11.9543 2.29102H8.42682C7.94432 2.29102 7.52099 2.61435 7.39599 3.08185L7.19349 4.09518C7.06516 4.73602 6.50182 5.19852 5.84766 5.19852" stroke="#EC5557" stroke-width="1.5" stroke-linecap="round" stroke-linejoin="round"/>
</svg>
