<svg width="28" height="20" viewBox="0 0 28 20" fill="none" xmlns="http://www.w3.org/2000/svg">
<path d="M25.001 9.60896e-07H8.45096C8.01111 0.00290331 7.57759 0.105141 7.18279 0.299079C6.78799 0.493017 6.4421 0.773643 6.17096 1.12L0.690961 8C0.243302 8.57055 0 9.27479 0 10C0 10.7252 0.243302 11.4294 0.690961 12L6.17096 18.88C6.4421 19.2264 6.78799 19.507 7.18279 19.7009C7.57759 19.8949 8.01111 19.9971 8.45096 20H25.001C25.4052 20.0003 25.8054 19.9189 26.1774 19.7607C26.5494 19.6025 26.8857 19.3707 27.1659 19.0793C27.4461 18.7879 27.6645 18.4429 27.808 18.0649C27.9515 17.687 28.0171 17.2839 28.001 16.88V3.12C28.0171 2.71605 27.9515 2.31301 27.808 1.93506C27.6645 1.55712 27.4461 1.21208 27.1659 0.920674C26.8857 0.629263 26.5494 0.397491 26.1774 0.239278C25.8054 0.081066 25.4052 -0.00032259 25.001 9.60896e-07ZM20.541 12.29C20.6347 12.383 20.7091 12.4936 20.7599 12.6154C20.8106 12.7373 20.8368 12.868 20.8368 13C20.8368 13.132 20.8106 13.2627 20.7599 13.3846C20.7091 13.5064 20.6347 13.617 20.541 13.71C20.4475 13.8027 20.3367 13.876 20.2149 13.9258C20.093 13.9755 19.9626 14.0008 19.831 14C19.6994 14.0008 19.5689 13.9755 19.4471 13.9258C19.3252 13.876 19.2144 13.8027 19.121 13.71L16.831 11.41L14.541 13.71C14.4475 13.8027 14.3367 13.876 14.2149 13.9258C14.093 13.9755 13.9626 14.0008 13.831 14C13.6994 14.0008 13.5689 13.9755 13.4471 13.9258C13.3252 13.876 13.2144 13.8027 13.121 13.71C13.0272 13.617 12.9528 13.5064 12.9021 13.3846C12.8513 13.2627 12.8252 13.132 12.8252 13C12.8252 12.868 12.8513 12.7373 12.9021 12.6154C12.9528 12.4936 13.0272 12.383 13.121 12.29L15.411 10L13.121 7.71C12.9327 7.5217 12.8269 7.2663 12.8269 7C12.8269 6.7337 12.9327 6.4783 13.121 6.29C13.3093 6.1017 13.5647 5.99591 13.831 5.99591C14.0973 5.99591 14.3527 6.1017 14.541 6.29L16.831 8.59L19.121 6.29C19.3093 6.1017 19.5647 5.99591 19.831 5.99591C20.0973 5.99591 20.3527 6.1017 20.541 6.29C20.7293 6.4783 20.8351 6.7337 20.8351 7C20.8351 7.2663 20.7293 7.5217 20.541 7.71L18.241 10L20.541 12.29Z" fill="#0166FF"/>
</svg>
