<svg width="60" height="65" viewBox="0 0 60 65" fill="none" xmlns="http://www.w3.org/2000/svg">
<path d="M0.5 30C0.5 22.9148 0.501062 17.6512 1.04472 13.6075C1.58644 9.57828 2.65864 6.83527 4.74695 4.74695C6.83527 2.65864 9.57828 1.58644 13.6075 1.04472C17.6512 0.501062 22.9148 0.5 30 0.5C37.0852 0.5 42.3488 0.501062 46.3925 1.04472C50.4217 1.58644 53.1647 2.65864 55.253 4.74695C57.3414 6.83527 58.4136 9.57828 58.9553 13.6075C59.4989 17.6512 59.5 22.9148 59.5 30V35C59.5 42.0852 59.4989 47.3488 58.9553 51.3925C58.4136 55.4217 57.3414 58.1647 55.253 60.253C53.1647 62.3414 50.4217 63.4136 46.3925 63.9553C42.3488 64.4989 37.0852 64.5 30 64.5C22.9148 64.5 17.6512 64.4989 13.6075 63.9553C9.57828 63.4136 6.83527 62.3414 4.74695 60.253C2.65864 58.1647 1.58644 55.4217 1.04472 51.3925C0.501062 47.3488 0.5 42.0852 0.5 35V30Z" stroke="url(#paint0_linear_538_2534)"/>
<path d="M37.3248 29.4683C37.3248 29.4683 36.7818 36.2033 36.4668 39.0403C36.3168 40.3953 35.4798 41.1893 34.1088 41.2143C31.4998 41.2613 28.8878 41.2643 26.2798 41.2093C24.9608 41.1823 24.1378 40.3783 23.9908 39.0473C23.6738 36.1853 23.1338 29.4683 23.1338 29.4683" stroke="white" stroke-width="1.5" stroke-linecap="round" stroke-linejoin="round"/>
<path d="M38.708 26.2397H21.75" stroke="white" stroke-width="1.5" stroke-linecap="round" stroke-linejoin="round"/>
<path d="M35.4406 26.2397C34.6556 26.2397 33.9796 25.6847 33.8256 24.9157L33.5826 23.6997C33.4326 23.1387 32.9246 22.7507 32.3456 22.7507H28.1126C27.5336 22.7507 27.0256 23.1387 26.8756 23.6997L26.6326 24.9157C26.4786 25.6847 25.8026 26.2397 25.0176 26.2397" stroke="white" stroke-width="1.5" stroke-linecap="round" stroke-linejoin="round"/>
<defs>
<linearGradient id="paint0_linear_538_2534" x1="30" y1="0" x2="30" y2="65" gradientUnits="userSpaceOnUse">
<stop stop-color="#2F2F2F"/>
<stop offset="0.5" stop-color="#191919"/>
<stop offset="1" stop-color="#151515"/>
</linearGradient>
</defs>
</svg>
