<svg width="60" height="65" viewBox="0 0 60 65" fill="none" xmlns="http://www.w3.org/2000/svg">
<path d="M0.5 30C0.5 22.9148 0.501062 17.6512 1.04472 13.6075C1.58644 9.57828 2.65864 6.83527 4.74695 4.74695C6.83527 2.65864 9.57828 1.58644 13.6075 1.04472C17.6512 0.501062 22.9148 0.5 30 0.5C37.0852 0.5 42.3488 0.501062 46.3925 1.04472C50.4217 1.58644 53.1647 2.65864 55.253 4.74695C57.3414 6.83527 58.4136 9.57828 58.9553 13.6075C59.4989 17.6512 59.5 22.9148 59.5 30V35C59.5 42.0852 59.4989 47.3488 58.9553 51.3925C58.4136 55.4217 57.3414 58.1647 55.253 60.253C53.1647 62.3414 50.4217 63.4136 46.3925 63.9553C42.3488 64.4989 37.0852 64.5 30 64.5C22.9148 64.5 17.6512 64.4989 13.6075 63.9553C9.57828 63.4136 6.83527 62.3414 4.74695 60.253C2.65864 58.1647 1.58644 55.4217 1.04472 51.3925C0.501062 47.3488 0.5 42.0852 0.5 35V30Z" stroke="url(#paint0_linear_538_2533)"/>
<path d="M25.7759 30.5242L22.3698 33.9304C21.4929 34.8207 21.001 36.0199 21 37.2696C20.999 38.5192 21.4891 39.7192 22.3646 40.6109C22.8024 41.051 23.3228 41.4003 23.8961 41.6387C24.4693 41.877 25.084 41.9997 25.7048 41.9997C26.3256 41.9997 26.9403 41.877 27.5135 41.6387C28.0868 41.4003 28.6072 41.051 29.045 40.6109L30.7715 38.8843C30.8544 38.8043 30.9205 38.7086 30.966 38.6027C31.0114 38.4969 31.0354 38.383 31.0364 38.2678C31.0374 38.1526 31.0154 38.0384 30.9718 37.9318C30.9282 37.8251 30.8638 37.7283 30.7823 37.6468C30.7008 37.5654 30.604 37.5009 30.4973 37.4573C30.3907 37.4137 30.2765 37.3917 30.1613 37.3927C30.0461 37.3937 29.9322 37.4177 29.8264 37.4631C29.7205 37.5086 29.6248 37.5747 29.5448 37.6576L27.8131 39.3841C27.2509 39.9333 26.4947 40.2387 25.7088 40.2339C24.9229 40.2292 24.1705 39.9147 23.615 39.3587C23.0595 38.8027 22.7456 38.0501 22.7415 37.2642C22.7374 36.4782 23.0434 35.7224 23.5931 35.1606L27.0053 31.751C27.3743 31.378 27.8366 31.1107 28.344 30.9771C28.8503 30.8404 29.3837 30.8402 29.89 30.9764C30.3964 31.1127 30.8577 31.3805 31.227 31.7527C31.3008 31.8256 31.3736 31.9063 31.4587 31.9991C31.5352 32.083 31.6275 32.1509 31.7303 32.1989C31.8332 32.2469 31.9445 32.2741 32.0579 32.2788C32.1713 32.2836 32.2846 32.2659 32.3911 32.2266C32.4976 32.1874 32.5953 32.1275 32.6785 32.0503C32.8478 31.8933 32.9482 31.6756 32.9578 31.4449C32.9674 31.2141 32.8854 30.9889 32.7297 30.8183C32.6406 30.7193 32.5492 30.6224 32.4555 30.5277C32.0175 30.088 31.4969 29.7392 30.9237 29.5012C30.3505 29.2632 29.736 29.1406 29.1153 29.1406C28.4947 29.1406 27.8801 29.2632 27.3069 29.5012C26.7337 29.7392 26.2132 30.088 25.7751 30.5277L25.7759 30.5242Z" fill="white"/>
<path d="M31.4099 27.3437L33.1382 25.6154C33.706 25.0696 34.4634 24.7652 35.251 24.7662C36.0386 24.7672 36.7951 25.0734 37.3616 25.6206C37.9082 26.1867 38.2136 26.9429 38.2136 27.7297C38.2136 28.5166 37.9082 29.2728 37.3616 29.8389L33.9459 33.2485C33.5769 33.6215 33.1146 33.8888 32.6072 34.0224C32.1009 34.1584 31.5677 34.1583 31.0615 34.0221C30.5552 33.8859 30.0939 33.6185 29.7242 33.2468C29.6505 33.1739 29.5776 33.0932 29.4926 33.0004C29.4161 32.9165 29.3238 32.8486 29.2209 32.8006C29.1181 32.7526 29.0067 32.7254 28.8933 32.7207C28.7799 32.7159 28.6667 32.7336 28.5602 32.7729C28.4537 32.8121 28.356 32.872 28.2727 32.9492C28.1034 33.1062 28.003 33.3239 27.9934 33.5546C27.9838 33.7854 28.0658 34.0106 28.2215 34.1811C28.3144 34.2827 28.4072 34.3842 28.4957 34.4718C29.0834 35.0545 29.8127 35.4742 30.6118 35.6894C31.4109 35.9047 32.2523 35.9081 33.0532 35.6994C33.8561 35.4868 34.5879 35.0643 35.1736 34.4753L38.5797 31.0691C39.4446 30.1725 39.9283 28.9756 39.9293 27.7299C39.9302 26.4842 39.4484 25.2866 38.5849 24.3886C38.1471 23.9485 37.6267 23.5992 37.0534 23.3608C36.4802 23.1225 35.8655 22.9998 35.2447 22.9998C34.6239 22.9998 34.0092 23.1225 33.436 23.3608C32.8627 23.5992 32.3423 23.9485 31.9045 24.3886L30.178 26.1151C30.0199 26.2788 29.9325 26.4979 29.9345 26.7254C29.9364 26.9529 30.0277 27.1705 30.1885 27.3314C30.3494 27.4922 30.567 27.5835 30.7945 27.5854C31.022 27.5874 31.2411 27.5 31.4047 27.3419L31.4099 27.3437Z" fill="white"/>
<defs>
<linearGradient id="paint0_linear_538_2533" x1="30" y1="0" x2="30" y2="65" gradientUnits="userSpaceOnUse">
<stop stop-color="#2F2F2F"/>
<stop offset="0.5" stop-color="#191919"/>
<stop offset="1" stop-color="#151515"/>
</linearGradient>
</defs>
</svg>
