<svg width="214" height="222" viewBox="0 0 214 222" fill="none" xmlns="http://www.w3.org/2000/svg">
<g clip-path="url(#clip0_12990_25805)">
<path d="M157.472 76.9107C147.54 73.9706 87.1338 69.1131 72.2134 90.333C61.0445 106.099 71.6593 123.91 69.3999 142.403C64.8385 178.963 62.6644 205.424 68.7604 221.573H177.508C187.356 195.197 181.771 124.293 181.771 99.3238C181.473 87.0946 167.32 79.8509 157.472 76.9107Z" fill="#0166FF"/>
<path d="M182.071 99.323C182.071 87.8608 169.282 80.0205 157.601 76.5264C146.986 73.3306 87.0068 68.6009 71.7881 90.0765C64.7116 100.09 66.2462 110.7 67.8235 121.992C69.0778 128.704 69.4361 135.553 68.8893 142.359C64.8395 175.766 61.9833 204.784 68.2072 221.572C68.2399 221.647 68.2934 221.711 68.3615 221.756C68.4295 221.802 68.5091 221.826 68.5909 221.828H177.509C177.6 221.821 177.688 221.789 177.763 221.737C177.838 221.684 177.898 221.613 177.935 221.529C185.822 200.224 183.946 151.222 182.667 118.711C182.369 111.041 182.113 104.266 182.071 99.323ZM177.211 221.146H69.0598C62.8785 204.358 65.6921 175.553 69.7419 142.445C70.2887 135.567 69.9304 128.648 68.6761 121.864C67.0988 110.785 65.6068 100.303 72.5128 90.5878C87.1773 69.794 147.2 74.3107 157.345 77.336C168.813 80.7448 181.09 88.3295 181.218 99.323C181.218 104.266 181.516 111.083 181.815 118.924C183.307 151.222 184.969 199.926 177.211 221.146Z" fill="#0E0E27"/>
<path d="M210.59 55.05C210.261 54.0985 209.698 53.2447 208.954 52.5672C208.209 51.8897 207.306 51.4101 206.327 51.1725C205.943 47.3802 201.851 47.6784 201.851 47.6784C201.348 46.8641 200.636 46.1989 199.79 45.7517C198.943 45.3045 197.993 45.0916 197.036 45.1351C196.08 45.1786 195.152 45.4768 194.35 45.9988C193.547 46.5209 192.899 47.2479 192.472 48.1045C192.147 40.6454 191.336 33.2154 190.042 25.8619C189.859 25.3895 189.537 24.9835 189.118 24.6972C188.7 24.411 188.205 24.2578 187.698 24.2578C187.191 24.2578 186.696 24.411 186.277 24.6972C185.859 24.9835 185.537 25.3895 185.353 25.8619C184.586 28.2481 185.353 52.536 185.353 52.536C185.353 52.536 175.847 60.4189 187.954 75.4604C190.256 78.3579 184.415 99.4926 184.415 99.4926L207.989 104.606C207.989 104.606 206.156 82.065 209.78 78.0596C212.679 74.8212 209.78 63.3164 209.78 63.3164C210.658 62.1442 211.198 60.7538 211.34 59.2963C211.483 57.8389 211.224 56.3703 210.59 55.05Z" fill="white"/>
<path d="M210.93 54.9266C210.534 53.9801 209.917 53.1421 209.131 52.4824C208.345 51.8227 207.412 51.3605 206.411 51.1342C206.243 50.0726 205.679 49.1137 204.833 48.4499C203.987 47.7861 202.922 47.4665 201.85 47.555C201.327 46.7836 200.639 46.1385 199.835 45.6668C199.031 45.195 198.132 44.9084 197.203 44.8279C196.298 44.9028 195.42 45.1696 194.626 45.6104C193.832 46.0513 193.141 46.656 192.599 47.3845C192.259 40.2372 191.447 33.12 190.169 26.0794C190.033 25.4792 189.706 24.9392 189.237 24.5399C188.769 24.1406 188.184 23.9034 187.569 23.8636C187.004 23.8551 186.449 24.0119 185.971 24.3147C185.494 24.6175 185.116 25.0532 184.883 25.568C184.159 27.9542 184.628 49.9838 184.883 52.2421C183.775 53.2648 176.102 61.3181 187.526 75.5074C189.36 77.7657 185.565 93.4037 183.946 99.2414V99.5396L208.287 104.823V104.397C208.287 104.184 206.454 81.9415 209.95 78.1066C212.806 74.9534 210.333 64.727 209.95 63.2356C210.814 62.0518 211.358 60.6651 211.53 59.2096C211.702 57.7541 211.495 56.2789 210.93 54.9266ZM208.884 62.9373C208.884 62.9373 211.783 74.3143 208.884 77.3396C205.431 81.1746 206.752 100.434 207.008 103.715L184.201 98.7726C185.097 95.4064 189.828 77.4675 187.569 74.8256C175.803 60.1676 184.542 52.6682 184.926 52.3273C184.713 43.8053 184.5 27.6133 184.926 25.7385C185.058 25.2755 185.338 24.8682 185.723 24.5782C186.107 24.2882 186.576 24.1313 187.058 24.1313C187.539 24.1313 188.008 24.2882 188.392 24.5782C188.777 24.8682 189.057 25.2755 189.189 25.7385C190.567 33.1282 191.45 40.6017 191.832 48.1089V49.2168L192.429 48.2794C192.944 47.4785 193.626 46.7977 194.428 46.2831C195.229 45.7685 196.132 45.4321 197.075 45.2966C197.934 45.368 198.766 45.6356 199.505 46.0789C200.244 46.5221 200.871 47.1292 201.338 47.8532H201.679C202.628 47.7699 203.571 48.0629 204.304 48.6689C205.038 49.2749 205.504 50.1451 205.601 51.0916V51.3473H205.857C206.83 51.5225 207.738 51.9547 208.488 52.599C209.238 53.2434 209.801 54.0764 210.12 55.0118C210.652 56.3209 210.817 57.7497 210.6 59.1456C210.382 60.5416 209.789 61.8521 208.884 62.9373Z" fill="#0E0E27"/>
<path d="M200.359 87.1387L201.169 87.2665L202.619 75.8895L201.809 75.7617L200.359 87.1387Z" fill="#0E0E27"/>
<path d="M201.253 47.8111C202.188 50.0922 202.41 52.6023 201.893 55.0122C201.477 56.401 200.61 57.6117 199.429 58.4528C198.247 59.294 196.819 59.7176 195.37 59.6567C194.292 59.5811 193.283 59.099 192.547 58.308C191.811 57.5169 191.403 56.476 191.406 55.3957C191.406 53.5209 191.406 52.2852 192.344 51.6886C193.793 50.666 196.607 51.9869 196.607 51.9869L196.948 51.2625C196.948 51.2625 193.75 49.7285 191.832 51.1347C191.279 51.6812 190.873 52.3577 190.649 53.1022C190.426 53.8466 190.393 54.6352 190.553 55.3957C190.579 56.6635 191.072 57.8772 191.937 58.8048C192.802 59.7323 193.979 60.3087 195.242 60.4237H195.711C197.248 60.4083 198.742 59.9163 199.987 59.0156C201.231 58.1149 202.166 56.85 202.66 55.3957C203.218 52.8043 202.995 50.1058 202.021 47.6406L201.253 47.8111Z" fill="#0E0E27"/>
<path d="M205.729 51.1335C206.227 53.1485 206.227 55.2544 205.729 57.2694C205.328 58.7122 204.456 59.9792 203.25 60.8676C202.044 61.756 200.576 62.2144 199.078 62.1696C198.444 62.1751 197.829 61.9485 197.35 61.5325C196.871 61.1166 196.561 60.54 196.478 59.9112H195.668C195.763 60.7321 196.161 61.488 196.784 62.0316C197.406 62.5752 198.209 62.8674 199.036 62.8513H199.505C201.1 62.7871 202.635 62.2212 203.89 61.2343C205.146 60.2473 206.057 58.8897 206.496 57.3546C207.075 55.1911 207.075 52.9135 206.496 50.75L205.729 51.1335Z" fill="#0E0E27"/>
<path d="M187.57 59.6547V60.4643C190.352 60.4294 193.099 61.0752 195.573 62.3452C198.048 63.6152 200.174 65.471 201.766 67.7507L202.448 67.3672C200.802 64.9498 198.58 62.9794 195.983 61.6331C193.386 60.2868 190.495 59.607 187.57 59.6547Z" fill="#0E0E27"/>
<path d="M184.287 82.3229C177.466 86.2431 161.693 133.455 161.139 160.598C160.542 189.658 186.717 186.164 198.823 175C217.794 157.189 213.829 107.591 211.612 90.7598C210.888 83.6012 190.425 78.8289 184.287 82.3229Z" fill="#0166FF"/>
<path d="M206.157 84.4109C199.678 81.1299 188.637 79.3829 184.118 81.9395C177.382 85.817 161.268 133.072 160.714 160.598C160.416 174.447 166.171 179.943 171.073 182.116C173.591 183.189 176.309 183.712 179.045 183.65C186.614 183.341 193.818 180.315 199.337 175.128C218.776 156.849 214.257 105.716 212.381 90.5042C211.912 88.4163 209.823 86.2431 206.157 84.4109ZM198.527 174.702C192.004 180.838 180.281 185.27 171.414 181.349C164.764 178.367 161.354 171.208 161.567 160.598C162.121 133.157 177.894 86.4562 184.544 82.7065C186.383 81.856 188.405 81.4753 190.427 81.5986C195.737 81.6684 200.97 82.8743 205.774 85.1353C209.099 86.8397 211.102 88.8424 211.358 90.8025C213.149 105.929 217.71 156.721 198.527 174.702Z" fill="#0E0E27"/>
<path d="M190.042 53.3904C188.908 52.1205 187.384 51.2638 185.709 50.9552C184.034 50.6466 182.304 50.9037 180.792 51.686C179.724 52.9708 178.978 54.491 178.615 56.1211C178.252 57.7511 178.282 59.4441 178.703 61.0603C179.884 64.0082 181.604 66.7103 183.776 69.0284L184.969 59.0576C184.969 59.0576 193.112 64.256 195.499 59.7393C197.886 55.2226 192.515 55.9896 190.042 53.3904Z" fill="white"/>
<path d="M193.369 54.9678C192.227 54.5762 191.17 53.9686 190.257 53.1782C188.556 51.4507 186.245 50.4567 183.82 50.4085C182.656 50.3739 181.514 50.7344 180.581 51.4312C179.454 52.7595 178.667 54.3418 178.288 56.0417C177.909 57.7417 177.95 59.5082 178.406 61.1889C179.604 64.1738 181.354 66.906 183.565 69.2423L184.034 69.7536L185.227 59.655C187.323 60.9385 189.686 61.7255 192.133 61.9559C192.872 62.0163 193.613 61.8537 194.259 61.4891C194.905 61.1245 195.427 60.5747 195.757 59.9106C196.028 59.5011 196.214 59.0405 196.302 58.5571C196.39 58.0736 196.378 57.5773 196.268 57.0984C196.098 55.9905 194.648 55.3939 193.369 54.9678ZM195.202 59.655C194.916 60.2069 194.47 60.6603 193.923 60.9565C193.376 61.2528 192.752 61.3782 192.133 61.3168C189.643 61.0429 187.25 60.197 185.142 58.8454L184.673 58.5897L183.565 68.177C181.659 66.0514 180.131 63.616 179.046 60.9759C178.643 59.419 178.614 57.7888 178.962 56.2186C179.31 54.6485 180.026 53.1831 181.049 51.9425C181.857 51.3339 182.854 51.0319 183.863 51.0903C186.112 51.1223 188.257 52.0412 189.831 53.6469C190.807 54.4926 191.935 55.1435 193.156 55.5644C194.35 56.0757 195.416 56.4592 195.671 57.2688C195.771 57.6767 195.78 58.1014 195.699 58.5134C195.619 58.9255 195.449 59.315 195.202 59.655Z" fill="#0E0E27"/>
<path d="M144.512 10.058C146.175 9.68421 147.718 8.89934 148.999 7.77524C150.28 6.65115 151.258 5.22375 151.845 3.6238C151.845 3.6238 149.329 4.73167 135.39 1.49328C116.078 -3.02342 114.757 8.09789 114.757 8.09789C102.735 -0.552016 91.2255 32.1301 104.1 51.1344C117.4 70.9482 137.521 58.8468 146.516 52.1144C155.511 45.382 146.9 40.2687 147.027 35.4964C147.155 30.724 153.465 29.4031 153.976 19.0914C154.154 17.8257 154.027 16.536 153.607 15.3289C153.187 14.1217 152.486 13.0318 151.562 12.1491C150.637 11.2665 149.515 10.6165 148.29 10.2529C147.064 9.88926 145.769 9.82244 144.512 10.058Z" fill="#3F516C"/>
<path d="M154.402 19.0894C154.556 17.8502 154.449 16.5926 154.089 15.3968C153.73 14.201 153.125 13.0932 152.313 12.144C150.853 10.6875 148.915 9.80949 146.857 9.67255C148.099 9.08839 149.213 8.2643 150.135 7.24776C151.057 6.23123 151.768 5.04237 152.228 3.74971L152.484 2.94012L151.717 3.23839C151.152 3.32914 150.576 3.32914 150.011 3.23839C145.103 3.02626 140.23 2.29786 135.475 1.06526C132.684 0.381203 129.822 0.0237186 126.949 0C117.4 0 115.098 5.53935 114.501 7.4142C113.408 6.70207 112.139 6.30408 110.835 6.26372C107.595 6.26372 104.526 8.77773 102.096 13.2944C99.2041 19.3359 97.8505 25.9979 98.1554 32.6883C98.4603 39.3787 100.414 45.8901 103.844 51.6438C105.752 54.9408 108.484 57.6867 111.771 59.6135C115.059 61.5403 118.79 62.5821 122.601 62.6372C131.538 61.9967 140.037 58.5181 146.857 52.709C153.294 47.894 151.12 43.633 149.116 40.2242C148.213 38.8901 147.657 37.3526 147.496 35.7501C147.721 33.9418 148.547 32.2613 149.841 30.9777C152.684 27.6571 154.295 23.4586 154.402 19.0894ZM146.601 35.6223C146.764 37.363 147.365 39.0341 148.349 40.4798C150.224 43.9313 152.185 47.5532 146.303 51.942C139.588 57.5984 131.269 61.0107 122.515 61.6998C118.847 61.642 115.257 60.6389 112.09 58.7876C108.924 56.9364 106.289 54.2996 104.44 51.1324C101.1 45.5255 99.1962 39.1807 98.8987 32.6616C98.6013 26.1424 99.9191 19.6508 102.735 13.7631C104.995 9.50211 107.851 7.15854 110.75 7.15854C112.113 7.20423 113.427 7.68171 114.501 8.52207L115.098 8.90557V8.13858C115.098 8.13858 116.164 0.809597 127.077 0.809597C129.851 0.84409 132.612 1.20159 135.304 1.87486C140.466 3.41173 145.819 4.21499 151.205 4.26104C150.569 5.62841 149.627 6.83135 148.451 7.77702C147.276 8.72269 145.899 9.3858 144.427 9.71516V10.5248H145.365C146.521 10.4498 147.681 10.6115 148.773 10.9997C149.866 11.388 150.867 11.9949 151.717 12.7831C152.416 13.6548 152.932 14.6594 153.233 15.736C153.533 16.8126 153.612 17.9389 153.464 19.0468C153.37 23.1859 151.866 27.1691 149.201 30.3386C147.76 31.7541 146.843 33.6173 146.601 35.6223Z" fill="#3F516C"/>
<path d="M100.775 36.5177C100.299 38.3815 100.358 40.3417 100.947 42.1733C101.535 44.0048 102.628 45.6334 104.1 46.872L105.933 33.6202C105.933 33.6202 101.5 32.5976 100.775 36.5177Z" fill="white"/>
<path d="M100.435 36.429C100.025 38.3225 100.134 40.2913 100.749 42.1284C101.364 43.9654 102.463 45.6029 103.931 46.8685L104.357 47.1668L106.318 33.0628H105.977C105.977 33.0628 101.245 32.2106 100.435 36.429ZM103.888 46.0163C102.645 44.8142 101.733 43.3122 101.24 41.6553C100.748 39.9983 100.69 38.2423 101.074 36.5568C101.231 35.6714 101.72 34.879 102.44 34.3408C103.161 33.8025 104.06 33.5588 104.954 33.6593H105.55L103.888 46.0163Z" fill="#0E0E27"/>
<path d="M141.53 38.3516L140.379 51.6886C142.035 50.8196 143.423 49.515 144.392 47.9156C145.361 46.3161 145.875 44.4825 145.878 42.6126C146.006 38.6498 141.53 38.3516 141.53 38.3516Z" fill="white"/>
<path d="M141.531 38.3516H141.232L139.996 52.5408H140.508C142.294 51.5856 143.776 50.1489 144.785 48.3938C145.795 46.6388 146.292 44.6359 146.22 42.6126C146.348 38.3516 141.573 38.3516 141.531 38.3516ZM140.678 51.1347L141.744 38.7351C142.237 38.7406 142.723 38.8431 143.176 39.0367C143.629 39.2303 144.04 39.5112 144.384 39.8634C144.729 40.2155 145 40.6321 145.183 41.0891C145.367 41.5462 145.458 42.0349 145.453 42.5274C145.466 44.2516 145.033 45.9498 144.196 47.4578C143.36 48.9657 142.148 50.2323 140.678 51.1347Z" fill="#3F516C"/>
<path d="M132.789 62.6799L109.599 61.3164C110.019 65.9632 109.731 70.6468 108.746 75.2074C119.02 86.1156 133.514 74.3552 133.514 74.3552C132.716 70.5179 132.472 66.5863 132.789 62.6799Z" fill="white"/>
<path d="M133.217 62.7243C133.237 62.6771 133.247 62.6264 133.247 62.5752C133.247 62.5239 133.237 62.4732 133.217 62.426C133.172 62.3999 133.12 62.3861 133.068 62.3861C133.015 62.3861 132.964 62.3999 132.919 62.426L109.728 61.0625C109.728 61.0625 109.515 61.0625 109.43 61.0625C109.387 61.1721 109.387 61.2938 109.43 61.4034C109.84 66.0059 109.567 70.6438 108.62 75.1665C108.59 75.226 108.574 75.2917 108.574 75.3583C108.574 75.4249 108.59 75.4905 108.62 75.55C109.956 77.052 111.599 78.251 113.437 79.0668C115.275 79.8825 117.266 80.2961 119.277 80.2798C124.613 79.9224 129.72 77.9785 133.942 74.6978C133.979 74.633 133.999 74.5596 133.999 74.4848C133.999 74.41 133.979 74.3365 133.942 74.2717C133.117 70.4814 132.873 66.5879 133.217 62.7243ZM109.217 75.0813C110.125 70.712 110.412 66.2364 110.069 61.7869L132.322 63.0652C132.072 66.788 132.315 70.5275 133.047 74.1865C131.256 75.5074 118.425 84.626 109.217 75.0813Z" fill="#0E0E27"/>
<path d="M120.726 16.1485C119.2 15.6682 117.586 15.5282 115.999 15.7383C114.412 15.9484 112.891 16.5036 111.541 17.3647C110.192 18.2258 109.048 19.372 108.19 20.7225C107.332 22.0731 106.78 23.5953 106.573 25.1819C105.171 32.2256 104.132 39.3367 103.462 46.4871C103.078 51.9838 101.842 59.9946 105.209 63.9574C107.451 66.3986 110.189 68.3312 113.241 69.6249C116.293 70.9185 119.587 71.5432 122.901 71.4568C124.819 66.3009 130.915 69.7098 133.899 66.9827C139.654 61.7416 139.824 52.1543 140.933 46.4871C141.906 39.4282 142.106 32.2842 141.53 25.1819C141.103 21.3044 132.876 12.9954 120.726 16.1485Z" fill="white"/>
<path d="M125.672 45.8479C123.226 44.2247 120.257 43.5854 117.359 44.0583C114.998 44.8879 112.554 45.4593 110.07 45.7627C107.857 45.7877 105.683 45.1816 103.803 44.0157C103.803 45.0383 103.59 45.9332 103.547 46.6149C103.164 52.1117 101.928 60.1224 105.295 64.0852C107.537 66.5264 110.275 68.459 113.327 69.7527C116.379 71.0464 119.673 71.671 122.986 71.5846C124.905 66.4287 131.001 69.8376 133.985 67.1105C139.228 62.3382 139.868 53.9013 140.763 48.1915C138.958 49.1685 136.933 49.6673 134.88 49.6403C131.454 49.5253 128.185 48.1788 125.672 45.8479ZM123.924 55.0944C122.064 55.1546 120.206 54.9099 118.425 54.37C116.652 53.7783 114.961 52.962 113.395 51.9412C112.886 51.5868 112.529 51.0541 112.394 50.4488C112.26 49.8434 112.358 49.2097 112.669 48.6733C112.98 48.1369 113.482 47.7371 114.074 47.5531C114.667 47.3691 115.307 47.4145 115.867 47.6802L117.999 48.9159L118.51 49.1716L119.576 49.555L120.642 49.8533H121.196H121.537H123.754C124.398 49.8533 125.016 50.1092 125.472 50.5647C125.928 51.0202 126.184 51.638 126.184 52.2821C126.225 52.6159 126.199 52.9545 126.107 53.2781C126.015 53.6016 125.859 53.9034 125.649 54.1656C125.438 54.4279 125.177 54.6452 124.881 54.8047C124.585 54.9642 124.259 55.0627 123.924 55.0944Z" fill="#3F516C"/>
<path d="M134.879 49.2588C131.725 49.1557 128.708 47.9492 126.353 45.8499L125.969 45.5517C123.467 43.87 120.425 43.1859 117.443 43.6342C116.514 43.8138 115.601 44.0703 114.715 44.4012C113.295 44.9921 111.777 45.3101 110.239 45.3386C108.103 45.3769 106.002 44.8 104.185 43.6768L103.631 43.3359V43.9751C103.631 44.9977 103.418 45.8926 103.333 46.6169C103.248 47.3413 103.333 48.0657 103.333 48.8327C102.864 54.159 102.31 60.8062 105.379 64.3428C107.64 66.8516 110.42 68.8374 113.527 70.1621C116.634 71.4867 119.993 72.1183 123.369 72.0127H123.667V71.7571C124.69 68.9874 127.035 68.9022 129.507 68.7743C131.295 68.955 133.086 68.4694 134.538 67.4108C139.312 63.1498 140.335 56.0338 141.145 50.3666C141.145 49.5997 141.358 48.9179 141.444 48.2361V47.3839L140.719 47.81C138.941 48.8159 136.921 49.3168 134.879 49.2588ZM140.037 50.2388C139.227 55.7782 138.246 62.681 133.728 66.8142C132.417 67.7948 130.8 68.2781 129.166 68.1778C126.736 68.1778 124.008 68.3908 122.729 71.3736C119.528 71.4451 116.348 70.8277 113.406 69.5632C110.464 68.2987 107.828 66.4166 105.677 64.0446C102.864 60.721 103.418 54.2868 103.844 49.1309C103.844 48.3213 103.844 47.597 103.844 46.8726C103.844 46.1482 103.844 45.6369 104.058 44.9125C105.872 45.904 107.915 46.4035 109.983 46.3613C111.623 46.3436 113.244 46.0108 114.758 45.3812C115.591 45.0754 116.446 44.8332 117.315 44.6569C120.111 44.2233 122.968 44.8462 125.33 46.4039L125.756 46.7022C128.247 48.9308 131.451 50.1997 134.793 50.2814C136.647 50.304 138.483 49.9108 140.165 49.1309C140.165 49.344 140.122 49.7701 140.037 50.2388Z" fill="#3F516C"/>
<path d="M123.922 49.7701H122.047H121.407H120.896L119.83 49.4718L119.361 49.0031L118.807 48.7901H118.295L116.206 47.5544C115.546 47.1896 114.771 47.0924 114.041 47.2827C113.311 47.473 112.682 47.9364 112.284 48.577C111.913 49.1741 111.79 49.8933 111.943 50.5797C112.129 51.3727 112.619 52.0612 113.307 52.4972C114.895 53.5455 116.615 54.3766 118.423 54.9686C120.123 55.3855 121.879 55.5293 123.624 55.3947H124.135C124.886 55.3732 125.6 55.0655 126.131 54.5347C126.662 54.0039 126.97 53.2902 126.992 52.5398C127.003 52.1717 126.941 51.8051 126.81 51.4612C126.678 51.1173 126.479 50.8032 126.224 50.5371C125.914 50.2574 125.55 50.0449 125.153 49.9129C124.757 49.7809 124.338 49.7323 123.922 49.7701ZM123.922 54.6703C122.106 54.7577 120.288 54.5269 118.551 53.9885C116.808 53.4057 115.146 52.6038 113.606 51.6023C113.116 51.2712 112.767 50.7701 112.625 50.1962C112.528 49.9746 112.478 49.7352 112.478 49.4931C112.478 49.2511 112.528 49.0117 112.625 48.7901C112.823 48.4815 113.093 48.2266 113.413 48.0481C113.733 47.8696 114.092 47.7732 114.458 47.7674C114.802 47.7653 115.14 47.8535 115.439 48.0231C116.249 48.5344 116.931 48.9605 117.613 49.3014L118.125 49.557H118.721L119.361 49.8127L120.512 50.111H121.066H121.748H123.752C124.027 50.1189 124.298 50.1835 124.548 50.3008C124.797 50.4181 125.019 50.5856 125.201 50.7927C125.379 50.9723 125.519 51.1853 125.614 51.4192C125.709 51.6532 125.757 51.9037 125.755 52.1563C125.824 52.4439 125.829 52.743 125.771 53.0329C125.713 53.3228 125.593 53.5967 125.419 53.8357C125.244 54.0747 125.02 54.273 124.762 54.4171C124.504 54.5612 124.217 54.6476 123.922 54.6703Z" fill="#0E0E27"/>
<path d="M114.799 49.0449C116.986 51.5104 120.04 53.0369 123.325 53.3059V52.4963C120.3 52.193 117.5 50.7631 115.481 48.4909L114.799 49.0449ZM112.156 25.5666L112.455 26.3336C114.805 25.3669 117.398 25.1584 119.872 25.737L120.171 24.97C117.504 24.3029 114.694 24.5121 112.156 25.5666ZM129.165 23.9474V24.757C131.759 24.7256 134.296 25.5162 136.412 27.0153L136.839 26.3336C134.604 24.7347 131.913 23.898 129.165 23.9474ZM132.149 34.7278C131.836 34.7384 131.539 34.8675 131.317 35.089C131.096 35.3105 130.966 35.6078 130.956 35.9209C130.956 36.0776 130.987 36.2327 131.047 36.3775C131.107 36.5222 131.195 36.6537 131.305 36.7645C131.416 36.8753 131.548 36.9632 131.693 37.0232C131.838 37.0831 131.993 37.114 132.149 37.114C132.306 37.114 132.461 37.0831 132.606 37.0232C132.751 36.9632 132.883 36.8753 132.994 36.7645C133.104 36.6537 133.192 36.5222 133.252 36.3775C133.312 36.2327 133.343 36.0776 133.343 35.9209C133.332 35.6078 133.203 35.3105 132.982 35.089C132.76 34.8675 132.463 34.7384 132.149 34.7278Z" fill="#0E0E27"/>
<path d="M132.153 34.3415C131.774 34.4036 131.429 34.5984 131.18 34.8911C130.931 35.1838 130.795 35.5553 130.795 35.9394C130.795 36.3234 130.931 36.695 131.18 36.9877C131.429 37.2804 131.774 37.4752 132.153 37.5373C132.532 37.4752 132.877 37.2804 133.126 36.9877C133.374 36.695 133.511 36.3234 133.511 35.9394C133.511 35.5553 133.374 35.1838 133.126 34.8911C132.877 34.5984 132.532 34.4036 132.153 34.3415ZM132.153 36.7277C132.048 36.7278 131.945 36.7067 131.849 36.6655C131.753 36.6243 131.666 36.564 131.595 36.4882C131.523 36.4124 131.467 36.3227 131.431 36.2247C131.395 36.1267 131.38 36.0223 131.386 35.9181C131.386 35.8174 131.405 35.7176 131.444 35.6246C131.483 35.5315 131.539 35.447 131.61 35.3757C131.682 35.3045 131.766 35.248 131.859 35.2095C131.952 35.1709 132.052 35.1511 132.153 35.1511C132.272 35.1233 132.395 35.1227 132.514 35.1493C132.634 35.176 132.745 35.2292 132.841 35.305C132.936 35.3808 133.014 35.4773 133.067 35.5871C133.12 35.6969 133.147 35.8174 133.147 35.9394C133.147 36.0614 133.12 36.1818 133.067 36.2917C133.014 36.4015 132.936 36.4979 132.841 36.5737C132.745 36.6495 132.634 36.7028 132.514 36.7294C132.395 36.7561 132.272 36.7555 132.153 36.7277ZM114.76 32.6797C114.443 32.6797 114.14 32.8054 113.916 33.0291C113.692 33.2529 113.566 33.5563 113.566 33.8728C113.566 34.1892 113.692 34.4927 113.916 34.7164C114.14 34.9402 114.443 35.0659 114.76 35.0659C115.077 35.0659 115.38 34.9402 115.604 34.7164C115.828 34.4927 115.954 34.1892 115.954 33.8728C115.954 33.5563 115.828 33.2529 115.604 33.0291C115.38 32.8054 115.077 32.6797 114.76 32.6797Z" fill="#0E0E27"/>
<path d="M114.758 32.2975C114.548 32.2918 114.338 32.3283 114.142 32.405C113.945 32.4817 113.766 32.5969 113.615 32.7439C113.464 32.8909 113.344 33.0666 113.263 33.2607C113.181 33.4548 113.138 33.6634 113.139 33.874C113.101 34.1057 113.113 34.3429 113.176 34.5691C113.239 34.7954 113.35 35.0052 113.503 35.1841C113.655 35.3631 113.844 35.5068 114.057 35.6054C114.27 35.704 114.502 35.755 114.737 35.755C114.972 35.755 115.204 35.704 115.417 35.6054C115.63 35.5068 115.82 35.3631 115.972 35.1841C116.124 35.0052 116.235 34.7954 116.298 34.5691C116.361 34.3429 116.374 34.1057 116.336 33.874C116.336 33.4559 116.17 33.0549 115.874 32.7592C115.578 32.4636 115.177 32.2975 114.758 32.2975ZM114.758 34.641C114.555 34.641 114.36 34.5602 114.216 34.4164C114.072 34.2725 113.991 34.0775 113.991 33.874C113.991 33.6706 114.072 33.4755 114.216 33.3317C114.36 33.1879 114.555 33.107 114.758 33.107C114.962 33.107 115.157 33.1879 115.301 33.3317C115.445 33.4755 115.526 33.6706 115.526 33.874C115.526 34.0775 115.445 34.2725 115.301 34.4164C115.157 34.5602 114.962 34.641 114.758 34.641ZM124.35 40.9047C124.447 41.1191 124.496 41.3515 124.496 41.5865C124.496 41.8216 124.447 42.0539 124.35 42.2683C124.094 42.5666 123.583 42.5665 123.199 42.5665V43.3335H123.625C123.914 43.3628 124.206 43.3196 124.474 43.208C124.742 43.0964 124.977 42.9199 125.16 42.6944C125.325 42.3635 125.411 41.9989 125.411 41.6291C125.411 41.2594 125.325 40.8947 125.16 40.5639L124.35 40.9047Z" fill="#0E0E27"/>
<path d="M103.378 81.2148H23.9594C21.9582 81.2148 20.3359 82.8364 20.3359 84.8367V189.488C20.3359 191.488 21.9582 193.11 23.9594 193.11H103.378C105.379 193.11 107.002 191.488 107.002 189.488V84.8367C107.002 82.8364 105.379 81.2148 103.378 81.2148Z" fill="#F97604"/>
<path d="M103.375 193.495H23.9138C22.8623 193.495 21.8539 193.077 21.1104 192.334C20.3669 191.591 19.9492 190.583 19.9492 189.532V84.8385C19.9715 83.8023 20.399 82.8161 21.1401 82.0913C21.8812 81.3665 22.8769 80.9607 23.9138 80.9609H103.375C104.427 80.9609 105.435 81.3784 106.178 82.1216C106.922 82.8648 107.34 83.8727 107.34 84.9237V189.532C107.34 190.583 106.922 191.591 106.178 192.334C105.435 193.077 104.427 193.495 103.375 193.495ZM23.9138 81.6001C23.4883 81.6001 23.067 81.6839 22.6739 81.8466C22.2809 82.0093 21.9237 82.2479 21.6228 82.5486C21.322 82.8493 21.0834 83.2063 20.9205 83.5992C20.7577 83.9921 20.6739 84.4132 20.6739 84.8385V189.532C20.6739 190.391 21.0153 191.215 21.6228 191.822C22.2304 192.429 23.0545 192.771 23.9138 192.771H103.375C103.801 192.771 104.222 192.687 104.615 192.524C105.008 192.361 105.365 192.123 105.666 191.822C105.967 191.521 106.206 191.164 106.368 190.771C106.531 190.379 106.615 189.957 106.615 189.532V84.8385C106.615 84.4132 106.531 83.9921 106.368 83.5992C106.206 83.2063 105.967 82.8493 105.666 82.5486C105.365 82.2479 105.008 82.0093 104.615 81.8466C104.222 81.6839 103.801 81.6001 103.375 81.6001H23.9138Z" fill="#0E0E27"/>
<path d="M98.4239 88.4609H29.7904C28.8016 88.4609 28 89.2622 28 90.2506V180.542C28 181.53 28.8016 182.332 29.7904 182.332H98.4239C99.4127 182.332 100.214 181.53 100.214 180.542V90.2506C100.214 89.2622 99.4127 88.4609 98.4239 88.4609Z" fill="white"/>
<path d="M85.9502 172.336H73.8008V174.126H85.9502V172.336Z" fill="#0E0E27"/>
<path d="M67.8761 172.336H42V174.126H67.8761V172.336Z" fill="#0E0E27"/>
<path d="M85.907 166.199H61.9492V167.989H85.907V166.199Z" fill="#0E0E27"/>
<path d="M56.0251 166.199H42V167.989H56.0251V166.199Z" fill="#0E0E27"/>
<path d="M68.2085 112.832C68.2085 115.967 67.2785 119.031 65.5359 121.638C63.7934 124.245 61.3167 126.276 58.419 127.476C55.5213 128.676 52.3328 128.99 49.2566 128.378C46.1804 127.766 43.3548 126.257 41.1369 124.04C38.9191 121.823 37.4088 118.999 36.7969 115.924C36.185 112.849 36.4991 109.662 37.6993 106.766C38.8996 103.869 40.9322 101.394 43.54 99.6518C46.1479 97.9101 49.2139 96.9805 52.3504 96.9805C56.5562 96.9805 60.5898 98.6505 63.5638 101.623C66.5378 104.596 68.2085 108.628 68.2085 112.832Z" fill="white"/>
<path d="M21.0596 189.53C21.0596 189.53 23.0632 189.53 23.7879 188.337C23.7879 188.337 28.9034 189.913 28.7755 187.016C28.6476 184.118 20.6333 183.649 20.6333 183.649C19.9557 183.309 19.2581 183.011 18.5444 182.755C17.0848 182.626 15.6166 182.875 14.2815 183.479C12.3205 184.331 9.0807 186.036 9.0807 186.036C9.0807 186.036 10.7859 183.99 10.6154 182.84C10.4448 181.689 8.48389 181.306 6.73608 182.84C4.98827 184.374 3.24046 184.331 2.21735 187.101C1.47126 189.404 0.873229 191.752 0.426916 194.132C-0.0846374 195.921 2.00421 196.731 6.82134 202.654C11.6385 208.577 18.5018 204.23 28.605 203.25C35.9799 201.929 42.6025 197.921 47.1915 192.001H33.1664C25.5783 191.959 22.9779 193.152 21.0596 189.53Z" fill="white"/>
<path d="M33.1661 191.746C31.5035 191.746 30.0967 191.746 28.9031 191.746C24.9386 191.746 23.1481 191.959 21.8266 189.957C22.6573 189.879 23.4308 189.5 24.0007 188.891C24.8959 189.147 27.3258 189.701 28.5621 188.891C28.7994 188.698 28.9857 188.449 29.1046 188.167C29.2235 187.884 29.2714 187.577 29.2441 187.272C29.2441 184.375 21.9545 183.608 20.7183 183.48C20.292 183.48 19.0131 182.713 18.5868 182.585C17.1241 182.483 15.659 182.746 14.3238 183.352C13.2155 183.821 11.7234 184.545 10.6151 185.142C11.0341 184.51 11.2566 183.769 11.2545 183.011C11.2065 182.728 11.0818 182.463 10.894 182.245C10.7061 182.027 10.4623 181.865 10.1888 181.776C9.56065 181.632 8.90621 181.65 8.28717 181.829C7.66812 182.008 7.10487 182.341 6.65052 182.798C6.13817 183.251 5.58113 183.651 4.98797 183.991C4.30367 184.3 3.68751 184.741 3.17526 185.29C2.663 185.839 2.26485 186.483 2.00391 187.187C1.42576 188.671 0.955609 190.195 0.597136 191.746C0.465439 192.507 0.294696 193.261 0.0855827 194.005C-0.298083 195.326 0.511878 196.135 2.30232 198.01C3.32542 199.118 4.77483 200.609 6.56526 202.868C7.36967 203.911 8.41294 204.745 9.6073 205.302C10.8017 205.858 12.1122 206.119 13.4286 206.063C15.8628 205.952 18.278 205.581 20.633 204.956C23.2913 204.352 25.9811 203.897 28.69 203.592C36.1765 202.239 42.9006 198.173 47.5748 192.172C47.6233 192.112 47.6496 192.037 47.6496 191.959C47.6496 191.882 47.6233 191.807 47.5748 191.746C47.5472 191.668 47.4949 191.601 47.4257 191.555C47.3565 191.508 47.2742 191.486 47.1912 191.491L33.1661 191.746ZM28.6473 202.782C25.8953 203.101 23.1629 203.57 20.4625 204.189C14.6649 205.424 10.4872 206.319 7.24734 202.356C5.41427 200.098 3.96487 198.564 2.98439 197.456C1.23658 195.667 0.767654 195.07 0.980802 194.26C1.2099 193.505 1.39494 192.736 1.53498 191.959C1.7975 190.348 2.21142 188.764 2.77124 187.23C2.99846 186.618 3.34551 186.058 3.79204 185.583C4.23857 185.107 4.7756 184.725 5.37164 184.46C6.01677 184.106 6.61776 183.677 7.16208 183.182C7.73408 182.619 8.49232 182.286 9.29355 182.244H9.84773C9.9735 182.285 10.0867 182.357 10.1763 182.454C10.2659 182.551 10.3289 182.67 10.3593 182.798C10.1593 183.881 9.65682 184.886 8.90988 185.696C8.84384 185.773 8.80755 185.871 8.80755 185.973C8.80755 186.074 8.84384 186.172 8.90988 186.25C8.986 186.299 9.07485 186.326 9.16566 186.326C9.25647 186.326 9.34533 186.299 9.42144 186.25C9.42144 186.25 12.7039 184.503 14.6222 183.693C15.8437 183.226 17.1609 183.065 18.4589 183.224C18.7147 183.224 19.7804 183.778 20.4625 184.077C23.4039 184.332 28.1358 185.355 28.221 187.059C28.244 187.235 28.2207 187.414 28.1535 187.579C28.0862 187.743 27.9773 187.887 27.8374 187.997C26.9422 188.678 24.5975 187.997 23.7876 187.997C23.7115 187.947 23.6226 187.921 23.5318 187.921C23.441 187.921 23.3521 187.947 23.276 187.997C22.7218 188.934 20.974 188.977 20.9314 188.977C20.8784 188.95 20.82 188.937 20.7609 188.937C20.7017 188.937 20.6434 188.95 20.5904 188.977C20.5597 189.044 20.5438 189.116 20.5438 189.19C20.5438 189.263 20.5597 189.336 20.5904 189.403C22.2103 192.428 24.427 192.343 28.7752 192.172C30.0115 192.172 31.4183 192.172 33.0382 192.172H46.2533C41.8759 197.737 35.6143 201.511 28.6473 202.782Z" fill="#0E0E27"/>
<path d="M9.12249 185.523C8.2699 186.29 6.05317 188.037 6.01054 188.079C6.15835 189.796 5.94041 191.524 5.37109 193.15V193.491H5.71213C6.71656 193.914 7.53412 194.686 8.01412 195.664C8.04681 195.739 8.10036 195.803 8.16839 195.848C8.23641 195.894 8.31604 195.918 8.39779 195.92C8.4349 195.956 8.47823 195.985 8.52568 196.005C8.0121 194.96 7.17489 194.108 6.13842 193.576C6.61443 192.004 6.80218 190.358 6.69261 188.719L9.67667 186.29C9.72681 186.256 9.76922 186.212 9.8011 186.161C9.83297 186.11 9.85359 186.052 9.86158 185.992C9.86957 185.933 9.86475 185.872 9.84744 185.814C9.83014 185.756 9.80073 185.703 9.76118 185.657C9.72163 185.611 9.67283 185.575 9.61803 185.549C9.56322 185.524 9.50365 185.511 9.44326 185.51C9.38288 185.509 9.32305 185.522 9.26775 185.546C9.21245 185.57 9.16294 185.606 9.12249 185.651V185.523ZM20.5046 183.222C18.9804 183.684 17.5409 184.389 16.2416 185.31C15.3191 187.092 15.0048 189.127 15.3464 191.105C15.6285 192.666 16.0275 194.205 16.54 195.707C16.5779 195.808 16.6495 195.892 16.7427 195.947C16.8359 196.001 16.945 196.022 17.0516 196.005C17.1176 195.928 17.1539 195.83 17.1539 195.728C17.1539 195.627 17.1176 195.528 17.0516 195.451C16.5342 194.07 16.1488 192.644 15.9006 191.19C15.7002 189.351 16.1042 187.496 17.0516 185.906C18.1964 185.089 19.4622 184.457 20.803 184.032C20.9104 183.992 20.9977 183.911 21.0456 183.808C21.0936 183.704 21.0983 183.585 21.0587 183.478C21.0192 183.37 20.9386 183.283 20.8346 183.235C20.7307 183.187 20.612 183.182 20.5046 183.222Z" fill="#0E0E27"/>
<path d="M8.52562 187.1C8.54232 186.994 8.52175 186.885 8.4674 186.791C8.41304 186.698 8.32821 186.627 8.22722 186.589C8.17365 186.576 8.11804 186.576 8.06416 186.587C8.01027 186.598 7.95937 186.62 7.9149 186.652C7.87043 186.685 7.83343 186.726 7.80641 186.774C7.77939 186.822 7.76298 186.875 7.75829 186.93C7.24707 190.707 7.50812 194.548 8.52562 198.222C8.55155 198.304 8.60219 198.377 8.67076 198.431C8.73933 198.484 8.82255 198.515 8.90929 198.52C8.96137 198.506 9.00987 198.481 9.05162 198.446C9.09337 198.412 9.12742 198.37 9.15156 198.321C9.1757 198.273 9.18939 198.22 9.19171 198.166C9.19404 198.112 9.18496 198.059 9.16507 198.008C8.22593 194.451 8.00851 190.743 8.52562 187.1ZM19.6945 183.223C19.3961 183.223 12.5754 184.544 11.4244 187.782C10.843 190.808 10.843 193.917 11.4244 196.943C11.435 197.037 11.48 197.124 11.5508 197.187C11.6217 197.25 11.7133 197.285 11.8081 197.284C11.8081 197.284 12.1491 197.071 12.1491 196.815C11.5815 193.931 11.5815 190.964 12.1491 188.08C13.1296 185.268 19.6945 184.032 19.7798 184.032C19.8651 184.004 19.9394 183.95 19.992 183.877C20.0446 183.805 20.073 183.717 20.073 183.627C20.073 183.538 20.0446 183.45 19.992 183.378C19.9394 183.305 19.8651 183.251 19.7798 183.223H19.6945Z" fill="#0E0E27"/>
<path d="M45.0853 142.099L45.0536 142.131C44.6261 141.197 44.3569 140.136 44.2461 138.964C44.3569 140.12 44.6578 141.165 45.0853 142.099ZM55.2503 128.435C56.2497 128.435 57.2082 128.038 57.9149 127.331C58.6216 126.625 59.0186 125.666 59.0186 124.667C59.0186 123.667 58.6216 122.709 57.9149 122.002C57.2082 121.295 56.2497 120.898 55.2503 120.898C54.2508 120.898 53.2923 121.295 52.5856 122.002C51.8789 122.709 51.4819 123.667 51.4819 124.667C51.4819 125.666 51.8789 126.625 52.5856 127.331C53.2923 128.038 54.2508 128.435 55.2503 128.435Z" fill="#0E0E27"/>
<path d="M66.6355 115.164H53.3671C47.6038 115.164 44.168 118.6 44.168 124.363V137.632C44.168 139.357 44.4688 140.862 45.0546 142.128C46.4163 145.137 49.3296 146.831 53.3671 146.831H66.6355C72.3988 146.831 75.8346 143.395 75.8346 137.632V124.363C75.8346 118.6 72.3988 115.164 66.6355 115.164ZM73.2538 131.789C72.0188 130.728 70.0238 130.728 68.7888 131.789L62.2021 137.442C60.9671 138.502 58.9721 138.502 57.7371 137.442L57.1988 136.998C56.0746 136.017 54.2855 135.922 53.0188 136.777L47.0971 140.751C46.7488 139.864 46.543 138.835 46.543 137.632V124.363C46.543 119.898 48.9021 117.539 53.3671 117.539H66.6355C71.1005 117.539 73.4596 119.898 73.4596 124.363V131.963L73.2538 131.789Z" fill="#0E0E27"/>
<path d="M90.7811 108.011C90.2939 107.728 89.8562 107.367 89.4851 106.943C89.5226 106.353 89.6633 105.773 89.9006 105.232C90.3371 104 90.8306 102.605 90.0386 101.521C89.2466 100.436 87.7511 100.471 86.4386 100.501C85.8586 100.56 85.2728 100.521 84.7061 100.384C84.4042 99.8924 84.1886 99.3531 84.0686 98.7891C83.6966 97.5216 83.2721 96.0891 81.9686 95.6601C80.7116 95.2551 79.5476 96.1461 78.5186 96.9291C78.0746 97.3346 77.5601 97.6554 77.0006 97.8756C76.4352 97.6572 75.915 97.3363 75.4661 96.9291C74.4401 96.1506 73.2806 95.2506 72.0176 95.6616C70.7171 96.0846 70.2926 97.5216 69.9176 98.7891C69.7978 99.3513 69.5843 99.8893 69.2861 100.381C68.7184 100.517 68.1317 100.558 67.5506 100.501C66.2336 100.465 64.7501 100.426 63.9506 101.521C63.1511 102.616 63.6506 104 64.0886 105.23C64.3293 105.771 64.472 106.351 64.5101 106.942C64.1397 107.366 63.7025 107.727 63.2156 108.011C62.1176 108.761 60.8711 109.615 60.8711 111.001C60.8711 112.387 62.1176 113.237 63.2156 113.99C63.7023 114.273 64.1396 114.634 64.5101 115.058C64.476 115.649 64.3373 116.229 64.1006 116.771C63.6656 118.001 63.1736 119.396 63.9641 120.481C64.7546 121.565 66.2456 121.531 67.5641 121.501C68.1445 121.441 68.7309 121.48 69.2981 121.618C69.5987 122.109 69.8137 122.648 69.9341 123.212C70.3061 124.48 70.7306 125.912 72.0341 126.341C72.2431 126.408 72.4611 126.443 72.6806 126.443C73.7354 126.292 74.7158 125.812 75.4826 125.072C75.9266 124.667 76.4411 124.346 77.0006 124.126C77.566 124.344 78.0862 124.665 78.5351 125.072C79.5626 125.857 80.7266 126.752 81.9851 126.34C83.2856 125.917 83.7101 124.48 84.0851 123.214C84.2053 122.65 84.4204 122.112 84.7211 121.621C85.2866 121.483 85.8715 121.442 86.4506 121.501C87.7676 121.532 89.2511 121.576 90.0506 120.481C90.8501 119.386 90.3506 118.001 89.9126 116.77C89.6736 116.229 89.5309 115.651 89.4911 115.061C89.8617 114.636 90.2995 114.275 90.7871 113.992C91.8851 113.242 93.1316 112.387 93.1316 111.001C93.1316 109.615 91.8806 108.763 90.7811 108.011Z" fill="#4CD964"/>
<path d="M75.4993 115.125C75.3515 115.125 75.2052 115.096 75.0687 115.04C74.9323 114.983 74.8084 114.9 74.7043 114.795L71.7043 111.795C71.5056 111.582 71.3974 111.3 71.4025 111.008C71.4077 110.717 71.5257 110.439 71.7318 110.233C71.938 110.026 72.216 109.908 72.5075 109.903C72.799 109.898 73.081 110.006 73.2943 110.205L75.6043 112.515L80.8243 108.6C81.063 108.421 81.363 108.344 81.6584 108.386C81.9538 108.429 82.2203 108.586 82.3993 108.825C82.5783 109.064 82.6552 109.364 82.613 109.659C82.5708 109.954 82.413 110.221 82.1743 110.4L76.1743 114.9C75.9795 115.046 75.7427 115.125 75.4993 115.125Z" fill="white"/>
</g>
<defs>
<clipPath id="clip0_12990_25805">
<rect width="214" height="222" fill="white"/>
</clipPath>
</defs>
</svg>
