<svg width="197" height="186" viewBox="0 0 197 186" fill="none" xmlns="http://www.w3.org/2000/svg">
<path d="M164.055 168.012L163.531 169.386C163.296 169.021 163.007 168.665 162.673 168.353C163.151 168.262 163.614 168.149 164.055 168.012Z" fill="#FFD600"/>
<path d="M154.746 135.26C154.279 136.035 153.324 136.36 152.613 135.985C151.899 135.607 151.702 134.673 152.169 133.897C152.639 133.117 153.594 132.791 154.309 133.169C155.019 133.545 155.216 134.479 154.746 135.26ZM159.887 135.471C159.42 136.247 158.464 136.572 157.754 136.196C157.04 135.819 156.842 134.884 157.309 134.108C157.779 133.328 158.735 133.003 159.449 133.38C160.159 133.756 160.357 134.69 159.887 135.471ZM153.421 140.663C152.954 141.439 151.999 141.764 151.289 141.388C150.574 141.011 150.377 140.076 150.844 139.3C151.314 138.52 152.269 138.195 152.984 138.572C153.694 138.948 153.891 139.882 153.421 140.663Z" fill="#09B96D"/>
<path d="M178.436 129.555C178.089 129.065 180.086 131.913 172.2 120.64C172.094 120.531 171.921 120.047 171.381 120.063L147.125 120.807L145.584 120.852L144.18 120.898C143.861 120.906 143.588 121.111 143.481 121.407L133.134 151.317C133.688 151.204 134.258 151.097 134.85 150.999L144.423 123.35L149.365 130.805L143.094 149.814C143.656 149.746 144.21 149.678 144.757 149.617L146.518 144.272L159.591 144.523C159.953 144.523 160.226 144.295 160.327 144.007C164.869 130.439 164.609 131.435 164.609 131.139L176.772 130.875L165.869 159.099C166.325 159.456 166.704 159.873 167.023 160.336L178.593 130.365C178.715 130.053 178.616 129.812 178.436 129.555ZM159.067 142.989L147.019 142.769L150.754 131.443L163.045 131.177L159.067 142.989ZM150.602 129.924L145.592 122.378C171.87 121.569 144.399 122.413 171.016 121.596L176.452 129.363L150.602 129.924Z" fill="#FFD600"/>
<path d="M195.408 5.62868L138.782 35.1372C138.215 35.4289 138.235 36.2624 138.851 36.5188L159.28 44.6569L165.118 61.3812C165.348 61.9584 166.086 62.0658 166.423 61.6014C166.532 61.4929 165.413 62.9645 175.245 49.7207C175.813 49.9478 192.326 56.5489 193.305 56.9402C193.808 57.1498 194.329 56.7713 194.345 56.2721L196.547 6.36504C196.57 5.80587 195.931 5.34625 195.408 5.62868ZM140.953 35.7217L192.075 9.07528L159.682 43.1842L140.953 35.7217ZM165.406 44.7481C165.346 44.8388 165.224 45.1608 165.224 45.2947L165.118 56.7732L160.752 44.2622L186.716 16.925L165.406 44.7481ZM166.613 58.8078L166.735 46.3195L173.787 49.1437L166.613 58.8078ZM192.872 55.1334C190.243 54.0822 202.384 58.9363 167.22 44.8771L194.922 8.7109L192.872 55.1334Z" fill="#0166FF"/>
<path d="M185.789 83.3146C186.943 71.9499 183.034 60.7675 178.782 51.1338L176.763 50.3291C181.158 60.0919 185.455 71.5931 184.279 83.1627C184.157 84.3393 183.922 85.5009 183.595 86.6016C180.373 78.5484 170.343 74.246 165.171 81.1205C163.25 83.679 162.665 87.0724 163.637 89.9572C166.106 97.2039 177.994 100.131 183.413 90.8758C186.202 101.898 183.731 116.707 172.739 119.959C172.428 120.05 172.223 120.331 172.2 120.642L172.739 121.417C172.896 121.451 173.025 121.463 173.18 121.417C185.495 117.737 188.211 100.932 184.415 88.8488C185.114 87.1483 185.592 85.2428 185.789 83.3146ZM165.08 89.4713C164.26 87.0496 164.761 84.2027 166.385 82.0316C170.793 76.2028 179.083 80.2739 181.925 86.5561C182.229 87.2318 182.517 87.9757 182.791 88.7729C178.371 98.4684 167.231 95.8272 165.08 89.4713ZM94.8892 54.8152C94.824 55.5858 94.1323 56.2686 93.5377 56.7772C93.2189 57.0497 93.1811 57.529 93.4539 57.8477C93.7253 58.1662 94.205 58.204 94.5237 57.9315C95.34 57.2343 96.2904 56.2646 96.4016 54.9431C96.524 53.4911 95.9244 52.803 92.3248 46.6087C92.1135 46.2458 91.6487 46.1234 91.2869 46.3336C90.9244 46.5445 90.8013 47.009 91.0126 47.3715C94.4873 53.4036 94.9661 53.8913 94.8892 54.8152ZM80.2865 40.5254C81.6684 39.9204 83.3595 40.0917 84.5931 40.9613C84.9328 41.2023 85.4076 41.1228 85.6511 40.7789C85.8927 40.436 85.8104 39.9627 85.4679 39.721C83.8095 38.5504 81.5372 38.3209 79.6771 39.1346C79.2931 39.3025 79.1181 39.7503 79.2864 40.1343C79.454 40.5183 79.9018 40.694 80.2865 40.5254ZM94.3354 40.7003C95.4222 40.2678 96.6863 40.2203 97.802 40.5699C98.2024 40.6929 98.6279 40.4716 98.7532 40.072C98.8785 39.6717 98.6561 39.2458 98.2558 39.1205C96.7908 38.6623 95.1998 38.7227 93.7735 39.2895C93.3842 39.4445 93.1937 39.886 93.3494 40.2755C93.5026 40.6625 93.9414 40.8564 94.3354 40.7003Z" fill="white"/>
<path d="M82.2203 46.0035C83.0659 46.0035 83.7513 45.318 83.7513 44.4724C83.7513 43.6269 83.0659 42.9414 82.2203 42.9414C81.3747 42.9414 80.6893 43.6269 80.6893 44.4724C80.6893 45.318 81.3747 46.0035 82.2203 46.0035Z" fill="white"/>
<path d="M96.4999 43.0664C95.6541 43.0664 94.9685 43.7521 94.9685 44.5978C94.9685 45.4437 95.6541 46.1293 96.4999 46.1293C97.3458 46.1293 98.0314 45.4437 98.0314 44.5978C98.0314 43.7521 97.3458 43.0664 96.4999 43.0664ZM90.5145 62.1201C90.9215 62.019 91.1691 61.6071 91.0683 61.2001C90.9667 60.7927 90.5538 60.5447 90.1483 60.6463C88.9914 60.9335 87.9625 59.8137 88.3504 58.6843C88.4861 58.2877 88.2748 57.8558 87.8782 57.7198C87.4816 57.583 87.0501 57.7946 86.9137 58.1913C86.1449 60.4341 88.1624 62.7026 90.5145 62.1201Z" fill="white"/>
<path d="M167.023 160.338C165.881 158.679 163.78 157.699 161.899 157.286C164.583 155.109 163.519 151.309 160.57 149.732C158.634 148.692 156.387 148.7 154.444 148.791C148.433 149.075 134.915 150.534 129.316 152.222C129.232 151.645 129.141 151.076 129.042 150.499C128.807 149.132 127.175 148.206 125.391 148.419C124.654 148.51 123.842 148.639 122.999 148.791L117.776 116.952C117.708 116.534 117.313 116.261 116.903 116.322C116.486 116.39 116.205 116.785 116.273 117.194L121.511 149.094C120.137 149.421 119.272 150.43 119.401 151.569C119.431 151.858 119.454 152.139 119.484 152.427C98.3647 154.082 80.4865 153.945 59.9513 153.756L59.0783 114.059C59.0707 113.649 58.729 113.323 58.3191 113.323C58.3191 113.323 58.3115 113.323 58.3039 113.323C57.8864 113.33 57.5523 113.672 57.5599 114.097L58.4329 153.74C57.9124 153.735 52.4915 153.684 52.838 153.687C52.4204 153.687 52.0788 154.029 52.0788 154.439C52.0712 154.864 52.4128 155.206 52.8304 155.206C76.9513 155.427 96.4552 155.758 119.636 153.938C120.403 162.706 120.016 171.505 119.355 179.886C101.245 180.783 89.3638 181.041 75.7949 181.685C70.291 181.943 64.5898 182.216 58.9947 182.201C46.5142 182.179 37.1689 181.465 30.4656 172.476C26.1687 166.716 27.2509 157.87 27.0873 151.364C26.8894 141.196 27.455 133.601 27.2619 123.708C27.0645 113.718 27.391 103.385 33.6389 96.5454C37.4119 92.4233 43.2498 89.5384 50.0974 88.4225C56.8615 87.3216 69.957 90.2368 74.3373 91.2237C74.3449 91.3375 74.3753 91.4591 74.4436 91.5653C76.8349 95.4067 81.3064 97.912 85.831 97.9499H85.9373C90.4011 97.9499 94.8346 95.5585 97.2867 91.8235C102.988 90.8214 114.747 89.3182 121.276 90.3811C128.116 91.5046 133.962 94.3894 137.727 98.4965C140.43 101.472 143.276 109.595 145.584 120.854L147.125 120.808C145.675 113.672 142.775 101.799 138.851 97.4792C134.85 93.114 128.693 90.0622 121.519 88.8779C114.618 87.7543 102.191 89.3941 96.5807 90.4114C96.3757 90.4494 96.2011 90.5633 96.0948 90.7227L95.5938 79.267C95.5938 79.2442 95.5862 79.229 95.5862 79.2062C96.2922 78.9102 96.9754 78.561 97.6435 78.1586C103.967 74.3325 106.533 67.1888 105.273 56.9098C104.246 48.5597 102.797 40.7957 101.864 32.3358C105.182 34.34 107.93 30.0431 109.183 27.5834C113.922 18.3003 111.223 8.44596 100.885 4.79348C94.8421 2.6541 83.83 2.65231 77.5713 5.08205C73.8439 6.53198 70.4428 9.20423 68.8031 12.8786C68.6436 13.2354 68.4918 13.6074 68.3172 13.9566C69.5318 15.9001 70.701 17.8966 71.7258 19.9539C72.3863 21.2749 73.0771 22.8235 72.8798 24.4786C72.6985 26.081 71.9852 27.4848 70.3973 27.4848C68.9701 27.4848 67.4669 26.217 66.685 24.8885C65.8107 23.4012 66.2621 19.0914 66.5028 15.6723C64.1408 16.5241 59.6667 14.9305 55.7379 17.1147C51.3579 19.5216 49.7019 25.8316 53.1796 31.4552C53.4529 31.9031 53.7566 32.4042 53.9008 32.9051C55.2369 33.8693 56.9526 34.5146 58.8733 34.712C59.1845 34.7499 59.4123 35.0308 59.3819 35.3421C59.3515 35.6306 59.101 35.8508 58.8125 35.8508H58.7594C56.8995 35.661 55.1989 35.0764 53.7945 34.2034C53.1964 35.25 51.8016 35.798 50.849 39.4416C48.8438 46.9751 54.2528 56.0473 61.1431 56.4922C62.4099 56.7946 63.6784 56.7473 65.03 56.2645C65.8196 63.4537 68.2489 69.7471 72.0674 74.4539C72.9114 75.489 73.7886 76.5878 74.8611 77.4602L74.4968 89.6978C69.8811 88.6654 56.8235 85.7881 49.8469 86.9194C42.6728 88.096 36.516 91.1477 32.5153 95.5205C25.8954 102.778 25.5387 113.437 25.7436 123.739C25.9366 133.568 25.3714 141.181 25.569 151.395C25.7407 158.096 24.6053 167.147 29.2509 173.387C36.3718 182.938 46.0663 183.689 58.9872 183.72C60.345 183.688 62.0668 183.854 75.8708 183.196C91.3568 182.505 102.695 182.222 119.234 181.412L119.075 183.256C118.928 185.034 120.918 186.159 122.961 185.982C125.003 185.723 125.324 185.674 125.808 185.625C127.243 185.45 128.359 184.608 128.579 183.515C128.67 183.059 128.754 182.596 128.837 182.141C138.216 182.468 152.395 186.875 157.397 183.044C158.315 182.338 158.847 181.412 158.976 180.281C159.128 179.028 158.24 177.699 157.154 176.75C157.913 176.637 158.733 176.5 159.652 176.325C161.678 175.938 163.295 174.868 163.979 173.471C164.865 171.663 163.998 169.589 162.673 168.354C164.658 167.976 166.512 167.243 167.471 165.485C168.336 163.921 168.093 161.901 167.023 160.338ZM73.2441 73.4973C69.5622 68.9576 67.224 62.8388 66.5028 55.8166L66.4193 55.065C66.3743 54.5258 65.7607 54.2487 65.2958 54.4804C65.2958 54.488 65.2958 54.488 65.2958 54.488C61.7218 56.481 57.4005 53.8432 57.4005 49.7357C57.4005 46.608 60.0424 43.6397 62.8361 43.6397C65.4638 43.6397 66.6787 44.0073 67.429 44.452C67.7858 44.6645 68.2565 44.5431 68.469 44.1863C68.674 43.8371 68.5677 43.4044 68.2413 43.1766C68.8649 41.4096 68.6364 40.3027 70.1164 36.9059C70.2834 36.5339 72.1433 33.2164 72.1433 33.0039C73.6085 34.6892 76.0606 35.1143 78.2774 34.9397C81.3064 34.712 84.2519 33.5581 86.6433 31.6678C87.0153 31.3792 87.4935 31.0528 87.9111 31.2654C88.2072 31.4096 88.3286 31.7512 88.4653 32.0474C89.2017 33.6795 91.1147 34.5525 92.8912 34.4234C94.6676 34.2945 96.2922 33.3227 97.5827 32.0853C98.4028 31.2989 99.1388 30.5749 100.209 31.1287C101.112 40.0728 102.711 48.4396 103.762 57.0996C104.947 66.7257 102.624 73.3759 96.854 76.8605C92.2383 79.6542 86.0056 79.7225 81.3292 77.0351C80.9648 76.8225 80.5017 76.9515 80.2891 77.3159C80.0842 77.6803 80.2056 78.1434 80.57 78.3484C84.4884 80.6108 89.4534 81.2233 94.0982 79.7453L94.5841 90.9656C94.6027 91.4671 95.1119 91.8079 95.5558 91.6413C93.3087 94.5791 89.6344 96.4315 85.9373 96.4315H85.8462C81.8986 96.4012 78.0041 94.2452 75.848 90.9428C75.924 90.8289 75.9847 90.7 75.9923 90.5481C76.1383 85.4091 76.3719 78.2479 76.3719 77.1565C76.3871 76.9135 76.2884 76.6631 76.0758 76.5036C75.0399 75.7346 74.1303 74.593 73.2441 73.4973ZM127.091 183.218C127.015 183.575 126.484 184.016 125.634 184.114C124.747 184.218 123.459 184.394 122.787 184.471C122.028 184.555 121.269 184.35 120.843 183.94C120.661 183.758 120.57 183.575 120.593 183.385C121.473 173.198 122.126 162.266 120.912 151.402C120.866 151.045 121.306 150.681 121.921 150.552C123.276 150.281 124.333 150.074 125.581 149.922C126.567 149.8 127.463 150.279 127.547 150.757C129.391 161.56 129.232 172.476 127.091 183.218ZM164.814 166.054C163.073 167.069 159.984 167.124 159.629 167.231C153.561 167.878 151.08 167.894 143.087 168.134C142.669 168.149 142.343 168.506 142.358 168.924C142.373 169.334 142.707 169.652 143.117 169.652C152.833 169.434 156.02 169.148 160.092 168.711C161.655 168.829 163.421 171.144 162.62 172.803C162.157 173.744 160.881 174.541 159.371 174.83C152.396 176.166 151.256 175.426 143.861 174.815C143.451 174.784 143.079 175.096 143.041 175.513C143.011 175.931 143.322 176.295 143.74 176.333C149.244 176.77 151.113 177.302 154.785 177.016L154.793 177.024C156.008 177.479 157.587 179.119 157.473 180.098C156.694 186.267 138.404 180.982 129.103 180.63C130.591 171.71 130.728 162.683 129.528 153.725C129.566 153.718 129.596 153.725 129.634 153.71C135.104 152.001 148.786 150.576 154.512 150.309C156.258 150.225 158.255 150.21 159.857 151.068C161.215 151.797 162.339 153.505 161.777 155.001C161.344 156.147 160.115 156.777 158.816 157.172C157.276 157.414 156.695 158.23 144.119 159.017C143.702 159.047 143.39 159.411 143.421 159.829C143.451 160.231 143.785 160.535 144.18 160.535C144.195 160.535 144.218 160.535 144.233 160.527C147.808 160.296 151.664 160.249 157.685 159.017C158.156 158.918 158.649 158.804 159.135 158.66C161.334 158.326 164.174 159.457 165.284 160.611C166.876 162.229 167.038 164.808 164.814 166.054Z" fill="white"/>
<path d="M63.6807 45.9037C62.1283 46.6621 61.1779 48.4536 61.421 50.1636C61.4784 50.5654 61.8468 50.866 62.2795 50.8086C62.6947 50.7493 62.9831 50.3649 62.9245 49.9501C62.7733 48.8907 63.3849 47.7375 64.3465 47.2678C64.7238 47.084 64.8795 46.6291 64.6957 46.2525C64.5125 45.8755 64.0559 45.7206 63.6807 45.9037ZM70.6327 26.3211C71.3842 26.1617 71.6575 25.1596 71.7486 24.3472C71.908 23.0036 71.2931 21.6371 70.7086 20.4604C69.79 18.6232 68.7576 16.824 67.672 15.0703C67.5212 17.9322 66.9546 23.0977 67.672 24.3093C68.4159 25.5771 69.7672 26.4957 70.6327 26.3211Z" fill="white"/>
<path d="M15.8916 10.7314C15.9546 10.6161 16.0228 10.5038 16.0947 10.3941C17.1734 8.46653 17.1912 5.6145 15.3111 4.08284C14.7354 3.61334 15.1118 2.68103 15.8486 2.73726C18.2595 2.92037 20.5103 2.06854 22.5668 0.20364C23.2404 -0.407712 24.2306 0.483251 23.6871 1.21783C22.5602 2.73874 22.7433 5.46993 24.103 7.43603C24.4493 7.93698 24.0933 8.61904 23.4891 8.62704C21.3169 8.65669 18.559 9.4696 17.3943 11.181C17.3313 11.2919 17.2646 11.4012 17.1942 11.5095C16.6669 12.3205 15.4254 11.5811 15.8916 10.7314ZM17.4247 4.23074C18.1646 5.43175 18.4656 6.93376 18.2951 8.42872C19.4754 7.7652 20.8706 7.36115 22.2169 7.19509C21.5586 5.80984 21.311 4.26855 21.4889 2.87738C20.196 3.63172 18.8281 4.08803 17.4247 4.23074Z" fill="#BCC4CC"/>
<path d="M13.8729 181.123C11.4849 181.123 9.54254 179.184 9.54254 176.799C9.54254 174.411 11.4849 172.469 13.8729 172.469C16.2571 172.469 18.1972 174.411 18.1972 176.799C18.1972 179.184 16.2571 181.123 13.8729 181.123ZM13.8729 173.987C12.3227 173.987 11.0609 175.249 11.0609 176.799C11.0609 178.347 12.3227 179.605 13.8729 179.605C15.4201 179.605 16.6789 178.347 16.6789 176.799C16.6789 175.249 15.4201 173.987 13.8729 173.987Z" fill="#FFD600"/>
<path d="M33.1985 54.062H25.4575C26.2349 53.2005 26.7207 52.0717 26.7207 50.8232C26.7207 48.1446 24.5409 45.9648 21.8624 45.9648C20.1717 45.9648 18.6851 46.8345 17.8138 48.1478C16.9425 46.8345 15.4559 45.9648 13.7652 45.9648C11.0867 45.9648 8.9069 48.1446 8.9069 50.8232C8.9069 52.0717 9.39435 53.2005 10.1701 54.062H2.42916C1.08988 54.062 0 55.1519 0 56.4912V61.3495C0 62.6888 1.08988 63.7786 2.42916 63.7786H3.23887V80.7827C3.23887 82.122 4.32875 83.2119 5.66803 83.2119H16.1944H19.4332H29.9596C31.2989 83.2119 32.3887 82.122 32.3887 80.7827V63.7786H33.1985C34.5377 63.7786 35.6276 62.6888 35.6276 61.3495V56.4912C35.6276 55.1519 34.5377 54.062 33.1985 54.062ZM21.8624 47.5843C23.6486 47.5843 25.1013 49.0369 25.1013 50.8232C25.1013 52.6094 23.6486 54.062 21.8624 54.062H19.4332H18.6235V50.8232C18.6235 49.0369 20.0762 47.5843 21.8624 47.5843ZM10.5263 50.8232C10.5263 49.0369 11.979 47.5843 13.7652 47.5843C15.5515 47.5843 17.0041 49.0369 17.0041 50.8232V54.062H16.1944H13.7652C11.979 54.062 10.5263 52.6094 10.5263 50.8232ZM1.61944 61.3495V56.4912C1.61944 56.0458 1.98219 55.6815 2.42916 55.6815H13.7652H15.3846V62.1592H11.4365H4.04859H2.42916C1.98219 62.1592 1.61944 61.7948 1.61944 61.3495ZM4.85831 80.7827V63.7786H11.4381H15.3863V81.5925H5.66965C5.22106 81.5925 4.85831 81.2281 4.85831 80.7827ZM17.0041 81.5925V55.6815H17.8138H18.6235V62.9657V62.9689V62.9722V81.5925H17.0041ZM30.7693 80.7827C30.7693 81.2281 30.4065 81.5925 29.9596 81.5925H20.243V63.7786H23.4316H30.7693V80.7827ZM34.0082 61.3495C34.0082 61.7948 33.6454 62.1592 33.1985 62.1592H31.579H23.4316H20.243V55.6815H21.8624H33.1985C33.6454 55.6815 34.0082 56.0458 34.0082 56.4912V61.3495Z" fill="#EC5557"/>
<path d="M29.1498 47.5832L29.7976 44.9921L32.3887 44.3443L29.7976 43.6966L29.1498 41.1055L28.502 43.6966L25.9109 44.3443L28.502 44.9921L29.1498 47.5832Z" fill="#EC5557"/>
<path d="M32.3887 47.582L32.0648 48.8776L30.7693 49.2015L32.0648 49.5254L32.3887 50.8209L32.7126 49.5254L34.0082 49.2015L32.7126 48.8776L32.3887 47.582Z" fill="#EC5557"/>
<path d="M34.0082 44.3443L34.3321 43.0488L35.6276 42.7249L34.3321 42.401L34.0082 41.1055L33.6843 42.401L32.3887 42.7249L33.6843 43.0488L34.0082 44.3443Z" fill="#EC5557"/>
</svg>
