<svg width="50" height="50" viewBox="0 0 50 50" fill="none" xmlns="http://www.w3.org/2000/svg">
<path d="M16 0.5C7.43959 0.5 0.5 7.43959 0.5 16V34C0.5 42.5604 7.43959 49.5 16 49.5H34C42.5604 49.5 49.5 42.5604 49.5 34V16C49.5 7.43959 42.5604 0.5 34 0.5H16Z" fill="white"/>
<path d="M16 0.5C7.43959 0.5 0.5 7.43959 0.5 16V34C0.5 42.5604 7.43959 49.5 16 49.5H34C42.5604 49.5 49.5 42.5604 49.5 34V16C49.5 7.43959 42.5604 0.5 34 0.5H16Z" stroke="#E8E8E8"/>
<path d="M25.1223 28.4355L25.1223 16.3945" stroke="#091229" stroke-width="1.5" stroke-linecap="round" stroke-linejoin="round"/>
<path d="M28.0383 25.5078L25.1223 28.4358L22.2063 25.5078" stroke="#091229" stroke-width="1.5" stroke-linecap="round" stroke-linejoin="round"/>
<path d="M29.7551 21.127H30.6881C32.7231 21.127 34.3721 22.776 34.3721 24.812V29.696C34.3721 31.726 32.7271 33.371 30.6971 33.371H19.5571C17.5221 33.371 15.8721 31.721 15.8721 29.686V24.801C15.8721 22.772 17.5181 21.127 19.5471 21.127H20.4891" stroke="#091229" stroke-width="1.5" stroke-linecap="round" stroke-linejoin="round"/>
</svg>
