<svg width="223" height="154" viewBox="0 0 223 154" fill="none" xmlns="http://www.w3.org/2000/svg">
<g clip-path="url(#clip0_11182_20354)">
<path d="M142.951 86.123L168.481 88.9863V114.789C168.481 114.789 157.451 114.127 152.322 125.778L147.673 124.65L145.463 102.087L142.952 88.5158V86.1242L142.951 86.123Z" fill="#0166FF"/>
<path d="M150.296 125.003C150.364 125.9 150.437 126.685 150.484 127.473C150.867 134.014 150.202 140.464 148.744 146.84C148.691 147.072 148.486 147.334 148.278 147.457C140.575 152.022 132.236 154.194 123.283 153.987C120.348 153.919 117.437 153.571 114.571 152.926C114.317 152.868 114.042 152.724 113.865 152.537C108.936 147.333 106.585 141.189 107.112 134.004C107.322 131.123 107.75 128.276 108.451 125.471C108.488 125.322 108.51 125.168 108.554 124.938C108.362 125.024 108.224 125.073 108.097 125.145C99.0073 130.319 91.0155 136.829 84.1369 144.699C83.8748 144.999 83.5983 145.288 83.3553 145.602C83.0692 145.973 82.7329 146.146 82.3415 145.823C81.9286 145.481 82.1261 145.107 82.4085 144.786C83.3565 143.71 84.2877 142.62 85.268 141.573C92.0724 134.305 99.8368 128.26 108.568 123.457C108.911 123.268 109.095 123.042 109.186 122.663C110.089 118.884 109.814 115.198 108.317 111.613C107.114 108.736 106.148 105.788 105.903 102.667C105.381 96.0161 106.51 89.7643 110.745 84.3757C113.725 80.586 117.721 78.3413 122.34 77.1222C126.541 76.0141 130.612 76.4106 134.505 78.3042C136.84 79.4397 138.821 81.0696 140.547 83.011C143.289 86.0963 145.271 89.621 146.428 93.5576C146.881 95.1027 146.941 96.7695 147.12 98.3886C147.792 104.496 148.419 110.608 149.11 116.713C149.355 118.885 149.746 121.04 150.046 123.207C150.09 123.527 150.199 123.675 150.506 123.78C157.481 126.18 163.401 130.156 168.262 135.69C169.088 136.631 169.825 137.65 170.608 138.629C170.902 138.995 171.066 139.387 170.608 139.706C170.147 140.025 169.845 139.705 169.577 139.338C165.102 133.204 159.326 128.714 152.325 125.778C151.688 125.512 151.036 125.285 150.297 125.004L150.296 125.003ZM145.463 133.704C145.447 133.348 145.432 132.771 145.395 132.196C145.148 128.42 144.229 124.776 143.153 121.173C141.569 115.872 140.458 110.509 140.278 104.952C140.189 102.218 139.872 99.4751 139.435 96.7731C138.913 93.5505 137.668 90.5869 135.49 88.076C135.192 87.7321 134.866 87.4551 134.429 87.8181C133.986 88.1858 134.205 88.5524 134.508 88.895C135.67 90.2073 136.51 91.7129 137.143 93.3379C138.404 96.5713 138.825 99.967 138.935 103.393C139.112 108.885 139.779 114.287 141.364 119.569C142.432 123.129 143.487 126.701 143.936 130.408C144.345 133.795 144.333 137.161 143.16 140.427C142.899 141.154 142.551 141.851 142.216 142.549C142.012 142.973 142.01 143.328 142.464 143.558C142.918 143.788 143.169 143.508 143.359 143.137C143.414 143.031 143.473 142.927 143.525 142.82C144.933 140.02 145.452 137.028 145.464 133.702L145.463 133.704ZM115.173 136.893C115.207 137.508 115.224 138.125 115.279 138.739C115.516 141.367 116.264 143.804 117.971 145.882C118.251 146.224 118.572 146.384 118.943 146.097C119.313 145.812 119.239 145.469 118.981 145.105C118.568 144.522 118.139 143.94 117.819 143.305C116.573 140.827 116.239 138.151 116.578 135.458C116.943 132.545 117.518 129.655 118.12 126.78C118.987 122.638 119.272 118.511 118.172 114.374C117.406 111.494 116.576 108.631 115.821 105.747C115.186 103.314 114.732 100.845 115.057 98.3157C115.18 97.3557 115.448 96.4137 115.681 95.4704C115.781 95.0704 115.671 94.7982 115.314 94.6406C114.923 94.4686 114.662 94.6788 114.493 95.0119C114.404 95.1874 114.354 95.3833 114.297 95.5731C113.507 98.1653 113.466 100.812 114.035 103.421C114.676 106.369 115.508 109.277 116.3 112.19C117.187 115.448 117.962 118.727 117.522 122.128C117.242 124.291 116.805 126.438 116.373 128.579C115.819 131.327 115.211 134.065 115.17 136.889L115.173 136.893ZM127.545 136.944C127.534 140.653 127.91 143.294 129.05 145.784C129.702 147.21 130.585 148.479 131.762 149.528C132.249 149.961 132.855 149.858 132.917 149.316C132.944 149.079 132.769 148.746 132.579 148.568C131.426 147.484 130.583 146.198 129.994 144.742C128.709 141.571 128.587 138.262 129.009 134.937C129.387 131.962 129.97 129.014 130.429 126.049C130.876 123.147 131.057 120.24 130.508 117.323C130.049 114.888 128.984 112.69 127.927 110.484C127.18 108.924 126.414 107.371 125.762 105.772C125.057 104.043 124.707 102.231 124.946 100.346C125.001 99.9157 124.861 99.5515 124.402 99.5026C123.916 99.4512 123.694 99.7808 123.667 100.244C123.662 100.324 123.656 100.403 123.65 100.482C123.522 102.231 123.678 103.962 124.352 105.58C125.259 107.761 126.223 109.926 127.28 112.038C128.976 115.427 129.874 118.966 129.49 122.755C129.272 124.907 128.947 127.052 128.593 129.188C128.11 132.092 127.548 134.981 127.546 136.944H127.545Z" fill="#091229"/>
<path d="M62.4966 66.6639C63.2854 67.1081 64.0131 67.5093 64.7325 67.9236C69.1 70.4382 72.9325 73.6285 76.4646 77.195C76.5902 77.3216 76.7806 77.4541 76.7997 77.6022C76.8344 77.8625 76.8488 78.2147 76.7028 78.3818C76.5891 78.512 76.1773 78.5048 75.9738 78.4057C75.7009 78.272 75.4927 77.9962 75.2689 77.7705C70.6081 73.0423 65.3142 69.2095 59.2339 66.4896C59.1261 66.4418 59.0196 66.3941 58.9945 66.3833C53.9734 70.9552 48.1564 73.1091 41.4334 72.4692C34.6924 71.828 29.4344 68.5086 25.3565 63.107C24.8586 63.3649 24.3487 63.6228 23.8448 63.8926C19.8854 66.0215 16.2516 68.5767 13.2725 71.982C10.0001 75.7228 8.09944 80.1227 7.15508 84.9453C5.80376 91.8526 5.83967 98.7563 7.58357 105.594C8.87863 110.671 11.373 115.065 15.4796 118.445C17.2187 119.878 19.1529 120.968 21.3026 121.666C21.4546 121.715 21.6078 121.758 21.7574 121.811C22.1212 121.943 22.2397 122.215 22.1488 122.571C22.0518 122.948 21.7729 123.1 21.4175 122.983C20.6431 122.727 19.8567 122.487 19.1182 122.148C14.0936 119.841 10.6213 115.999 8.25504 111.092C6.62126 107.703 5.73434 104.099 5.33338 100.379C4.79716 95.4095 4.87975 90.4496 5.76427 85.5184C5.94979 84.4844 6.19994 83.4611 6.43214 82.3818C6.30647 82.3304 6.16882 82.2683 6.02878 82.2146C2.86535 81.0087 0.768362 78.8057 0.163922 75.4649C-0.454881 72.0465 0.671412 69.145 3.35489 66.8991C4.10176 66.2747 4.93122 65.7493 5.70681 65.1583C6.08624 64.8693 6.4489 64.5541 6.78762 64.2186C8.05156 62.9661 8.3843 61.4879 7.70087 59.8474C7.32025 58.9327 6.84508 58.054 6.36272 57.1859C3.78697 52.558 5.77743 46.8518 10.7039 44.8901C11.902 44.4125 13.148 44.028 14.4012 43.7164C18.169 42.7767 20.6131 40.3827 21.901 36.8306C22.746 34.4999 23.3577 32.0832 24.0662 29.7036C25.5971 24.5598 28.6456 20.5635 33.2298 17.7683C40.3322 13.4389 48.1936 14.5421 54.2236 19.7504C58.5612 23.4972 60.7731 28.3603 61.5235 33.9662C62.0334 37.7715 61.6085 41.5039 60.7731 45.2161C60.6474 45.776 60.5935 46.3551 60.5301 46.9271C60.3278 48.736 60.8401 50.3109 62.1208 51.6171C62.8593 52.3705 63.6181 53.1036 64.3614 53.8535C66.4177 55.9263 67.6505 61.2133 65.2136 64.3798C64.6906 65.058 63.9497 65.5726 63.2914 66.1433C63.0711 66.3344 62.7994 66.4669 62.4942 66.6627L62.4966 66.6639ZM53.8023 27.306C53.4923 27.5914 53.3151 27.749 53.1452 27.9114C49.5748 31.3334 45.388 33.6665 40.5992 34.8999C38.3585 35.4766 36.094 35.8706 33.7444 35.6366C32.2806 35.4909 30.8216 35.6939 29.5541 36.5392C28.1633 37.4658 27.2321 38.7075 27.3996 40.4615C27.5636 42.1773 28.6312 43.2937 30.1812 43.8907C31.821 44.5235 33.4392 44.2346 34.9797 43.4609C35.8618 43.0179 36.0389 43.1277 36.4028 44.0555C36.9175 45.3665 37.4154 46.7014 38.1096 47.9193C39.6512 50.6249 41.7614 52.7478 44.8554 53.6505C47.8955 54.5376 50.7166 54.1878 53.0769 51.9096C54.6916 50.3515 55.5282 48.3491 56.0333 46.2107C57.1452 41.5063 56.7766 36.8401 55.4947 32.2313C55.0399 30.5967 54.3959 29.0146 53.8023 27.3036V27.306ZM36.939 48.4816C36.8588 49.0285 36.8026 49.3963 36.7511 49.7652C36.3693 52.5019 36.0006 55.2409 35.5877 57.9728C35.5398 58.2928 35.31 58.7322 35.0467 58.8492C32.6253 59.9214 30.1777 60.9315 27.7395 61.9667C27.3458 62.1339 26.9639 62.3321 26.5678 62.5195C34.6134 73.81 49.9051 73.5235 57.624 65.8054C57.4923 65.7457 57.3703 65.6789 57.241 65.6323C54.1901 64.5255 51.1427 63.4114 48.0846 62.3225C47.5101 62.1183 47.2396 61.7804 47.2707 61.1751C47.315 60.3011 47.3569 59.4271 47.3713 58.5519C47.388 57.5023 47.3749 56.4528 47.3749 55.3448C42.6926 55.094 39.4202 52.5281 36.939 48.4816ZM17.2893 66.4979C18.8585 65.495 18.716 65.8341 18.4551 64.4168C18.169 62.8586 17.7441 61.3219 17.3252 59.7912C16.4311 56.5304 16.9243 53.5299 18.9614 50.8147C19.883 49.5873 21.0536 48.6476 22.4265 47.9443C22.6383 47.8357 22.849 47.4882 22.8394 47.2614C22.831 47.0763 22.5186 46.8351 22.2912 46.7539C22.1296 46.6954 21.8747 46.8351 21.682 46.9294C20.0709 47.7151 18.7771 48.8816 17.7429 50.3252C15.4808 53.4833 15.1229 56.9256 16.2085 60.5972C16.7699 62.4956 17.4353 64.3858 17.2881 66.4991L17.2893 66.4979ZM26.8419 60.9626C25.3565 59.6109 25.1171 57.9226 25.5097 56.1209C26.3164 52.4195 28.2315 49.327 30.9006 46.6727C31.274 46.3014 31.6666 45.9492 32.1238 45.5181C31.6487 45.4608 31.2824 45.4154 30.9161 45.3713C30.8371 45.3617 30.7486 45.3271 30.6804 45.351C30.52 45.4059 30.3356 45.4549 30.2195 45.5671C27.3685 48.299 25.3541 51.5407 24.3511 55.3663C23.8963 57.1011 23.9011 58.8384 24.8047 60.467C25.4822 61.6885 25.5672 61.7016 26.8431 60.9626H26.8419ZM35.1951 30.2731C40.2137 29.9567 44.5466 27.9591 48.0308 24.1682C48.5036 23.6548 48.561 23.2572 48.2091 22.9921C47.7256 22.6279 47.4191 22.9384 47.1056 23.293C45.5292 25.0804 43.6381 26.4511 41.4705 27.4386C39.115 28.512 36.641 29.0457 34.0461 28.9896C33.6068 28.98 33.2082 29.0481 33.1723 29.5675C33.1328 30.1274 33.5481 30.254 34.0054 30.2707C34.3632 30.2839 34.7223 30.2731 35.1951 30.2731ZM55.2924 63.507C55.5486 63.6061 55.8011 63.7458 56.0692 63.79C56.2296 63.8174 56.5037 63.7505 56.5767 63.6335C57.9065 61.4963 58.311 58.9399 56.2978 56.6498C55.314 55.531 54.1422 54.5185 54.0046 52.8075C53.7089 53.0583 53.521 53.2756 53.2852 53.4057C52.8771 53.6302 52.8292 53.9275 53.0339 54.2917C53.3534 54.86 53.6515 55.4475 54.0345 55.9716C54.4678 56.5627 54.992 57.0856 55.466 57.6492C56.3828 58.7393 56.639 59.9882 56.22 61.3327C55.9926 62.0634 55.6216 62.7488 55.2924 63.5082V63.507Z" fill="#091229"/>
<path d="M157.954 33.9021C157.548 33.8364 157.252 33.8042 156.963 33.7397C155.124 33.3314 153.762 31.6215 153.461 29.5094C152.995 26.245 155.074 23.814 157.667 22.5746C159.166 21.857 160.759 21.543 162.419 21.5489C162.676 21.5489 162.931 21.5489 163.239 21.5489C163.215 21.303 163.195 21.0928 163.176 20.8839C162.925 18.2081 163.934 16.1055 166.212 14.7133C169.11 12.9438 172.153 12.6345 175.262 14.2023C176.955 15.056 177.882 16.4159 177.895 18.3442C177.895 18.4171 177.915 18.4911 177.934 18.6308C178.197 18.4887 178.416 18.3681 178.639 18.2511C182.089 16.4338 185.468 16.6738 188.65 18.8159C191.636 20.8266 192.226 24.3811 190.27 27.6288C190.025 28.0372 189.745 28.424 189.452 28.8646C189.574 28.9446 189.691 29.0389 189.823 29.107C194.122 31.3111 194.306 36.382 191.094 39.4005C190.783 39.693 190.631 39.9497 190.649 40.4022C190.804 44.1777 187.435 46.7878 183.583 45.8994C183.255 45.8242 182.932 45.7299 182.535 45.626C182.597 47.0576 182.656 48.4426 182.717 49.8277C182.762 50.8414 182.805 51.8551 182.861 52.8676C182.888 53.3333 182.738 53.6915 182.239 53.7022C181.765 53.7118 181.62 53.35 181.604 52.9273C181.52 50.919 181.434 48.9119 181.347 46.9048C181.339 46.7137 181.323 46.5239 181.304 46.2075C180.797 46.9298 180.38 47.5686 179.917 48.1716C177.703 51.0551 174.915 53.1769 171.461 54.3661C167.071 55.8777 163.045 54.3613 160.686 50.3626C159.549 48.4355 159.002 46.3388 158.848 44.1275C158.82 43.7407 158.768 43.4434 158.385 43.1831C155.206 41.0279 154.88 36.8286 157.661 34.1767C157.73 34.111 157.801 34.0466 157.956 33.9021H157.954ZM160.082 44.0153C160.248 46.2648 160.814 48.3256 162.054 50.1811C164.096 53.239 167.12 54.3721 170.627 53.319C173.505 52.4545 175.893 50.8056 177.923 48.6158C179.07 47.3788 179.984 45.9878 180.737 44.4845C181.092 43.7741 181.477 43.6965 182.189 44.032C182.779 44.3102 183.394 44.5717 184.027 44.7138C186.183 45.1997 188.389 44.1156 189.144 42.2553C189.922 40.3378 189.087 37.9665 187.221 36.7952C186.14 36.117 184.958 35.8209 183.689 35.8937C183.21 35.9211 182.885 35.8089 182.766 35.2776C182.731 35.1236 182.482 34.9839 182.303 34.9027C180.384 34.0263 179.175 32.5588 178.609 30.5446C178.551 30.3392 178.493 30.135 178.434 29.9296C175.126 30.9971 172.572 30.104 170.762 27.0843C168.447 29.5511 165.609 31.2335 162.537 32.7857C164.665 33.2585 166.009 34.4907 166.882 36.345C167.987 34.0693 169.712 32.7917 172.185 32.769C174.653 32.7463 176.396 34.0096 177.514 36.1743C178.432 35.8161 179.304 35.4818 180.171 35.1343C180.573 34.9731 180.944 34.9707 181.13 35.4113C181.333 35.8961 181.028 36.1397 180.605 36.2997C179.86 36.5814 179.124 36.8883 178.374 37.1593C178.009 37.2919 177.855 37.4507 177.906 37.8901C178.219 40.5503 176.555 43.0852 174.003 43.9007C171.423 44.7257 168.56 43.6177 167.248 41.2882C167.148 41.1127 167.053 40.9348 166.955 40.7581C166.828 41.8541 166.8 42.9061 166.842 43.9556C166.859 44.3592 166.94 44.8177 167.61 44.6171C167.783 44.5657 168.193 44.8021 168.242 44.9777C168.305 45.1938 168.181 45.577 168.003 45.7263C167.39 46.2385 166.279 45.9018 165.898 45.0732C165.704 44.6517 165.646 44.161 165.569 43.6941C165.512 43.3526 165.524 43.0004 165.504 42.6171C163.116 44.2445 162.271 44.2099 160.079 44.0141L160.082 44.0153ZM176.703 38.4799C176.718 36.0179 174.706 34.0048 172.229 34.0024C169.762 34 167.778 35.9916 167.76 38.4883C167.742 40.8882 169.8 42.9502 172.211 42.9479C174.688 42.9455 176.69 40.9551 176.705 38.4799H176.703ZM158.701 41.8518C158.824 40.2852 158.948 38.7856 159.057 37.2847C159.091 36.8155 159.228 36.4143 159.775 36.4752C160.288 36.5337 160.321 36.9468 160.291 37.3862C160.186 38.9336 160.112 40.4822 160.005 42.0297C159.974 42.4846 160.108 42.6935 160.589 42.7879C163.051 43.269 165.778 41.7491 165.967 38.4608C166.083 36.4405 164.568 34.5612 162.528 34.0633C160.547 33.5797 158.434 34.566 157.503 36.4071C156.563 38.265 157.035 40.5073 158.701 41.8518ZM158.105 29.0592C157.747 29.0592 157.366 28.9864 157.037 29.0843C156.807 29.1535 156.508 29.4509 156.498 29.6574C156.489 29.8676 156.762 30.1446 156.979 30.2914C157.135 30.3965 157.404 30.3475 157.622 30.3499C160.065 30.3762 162.382 29.8258 164.467 28.5721C165.631 27.8724 166.657 26.9399 167.723 26.0862C168.06 25.8163 168.132 25.4318 167.771 25.1095C167.446 24.8193 167.115 24.8886 166.83 25.2086C166.764 25.2826 166.691 25.3506 166.619 25.4199C164.248 27.7219 161.404 28.9255 158.102 29.0604L158.105 29.0592ZM187.704 24.9459C187.508 25.6241 187.347 26.3166 187.102 26.9769C186.943 27.4043 186.878 27.7745 187.33 27.9954C187.821 28.2366 188.094 27.9273 188.298 27.501C189.371 25.2539 188.957 22.5519 187.24 20.7502C186.443 19.9132 185.49 19.3186 184.359 19.0344C183.96 18.9341 183.63 19.112 183.599 19.4857C183.578 19.7245 183.818 20.0027 183.985 20.2308C184.052 20.3227 184.239 20.3251 184.371 20.3705C186.344 21.0522 187.608 22.8385 187.704 24.9471V24.9459ZM191.154 34.6292C190.996 33.2466 190.249 31.8998 189.186 31.2693C188.828 31.058 188.477 31.0425 188.238 31.3971C188.005 31.7433 188.12 32.0609 188.458 32.3248C189.819 33.3839 190.069 34.5337 189.273 36.08C189.078 36.4585 189.09 36.782 189.468 37.0029C189.848 37.2238 190.203 37.0877 190.367 36.7128C190.664 36.0334 190.896 35.3253 191.156 34.6292H191.154Z" fill="#091229"/>
<path d="M124.586 15.7988C124.609 18.1176 124.098 20.3337 123.285 22.4924C123.203 22.7133 123.133 23.0237 123.224 23.2136C124.479 25.8356 123.138 29.6146 119.231 30.5316C118.638 30.6713 118.007 30.6725 117.393 30.7036C116.957 30.7251 116.627 30.5173 116.653 30.0457C116.677 29.6134 117 29.5251 117.41 29.4654C118.286 29.3376 119.209 29.2528 120.003 28.9042C121.812 28.1102 122.695 26.3287 122.343 24.5282C122.038 22.9628 120.441 21.733 118.553 21.5933C117.417 21.5086 116.328 21.7163 115.265 22.09C114.913 22.2142 114.589 22.2596 114.364 21.9085C114.146 21.5671 114.258 21.2829 114.556 21.019C114.651 20.9342 114.694 20.6966 114.65 20.5653C113.929 18.4018 112.7 16.5702 110.955 15.0968C110.822 14.9845 110.502 14.9702 110.33 15.0454C106.525 16.7314 102.52 17.2675 98.4075 17.0406C93.8532 16.7887 90.1823 14.9105 87.8268 10.8891C84.8106 5.73937 88.825 0.584862 92.9185 0.0618892C95.3913 -0.254521 97.4129 0.661278 99.1161 2.37467C99.4368 2.69705 99.6678 2.73168 100.078 2.57168C103.68 1.16276 107.4 0.52158 111.269 0.964555C113.29 1.19619 115.144 1.84215 116.158 3.73703C116.663 4.68029 117.341 5.0958 118.287 5.46355C122.067 6.92979 123.912 9.89688 124.483 13.7762C124.53 14.0902 124.566 14.4078 124.58 14.7254C124.597 15.0824 124.584 15.4418 124.584 15.7988H124.586ZM98.7271 15.3559C99.3183 15.283 99.9264 15.2651 100.494 15.1075C100.713 15.0466 100.974 14.6669 100.981 14.4269C100.99 14.0556 100.664 13.8586 100.266 13.886C100.168 13.8932 100.071 13.9254 99.9731 13.9398C94.9676 14.7099 90.8167 10.9022 91.2057 5.86832C91.2536 5.24266 91.4427 4.62536 91.5995 4.01165C91.706 3.59733 91.6078 3.28569 91.2165 3.13286C90.7987 2.96928 90.5318 3.19256 90.3834 3.57822C90.3044 3.78121 90.2266 3.98657 90.1692 4.19672C88.6371 9.83599 92.8526 15.3129 98.7271 15.3559ZM119.155 18.2119C119.084 17.9922 119.059 17.8752 119.01 17.7677C117.949 15.4394 116.367 13.5302 114.329 11.9912C114.008 11.7488 113.627 11.7631 113.457 12.1141C113.351 12.3338 113.474 12.6777 113.536 12.9571C113.557 13.0479 113.709 13.1111 113.803 13.1852C115.005 14.126 116.032 15.2293 116.855 16.5093C117.231 17.0931 117.511 17.7379 117.899 18.311C118.036 18.5116 118.373 18.6907 118.607 18.6764C118.808 18.6644 118.991 18.3624 119.156 18.2119H119.155ZM98.9126 10.993C99.0323 10.993 99.152 10.9989 99.2705 10.993C99.9443 10.956 100.277 10.71 100.205 10.2611C100.112 9.67599 99.6786 9.67241 99.2058 9.70345C98.3524 9.76077 97.5529 9.56017 96.8024 9.14347C95.9933 8.69452 95.4248 8.03782 94.9736 7.23784C94.861 7.03844 94.5032 6.87367 94.2662 6.88203C94.0926 6.888 93.8293 7.1865 93.791 7.38948C93.7491 7.60798 93.882 7.89096 94.01 8.10349C95.116 9.95181 96.7713 10.8891 98.9126 10.993Z" fill="#091229"/>
<path d="M223 98.5023C222.985 101.857 222.524 105.91 221.071 109.804C219.267 114.638 215.977 118.23 211.681 120.987C208.239 123.194 204.489 124.751 200.685 126.196C200.089 126.423 199.487 126.632 198.896 126.868C198.474 127.037 198.077 127.064 197.897 126.582C197.723 126.11 198.025 125.868 198.453 125.699C200.751 124.794 203.067 123.93 205.328 122.942C209.001 121.34 212.435 119.347 215.315 116.503C218.631 113.228 220.491 109.193 221.172 104.672C223.025 92.3783 220.467 81.1308 212.439 71.4617C206.308 64.0804 198.308 59.8883 188.715 58.9008C186.882 58.7122 185.014 58.8531 183.163 58.8555C182.805 58.8555 182.475 58.8638 182.328 58.4591C182.173 58.0352 182.426 57.6507 182.983 57.6388C184.794 57.5994 186.62 57.4633 188.417 57.6292C198.767 58.5808 207.212 63.1837 213.831 71.1298C217.384 75.3972 219.783 80.2842 221.308 85.6059C222.444 89.5688 223.005 93.6129 223 98.5023Z" fill="#091229"/>
<path d="M52.0811 128.477C64.9874 128.477 77.8925 128.477 90.7988 128.477C90.9771 128.477 91.1997 128.43 91.3242 128.516C91.5145 128.647 91.7647 128.88 91.7575 129.06C91.7479 129.275 91.5289 129.526 91.3326 129.671C91.1985 129.77 90.9496 129.725 90.7521 129.725C65.0807 129.727 39.4082 129.725 13.7369 129.725C13.4783 129.725 13.1731 129.793 12.9732 129.681C12.7578 129.561 12.5268 129.268 12.5184 129.042C12.5124 128.862 12.8021 128.623 13.0139 128.502C13.1647 128.414 13.4029 128.477 13.6028 128.477C26.4289 128.477 39.255 128.477 52.0811 128.477Z" fill="#0166FF"/>
<path d="M35.7289 103.835C34.2484 102.549 33.1604 101.074 32.4781 99.239C32.2328 99.3596 32.0209 99.4539 31.8186 99.565C28.0005 101.658 24.6898 104.367 21.8915 107.699C21.7766 107.836 21.6772 108.044 21.5324 108.084C21.293 108.151 20.9471 108.208 20.7879 108.085C20.6311 107.966 20.5665 107.598 20.6144 107.374C20.6634 107.145 20.892 106.949 21.0584 106.752C24.0148 103.26 27.5157 100.44 31.5601 98.2981C31.9623 98.0844 32.0736 97.8838 31.973 97.4325C31.383 94.7878 31.5888 92.1311 31.9168 89.478C31.985 88.9252 32.0664 88.3748 32.1418 87.822C32.2017 87.3862 32.2902 86.942 32.8719 87.0184C33.5027 87.0996 33.4213 87.5891 33.3734 88.0345C33.2059 89.5963 32.9796 91.1532 32.8815 92.7198C32.7319 95.0851 32.9306 97.4217 33.9862 99.596C35.4549 102.62 38.0318 104.333 41.0947 105.422C43.5783 106.305 46.1744 106.592 48.7872 106.759C49.5628 106.809 50.3408 106.838 51.1176 106.881C51.5401 106.905 51.8154 107.137 51.7915 107.554C51.7699 107.94 51.4851 108.15 51.0865 108.127C48.0404 107.96 44.9918 107.816 42.0235 107.012C40.3191 106.55 38.6973 105.898 37.2179 104.93C36.9031 104.723 36.6889 104.731 36.3729 104.933C31.2178 108.216 27.2022 112.546 24.3224 117.926C24.2566 118.049 24.1907 118.171 24.1285 118.296C23.9394 118.68 23.6306 118.834 23.244 118.651C22.8334 118.458 22.8143 118.09 23.0154 117.738C23.6665 116.597 24.2853 115.436 25.0082 114.342C27.7108 110.252 31.1268 106.867 35.2418 104.187C35.389 104.09 35.5291 103.982 35.7289 103.838V103.835Z" fill="#091229"/>
<path d="M47.7196 138.531C38.3669 138.531 29.0131 138.531 19.6604 138.531C18.7891 138.531 18.5293 138.39 18.5569 137.899C18.5988 137.159 19.1757 137.3 19.6305 137.3C38.3574 137.296 57.083 137.297 75.8099 137.3C75.9894 137.3 76.2192 137.242 76.3365 137.331C76.534 137.481 76.783 137.727 76.7806 137.929C76.7782 138.125 76.5173 138.373 76.3078 138.492C76.139 138.588 75.8805 138.531 75.6615 138.531C66.3483 138.531 57.0352 138.531 47.7208 138.531H47.7196Z" fill="#0166FF"/>
<path d="M175.837 64.677C172.683 64.5289 170.154 62.9755 168.638 59.8855C168.404 59.4091 168.211 59.2682 167.662 59.4091C156.976 62.1445 148.598 68.0966 142.535 77.2916C142.491 77.3585 142.448 77.4242 142.408 77.4934C142.185 77.8803 141.851 78.0391 141.459 77.8062C141.074 77.577 141.109 77.2116 141.329 76.8689C141.717 76.2672 142.096 75.657 142.516 75.0791C148.983 66.1838 157.551 60.4407 168.313 57.9989C169.007 57.8413 169.212 57.9548 169.448 58.5995C171.006 62.8573 175.401 64.5946 179.482 62.5564C179.887 62.3535 180.272 62.2771 180.513 62.7224C180.761 63.1785 180.459 63.4639 180.072 63.6693C178.833 64.3248 177.504 64.6292 175.838 64.677H175.837Z" fill="#091229"/>
<path d="M101.613 105.466C101.384 105.409 101.113 105.347 100.844 105.271C95.4152 103.755 89.9873 102.234 84.5545 100.727C84.0398 100.584 83.7992 100.279 83.6999 99.7838C82.1128 91.8902 80.5209 83.9978 78.929 76.1043C78.7052 74.9939 78.4718 73.8858 78.2456 72.7754C78.2097 72.6011 78.1175 72.3874 78.1797 72.2524C78.2994 71.9981 78.4694 71.6698 78.6968 71.5886C79.026 71.4704 79.2929 71.7151 79.3683 72.0853C79.5933 73.1754 79.8219 74.2643 80.0421 75.3557C81.2702 81.4355 82.497 87.5154 83.7238 93.5952C84.0781 95.3492 84.4492 97.0996 84.7687 98.8608C84.8585 99.3575 85.0692 99.5915 85.5539 99.7241C89.1279 100.698 92.6959 101.697 96.2639 102.69C98.0485 103.187 99.8342 103.681 101.612 104.202C101.856 104.273 102.136 104.439 102.262 104.645C102.495 105.028 102.131 105.483 101.612 105.466H101.613Z" fill="#091229"/>
<path d="M62.17 102.395C61.0282 101.209 59.9486 100.099 58.8809 98.9776C58.2633 98.3304 57.635 97.6892 57.0652 97.0015C56.5278 96.3531 56.219 95.6069 56.4895 94.7341C56.7816 93.7896 57.6481 93.3681 58.5099 93.8529C59.0521 94.1586 59.556 94.586 59.9701 95.0529C61.8577 97.1806 63.7153 99.3358 65.5633 101.499C65.8374 101.82 66.1211 101.943 66.5292 101.949C68.3832 101.978 70.1594 102.377 71.8638 103.11C72.3055 103.3 72.6203 103.559 72.4024 104.052C72.1918 104.528 71.7968 104.42 71.3851 104.263C65.7871 102.135 60.7613 103.065 56.3315 107.1C55.9892 107.413 55.6565 107.577 55.2986 107.227C54.9216 106.858 55.1358 106.505 55.4446 106.198C57.1562 104.49 59.1981 103.333 61.4938 102.604C61.6829 102.544 61.872 102.486 62.1688 102.394L62.17 102.395Z" fill="#0166FF"/>
<path d="M173.775 115.456C173.746 115.325 173.73 115.19 173.685 115.065C173.11 113.463 173.455 111.986 174.556 110.791C175.38 109.897 176.377 109.117 177.41 108.466C184.421 104.046 191.603 99.915 198.956 96.0858C199.027 96.0488 199.097 96.0094 199.167 95.9736C199.547 95.7873 199.921 95.7479 200.151 96.1706C200.387 96.6052 200.128 96.8739 199.752 97.0733C198.521 97.7264 197.287 98.3771 196.06 99.0386C189.624 102.512 183.298 106.174 177.145 110.125C175.989 110.868 174.976 111.771 174.718 113.231C174.677 113.462 174.63 113.719 174.688 113.937C174.901 114.749 175.096 115.574 175.407 116.352C176.595 119.322 177.823 122.276 179.035 125.237C179.072 125.329 179.096 125.427 179.126 125.522C179.253 125.907 179.126 126.197 178.759 126.348C178.359 126.511 178.099 126.295 177.965 125.942C177.641 125.087 177.379 124.207 177.023 123.366C176.018 120.987 174.976 118.623 173.953 116.25C173.846 116.002 173.759 115.746 173.663 115.493C173.699 115.481 173.736 115.469 173.772 115.457L173.775 115.456Z" fill="#0166FF"/>
<path d="M198.411 128.477C204.172 128.477 209.936 128.477 215.698 128.477C215.896 128.477 216.143 128.418 216.283 128.511C216.489 128.647 216.741 128.893 216.746 129.099C216.751 129.293 216.493 129.542 216.291 129.677C216.149 129.771 215.906 129.726 215.707 129.726C204.143 129.727 192.578 129.727 181.015 129.726C180.836 129.726 180.609 129.775 180.489 129.686C180.274 129.527 179.979 129.276 179.988 129.074C179.996 128.871 180.308 128.643 180.534 128.498C180.662 128.416 180.883 128.477 181.063 128.477C186.845 128.477 192.627 128.477 198.411 128.477Z" fill="#0166FF"/>
<path d="M103.165 40.4111C98.7103 40.3167 95.6115 38.1293 93.6426 34.2321C92.2602 31.4954 91.8508 28.5474 91.998 25.535C92.1034 23.3738 92.4098 21.2222 92.6456 19.0683C92.703 18.5441 93.0358 18.2946 93.4331 18.4211C93.8736 18.5608 93.8904 18.9166 93.8473 19.2963C93.6641 20.9154 93.4367 22.5321 93.3099 24.1559C93.0908 26.9726 93.1926 29.7713 94.2291 32.4471C95.4631 35.6338 97.4739 38.0851 100.964 38.8959C104.663 39.7555 107.834 38.5448 110.647 36.1735C111.011 35.8667 111.346 35.5216 111.679 35.1801C111.983 34.8673 112.323 34.7312 112.675 35.0404C113.046 35.3676 112.895 35.7389 112.609 36.0338C110.028 38.7012 106.969 40.3466 103.168 40.4122L103.165 40.4111Z" fill="#091229"/>
<path d="M36.6661 81.9499C34.562 81.8401 33.0862 80.7285 31.979 79.1345C30.5056 77.0127 29.1412 74.8146 27.742 72.6415C26.4074 70.5675 25.0872 68.4852 23.7622 66.4052C23.6868 66.2882 23.6067 66.1724 23.5468 66.047C23.3816 65.6972 23.3972 65.3187 23.7754 65.1945C24.004 65.1193 24.4337 65.2244 24.5797 65.4047C25.0034 65.9264 25.329 66.527 25.6929 67.0966C27.9502 70.632 30.1956 74.177 32.4782 77.6969C32.9066 78.3572 33.4297 78.9805 34.0054 79.5178C35.4094 80.83 37.2562 81.0007 39.2814 79.9249C40.4699 79.2933 41.5424 78.4467 42.6818 77.7208C43.7363 77.0486 44.8027 76.3931 45.8812 75.7578C46.2713 75.5286 46.7166 75.4725 46.9308 76.0014C47.1271 76.4862 46.78 76.6748 46.3994 76.8969C45.3198 77.5262 44.2414 78.1697 43.218 78.8849C41.8966 79.8091 40.6435 80.8479 39.0887 81.3637C38.3023 81.6252 37.4741 81.7577 36.6649 81.9488L36.6661 81.9499Z" fill="#091229"/>
<path d="M97.195 77.8662C97.4141 77.6907 97.6116 77.4184 97.8569 77.3635C98.2495 77.2764 98.4602 77.5593 98.5296 77.9474C98.8193 79.5509 99.1185 81.1521 99.4105 82.7544C100.435 88.3842 101.458 94.0139 102.482 99.6436C102.485 99.6627 102.489 99.683 102.494 99.7021C102.6 100.152 102.501 100.54 102.003 100.613C101.548 100.68 101.353 100.364 101.275 99.929C100.89 97.7571 100.487 95.5888 100.089 93.4193C99.1819 88.4558 98.2747 83.4911 97.3686 78.5277C97.3363 78.3521 97.3159 78.1742 97.2908 77.9975C97.2585 77.9533 97.2262 77.9092 97.1938 77.8662H97.195Z" fill="#091229"/>
<path d="M55.3618 79.4695C55.0159 79.3728 54.3301 79.239 53.6873 78.9919C51.9973 78.3412 50.3276 77.6391 48.6483 76.9609C48.2258 76.7901 47.85 76.5609 48.0774 76.0391C48.3048 75.5173 48.7357 75.6523 49.1486 75.8206C50.7705 76.4809 52.3959 77.1352 54.0201 77.7895C54.2223 77.8707 54.4294 77.9436 54.6377 78.0128C55.9854 78.4617 56.9645 78.2158 57.6455 76.9621C58.3804 75.6093 58.9489 74.1598 59.5019 72.7186C59.8562 71.7956 60.0705 70.8166 60.311 69.8542C60.4235 69.4076 60.6533 69.17 61.1058 69.2679C61.5654 69.367 61.6097 69.7467 61.5235 70.1181C60.9382 72.641 60.1842 75.1102 58.8903 77.3716C58.0776 78.7925 56.9764 79.4623 55.3582 79.4695H55.3618Z" fill="#091229"/>
<path d="M167.346 114.738C168.91 114.714 170.654 115.092 172.355 115.701C172.43 115.727 172.503 115.758 172.578 115.785C172.962 115.932 173.2 116.191 173.048 116.611C172.884 117.065 172.52 117.087 172.112 116.935C170.53 116.344 168.896 116.034 167.204 116.024C163.709 116.004 160.581 117.056 157.817 119.188C157.786 119.212 157.753 119.236 157.724 119.262C157.379 119.58 157.008 119.734 156.626 119.347C156.331 119.047 156.428 118.59 156.964 118.262C158.317 117.432 159.652 116.545 161.092 115.893C163.055 115.003 165.052 114.719 167.346 114.737V114.738Z" fill="#091229"/>
<path d="M108.162 30.8823C107.037 31.2358 105.982 31.5653 104.926 31.8996C104.356 32.0799 103.79 32.2662 103.22 32.4477C102.816 32.5766 102.434 32.5504 102.282 32.0966C102.13 31.6417 102.41 31.3982 102.823 31.2668C104.701 30.671 106.575 30.0668 108.456 29.4782C108.997 29.3086 109.29 29.5104 109.386 30.0656C109.919 33.1498 106.836 35.7885 103.841 34.8106C103.429 34.6757 103.075 34.456 103.233 33.9569C103.393 33.4566 103.794 33.5044 104.22 33.6166C106.077 34.1061 107.819 33.0662 108.124 31.2991C108.143 31.188 108.144 31.0746 108.161 30.8823H108.162Z" fill="#091229"/>
<path d="M68.4202 112.846C70.7027 113.032 72.984 113.219 75.2665 113.403C75.7166 113.439 76.0769 113.593 76.017 114.115C75.9548 114.649 75.5478 114.678 75.1133 114.622C72.1211 114.234 69.1168 114.121 66.103 114.246C65.6649 114.264 65.3274 114.135 65.2855 113.668C65.2424 113.175 65.6003 113.014 66.0192 113.006C66.8164 112.99 67.6135 113.001 68.4106 113.001C68.413 112.95 68.4166 112.897 68.419 112.846H68.4202Z" fill="#0166FF"/>
<path d="M166.099 119.102C166.248 119.242 166.585 119.417 166.586 119.595C166.588 119.847 166.406 120.239 166.197 120.331C165.143 120.796 164.053 121.185 162.975 121.597C161.321 122.227 159.663 122.85 158.011 123.487C157.6 123.646 157.243 123.633 157.066 123.191C156.886 122.743 157.145 122.488 157.554 122.333C160.251 121.308 162.946 120.278 165.642 119.251C165.753 119.209 165.868 119.177 166.099 119.103V119.102Z" fill="#091229"/>
<path d="M72.546 110.975C70.3233 110.828 68.1007 110.682 65.878 110.532C65.6805 110.519 65.4315 110.539 65.3011 110.43C65.1144 110.275 64.9073 110.014 64.9097 109.801C64.9121 109.621 65.1814 109.419 65.3717 109.278C65.4615 109.213 65.6422 109.26 65.7798 109.27C68.6165 109.464 71.4544 109.664 74.2911 109.856C74.7435 109.887 75.0367 110.107 74.9913 110.557C74.9506 110.973 74.6334 111.14 74.2097 111.101C73.6555 111.051 73.099 111.019 72.5436 110.98C72.5436 110.978 72.5436 110.977 72.5436 110.975H72.546Z" fill="#0166FF"/>
<path d="M65.4818 105.542C68.2347 105.829 70.9888 106.114 73.7405 106.406C74.1535 106.451 74.4168 106.676 74.3581 107.12C74.3043 107.529 74.0134 107.684 73.6256 107.643C70.8536 107.352 68.0815 107.054 65.3095 106.761C64.893 106.717 64.6129 106.527 64.6536 106.083C64.6991 105.589 65.0593 105.501 65.4818 105.542Z" fill="#0166FF"/>
<path d="M159.858 126.842C159.713 126.683 159.412 126.499 159.402 126.302C159.391 126.073 159.579 125.707 159.779 125.617C160.448 125.315 161.159 125.107 161.856 124.866C163.738 124.216 165.622 123.573 167.502 122.915C167.944 122.759 168.357 122.708 168.537 123.236C168.707 123.735 168.359 123.941 167.94 124.085C165.415 124.949 162.895 125.822 160.372 126.691C160.241 126.737 160.106 126.769 159.857 126.842H159.858Z" fill="#091229"/>
<path d="M119.02 40.2405C118.822 40.4352 118.607 40.8017 118.429 40.785C118.167 40.7587 117.751 40.4937 117.711 40.274C117.283 37.8931 116.912 35.5004 116.532 33.11C116.473 32.7291 116.61 32.4174 117.022 32.3577C117.485 32.2909 117.704 32.5619 117.774 33.0025C118.094 35.0407 118.424 37.0776 118.749 39.1146C118.802 39.4477 118.853 39.7809 118.906 40.114C118.944 40.1558 118.981 40.1988 119.02 40.2405Z" fill="#091229"/>
<path d="M101.341 29.2095C101.553 29.04 101.624 28.9361 101.704 28.9277C101.991 28.8955 102.345 28.7857 102.557 28.9074C102.904 29.108 102.823 29.4818 102.614 29.797C102.253 30.3414 101.397 30.5193 100.797 30.1564C100.157 29.7707 99.8522 29.1522 99.8869 28.4478C99.954 27.0794 100.099 25.7147 100.232 24.3499C100.269 23.9619 100.52 23.7195 100.925 23.7756C101.362 23.8353 101.491 24.1505 101.451 24.5625C101.34 25.7493 101.216 26.9361 101.141 28.1254C101.121 28.4478 101.256 28.7797 101.34 29.2107L101.341 29.2095Z" fill="#091229"/>
<path d="M116.467 26.1204C116.493 24.3879 118.202 23.1701 119.855 23.699C120.262 23.8291 120.56 24.0417 120.437 24.5097C120.311 24.9873 119.945 25.0064 119.528 24.9038C118.516 24.6566 117.737 25.1975 117.708 26.198C117.695 26.6756 117.608 27.0804 117.055 27.0506C116.5 27.0219 116.453 26.5634 116.465 26.1192L116.467 26.1204Z" fill="#091229"/>
<path d="M107.417 20.4029C106.703 20.3934 105.991 20.6095 105.376 21.0966C105.016 21.382 104.651 21.499 104.34 21.0919C104.02 20.674 104.278 20.3492 104.627 20.0925C105.542 19.4179 106.563 19.1086 107.706 19.1934C108.161 19.2268 108.583 19.3188 108.547 19.8811C108.512 20.4184 108.098 20.4626 107.666 20.4184C107.606 20.4125 107.546 20.4113 107.417 20.4029Z" fill="#091229"/>
<path d="M95.5517 19.5742C96.3404 19.8632 97.1412 20.1247 97.912 20.4542C98.3117 20.6249 98.453 21.0082 98.1956 21.3939C97.9551 21.7533 97.6068 21.7294 97.2561 21.5013C96.5415 21.0369 95.754 20.9079 94.9173 21.0213C94.4984 21.0787 94.1345 21.0046 94.0867 20.5043C94.0412 20.0244 94.3548 19.8453 94.7845 19.8023C95.0214 19.7796 95.2572 19.7438 95.493 19.7139C95.5122 19.6674 95.5325 19.6208 95.5517 19.5742Z" fill="#091229"/>
<path d="M106.806 23.8015C106.365 23.7693 106.083 23.5389 106.035 23.0756C105.992 22.6458 106.354 22.2553 106.779 22.2481C107.202 22.241 107.596 22.6111 107.577 23.0374C107.556 23.4995 107.281 23.7466 106.806 23.8004V23.8015Z" fill="#091229"/>
<path d="M96.0713 23.8404C96.1359 23.3759 96.3885 23.1061 96.8505 23.081C97.273 23.0583 97.644 23.4488 97.6404 23.8798C97.6369 24.2989 97.2431 24.6535 96.8038 24.6177C96.3238 24.5795 96.1275 24.2655 96.0713 23.8392V23.8404Z" fill="#091229"/>
<path d="M31.0179 37.3899C32.8288 37.4866 34.4961 39.0483 34.6027 40.8047C34.6302 41.2596 34.5201 41.6322 34.003 41.6441C33.5207 41.6548 33.3268 41.3408 33.3112 40.8668C33.2621 39.3265 31.5218 38.3033 30.1705 39.0149C29.7995 39.2107 29.4679 39.2262 29.2417 38.8442C29.0155 38.4621 29.1735 38.1206 29.5373 37.9475C30.0113 37.7218 30.5224 37.5714 31.0167 37.3887L31.0179 37.3899Z" fill="#091229"/>
<path d="M48.5945 43.5568C48.6867 42.1933 48.7764 40.8691 48.8674 39.5438C48.8794 39.3659 48.8399 39.133 48.9368 39.0256C49.1128 38.8286 49.3905 38.5695 49.5939 38.5933C49.7962 38.6172 50.1242 38.9671 50.1158 39.1605C50.0416 40.7258 49.9303 42.2912 49.7639 43.8493C49.6981 44.4595 49.1271 44.8833 48.5634 44.9168C47.9901 44.9502 47.4682 44.5741 47.4802 44.1335C47.4922 43.6858 47.8261 43.4947 48.5945 43.5556V43.5568Z" fill="#091229"/>
<path d="M47.3714 47.9948C45.7771 47.916 44.2247 47.3381 42.9081 46.1644C42.561 45.8552 42.3156 45.4982 42.6855 45.0958C43.0601 44.6863 43.4156 44.9274 43.7615 45.2379C44.9728 46.3232 46.4067 46.8307 48.0321 46.7662C48.4869 46.7483 48.8651 46.8104 48.8795 47.3417C48.8939 47.8623 48.5085 47.9877 48.0668 47.996C47.8873 47.9996 47.7089 47.996 47.3726 47.996L47.3714 47.9948Z" fill="#091229"/>
<path d="M44.2593 34.2922C44.9283 34.5752 45.5687 34.8128 46.1767 35.1149C46.5454 35.2976 46.5669 35.6629 46.3598 35.9877C46.1384 36.3363 45.8057 36.3602 45.4789 36.1286C44.6877 35.565 43.8978 35.5495 43.0911 36.0892C42.7404 36.3244 42.4028 36.3184 42.1623 35.9399C41.9384 35.5889 42.051 35.2486 42.3957 35.0767C42.9702 34.7913 43.5782 34.574 44.2581 34.291L44.2593 34.2922Z" fill="#091229"/>
<path d="M52.87 34.8965C53.9077 34.9275 54.6247 35.1807 55.2088 35.7442C55.5032 36.0284 55.6792 36.3842 55.3548 36.7364C55.04 37.0791 54.6917 36.9896 54.3662 36.6863C53.7521 36.112 53.0531 35.9985 52.2787 36.3365C51.9041 36.5 51.5546 36.4761 51.3799 36.0606C51.2135 35.663 51.387 35.3454 51.7796 35.2045C52.2045 35.0529 52.6498 34.9574 52.87 34.8965Z" fill="#091229"/>
<path d="M44.4473 38.125C44.9237 38.1274 45.278 38.488 45.2576 38.9333C45.2361 39.4133 44.938 39.6378 44.488 39.6629C44.0535 39.6868 43.6897 39.3106 43.7184 38.8713C43.7483 38.3996 44.0499 38.1859 44.4473 38.1262V38.125Z" fill="#091229"/>
<path d="M52.822 39.1445C52.8639 38.7529 53.0877 38.4652 53.5545 38.4198C54.0022 38.3768 54.3577 38.7063 54.366 39.1648C54.3756 39.646 54.0884 39.8944 53.6527 39.9589C53.2481 40.0186 52.8412 39.6233 52.8232 39.1457L52.822 39.1445Z" fill="#091229"/>
<path d="M169.819 46.979C171.465 46.9766 172.859 46.3067 173.928 44.9563C174.071 44.7736 174.233 44.5265 174.426 44.4823C174.629 44.4357 175.012 44.5348 175.08 44.6805C175.185 44.9002 175.185 45.2823 175.054 45.4805C174.1 46.9288 172.73 47.7969 171.03 48.0966C170.414 48.2052 169.767 48.1622 169.135 48.1527C168.724 48.1467 168.435 47.9258 168.488 47.4805C168.539 47.047 168.849 46.8978 169.266 46.9396C169.424 46.9551 169.583 46.9623 169.819 46.9778V46.979Z" fill="#091229"/>
<path d="M182.563 41.2846C182.626 40.1491 183.034 39.3061 183.987 38.7999C184.93 38.2996 185.862 38.3796 186.765 38.9276C187.126 39.1473 187.356 39.4351 187.111 39.859C186.865 40.2852 186.513 40.2458 186.142 40.0094C185.57 39.644 184.97 39.5808 184.413 39.9951C183.859 40.4058 183.72 40.9933 183.904 41.6488C184.026 42.0834 183.845 42.364 183.447 42.4691C183.041 42.5753 182.811 42.3055 182.699 41.9544C182.621 41.7109 182.596 41.4518 182.563 41.2858V41.2846Z" fill="#091229"/>
<path d="M171.519 38.8134C171.015 38.8134 170.671 38.4612 170.701 38.0075C170.731 37.5358 171.023 37.297 171.475 37.2779C171.91 37.26 172.267 37.6469 172.238 38.0851C172.207 38.5603 171.909 38.7716 171.519 38.8122V38.8134Z" fill="#091229"/>
<path d="M163.312 38.2975C163.323 38.8037 163.011 39.1536 162.543 39.1572C162.105 39.1607 161.762 38.8228 161.749 38.3715C161.735 37.9023 162.092 37.5071 162.531 37.5059C162.976 37.5059 163.304 37.8354 163.314 38.2963L163.312 38.2975Z" fill="#091229"/>
<path d="M47.4803 94.6807C50.1449 94.6807 52.305 92.5259 52.305 89.8677C52.305 87.2096 50.1449 85.0547 47.4803 85.0547C44.8156 85.0547 42.6555 87.2096 42.6555 89.8677C42.6555 92.5259 44.8156 94.6807 47.4803 94.6807Z" fill="#0166FF"/>
<path d="M97.3291 72.9525L69.5093 63.7957C69.5093 63.7957 86.3319 42.7358 104.196 44.4707V71.5925L97.3303 72.9513L97.3291 72.9525Z" fill="#0166FF"/>
<path d="M117.863 67.331L119.018 42.4922C119.018 42.4922 147.057 44.6068 156.461 58.302C156.461 58.302 148.566 58.7688 132.918 79.4716H122.553L117.863 67.331Z" fill="#0166FF"/>
<path d="M107.87 54.2513C106.404 54.0101 104.675 53.751 102.957 53.4298C102.155 53.2794 101.886 52.9164 102.051 52.4472C102.209 51.9982 102.549 51.9576 103.326 52.1893C107.048 53.2973 110.725 53.1015 114.355 51.7654C114.505 51.7105 114.65 51.6412 114.801 51.5923C115.169 51.4717 115.486 51.535 115.642 51.9206C115.796 52.3051 115.63 52.6131 115.261 52.7314C114.087 53.1075 112.92 53.5301 111.717 53.7821C110.554 54.0256 109.35 54.0806 107.87 54.2513Z" fill="#091229"/>
<path d="M120.305 67.8027C117.714 68.6946 115.201 69.5925 112.669 70.4223C107.954 71.9674 103.166 73.2521 98.3166 74.3016C97.9312 74.3852 97.4704 74.3554 97.0957 74.2264C90.9532 72.1274 84.8202 70.0044 78.6837 67.8863C78.6083 67.86 78.5364 67.8242 78.4598 67.8039C77.9775 67.6749 77.622 67.4063 77.8063 66.8702C77.9895 66.3377 78.4323 66.4391 78.8572 66.586C82.0566 67.6928 85.2583 68.7937 88.4588 69.8982C91.414 70.9178 94.3668 71.9483 97.3279 72.95C97.6284 73.0515 98.0006 73.0611 98.3142 72.993C104.959 71.5483 111.478 69.6665 117.863 67.3287C118.705 67.0206 119.529 66.6696 120.374 66.3747C121.026 66.1478 121.33 66.3186 121.472 66.9633C121.83 68.5943 122.172 70.2289 122.518 71.8623C122.605 72.2718 122.558 72.6659 122.086 72.7602C121.629 72.8521 121.354 72.6097 121.258 72.125C121.002 70.839 120.714 69.5591 120.437 68.2767C120.404 68.1251 120.354 67.977 120.305 67.8015V67.8027Z" fill="#091229"/>
</g>
<defs>
<clipPath id="clip0_11182_20354">
<rect width="223" height="154" fill="white"/>
</clipPath>
</defs>
</svg>
