<svg width="90" height="90" viewBox="0 0 90 90" fill="none" xmlns="http://www.w3.org/2000/svg">
<path d="M47.8125 41.25C47.8125 40.5041 47.5162 39.7887 46.9887 39.2613C46.4613 38.7338 45.7459 38.4375 45 38.4375C44.2541 38.4375 43.5387 38.7338 43.0113 39.2613C42.4838 39.7887 42.1875 40.5041 42.1875 41.25V63.75C42.1875 64.4959 42.4838 65.2113 43.0113 65.7387C43.5387 66.2662 44.2541 66.5625 45 66.5625C45.7459 66.5625 46.4613 66.2662 46.9887 65.7387C47.5162 65.2113 47.8125 64.4959 47.8125 63.75V41.25Z" fill="#EC5557"/>
<path fill-rule="evenodd" clip-rule="evenodd" d="M45 4.6875C22.7362 4.6875 4.6875 22.7362 4.6875 45C4.6875 67.2637 22.7362 85.3125 45 85.3125C67.2637 85.3125 85.3125 67.2637 85.3125 45C85.3125 22.7362 67.2637 4.6875 45 4.6875ZM10.3125 45C10.3125 35.8003 13.9671 26.9774 20.4722 20.4722C26.9774 13.9671 35.8003 10.3125 45 10.3125C54.1997 10.3125 63.0226 13.9671 69.5278 20.4722C76.0329 26.9774 79.6875 35.8003 79.6875 45C79.6875 54.1997 76.0329 63.0226 69.5278 69.5278C63.0226 76.0329 54.1997 79.6875 45 79.6875C35.8003 79.6875 26.9774 76.0329 20.4722 69.5278C13.9671 63.0226 10.3125 54.1997 10.3125 45Z" fill="#EC5557"/>
<path d="M48.75 30C48.75 30.9946 48.3549 31.9484 47.6516 32.6516C46.9484 33.3549 45.9946 33.75 45 33.75C44.0054 33.75 43.0516 33.3549 42.3484 32.6516C41.6451 31.9484 41.25 30.9946 41.25 30C41.25 29.0054 41.6451 28.0516 42.3484 27.3484C43.0516 26.6451 44.0054 26.25 45 26.25C45.9946 26.25 46.9484 26.6451 47.6516 27.3484C48.3549 28.0516 48.75 29.0054 48.75 30Z" fill="#EC5557"/>
</svg>
