<svg width="36" height="36" viewBox="0 0 36 36" fill="none" xmlns="http://www.w3.org/2000/svg">
<path d="M3.5 18C3.5 14.7003 3.50082 12.2694 3.72353 10.3853C3.94494 8.51215 4.37969 7.24455 5.20242 6.24205C5.51408 5.86229 5.86229 5.51408 6.24205 5.20242C7.24455 4.37969 8.51215 3.94494 10.3853 3.72353C12.2694 3.50082 14.7003 3.5 18 3.5C21.2997 3.5 23.7306 3.50082 25.6147 3.72353C27.4879 3.94494 28.7554 4.37969 29.7579 5.20242C30.1377 5.51408 30.4859 5.86229 30.7976 6.24205C31.6203 7.24455 32.0551 8.51215 32.2765 10.3853C32.4992 12.2694 32.5 14.7003 32.5 18C32.5 21.2997 32.4992 23.7306 32.2765 25.6147C32.0551 27.4879 31.6203 28.7554 30.7976 29.7579C30.4859 30.1377 30.1377 30.4859 29.7579 30.7976C28.7554 31.6203 27.4879 32.0551 25.6147 32.2765C23.7306 32.4992 21.2997 32.5 18 32.5C14.7003 32.5 12.2694 32.4992 10.3853 32.2765C8.51215 32.0551 7.24455 31.6203 6.24205 30.7976C5.86229 30.4859 5.51408 30.1377 5.20242 29.7579C4.37969 28.7554 3.94494 27.4879 3.72353 25.6147C3.50082 23.7306 3.5 21.2997 3.5 18Z" stroke="#EC5557"/>
<path d="M22.2426 13.7578L13.7574 22.2431M13.7574 13.7578L22.2426 22.2431" stroke="#EC5557" stroke-width="1.5" stroke-linecap="round" stroke-linejoin="round"/>
</svg>
