<svg width="48" height="48" viewBox="0 0 48 48" fill="none" xmlns="http://www.w3.org/2000/svg">
<rect x="0.5" y="0.5" width="47" height="47" rx="14.5" stroke="url(#paint0_linear_1635_10389)"/>
<path d="M31.334 24.0007V33.1673H16.6673V24.0007M24.0007 33.1673V19.4173M24.0007 19.4173H19.8757C19.2679 19.4173 18.685 19.1759 18.2552 18.7461C17.8254 18.3163 17.584 17.7334 17.584 17.1257C17.584 16.5179 17.8254 15.935 18.2552 15.5052C18.685 15.0754 19.2679 14.834 19.8757 14.834C23.084 14.834 24.0007 19.4173 24.0007 19.4173ZM24.0007 19.4173H28.1257C28.7334 19.4173 29.3163 19.1759 29.7461 18.7461C30.1759 18.3163 30.4173 17.7334 30.4173 17.1257C30.4173 16.5179 30.1759 15.935 29.7461 15.5052C29.3163 15.0754 28.7334 14.834 28.1257 14.834C24.9173 14.834 24.0007 19.4173 24.0007 19.4173ZM14.834 19.4173H33.1673V24.0007H14.834V19.4173Z" stroke="white" stroke-linecap="round" stroke-linejoin="round"/>
<defs>
<linearGradient id="paint0_linear_1635_10389" x1="24" y1="0" x2="24" y2="48" gradientUnits="userSpaceOnUse">
<stop stop-color="#2F2F2F"/>
<stop offset="0.5" stop-color="#191919"/>
<stop offset="1" stop-color="#151515"/>
</linearGradient>
</defs>
</svg>
