<svg width="18" height="16" viewBox="0 0 18 16" fill="none" xmlns="http://www.w3.org/2000/svg">
<path fill-rule="evenodd" clip-rule="evenodd" d="M7.16947 10.7118C7.68987 11.0646 8.3241 11.2779 8.99898 11.2779C10.7878 11.2779 12.2433 9.80931 12.2433 8.00438C12.2433 7.32343 12.0319 6.6835 11.6823 6.15843L10.796 7.05269C10.9423 7.33163 11.0236 7.6598 11.0236 8.00438C11.0236 9.12836 10.113 10.0472 8.99898 10.0472C8.65748 10.0472 8.33223 9.96519 8.05577 9.81752L7.16947 10.7118ZM14.3574 3.45923C15.5364 4.54219 16.5366 6.00255 17.2846 7.75825C17.3497 7.91413 17.3497 8.09463 17.2846 8.2423C15.5446 12.328 12.4466 14.7729 8.99898 14.7729H8.99085C7.42154 14.7729 5.91728 14.256 4.5919 13.3125L3.01446 14.9041C2.89249 15.0272 2.738 15.0846 2.5835 15.0846C2.42901 15.0846 2.26639 15.0272 2.15255 14.9041C1.94927 14.699 1.91675 14.3709 2.07937 14.1329L2.10377 14.1001L14.1297 1.96606C14.146 1.94965 14.1623 1.93324 14.1704 1.91683L14.1704 1.91683C14.1867 1.90042 14.2029 1.88402 14.2111 1.86761L14.9754 1.09641C15.2193 0.858488 15.6015 0.858488 15.8373 1.09641C16.0812 1.33433 16.0812 1.72814 15.8373 1.96606L14.3574 3.45923ZM5.74872 8.00758C5.74872 8.22089 5.77311 8.4342 5.80564 8.6311L2.79711 11.6667C1.98399 10.715 1.27658 9.56638 0.715535 8.2455C0.650486 8.09783 0.650486 7.91733 0.715535 7.76145C2.4556 3.67574 5.55357 1.23908 8.99305 1.23908H9.00118C10.1639 1.23908 11.2942 1.51803 12.335 2.0431L9.61915 4.78331C9.424 4.7505 9.21259 4.72588 9.00118 4.72588C7.20419 4.72588 5.74872 6.19444 5.74872 8.00758Z" fill="white"/>
</svg>
