<svg width="20" height="20" viewBox="0 0 20 20" fill="none" xmlns="http://www.w3.org/2000/svg">
<path d="M15.9752 3.09641C16.2191 2.85849 16.6017 2.85849 16.8375 3.09641C17.081 3.33427 17.081 3.7277 16.8375 3.96555L15.357 5.45872C16.536 6.54162 17.5367 8.00196 18.2848 9.75754C18.3498 9.91335 18.3497 10.0943 18.2848 10.2419C16.5447 14.3276 13.4462 16.7722 9.99863 16.7722H9.99081C8.4215 16.7722 6.91678 16.2557 5.5914 15.3122L4.01425 16.904C3.89236 17.027 3.73796 17.0846 3.58359 17.0847C3.4291 17.0847 3.26578 17.0271 3.15195 16.904C2.9488 16.6989 2.9171 16.3704 3.07968 16.1325L3.10409 16.1003L15.1295 3.96555C15.1457 3.94917 15.1624 3.9331 15.1705 3.91672C15.1867 3.90033 15.2024 3.88331 15.2105 3.86692L15.9752 3.09641ZM10.0006 3.23899C11.1632 3.23899 12.2938 3.51771 13.3346 4.0427L10.6187 6.78293C10.4237 6.75014 10.2119 6.72532 10.0006 6.72532C8.2038 6.72556 6.74863 8.19456 6.74863 10.0075C6.74864 10.2207 6.77278 10.4338 6.80527 10.6306L3.79648 13.6667C2.98338 12.715 2.27646 11.5657 1.71542 10.2448C1.65054 10.0973 1.65051 9.91717 1.71542 9.76145C3.45547 5.67579 6.55334 3.23905 9.99277 3.23899H10.0006ZM11.7955 9.05247C11.9418 9.33128 12.023 9.65923 12.023 10.0036C12.023 11.1276 11.1126 12.0466 9.99863 12.0466C9.65719 12.0466 9.33167 11.9648 9.05527 11.8171L8.16952 12.7116C8.68983 13.0643 9.3239 13.278 9.99863 13.2781C11.7875 13.2781 13.2428 11.8086 13.2428 10.0036C13.2427 9.32286 13.0318 8.68288 12.6822 8.15793L11.7955 9.05247Z" fill="#091229"/>
</svg>
