<svg width="35" height="35" viewBox="0 0 35 35" fill="none" xmlns="http://www.w3.org/2000/svg">
<path d="M27.9727 20.3584C27.6787 19.6338 27.2207 19.0117 26.6055 18.499C25.9834 17.9863 25.1836 17.624 24.2061 17.4121C25.3545 16.9404 26.2021 16.2432 26.7559 15.3271C27.3096 14.4111 27.583 13.3721 27.583 12.21C27.583 9.9541 26.7148 8.25879 24.9785 7.12402C23.8848 6.40625 22.5176 5.91406 20.877 5.64746H21.0547V1.23828H18.3408V5.42188C18.1357 5.41504 17.9375 5.41504 17.7256 5.41504H16.2422V1.23828H13.5352V5.41504H6.58984V8.89453L9.13965 9.43457V26.0117L6.58984 26.5518V30.0176H13.5352V33.7637H16.249V30.0176H18.3477V33.7637H21.0547V29.915C23.1191 29.6894 24.7734 29.1152 25.9971 28.1787C27.6103 26.9482 28.417 25.1299 28.417 22.7168C28.4102 21.876 28.2598 21.0898 27.9727 20.3584ZM20.6787 10.6445C21.3281 11.1094 21.6494 11.8613 21.6494 12.8867C21.6494 13.8232 21.3008 14.5137 20.6104 14.958C19.9199 15.4023 18.874 15.6279 17.4727 15.6279H15.0732V9.94726H17.7256C19.0449 9.94043 20.0293 10.1797 20.6787 10.6445ZM21.6221 24.8154C21.0342 25.2803 20.1523 25.5059 18.9766 25.5059H15.0732V19.5381H19.2637C20.0293 19.5381 20.6514 19.6543 21.123 19.8867C21.5947 20.1191 21.9434 20.4678 22.1689 20.9326C22.3945 21.3975 22.5039 21.9922 22.5039 22.6963C22.5107 23.6533 22.2168 24.3506 21.6221 24.8154Z" fill="#FF9500"/>
</svg>
