<svg width="46" height="46" viewBox="0 0 46 46" fill="none" xmlns="http://www.w3.org/2000/svg">
<circle cx="23" cy="23" r="23" fill="#0166FF"/>
<path d="M26.4467 20.2241L28.7805 20.2241C30.0694 20.2241 31.1142 21.269 31.1142 22.5579V28.7812C31.1142 30.0701 30.0694 31.115 28.7805 31.115H22.5572C21.2683 31.115 20.2234 30.0701 20.2234 28.7812V26.4475M24.113 15.5566L17.8897 15.5566C16.6008 15.5566 15.5559 16.6015 15.5559 17.8904L15.5559 24.1137C15.5559 25.4026 16.6008 26.4475 17.8897 26.4475L24.113 26.4475C25.4019 26.4475 26.4467 25.4026 26.4467 24.1137L26.4467 17.8904C26.4467 16.6015 25.4019 15.5566 24.113 15.5566Z" stroke="white" stroke-width="1.5" stroke-linecap="round" stroke-linejoin="round"/>
</svg>
