<svg width="60" height="88" viewBox="0 0 60 88" fill="none" xmlns="http://www.w3.org/2000/svg">
<path d="M16.2725 83.1709C15.5524 83.1709 14.8529 83.0342 14.1738 82.7607C13.4948 82.4827 12.9297 82.109 12.4785 81.6396L13.1621 80.6758C13.5358 81.0768 14.0007 81.4027 14.5566 81.6533C15.1126 81.8994 15.6846 82.0225 16.2725 82.0225C16.915 82.0225 17.4551 81.8743 17.8926 81.5781C18.3301 81.2773 18.5488 80.8968 18.5488 80.4365C18.5488 80.3089 18.5283 80.1882 18.4873 80.0742C18.4463 79.9557 18.3984 79.8532 18.3438 79.7666C18.2891 79.6755 18.207 79.5889 18.0977 79.5068C17.9883 79.4202 17.8926 79.3496 17.8105 79.2949C17.7331 79.2402 17.6169 79.1833 17.4619 79.124C17.307 79.0602 17.1885 79.0146 17.1064 78.9873C17.029 78.9554 16.9014 78.9167 16.7236 78.8711C16.5505 78.821 16.4365 78.7891 16.3818 78.7754C16.3271 78.7617 16.2155 78.7367 16.0469 78.7002C15.7005 78.6273 15.377 78.5407 15.0762 78.4404C14.7799 78.3356 14.486 78.2035 14.1943 78.0439C13.9072 77.8799 13.6611 77.6999 13.4561 77.5039C13.2555 77.3034 13.0938 77.0618 12.9707 76.7793C12.8477 76.4967 12.7861 76.1914 12.7861 75.8633C12.7861 75.0612 13.1051 74.4118 13.7432 73.915C14.3857 73.4183 15.2129 73.1699 16.2246 73.1699C16.89 73.1699 17.4984 73.2793 18.0498 73.498C18.6058 73.7168 19.057 74.013 19.4033 74.3867L18.7881 75.3438C18.5238 75.0521 18.1569 74.8083 17.6875 74.6123C17.2227 74.4163 16.7305 74.3184 16.2109 74.3184C15.6003 74.3184 15.0944 74.4596 14.6934 74.7422C14.2969 75.0202 14.0986 75.3779 14.0986 75.8154C14.0986 76.6084 14.8688 77.1644 16.4092 77.4834C16.5778 77.5153 16.7396 77.5518 16.8945 77.5928C17.054 77.6338 17.2546 77.6953 17.4961 77.7773C17.7422 77.8594 17.9655 77.9505 18.166 78.0508C18.3711 78.1465 18.5807 78.2718 18.7949 78.4268C19.0137 78.5817 19.1982 78.7503 19.3486 78.9326C19.499 79.1104 19.6221 79.3245 19.7178 79.5752C19.818 79.8258 19.8682 80.0947 19.8682 80.3818C19.8682 81.1976 19.5241 81.8675 18.8359 82.3916C18.1523 82.9111 17.2979 83.1709 16.2725 83.1709ZM28.3516 79.4316C28.3516 79.5 28.3402 79.6777 28.3174 79.9648H22.1719C22.2949 80.5938 22.5934 81.1019 23.0674 81.4893C23.5459 81.8721 24.1292 82.0635 24.8174 82.0635C25.3278 82.0635 25.7972 81.9564 26.2256 81.7422C26.654 81.5234 26.9889 81.2432 27.2305 80.9014L28.0576 81.6123C27.6976 82.0954 27.2305 82.4759 26.6562 82.7539C26.0866 83.0319 25.46 83.1709 24.7764 83.1709C23.6598 83.1709 22.7301 82.8109 21.9873 82.0908C21.2445 81.3708 20.873 80.4753 20.873 79.4043C20.873 78.7116 21.0348 78.0827 21.3584 77.5176C21.6865 76.9479 22.1377 76.5013 22.7119 76.1777C23.2861 75.8542 23.9242 75.6924 24.626 75.6924C25.3232 75.6924 25.9567 75.8542 26.5264 76.1777C27.096 76.5013 27.5426 76.9502 27.8662 77.5244C28.1898 78.0941 28.3516 78.7298 28.3516 79.4316ZM24.6123 76.7998C23.9925 76.7998 23.457 76.9935 23.0059 77.3809C22.5547 77.7637 22.2721 78.2604 22.1582 78.8711H27.0732C26.9593 78.2513 26.6768 77.7523 26.2256 77.374C25.7744 76.9912 25.2367 76.7998 24.6123 76.7998ZM33.6699 75.6924C34.5404 75.6924 35.2399 75.9567 35.7686 76.4854C36.3018 77.014 36.5684 77.7158 36.5684 78.5908V83H35.3652V78.9668C35.3652 78.3288 35.1761 77.8184 34.7979 77.4355C34.4196 77.0482 33.9137 76.8545 33.2803 76.8545C32.6195 76.8545 32.0908 77.0505 31.6943 77.4424C31.2979 77.8343 31.0996 78.3516 31.0996 78.9941V83H29.8965V75.8633H31.0996V76.9502C31.6784 76.1117 32.5352 75.6924 33.6699 75.6924ZM44.4297 72.917H45.6328V83H44.4297V81.7148C44.1243 82.1706 43.7301 82.5283 43.2471 82.7881C42.7686 83.0433 42.2376 83.1709 41.6543 83.1709C40.9844 83.1709 40.376 83.0091 39.8291 82.6855C39.2822 82.3574 38.8538 81.9085 38.5439 81.3389C38.2386 80.7646 38.0859 80.1289 38.0859 79.4316C38.0859 78.7344 38.2386 78.1009 38.5439 77.5312C38.8538 76.957 39.2822 76.5081 39.8291 76.1846C40.376 75.8564 40.9844 75.6924 41.6543 75.6924C42.2376 75.6924 42.7686 75.8223 43.2471 76.082C43.7301 76.3372 44.1243 76.6927 44.4297 77.1484V72.917ZM41.8799 82.0088C42.609 82.0088 43.2152 81.7627 43.6982 81.2705C44.1859 80.7783 44.4297 80.1654 44.4297 79.4316C44.4297 78.6979 44.1859 78.085 43.6982 77.5928C43.2152 77.1006 42.609 76.8545 41.8799 76.8545C41.1462 76.8545 40.5355 77.1006 40.0479 77.5928C39.5602 78.085 39.3164 78.6979 39.3164 79.4316C39.3164 80.1654 39.5602 80.7783 40.0479 81.2705C40.5355 81.7627 41.1462 82.0088 41.8799 82.0088Z" fill="white"/>
<circle cx="30" cy="30" r="30" fill="#24262B"/>
<path d="M27.3198 24.4995L29.8798 21.9395L32.4398 24.4995" stroke="white" stroke-width="1.5" stroke-miterlimit="10" stroke-linecap="round" stroke-linejoin="round"/>
<path d="M29.8799 32.1798V22.0098" stroke="white" stroke-width="1.5" stroke-miterlimit="10" stroke-linecap="round" stroke-linejoin="round"/>
<path d="M22 30C22 34.42 25 38 30 38C35 38 38 34.42 38 30" stroke="white" stroke-width="1.5" stroke-miterlimit="10" stroke-linecap="round" stroke-linejoin="round"/>
</svg>
