<svg width="50" height="50" viewBox="0 0 50 50" fill="none" xmlns="http://www.w3.org/2000/svg">
<path d="M34 0.5C42.5604 0.5 49.5 7.43959 49.5 16V34C49.5 42.5604 42.5604 49.5 34 49.5H16C7.43959 49.5 0.5 42.5604 0.5 34V16C0.5 7.43959 7.43959 0.5 16 0.5H34Z" fill="white"/>
<path d="M34 0.5C42.5604 0.5 49.5 7.43959 49.5 16V34C49.5 42.5604 42.5604 49.5 34 49.5H16C7.43959 49.5 0.5 42.5604 0.5 34V16C0.5 7.43959 7.43959 0.5 16 0.5H34Z" stroke="#E8E8E8"/>
<path fill-rule="evenodd" clip-rule="evenodd" d="M25 15.75C30.108 15.75 34.25 19.891 34.25 25C34.25 30.108 30.108 34.25 25 34.25C19.891 34.25 15.75 30.108 15.75 25C15.75 19.891 19.891 15.75 25 15.75Z" stroke="#091229" stroke-width="1.5" stroke-linecap="round" stroke-linejoin="round"/>
<path d="M24.9951 21.2031V25.6221" stroke="#091229" stroke-width="1.5" stroke-linecap="round" stroke-linejoin="round"/>
<path d="M24.995 28.7969H25.005" stroke="#091229" stroke-width="2" stroke-linecap="round" stroke-linejoin="round"/>
</svg>
