<svg width="35" height="35" viewBox="0 0 35 35" fill="none" xmlns="http://www.w3.org/2000/svg">
<path d="M15.4209 22.9404H16.5209V22.9404L15.4209 22.9404ZM15.4209 27.543L16.5209 27.5431V27.543H15.4209ZM4 27.543H2.9V27.5431L4 27.543ZM4 22.9404L2.9 22.9404V22.9404H4ZM27.5703 19.4834L27.5704 18.3834H27.5703V19.4834ZM30.999 22.9404H32.099V22.9404L30.999 22.9404ZM30.999 27.543L32.099 27.5431V27.543H30.999ZM27.5703 30.998V32.098H27.5704L27.5703 30.998ZM23.0068 30.998L23.0068 32.098H23.0068V30.998ZM19.5781 27.543H18.4781V27.5431L19.5781 27.543ZM19.5781 22.9404L18.4781 22.9404V22.9404H19.5781ZM23.0068 19.4834V18.3834H23.0068L23.0068 19.4834ZM11.9922 4L11.9923 2.9H11.9922V4ZM15.4209 7.45703H16.5209V7.45697L15.4209 7.45703ZM15.4209 12.0596L16.5209 12.0597V12.0596H15.4209ZM11.9922 15.5146V16.6146H11.9923L11.9922 15.5146ZM7.42871 15.5146L7.42866 16.6146H7.42871V15.5146ZM4 12.0596H2.9V12.0597L4 12.0596ZM4 7.45703L2.9 7.45697V7.45703H4ZM7.42871 4V2.9H7.42866L7.42871 4ZM27.5703 4L27.5704 2.9H27.5703V4ZM27.5703 15.5146V16.6146H27.5704L27.5703 15.5146ZM23.0068 15.5146L23.0068 16.6146H23.0068V15.5146ZM23.0068 4V2.9H23.0068L23.0068 4ZM11.9912 19.4834V20.5834C13.2785 20.5834 14.3209 21.6224 14.3209 22.9405L15.4209 22.9404L16.5209 22.9404C16.5208 20.4246 14.5107 18.3834 11.9912 18.3834V19.4834ZM15.4209 22.9404H14.3209V27.543H15.4209H16.5209V22.9404H15.4209ZM15.4209 27.543L14.3209 27.5428C14.3207 28.8494 13.2763 29.898 11.9912 29.898V30.998V32.098C14.5127 32.098 16.5206 30.043 16.5209 27.5431L15.4209 27.543ZM11.9912 30.998V29.898H7.42871V30.998V32.098H11.9912V30.998ZM7.42871 30.998V29.898C6.15473 29.898 5.10017 28.847 5.1 27.5428L4 27.543L2.9 27.5431C2.90033 30.0454 4.92313 32.098 7.42871 32.098V30.998ZM4 27.543H5.1V22.9404H4H2.9V27.543H4ZM4 22.9404L5.1 22.9405C5.10003 21.6248 6.1525 20.5834 7.42871 20.5834V19.4834V18.3834C4.9251 18.3834 2.90006 20.4222 2.9 22.9404L4 22.9404ZM7.42871 19.4834V20.5834H11.9912V19.4834V18.3834H7.42871V19.4834ZM27.5703 19.4834L27.5702 20.5834C28.8464 20.5835 29.899 21.6251 29.899 22.9405L30.999 22.9404L32.099 22.9404C32.099 20.4222 30.0737 18.3837 27.5704 18.3834L27.5703 19.4834ZM30.999 22.9404H29.899V27.543H30.999H32.099V22.9404H30.999ZM30.999 27.543L29.899 27.5428C29.8989 28.8467 28.8442 29.8979 27.5702 29.898L27.5703 30.998L27.5704 32.098C30.0756 32.0978 32.0987 30.0454 32.099 27.5431L30.999 27.543ZM27.5703 30.998V29.898H23.0068V30.998V32.098H27.5703V30.998ZM23.0068 30.998L23.0069 29.898C21.7222 29.8979 20.6783 28.8496 20.6781 27.5428L19.5781 27.543L18.4781 27.5431C18.4785 30.0426 20.4851 32.0979 23.0068 32.098L23.0068 30.998ZM19.5781 27.543H20.6781V22.9404H19.5781H18.4781V27.543H19.5781ZM19.5781 22.9404L20.6781 22.9405C20.6782 21.6222 21.72 20.5835 23.0069 20.5834L23.0068 19.4834L23.0068 18.3834C20.4871 18.3836 18.4782 20.4251 18.4781 22.9404L19.5781 22.9404ZM23.0068 19.4834V20.5834H27.5703V19.4834V18.3834H23.0068V19.4834ZM11.9922 4L11.992 5.1C13.2764 5.10017 14.3208 6.14856 14.3209 7.45709L15.4209 7.45703L16.5209 7.45697C16.5208 4.95642 14.5143 2.90033 11.9923 2.9L11.9922 4ZM15.4209 7.45703H14.3209V12.0596H15.4209H16.5209V7.45703H15.4209ZM15.4209 12.0596L14.3209 12.0595C14.3208 13.3768 13.2796 14.4145 11.992 14.4146L11.9922 15.5146L11.9923 16.6146C14.511 16.6143 16.5207 14.5756 16.5209 12.0597L15.4209 12.0596ZM11.9922 15.5146V14.4146H7.42871V15.5146V16.6146H11.9922V15.5146ZM7.42871 15.5146L7.42877 14.4146C6.1519 14.4146 5.10013 13.3742 5.1 12.0595L4 12.0596L2.9 12.0597C2.90024 14.5784 4.92604 16.6145 7.42866 16.6146L7.42871 15.5146ZM4 12.0596H5.1V7.45703H4H2.9V12.0596H4ZM4 7.45703L5.1 7.45709C5.10007 6.15121 6.15512 5.10006 7.42877 5.1L7.42871 4L7.42866 2.9C4.92272 2.90012 2.90014 4.95358 2.9 7.45697L4 7.45703ZM7.42871 4V5.1H11.9922V4V2.9H7.42871V4ZM27.5703 4L27.5702 5.1C28.844 5.10014 29.899 6.15129 29.899 7.45703H30.999H32.099C32.099 4.95345 30.0762 2.90027 27.5704 2.9L27.5703 4ZM30.999 7.45703H29.899V12.0586H30.999H32.099V7.45703H30.999ZM30.999 12.0586H29.899C29.899 13.3735 28.8469 14.4145 27.5702 14.4146L27.5703 15.5146L27.5704 16.6146C30.0733 16.6144 32.099 14.5773 32.099 12.0586H30.999ZM27.5703 15.5146V14.4146H23.0068V15.5146V16.6146H27.5703V15.5146ZM23.0068 15.5146L23.0069 14.4146C21.7195 14.4146 20.6781 13.3764 20.6781 12.0586H19.5781H18.4781C18.4781 14.5744 20.4875 16.6145 23.0068 16.6146L23.0068 15.5146ZM19.5781 12.0586H20.6781V7.45703H19.5781H18.4781V12.0586H19.5781ZM19.5781 7.45703H20.6781C20.6781 6.14839 21.7225 5.1001 23.0069 5.1L23.0068 4L23.0068 2.9C20.4846 2.90019 18.4781 4.95628 18.4781 7.45703H19.5781ZM23.0068 4V5.1H27.5703V4V2.9H23.0068V4Z" fill="#0166FF"/>
</svg>
