<svg width="48" height="48" viewBox="0 0 48 48" fill="none" xmlns="http://www.w3.org/2000/svg">
<path d="M24 0.5C28.2086 0.5 31.3353 0.500812 33.8115 0.703125C36.2817 0.904969 38.061 1.30456 39.583 2.08008C42.3114 3.47024 44.5298 5.68864 45.9199 8.41699C46.6954 9.93903 47.095 11.7183 47.2969 14.1885C47.4992 16.6647 47.5 19.7914 47.5 24C47.5 28.2086 47.4992 31.3353 47.2969 33.8115C47.095 36.2817 46.6954 38.061 45.9199 39.583C44.5298 42.3114 42.3114 44.5298 39.583 45.9199C38.061 46.6954 36.2817 47.095 33.8115 47.2969C31.3353 47.4992 28.2086 47.5 24 47.5C19.7914 47.5 16.6647 47.4992 14.1885 47.2969C11.7183 47.095 9.93903 46.6954 8.41699 45.9199C5.68864 44.5298 3.47024 42.3114 2.08008 39.583C1.30456 38.061 0.904969 36.2817 0.703125 33.8115C0.500812 31.3353 0.5 28.2086 0.5 24C0.5 19.7914 0.500812 16.6647 0.703125 14.1885C0.904969 11.7183 1.30456 9.93903 2.08008 8.41699C3.47024 5.68864 5.68864 3.47024 8.41699 2.08008C9.93903 1.30456 11.7183 0.904969 14.1885 0.703125C16.6647 0.500812 19.7914 0.5 24 0.5Z" stroke="url(#paint0_linear_13446_32931)"/>
<path d="M22.1333 17.8816V23.8434C22.1335 23.9946 22.104 24.1443 22.0463 24.2841C21.9887 24.4238 21.9041 24.5508 21.7974 24.6577C21.6907 24.7646 21.564 24.8494 21.4245 24.9072C21.2851 24.965 21.1356 24.9946 20.9848 24.9944H15.0314C14.8805 24.9946 14.731 24.965 14.5916 24.9072C14.4522 24.8494 14.3255 24.7646 14.2188 24.6577C14.1121 24.5508 14.0275 24.4238 13.9698 24.2841C13.9122 24.1443 13.8826 23.9946 13.8828 23.8434V17.8824C13.8828 17.2456 14.396 16.7313 15.0314 16.7313H20.9855C21.6202 16.7313 22.1333 17.2448 22.1333 17.8816ZM22.1333 27.475V33.4375C22.1335 33.5887 22.104 33.7385 22.0463 33.8782C21.9887 34.018 21.9041 34.145 21.7974 34.2519C21.6907 34.3588 21.564 34.4436 21.4245 34.5014C21.2851 34.5591 21.1356 34.5888 20.9848 34.5886H15.0314C14.8805 34.5888 14.731 34.5591 14.5916 34.5014C14.4522 34.4436 14.3255 34.3588 14.2188 34.2519C14.1121 34.145 14.0275 34.018 13.9698 33.8782C13.9122 33.7385 13.8826 33.5887 13.8828 33.4375V27.475C13.8828 26.8382 14.396 26.3247 15.0314 26.3247H20.9855C21.6202 26.3247 22.1333 26.839 22.1333 27.475ZM30.5544 34.5886H24.6048C24.4539 34.5888 24.3044 34.5591 24.165 34.5014C24.0256 34.4436 23.8989 34.3588 23.7922 34.2519C23.6855 34.145 23.6009 34.018 23.5432 33.8782C23.4856 33.7385 23.456 33.5887 23.4562 33.4375V27.4712C23.4562 26.8344 23.9694 26.3202 24.6048 26.3202H30.5544C31.1898 26.3202 31.703 26.8344 31.703 27.4712V33.4383C31.7031 33.5894 31.6734 33.7391 31.6157 33.8788C31.558 34.0184 31.4734 34.1453 31.3667 34.2522C31.26 34.359 31.1334 34.4437 30.994 34.5014C30.8546 34.5592 30.7052 34.5888 30.5544 34.5886ZM29.1077 23.7798L24.1143 20.5369C23.9875 20.4549 23.8781 20.3486 23.7924 20.2241C23.7067 20.0996 23.6464 19.9594 23.6148 19.8115C23.5833 19.6637 23.5812 19.511 23.6086 19.3623C23.636 19.2136 23.6925 19.0718 23.7747 18.9449L27.0121 13.9384C27.094 13.8112 27.2001 13.7015 27.3243 13.6156C27.4486 13.5296 27.5886 13.4691 27.7362 13.4375C27.8839 13.4059 28.0363 13.4038 28.1848 13.4313C28.3332 13.4589 28.4748 13.5155 28.6014 13.598L33.5933 16.841C33.7201 16.923 33.8295 17.0293 33.9152 17.1538C34.0009 17.2783 34.0612 17.4184 34.0928 17.5663C34.1243 17.7142 34.1264 17.8669 34.099 18.0156C34.0716 18.1643 34.0151 18.3061 33.9329 18.4329L30.6955 23.4395C30.6136 23.5665 30.5076 23.6761 30.3834 23.762C30.2592 23.8479 30.1193 23.9084 29.9717 23.94C29.8241 23.9716 29.6718 23.9738 29.5234 23.9463C29.375 23.9188 29.2343 23.8622 29.1077 23.7798Z" stroke="white" stroke-width="1.1"/>
<defs>
<linearGradient id="paint0_linear_13446_32931" x1="24" y1="0" x2="24" y2="48" gradientUnits="userSpaceOnUse">
<stop stop-color="#2F2F2F"/>
<stop offset="0.5" stop-color="#191919"/>
<stop offset="1" stop-color="#151515"/>
</linearGradient>
</defs>
</svg>
