<svg width="22" height="24" viewBox="0 0 22 24" fill="none" xmlns="http://www.w3.org/2000/svg">
<path d="M9.13332 5.87966V11.8414C9.13352 11.9926 9.10395 12.1424 9.0463 12.2821C8.98865 12.4219 8.90405 12.5488 8.79736 12.6558C8.69067 12.7627 8.56397 12.8475 8.42453 12.9052C8.28509 12.963 8.13565 12.9927 7.98476 12.9925H2.03138C1.88049 12.9927 1.73105 12.963 1.59161 12.9052C1.45217 12.8475 1.32547 12.7627 1.21878 12.6558C1.11208 12.5488 1.02749 12.4219 0.969838 12.2821C0.912188 12.1424 0.882615 11.9926 0.882813 11.8414V5.88041C0.882813 5.24362 1.39597 4.72935 2.03138 4.72935H7.98551C8.62017 4.72935 9.13332 5.24287 9.13332 5.87966ZM9.13332 15.4731V21.4356C9.13352 21.5868 9.10395 21.7366 9.0463 21.8763C8.98865 22.016 8.90405 22.143 8.79736 22.2499C8.69067 22.3569 8.56397 22.4416 8.42453 22.4994C8.28509 22.5572 8.13565 22.5868 7.98476 22.5866H2.03138C1.88049 22.5868 1.73105 22.5572 1.59161 22.4994C1.45217 22.4416 1.32547 22.3569 1.21878 22.2499C1.11208 22.143 1.02749 22.016 0.969838 21.8763C0.912188 21.7366 0.882615 21.5868 0.882813 21.4356V15.4731C0.882813 14.8363 1.39597 14.3228 2.03138 14.3228H7.98551C8.62017 14.3228 9.13332 14.837 9.13332 15.4731ZM17.5544 22.5866H11.6048C11.4539 22.5868 11.3044 22.5572 11.165 22.4994C11.0256 22.4416 10.8989 22.3569 10.7922 22.2499C10.6855 22.143 10.6009 22.016 10.5432 21.8763C10.4856 21.7366 10.456 21.5868 10.4562 21.4356V15.4693C10.4562 14.8325 10.9694 14.3182 11.6048 14.3182H17.5544C18.1898 14.3182 18.703 14.8325 18.703 15.4693V21.4363C18.7031 21.5875 18.6734 21.7372 18.6157 21.8768C18.558 22.0165 18.4734 22.1434 18.3667 22.2502C18.26 22.357 18.1334 22.4418 17.994 22.4995C17.8546 22.5572 17.7052 22.5868 17.5544 22.5866ZM16.1077 11.7779L11.1143 8.53495C10.9875 8.45291 10.8781 8.34661 10.7924 8.22214C10.7067 8.09767 10.6464 7.95747 10.6148 7.80959C10.5833 7.6617 10.5812 7.50903 10.6086 7.36033C10.636 7.21162 10.6925 7.0698 10.7747 6.94298L14.0121 1.93641C14.094 1.80927 14.2001 1.69958 14.3243 1.61363C14.4486 1.52767 14.5886 1.46715 14.7362 1.43553C14.8839 1.40391 15.0363 1.40182 15.1848 1.42937C15.3332 1.45693 15.4748 1.51358 15.6014 1.59609L20.5933 4.83902C20.7201 4.92106 20.8295 5.02736 20.9152 5.15183C21.0009 5.2763 21.0612 5.41649 21.0928 5.56438C21.1243 5.71226 21.1264 5.86493 21.099 6.01364C21.0716 6.16235 21.0151 6.30417 20.9329 6.43098L17.6955 11.4376C17.6136 11.5646 17.5076 11.6742 17.3834 11.7601C17.2592 11.846 17.1193 11.9065 16.9717 11.9381C16.8241 11.9697 16.6718 11.9718 16.5234 11.9443C16.375 11.9168 16.2343 11.8603 16.1077 11.7779Z" stroke="#091229" stroke-width="1.1"/>
</svg>
