<svg width="24" height="24" viewBox="0 0 24 24" fill="none" xmlns="http://www.w3.org/2000/svg">
<path d="M10.1333 5.88356V11.8453C10.1335 11.9965 10.104 12.1463 10.0463 12.286C9.98865 12.4258 9.90405 12.5528 9.79736 12.6597C9.69067 12.7666 9.56397 12.8514 9.42453 12.9092C9.28509 12.9669 9.13565 12.9966 8.98476 12.9964H3.03138C2.88049 12.9966 2.73105 12.9669 2.59161 12.9092C2.45217 12.8514 2.32547 12.7666 2.21878 12.6597C2.11208 12.5528 2.02749 12.4258 1.96984 12.286C1.91219 12.1463 1.88261 11.9965 1.88281 11.8453V5.88432C1.88281 5.24753 2.39597 4.73326 3.03138 4.73326H8.98551C9.62017 4.73326 10.1333 5.24677 10.1333 5.88356ZM10.1333 15.477V21.4395C10.1335 21.5907 10.104 21.7405 10.0463 21.8802C9.98865 22.0199 9.90405 22.1469 9.79736 22.2538C9.69067 22.3608 9.56397 22.4455 9.42453 22.5033C9.28509 22.5611 9.13565 22.5907 8.98476 22.5905H3.03138C2.88049 22.5907 2.73105 22.5611 2.59161 22.5033C2.45217 22.4455 2.32547 22.3608 2.21878 22.2538C2.11208 22.1469 2.02749 22.0199 1.96984 21.8802C1.91219 21.7405 1.88261 21.5907 1.88281 21.4395V15.477C1.88281 14.8402 2.39597 14.3267 3.03138 14.3267H8.98551C9.62017 14.3267 10.1333 14.8409 10.1333 15.477ZM18.5544 22.5905H12.6048C12.4539 22.5907 12.3044 22.5611 12.165 22.5033C12.0256 22.4455 11.8989 22.3608 11.7922 22.2538C11.6855 22.1469 11.6009 22.0199 11.5432 21.8802C11.4856 21.7405 11.456 21.5907 11.4562 21.4395V15.4732C11.4562 14.8364 11.9694 14.3221 12.6048 14.3221H18.5544C19.1898 14.3221 19.703 14.8364 19.703 15.4732V21.4402C19.7031 21.5914 19.6734 21.7411 19.6157 21.8807C19.558 22.0204 19.4734 22.1473 19.3667 22.2541C19.26 22.3609 19.1334 22.4457 18.994 22.5034C18.8546 22.5611 18.7052 22.5907 18.5544 22.5905ZM17.1077 11.7818L12.1143 8.53886C11.9875 8.45682 11.8781 8.35052 11.7924 8.22605C11.7067 8.10158 11.6464 7.96138 11.6148 7.8135C11.5833 7.66561 11.5812 7.51294 11.6086 7.36423C11.636 7.21553 11.6925 7.0737 11.7747 6.94689L15.0121 1.94032C15.094 1.81318 15.2001 1.70349 15.3243 1.61753C15.4486 1.53158 15.5886 1.47106 15.7362 1.43944C15.8839 1.40782 16.0363 1.40573 16.1848 1.43328C16.3332 1.46083 16.4748 1.51749 16.6014 1.6L21.5933 4.84292C21.7201 4.92496 21.8295 5.03126 21.9152 5.15573C22.0009 5.28021 22.0612 5.4204 22.0928 5.56828C22.1243 5.71617 22.1264 5.86884 22.099 6.01755C22.0716 6.16626 22.0151 6.30808 21.9329 6.43489L18.6955 11.4415C18.6136 11.5685 18.5076 11.6781 18.3834 11.764C18.2592 11.8499 18.1193 11.9104 17.9717 11.942C17.8241 11.9736 17.6718 11.9757 17.5234 11.9482C17.375 11.9207 17.2343 11.8642 17.1077 11.7818Z" stroke="white" stroke-width="1.1"/>
</svg>
