<svg width="50" height="50" viewBox="0 0 50 50" fill="none" xmlns="http://www.w3.org/2000/svg">
<path d="M34 0.5C42.5604 0.5 49.5 7.43959 49.5 16V34C49.5 42.5604 42.5604 49.5 34 49.5H16C7.43959 49.5 0.5 42.5604 0.5 34V16C0.5 7.43959 7.43959 0.5 16 0.5H34Z" fill="white"/>
<path d="M34 0.5C42.5604 0.5 49.5 7.43959 49.5 16V34C49.5 42.5604 42.5604 49.5 34 49.5H16C7.43959 49.5 0.5 42.5604 0.5 34V16C0.5 7.43959 7.43959 0.5 16 0.5H34Z" stroke="#E8E8E8"/>
<path d="M23.1333 18.8816V24.8434C23.1335 24.9946 23.104 25.1443 23.0463 25.2841C22.9887 25.4238 22.9041 25.5508 22.7974 25.6577C22.6907 25.7646 22.564 25.8494 22.4245 25.9072C22.2851 25.965 22.1356 25.9946 21.9848 25.9944H16.0314C15.8805 25.9946 15.731 25.965 15.5916 25.9072C15.4522 25.8494 15.3255 25.7646 15.2188 25.6577C15.1121 25.5508 15.0275 25.4238 14.9698 25.2841C14.9122 25.1443 14.8826 24.9946 14.8828 24.8434V18.8824C14.8828 18.2456 15.396 17.7313 16.0314 17.7313H21.9855C22.6202 17.7313 23.1333 18.2448 23.1333 18.8816ZM23.1333 28.475V34.4375C23.1335 34.5887 23.104 34.7385 23.0463 34.8782C22.9887 35.018 22.9041 35.145 22.7974 35.2519C22.6907 35.3588 22.564 35.4436 22.4245 35.5014C22.2851 35.5591 22.1356 35.5888 21.9848 35.5886H16.0314C15.8805 35.5888 15.731 35.5591 15.5916 35.5014C15.4522 35.4436 15.3255 35.3588 15.2188 35.2519C15.1121 35.145 15.0275 35.018 14.9698 34.8782C14.9122 34.7385 14.8826 34.5887 14.8828 34.4375V28.475C14.8828 27.8382 15.396 27.3247 16.0314 27.3247H21.9855C22.6202 27.3247 23.1333 27.839 23.1333 28.475ZM31.5544 35.5886H25.6048C25.4539 35.5888 25.3044 35.5591 25.165 35.5014C25.0256 35.4436 24.8989 35.3588 24.7922 35.2519C24.6855 35.145 24.6009 35.018 24.5432 34.8782C24.4856 34.7385 24.456 34.5887 24.4562 34.4375V28.4712C24.4562 27.8344 24.9694 27.3202 25.6048 27.3202H31.5544C32.1898 27.3202 32.703 27.8344 32.703 28.4712V34.4383C32.7031 34.5894 32.6734 34.7391 32.6157 34.8788C32.558 35.0184 32.4734 35.1453 32.3667 35.2522C32.26 35.359 32.1334 35.4437 31.994 35.5014C31.8546 35.5592 31.7052 35.5888 31.5544 35.5886ZM30.1077 24.7798L25.1143 21.5369C24.9875 21.4549 24.8781 21.3486 24.7924 21.2241C24.7067 21.0996 24.6464 20.9594 24.6148 20.8115C24.5833 20.6637 24.5812 20.511 24.6086 20.3623C24.636 20.2136 24.6925 20.0718 24.7747 19.9449L28.0121 14.9384C28.094 14.8112 28.2001 14.7015 28.3243 14.6156C28.4486 14.5296 28.5886 14.4691 28.7362 14.4375C28.8839 14.4059 29.0363 14.4038 29.1848 14.4313C29.3332 14.4589 29.4748 14.5155 29.6014 14.598L34.5933 17.841C34.7201 17.923 34.8295 18.0293 34.9152 18.1538C35.0009 18.2783 35.0612 18.4184 35.0928 18.5663C35.1243 18.7142 35.1264 18.8669 35.099 19.0156C35.0716 19.1643 35.0151 19.3061 34.9329 19.4329L31.6955 24.4395C31.6136 24.5665 31.5076 24.6761 31.3834 24.762C31.2592 24.8479 31.1193 24.9084 30.9717 24.94C30.8241 24.9716 30.6718 24.9738 30.5234 24.9463C30.375 24.9188 30.2343 24.8622 30.1077 24.7798Z" stroke="#091229" stroke-width="1.1"/>
</svg>
