<svg width="20" height="20" viewBox="0 0 20 20" fill="none" xmlns="http://www.w3.org/2000/svg">
<g clip-path="url(#clip0_13774_29731)">
<mask id="mask0_13774_29731" style="mask-type:luminance" maskUnits="userSpaceOnUse" x="0" y="0" width="21" height="20">
<path d="M20.001 0H0.000976562V20H20.001V0Z" fill="white"/>
</mask>
<g mask="url(#mask0_13774_29731)">
<path d="M12.3758 3.29036V6.45703H11.1258V3.29036C11.1258 3.06536 10.9258 2.95703 10.7925 2.95703C10.7508 2.95703 10.7091 2.96536 10.6675 2.98203L4.05911 5.47371C3.61744 5.64036 3.33411 6.05703 3.33411 6.53203V7.09036C2.57577 7.65703 2.08411 8.56536 2.08411 9.59036V6.53203C2.08411 5.54036 2.69244 4.65703 3.61744 4.30703L10.2341 1.80703C10.4175 1.74036 10.6091 1.70703 10.7925 1.70703C11.6258 1.70703 12.3758 2.38203 12.3758 3.29036Z" fill="#0166FF"/>
<path d="M17.9174 12.0807V12.9141C17.9174 13.1391 17.7424 13.3224 17.5091 13.3307H16.2924C15.8507 13.3307 15.4507 13.0057 15.4174 12.5724C15.3924 12.3141 15.4924 12.0724 15.6591 11.9057C15.8091 11.7474 16.0174 11.6641 16.2424 11.6641H17.5007C17.7424 11.6724 17.9174 11.8557 17.9174 12.0807Z" fill="#0166FF"/>
<path d="M16.2341 10.7904H17.0841C17.5425 10.7904 17.9175 10.4154 17.9175 9.95703V9.59036C17.9175 7.86536 16.5091 6.45703 14.7841 6.45703H5.21744C4.50911 6.45703 3.85911 6.69036 3.33411 7.09036C2.57577 7.65703 2.08411 8.56536 2.08411 9.59036V11.0737C2.08411 11.3904 2.41744 11.5904 2.71744 11.4904C3.18411 11.332 3.67577 11.2487 4.16744 11.2487C6.69244 11.2487 8.75079 13.307 8.75079 15.832C8.75079 16.432 8.59246 17.0904 8.34246 17.6737C8.20911 17.9737 8.41746 18.332 8.74246 18.332H14.7841C16.5091 18.332 17.9175 16.9237 17.9175 15.1987V15.0404C17.9175 14.582 17.5425 14.207 17.0841 14.207H16.3591C15.5591 14.207 14.7925 13.7154 14.5841 12.9404C14.4175 12.307 14.6175 11.6904 15.0341 11.2904C15.3425 10.9737 15.7675 10.7904 16.2341 10.7904ZM11.6675 10.6237H7.50077C7.15911 10.6237 6.87577 10.3404 6.87577 9.9987C6.87577 9.65703 7.15911 9.3737 7.50077 9.3737H11.6675C12.0091 9.3737 12.2925 9.65703 12.2925 9.9987C12.2925 10.3404 12.0091 10.6237 11.6675 10.6237Z" fill="#0166FF"/>
</g>
<g clip-path="url(#clip1_13774_29731)">
<path d="M6.39916 14.2279C5.84356 13.5022 4.99872 13.0859 4.0813 13.0859C3.43631 13.0859 2.82468 13.2932 2.3125 13.6852C2.12739 13.8271 1.9599 13.9906 1.81358 14.1722L1.68344 13.4351C1.66919 13.3545 1.59224 13.3005 1.5117 13.3149L1.12247 13.3836C1.10329 13.3869 1.08498 13.3941 1.06856 13.4045C1.05214 13.415 1.03794 13.4286 1.02678 13.4445C1.01561 13.4605 1.0077 13.4785 1.0035 13.4975C0.999293 13.5165 0.998875 13.5361 1.00227 13.5553L1.31148 15.3069C1.31833 15.3456 1.34027 15.38 1.37248 15.4025C1.40468 15.4251 1.44451 15.4339 1.48322 15.4271L3.23483 15.1179C3.27354 15.111 3.30795 15.0891 3.33049 15.0569C3.35303 15.0247 3.36186 14.9849 3.35503 14.9461L3.28631 14.5569C3.27948 14.5182 3.25754 14.4838 3.22534 14.4612C3.19314 14.4387 3.1533 14.4299 3.11459 14.4367L2.38468 14.5656C2.48853 14.443 2.60531 14.332 2.73298 14.2345C3.12354 13.9355 3.58993 13.7775 4.08175 13.7775C4.78174 13.7775 5.4262 14.0949 5.84994 14.6484C6.21093 15.12 6.36667 15.7039 6.28848 16.2926C6.21028 16.8813 5.90751 17.4044 5.43594 17.7653C5.04428 18.0652 4.57862 18.2236 4.0893 18.2236C3.98979 18.2236 3.89038 18.217 3.79173 18.2039C3.20303 18.1257 2.68 17.823 2.319 17.3514C2.09928 17.0643 1.95161 16.7257 1.89194 16.372C1.88539 16.3332 1.86372 16.2987 1.83168 16.2759C1.79965 16.2531 1.75988 16.244 1.72111 16.2505L1.33136 16.3162C1.2926 16.3228 1.25803 16.3445 1.23524 16.3765C1.21246 16.4085 1.20333 16.4483 1.20986 16.487C1.28818 16.9514 1.48178 17.3957 1.76975 17.7718C2.24303 18.3901 2.92879 18.7871 3.70064 18.8896C3.82977 18.9067 3.95988 18.9154 4.09013 18.9154C4.73216 18.9154 5.34292 18.7076 5.85634 18.3146C6.47463 17.8413 6.87159 17.1555 6.97411 16.3837C7.07668 15.6118 6.87248 14.8462 6.39916 14.2279Z" fill="#0166FF"/>
</g>
</g>
<defs>
<clipPath id="clip0_13774_29731">
<rect width="20" height="20" fill="white"/>
</clipPath>
<clipPath id="clip1_13774_29731">
<rect width="6" height="6" fill="white" transform="translate(1 13)"/>
</clipPath>
</defs>
</svg>
