<svg width="20" height="20" viewBox="0 0 20 20" fill="none" xmlns="http://www.w3.org/2000/svg">
<g clip-path="url(#clip0_13880_33784)">
<mask id="mask0_13880_33784" style="mask-type:luminance" maskUnits="userSpaceOnUse" x="0" y="0" width="20" height="20">
<path d="M20 0H0V20H20V0Z" fill="white"/>
</mask>
<g mask="url(#mask0_13880_33784)">
<path d="M18.3335 9.14297V10.8596C18.3335 11.318 17.9668 11.693 17.5001 11.7096H15.8668C14.9668 11.7096 14.1418 11.0513 14.0668 10.1513C14.0168 9.6263 14.2168 9.13464 14.5668 8.79297C14.8751 8.4763 15.3001 8.29297 15.7668 8.29297H17.5001C17.9668 8.30964 18.3335 8.68463 18.3335 9.14297Z" stroke="white" stroke-width="1.2" stroke-linecap="round" stroke-linejoin="round"/>
<path d="M13.3333 2.91797C13.55 2.91797 13.7583 2.92629 13.9583 2.95963C16.1083 3.20963 17.5 4.8013 17.5 7.08464V8.29298H15.7667C15.3 8.29298 14.875 8.4763 14.5667 8.79297C14.2167 9.13464 14.0167 9.6263 14.0667 10.1513C14.1417 11.0513 14.9667 11.7096 15.8667 11.7096H17.5V12.918C17.5 15.418 15.8333 17.0846 13.3333 17.0846H11.25" stroke="white" stroke-width="1.2" stroke-linecap="round" stroke-linejoin="round"/>
<path d="M1.66663 8.7513V7.08464C1.66663 4.81797 3.03329 3.23464 5.15829 2.96797C5.37496 2.93464 5.59996 2.91797 5.83329 2.91797H9.99996" stroke="white" stroke-width="1.2" stroke-linecap="round" stroke-linejoin="round"/>
</g>
<path d="M9.99996 14.1667C9.99996 16.4697 8.13632 18.3333 5.83329 18.3333C3.53026 18.3333 2.12874 16.0152 2.12874 16.0152M2.12874 16.0152H4.00754M2.12874 16.0152V18.0985M1.66663 14.1667C1.66663 11.8636 3.51511 10 5.83329 10C8.6136 10 9.99996 12.3182 9.99996 12.3182M9.99996 12.3182V10.2348M9.99996 12.3182H8.15147" stroke="white" stroke-width="1.2" stroke-linecap="round" stroke-linejoin="round"/>
</g>
<defs>
<clipPath id="clip0_13880_33784">
<rect width="20" height="20" fill="white"/>
</clipPath>
</defs>
</svg>
