<svg width="62" height="62" viewBox="0 0 62 62" fill="none" xmlns="http://www.w3.org/2000/svg">
<circle cx="31" cy="31" r="30.5" fill="white" stroke="#E8E8E8"/>
<path fill-rule="evenodd" clip-rule="evenodd" d="M40.21 26.899V35.05C40.21 38.07 38.32 40.2 35.3 40.2H26.65C23.63 40.2 21.75 38.07 21.75 35.05V26.899C21.75 23.879 23.64 21.75 26.65 21.75H35.3C38.32 21.75 40.21 23.879 40.21 26.899Z" stroke="#091229" stroke-width="1.5" stroke-linecap="round" stroke-linejoin="round"/>
<path d="M24.2812 35.4303L25.8092 33.8173C26.3403 33.2543 27.2252 33.2273 27.7892 33.7573C27.8062 33.7743 28.7263 34.7093 28.7263 34.7093C29.2813 35.2743 30.1883 35.2833 30.7533 34.7293C30.7903 34.6933 33.0872 31.9073 33.0872 31.9073C33.6792 31.1883 34.7422 31.0853 35.4622 31.6783C35.5102 31.7183 37.6803 33.9453 37.6803 33.9453" stroke="#091229" stroke-width="1.5" stroke-linecap="round" stroke-linejoin="round"/>
<path fill-rule="evenodd" clip-rule="evenodd" d="M29.3127 28.1329C29.3127 29.1019 28.5277 29.8869 27.5587 29.8869C26.5897 29.8869 25.8047 29.1019 25.8047 28.1329C25.8047 27.1639 26.5897 26.3789 27.5587 26.3789C28.5277 26.3799 29.3127 27.1639 29.3127 28.1329Z" stroke="#091229" stroke-width="1.5" stroke-linecap="round" stroke-linejoin="round"/>
</svg>
