<svg width="60" height="60" viewBox="0 0 60 60" fill="none" xmlns="http://www.w3.org/2000/svg">
<circle cx="30" cy="30" r="30" fill="#24262B"/>
<path fill-rule="evenodd" clip-rule="evenodd" d="M39.21 25.899V34.05C39.21 37.07 37.32 39.2 34.3 39.2H25.65C22.63 39.2 20.75 37.07 20.75 34.05V25.899C20.75 22.879 22.64 20.75 25.65 20.75H34.3C37.32 20.75 39.21 22.879 39.21 25.899Z" stroke="white" stroke-width="1.5" stroke-linecap="round" stroke-linejoin="round"/>
<path d="M23.2812 34.4303L24.8092 32.8173C25.3403 32.2543 26.2252 32.2273 26.7892 32.7573C26.8062 32.7743 27.7263 33.7093 27.7263 33.7093C28.2813 34.2743 29.1883 34.2833 29.7533 33.7293C29.7903 33.6933 32.0872 30.9073 32.0872 30.9073C32.6792 30.1883 33.7422 30.0853 34.4622 30.6783C34.5102 30.7183 36.6803 32.9453 36.6803 32.9453" stroke="white" stroke-width="1.5" stroke-linecap="round" stroke-linejoin="round"/>
<path fill-rule="evenodd" clip-rule="evenodd" d="M28.3127 27.1329C28.3127 28.1019 27.5277 28.8869 26.5587 28.8869C25.5897 28.8869 24.8047 28.1019 24.8047 27.1329C24.8047 26.1639 25.5897 25.3789 26.5587 25.3789C27.5277 25.3799 28.3127 26.1639 28.3127 27.1329Z" stroke="white" stroke-width="1.5" stroke-linecap="round" stroke-linejoin="round"/>
</svg>
