<svg width="46" height="46" viewBox="0 0 46 46" fill="none" xmlns="http://www.w3.org/2000/svg">
<circle cx="23" cy="23" r="23" fill="white"/>
<path d="M28.503 24.9999C27.9366 25.0003 27.3788 25.1388 26.8778 25.4032C26.3767 25.6677 25.9475 26.0502 25.6271 26.5178L20.7509 24.3136C21.0972 23.4764 21.0986 22.536 20.7547 21.6978L25.6241 19.4824C26.0989 20.1699 26.8042 20.6643 27.612 20.8759C28.4198 21.0874 29.2765 21.0021 30.0269 20.6355C30.7772 20.2688 31.3714 19.6451 31.7017 18.8774C32.032 18.1097 32.0766 17.2489 31.8272 16.4512C31.5779 15.6535 31.0512 14.9716 30.3427 14.5293C29.6342 14.087 28.7908 13.9136 27.9655 14.0405C27.1403 14.1674 26.3877 14.5862 25.8445 15.221C25.3012 15.8557 25.0032 16.6644 25.0045 17.5003C25.0077 17.6981 25.0278 17.8953 25.0645 18.0897L19.8879 20.4446C19.3907 19.9783 18.7683 19.6675 18.0971 19.5505C17.426 19.4334 16.7352 19.5152 16.1098 19.7857C15.4844 20.0563 14.9516 20.5038 14.5768 21.0733C14.202 21.6429 14.0015 22.3096 14 22.9917C13.9985 23.6737 14.1961 24.3413 14.5684 24.9125C14.9407 25.4837 15.4715 25.9335 16.0958 26.2068C16.72 26.4801 17.4103 26.5649 18.082 26.4508C18.7537 26.3367 19.3774 26.0287 19.8767 25.5646L25.0667 27.9105C25.0307 28.1047 25.0109 28.3016 25.0075 28.4992C25.0074 29.1915 25.2123 29.8683 25.5964 30.444C25.9805 31.0197 26.5266 31.4684 27.1655 31.7334C27.8043 31.9984 28.5074 32.0678 29.1857 31.9328C29.8639 31.7978 30.487 31.4644 30.976 30.9749C31.465 30.4853 31.798 29.8616 31.9329 29.1826C32.0677 28.5036 31.9984 27.7998 31.7337 27.1602C31.469 26.5206 31.0208 25.974 30.4457 25.5894C29.8706 25.2049 29.1946 24.9997 28.503 24.9999ZM28.503 15.5001C28.8982 15.5 29.2846 15.6171 29.6132 15.8368C29.9419 16.0565 30.1981 16.3688 30.3494 16.7343C30.5008 17.0998 30.5404 17.502 30.4634 17.89C30.3864 18.278 30.1962 18.6345 29.9168 18.9143C29.6374 19.1941 29.2814 19.3847 28.8938 19.4619C28.5062 19.5391 28.1045 19.4996 27.7394 19.3482C27.3742 19.1969 27.0621 18.9405 26.8426 18.6116C26.623 18.2826 26.5058 17.8959 26.5058 17.5003C26.5062 16.97 26.7167 16.4616 27.0912 16.0866C27.4656 15.7116 27.9734 15.5007 28.503 15.5001ZM17.5161 24.9999C17.1209 25 16.7346 24.8828 16.4059 24.6631C16.0773 24.4435 15.8211 24.1311 15.6697 23.7657C15.5184 23.4002 15.4787 22.998 15.5557 22.61C15.6327 22.2219 15.823 21.8655 16.1023 21.5857C16.3817 21.3059 16.7377 21.1153 17.1253 21.0381C17.5129 20.9608 17.9147 21.0004 18.2798 21.1518C18.6449 21.3031 18.957 21.5595 19.1766 21.8884C19.3961 22.2174 19.5133 22.6041 19.5133 22.9997C19.5127 23.5299 19.3021 24.0382 18.9278 24.4131C18.5534 24.7881 18.0457 24.9991 17.5161 24.9999ZM28.503 30.4993C28.1079 30.4993 27.7216 30.382 27.393 30.1622C27.0644 29.9425 26.8084 29.6301 26.6571 29.2646C26.5059 28.8991 26.4664 28.497 26.5434 28.109C26.6205 27.721 26.8108 27.3646 27.0902 27.0849C27.3697 26.8051 27.7257 26.6146 28.1132 26.5375C28.5008 26.4603 28.9025 26.4999 29.2676 26.6513C29.6327 26.8027 29.9447 27.059 30.1643 27.388C30.3838 27.7169 30.501 28.1036 30.501 28.4992C30.5006 29.0295 30.2899 29.538 29.9153 29.9131C29.5407 30.2881 29.0328 30.4989 28.503 30.4993Z" fill="black"/>
</svg>
