<svg width="50" height="50" viewBox="0 0 50 50" fill="none" xmlns="http://www.w3.org/2000/svg">
<path d="M34 0.5C42.5604 0.5 49.5 7.43959 49.5 16V34C49.5 42.5604 42.5604 49.5 34 49.5H16C7.43959 49.5 0.5 42.5604 0.5 34V16C0.5 7.43959 7.43959 0.5 16 0.5H34Z" fill="white"/>
<path d="M34 0.5C42.5604 0.5 49.5 7.43959 49.5 16V34C49.5 42.5604 42.5604 49.5 34 49.5H16C7.43959 49.5 0.5 42.5604 0.5 34V16C0.5 7.43959 7.43959 0.5 16 0.5H34Z" stroke="#E8E8E8"/>
<circle cx="24.7666" cy="24.7659" r="8.98856" stroke="#091229" stroke-width="1.5" stroke-linecap="round" stroke-linejoin="round"/>
<path d="M31.0183 31.4844L34.5423 34.9992" stroke="#091229" stroke-width="1.5" stroke-linecap="round" stroke-linejoin="round"/>
</svg>
