<svg width="24" height="24" viewBox="0 0 24 24" fill="none" xmlns="http://www.w3.org/2000/svg">
<path d="M11 19.5H16.7C16.4042 20.2391 15.8935 20.8725 15.2339 21.3181C14.5742 21.7638 13.7961 22.0013 13 22H5.99998C5.47466 22.0001 4.95445 21.8968 4.46908 21.6958C3.98371 21.4948 3.5427 21.2002 3.17124 20.8287C2.79978 20.4573 2.50515 20.0163 2.30418 19.5309C2.10321 19.0455 1.99985 18.5253 2 18V9.99997C2.00118 9.0259 2.35714 8.08561 3.00131 7.35495C3.64547 6.62429 4.53373 6.15329 5.49997 6.03003V14C5.49997 17.03 7.96995 19.5 11 19.5ZM19.5 6.24997H21.62C21.5585 6.15984 21.4881 6.0761 21.41 5.99998L18 2.58983C17.9263 2.51198 17.8422 2.44477 17.75 2.39014V4.49998C17.7522 4.96343 17.9373 5.40726 18.265 5.73497C18.5927 6.06268 19.0365 6.24776 19.5 6.24997ZM19.5 7.74997C18.6385 7.74831 17.8129 7.40537 17.2037 6.79624C16.5946 6.18711 16.2517 5.36142 16.25 4.49998V2H11C10.4747 1.99985 9.95446 2.10321 9.46909 2.30418C8.98372 2.50514 8.5427 2.79977 8.17124 3.17124C7.79977 3.5427 7.50514 3.98371 7.30417 4.46908C7.10319 4.95445 6.99983 5.47466 6.99997 5.99998V14C6.99983 14.5253 7.10321 15.0455 7.30418 15.5309C7.50515 16.0163 7.79979 16.4573 8.17125 16.8287C8.54272 17.2002 8.98373 17.4948 9.4691 17.6958C9.95446 17.8968 10.4747 18.0001 11 18H18C18.5253 18.0001 19.0455 17.8968 19.5309 17.6958C20.0162 17.4948 20.4573 17.2002 20.8287 16.8287C21.2002 16.4573 21.4948 16.0163 21.6958 15.5309C21.8967 15.0455 22.0001 14.5253 22 14V7.74997H19.5Z" fill="white"/>
</svg>
