<svg width="24" height="24" viewBox="0 0 24 24" fill="none" xmlns="http://www.w3.org/2000/svg">
<path d="M18.617 2.00298C18.5864 2.00659 18.5562 2.01264 18.5266 2.02107L11.2732 3.96554C11.1933 3.97846 11.1169 4.00802 11.0491 4.05229C10.9813 4.09657 10.9236 4.15458 10.8796 4.22257C10.8356 4.29057 10.8064 4.36704 10.7938 4.44703C10.7812 4.52703 10.7855 4.60878 10.8065 4.68699C10.8275 4.76521 10.8647 4.83815 10.9156 4.90111C10.9665 4.96406 11.0301 5.01563 11.1022 5.05248C11.1744 5.08932 11.2534 5.11063 11.3343 5.11502C11.4151 5.11941 11.496 5.10678 11.5717 5.07795L18.2733 3.27819L18.8702 5.42163H2.59095C2.43744 5.42164 2.29022 5.48263 2.18168 5.59118C2.07313 5.69972 2.01214 5.84694 2.01213 6.00045V15.0445C1.99604 15.122 1.99604 15.2021 2.01213 15.2796V21.4205C2.0115 21.5651 2.06499 21.7047 2.16206 21.8118C2.25913 21.9189 2.39276 21.9858 2.53668 21.9994C2.55476 22.0002 2.57287 22.0002 2.59095 21.9994H21.6015C21.755 21.9993 21.9023 21.9384 22.0108 21.8298C22.1193 21.7213 22.1803 21.5741 22.1803 21.4205V6.00045C22.1803 5.84694 22.1193 5.69972 22.0108 5.59118C21.9023 5.48263 21.755 5.42164 21.6015 5.42163H20.0731L19.232 2.419C19.1945 2.28857 19.1124 2.17545 19 2.0994C18.8876 2.02336 18.752 1.98923 18.617 2.00298ZM3.16976 6.57927H21.0227V20.8417H8.0445C9.71524 19.2151 11.5407 17.7632 13.3534 16.7357C15.5066 15.5153 17.6326 14.9062 19.4581 15.2073C19.5358 15.2263 19.6167 15.229 19.6955 15.2152C19.7744 15.2014 19.8495 15.1714 19.9161 15.1271C19.9828 15.0827 20.0395 15.0251 20.0828 14.9577C20.126 14.8904 20.1548 14.8148 20.1674 14.7357C20.1799 14.6567 20.1759 14.5759 20.1557 14.4985C20.1354 14.421 20.0993 14.3486 20.0497 14.2859C20 14.2231 19.9379 14.1713 19.8672 14.1337C19.7965 14.0962 19.7188 14.0737 19.639 14.0677C19.0872 13.9767 18.5334 13.949 17.9658 13.9863C16.2632 14.0985 14.5018 14.7489 12.7836 15.7228C10.5441 16.9922 8.36243 18.8319 6.42562 20.8417H3.16976V15.4153C4.44014 14.2821 5.67497 13.967 7.0587 14.0496C8.49893 14.1356 10.1016 14.6976 11.852 15.3249C11.9239 15.3504 12.0001 15.3615 12.0762 15.3576C12.1524 15.3537 12.227 15.3348 12.2959 15.3021C12.3648 15.2693 12.4265 15.2233 12.4776 15.1667C12.5287 15.1101 12.5681 15.044 12.5937 14.9721C12.6192 14.9003 12.6303 14.8241 12.6264 14.7479C12.6225 14.6718 12.6036 14.5971 12.5709 14.5283C12.5381 14.4594 12.4921 14.3977 12.4355 14.3466C12.3789 14.2955 12.3128 14.2561 12.2409 14.2305C10.4902 13.6031 8.80281 12.9923 7.12201 12.892C5.77914 12.8118 4.43673 13.1039 3.16976 13.9592V6.57927ZM16.157 7.84543C14.6822 7.84543 13.48 9.05749 13.48 10.5315C13.48 12.0055 14.6822 13.2086 16.157 13.2086C17.6318 13.2086 18.8431 12.0055 18.8431 10.5315C18.8431 9.05749 17.6318 7.84543 16.157 7.84543ZM16.157 9.00307C17.006 9.00307 17.6855 9.68296 17.6855 10.5315C17.6855 11.3801 17.006 12.0509 16.157 12.0509C15.308 12.0509 14.6376 11.3801 14.6376 10.5315C14.6376 9.68296 15.308 9.00307 16.157 9.00307Z" fill="#616A7F"/>
</svg>
