<svg id="icon_globe" xmlns="http://www.w3.org/2000/svg" width="30" height="30" viewBox="0 0 30 30">
  <rect id="icon_trim" data-name="icon trim" width="30" height="30" fill="none"/>
  <g id="Group_46910" data-name="Group 46910" transform="translate(-35 -375)">
    <g id="Group_46909" data-name="Group 46909">
      <g id="Group_46677" data-name="Group 46677" transform="translate(38.75 378.44)">
        <path id="Path_118133" data-name="Path 118133" d="M14.572,22.44A7.6,7.6,0,0,0,16.34,19.6a17.2,17.2,0,0,0,.886-3.594.3.3,0,0,1,.3-.26h4.122a.291.291,0,0,1,.273.4A10.773,10.773,0,0,1,14.572,22.44Z" fill="#6c6c67"/>
        <path id="Path_118134" data-name="Path 118134" d="M9.428,22.44a10.773,10.773,0,0,1-7.347-6.289.291.291,0,0,1,.273-.4H6.476a.3.3,0,0,1,.3.26A17.2,17.2,0,0,0,7.66,19.6,7.6,7.6,0,0,0,9.428,22.44Z" fill="#6c6c67"/>
        <path id="Path_118135" data-name="Path 118135" d="M1.438,14.012a.294.294,0,0,0,.291.238h4.53a.3.3,0,0,0,.3-.323C6.52,13.3,6.5,12.653,6.5,12s.02-1.3.06-1.927a.3.3,0,0,0-.3-.323H1.729a.294.294,0,0,0-.291.238,10.862,10.862,0,0,0,0,4.024Z" fill="#6c6c67"/>
        <path id="Path_118136" data-name="Path 118136" d="M2.081,7.848a.291.291,0,0,0,.273.4H6.476a.3.3,0,0,0,.3-.26A17.2,17.2,0,0,1,7.66,4.4,7.6,7.6,0,0,1,9.428,1.56,10.773,10.773,0,0,0,2.081,7.848Z" fill="#6c6c67"/>
        <path id="Path_118137" data-name="Path 118137" d="M14.572,1.56A7.6,7.6,0,0,1,16.34,4.4a17.2,17.2,0,0,1,.886,3.594.3.3,0,0,0,.3.26h4.122a.291.291,0,0,0,.273-.4A10.773,10.773,0,0,0,14.572,1.56Z" fill="#6c6c67"/>
        <path id="Path_118138" data-name="Path 118138" d="M22.562,9.988a.294.294,0,0,0-.291-.238h-4.53a.3.3,0,0,0-.3.323c.04.63.06,1.274.06,1.927s-.02,1.3-.06,1.927a.3.3,0,0,0,.3.323h4.53a.294.294,0,0,0,.291-.238,10.86,10.86,0,0,0,0-4.024Z" fill="#6c6c67"/>
      </g>
    </g>
    <path id="Path_118139" data-name="Path 118139" d="M16,12c0,.676-.022,1.336-.066,1.974a.3.3,0,0,1-.3.276H8.364a.3.3,0,0,1-.3-.276C8.022,13.336,8,12.676,8,12s.022-1.336.066-1.974a.3.3,0,0,1,.3-.276h7.272a.3.3,0,0,1,.3.276C15.978,10.664,16,11.324,16,12Z" transform="translate(38.75 378.44)" fill="#e0e0e0"/>
    <path id="Path_118140" data-name="Path 118140" d="M15.7,16.092a.3.3,0,0,0-.294-.342H8.6a.3.3,0,0,0-.294.342C8.862,19.575,10.16,22,12,22S15.138,19.575,15.7,16.092Z" transform="translate(38.75 378.44)" fill="#6c6c67"/>
    <path id="Path_118141" data-name="Path 118141" d="M15.4,8.25a.3.3,0,0,0,.294-.342C15.138,4.425,13.84,2,12,2S8.862,4.425,8.3,7.908A.3.3,0,0,0,8.6,8.25Z" transform="translate(38.75 378.44)" fill="#6c6c67"/>
  </g>
</svg>
