<svg id="icon_community_active" xmlns="http://www.w3.org/2000/svg" width="30" height="30" viewBox="0 0 30 30">
  <g id="users-1" transform="translate(1.75 2.75)">
    <g id="Group_46703" data-name="Group 46703" transform="translate(1.25 12.905)">
      <path id="Path_118700" data-name="Path 118700" d="M17.561,19.124a.355.355,0,0,0,.346.37h3.042a2.993,2.993,0,0,0,1.654-.32,2.145,2.145,0,0,0,.57-.522,2.182,2.182,0,0,0,.362-.672,2.515,2.515,0,0,0,.01-1.507,6.008,6.008,0,0,0-2.139-3.334,6.648,6.648,0,0,0-4.122-1.274,7.355,7.355,0,0,0-2.726.487.325.325,0,0,0-.073.552,9.332,9.332,0,0,1,2.887,4.774A5.2,5.2,0,0,1,17.561,19.124Z" transform="translate(0.168 -11.865)" fill="#f97643"/>
      <path id="Path_118701" data-name="Path 118701" d="M4.076,13.855a8.393,8.393,0,0,1,5.207-1.6,8.393,8.393,0,0,1,5.207,1.6,7.562,7.562,0,0,1,2.691,4.2,3.024,3.024,0,0,1-.01,1.823,2.59,2.59,0,0,1-.429.794,2.539,2.539,0,0,1-.673.617,3.681,3.681,0,0,1-2.038.381h-9.5A3.681,3.681,0,0,1,2.5,21.288a2.531,2.531,0,0,1-.673-.619,2.6,2.6,0,0,1-.428-.794,2.965,2.965,0,0,1-.146-.91,3.673,3.673,0,0,1,.135-.912A7.562,7.562,0,0,1,4.076,13.855Z" transform="translate(-1.25 -11.824)" fill="#f97643"/>
    </g>
    <path id="Path_118702" data-name="Path 118702" d="M4.25,6.959a4.709,4.709,0,1,1,4.709,4.709A4.709,4.709,0,0,1,4.25,6.959Z" transform="translate(0.324 0)" fill="#f97643"/>
    <path id="Path_118703" data-name="Path 118703" d="M13.75,7.851a3.6,3.6,0,1,1,3.6,3.6A3.6,3.6,0,0,1,13.75,7.851Z" transform="translate(1.351 0.216)" fill="#f97643"/>
  </g>
  <rect id="icon_trim" data-name="icon trim" width="30" height="30" fill="none"/>
</svg>
