<svg width="20" height="20" viewBox="0 0 20 20" fill="none" xmlns="http://www.w3.org/2000/svg">
<path d="M17.0837 7.08309H9.5837C9.03137 7.08375 8.50185 7.30345 8.11129 7.69401C7.72073 8.08457 7.50103 8.61409 7.50036 9.16642V14.1664C7.50103 14.7188 7.72073 15.2483 8.11129 15.6388C8.50185 16.0294 9.03137 16.2491 9.5837 16.2498H13.7862L15.5999 18.0639C15.6874 18.1514 15.7987 18.211 15.92 18.2351C16.0413 18.2592 16.167 18.2469 16.2812 18.1995C16.3955 18.1522 16.4931 18.0721 16.5618 17.9692C16.6305 17.8664 16.6671 17.7455 16.667 17.6218V16.2498H17.0837C17.636 16.2491 18.1655 16.0294 18.5561 15.6388C18.9467 15.2483 19.1664 14.7188 19.167 14.1664V9.16642C19.1664 8.61409 18.9467 8.08457 18.5561 7.69401C18.1655 7.30345 17.636 7.08375 17.0837 7.08309ZM15.417 11.0414H15.1841C15.0878 11.9017 14.6959 12.702 14.0754 13.3056C14.4334 13.4597 14.8189 13.5399 15.2087 13.5414C15.3208 13.5408 15.4287 13.5841 15.5093 13.6619C15.59 13.7398 15.637 13.846 15.6404 13.9581C15.642 14.012 15.6329 14.0658 15.6135 14.1161C15.594 14.1665 15.5647 14.2124 15.5272 14.2512C15.4897 14.2901 15.4449 14.321 15.3952 14.3422C15.3456 14.3634 15.2922 14.3745 15.2383 14.3748C14.5722 14.3729 13.9183 14.1962 13.342 13.8623C12.771 14.1976 12.1209 14.3745 11.4587 14.3748C11.3466 14.3753 11.2387 14.3321 11.1581 14.2543C11.0774 14.1764 11.0304 14.0701 11.027 13.9581C11.0254 13.9041 11.0345 13.8504 11.0539 13.8001C11.0734 13.7497 11.1027 13.7038 11.1402 13.6649C11.1776 13.6261 11.2225 13.5952 11.2721 13.5739C11.3218 13.5527 11.3751 13.5417 11.4291 13.5414C11.8317 13.5419 12.2302 13.4605 12.6004 13.3023C12.2773 12.995 12.0126 12.6318 11.8191 12.2302C11.7936 12.1805 11.7784 12.1262 11.7742 12.0706C11.7701 12.0149 11.7772 11.959 11.7951 11.9061C11.8131 11.8533 11.8414 11.8046 11.8785 11.7629C11.9156 11.7212 11.9607 11.6873 12.0111 11.6634C12.0616 11.6395 12.1163 11.6259 12.1721 11.6236C12.2278 11.6212 12.2835 11.63 12.3358 11.6496C12.388 11.6692 12.4359 11.699 12.4764 11.7374C12.5169 11.7758 12.5493 11.8219 12.5716 11.8731C12.7514 12.2506 13.0104 12.5849 13.3312 12.8531C13.88 12.3945 14.24 11.7493 14.342 11.0414H11.2504C11.1399 11.0414 11.0339 10.9975 10.9557 10.9194C10.8776 10.8412 10.8337 10.7353 10.8337 10.6248C10.8337 10.5142 10.8776 10.4083 10.9557 10.3301C11.0339 10.252 11.1399 10.2081 11.2504 10.2081H12.917V9.37475C12.917 9.26425 12.9609 9.15826 13.0391 9.08012C13.1172 9.00198 13.2232 8.95809 13.3337 8.95809C13.4442 8.95809 13.5502 9.00198 13.6283 9.08012C13.7065 9.15826 13.7504 9.26425 13.7504 9.37475V10.2081H15.417C15.5275 10.2081 15.6335 10.252 15.7117 10.3301C15.7898 10.4083 15.8337 10.5142 15.8337 10.6248C15.8337 10.7353 15.7898 10.8412 15.7117 10.9194C15.6335 10.9975 15.5275 11.0414 15.417 11.0414ZM6.66703 6.00684L5.98828 7.49975H7.1937C7.2237 7.45809 7.25578 7.41642 7.28828 7.37475L6.66703 6.00684Z" fill="#0166FF"/>
<path d="M10.4168 2.5H2.91683C2.3645 2.50066 1.83498 2.72037 1.44442 3.11092C1.05386 3.50148 0.834158 4.031 0.833496 4.58333V9.58333C0.834158 10.1357 1.05386 10.6652 1.44442 11.0557C1.83498 11.4463 2.3645 11.666 2.91683 11.6667H3.3335V13.0388C3.33344 13.1624 3.37007 13.2833 3.43874 13.3861C3.50741 13.489 3.60504 13.5691 3.71928 13.6164C3.83352 13.6638 3.95923 13.6761 4.08051 13.652C4.20178 13.6279 4.31317 13.5683 4.40058 13.4808L6.21433 11.6667H6.66683V9.16667C6.66768 8.88428 6.70979 8.60354 6.79183 8.33333H5.60933L4.96266 9.75583C4.91536 9.85391 4.83154 9.92957 4.72915 9.96662C4.62676 10.0037 4.51394 9.99917 4.41483 9.95408C4.31571 9.90899 4.23819 9.82689 4.19885 9.72536C4.15951 9.62383 4.16148 9.51093 4.20433 9.41083L6.28766 4.8275C6.32081 4.75476 6.37418 4.69308 6.44141 4.64983C6.50864 4.60658 6.58689 4.58359 6.66683 4.58359C6.74677 4.58359 6.82502 4.60658 6.89225 4.64983C6.95948 4.69308 7.01285 4.75476 7.046 4.8275L7.92808 6.76792C8.41403 6.43024 8.99174 6.2495 9.5835 6.25H12.5002V4.58333C12.4995 4.031 12.2798 3.50148 11.8892 3.11092C11.4987 2.72037 10.9692 2.50066 10.4168 2.5Z" fill="#0166FF"/>
</svg>
