<svg id="icon_ramp" xmlns="http://www.w3.org/2000/svg" width="30" height="30" viewBox="0 0 30 30">
  <g id="Group_46514" data-name="Group 46514" transform="translate(-118.134 -572.134)">
    <circle id="Ellipse_2030" data-name="Ellipse 2030" cx="15" cy="15" r="15" transform="translate(118.134 572.134)" fill="#3bcca0"/>
  </g>
  <g id="Group_25445" data-name="Group 25445" transform="translate(-2232.745 -4734.826)">
    <path id="Path_16737" data-name="Path 16737" d="M31.064,8.956l-2.882,2.892a.63.63,0,0,0,0,.888l2.2,2.205a.976.976,0,0,0,1.364,0L38.5,8.28a.946.946,0,0,0,0-1.346L31.75.278a.976.976,0,0,0-1.364,0l-2.2,2.205a.63.63,0,0,0,0,.888l2.882,2.892A1.892,1.892,0,0,1,31.064,8.956Z" transform="translate(2221.014 4742.217)" fill="#212121"/>
    <path id="Path_16738" data-name="Path 16738" d="M7.716,8.956,10.6,11.849a.63.63,0,0,1,0,.888L8.4,14.942a.976.976,0,0,1-1.364,0L.281,8.28a.946.946,0,0,1,0-1.346L7.031.278A.976.976,0,0,1,8.4.278l2.2,2.205a.63.63,0,0,1,0,.888L7.716,6.264A1.892,1.892,0,0,0,7.716,8.956Z" transform="translate(2235.696 4742.217)" fill="#212121"/>
    <path id="Path_16739" data-name="Path 16739" d="M17.561,12.355a.778.778,0,0,1,0-1.1l3.027-3.027a.778.778,0,0,1,1.1,0l3.027,3.027a.778.778,0,0,1,0,1.1l-3.027,3.027a.778.778,0,0,1-1.1,0Z" transform="translate(2226.607 4738.021)" fill="#212121"/>
  </g>
</svg>
