<svg id="icon_senttxn" xmlns="http://www.w3.org/2000/svg" width="30" height="30" viewBox="0 0 30 30">
  <path id="Path_117619" data-name="Path 117619" d="M15,0A15,15,0,1,0,30,15,15,15,0,0,0,15,0Z" transform="translate(30 30) rotate(180)" fill="#fc4f4f"/>
  <path id="Path_117620" data-name="Path 117620" d="M1.588.273A.93.93,0,0,0,.273,1.588L6.127,7.443H2.171a.93.93,0,0,0,0,1.861h6.2a.931.931,0,0,0,.93-.93v-6.2a.93.93,0,0,0-1.861,0V6.127Z" transform="translate(19.652 19.651) rotate(180)" fill="#212121"/>
</svg>
