<svg width="30" height="30" viewBox="0 0 30 30" fill="none" xmlns="http://www.w3.org/2000/svg">
<path fill-rule="evenodd" clip-rule="evenodd" d="M2.51521 15.6766C2.57454 16.5892 2.67434 17.3109 2.9259 18.2418C2.99414 18.4943 3.21538 18.6638 3.47704 18.6638H6.98434C7.06438 18.6641 7.14358 18.6475 7.21678 18.6151C7.28997 18.5828 7.35551 18.5353 7.4091 18.4759C7.46269 18.4164 7.50314 18.3464 7.52779 18.2702C7.55244 18.1941 7.56075 18.1136 7.55216 18.0341C7.3451 16.0395 7.32288 13.965 7.48783 11.953C7.49461 11.8743 7.48492 11.7951 7.45937 11.7204C7.43383 11.6456 7.39299 11.577 7.33946 11.519C7.28593 11.4609 7.22089 11.4146 7.14847 11.383C7.07606 11.3515 6.99786 11.3353 6.91887 11.3357H3.4771C3.21549 11.3357 2.9942 11.5051 2.92596 11.7576C2.75383 12.3932 2.63331 13.0417 2.56557 13.6967C2.50428 14.2914 2.49744 14.6776 2.50064 15.2648L2.51521 15.6766ZM7.86316 9.0388C8.09391 7.74587 8.40355 6.50823 8.78517 5.35257C8.95578 4.83587 8.36676 4.39485 7.91885 4.70388C6.42472 5.73455 5.16433 7.08169 4.23655 8.64764C4.01048 9.02918 4.2842 9.50932 4.72777 9.50932H7.30115C7.58025 9.50932 7.81415 9.31349 7.86316 9.0388ZM20.2411 8.8276C19.8179 6.6926 19.1635 4.74717 18.3102 3.13744C18.2309 2.9879 18.1047 2.88985 17.9401 2.84998C16.0127 2.38315 13.9866 2.38353 12.0605 2.84998C11.896 2.88985 11.7698 2.98784 11.6905 3.13744C10.8372 4.74722 10.1828 6.6926 9.75956 8.8276C9.74282 8.91039 9.74472 8.99587 9.76513 9.07784C9.78554 9.1598 9.82396 9.23619 9.87758 9.30147C9.9312 9.36674 9.99868 9.41926 10.0751 9.45521C10.1516 9.49117 10.2351 9.50965 10.3196 9.50932H19.6811C20.0428 9.50932 20.3114 9.18231 20.2411 8.8276ZM22.6995 9.50932H25.273C25.7165 9.50932 25.9902 9.02924 25.7642 8.64769C24.8364 7.08147 23.5759 5.73395 22.0816 4.7035C21.6337 4.39458 21.0448 4.8356 21.2154 5.35224C21.597 6.50802 21.9067 7.74576 22.1375 9.03885C22.1865 9.3135 22.4204 9.50932 22.6995 9.50932ZM23.0164 18.6638H26.5237C26.7853 18.6638 27.0066 18.4944 27.0749 18.2419C27.247 17.6063 27.3675 16.9578 27.4352 16.3028C27.5016 15.6531 27.5 15.3556 27.5 14.7096C27.5 14.4508 27.4581 13.9196 27.4351 13.6967C27.3674 13.0417 27.2469 12.3932 27.0747 11.7576C27.0066 11.5051 26.7852 11.3357 26.5236 11.3357H23.0819C23.0029 11.3353 22.9247 11.3515 22.8523 11.383C22.7799 11.4146 22.7148 11.4609 22.6613 11.519C22.6078 11.577 22.5669 11.6456 22.5414 11.7204C22.5158 11.7951 22.5061 11.8743 22.5129 11.953C22.6779 13.9651 22.6556 16.0394 22.4486 18.0341C22.44 18.1136 22.4483 18.1941 22.473 18.2702C22.4976 18.3464 22.5381 18.4165 22.5916 18.4759C22.6452 18.5353 22.7108 18.5828 22.784 18.6152C22.8572 18.6476 22.9364 18.6641 23.0164 18.6638ZM22.0049 20.9461C21.7318 22.2762 21.3593 23.607 20.8853 24.8481C20.6892 25.3614 21.2639 25.8287 21.7266 25.5322C23.3798 24.4724 24.7623 23.0408 25.7638 21.3518C25.9899 20.9703 25.7163 20.4901 25.2727 20.4901H22.5641C22.2902 20.4902 22.06 20.6779 22.0049 20.9461ZM9.11529 24.8478C8.6413 23.6066 8.26891 22.2763 7.99584 20.9462C7.94075 20.6779 7.71054 20.4902 7.43665 20.4902H4.72809C4.28447 20.4902 4.0108 20.9704 4.23693 21.3519C5.23849 23.0407 6.62093 24.4721 8.27396 25.532C8.73666 25.8284 9.31138 25.3611 9.11529 24.8478ZM19.5218 20.4902H10.479C10.3931 20.4898 10.3082 20.5089 10.2308 20.5461C10.1533 20.5832 10.0853 20.6373 10.0317 20.7045C9.97818 20.7716 9.94054 20.85 9.92161 20.9338C9.90269 21.0176 9.90298 21.1045 9.92245 21.1882C10.4359 23.4324 11.209 25.435 12.1935 27.0046C12.2802 27.1428 12.4062 27.2295 12.5662 27.2612C14.1732 27.5795 15.8262 27.5797 17.4345 27.2612C17.5945 27.2295 17.7205 27.1428 17.8072 27.0046C18.7917 25.435 19.5648 23.4328 20.0783 21.1882C20.0978 21.1045 20.0981 21.0176 20.0791 20.9338C20.0602 20.85 20.0226 20.7716 19.969 20.7045C19.9155 20.6373 19.8474 20.5832 19.77 20.5461C19.6925 20.5089 19.6077 20.4898 19.5218 20.4902ZM9.20565 14.6337C9.20565 15.8313 9.27617 17.0128 9.40836 18.1585C9.42398 18.2978 9.4905 18.4264 9.59517 18.5197C9.69984 18.6129 9.83527 18.6643 9.97548 18.6638H20.0253C20.3167 18.6638 20.559 18.4479 20.5924 18.1585C20.8332 16.0655 20.8595 13.9534 20.6708 11.8551C20.6583 11.7131 20.5929 11.5809 20.4876 11.4848C20.3824 11.3886 20.2448 11.3354 20.1022 11.3357H9.89849C9.75588 11.3354 9.61833 11.3886 9.51305 11.4848C9.40777 11.5809 9.34241 11.7131 9.32991 11.8551C9.24686 12.779 9.2054 13.7061 9.20565 14.6337Z" fill="white"/>
</svg>
