<svg width="20" height="20" viewBox="0 0 20 20" fill="none" xmlns="http://www.w3.org/2000/svg">
<rect x="4" width="12" height="20" rx="2" fill="#0166FF"/>
<path d="M11.8613 7.15039H10.6113V10.2754H11.2363C11.3941 10.2754 11.5488 10.4057 11.5488 10.5879C11.5488 10.6635 11.5329 10.7545 11.3832 10.9004L10.2988 11.9773C10.171 12.1004 10.1101 12.1504 9.98633 12.1504C9.86258 12.1504 9.80164 12.1004 9.67383 11.9773L8.58945 10.9004C8.43977 10.7545 8.42383 10.6635 8.42383 10.5879C8.42383 10.4057 8.57852 10.2754 8.73633 10.2754H9.36133V7.15039H8.11133C7.77981 7.15039 7.46187 7.28209 7.22744 7.51651C6.99302 7.75093 6.86133 8.06887 6.86133 8.40039V12.1504C6.86133 12.4819 6.99302 12.7999 7.22744 13.0343C7.46187 13.2687 7.77981 13.4004 8.11133 13.4004H11.8613C12.1928 13.4004 12.5108 13.2687 12.7452 13.0343C12.9796 12.7999 13.1113 12.4819 13.1113 12.1504V8.40039C13.1113 8.06887 12.9796 7.75093 12.7452 7.51651C12.5108 7.28209 12.1928 7.15039 11.8613 7.15039ZM10.6113 6.52539C10.6113 6.35963 10.5455 6.20066 10.4283 6.08345C10.3111 5.96624 10.1521 5.90039 9.98633 5.90039C9.82057 5.90039 9.6616 5.96624 9.54439 6.08345C9.42718 6.20066 9.36133 6.35963 9.36133 6.52539V7.15039H10.6113V6.52539Z" fill="white"/>
</svg>
