<svg width="20" height="20" viewBox="0 0 20 20" fill="none" xmlns="http://www.w3.org/2000/svg">
<path fill-rule="evenodd" clip-rule="evenodd" d="M1.67664 10.4512C1.71619 11.0596 1.78273 11.5407 1.95044 12.1613C1.99593 12.3296 2.14343 12.4426 2.31787 12.4426H4.65606C4.70942 12.4428 4.76222 12.4318 4.81102 12.4102C4.85982 12.3886 4.90351 12.357 4.93924 12.3173C4.97497 12.2777 5.00193 12.231 5.01837 12.1802C5.0348 12.1295 5.04034 12.0758 5.03461 12.0228C4.89657 10.6931 4.88176 9.31012 4.99173 7.96877C4.99625 7.91631 4.98978 7.86349 4.97275 7.81366C4.95572 7.76384 4.9285 7.71811 4.89281 7.67939C4.85712 7.64067 4.81376 7.60981 4.76549 7.58877C4.71721 7.56773 4.66508 7.55698 4.61242 7.5572H2.3179C2.1435 7.5572 1.99597 7.67015 1.95047 7.83851C1.83573 8.26223 1.75538 8.69453 1.71022 9.13118C1.66936 9.52769 1.6648 9.78513 1.66693 10.1766L1.67664 10.4512ZM5.24194 6.02595C5.39578 5.16399 5.6022 4.3389 5.85662 3.56846C5.97036 3.224 5.57768 2.92998 5.27907 3.136C4.28298 3.82311 3.44272 4.72121 2.82421 5.76517C2.67349 6.01954 2.85597 6.33963 3.15168 6.33963H4.86727C5.05334 6.33963 5.20927 6.20908 5.24194 6.02595ZM13.4939 5.88515C13.2118 4.46181 12.7755 3.16486 12.2066 2.09171C12.1538 1.99201 12.0696 1.92665 11.9599 1.90007C10.675 1.58885 9.32423 1.5891 8.04019 1.90007C7.93047 1.92665 7.84637 1.99198 7.79348 2.09171C7.22466 3.1649 6.78834 4.46181 6.50621 5.88515C6.49505 5.94034 6.49632 5.99733 6.50993 6.05197C6.52353 6.10662 6.54914 6.15754 6.58489 6.20106C6.62064 6.24458 6.66563 6.27959 6.71659 6.30356C6.76756 6.32753 6.82322 6.33985 6.87955 6.33963H13.1206C13.3617 6.33963 13.5408 6.12162 13.4939 5.88515ZM15.1328 6.33963H16.8485C17.1442 6.33963 17.3267 6.01957 17.176 5.76521C16.5574 4.72106 15.7171 3.82272 14.7209 3.13575C14.4223 2.9298 14.0297 3.22382 14.1434 3.56824C14.3978 4.33876 14.6043 5.16392 14.7582 6.02598C14.7909 6.20908 14.9468 6.33963 15.1328 6.33963ZM15.3441 12.4426H17.6823C17.8567 12.4426 18.0042 12.3297 18.0497 12.1614C18.1645 11.7376 18.2449 11.3053 18.29 10.8686C18.3343 10.4355 18.3332 10.2371 18.3332 9.80649C18.3332 9.63394 18.3052 9.2798 18.2899 9.13118C18.2448 8.69453 18.1644 8.26223 18.0497 7.83851C18.0042 7.67015 17.8566 7.5572 17.6822 7.5572H15.3878C15.3351 7.55698 15.283 7.56773 15.2347 7.58877C15.1864 7.60981 15.1431 7.64067 15.1074 7.67939C15.0717 7.71811 15.0445 7.76384 15.0274 7.81366C15.0104 7.86349 15.0039 7.91631 15.0085 7.96877C15.1184 9.31015 15.1036 10.693 14.9656 12.0228C14.9598 12.0758 14.9654 12.1295 14.9818 12.1802C14.9982 12.231 15.0252 12.2777 15.0609 12.3173C15.0967 12.357 15.1404 12.3886 15.1892 12.4102C15.2379 12.4318 15.2908 12.4428 15.3441 12.4426ZM14.6697 13.9642C14.4877 14.8509 14.2394 15.7381 13.9234 16.5655C13.7926 16.9077 14.1758 17.2192 14.4843 17.0216C15.5864 16.315 16.508 15.3606 17.1757 14.2346C17.3265 13.9803 17.144 13.6602 16.8483 13.6602H15.0426C14.8599 13.6602 14.7065 13.7853 14.6697 13.9642ZM6.0767 16.5653C5.76071 15.7378 5.51244 14.8509 5.3304 13.9642C5.29367 13.7853 5.1402 13.6602 4.95761 13.6602H3.1519C2.85615 13.6602 2.67371 13.9803 2.82446 14.2347C3.49217 15.3605 4.41379 16.3148 5.51581 17.0214C5.82427 17.219 6.20742 16.9075 6.0767 16.5653ZM13.0144 13.6602H6.98582C6.92856 13.66 6.87199 13.6727 6.82035 13.6975C6.76871 13.7222 6.72334 13.7583 6.68765 13.8031C6.65196 13.8478 6.62686 13.9001 6.61425 13.956C6.60163 14.0118 6.60182 14.0698 6.61481 14.1255C6.95713 15.6217 7.47253 16.9567 8.12886 18.0031C8.18663 18.0953 8.27063 18.1531 8.37734 18.1742C9.44862 18.3864 10.5506 18.3866 11.6228 18.1742C11.7295 18.1531 11.8135 18.0953 11.8713 18.0031C12.5276 16.9567 13.043 15.622 13.3854 14.1255C13.3984 14.0698 13.3985 14.0118 13.3859 13.956C13.3733 13.9001 13.3482 13.8478 13.3125 13.8031C13.2768 13.7583 13.2315 13.7222 13.1798 13.6975C13.1282 13.6727 13.0716 13.66 13.0144 13.6602ZM6.13694 9.7559C6.13694 10.5543 6.18395 11.3419 6.27208 12.1057C6.28249 12.1986 6.32684 12.2843 6.39662 12.3465C6.4664 12.4087 6.55669 12.4429 6.65016 12.4426H13.35C13.5443 12.4426 13.7058 12.2987 13.7281 12.1057C13.8886 10.7104 13.9062 9.30237 13.7804 7.90351C13.772 7.80882 13.7285 7.72071 13.6583 7.65659C13.5881 7.59247 13.4964 7.55701 13.4013 7.55724H6.59883C6.50376 7.55701 6.41206 7.59247 6.34187 7.65659C6.27168 7.72071 6.22811 7.80882 6.21978 7.90351C6.16441 8.51942 6.13677 9.13751 6.13694 9.7559Z" fill="white"/>
</svg>
