<svg width="17" height="34" viewBox="0 0 17 34" fill="none" xmlns="http://www.w3.org/2000/svg">
<path d="M8.628 6.06V0.659998H10.932V6.06H8.628ZM3.804 6.06V0.659998H6.108V6.06H3.804ZM8.628 33.528V28.128H10.932V33.528H8.628ZM3.804 33.528V28.128H6.108V33.528H3.804ZM0.492 30V4.296H6.396C8.412 4.296 10.092 4.5 11.436 4.908C12.804 5.316 13.824 5.988 14.496 6.924C15.192 7.86 15.54 9.108 15.54 10.668C15.54 11.676 15.372 12.576 15.036 13.368C14.724 14.136 14.244 14.784 13.596 15.312C12.972 15.816 12.192 16.164 11.256 16.356V16.536C12.216 16.704 13.068 17.016 13.812 17.472C14.58 17.928 15.18 18.576 15.612 19.416C16.068 20.256 16.296 21.348 16.296 22.692C16.296 24.252 15.96 25.584 15.288 26.688C14.64 27.768 13.704 28.596 12.48 29.172C11.256 29.724 9.792 30 8.088 30H0.492ZM7.044 15.24C9.012 15.24 10.356 14.892 11.076 14.196C11.82 13.476 12.192 12.42 12.192 11.028C12.192 9.612 11.736 8.604 10.824 8.004C9.936 7.38 8.508 7.068 6.54 7.068H3.732V15.24H7.044ZM3.732 17.94V27.264H7.476C9.468 27.264 10.86 26.82 11.652 25.932C12.444 25.044 12.84 23.88 12.84 22.44C12.84 21.528 12.66 20.736 12.3 20.064C11.964 19.392 11.388 18.876 10.572 18.516C9.756 18.132 8.64 17.94 7.224 17.94H3.732Z" fill="white"/>
</svg>
