<svg width="13" height="19" viewBox="0 0 13 19" fill="none" xmlns="http://www.w3.org/2000/svg">
<path fill-rule="evenodd" clip-rule="evenodd" d="M6.44998 1.43114C6.44998 0.814411 5.9463 0.314453 5.32498 0.314453C4.70366 0.314453 4.19998 0.814411 4.19998 1.43114V2.92006H1.125C0.50368 2.92006 0 3.42001 0 4.03674V9.24755V9.24795V14.4588C0 15.0755 0.50368 15.5754 1.125 15.5754H4.19998V17.0651C4.19998 17.6818 4.70366 18.1818 5.32498 18.1818C5.9463 18.1818 6.44998 17.6818 6.44998 17.0651V15.5754H8.625C10.7472 15.5754 12.75 14.0524 12.75 11.8532C12.75 10.4611 11.9476 9.33993 10.8203 8.70448C11.2152 8.11476 11.445 7.40599 11.445 6.64235C11.445 4.77146 9.81202 2.92006 7.695 2.92006H6.44998V1.43114ZM5.32498 5.15343H2.25V8.13086H7.73066C8.5476 8.11231 9.195 7.45803 9.195 6.64235C9.195 5.92252 8.48797 5.15343 7.695 5.15343H5.32498ZM2.25 10.3646H7.695C7.71372 10.3646 7.73241 10.3645 7.75107 10.3642H8.625C9.8028 10.3642 10.5 11.1639 10.5 11.8532C10.5 12.5424 9.8028 13.3421 8.625 13.3421H2.25V10.3646Z" fill="#01FFE3"/>
</svg>
