<svg width="15" height="16" viewBox="0 0 15 16" fill="none" xmlns="http://www.w3.org/2000/svg">
<path fill-rule="evenodd" clip-rule="evenodd" d="M5.694 10.4053C8.46075 10.4053 10.8255 10.8245 10.8255 12.4993C10.8255 14.174 8.4765 14.6053 5.694 14.6053C2.9265 14.6053 0.5625 14.1898 0.5625 12.5143C0.5625 10.8388 2.91075 10.4053 5.694 10.4053Z" stroke="white"/>
<path fill-rule="evenodd" clip-rule="evenodd" d="M5.6938 8.015C3.8773 8.015 2.4043 6.54275 2.4043 4.72625C2.4043 2.90975 3.8773 1.4375 5.6938 1.4375C7.50955 1.4375 8.98255 2.90975 8.98255 4.72625C8.9893 6.536 7.5268 8.00825 5.71705 8.015H5.6938Z" stroke="white"/>
<path d="M10.8623 7.16096C12.0631 6.99221 12.9878 5.96171 12.9901 4.71446C12.9901 3.48521 12.0938 2.46521 10.9186 2.27246" stroke="white"/>
<path d="M12.4473 10.0488C13.6105 10.2221 14.4228 10.6301 14.4228 11.4701C14.4228 12.0483 14.0403 12.4233 13.4223 12.6581" stroke="white"/>
</svg>
