<svg width="17" height="18" viewBox="0 0 17 18" fill="none" xmlns="http://www.w3.org/2000/svg">
<path d="M14.0142 0.669169C13.9887 0.672181 13.9635 0.677221 13.9388 0.684242L7.89439 2.30463C7.82777 2.31541 7.76415 2.34004 7.70765 2.37693C7.65114 2.41383 7.60301 2.46217 7.56635 2.51883C7.5297 2.57549 7.50534 2.63922 7.49485 2.70588C7.48436 2.77255 7.48798 2.84067 7.50547 2.90585C7.52296 2.97103 7.55392 3.03181 7.59637 3.08428C7.63882 3.13674 7.6918 3.17971 7.7519 3.21042C7.81199 3.24112 7.87786 3.25888 7.94525 3.26253C8.01263 3.26619 8.08003 3.25567 8.1431 3.23165L13.7278 1.73184L14.2252 3.51804H0.659152C0.531229 3.51806 0.408549 3.56888 0.318094 3.65933C0.227638 3.74979 0.176815 3.87247 0.176803 4.00039V11.5371C0.163397 11.6017 0.163397 11.6684 0.176803 11.7331V16.8505C0.176283 16.9709 0.220853 17.0872 0.301746 17.1765C0.382638 17.2658 0.494001 17.3215 0.613932 17.3328C0.628997 17.3335 0.644087 17.3335 0.659152 17.3328H16.5013C16.6292 17.3328 16.7519 17.282 16.8424 17.1915C16.9328 17.1011 16.9836 16.9784 16.9837 16.8505V4.00039C16.9836 3.87247 16.9328 3.74979 16.8424 3.65933C16.7519 3.56888 16.6292 3.51806 16.5013 3.51804H15.2276L14.5267 1.01586C14.4955 0.90716 14.427 0.812892 14.3333 0.749523C14.2397 0.686155 14.1267 0.657713 14.0142 0.669169ZM1.1415 4.48274H16.019V16.3681H5.20378C6.59606 15.0126 8.11729 13.8027 9.62783 12.9465C11.4222 11.9294 13.1939 11.4219 14.7151 11.6728C14.7799 11.6886 14.8473 11.6908 14.913 11.6793C14.9787 11.6678 15.0413 11.6428 15.0968 11.6059C15.1524 11.569 15.1996 11.5209 15.2357 11.4648C15.2717 11.4087 15.2957 11.3457 15.3062 11.2798C15.3166 11.2139 15.3133 11.1466 15.2964 11.0821C15.2795 11.0175 15.2495 10.9572 15.2081 10.9049C15.1667 10.8526 15.1149 10.8094 15.056 10.7781C14.9971 10.7469 14.9324 10.7281 14.8658 10.7231C14.406 10.6473 13.9445 10.6242 13.4715 10.6553C12.0527 10.7488 10.5849 11.2908 9.15302 12.1023C7.28677 13.1602 5.46872 14.6933 3.85471 16.3681H1.1415V11.8461C2.20015 10.9017 3.22917 10.6392 4.38228 10.7081C5.58247 10.7797 6.91807 11.248 8.37674 11.7707C8.43662 11.792 8.5001 11.8013 8.56356 11.798C8.62703 11.7948 8.68923 11.7791 8.74662 11.7518C8.804 11.7245 8.85545 11.6861 8.89803 11.639C8.9406 11.5918 8.97347 11.5367 8.99475 11.4768C9.01603 11.4169 9.0253 11.3534 9.02205 11.29C9.01879 11.2265 9.00307 11.1643 8.97578 11.1069C8.94848 11.0495 8.91015 10.9981 8.86297 10.9555C8.81579 10.9129 8.76069 10.8801 8.70082 10.8588C7.24184 10.336 5.8357 9.82698 4.43504 9.74336C3.31598 9.67656 2.19731 9.91995 1.1415 10.6327V4.48274ZM11.9642 5.53788C10.7352 5.53788 9.73334 6.54793 9.73334 7.77628C9.73334 9.00464 10.7352 10.0071 11.9642 10.0071C13.1932 10.0071 14.2026 9.00464 14.2026 7.77628C14.2026 6.54793 13.1932 5.53788 11.9642 5.53788ZM11.9642 6.50258C12.6717 6.50258 13.2379 7.06915 13.2379 7.77628C13.2379 8.48341 12.6717 9.04245 11.9642 9.04245C11.2567 9.04245 10.698 8.48341 10.698 7.77628C10.698 7.06915 11.2567 6.50258 11.9642 6.50258Z" fill="white"/>
</svg>
