<svg width="20" height="20" viewBox="0 0 20 20" fill="none" xmlns="http://www.w3.org/2000/svg">
<path d="M5.38241 8.48755C5.55669 8.48755 5.69548 8.35317 5.69548 8.18442C5.69548 5.93442 7.58681 4.1063 9.90741 4.1063C12.2312 4.1063 14.1193 5.93755 14.1193 8.18442V10.3375C14.1193 10.5063 14.2581 10.6407 14.4324 10.6407C14.6067 10.6407 14.7455 10.5063 14.7455 10.3375V8.18755C14.7455 5.60317 12.5734 3.50317 9.90741 3.50317C7.24147 3.50317 5.06934 5.60317 5.06934 8.18755C5.06934 8.35317 5.21135 8.48755 5.38241 8.48755Z" fill="white"/>
<path d="M13.7256 10.2688V8.29067C13.7256 7.3063 13.3286 6.37817 12.6089 5.6813C11.8891 4.9813 10.9305 4.59692 9.91064 4.59692C7.80629 4.59692 6.09569 6.25317 6.09569 8.29067V8.37192C6.09569 8.67505 5.84072 8.92192 5.52442 8.92192H5.38241C5.20812 8.92192 5.06934 9.0563 5.06934 9.22505C5.06934 9.3938 5.20812 9.52817 5.38241 9.52817H5.52442C6.18284 9.52817 6.71861 9.00942 6.71861 8.37192V8.29067C6.71861 6.58755 8.14841 5.20317 9.90741 5.20317C10.7595 5.20317 11.5599 5.52505 12.1602 6.10942C12.4574 6.39504 12.6932 6.73489 12.8538 7.10929C13.0145 7.4837 13.0969 7.88524 13.0962 8.29067V10.2688C13.0962 10.8625 13.4674 11.5813 14.5131 11.6594H14.5389C14.7003 11.6594 14.8391 11.5375 14.852 11.3782C14.8649 11.2125 14.7358 11.0657 14.5647 11.0532C13.8063 11 13.7256 10.4875 13.7256 10.2688Z" fill="white"/>
<path d="M14.6199 13.2437H14.5328C12.7447 13.2437 11.2859 11.8343 11.2859 10.0999V8.2562C11.2859 7.89683 11.1406 7.56245 10.8824 7.31245C10.6242 7.05933 10.2789 6.9187 9.90771 6.9187C9.53654 6.9187 9.1912 7.05933 8.93299 7.30933C8.67156 7.56245 8.52955 7.89683 8.52955 8.25308C8.52955 9.81557 7.21595 11.0874 5.59895 11.0874H5.37948C5.20519 11.0874 5.06641 11.2218 5.06641 11.3906C5.06641 11.5593 5.20519 11.6937 5.37948 11.6937H5.59895C7.55806 11.6937 9.15247 10.1499 9.15247 8.25308C9.15247 8.05933 9.22993 7.87495 9.37517 7.73745C9.65274 7.46558 10.153 7.45933 10.437 7.74058C10.579 7.87495 10.6565 8.05933 10.6565 8.2562V10.0999C10.6565 12.1656 12.3929 13.8468 14.5263 13.8468H14.6135C14.7877 13.8468 14.9265 13.7124 14.9265 13.5437C14.9265 13.3749 14.791 13.2437 14.6199 13.2437Z" fill="white"/>
<path d="M14.5451 12.2124C13.409 12.2124 12.4827 11.3156 12.4827 10.2156V8.22182C12.4827 7.55932 12.2148 6.9312 11.7274 6.45933C11.2401 5.98745 10.5946 5.7312 9.91034 5.7312C9.22288 5.7312 8.57737 5.99058 8.09001 6.46245C7.61696 6.92073 7.34717 7.53958 7.338 8.18745C7.32186 9.2187 6.50529 10.0281 5.47571 10.0281H5.38534C5.21105 10.0281 5.07227 10.1624 5.07227 10.3312C5.07227 10.4999 5.21105 10.6343 5.38534 10.6343H5.47571C6.85064 10.6343 7.94477 9.56245 7.96414 8.19682C7.97059 7.7062 8.17393 7.24057 8.53541 6.89058C8.90335 6.53433 9.39394 6.33745 9.91357 6.33745C10.4332 6.33745 10.9206 6.53433 11.2885 6.88745C11.4698 7.0625 11.6135 7.27049 11.7116 7.49947C11.8096 7.72846 11.86 7.97394 11.8598 8.22182V10.2156C11.8598 11.6499 13.0669 12.8187 14.5483 12.8187C14.7226 12.8187 14.8614 12.6843 14.8614 12.5156C14.8595 12.4352 14.8254 12.3587 14.7664 12.3022C14.7074 12.2456 14.6281 12.2135 14.5451 12.2124Z" fill="white"/>
<path d="M5.38241 12.8186C8.05158 12.8186 10.2205 10.7155 10.2205 8.13423V8.07485C10.2205 7.9061 10.0817 7.77173 9.90741 7.77173C9.73313 7.77173 9.59434 7.9061 9.59434 8.07485V8.13423C9.59434 10.3842 7.70301 12.2124 5.38241 12.2124C5.29938 12.2124 5.21974 12.2443 5.16103 12.3011C5.10232 12.358 5.06934 12.4351 5.06934 12.5155C5.06934 12.5959 5.10232 12.673 5.16103 12.7298C5.21974 12.7867 5.29938 12.8186 5.38241 12.8186Z" fill="white"/>
<path d="M10.5075 11.1594C10.5285 11.125 10.5422 11.0869 10.5479 11.0473C10.5535 11.0077 10.5511 10.9674 10.5406 10.9288C10.53 10.8901 10.5117 10.8539 10.4867 10.8221C10.4616 10.7904 10.4303 10.7637 10.3946 10.7438C10.3226 10.7035 10.2371 10.6925 10.1567 10.7129C10.0763 10.7334 10.0075 10.7838 9.96532 10.8531C9.51497 11.5949 8.87266 12.2101 8.10177 12.6381C7.33088 13.0661 6.45805 13.2921 5.56942 13.2938C5.39513 13.2938 5.25635 13.4281 5.25635 13.5969C5.25635 13.7656 5.39513 13.9 5.56942 13.9C7.59631 13.9031 9.48765 12.8531 10.5075 11.1594Z" fill="white"/>
<path d="M10.9174 12.4969C10.9435 12.4663 10.9631 12.4309 10.9751 12.3928C10.987 12.3548 10.9909 12.3148 10.9867 12.2752C10.9825 12.2357 10.9702 12.1973 10.9506 12.1624C10.9309 12.1275 10.9042 12.0967 10.8722 12.0719C10.8405 12.0466 10.804 12.0276 10.7647 12.016C10.7254 12.0045 10.6841 12.0007 10.6432 12.0047C10.6024 12.0088 10.5628 12.0207 10.5267 12.0398C10.4907 12.0588 10.4589 12.0846 10.4332 12.1157C9.34555 13.4 7.81247 14.1875 6.11156 14.3344C5.9405 14.35 5.8114 14.4969 5.82753 14.6625C5.84045 14.8188 5.97923 14.9375 6.14061 14.9375H6.16965C8.03517 14.775 9.72317 13.9094 10.9174 12.4969Z" fill="white"/>
<path d="M11.6758 13.3218C11.7888 13.1937 11.7726 13.003 11.6403 12.8937C11.508 12.7843 11.3111 12.7999 11.1981 12.928C10.1234 14.1468 8.64838 14.9999 7.04106 15.3343C6.87323 15.3687 6.76349 15.5312 6.80222 15.6937C6.81936 15.7724 6.86808 15.8413 6.93769 15.8853C7.00729 15.9292 7.09207 15.9446 7.17339 15.928C8.92758 15.5579 10.5087 14.6427 11.6758 13.3218Z" fill="white"/>
<path d="M12.4056 14.0657C12.5186 13.9376 12.5024 13.7469 12.3701 13.6376C12.2378 13.5282 12.0409 13.5438 11.9279 13.6719C11.0042 14.7229 9.79075 15.4979 8.42928 15.9063C8.26467 15.9563 8.17107 16.1251 8.22272 16.2844C8.26467 16.4157 8.38732 16.4969 8.52288 16.4969C8.55515 16.4969 8.5842 16.4938 8.61647 16.4844C10.085 16.0438 11.3954 15.2094 12.4056 14.0657ZM13.7386 14.4094C13.4158 14.3688 13.0995 14.2876 12.8026 14.1626C12.7649 14.1467 12.7243 14.1382 12.6832 14.1376C12.6422 14.1371 12.6013 14.1444 12.5632 14.1592C12.5251 14.1741 12.4904 14.1961 12.4611 14.224C12.4318 14.2519 12.4086 14.2852 12.3927 14.3219C12.3249 14.4751 12.3959 14.6532 12.5573 14.7188C12.9091 14.8657 13.2835 14.9657 13.6643 15.0126C13.6773 15.0157 13.6902 15.0157 13.7031 15.0157C13.7834 15.0159 13.8607 14.9862 13.9192 14.9329C13.9776 14.8795 14.0127 14.8065 14.0173 14.7288C14.0218 14.6512 13.9955 14.5748 13.9436 14.5154C13.8918 14.456 13.8184 14.4181 13.7386 14.4094ZM12.8155 15.3219C12.5024 15.2594 12.199 15.1563 11.9182 15.0157C11.7633 14.9376 11.5761 14.9969 11.4954 15.1469C11.4147 15.2969 11.4761 15.4782 11.631 15.5563C11.9667 15.7251 12.3217 15.8469 12.6929 15.9188C12.7154 15.9219 12.7348 15.9251 12.7542 15.9251C12.8994 15.9251 13.0317 15.8251 13.0608 15.6813C13.0693 15.6421 13.0696 15.6017 13.0619 15.5623C13.0541 15.523 13.0384 15.4855 13.0155 15.4521C12.9927 15.4187 12.9633 15.39 12.929 15.3676C12.8946 15.3453 12.8561 15.3298 12.8155 15.3219Z" fill="white"/>
<path d="M10.001 18.0092C14.5615 18.0092 18.2732 14.4155 18.2732 9.99985C18.2732 5.58423 14.5615 1.99048 10.001 1.99048C5.43725 1.98736 1.72559 5.5811 1.72559 9.99985C1.72559 14.4155 5.43725 18.0092 10.001 18.0092ZM10.001 2.59361C14.2194 2.59361 17.6503 5.91548 17.6503 9.99985C17.6503 14.0842 14.2194 17.4061 10.001 17.4061C5.7826 17.403 2.35173 14.0811 2.35173 9.99985C2.35173 5.91548 5.7826 2.59361 10.001 2.59361Z" fill="white"/>
<path d="M19.7223 12.3625C19.6826 12.3514 19.6411 12.348 19.6001 12.3525C19.5591 12.357 19.5195 12.3694 19.4835 12.3888C19.4474 12.4083 19.4158 12.4345 19.3903 12.4659C19.3648 12.4974 19.346 12.5334 19.335 12.5719C18.1537 16.5875 14.3129 19.3937 9.99771 19.3937C6.31832 19.3937 3.00686 17.4062 1.35759 14.2687L1.76749 14.4437C1.92564 14.5125 2.10961 14.4437 2.18062 14.2906C2.25162 14.1375 2.18062 13.9594 2.02247 13.8906L0.867008 13.3937C0.786319 13.3594 0.695948 13.3594 0.61526 13.3906C0.534572 13.425 0.473248 13.4875 0.444201 13.5656L0.0181658 14.7187C0.00434657 14.7563 -0.00168877 14.7961 0.000405304 14.8359C0.00249938 14.8757 0.0126817 14.9147 0.0303695 14.9507C0.0480572 14.9867 0.072903 15.019 0.103485 15.0457C0.134066 15.0724 0.169783 15.0929 0.20859 15.1062C0.247133 15.1201 0.288146 15.1264 0.329237 15.1248C0.370328 15.1232 0.410675 15.1137 0.447926 15.0968C0.485178 15.0799 0.518588 15.0561 0.546209 15.0266C0.573829 14.9971 0.595108 14.9625 0.608805 14.925L0.770182 14.4875C1.62642 16.1465 2.94365 17.5413 4.57378 18.5151C6.2039 19.4889 8.08227 20.0032 9.99771 20C14.5937 20 18.6798 17.0125 19.9385 12.7375C19.9607 12.66 19.9504 12.5772 19.9099 12.507C19.8694 12.4368 19.802 12.3849 19.7223 12.3625ZM19.7965 4.89687C19.7186 4.86987 19.6328 4.87376 19.5579 4.90771C19.4829 4.94166 19.4248 5.00291 19.3963 5.07812L19.2349 5.5125C17.4888 2.14062 13.945 0 9.99771 0C5.40492 0 1.31886 2.98437 0.0665788 7.25937C0.0181658 7.42187 0.114992 7.58749 0.282824 7.63437C0.311872 7.64374 0.340919 7.64687 0.369967 7.64687C0.505524 7.64687 0.631398 7.55937 0.670128 7.42812C1.84495 3.40937 5.68249 0.60625 9.99771 0.60625C13.6836 0.60625 16.9982 2.59687 18.6443 5.7375L18.2312 5.55937C18.073 5.49062 17.889 5.55937 17.818 5.7125C17.747 5.86562 17.818 6.04375 17.9762 6.1125L19.1316 6.60937C19.1736 6.62812 19.2156 6.63437 19.2575 6.63437C19.2995 6.63437 19.3414 6.625 19.3802 6.60937C19.4608 6.575 19.5222 6.5125 19.5512 6.43437L19.9805 5.28125C19.9948 5.24433 20.0013 5.20504 19.9998 5.16566C19.9982 5.12627 19.9886 5.08757 19.9715 5.05181C19.9544 5.01604 19.9301 4.98393 19.9001 4.95733C19.87 4.93074 19.8348 4.91018 19.7965 4.89687Z" fill="white"/>
</svg>
