<svg width="48" height="48" viewBox="0 0 48 48" fill="none" xmlns="http://www.w3.org/2000/svg">
<rect width="48" height="48" rx="24" fill="#171717"/>
<path d="M21.6317 31.3069V28.7513C21.6316 28.1013 22.1616 27.5731 22.8182 27.5687H25.2232C25.8829 27.5687 26.4177 28.0982 26.4177 28.7513V28.7513V31.3148C26.4176 31.8667 26.8625 32.3178 27.4198 32.3307H29.0232C30.6216 32.3307 31.9173 31.048 31.9173 29.4656V29.4656V22.1956C31.9088 21.5731 31.6135 20.9885 31.1156 20.6083L25.6321 16.2351C24.6714 15.4737 23.3058 15.4737 22.3452 16.2351L16.8857 20.6162C16.3859 20.9949 16.0901 21.5805 16.084 22.2035V29.4656C16.084 31.048 17.3797 32.3307 18.9781 32.3307H20.5815C21.1526 32.3307 21.6156 31.8723 21.6156 31.3069V31.3069" stroke="#747474" stroke-linecap="round" stroke-linejoin="round"/>
</svg>
