<svg width="18" height="18" viewBox="0 0 18 18" fill="none" xmlns="http://www.w3.org/2000/svg">
<path d="M15.9226 10.7775L16.3496 10.5171L16.3424 10.5058L15.9226 10.7775ZM15.3018 10.185L15.5363 9.74343L15.529 9.73953L15.5215 9.73587L15.3018 10.185ZM15.9073 12.315L16.3367 12.571L16.3413 12.5634L16.3455 12.5557L15.9073 12.315ZM15.3707 13.215L14.9413 12.959L14.9403 12.9607L15.3707 13.215ZM13.2016 13.77L12.9321 14.1913L12.9408 14.1966L13.2016 13.77ZM11.1092 14.9625L10.6094 14.947L10.6092 14.9548V14.9625H11.1092ZM6.88594 14.9625H7.38605L7.38583 14.9522L6.88594 14.9625ZM4.80115 13.77L5.06201 14.1966L5.07017 14.1916L5.07813 14.1863L4.80115 13.77ZM2.62438 13.215L2.19329 13.4683L2.1939 13.4693L2.62438 13.215ZM2.09551 12.315L1.66332 12.5664L1.66443 12.5683L2.09551 12.315ZM2.08019 10.7775L2.50706 11.0378L2.51339 11.0275L2.51921 11.0168L2.08019 10.7775ZM2.69336 10.185L2.47362 9.73587L2.46343 9.74086L2.45347 9.7463L2.69336 10.185ZM3.17623 9.705L3.59671 9.97556L3.60153 9.96806L3.60608 9.9604L3.17623 9.705ZM2.67803 7.83L2.93122 7.39875L2.92345 7.39438L2.67803 7.83ZM2.11084 5.7075L2.54179 5.96107L2.54331 5.95844L2.11084 5.7075ZM2.62438 4.8225L2.19535 4.56563L2.19191 4.57156L2.62438 4.8225ZM4.78582 4.2525L4.53897 4.68745L4.54829 4.69248L4.78582 4.2525ZM6.70965 3.735L7.136 3.99643L7.14142 3.98714L6.70965 3.735ZM6.88594 3.075L6.38656 3.10117L6.3871 3.10899L6.88594 3.075ZM7.10055 2.28L7.52045 2.55178L7.52743 2.54034L7.10055 2.28ZM8.4572 1.5V0.99982L8.4438 1.00018L8.4572 1.5ZM10.9022 2.28L10.4754 2.54034L10.476 2.54137L10.9022 2.28ZM11.1092 3.075L10.6107 3.03581L10.6103 3.04101L11.1092 3.075ZM11.2855 3.735L10.8536 3.9872L10.8592 3.99637L11.2855 3.735ZM13.217 4.2525L13.4524 4.6936L13.4591 4.69004L13.4656 4.68628L13.217 4.2525ZM15.3707 4.8225L15.8032 4.57155L15.8017 4.56894L15.3707 4.8225ZM15.8843 5.7075L15.4518 5.95847L15.4553 5.96434L15.8843 5.7075ZM15.3171 7.83L15.0735 7.39322L15.0639 7.39882L15.3171 7.83ZM14.8266 9.705L15.2542 9.44599L15.2542 9.44585L14.8266 9.705ZM16.3424 10.5058C16.1652 10.2321 15.9006 9.93692 15.5363 9.74343L15.0672 10.6266C15.2395 10.7181 15.3887 10.8729 15.5028 11.0492L16.3424 10.5058ZM16.3455 12.5557C16.692 11.9248 16.7422 11.161 16.3495 10.5172L15.4957 11.0378C15.6702 11.324 15.6744 11.7002 15.469 12.0743L16.3455 12.5557ZM15.8002 13.471L16.3367 12.571L15.4778 12.059L14.9413 12.959L15.8002 13.471ZM14.0141 14.495C14.7363 14.495 15.4283 14.1005 15.8012 13.4693L14.9403 12.9607C14.746 13.2895 14.3802 13.495 14.0141 13.495V14.495ZM12.9408 14.1966C13.2708 14.3984 13.6614 14.495 14.0141 14.495V13.495C13.8303 13.495 13.623 13.4416 13.4625 13.3434L12.9408 14.1966ZM12.5271 14.0975C12.7134 14.0975 12.8394 14.1318 12.9322 14.1912L13.4711 13.3488C13.1653 13.1532 12.8314 13.0975 12.5271 13.0975V14.0975ZM11.6089 14.978C11.6235 14.5064 12.0375 14.0975 12.5271 14.0975V13.0975C11.4992 13.0975 10.6408 13.9336 10.6094 14.947L11.6089 14.978ZM9.52259 17C10.6634 17 11.6092 16.1176 11.6092 14.9625H10.6092C10.6092 15.5324 10.1446 16 9.52259 16V17ZM8.48019 17H9.52259V16H8.48019V17ZM6.38594 14.9625C6.38594 16.1191 7.33328 17 8.48019 17V16C7.8489 16 7.38594 15.5309 7.38594 14.9625H6.38594ZM5.47564 14.0975C5.96634 14.0975 6.37642 14.5064 6.38605 14.9728L7.38583 14.9522C7.36481 13.9336 6.50255 13.0975 5.47564 13.0975V14.0975ZM5.07813 14.1863C5.15751 14.1335 5.27739 14.0975 5.47564 14.0975V13.0975C5.16802 13.0975 4.82802 13.1516 4.52417 13.3537L5.07813 14.1863ZM3.98869 14.495C4.33249 14.495 4.73098 14.399 5.06201 14.1966L4.54028 13.3434C4.38078 13.441 4.16609 13.495 3.98869 13.495V14.495ZM2.1939 13.4693C2.5675 14.1017 3.26011 14.495 3.98869 14.495V13.495C3.61356 13.495 3.24844 13.2883 3.05486 12.9607L2.1939 13.4693ZM1.66443 12.5683L2.1933 13.4683L3.05546 12.9617L2.5266 12.0617L1.66443 12.5683ZM1.65331 10.5172C1.26434 11.1549 1.29734 11.9373 1.66332 12.5664L2.52771 12.0636C2.32651 11.7177 2.32885 11.3301 2.50706 11.0378L1.65331 10.5172ZM2.45347 9.7463C2.11884 9.92929 1.81489 10.2195 1.64116 10.5382L2.51921 11.0168C2.59075 10.8855 2.74668 10.7257 2.93325 10.6237L2.45347 9.7463ZM2.75576 9.43444C2.63904 9.61583 2.56231 9.69248 2.47362 9.73587L2.9131 10.6341C3.25363 10.4675 3.45283 10.1992 3.59671 9.97556L2.75576 9.43444ZM2.42488 8.26118C2.8451 8.50789 2.98351 9.05051 2.74639 9.4496L3.60608 9.9604C4.13543 9.06949 3.81396 7.91711 2.93118 7.39882L2.42488 8.26118ZM1.67991 5.45394C1.10336 6.4338 1.42618 7.69862 2.43261 8.26562L2.92345 7.39438C2.41227 7.10638 2.24455 6.46621 2.54178 5.96106L1.67991 5.45394ZM2.19191 4.57156L1.67838 5.45656L2.54331 5.95844L3.05684 5.07344L2.19191 4.57156ZM5.03261 3.81765C4.02681 3.24682 2.77762 3.5932 2.19539 4.56565L3.05337 5.07934C3.36024 4.56679 4.01189 4.38818 4.53902 4.68735L5.03261 3.81765ZM6.2834 3.47363C6.03018 3.8866 5.45476 4.04543 5.02335 3.81252L4.54829 4.69248C5.45053 5.17957 6.60733 4.8584 7.1359 3.99637L6.2834 3.47363ZM6.3871 3.10899C6.39384 3.20797 6.36502 3.33365 6.27788 3.48286L7.14142 3.98714C7.29956 3.71635 7.4087 3.39203 7.38478 3.04101L6.3871 3.10899ZM6.6808 2.00832C6.48211 2.3153 6.3654 2.69606 6.38663 3.10117L7.38526 3.04883C7.37583 2.86894 7.42773 2.6947 7.5203 2.55168L6.6808 2.00832ZM8.4438 1.00018C7.71573 1.0197 7.04607 1.40906 6.67368 2.01966L7.52743 2.54034C7.72222 2.22094 8.07963 2.0103 8.4706 1.99982L8.4438 1.00018ZM9.53792 1H8.4572V2H9.53792V1ZM11.3291 2.01966C10.9613 1.41663 10.2918 1 9.53792 1V2C9.91845 2 10.2759 2.21337 10.4754 2.54034L11.3291 2.01966ZM11.6076 3.11419C11.6408 2.69262 11.5077 2.31096 11.3285 2.01863L10.476 2.54137C10.5727 2.69904 10.6236 2.87238 10.6107 3.03581L11.6076 3.11419ZM11.7172 3.48286C11.6301 3.33365 11.6013 3.20797 11.608 3.10899L10.6103 3.04101C10.5864 3.39203 10.6956 3.71635 10.8537 3.98714L11.7172 3.48286ZM12.9815 3.8114C12.5398 4.04718 11.9639 3.88498 11.7117 3.47363L10.8592 3.99637C11.3888 4.86002 12.5452 5.17782 13.4524 4.6936L12.9815 3.8114ZM15.8017 4.56894C15.2269 3.59211 13.9665 3.24646 12.9683 3.81872L13.4656 4.68628C13.985 4.38854 14.6408 4.56788 14.9398 5.07606L15.8017 4.56894ZM16.3167 5.45656L15.8032 4.57156L14.9383 5.07344L15.4518 5.95844L16.3167 5.45656ZM15.5606 8.26667C16.576 7.70035 16.9013 6.4328 16.3133 5.45066L15.4553 5.96434C15.7564 6.4672 15.5911 7.10465 15.0735 7.39333L15.5606 8.26667ZM15.2542 9.44585C15.0133 9.04837 15.15 8.50789 15.5702 8.26118L15.0639 7.39882C14.1812 7.91711 13.858 9.07162 14.3989 9.96415L15.2542 9.44585ZM15.5215 9.73587C15.4342 9.69314 15.358 9.61733 15.2542 9.44599L14.3989 9.96401C14.5404 10.1977 14.7401 10.4669 15.082 10.6341L15.5215 9.73587ZM9.00906 10.6225C8.06688 10.6225 7.33229 9.89413 7.33229 9.0075H6.33229C6.33229 10.4759 7.54452 11.6225 9.00906 11.6225V10.6225ZM10.6628 9.0075C10.6628 9.90097 9.94422 10.6225 9.00906 10.6225V11.6225C10.4806 11.6225 11.6628 10.469 11.6628 9.0075H10.6628ZM9.00906 7.385C9.94189 7.385 10.6628 8.11173 10.6628 9.0075H11.6628C11.6628 7.54827 10.4829 6.385 9.00906 6.385V7.385ZM7.33229 9.0075C7.33229 8.1186 8.06922 7.385 9.00906 7.385V6.385C7.54218 6.385 6.33229 7.5414 6.33229 9.0075H7.33229Z" fill="#616A7F"/>
</svg>
