<svg width="48" height="48" viewBox="0 0 48 48" fill="none" xmlns="http://www.w3.org/2000/svg">
<rect width="48" height="48" rx="24" fill="#E9EEEF"/>
<path d="M20.5996 25.2256L20.5997 24.7256H20.5996V25.2256ZM22.7158 30.2012L23.2158 30.2012V30.2012H22.7158ZM20.5996 32.334V32.834H20.5997L20.5996 32.334ZM17.7822 32.334L17.7821 32.834H17.7822V32.334ZM15.666 30.2012H15.166V30.2012L15.666 30.2012ZM17.7822 25.2256V24.7256H17.7821L17.7822 25.2256ZM32.333 30.2012L32.833 30.2012V30.2012H32.333ZM27.3994 32.334L27.3994 32.834H27.3994V32.334ZM25.2832 30.2012H24.7832V30.2012L25.2832 30.2012ZM27.3994 25.2256V24.7256H27.3994L27.3994 25.2256ZM20.5996 15.668L20.5997 15.168H20.5996V15.668ZM22.7158 17.8018H23.2158V17.8017L22.7158 17.8018ZM20.5996 22.7764V23.2764H20.5997L20.5996 22.7764ZM17.7822 22.7764L17.7821 23.2764H17.7822V22.7764ZM15.666 17.8018L15.166 17.8017V17.8018H15.666ZM17.7822 15.668V15.168H17.7821L17.7822 15.668ZM32.333 17.8018H32.833V17.8017L32.333 17.8018ZM27.3994 22.7764L27.3994 23.2764H27.3994V22.7764ZM25.2832 17.8018L24.7832 17.8017V17.8018H25.2832ZM27.3994 15.668V15.168H27.3994L27.3994 15.668ZM20.5996 25.2256L20.5995 25.7256C21.494 25.7257 22.2158 26.4489 22.2158 27.3604H22.7158H23.2158C23.2158 25.9053 22.055 24.7258 20.5997 24.7256L20.5996 25.2256ZM22.7158 27.3604H22.2158V30.2012H22.7158H23.2158V27.3604H22.7158ZM22.7158 30.2012L22.2158 30.2011C22.2158 31.105 21.4932 31.8339 20.5995 31.834L20.5996 32.334L20.5997 32.834C22.0556 32.8338 23.2157 31.6471 23.2158 30.2012L22.7158 30.2012ZM20.5996 32.334V31.834H17.7822V32.334V32.834H20.5996V32.334ZM17.7822 32.334L17.7823 31.834C16.8957 31.8338 16.1661 31.1036 16.166 30.2011L15.666 30.2012L15.166 30.2012C15.1661 31.6484 16.3359 32.8337 17.7821 32.834L17.7822 32.334ZM15.666 30.2012H16.166V27.3604H15.666H15.166V30.2012H15.666ZM15.666 27.3604H16.166C16.166 26.4503 16.895 25.7258 17.7823 25.7256L17.7822 25.2256L17.7821 24.7256C16.3366 24.7259 15.166 25.9041 15.166 27.3604H15.666ZM17.7822 25.2256V25.7256H20.5996V25.2256V24.7256H17.7822V25.2256ZM30.2158 25.2256V25.7256C31.1035 25.7256 31.833 26.4503 31.833 27.3604H32.333H32.833C32.833 25.9037 31.6615 24.7256 30.2158 24.7256V25.2256ZM32.333 27.3604H31.833V30.2012H32.333H32.833V27.3604H32.333ZM32.333 30.2012L31.833 30.2011C31.833 31.1035 31.1028 31.834 30.2158 31.834V32.334V32.834C31.6621 32.834 32.8329 31.6487 32.833 30.2012L32.333 30.2012ZM30.2158 32.334V31.834H27.3994V32.334V32.834H30.2158V32.334ZM27.3994 32.334L27.3994 31.834C26.5057 31.834 25.7833 31.1051 25.7832 30.2011L25.2832 30.2012L24.7832 30.2012C24.7833 31.6471 25.9432 32.834 27.3994 32.834L27.3994 32.334ZM25.2832 30.2012H25.7832V27.3604H25.2832H24.7832V30.2012H25.2832ZM25.2832 27.3604H25.7832C25.7832 26.4487 26.505 25.7256 27.3994 25.7256L27.3994 25.2256L27.3994 24.7256C25.9439 24.7256 24.7832 25.9053 24.7832 27.3604H25.2832ZM27.3994 25.2256V25.7256H30.2158V25.2256V24.7256H27.3994V25.2256ZM20.5996 15.668L20.5995 16.168C21.4929 16.1681 22.2157 16.897 22.2158 17.8018L22.7158 17.8018L23.2158 17.8017C23.2156 16.3553 22.0558 15.1681 20.5997 15.168L20.5996 15.668ZM22.7158 17.8018H22.2158V20.6426H22.7158H23.2158V17.8018H22.7158ZM22.7158 20.6426H22.2158C22.2158 21.5537 21.4943 22.2763 20.5995 22.2764L20.5996 22.7764L20.5997 23.2764C22.0547 23.2762 23.2158 22.0979 23.2158 20.6426H22.7158ZM20.5996 22.7764V22.2764H17.7822V22.7764V23.2764H20.5996V22.7764ZM17.7822 22.7764L17.7823 22.2764C16.8947 22.2762 16.166 21.5523 16.166 20.6426H15.666H15.166C15.166 22.0992 16.3369 23.2761 17.7821 23.2764L17.7822 22.7764ZM15.666 20.6426H16.166V17.8018H15.666H15.166V20.6426H15.666ZM15.666 17.8018L16.166 17.8018C16.1662 16.8984 16.896 16.1682 17.7823 16.168L17.7822 15.668L17.7821 15.168C16.3358 15.1683 15.1663 16.3541 15.166 17.8017L15.666 17.8018ZM17.7822 15.668V16.168H20.5996V15.668V15.168H17.7822V15.668ZM30.2158 15.668V16.168C31.1025 16.168 31.8329 16.8985 31.833 17.8018L32.333 17.8018L32.833 17.8017C32.8328 16.3537 31.6623 15.168 30.2158 15.168V15.668ZM32.333 17.8018H31.833V20.6426H32.333H32.833V17.8018H32.333ZM32.333 20.6426H31.833C31.833 21.5523 31.1038 22.2764 30.2158 22.2764V22.7764V23.2764C31.6612 23.2764 32.833 22.0995 32.833 20.6426H32.333ZM30.2158 22.7764V22.2764H27.3994V22.7764V23.2764H30.2158V22.7764ZM27.3994 22.7764L27.3994 22.2764C26.5047 22.2764 25.7832 21.5539 25.7832 20.6426H25.2832H24.7832C24.7832 22.0979 25.9442 23.2764 27.3994 23.2764L27.3994 22.7764ZM25.2832 20.6426H25.7832V17.8018H25.2832H24.7832V20.6426H25.2832ZM25.2832 17.8018L25.7832 17.8018C25.7834 16.8969 26.506 16.168 27.3994 16.168L27.3994 15.668L27.3994 15.168C25.9431 15.168 24.7835 16.3553 24.7832 17.8017L25.2832 17.8018ZM27.3994 15.668V16.168H30.2158V15.668V15.168H27.3994V15.668Z" fill="#616A7F"/>
</svg>
