<svg id="icon_community_inactive" xmlns="http://www.w3.org/2000/svg" width="30" height="30" viewBox="0 0 30 30">
  <g id="users-1" transform="translate(1.75 1.75)">
    <g id="Group_46703" data-name="Group 46703" transform="translate(1.25 13.425)">
      <g id="Path_118700" data-name="Path 118700" transform="translate(0.877 -11.865)" fill="none">
        <path d="M17.717,19.478a.373.373,0,0,0,.363.388h3.19a3.139,3.139,0,0,0,1.735-.336,2.25,2.25,0,0,0,.6-.547,2.289,2.289,0,0,0,.38-.7,2.638,2.638,0,0,0,.01-1.581,6.3,6.3,0,0,0-2.244-3.5,6.972,6.972,0,0,0-4.323-1.336,7.714,7.714,0,0,0-2.859.511.341.341,0,0,0-.076.579,9.788,9.788,0,0,1,3.028,5.007A5.459,5.459,0,0,1,17.717,19.478Z" stroke="none"/>
        <path d="M 21.38323020935059 18.3668270111084 C 21.83046913146973 18.3668270111084 22.05938911437988 18.34918594360352 22.23389053344727 18.24448585510254 C 22.27248001098633 18.22134590148926 22.34404945373535 18.16017723083496 22.41815948486328 18.06470680236816 C 22.49354934692383 17.96745681762695 22.53639030456543 17.8808765411377 22.55035018920898 17.83569717407227 C 22.62604904174805 17.59108543395996 22.63611030578613 17.43926620483398 22.54155921936035 17.07396697998047 C 22.24664878845215 15.93374633789062 21.67371940612793 15.03162670135498 20.83869934082031 14.39268684387207 C 19.94783973693848 13.71103668212891 18.8000602722168 13.36540603637695 17.42721939086914 13.36540603637695 C 17.2629222869873 13.36540603637695 17.10147094726562 13.37046432495117 16.94305229187012 13.38055038452148 C 17.87594223022461 14.59273910522461 18.56608390808105 16.01759910583496 18.9720401763916 17.5868968963623 C 19.04220771789551 17.85815048217773 19.09683036804199 18.11621284484863 19.13658905029297 18.36640548706055 L 21.38323020935059 18.3668270111084 M 21.38323020935059 19.86682319641113 C 21.34566497802734 19.86682319641113 21.30799293518066 19.86673545837402 21.27037048339844 19.86664581298828 L 21.15728950500488 19.86640548706055 L 18.07988929748535 19.86640548706055 C 17.8723201751709 19.86640548706055 17.71195030212402 19.6860466003418 17.71670913696289 19.47848701477051 C 17.72867965698242 18.96434593200684 17.65209007263184 18.47379684448242 17.51984024047852 17.96255683898926 C 17.02033996582031 16.03162574768066 16.01751899719238 14.27746677398682 14.49182987213135 12.95562648773193 C 14.29728984832764 12.78710651397705 14.32877922058105 12.47123622894287 14.56795978546143 12.37628650665283 C 15.41261005401611 12.04100608825684 16.37092971801758 11.86540603637695 17.42721939086914 11.86540603637695 C 19.15243911743164 11.86540603637695 20.61641883850098 12.33386611938477 21.75021934509277 13.201416015625 C 22.88356018066406 14.06862640380859 23.62966918945312 15.29063606262207 23.99377059936523 16.69835662841797 C 24.13892936706543 17.25921630859375 24.16147041320801 17.70339584350586 23.98330879211426 18.27912712097168 C 23.90160942077637 18.54352569580078 23.75436973571777 18.78931617736816 23.60363960266113 18.98374557495117 C 23.45324897766113 19.17747688293457 23.24893951416016 19.38481712341309 23.00535011291504 19.53089714050293 C 22.47717666625977 19.84779357910156 21.93350791931152 19.86682510375977 21.38323020935059 19.86682319641113 Z" stroke="none" fill="#5e5e5e"/>
      </g>
      <g id="Path_118701" data-name="Path 118701" transform="translate(-1.25 -11.803)" fill="none">
        <path d="M4.214,13.933A8.8,8.8,0,0,1,9.675,12.25a8.8,8.8,0,0,1,5.461,1.683,7.931,7.931,0,0,1,2.822,4.4,3.171,3.171,0,0,1-.01,1.912,2.716,2.716,0,0,1-.45.833,2.663,2.663,0,0,1-.706.647,3.861,3.861,0,0,1-2.137.4H4.7a3.861,3.861,0,0,1-2.137-.4,2.655,2.655,0,0,1-.706-.649,2.726,2.726,0,0,1-.449-.832,3.109,3.109,0,0,1-.153-.954,3.853,3.853,0,0,1,.142-.957A7.931,7.931,0,0,1,4.214,13.933Z" stroke="none"/>
        <path d="M 9.675397872924805 13.75000190734863 C 7.848298072814941 13.75000190734863 6.317618370056152 14.21238136291504 5.125838279724121 15.12433052062988 C 4.021878242492676 15.96902084350586 3.232908248901367 17.20973014831543 2.844228744506836 18.71230125427246 C 2.779817581176758 18.96136093139648 2.750757217407227 19.14274215698242 2.750017166137695 19.30044174194336 C 2.749288558959961 19.45606994628906 2.775068283081055 19.60679244995117 2.836177825927734 19.8043098449707 C 2.867198944091797 19.90457153320312 2.943008422851562 20.03853225708008 3.038938522338867 20.16261100769043 C 3.134597778320312 20.28634071350098 3.243247985839844 20.39111137390137 3.329998016357422 20.44311141967773 C 3.596247673034668 20.60284042358398 3.912338256835938 20.62862014770508 4.56569766998291 20.62862014770508 L 4.826377868652344 20.62836074829102 L 14.78514862060547 20.62862014770508 C 15.43845748901367 20.62862014770508 15.75454807281494 20.60284042358398 16.02138900756836 20.44277191162109 C 16.10813903808594 20.39078140258789 16.21719741821289 20.28593063354492 16.31289863586426 20.16262054443359 C 16.40904808044434 20.03866195678711 16.48483848571777 19.90523147583008 16.51567840576172 19.8055419921875 C 16.6327075958252 19.42741012573242 16.63075828552246 19.19243240356445 16.50663757324219 18.71246147155762 C 16.11792755126953 17.20979118347168 15.32892799377441 15.96904182434082 14.22486782073975 15.12429046630859 C 13.03314781188965 14.21238136291504 11.5024881362915 13.75000190734863 9.675397872924805 13.75000190734863 M 9.675397872924805 12.25000190734863 C 11.87004852294922 12.25000190734863 13.71486854553223 12.84526062011719 15.13641738891602 13.93304061889648 C 16.55750846862793 15.02036094665527 17.4981575012207 16.55592155456543 17.95883750915527 18.33681106567383 C 18.13804817199707 19.02981185913086 18.16291809082031 19.55662155151367 17.94861793518066 20.24903106689453 C 17.85412788391113 20.55445098876953 17.68096733093262 20.84626007080078 17.4981575012207 21.08195114135742 C 17.31569862365723 21.31706237792969 17.07327842712402 21.56111145019531 16.7924976348877 21.72939109802246 C 16.12332916259766 22.13080024719238 15.43719100952148 22.1297721862793 14.65505790710449 22.12848091125488 L 14.52442741394043 22.12836074829102 L 4.695788383483887 22.12848091125488 C 3.913664817810059 22.12976837158203 3.227418899536133 22.13080215454102 2.558317184448242 21.72939109802246 C 2.276638031005859 21.56053161621094 2.034198760986328 21.3154296875 1.85224723815918 21.08009147644043 C 1.669677734375 20.84394073486328 1.497407913208008 20.55212020874023 1.403217315673828 20.24775123596191 C 1.305097579956055 19.93060111999512 1.248477935791016 19.62542152404785 1.250038146972656 19.29339218139648 C 1.251558303833008 18.96891021728516 1.308698654174805 18.65885162353516 1.392017364501953 18.33670043945312 C 1.852687835693359 16.55580139160156 2.793268203735352 15.02036094665527 4.214338302612305 13.93304061889648 C 5.635908126831055 12.84526062011719 7.480748176574707 12.25000190734863 9.675397872924805 12.25000190734863 Z" stroke="none" fill="#5e5e5e"/>
      </g>
    </g>
    <g id="Path_118702" data-name="Path 118702" transform="translate(0.486)" fill="none">
      <path d="M4.25,7.189a4.939,4.939,0,1,1,4.939,4.939A4.939,4.939,0,0,1,4.25,7.189Z" stroke="none"/>
      <path d="M 9.189181327819824 3.750000953674316 C 7.292811393737793 3.750000953674316 5.750000953674316 5.292811393737793 5.750000953674316 7.189181327819824 C 5.750000953674316 9.085551261901855 7.292811393737793 10.62836074829102 9.189181327819824 10.62836074829102 C 11.08555126190186 10.62836074829102 12.62836074829102 9.085551261901855 12.62836074829102 7.189181327819824 C 12.62836074829102 5.292811393737793 11.08555126190186 3.750000953674316 9.189181327819824 3.750000953674316 M 9.189181327819824 2.250000953674316 C 11.91700172424316 2.250000953674316 14.12836074829102 4.46135139465332 14.12836074829102 7.189181327819824 C 14.12836074829102 9.917011260986328 11.91700172424316 12.12836074829102 9.189181327819824 12.12836074829102 C 6.46135139465332 12.12836074829102 4.250000953674316 9.917011260986328 4.250000953674316 7.189181327819824 C 4.250000953674316 4.46135139465332 6.46135139465332 2.250000953674316 9.189181327819824 2.250000953674316 Z" stroke="none" fill="#bababa"/>
    </g>
    <g id="Path_118703" data-name="Path 118703" transform="translate(2.027 0.324)" fill="none">
      <path d="M13.75,8.027A3.777,3.777,0,1,1,17.527,11.8,3.777,3.777,0,0,1,13.75,8.027Z" stroke="none"/>
      <path d="M 17.52702140808105 5.750000953674316 C 16.27147102355957 5.750000953674316 15.25000190734863 6.77147102355957 15.25000190734863 8.027021408081055 C 15.25000190734863 9.282571792602539 16.27147102355957 10.30404090881348 17.52702140808105 10.30404090881348 C 18.78257179260254 10.30404090881348 19.80404281616211 9.282571792602539 19.80404281616211 8.027021408081055 C 19.80404281616211 6.77147102355957 18.78257179260254 5.750000953674316 17.52702140808105 5.750000953674316 M 17.52702140808105 4.250000953674316 C 19.61298179626465 4.250000953674316 21.30404281616211 5.941020965576172 21.30404281616211 8.027021408081055 C 21.30404281616211 10.11302185058594 19.61298179626465 11.80404090881348 17.52702140808105 11.80404090881348 C 15.44106101989746 11.80404090881348 13.75000190734863 10.11302185058594 13.75000190734863 8.027021408081055 C 13.75000190734863 5.941020965576172 15.44106101989746 4.250000953674316 17.52702140808105 4.250000953674316 Z" stroke="none" fill="#5e5e5e"/>
    </g>
  </g>
  <rect id="icon_trim" data-name="icon trim" width="30" height="30" fill="none"/>
</svg>
