<svg id="icon_arrowr1" xmlns="http://www.w3.org/2000/svg" width="30" height="30" viewBox="0 0 20 30">
  <g id="Group_47432" data-name="Group 47432" transform="translate(-322.7 -423)">
    <path id="Path_117597" data-name="Path 117597" d="M10.034,18.466a.971.971,0,0,1,0-1.373l3.843-3.843L10.034,9.407a.971.971,0,1,1,1.373-1.373l4.529,4.529a.97.97,0,0,1,0,1.373l-4.529,4.529A.971.971,0,0,1,10.034,18.466Z" transform="translate(328.25 425.25)" fill="#e0e0e0" fill-rule="evenodd"/>
    <path id="Path_121728" data-name="Path 121728" d="M17.53,12.53a.75.75,0,0,0,0-1.061c-3.793-3.793-4.854-2.732-2.341-.22H7a.75.75,0,0,0,0,1.5h8.189S13.737,16.323,17.53,12.53Z" transform="translate(326.45 426.5)" fill="#e0e0e0" stroke="#e0e0e0" stroke-width="0.5"/>
  </g>
  <rect id="icon_trim" data-name="icon trim" width="30" height="30" fill="none"/>
</svg>
