<svg width="13" height="19" viewBox="0 0 13 19" fill="none" xmlns="http://www.w3.org/2000/svg">
<path fill-rule="evenodd" clip-rule="evenodd" d="M6.44998 1.625C6.44998 1.00368 5.9463 0.5 5.32498 0.5C4.70366 0.5 4.19998 1.00368 4.19998 1.625V3.125H1.125C0.50368 3.125 0 3.62868 0 4.25V9.5V14.75C0 15.3713 0.50368 15.875 1.125 15.875H4.19998V17.375C4.19998 17.9963 4.70366 18.5 5.32498 18.5C5.9463 18.5 6.44998 17.9963 6.44998 17.375V15.875H8.625C10.7472 15.875 12.75 14.3406 12.75 12.125C12.75 10.7225 11.9475 9.59294 10.8201 8.95278C11.2151 8.35861 11.445 7.64445 11.445 6.875C11.445 4.99018 9.81202 3.125 7.695 3.125H6.44998V1.625ZM5.32498 5.375H2.25V8.375H7.695C8.52868 8.375 9.195 7.70868 9.195 6.875C9.195 6.14982 8.48797 5.375 7.695 5.375H5.32498ZM8.625 13.625H5.32498H2.25V10.625H7.695H8.625C9.8028 10.625 10.5 11.4306 10.5 12.125C10.5 12.8194 9.8028 13.625 8.625 13.625Z" fill="#FFD600"/>
</svg>
