<svg width="21" height="20" viewBox="0 0 21 20" fill="none" xmlns="http://www.w3.org/2000/svg">
<path d="M7.09961 11.2256L7.09967 10.7256H7.09961V11.2256ZM9.21582 16.2012L9.71582 16.2012V16.2012H9.21582ZM7.09961 18.334V18.834H7.09967L7.09961 18.334ZM4.28223 18.334L4.28212 18.834H4.28223V18.334ZM2.16602 16.2012H1.66602V16.2012L2.16602 16.2012ZM4.28223 11.2256V10.7256H4.28212L4.28223 11.2256ZM18.833 16.2012L19.333 16.2012V16.2012H18.833ZM13.8994 18.334L13.8994 18.834H13.8994V18.334ZM11.7832 16.2012H11.2832V16.2012L11.7832 16.2012ZM13.8994 11.2256V10.7256H13.8994L13.8994 11.2256ZM7.09961 1.66797L7.09967 1.16797H7.09961V1.66797ZM9.21582 3.80176H9.71582V3.80167L9.21582 3.80176ZM7.09961 8.77637V9.27637H7.09967L7.09961 8.77637ZM4.28223 8.77637L4.28212 9.27637H4.28223V8.77637ZM2.16602 3.80176L1.66602 3.80167V3.80176H2.16602ZM4.28223 1.66797V1.16797H4.28212L4.28223 1.66797ZM18.833 3.80176H19.333V3.80167L18.833 3.80176ZM13.8994 8.77637L13.8994 9.27637H13.8994V8.77637ZM11.7832 3.80176L11.2832 3.80167V3.80176H11.7832ZM13.8994 1.66797V1.16797H13.8994L13.8994 1.66797ZM7.09961 11.2256L7.09955 11.7256C7.99399 11.7257 8.71582 12.4489 8.71582 13.3604H9.21582H9.71582C9.71582 11.9053 8.55499 10.7258 7.09967 10.7256L7.09961 11.2256ZM9.21582 13.3604H8.71582V16.2012H9.21582H9.71582V13.3604H9.21582ZM9.21582 16.2012L8.71582 16.2011C8.71577 17.105 7.99325 17.8339 7.09955 17.834L7.09961 18.334L7.09967 18.834C8.55565 18.8338 9.71574 17.6471 9.71582 16.2012L9.21582 16.2012ZM7.09961 18.334V17.834H4.28223V18.334V18.834H7.09961V18.334ZM4.28223 18.334L4.28233 17.834C3.3957 17.8338 2.66607 17.1036 2.66602 16.2011L2.16602 16.2012L1.66602 16.2012C1.6661 17.6484 2.83592 18.8337 4.28212 18.834L4.28223 18.334ZM2.16602 16.2012H2.66602V13.3604H2.16602H1.66602V16.2012H2.16602ZM2.16602 13.3604H2.66602C2.66602 12.4503 3.39496 11.7258 4.28233 11.7256L4.28223 11.2256L4.28212 10.7256C2.83658 10.7259 1.66602 11.9041 1.66602 13.3604H2.16602ZM4.28223 11.2256V11.7256H7.09961V11.2256V10.7256H4.28223V11.2256ZM16.7158 11.2256V11.7256C17.6035 11.7256 18.333 12.4503 18.333 13.3604H18.833H19.333C19.333 11.9037 18.1615 10.7256 16.7158 10.7256V11.2256ZM18.833 13.3604H18.333V16.2012H18.833H19.333V13.3604H18.833ZM18.833 16.2012L18.333 16.2011C18.333 17.1035 17.6028 17.834 16.7158 17.834V18.334V18.834C18.1621 18.834 19.3329 17.6487 19.333 16.2012L18.833 16.2012ZM16.7158 18.334V17.834H13.8994V18.334V18.834H16.7158V18.334ZM13.8994 18.334L13.8994 17.834C13.0057 17.834 12.2833 17.1051 12.2832 16.2011L11.7832 16.2012L11.2832 16.2012C11.2833 17.6471 12.4432 18.834 13.8994 18.834L13.8994 18.334ZM11.7832 16.2012H12.2832V13.3604H11.7832H11.2832V16.2012H11.7832ZM11.7832 13.3604H12.2832C12.2832 12.4487 13.005 11.7256 13.8994 11.7256L13.8994 11.2256L13.8994 10.7256C12.4439 10.7256 11.2832 11.9053 11.2832 13.3604H11.7832ZM13.8994 11.2256V11.7256H16.7158V11.2256V10.7256H13.8994V11.2256ZM7.09961 1.66797L7.09955 2.16797C7.99294 2.16808 8.71567 2.89704 8.71582 3.80184L9.21582 3.80176L9.71582 3.80167C9.71557 2.35532 8.55579 1.16814 7.09967 1.16797L7.09961 1.66797ZM9.21582 3.80176H8.71582V6.64258H9.21582H9.71582V3.80176H9.21582ZM9.21582 6.64258H8.71582C8.71582 7.55375 7.99428 8.27626 7.09955 8.27637L7.09961 8.77637L7.09967 9.27637C8.55469 9.27619 9.71582 8.0979 9.71582 6.64258H9.21582ZM7.09961 8.77637V8.27637H4.28223V8.77637V9.27637H7.09961V8.77637ZM4.28223 8.77637L4.28233 8.27637C3.39466 8.27618 2.66602 7.55235 2.66602 6.64258H2.16602H1.66602C1.66602 8.09917 2.83688 9.27606 4.28212 9.27637L4.28223 8.77637ZM2.16602 6.64258H2.66602V3.80176H2.16602H1.66602V6.64258H2.16602ZM2.16602 3.80176L2.66602 3.80184C2.66617 2.89844 3.39601 2.16816 4.28233 2.16797L4.28223 1.66797L4.28212 1.16797C2.83578 1.16828 1.66627 2.35406 1.66602 3.80167L2.16602 3.80176ZM4.28223 1.66797V2.16797H7.09961V1.66797V1.16797H4.28223V1.66797ZM16.7158 1.66797V2.16797C17.6025 2.16797 18.3329 2.89849 18.333 3.80184L18.833 3.80176L19.333 3.80167C19.3328 2.35371 18.1623 1.16797 16.7158 1.16797V1.66797ZM18.833 3.80176H18.333V6.64258H18.833H19.333V3.80176H18.833ZM18.833 6.64258H18.333C18.333 7.55231 17.6038 8.27637 16.7158 8.27637V8.77637V9.27637C18.1612 9.27637 19.333 8.09952 19.333 6.64258H18.833ZM16.7158 8.77637V8.27637H13.8994V8.77637V9.27637H16.7158V8.77637ZM13.8994 8.77637L13.8994 8.27637C13.0047 8.27636 12.2832 7.55388 12.2832 6.64258H11.7832H11.2832C11.2832 8.09793 12.4442 9.27635 13.8994 9.27637L13.8994 8.77637ZM11.7832 6.64258H12.2832V3.80176H11.7832H11.2832V6.64258H11.7832ZM11.7832 3.80176L12.2832 3.80184C12.2834 2.89691 13.006 2.16798 13.8994 2.16797L13.8994 1.66797L13.8994 1.16797C12.4431 1.16798 11.2835 2.3553 11.2832 3.80167L11.7832 3.80176ZM13.8994 1.66797V2.16797H16.7158V1.66797V1.16797H13.8994V1.66797Z" fill="url(#paint0_linear_13174_84871)"/>
<defs>
<linearGradient id="paint0_linear_13174_84871" x1="4.43879" y1="3.56183" x2="15.8019" y2="15.8726" gradientUnits="userSpaceOnUse">
<stop stop-color="#FFD600"/>
<stop offset="0.24" stop-color="#FF423E"/>
<stop offset="0.5" stop-color="#0166FF"/>
<stop offset="0.73" stop-color="#8904F9"/>
<stop offset="1" stop-color="#01FFE3"/>
</linearGradient>
</defs>
</svg>
