<svg width="12" height="19" viewBox="0 0 12 19" fill="none" xmlns="http://www.w3.org/2000/svg">
<path d="M3.67699 18.9549C3.92833 19.0623 4.22057 18.9726 4.36737 18.7407L11.0471 8.12747C11.1002 8.04325 11.1298 7.94631 11.1328 7.84675C11.1358 7.74719 11.112 7.64867 11.0639 7.56144C11.0158 7.47422 10.9452 7.40149 10.8594 7.35083C10.7737 7.30018 10.6759 7.27347 10.5763 7.27347H6.11827L7.77624 0.693639C7.84311 0.427824 7.70774 0.153289 7.45606 0.0451152C7.20602 -0.062502 6.91193 0.0277109 6.76568 0.259273L0.0859893 10.8726C0.0328132 10.9568 0.00320289 11.0537 0.000245533 11.1533C-0.00271183 11.2528 0.0210919 11.3514 0.0691753 11.4386C0.117259 11.5258 0.187861 11.5985 0.273621 11.6492C0.359381 11.6998 0.457158 11.7266 0.556759 11.7266H5.01478L3.35681 18.3064C3.28994 18.5722 3.42528 18.8467 3.67699 18.9549Z" fill="#FFD600"/>
</svg>
