<svg width="48" height="48" viewBox="0 0 48 48" fill="none" xmlns="http://www.w3.org/2000/svg">
<rect width="48" height="48" rx="24" fill="#171717"/>
<path fill-rule="evenodd" clip-rule="evenodd" d="M21.9927 26.6719C25.0668 26.6719 27.6943 27.1377 27.6943 28.9985C27.6943 30.8594 25.0843 31.3385 21.9927 31.3385C18.9177 31.3385 16.291 30.8769 16.291 29.0152C16.291 27.1535 18.9002 26.6719 21.9927 26.6719Z" stroke="#747474"/>
<path fill-rule="evenodd" clip-rule="evenodd" d="M21.9929 24.0154C19.9746 24.0154 18.3379 22.3795 18.3379 20.3612C18.3379 18.3429 19.9746 16.707 21.9929 16.707C24.0104 16.707 25.6471 18.3429 25.6471 20.3612C25.6546 22.372 24.0296 24.0079 22.0187 24.0154H21.9929Z" stroke="#747474"/>
<path d="M27.7363 23.0645C29.0705 22.877 30.098 21.732 30.1005 20.3461C30.1005 18.9803 29.1047 17.847 27.7988 17.6328" stroke="#747474"/>
<path d="M29.4961 26.2734C30.7886 26.4659 31.6911 26.9193 31.6911 27.8526C31.6911 28.4951 31.2661 28.9118 30.5794 29.1726" stroke="#747474"/>
</svg>
