<svg id="icon_btc" xmlns="http://www.w3.org/2000/svg" width="30" height="30" viewBox="0 0 30 30">
  <path id="Path_5548" data-name="Path 5548" d="M71.75,4.427a1.523,1.523,0,0,0-.887-.522A1.2,1.2,0,0,0,71.527,2.6a1.293,1.293,0,0,0-.185-.58,1.162,1.162,0,0,0-.418-.4,2.3,2.3,0,0,0-.573-.228,4.521,4.521,0,0,0-.71-.114V0H68.86V1.242q-.2,0-.619.01V0H67.46V1.278q-.167.005-.492.005l-1.075-.005V2.11h.563a.4.4,0,0,1,.451.345V3.91a.515.515,0,0,1,.081.005h-.081V5.954a.271.271,0,0,1-.294.259H66.05l-.157.928h1.014l.279,0,.274,0V8.438h.781V7.161q.213.005.619.005V8.438h.781V7.145a6.071,6.071,0,0,0,.738-.076,3,3,0,0,0,.616-.175,1.663,1.663,0,0,0,.492-.3,1.4,1.4,0,0,0,.327-.451,1.918,1.918,0,0,0,.165-.634A1.5,1.5,0,0,0,71.75,4.427ZM68.256,2.165l.2,0,.274-.005q.109,0,.294.013a2.8,2.8,0,0,1,.312.041,1.737,1.737,0,0,1,.279.084.756.756,0,0,1,.243.142.7.7,0,0,1,.155.213.665.665,0,0,1,.063.3.706.706,0,0,1-.046.259.487.487,0,0,1-.137.2,1.387,1.387,0,0,1-.188.137.859.859,0,0,1-.246.094q-.15.036-.261.056a2.138,2.138,0,0,1-.279.028l-.254.01q-.086,0-.236,0l-.175,0V2.165h0Zm2.133,3.453a.721.721,0,0,1-.124.2.7.7,0,0,1-.2.152,1.719,1.719,0,0,1-.241.107,1.939,1.939,0,0,1-.281.071q-.165.03-.289.043t-.3.02q-.172.007-.269.008l-.243,0-.188,0V4.5L68.5,4.5q.2-.005.327,0t.35.015a2.99,2.99,0,0,1,.375.046,2.467,2.467,0,0,1,.332.094.963.963,0,0,1,.292.155.761.761,0,0,1,.188.233.725.725,0,0,1,.028.583Z" transform="translate(-53.893 11)" fill="#aaa"/>
  <rect id="icon_trim" data-name="icon trim" width="30" height="30" fill="none"/>
</svg>
