<svg id="icon_recoveryphrase" xmlns="http://www.w3.org/2000/svg" width="30" height="30" viewBox="0 0 30 30">
  <g id="documents-text" transform="translate(3.75 2.75)">
    <path id="Path_117992" data-name="Path 117992" d="M11.452,1.278a3.768,3.768,0,0,0-4.2,3.281L5.658,17.541a3.768,3.768,0,0,0,3.281,4.2l7.989.981a3.768,3.768,0,0,0,4.2-3.281L22.722,6.459a3.768,3.768,0,0,0-3.281-4.2Z" fill="#f97643"/>
    <path id="Path_117993" data-name="Path 117993" d="M6.455,20.353a3.771,3.771,0,0,1-.731-1.513A2.248,2.248,0,0,1,3.87,16.893l-1.1-9.017A2.251,2.251,0,0,1,4.718,5.364a.75.75,0,1,0-.184-1.489A3.751,3.751,0,0,0,1.278,8.058l1.1,9.017A3.744,3.744,0,0,0,6.455,20.353Z" fill="#e0e0e0"/>
    <path id="Path_117994" data-name="Path 117994" d="M11.776,6.893a.75.75,0,0,0-.183,1.489l3.5.429a.75.75,0,0,0,.183-1.489Z" fill="#e0e0e0"/>
    <path id="Path_117995" data-name="Path 117995" d="M11.286,10.888a.75.75,0,0,0-.183,1.489l5.992.736a.75.75,0,1,0,.183-1.489Z" fill="#e0e0e0"/>
    <path id="Path_117996" data-name="Path 117996" d="M10.8,14.882a.75.75,0,0,0-.183,1.489l5.992.736a.75.75,0,0,0,.183-1.489Z" fill="#e0e0e0"/>
  </g>
  <rect id="icon_trim" data-name="icon trim" width="30" height="30" fill="none"/>
</svg>
