<svg width="50" height="50" viewBox="0 0 50 50" fill="none" xmlns="http://www.w3.org/2000/svg">
<path d="M16 0.5C7.43959 0.5 0.5 7.43959 0.5 16V34C0.5 42.5604 7.43959 49.5 16 49.5H34C42.5604 49.5 49.5 42.5604 49.5 34V16C49.5 7.43959 42.5604 0.5 34 0.5H16Z" fill="white"/>
<path d="M16 0.5C7.43959 0.5 0.5 7.43959 0.5 16V34C0.5 42.5604 7.43959 49.5 16 49.5H34C42.5604 49.5 49.5 42.5604 49.5 34V16C49.5 7.43959 42.5604 0.5 34 0.5H16Z" stroke="#E8E8E8"/>
<path d="M30.6147 18H19.3873C18.9651 18.0007 18.5506 18.1218 18.1859 18.3508C17.8213 18.5798 17.5195 18.9087 17.3112 19.304C17.1029 19.6993 16.9956 20.1469 17.0001 20.6013C17.0047 21.0557 17.1209 21.5007 17.337 21.891L22.7596 31.6409C22.9903 32.0553 23.3168 32.3984 23.7074 32.6366C24.0979 32.8748 24.5392 33 24.9881 33C25.437 33 25.8782 32.8748 26.2687 32.6366C26.6593 32.3984 26.9858 32.0553 27.2165 31.6409L32.6649 21.891C32.8803 21.5003 32.9959 21.0552 32.9999 20.6009C33.0039 20.1466 32.8962 19.6993 32.6878 19.3042C32.4794 18.9091 32.1776 18.5804 31.8131 18.3514C31.4485 18.1223 31.0342 18.0011 30.6121 18H30.6147ZM24.2263 31.0183L18.6668 21.0406C18.5901 20.9032 18.5486 20.7463 18.5465 20.586C18.5445 20.4257 18.582 20.2677 18.6553 20.1281C18.7285 19.9885 18.8349 19.8723 18.9635 19.7914C19.0921 19.7105 19.2383 19.6678 19.3873 19.6676H24.2263V31.0183ZM31.3377 21.0406L25.7756 31.0155V19.6676H30.6147C30.7635 19.6681 30.9096 19.711 31.0381 19.792C31.1666 19.8729 31.2729 19.9889 31.3463 20.1283C31.4197 20.2677 31.4576 20.4255 31.4561 20.5857C31.4546 20.7459 31.4137 20.9028 31.3377 21.0406Z" fill="#091229"/>
</svg>
