<svg width="20" height="20" viewBox="0 0 20 20" fill="none" xmlns="http://www.w3.org/2000/svg">
<path d="M1.875 3.98083C1.875 1.93417 7.29833 1.875 7.91667 1.875C8.535 1.875 13.9583 1.93417 13.9583 3.98083C13.9583 6.0275 8.535 6.0875 7.91667 6.0875C7.29833 6.0875 1.875 6.02833 1.875 3.98083ZM9.45833 10.825C9.94716 10.2652 10.5506 9.81692 11.2278 9.51068C11.905 9.20443 12.6401 9.04732 13.3833 9.05C13.575 9.05 13.775 9.05833 13.9583 9.08333V6.13333C12.4083 7.14167 9.75 7.34167 7.91667 7.34167C6.08333 7.34167 3.425 7.14167 1.875 6.13333V10.1083C2.74167 10.4417 4.78333 10.8583 7.91667 10.8583C8.46667 10.8583 8.975 10.8417 9.45833 10.825ZM7.91667 12.1083C7.05 12.1083 3.86667 12.0583 1.875 11.4167V14.35C1.875 16.4 7.3 16.4583 7.91667 16.4583C8.14167 16.4583 8.36667 16.4583 8.59167 16.45C8.29167 15.7917 8.125 15.0667 8.125 14.3083C8.125 13.5167 8.3 12.775 8.61667 12.1C8.31667 12.1083 8.075 12.1083 7.91667 12.1083ZM15.0433 12.9792C14.9911 13.1365 15.0034 13.3082 15.0776 13.4565C15.1519 13.6047 15.2819 13.7175 15.4392 13.77L16.5667 14.1458C16.6605 14.1776 16.7606 14.1863 16.8585 14.1712C16.9564 14.1561 17.0492 14.1177 17.1292 14.0592C17.2095 14.0013 17.2749 13.9252 17.3201 13.8371C17.3653 13.749 17.389 13.6515 17.3892 13.5525V12.425C17.3892 12.2592 17.3233 12.1003 17.2061 11.9831C17.0889 11.8658 16.9299 11.8 16.7642 11.8C16.6867 11.8011 16.6101 11.8166 16.5383 11.8458C16.1645 11.3648 15.6859 10.9753 15.1389 10.707C14.5919 10.4387 13.9909 10.2987 13.3817 10.2975C11.1725 10.2975 9.375 12.0942 9.375 14.3042C9.375 16.5142 11.1717 18.3117 13.3817 18.3117C14.2095 18.3102 15.0167 18.0526 15.6924 17.5743C16.3681 17.096 16.8793 16.4203 17.1558 15.64C17.1832 15.5626 17.195 15.4806 17.1907 15.3987C17.1864 15.3167 17.1659 15.2364 17.1306 15.1624C17.0952 15.0883 17.0456 15.022 16.9846 14.9671C16.9236 14.9122 16.8524 14.8699 16.775 14.8425C16.6976 14.8151 16.6156 14.8033 16.5337 14.8076C16.4517 14.812 16.3714 14.8324 16.2974 14.8678C16.2233 14.9031 16.157 14.9527 16.1021 15.0137C16.0472 15.0747 16.0049 15.146 15.9775 15.2233C15.7872 15.76 15.4356 16.2248 14.9709 16.5539C14.5062 16.883 13.9511 17.0604 13.3817 17.0617C11.8617 17.0617 10.625 15.825 10.625 14.3042C10.625 12.7833 11.8608 11.5475 13.3817 11.5475C14.2258 11.5475 15.0033 11.94 15.5175 12.5733C15.4095 12.5927 15.3086 12.6405 15.2253 12.7118C15.1419 12.7832 15.0791 12.8755 15.0433 12.9792Z" fill="white"/>
</svg>
