<svg id="icon_bitcoin" xmlns="http://www.w3.org/2000/svg" width="8" height="10.523" viewBox="0 0 10.494 14.523">
  <path id="Path_5548" data-name="Path 5548" d="M75.974,7.619a2.621,2.621,0,0,0-1.527-.9A2.069,2.069,0,0,0,75.59,4.468a2.225,2.225,0,0,0-.319-1,2,2,0,0,0-.72-.681,3.964,3.964,0,0,0-.986-.393,7.782,7.782,0,0,0-1.222-.2V0H71V2.138q-.349,0-1.065.017V0H68.59V2.2q-.288.009-.847.009L65.893,2.2V3.631h.969a.693.693,0,0,1,.777.594V6.729a.887.887,0,0,1,.14.009h-.14v3.509a.466.466,0,0,1-.506.445h-.969l-.271,1.6h1.746l.48,0,.471,0v2.226h1.344v-2.2q.367.009,1.065.009v2.191h1.344V12.3a10.449,10.449,0,0,0,1.27-.131,5.168,5.168,0,0,0,1.061-.3,2.862,2.862,0,0,0,.846-.511,2.409,2.409,0,0,0,.563-.777,3.3,3.3,0,0,0,.283-1.091A2.586,2.586,0,0,0,75.974,7.619ZM69.96,3.727l.345,0,.471-.009q.188,0,.506.022a4.815,4.815,0,0,1,.537.07,2.99,2.99,0,0,1,.48.144,1.3,1.3,0,0,1,.419.244,1.212,1.212,0,0,1,.266.367,1.144,1.144,0,0,1,.109.511,1.215,1.215,0,0,1-.078.445.839.839,0,0,1-.236.336,2.386,2.386,0,0,1-.323.236,1.479,1.479,0,0,1-.423.161q-.257.061-.449.1a3.68,3.68,0,0,1-.48.048q-.288.013-.436.017t-.406,0l-.3,0V3.727h0Zm3.67,5.944a1.241,1.241,0,0,1-.214.349,1.212,1.212,0,0,1-.345.262,2.958,2.958,0,0,1-.414.183,3.338,3.338,0,0,1-.484.122q-.284.052-.5.074t-.511.035q-.3.013-.463.013t-.419,0l-.323,0V7.75q.07,0,.415-.009t.563-.009q.218,0,.6.026a5.147,5.147,0,0,1,.646.078A4.246,4.246,0,0,1,72.758,8a1.658,1.658,0,0,1,.5.266,1.31,1.31,0,0,1,.323.4,1.247,1.247,0,0,1,.048,1Z" transform="translate(-65.893)" fill="#aaa"/>
</svg>