<svg width="13" height="19" viewBox="0 0 13 19" fill="none" xmlns="http://www.w3.org/2000/svg">
<path fill-rule="evenodd" clip-rule="evenodd" d="M6.44998 1.43114C6.44998 0.814411 5.9463 0.314453 5.32498 0.314453C4.70366 0.314453 4.19998 0.814411 4.19998 1.43114V2.92006H1.125C0.50368 2.92006 0 3.42001 0 4.03674V9.24795V14.4592C0 15.0759 0.50368 15.5758 1.125 15.5758H4.19998V17.0648C4.19998 17.6815 4.70366 18.1814 5.32498 18.1814C5.9463 18.1814 6.44998 17.6815 6.44998 17.0648V15.5758H8.625C10.7472 15.5758 12.75 14.0528 12.75 11.8536C12.75 10.4614 11.9475 9.34021 10.8201 8.70478C11.2151 8.11499 11.445 7.40611 11.445 6.64235C11.445 4.77146 9.81202 2.92006 7.695 2.92006H6.44998V1.43114ZM5.32498 5.15343H2.25V8.13126H7.695C8.52868 8.13126 9.195 7.46987 9.195 6.64235C9.195 5.92252 8.48797 5.15343 7.695 5.15343H5.32498ZM8.625 13.3425H5.32647L5.32498 13.3425L5.3235 13.3425H2.25V10.3646H7.695H8.625C9.8028 10.3646 10.5 11.1643 10.5 11.8536C10.5 12.5428 9.8028 13.3425 8.625 13.3425Z" fill="#0166FF"/>
</svg>
