<svg width="18" height="18" viewBox="0 0 18 18" fill="none" xmlns="http://www.w3.org/2000/svg">
<g clip-path="url(#clip0_6997_33457)">
<path d="M9 0C4.02961 0 0 4.02961 0 9C0 13.9704 4.02961 18 9 18C13.9704 18 18 13.9704 18 9C18 4.02961 13.9704 0 9 0Z" fill="black"/>
<path d="M9.9846 8.18558L13.8374 3.70703H12.9244L9.57902 7.59571L6.90709 3.70703H3.82532L7.86581 9.58738L3.82532 14.2838H4.73836L8.27117 10.1773L11.0929 14.2838H14.1747L9.98437 8.18558H9.9846ZM5.06733 4.39436H6.4697L12.9248 13.6278H11.5225L5.06733 4.39436Z" fill="white"/>
</g>
<defs>
<clipPath id="clip0_6997_33457">
<rect width="18" height="18" fill="white"/>
</clipPath>
</defs>
</svg>
