<svg width="24" height="24" viewBox="0 0 24 24" fill="none" xmlns="http://www.w3.org/2000/svg">
<path d="M13.25 6C13.25 6.19891 13.329 6.38968 13.4697 6.53033C13.6103 6.67098 13.8011 6.75 14 6.75H16.9745C16.9193 6.26301 16.7056 5.80765 16.3663 5.454L14.6532 3.68475C14.2785 3.30491 13.7814 3.07003 13.25 3.02175V6ZM11.75 6V3H8.75C7.7558 3.00119 6.80267 3.39666 6.09966 4.09966C5.39666 4.80267 5.00119 5.7558 5 6.75V14.25C5.00119 15.2442 5.39666 16.1973 6.09966 16.9003C6.80267 17.6033 7.7558 17.9988 8.75 18H13.25C14.2442 17.9988 15.1973 17.6033 15.9003 16.9003C16.6033 16.1973 16.9988 15.2442 17 14.25V8.25H14C13.4033 8.25 12.831 8.01295 12.409 7.59099C11.9871 7.16903 11.75 6.59674 11.75 6ZM16.25 21H9.5C9.30109 21 9.11032 20.921 8.96967 20.7803C8.82902 20.6397 8.75 20.4489 8.75 20.25C8.75 20.0511 8.82902 19.8603 8.96967 19.7197C9.11032 19.579 9.30109 19.5 9.5 19.5H16.25C16.8467 19.5 17.419 19.2629 17.841 18.841C18.2629 18.419 18.5 17.8467 18.5 17.25V9C18.5 8.80109 18.579 8.61032 18.7197 8.46967C18.8603 8.32902 19.0511 8.25 19.25 8.25C19.4489 8.25 19.6397 8.32902 19.7803 8.46967C19.921 8.61032 20 8.80109 20 9V17.25C19.9988 18.2442 19.6033 19.1973 18.9003 19.9003C18.1973 20.6033 17.2442 20.9988 16.25 21Z" fill="white"/>
</svg>
