<svg width="15" height="18" viewBox="0 0 15 18" fill="none" xmlns="http://www.w3.org/2000/svg">
<path d="M8.25 3C8.25 3.19891 8.32902 3.38968 8.46967 3.53033C8.61032 3.67098 8.80109 3.75 9 3.75H11.9745C11.9193 3.26301 11.7056 2.80765 11.3663 2.454L9.65325 0.68475C9.27852 0.304911 8.78139 0.0700309 8.25 0.02175V3ZM6.75 3V0H3.75C2.7558 0.00119089 1.80267 0.396661 1.09966 1.09966C0.396661 1.80267 0.00119089 2.7558 0 3.75V11.25C0.00119089 12.2442 0.396661 13.1973 1.09966 13.9003C1.80267 14.6033 2.7558 14.9988 3.75 15H8.25C9.2442 14.9988 10.1973 14.6033 10.9003 13.9003C11.6033 13.1973 11.9988 12.2442 12 11.25V5.25H9C8.40326 5.25 7.83097 5.01295 7.40901 4.59099C6.98705 4.16903 6.75 3.59674 6.75 3ZM11.25 18H4.5C4.30109 18 4.11032 17.921 3.96967 17.7803C3.82902 17.6397 3.75 17.4489 3.75 17.25C3.75 17.0511 3.82902 16.8603 3.96967 16.7197C4.11032 16.579 4.30109 16.5 4.5 16.5H11.25C11.8467 16.5 12.419 16.2629 12.841 15.841C13.2629 15.419 13.5 14.8467 13.5 14.25V6C13.5 5.80109 13.579 5.61032 13.7197 5.46967C13.8603 5.32902 14.0511 5.25 14.25 5.25C14.4489 5.25 14.6397 5.32902 14.7803 5.46967C14.921 5.61032 15 5.80109 15 6V14.25C14.9988 15.2442 14.6033 16.1973 13.9003 16.9003C13.1973 17.6033 12.2442 17.9988 11.25 18Z" fill="#0166FF"/>
</svg>
