<svg id="icon_calender" xmlns="http://www.w3.org/2000/svg" width="30" height="30" viewBox="0 0 30 30">
  <rect id="icon_trim" data-name="icon trim" width="30" height="30" fill="none"/>
  <g id="calendar" transform="translate(3.25 2.75)">
    <path id="Path_117859" data-name="Path 117859" d="M1.75,9v9.5A4.25,4.25,0,0,0,6,22.75H18a4.25,4.25,0,0,0,4.25-4.25V9Z" fill="#f97643"/>
    <path id="Path_117860" data-name="Path 117860" d="M8.75,2a.75.75,0,0,0-1.5,0v.75H6A4.25,4.25,0,0,0,1.75,7V9h20.5V7A4.25,4.25,0,0,0,18,2.75H16.75V2a.75.75,0,0,0-1.5,0v.75H8.75Z" fill="#e0e0e0"/>
    <path id="Path_117861" data-name="Path 117861" d="M16,12.5a1,1,0,1,0,1,1A1,1,0,0,0,16,12.5Z" fill="#e0e0e0"/>
    <path id="Path_117862" data-name="Path 117862" d="M11,13.5a1,1,0,1,1,1,1A1,1,0,0,1,11,13.5Z" fill="#e0e0e0"/>
    <path id="Path_117863" data-name="Path 117863" d="M8,12.5a1,1,0,1,0,1,1A1,1,0,0,0,8,12.5Z" fill="#e0e0e0"/>
    <path id="Path_117864" data-name="Path 117864" d="M11,17.5a1,1,0,1,1,1,1A1,1,0,0,1,11,17.5Z" fill="#e0e0e0"/>
    <path id="Path_117865" data-name="Path 117865" d="M8,16.5a1,1,0,1,0,1,1A1,1,0,0,0,8,16.5Z" fill="#e0e0e0"/>
  </g>
</svg>
