<svg id="icon_wallet1" xmlns="http://www.w3.org/2000/svg" width="30" height="30" viewBox="0 0 30 30">
  <rect id="icon_trim" data-name="icon trim" width="30" height="30" fill="none"/>
  <g id="wallet-1" transform="translate(3.75 2.752)">
    <path id="Path_118742" data-name="Path 118742" d="M5.5,6.25A4.25,4.25,0,0,0,1.25,10.5v8A4.25,4.25,0,0,0,5.5,22.75h12a4.25,4.25,0,0,0,4.25-4.25v-8A4.25,4.25,0,0,0,17.5,6.25Z" fill="#f97643"/>
    <path id="Path_118743" data-name="Path 118743" d="M14.161,1.252a2.25,2.25,0,0,1,1.343.36,2.292,2.292,0,0,1,.63.647c.16.232.331.527.529.87l1.876,3.25A4.259,4.259,0,0,0,17.5,6.25H5.5a4.29,4.29,0,0,0-.546.035l7.446-4.3c.342-.2.638-.368.892-.489A2.291,2.291,0,0,1,14.161,1.252Z" fill="#e0e0e0"/>
    <path id="Path_118744" data-name="Path 118744" d="M14.75,14.5a2.75,2.75,0,0,1,2.75-2.75h3.395a1.355,1.355,0,0,1,1.355,1.355v2.789a1.355,1.355,0,0,1-1.355,1.355H17.5A2.75,2.75,0,0,1,14.75,14.5Zm3.75,0a1,1,0,1,1-1-1A1,1,0,0,1,18.5,14.5Z" fill="#e0e0e0" fill-rule="evenodd"/>
    <path id="Path_118745" data-name="Path 118745" d="M5.25,18A.75.75,0,0,1,6,17.25h4a.75.75,0,0,1,0,1.5H6A.75.75,0,0,1,5.25,18Z" fill="#e0e0e0"/>
  </g>
</svg>
