<svg width="18" height="18" viewBox="0 0 18 18" fill="none" xmlns="http://www.w3.org/2000/svg">
<path d="M9.9375 4.5C9.9375 4.64918 9.99676 4.79226 10.1023 4.89775C10.2077 5.00324 10.3508 5.0625 10.5 5.0625H12.7309C12.6895 4.69726 12.5292 4.35574 12.2747 4.0905L10.9899 2.76356C10.7089 2.47868 10.336 2.30252 9.9375 2.26631V4.5ZM8.8125 4.5V2.25H6.5625C5.81685 2.25089 5.102 2.5475 4.57475 3.07475C4.0475 3.602 3.75089 4.31685 3.75 5.0625V10.6875C3.75089 11.4331 4.0475 12.148 4.57475 12.6753C5.102 13.2025 5.81685 13.4991 6.5625 13.5H9.9375C10.6831 13.4991 11.398 13.2025 11.9253 12.6753C12.4525 12.148 12.7491 11.4331 12.75 10.6875V6.1875H10.5C10.0524 6.1875 9.62322 6.00971 9.30676 5.69324C8.99029 5.37678 8.8125 4.94755 8.8125 4.5ZM12.1875 15.75H7.125C6.97582 15.75 6.83274 15.6907 6.72725 15.5852C6.62176 15.4798 6.5625 15.3367 6.5625 15.1875C6.5625 15.0383 6.62176 14.8952 6.72725 14.7898C6.83274 14.6843 6.97582 14.625 7.125 14.625H12.1875C12.6351 14.625 13.0643 14.4472 13.3807 14.1307C13.6972 13.8143 13.875 13.3851 13.875 12.9375V6.75C13.875 6.60082 13.9343 6.45774 14.0398 6.35225C14.1452 6.24676 14.2883 6.1875 14.4375 6.1875C14.5867 6.1875 14.7298 6.24676 14.8352 6.35225C14.9407 6.45774 15 6.60082 15 6.75V12.9375C14.9991 13.6831 14.7025 14.398 14.1753 14.9253C13.648 15.4525 12.9331 15.7491 12.1875 15.75Z" fill="#FFD600"/>
</svg>
