<svg width="45" height="45" viewBox="0 0 45 45" fill="none" xmlns="http://www.w3.org/2000/svg">
<g filter="url(#filter0_b_2835_4583)">
<circle cx="22.5" cy="22.5" r="22.5" fill="#0166FF"/>
</g>
<path fill-rule="evenodd" clip-rule="evenodd" d="M19.5083 13.6667H26.4925C29.0667 13.6667 30.5 15.1501 30.5 17.6917V26.3001C30.5 28.8834 29.0667 30.3334 26.4925 30.3334H19.5083C16.975 30.3334 15.5 28.8834 15.5 26.3001V17.6917C15.5 15.1501 16.975 13.6667 19.5083 13.6667ZM19.7333 17.5501V17.5417H22.2242C22.5833 17.5417 22.875 17.8334 22.875 18.1909C22.875 18.5584 22.5833 18.8501 22.2242 18.8501H19.7333C19.3742 18.8501 19.0833 18.5584 19.0833 18.2001C19.0833 17.8417 19.3742 17.5501 19.7333 17.5501ZM19.7333 22.6167H26.2667C26.625 22.6167 26.9167 22.3251 26.9167 21.9667C26.9167 21.6084 26.625 21.3159 26.2667 21.3159H19.7333C19.3742 21.3159 19.0833 21.6084 19.0833 21.9667C19.0833 22.3251 19.3742 22.6167 19.7333 22.6167ZM19.7333 26.4251H26.2667C26.5992 26.3917 26.85 26.1076 26.85 25.7751C26.85 25.4334 26.5992 25.1501 26.2667 25.1167H19.7333C19.4833 25.0917 19.2417 25.2084 19.1083 25.4251C18.975 25.6334 18.975 25.9084 19.1083 26.1251C19.2417 26.3334 19.4833 26.4584 19.7333 26.4251Z" fill="white"/>
<defs>
<filter id="filter0_b_2835_4583" x="-100" y="-100" width="245" height="245" filterUnits="userSpaceOnUse" color-interpolation-filters="sRGB">
<feFlood flood-opacity="0" result="BackgroundImageFix"/>
<feGaussianBlur in="BackgroundImageFix" stdDeviation="50"/>
<feComposite in2="SourceAlpha" operator="in" result="effect1_backgroundBlur_2835_4583"/>
<feBlend mode="normal" in="SourceGraphic" in2="effect1_backgroundBlur_2835_4583" result="shape"/>
</filter>
</defs>
</svg>
