<svg width="82" height="82" viewBox="0 0 82 82" fill="none" xmlns="http://www.w3.org/2000/svg">
<circle cx="41" cy="41" r="40.5" fill="white" stroke="#E8E8E8"/>
<path fill-rule="evenodd" clip-rule="evenodd" d="M35.1831 29.5272C31.7471 29.5272 29.5271 31.8832 29.5271 35.5179V46.4699C29.5271 47.4899 29.7164 48.4006 30.0404 49.1886C30.0544 49.1719 30.36 48.7994 30.7586 48.3138C31.5365 47.3658 32.6685 45.9863 32.6764 45.9792C33.5991 44.9259 35.3311 43.3552 37.6044 44.3059C38.1026 44.5125 38.5454 44.7954 38.953 45.0559C38.9927 45.0812 39.0321 45.1064 39.0711 45.1312C39.8351 45.6419 40.2844 45.8819 40.7511 45.8419C40.9444 45.8152 41.1258 45.7579 41.2978 45.6512C41.9466 45.2512 43.6288 42.8677 44.1325 42.154C44.2064 42.0493 44.2549 41.9806 44.2711 41.9592C45.7244 40.0659 47.9644 39.5592 49.8311 40.6792C50.0818 40.8286 51.8778 42.0832 52.4724 42.5872V35.5179C52.4724 31.8832 50.2524 29.5272 46.8044 29.5272H35.1831ZM46.8044 27.6672C51.3071 27.6672 54.3324 30.8166 54.3324 35.5179V46.4699C54.3324 46.5881 54.32 46.699 54.3076 46.8098C54.2989 46.8877 54.2902 46.9656 54.2858 47.0459C54.2829 47.0945 54.2815 47.143 54.2801 47.1916C54.2783 47.2564 54.2764 47.3211 54.2711 47.3859C54.2684 47.4112 54.2634 47.4356 54.2584 47.4599C54.2534 47.4842 54.2484 47.5086 54.2458 47.5339C54.2018 47.9526 54.1338 48.3526 54.0391 48.7406C54.0167 48.8375 53.9909 48.931 53.9648 49.0254L53.9591 49.0459C53.8524 49.4219 53.7271 49.7806 53.5764 50.1232C53.55 50.1808 53.5222 50.237 53.4944 50.2931C53.4758 50.3306 53.4572 50.368 53.4391 50.4059C53.2764 50.7326 53.1004 51.0459 52.8964 51.3366C52.8587 51.3904 52.8185 51.4408 52.7783 51.4913C52.7517 51.5247 52.7251 51.5581 52.6991 51.5926C52.4871 51.8672 52.2658 52.1299 52.0151 52.3686C51.9651 52.4162 51.911 52.4597 51.8569 52.5033C51.8231 52.5305 51.7893 52.5577 51.7564 52.5859C51.4991 52.8072 51.2364 53.0192 50.9471 53.2006C50.884 53.2402 50.8169 53.2735 50.75 53.3067C50.7068 53.3281 50.6637 53.3495 50.6218 53.3726C50.3271 53.5352 50.0298 53.6939 49.7058 53.8166C49.6278 53.8462 49.5449 53.8676 49.4617 53.8891C49.4026 53.9043 49.3434 53.9196 49.2858 53.9379C49.2569 53.9468 49.2281 53.9558 49.1993 53.9648C48.9099 54.0548 48.6214 54.1445 48.3098 54.1979C48.1292 54.2295 47.9376 54.2417 47.7459 54.2539C47.6629 54.2591 47.5799 54.2644 47.4978 54.2712C47.4095 54.2778 47.3229 54.2885 47.2362 54.2992C47.0952 54.3165 46.9539 54.3339 46.8044 54.3339H35.1831C34.6818 54.3339 34.2031 54.2832 33.7404 54.2072C33.7231 54.2046 33.7071 54.2019 33.6911 54.1992C31.8871 53.8886 30.3898 53.0179 29.3404 51.7046C29.3332 51.7046 29.3303 51.6997 29.3265 51.6931C29.324 51.6889 29.3212 51.6839 29.3164 51.6792C28.2618 50.3512 27.6658 48.5659 27.6658 46.4699V35.5179C27.6658 30.8166 30.6938 27.6672 35.1831 27.6672H46.8044ZM39.6666 36.3533C39.6666 38.1599 38.1549 39.6667 36.3397 39.6667C34.7441 39.6667 33.3836 38.5009 33.0787 36.9915C33.0283 36.7651 32.9999 36.5322 32.9999 36.2915C32.9999 34.4721 34.4779 33 36.3048 33C37.235 33 38.0774 33.3912 38.6808 34.0153C39.2867 34.6175 39.6666 35.4474 39.6666 36.3533Z" fill="#C7CECF"/>
</svg>
