<svg width="48" height="48" viewBox="0 0 48 48" fill="none" xmlns="http://www.w3.org/2000/svg">
<rect x="0.5" y="0.5" width="47" height="47" rx="14.5" stroke="url(#paint0_linear_1035_6145)"/>
<path d="M29.6147 17H18.3873C17.9651 17.0007 17.5506 17.1218 17.1859 17.3508C16.8213 17.5798 16.5195 17.9087 16.3112 18.304C16.1029 18.6993 15.9956 19.1469 16.0001 19.6013C16.0047 20.0557 16.1209 20.5007 16.337 20.891L21.7596 30.6409C21.9903 31.0553 22.3168 31.3984 22.7074 31.6366C23.0979 31.8748 23.5392 32 23.9881 32C24.437 32 24.8782 31.8748 25.2687 31.6366C25.6593 31.3984 25.9858 31.0553 26.2165 30.6409L31.6649 20.891C31.8803 20.5003 31.9959 20.0552 31.9999 19.6009C32.0039 19.1466 31.8962 18.6993 31.6878 18.3042C31.4794 17.9091 31.1776 17.5804 30.8131 17.3514C30.4485 17.1223 30.0342 17.0011 29.6121 17H29.6147ZM23.2263 30.0183L17.6668 20.0406C17.5901 19.9032 17.5486 19.7463 17.5465 19.586C17.5445 19.4257 17.582 19.2677 17.6553 19.1281C17.7285 18.9885 17.8349 18.8723 17.9635 18.7914C18.0921 18.7105 18.2383 18.6678 18.3873 18.6676H23.2263V30.0183ZM30.3377 20.0406L24.7756 30.0155V18.6676H29.6147C29.7635 18.6681 29.9096 18.711 30.0381 18.792C30.1666 18.8729 30.2729 18.9889 30.3463 19.1283C30.4197 19.2677 30.4576 19.4255 30.4561 19.5857C30.4546 19.7459 30.4137 19.9028 30.3377 20.0406Z" fill="white"/>
<defs>
<linearGradient id="paint0_linear_1035_6145" x1="24" y1="0" x2="24" y2="48" gradientUnits="userSpaceOnUse">
<stop stop-color="#2F2F2F"/>
<stop offset="0.5" stop-color="#191919"/>
<stop offset="1" stop-color="#151515"/>
</linearGradient>
</defs>
</svg>
