<svg width="50" height="50" viewBox="0 0 50 50" fill="none" xmlns="http://www.w3.org/2000/svg">
<path d="M16 0.5C7.43959 0.5 0.5 7.43959 0.5 16V34C0.5 42.5604 7.43959 49.5 16 49.5H34C42.5604 49.5 49.5 42.5604 49.5 34V16C49.5 7.43959 42.5604 0.5 34 0.5H16Z" fill="white"/>
<path d="M16 0.5C7.43959 0.5 0.5 7.43959 0.5 16V34C0.5 42.5604 7.43959 49.5 16 49.5H34C42.5604 49.5 49.5 42.5604 49.5 34V16C49.5 7.43959 42.5604 0.5 34 0.5H16Z" stroke="#E8E8E8"/>
<path d="M28.5 32L21.5 25L28.5 18" stroke="#091229" stroke-width="1.5" stroke-linecap="round" stroke-linejoin="round"/>
</svg>
