<svg width="18" height="18" viewBox="0 0 18 18" fill="none" xmlns="http://www.w3.org/2000/svg">
<g clip-path="url(#clip0_12371_22344)">
<mask id="mask0_12371_22344" style="mask-type:luminance" maskUnits="userSpaceOnUse" x="0" y="0" width="18" height="18">
<path d="M0 0H18V18H0V0Z" fill="white"/>
</mask>
<g mask="url(#mask0_12371_22344)">
<path fill-rule="evenodd" clip-rule="evenodd" d="M12.5127 7.2C12.5667 7.7661 12.6 8.3628 12.6 9C12.6 9.2387 12.5052 9.46761 12.3364 9.6364C12.1676 9.80518 11.9387 9.9 11.7 9.9C11.4613 9.9 11.2324 9.80518 11.0636 9.6364C10.8948 9.46761 10.8 9.2387 10.8 9C10.8 8.3583 10.7649 7.7598 10.7055 7.2H7.2828C7.1577 8.397 7.1568 9.603 7.2792 10.8H9C9.23869 10.8 9.46761 10.8948 9.6364 11.0636C9.80518 11.2324 9.9 11.4613 9.9 11.7C9.9 11.9387 9.80518 12.1676 9.6364 12.3364C9.46761 12.5052 9.23869 12.6 9 12.6H7.5744C7.9965 14.472 8.6562 15.669 9.0009 16.2C9.0009 16.2 9.711 16.2117 9.8343 16.2018C10.072 16.1864 10.3062 16.265 10.4863 16.4208C10.6665 16.5766 10.7782 16.7969 10.7973 17.0343C10.8146 17.2723 10.7368 17.5074 10.5808 17.6879C10.4249 17.8685 10.2036 17.9798 9.9657 17.9973C9.8811 18.0036 9 18 9 18C4.0374 18 0 13.9626 0 9C0 4.0365 4.0374 0 9 0C13.9626 0 18 4.0365 18 9C18 9.3411 17.9676 9.6741 17.9289 10.0044C17.8932 10.2348 17.7695 10.4423 17.5839 10.5834C17.3983 10.7245 17.1653 10.7882 16.9337 10.761C16.7022 10.7339 16.4902 10.618 16.3423 10.4378C16.1944 10.2576 16.1221 10.0271 16.1406 9.7947C16.1721 9.5328 16.2 9.27 16.2 9C16.2 8.3772 16.1118 7.776 15.9633 7.2H12.5127ZM8.9892 1.8324C8.6418 2.3778 7.9992 3.5703 7.5816 5.4H10.4049C9.9855 3.5703 9.3384 2.3778 8.9892 1.8324ZM2.0367 10.8H5.4738C5.41761 10.2028 5.38908 9.6034 5.3883 9.0036C5.3883 8.4006 5.418 7.7994 5.4747 7.2H2.0367C1.88165 7.78751 1.80211 8.39238 1.8 9C1.80225 9.60761 1.88179 10.2125 2.0367 10.8ZM2.7738 12.6C3.66255 14.1333 5.08368 15.2867 6.7671 15.8409C6.29814 14.8043 5.95141 13.7167 5.7339 12.6H2.7738ZM5.7357 5.4C5.95319 4.28247 6.30055 3.19419 6.7707 2.1573C5.08561 2.71109 3.66302 3.86524 2.7738 5.4H5.7357ZM12.2508 5.4H15.2253C14.3324 3.85801 12.9013 2.70029 11.2068 2.1492C11.6815 3.18796 12.0319 4.2791 12.2508 5.4Z" fill="white"/>
<path d="M13.7005 17.0523L11.4055 12.0033C11.3676 11.9199 11.3561 11.8269 11.3725 11.7368C11.3888 11.6467 11.4323 11.5637 11.497 11.499C11.5618 11.4342 11.6448 11.3908 11.7349 11.3744C11.825 11.3581 11.9179 11.3696 12.0013 11.4075L17.0503 13.7025C17.1278 13.7375 17.1938 13.7939 17.2406 13.8649C17.2874 13.936 17.3131 14.0189 17.3147 14.104C17.3163 14.1891 17.2938 14.2728 17.2497 14.3456C17.2056 14.4184 17.1418 14.4772 17.0656 14.5152L15.4978 15.2982C15.4109 15.3419 15.3404 15.4126 15.2971 15.4998L14.5132 17.0676C14.4752 17.1437 14.4164 17.2075 14.3437 17.2516C14.2709 17.2957 14.1871 17.3183 14.102 17.3167C14.0169 17.3151 13.9341 17.2894 13.863 17.2426C13.7919 17.1958 13.7356 17.1298 13.7005 17.0523Z" fill="white"/>
</g>
</g>
<defs>
<clipPath id="clip0_12371_22344">
<rect width="18" height="18" fill="white"/>
</clipPath>
</defs>
</svg>
