<svg width="20" height="20" viewBox="0 0 20 20" fill="none" xmlns="http://www.w3.org/2000/svg">
<path d="M17.5251 8.8C16.5217 8.8 15.6522 9.4 15.2508 10.2L12.709 9.73333C12.709 9.33333 12.5753 8.93333 12.3746 8.66667L15.7191 5.33333C15.9866 5.46667 16.2542 5.53333 16.5217 5.53333C17.592 5.53333 18.4615 4.66667 18.4615 3.6C18.4615 2.53333 17.592 1.66667 16.5217 1.66667C15.4515 1.66667 14.5819 2.53333 14.5819 3.6C14.5819 3.86667 14.6488 4.13333 14.7826 4.4L11.505 7.66667C11.1037 7.46667 10.7023 7.33333 10.2341 7.33333C9.76589 7.33333 9.36455 7.46667 8.96321 7.66667L5.08361 3.86667C5.28428 3.46667 5.48495 3.06667 5.48495 2.53333C5.48495 1.13333 4.28094 0 2.87625 0C1.47157 0 0.334448 1.13333 0.334448 2.53333C0.334448 3.93333 1.47157 5.06667 2.87625 5.06667C3.34448 5.06667 3.74582 4.93333 4.08027 4.73333L7.89298 8.53333C7.7592 8.73333 7.69231 8.93333 7.62542 9.13333H5.61873C5.35117 8.46667 4.68227 7.93333 3.81271 7.93333C2.74247 7.93333 1.87291 8.8 1.87291 9.86667C1.87291 10.9333 2.74247 11.8 3.81271 11.8C4.61538 11.8 5.35117 11.2667 5.61873 10.5333H7.69231C7.7592 10.7333 7.82609 10.9333 7.95987 11.1333L3.8796 15.2C3.47826 15 3.07692 14.8667 2.6087 14.8667C1.13712 14.8667 0 16 0 17.4667C0 18.9333 1.13712 20 2.54181 20C3.94649 20 5.08361 18.8667 5.08361 17.4667C5.08361 17 4.94983 16.6 4.74916 16.2L8.82943 12.1333C9.23077 12.3333 9.63211 12.4667 10.1003 12.4667H10.2341L11.3712 16C10.9699 16.3333 10.7023 16.8667 10.7023 17.4667C10.7023 18.5333 11.5719 19.4 12.6421 19.4C13.7124 19.4 14.5819 18.5333 14.5819 17.4667C14.5819 16.4 13.7124 15.5333 12.6421 15.5333L11.5719 12C11.9732 11.7333 12.2408 11.4 12.4415 11L14.9164 11.5333C14.9833 12.8667 16.1204 13.9333 17.4582 13.9333C18.8629 13.9333 20 12.8 20 11.4C20 10 18.9298 8.8 17.5251 8.8ZM13.311 17.4667C13.311 17.8 13.0435 18.0667 12.709 18.0667C12.3746 18.0667 12.107 17.8 12.107 17.4667C12.107 17.1333 12.3746 16.8667 12.709 16.8667C13.0435 16.8667 13.311 17.1333 13.311 17.4667ZM16.5217 2.93333C16.8562 2.93333 17.1237 3.2 17.1237 3.53333C17.1237 3.86667 16.8562 4.13333 16.5217 4.13333C16.1873 4.13333 15.9197 3.86667 15.9197 3.53333C15.9197 3.2 16.1873 2.93333 16.5217 2.93333ZM11.3712 9.86667C11.3712 10.5333 10.8361 11.0667 10.1672 11.0667C9.49833 11.0667 8.96321 10.5333 8.96321 9.86667C8.96321 9.2 9.49833 8.66667 10.1672 8.66667C10.8361 8.66667 11.3712 9.2 11.3712 9.86667ZM1.67224 2.53333C1.67224 1.86667 2.20736 1.33333 2.87625 1.33333C3.54515 1.33333 4.08027 1.86667 4.08027 2.53333C4.08027 3.2 3.54515 3.8 2.87625 3.8C2.20736 3.8 1.67224 3.26667 1.67224 2.53333ZM3.81271 10.4667C3.47826 10.4667 3.2107 10.2 3.2107 9.86667C3.2107 9.53333 3.47826 9.26667 3.81271 9.26667C4.14716 9.26667 4.41472 9.53333 4.41472 9.86667C4.41472 10.2 4.14716 10.4667 3.81271 10.4667ZM2.54181 18.6667C1.87291 18.6667 1.33779 18.1333 1.33779 17.4667C1.33779 16.8 1.87291 16.2667 2.54181 16.2667C3.2107 16.2667 3.74582 16.8 3.74582 17.4667C3.74582 18.1333 3.27759 18.6667 2.54181 18.6667ZM17.5251 12.5333C16.8562 12.5333 16.3211 12 16.3211 11.3333C16.3211 10.6667 16.8562 10.1333 17.5251 10.1333C18.194 10.1333 18.7291 10.6667 18.7291 11.3333C18.7291 12 18.194 12.5333 17.5251 12.5333Z" fill="white"/>
</svg>
