<svg id="icon_buy" xmlns="http://www.w3.org/2000/svg" width="30" height="30" viewBox="0 0 30 30">
  <rect id="icon_trim" data-name="icon trim" width="30" height="30" fill="none"/>
  <g id="icon_bitcoin" transform="translate(11 9)">
    <path id="Path_5548" data-name="Path 5548" d="M74.276,6.336a2.179,2.179,0,0,0-1.27-.747,1.721,1.721,0,0,0,.951-1.873,1.851,1.851,0,0,0-.265-.831,1.663,1.663,0,0,0-.6-.566,3.3,3.3,0,0,0-.82-.327,6.471,6.471,0,0,0-1.016-.163V0H70.139V1.778q-.29,0-.885.015V0H68.136V1.829q-.24.007-.7.007l-1.539-.007v1.19H66.7a.577.577,0,0,1,.646.494V5.6a.738.738,0,0,1,.116.007h-.116V8.521a.388.388,0,0,1-.421.37h-.806l-.225,1.328h1.452l.4,0,.392,0v1.851h1.118V10.248q.3.007.885.007v1.822h1.118V10.226a8.688,8.688,0,0,0,1.056-.109,4.3,4.3,0,0,0,.882-.251,2.38,2.38,0,0,0,.7-.425,2,2,0,0,0,.468-.646,2.746,2.746,0,0,0,.236-.907A2.15,2.15,0,0,0,74.276,6.336Zm-5-3.237.287,0,.392-.007q.156,0,.421.018a4,4,0,0,1,.446.058,2.486,2.486,0,0,1,.4.12,1.081,1.081,0,0,1,.348.2,1.008,1.008,0,0,1,.221.3.952.952,0,0,1,.091.425,1.01,1.01,0,0,1-.065.37.7.7,0,0,1-.2.279,1.985,1.985,0,0,1-.269.2A1.23,1.23,0,0,1,71,5.2q-.214.051-.374.08a3.06,3.06,0,0,1-.4.04l-.363.015q-.123,0-.338,0l-.25,0V3.1h0Zm3.052,4.943a1.032,1.032,0,0,1-.178.29,1.008,1.008,0,0,1-.287.218,2.461,2.461,0,0,1-.345.152,2.776,2.776,0,0,1-.4.1q-.236.044-.414.062t-.425.029q-.247.011-.385.011l-.348,0-.269,0V6.445l.345-.007q.287-.007.468-.007t.5.022a4.279,4.279,0,0,1,.537.065,3.53,3.53,0,0,1,.475.134,1.379,1.379,0,0,1,.417.221,1.09,1.09,0,0,1,.268.334,1.037,1.037,0,0,1,.04.835Z" transform="translate(-65.893)" fill="#212121"/>
  </g>
</svg>
