<svg width="20" height="20" viewBox="0 0 20 20" fill="none" xmlns="http://www.w3.org/2000/svg">
<path d="M17.0827 7.08309H9.58272C9.03039 7.08375 8.50087 7.30345 8.11031 7.69401C7.71976 8.08457 7.50005 8.61409 7.49939 9.16642V14.1664C7.50005 14.7188 7.71976 15.2483 8.11031 15.6388C8.50087 16.0294 9.03039 16.2491 9.58272 16.2498H13.7852L15.599 18.0639C15.6864 18.1514 15.7978 18.211 15.919 18.2351C16.0403 18.2592 16.166 18.2469 16.2803 18.1995C16.3945 18.1522 16.4921 18.0721 16.5608 17.9692C16.6295 17.8664 16.6661 17.7455 16.6661 17.6218V16.2498H17.0827C17.6351 16.2491 18.1646 16.0294 18.5551 15.6388C18.9457 15.2483 19.1654 14.7188 19.1661 14.1664V9.16642C19.1654 8.61409 18.9457 8.08457 18.5551 7.69401C18.1646 7.30345 17.6351 7.08375 17.0827 7.08309ZM15.4161 11.0414H15.1831C15.0868 11.9017 14.695 12.702 14.0744 13.3056C14.4324 13.4597 14.8179 13.5399 15.2077 13.5414C15.3198 13.5408 15.4277 13.5841 15.5083 13.6619C15.589 13.7398 15.636 13.846 15.6394 13.9581C15.6411 14.012 15.6319 14.0658 15.6125 14.1161C15.593 14.1665 15.5637 14.2124 15.5262 14.2512C15.4888 14.2901 15.4439 14.321 15.3943 14.3422C15.3446 14.3634 15.2913 14.3745 15.2373 14.3748C14.5712 14.3729 13.9174 14.1962 13.3411 13.8623C12.7701 14.1976 12.1199 14.3745 11.4577 14.3748C11.3456 14.3753 11.2377 14.3321 11.1571 14.2543C11.0765 14.1764 11.0294 14.0701 11.0261 13.9581C11.0244 13.9041 11.0335 13.8504 11.053 13.8001C11.0724 13.7497 11.1017 13.7038 11.1392 13.6649C11.1767 13.6261 11.2215 13.5952 11.2712 13.5739C11.3208 13.5527 11.3742 13.5417 11.4281 13.5414C11.8307 13.5419 12.2292 13.4605 12.5994 13.3023C12.2763 12.995 12.0116 12.6318 11.8181 12.2302C11.7926 12.1805 11.7774 12.1262 11.7733 12.0706C11.7692 12.0149 11.7763 11.959 11.7942 11.9061C11.8121 11.8533 11.8404 11.8046 11.8775 11.7629C11.9146 11.7212 11.9597 11.6873 12.0102 11.6634C12.0606 11.6395 12.1153 11.6259 12.1711 11.6236C12.2268 11.6212 12.2825 11.63 12.3348 11.6496C12.3871 11.6692 12.4349 11.699 12.4754 11.7374C12.5159 11.7758 12.5483 11.8219 12.5706 11.8731C12.7504 12.2506 13.0095 12.5849 13.3302 12.8531C13.879 12.3945 14.239 11.7493 14.3411 11.0414H11.2494C11.1389 11.0414 11.0329 10.9975 10.9548 10.9194C10.8766 10.8412 10.8327 10.7353 10.8327 10.6248C10.8327 10.5142 10.8766 10.4083 10.9548 10.3301C11.0329 10.252 11.1389 10.2081 11.2494 10.2081H12.9161V9.37475C12.9161 9.26425 12.96 9.15826 13.0381 9.08012C13.1162 9.00198 13.2222 8.95809 13.3327 8.95809C13.4432 8.95809 13.5492 9.00198 13.6273 9.08012C13.7055 9.15826 13.7494 9.26425 13.7494 9.37475V10.2081H15.4161C15.5266 10.2081 15.6325 10.252 15.7107 10.3301C15.7888 10.4083 15.8327 10.5142 15.8327 10.6248C15.8327 10.7353 15.7888 10.8412 15.7107 10.9194C15.6325 10.9975 15.5266 11.0414 15.4161 11.0414ZM6.66605 6.00684L5.9873 7.49975H7.19272C7.22272 7.45809 7.2548 7.41642 7.2873 7.37475L6.66605 6.00684Z" fill="white"/>
<path d="M10.4163 2.5H2.91634C2.36401 2.50066 1.83449 2.72037 1.44393 3.11092C1.05338 3.50148 0.833669 4.031 0.833008 4.58333V9.58333C0.833669 10.1357 1.05338 10.6652 1.44393 11.0557C1.83449 11.4463 2.36401 11.666 2.91634 11.6667H3.33301V13.0388C3.33295 13.1624 3.36958 13.2833 3.43825 13.3861C3.50692 13.489 3.60455 13.5691 3.71879 13.6164C3.83303 13.6638 3.95874 13.6761 4.08002 13.652C4.20129 13.6279 4.31268 13.5683 4.40009 13.4808L6.21384 11.6667H6.66634V9.16667C6.66719 8.88428 6.7093 8.60354 6.79134 8.33333H5.60884L4.96217 9.75583C4.91487 9.85391 4.83105 9.92957 4.72866 9.96662C4.62628 10.0037 4.51345 9.99917 4.41434 9.95408C4.31523 9.90899 4.2377 9.82689 4.19836 9.72536C4.15902 9.62383 4.16099 9.51093 4.20384 9.41083L6.28718 4.8275C6.32032 4.75476 6.37369 4.69308 6.44092 4.64983C6.50815 4.60658 6.5864 4.58359 6.66634 4.58359C6.74628 4.58359 6.82453 4.60658 6.89176 4.64983C6.95899 4.69308 7.01236 4.75476 7.04551 4.8275L7.92759 6.76792C8.41354 6.43024 8.99125 6.2495 9.58301 6.25H12.4997V4.58333C12.499 4.031 12.2793 3.50148 11.8888 3.11092C11.4982 2.72037 10.9687 2.50066 10.4163 2.5Z" fill="white"/>
</svg>
