<svg id="icon_btc1" xmlns="http://www.w3.org/2000/svg" width="30" height="30" viewBox="0 0 30 30">
  <g id="icon_bitcoin" transform="translate(9 6)">
    <path id="Path_5548" data-name="Path 5548" d="M78.381,9.438a3.246,3.246,0,0,0-1.892-1.113,2.563,2.563,0,0,0,1.416-2.79A2.757,2.757,0,0,0,77.51,4.3a2.477,2.477,0,0,0-.892-.843A4.91,4.91,0,0,0,75.4,2.968a9.64,9.64,0,0,0-1.514-.243V0H72.218V2.649q-.432,0-1.319.022V0H69.234V2.725q-.357.011-1.049.011l-2.292-.011V4.5h1.2a.859.859,0,0,1,.962.735v3.1a1.1,1.1,0,0,1,.173.011h-.173v4.346a.578.578,0,0,1-.627.551h-1.2l-.335,1.979h2.162q.205,0,.595.005t.584.005v2.757H70.9V15.266q.454.011,1.319.011v2.714h1.665V15.234a12.943,12.943,0,0,0,1.573-.162A6.4,6.4,0,0,0,76.77,14.7a3.545,3.545,0,0,0,1.049-.633,2.985,2.985,0,0,0,.7-.962,4.09,4.09,0,0,0,.351-1.352A3.2,3.2,0,0,0,78.381,9.438Zm-7.45-4.822.427-.005.584-.011q.233-.005.627.027a5.965,5.965,0,0,1,.665.086,3.7,3.7,0,0,1,.595.178,1.611,1.611,0,0,1,.519.3,1.5,1.5,0,0,1,.33.454,1.417,1.417,0,0,1,.135.632,1.5,1.5,0,0,1-.1.552,1.039,1.039,0,0,1-.292.416,2.956,2.956,0,0,1-.4.292,1.833,1.833,0,0,1-.524.2q-.319.076-.557.119a4.558,4.558,0,0,1-.595.059q-.357.016-.541.022t-.5,0l-.373-.005V4.616h0Zm4.547,7.363a1.538,1.538,0,0,1-.265.433,1.5,1.5,0,0,1-.427.324,3.665,3.665,0,0,1-.513.227,4.135,4.135,0,0,1-.6.151q-.352.065-.617.092t-.632.043q-.367.016-.573.016t-.519-.005l-.4-.005V9.6q.086,0,.514-.011t.7-.011q.27,0,.746.032a6.375,6.375,0,0,1,.8.1,5.261,5.261,0,0,1,.708.2,2.054,2.054,0,0,1,.622.33,1.623,1.623,0,0,1,.4.5,1.545,1.545,0,0,1,.06,1.243Z" transform="translate(-65.893)" fill="#aaa"/>
  </g>
  <rect id="icon_trim" data-name="icon trim" width="30" height="30" fill="none"/>
</svg>
