<svg id="icon_check" xmlns="http://www.w3.org/2000/svg" width="30" height="30" viewBox="0 0 30 30">
  <path id="Path_117619" data-name="Path 117619" d="M16.25,1.25a15,15,0,1,0,15,15A15,15,0,0,0,16.25,1.25Z" transform="translate(-1.25 -1.25)" fill="#212121"/>
  <path id="Path_117893" data-name="Path 117893" d="M17.03,8.47a.75.75,0,0,1,0,1.061l-6,6a.75.75,0,0,1-1.061,0l-3-3A.75.75,0,1,1,8.03,11.47l2.47,2.47,5.47-5.47A.75.75,0,0,1,17.03,8.47Z" transform="translate(2.75 3.25)" fill="#3bcca0" stroke="#3bcca0" stroke-width="1" fill-rule="evenodd"/>
</svg>
