<svg width="20" height="20" viewBox="0 0 20 20" fill="none" xmlns="http://www.w3.org/2000/svg">
<path d="M9.99983 8.90846e-06C7.68628 5.15444e-05 5.44433 0.80228 3.65596 2.27001C1.86759 3.73773 0.643454 5.78014 0.192136 8.04924C-0.259183 10.3183 0.090237 12.6737 1.18086 14.7141C2.27148 16.7544 4.03582 18.3535 6.17327 19.2388C8.31071 20.1242 10.689 20.241 12.9029 19.5694C15.1168 18.8978 17.0294 17.4793 18.3147 15.5557C19.6001 13.632 20.1786 11.3222 19.9518 9.0198C19.7251 6.7174 18.707 4.56485 17.0711 2.92893C16.1435 1.99892 15.0413 1.2614 13.8278 0.758753C12.6142 0.256108 11.3133 -0.00174707 9.99983 8.90846e-06ZM16.4247 16.4249C14.9385 17.9104 12.9833 18.8348 10.892 19.0404C8.80078 19.246 6.70294 18.7202 4.9559 17.5525C3.20886 16.3849 1.92071 14.6476 1.31091 12.6367C0.701113 10.6258 0.807393 8.46569 1.61164 6.52436C2.41589 4.58303 3.86836 2.98061 5.72158 1.99009C7.57481 0.999566 9.71413 0.68223 11.7751 1.09214C13.836 1.50206 15.6911 2.61386 17.0243 4.23814C18.3574 5.86242 19.0862 7.89868 19.0864 10C19.0879 11.1935 18.8535 12.3755 18.3967 13.4781C17.9399 14.5807 17.2697 15.5821 16.4247 16.4249ZM16.4895 13.2157C15.9394 14.2035 15.1565 15.0421 14.2088 15.6588C13.2611 16.2755 12.1772 16.6516 11.0512 16.7544C9.9252 16.8573 8.79112 16.6838 7.74738 16.249C6.70364 15.8142 5.78177 15.1313 5.06178 14.2595C4.3418 13.3876 3.84544 12.3533 3.6158 11.2462C3.38616 10.1391 3.43017 8.99265 3.74401 7.90641C4.05786 6.82016 4.63205 5.82691 5.41675 5.01287C6.20146 4.19882 7.17297 3.58858 8.24698 3.2351C8.3046 3.21603 8.3664 3.21342 8.42543 3.22755C8.48446 3.24168 8.53837 3.27199 8.58112 3.31508C8.62387 3.35817 8.65376 3.41232 8.66742 3.47146C8.68108 3.5306 8.67798 3.59238 8.65847 3.64985C7.01078 8.53571 11.1711 13.4072 16.159 12.7328C16.2193 12.7244 16.2807 12.7329 16.3363 12.7575C16.392 12.782 16.4397 12.8216 16.4741 12.8719C16.5084 12.9221 16.528 12.9809 16.5308 13.0416C16.5335 13.1024 16.5192 13.1626 16.4895 13.2157Z" fill="#0166FF"/>
</svg>
