<svg id="icon_assets_inactive" xmlns="http://www.w3.org/2000/svg" width="30" height="30" viewBox="0 0 30 30">
  <g id="category" transform="translate(2.751 3.75)">
    <g id="Group_46667" data-name="Group 46667" opacity="0.4">
      <g id="Path_117871" data-name="Path 117871" fill="none">
        <path d="M19.447,1.849a2.046,2.046,0,0,0-2.894,0l-2.7,2.7a2.046,2.046,0,0,0,0,2.894l2.7,2.7a2.046,2.046,0,0,0,2.894,0l2.7-2.7a2.046,2.046,0,0,0,0-2.894Z" stroke="none"/>
        <path d="M 18 2.75 C 17.9155101776123 2.75 17.75296974182129 2.770779609680176 17.61375045776367 2.91001033782959 L 14.90996932983398 5.613719940185547 C 14.69697952270508 5.826710224151611 14.69697952270508 6.173289775848389 14.90995025634766 6.386260032653809 L 17.61375999450684 9.09004020690918 C 17.75296020507812 9.229240417480469 17.91550064086914 9.250020027160645 18 9.250020027160645 C 18.08449935913086 9.250020027160645 18.24703979492188 9.229240417480469 18.38624954223633 9.090029716491699 L 21.09003067016602 6.386280059814453 C 21.30302047729492 6.173289775848389 21.30302047729492 5.826710224151611 21.09004974365234 5.613739967346191 L 18.38623046875 2.909990310668945 C 18.24703025817871 2.770779609680176 18.0844898223877 2.75 18 2.75 M 18 1.25 C 18.5236759185791 1.25 19.04734992980957 1.449780464172363 19.4468994140625 1.849340438842773 L 22.15069961547852 4.553070068359375 C 22.94979858398438 5.352190017700195 22.94979858398438 6.647809982299805 22.15069961547852 7.446929931640625 L 19.4468994140625 10.15069961547852 C 18.64780044555664 10.94980049133301 17.35219955444336 10.94980049133301 16.5531005859375 10.15069961547852 L 13.84930038452148 7.446929931640625 C 13.05019950866699 6.647809982299805 13.05019950866699 5.352190017700195 13.84930038452148 4.553070068359375 L 16.5531005859375 1.849340438842773 C 16.95265007019043 1.449780464172363 17.4763240814209 1.25 18 1.25 Z" stroke="none" fill="#bababa"/>
      </g>
      <g id="Path_117872" data-name="Path 117872" fill="none">
        <path d="M7.728,14.318a1.932,1.932,0,0,0-3.457,0L1.455,19.953a1.933,1.933,0,0,0,1.728,2.8H8.816a1.933,1.933,0,0,0,1.728-2.8Z" stroke="none"/>
        <path d="M 5.99998950958252 14.74996948242188 C 5.878149509429932 14.74996948242188 5.712169647216797 14.79146003723145 5.61337947845459 14.9891185760498 L 2.797209739685059 20.62358856201172 C 2.703279495239258 20.81153869628906 2.768829345703125 20.96833801269531 2.816269874572754 21.04507827758789 C 2.863579750061035 21.12160873413086 2.97422981262207 21.25 3.183809280395508 21.25 L 8.816169738769531 21.25 C 9.025739669799805 21.25 9.13638973236084 21.12160873413086 9.183699607849121 21.04507827758789 C 9.231139183044434 20.96833801269531 9.296689987182617 20.81155014038086 9.202759742736816 20.62360954284668 L 6.386589527130127 14.98909950256348 C 6.287809371948242 14.79146003723145 6.121829509735107 14.74996948242188 5.99998950958252 14.74996948242188 M 5.99998950958252 13.24997520446777 C 6.686149597167969 13.24997520446777 7.372309684753418 13.60614967346191 7.728339672088623 14.3184986114502 L 10.54449939727783 19.95299911499023 C 11.18659973144531 21.23769950866699 10.2529993057251 22.75 8.816169738769531 22.75 L 3.183809280395508 22.75 C 1.746959686279297 22.75 0.8133792877197266 21.23769950866699 1.455459594726562 19.95299911499023 L 4.271639347076416 14.3184986114502 C 4.627669334411621 13.60614967346191 5.31382942199707 13.24997520446777 5.99998950958252 13.24997520446777 Z" stroke="none" fill="#bababa"/>
      </g>
    </g>
    <g id="Path_117873" data-name="Path 117873" fill="none" opacity="0.4">
      <path d="M4.286,1.25A3.036,3.036,0,0,0,1.25,4.286V7.714A3.036,3.036,0,0,0,4.286,10.75H7.714A3.036,3.036,0,0,0,10.75,7.714V4.286A3.036,3.036,0,0,0,7.714,1.25Z" stroke="none"/>
      <path d="M 4.285709857940674 2.75 C 3.438920021057129 2.75 2.75 3.438920021057129 2.75 4.285709857940674 L 2.75 7.714290142059326 C 2.75 8.561079978942871 3.438920021057129 9.25 4.285709857940674 9.25 L 7.714290142059326 9.25 C 8.561079978942871 9.25 9.25 8.561079978942871 9.25 7.714290142059326 L 9.25 4.285709857940674 C 9.25 3.438920021057129 8.561079978942871 2.75 7.714290142059326 2.75 L 4.285709857940674 2.75 M 4.285709857940674 1.25 L 7.714290142059326 1.25 C 9.390870094299316 1.25 10.75 2.609140396118164 10.75 4.285709857940674 L 10.75 7.714290142059326 C 10.75 9.390870094299316 9.390870094299316 10.75 7.714290142059326 10.75 L 4.285709857940674 10.75 C 2.609140396118164 10.75 1.25 9.390859603881836 1.25 7.714290142059326 L 1.25 4.285709857940674 C 1.25 2.609140396118164 2.609140396118164 1.25 4.285709857940674 1.25 Z" stroke="none" fill="#bababa"/>
    </g>
    <g id="Path_117874" data-name="Path 117874" fill="none">
      <path d="M18,13.25A4.75,4.75,0,1,0,22.75,18,4.75,4.75,0,0,0,18,13.25Z" stroke="none"/>
      <path d="M 18 14.75 C 16.20793914794922 14.75 14.75 16.20793914794922 14.75 18 C 14.75 19.79206085205078 16.20793914794922 21.25 18 21.25 C 19.79206085205078 21.25 21.25 19.79206085205078 21.25 18 C 21.25 16.20793914794922 19.79206085205078 14.75 18 14.75 M 18 13.25 C 20.62339973449707 13.25 22.75 15.37660026550293 22.75 18 C 22.75 20.62339973449707 20.62339973449707 22.75 18 22.75 C 15.37660026550293 22.75 13.25 20.62339973449707 13.25 18 C 13.25 15.37660026550293 15.37660026550293 13.25 18 13.25 Z" stroke="none" fill="#bababa"/>
    </g>
  </g>
  <rect id="icon_trim" data-name="icon trim" width="30" height="30" fill="none"/>
</svg>
