<svg width="21" height="20" viewBox="0 0 21 20" fill="none" xmlns="http://www.w3.org/2000/svg">
<path d="M18.8333 7.08335C18.8333 10.075 16.4083 12.5 13.4167 12.5C13.275 12.5 13.125 12.4917 12.9833 12.4834C12.775 9.8417 10.6583 7.72501 8.01666 7.51668C8.00832 7.37501 8 7.22502 8 7.08335C8 4.09169 10.425 1.66669 13.4167 1.66669C16.4083 1.66669 18.8333 4.09169 18.8333 7.08335Z" stroke="white" stroke-linecap="round" stroke-linejoin="round"/>
<path d="M13 12.9167C13 15.9083 10.575 18.3333 7.58329 18.3333C4.59163 18.3333 2.16663 15.9083 2.16663 12.9167C2.16663 9.925 4.59163 7.5 7.58329 7.5C7.72496 7.5 7.87495 7.50832 8.01662 7.51666C10.6583 7.72499 12.775 9.84168 12.9833 12.4833C12.9916 12.625 13 12.775 13 12.9167Z" stroke="white" stroke-linecap="round" stroke-linejoin="round"/>
<path d="M6.85 12.1833L7.58333 10.8333L8.31667 12.1833L9.66667 12.9166L8.31667 13.65L7.58333 15L6.85 13.65L5.5 12.9166L6.85 12.1833Z" stroke="white" stroke-linecap="round" stroke-linejoin="round"/>
</svg>
