<svg width="20" height="20" viewBox="0 0 20 20" fill="none" xmlns="http://www.w3.org/2000/svg">
<path d="M7.63166 17.3069V14.7513C7.63165 14.1013 8.16158 13.5731 8.81816 13.5687H11.2232C11.8829 13.5687 12.4177 14.0982 12.4177 14.7513V14.7513V17.3148C12.4176 17.8667 12.8625 18.3178 13.4198 18.3307H15.0232C16.6216 18.3307 17.9173 17.048 17.9173 15.4656V15.4656V8.19559C17.9088 7.57309 17.6135 6.98852 17.1156 6.60826L11.6321 2.23515C10.6714 1.4737 9.30582 1.4737 8.34517 2.23515L2.88567 6.61619C2.38587 6.99491 2.09014 7.58045 2.08398 8.20353V15.4656C2.08398 17.048 3.37971 18.3307 4.97808 18.3307H6.58145C7.15261 18.3307 7.61563 17.8723 7.61563 17.3069V17.3069" stroke="white" stroke-linecap="round" stroke-linejoin="round"/>
</svg>
