<svg id="icon_connect" xmlns="http://www.w3.org/2000/svg" width="30" height="30" viewBox="0 0 30 30">
  <rect id="icon_trim" data-name="icon trim" width="30" height="30" fill="none"/>
  <g id="link" transform="translate(10 11)">
    <g id="Group_46681" data-name="Group 46681" transform="translate(-1 -2)">
      <path id="Path_118234" data-name="Path 118234" d="M11.189,2.753a2.4,2.4,0,1,1,3.4,3.4L13.295,7.447a.524.524,0,0,0,.742.742l1.294-1.294a3.453,3.453,0,0,0-4.883-4.883L9.154,3.305a.524.524,0,0,0,.742.742Z" transform="translate(-3.981 -1)" fill="#f97643" stroke="#f97643" stroke-width="1"/>
      <path id="Path_118235" data-name="Path 118235" d="M6.153,14.589a2.4,2.4,0,0,1-3.4-3.4L4.047,9.9a.524.524,0,0,0-.742-.742L2.011,10.448a3.453,3.453,0,0,0,4.883,4.883l1.294-1.294a.524.524,0,0,0-.742-.742Z" transform="translate(-1 -3.981)" fill="#f97643" stroke="#f97643" stroke-width="1"/>
    </g>
  </g>
</svg>
