<svg width="30" height="28" viewBox="0 0 30 28" fill="none" xmlns="http://www.w3.org/2000/svg">
<path d="M9.99946 8.57073C15.7226 8.57073 19.9989 6.3083 19.9989 4.28532C19.9989 2.26253 15.7225 0 9.99946 0C4.27646 0 9.52484e-05 2.26253 9.52484e-05 4.28532C9.52484e-05 6.3083 4.27637 8.57073 9.99946 8.57073ZM9.99946 25.713C10.8348 25.713 11.6388 25.6644 12.4035 25.5759C11.7539 24.7415 11.2232 23.821 10.8264 22.8407C10.552 22.85 10.2766 22.8564 9.99936 22.8564C6.7292 22.8564 3.6323 22.2084 1.27938 21.0319C0.816088 20.8002 0.389756 20.5514 9.52484e-05 20.2879V21.4276C9.52484e-05 23.4504 4.27637 25.713 9.99946 25.713ZM9.99946 19.9989C10.0288 19.9989 10.0577 19.9984 10.0869 19.9983C10.0275 19.5243 9.99777 19.0471 9.99774 18.5693C9.99774 18.0857 10.0282 17.609 10.0869 17.1412C10.0577 17.1412 10.0287 17.1422 9.99946 17.1422C6.7293 17.1422 3.63249 16.4943 1.27947 15.3177C0.816088 15.0861 0.389661 14.8372 0 14.5739V15.7135C9.52484e-05 17.7364 4.27637 19.9989 9.99946 19.9989ZM9.99946 14.2847C10.2829 14.2847 10.5626 14.279 10.8387 14.2681C11.2793 13.188 11.8824 12.1817 12.6272 11.2839C11.7546 11.38 10.8773 11.4282 9.99946 11.4282C6.7293 11.4282 3.63249 10.7802 1.27947 9.6037C0.816088 9.37196 0.389661 9.12318 0 8.85972V9.99946C9.52484e-05 12.0223 4.27637 14.2847 9.99946 14.2847ZM14.2856 13.8339C13.6564 14.7787 13.2222 15.8396 13.0085 16.9544C12.9065 17.4867 12.8552 18.0274 12.8553 18.5693C12.8553 18.9843 12.8856 19.3924 12.9428 19.7918C13.0807 20.754 13.3826 21.6855 13.8353 22.5458C14.3002 23.4293 14.915 24.2253 15.6523 24.8985C17.177 26.2911 19.2048 27.1417 21.4276 27.1417C26.1544 27.1417 30 23.2961 30 18.5693C30 13.8424 26.1544 9.99698 21.4276 9.99698C20.9391 9.99698 20.4601 10.0387 19.9936 10.1176C17.6173 10.5194 15.5706 11.9023 14.2856 13.8339Z" fill="#0166FF"/>
</svg>
