<svg width="80" height="80" viewBox="0 0 80 80" fill="none" xmlns="http://www.w3.org/2000/svg">
<circle cx="40" cy="40" r="39.5" stroke="url(#paint0_linear_159_987)"/>
<path fill-rule="evenodd" clip-rule="evenodd" d="M34.1833 28.5272C30.7473 28.5272 28.5273 30.8832 28.5273 34.5179V45.4699C28.5273 46.4899 28.7167 47.4006 29.0407 48.1886C29.0547 48.1719 29.3603 47.7994 29.7588 47.3138C30.5368 46.3658 31.6687 44.9863 31.6767 44.9792C32.5993 43.9259 34.3313 42.3552 36.6047 43.3059C37.1028 43.5125 37.5456 43.7954 37.9532 44.0559C37.9929 44.0812 38.0323 44.1064 38.0713 44.1312C38.8353 44.6419 39.2847 44.8819 39.7513 44.8419C39.9447 44.8152 40.126 44.7579 40.298 44.6512C40.9469 44.2512 42.6291 41.8677 43.1328 41.154C43.2066 41.0493 43.2551 40.9806 43.2713 40.9592C44.7247 39.0659 46.9647 38.5592 48.8313 39.6792C49.082 39.8286 50.878 41.0832 51.4727 41.5872V34.5179C51.4727 30.8832 49.2527 28.5272 45.8047 28.5272H34.1833ZM45.8047 26.6672C50.3073 26.6672 53.3327 29.8166 53.3327 34.5179V45.4699C53.3327 45.5881 53.3203 45.699 53.3079 45.8098C53.2991 45.8877 53.2904 45.9656 53.286 46.0459C53.2832 46.0945 53.2818 46.143 53.2804 46.1916C53.2785 46.2564 53.2767 46.3211 53.2713 46.3859C53.2687 46.4112 53.2637 46.4356 53.2587 46.4599C53.2537 46.4842 53.2487 46.5086 53.246 46.5339C53.202 46.9526 53.134 47.3526 53.0393 47.7406C53.017 47.8375 52.9911 47.931 52.965 48.0254L52.9593 48.0459C52.8527 48.4219 52.7273 48.7806 52.5767 49.1232C52.5503 49.1808 52.5224 49.237 52.4946 49.2931C52.476 49.3306 52.4575 49.368 52.4393 49.4059C52.2767 49.7326 52.1007 50.0459 51.8967 50.3366C51.8589 50.3904 51.8188 50.4408 51.7785 50.4913C51.7519 50.5247 51.7253 50.5581 51.6993 50.5926C51.4873 50.8672 51.266 51.1299 51.0153 51.3686C50.9653 51.4162 50.9112 51.4597 50.8571 51.5033C50.8233 51.5305 50.7895 51.5577 50.7567 51.5859C50.4993 51.8072 50.2367 52.0192 49.9473 52.2006C49.8842 52.2402 49.8171 52.2735 49.7503 52.3067C49.707 52.3281 49.6639 52.3495 49.622 52.3726C49.3273 52.5352 49.03 52.6939 48.706 52.8166C48.6281 52.8462 48.5451 52.8676 48.4619 52.8891C48.4028 52.9043 48.3436 52.9196 48.286 52.9379C48.2572 52.9468 48.2284 52.9558 48.1996 52.9648C47.9102 53.0548 47.6217 53.1445 47.31 53.1979C47.1295 53.2295 46.9379 53.2417 46.7461 53.2539C46.6631 53.2591 46.5802 53.2644 46.498 53.2712C46.4097 53.2778 46.3231 53.2885 46.2364 53.2992C46.0954 53.3165 45.9541 53.3339 45.8047 53.3339H34.1833C33.682 53.3339 33.2033 53.2832 32.7407 53.2072C32.7233 53.2046 32.7073 53.2019 32.6913 53.1992C30.8873 52.8886 29.39 52.0179 28.3407 50.7046C28.3334 50.7046 28.3305 50.6997 28.3267 50.6931C28.3243 50.6889 28.3214 50.6839 28.3167 50.6792C27.262 49.3512 26.666 47.5659 26.666 45.4699V34.5179C26.666 29.8166 29.694 26.6672 34.1833 26.6672H45.8047ZM38.6668 35.3533C38.6668 37.1599 37.1552 38.6667 35.3399 38.6667C33.7443 38.6667 32.3839 37.5009 32.079 35.9915C32.0286 35.7651 32.0001 35.5322 32.0001 35.2915C32.0001 33.4721 33.4782 32 35.3051 32C36.2353 32 37.0777 32.3912 37.681 33.0153C38.287 33.6175 38.6668 34.4474 38.6668 35.3533Z" fill="#4B4B4B"/>
<defs>
<linearGradient id="paint0_linear_159_987" x1="40" y1="0" x2="40" y2="80" gradientUnits="userSpaceOnUse">
<stop stop-color="#2F2F2F"/>
<stop offset="0.5" stop-color="#191919"/>
<stop offset="1" stop-color="#151515"/>
</linearGradient>
</defs>
</svg>
