<svg width="20" height="20" viewBox="0 0 20 20" fill="none" xmlns="http://www.w3.org/2000/svg">
<path d="M18.3333 7.08366C18.3333 10.0753 15.9083 12.5003 12.9167 12.5003C12.775 12.5003 12.625 12.492 12.4833 12.4837C12.275 9.842 10.1583 7.72532 7.51666 7.51698C7.50832 7.37532 7.5 7.22533 7.5 7.08366C7.5 4.09199 9.925 1.66699 12.9167 1.66699C15.9083 1.66699 18.3333 4.09199 18.3333 7.08366Z" stroke="#616A7F" stroke-linecap="round" stroke-linejoin="round"/>
<path d="M12.5 12.9167C12.5 15.9083 10.075 18.3333 7.08335 18.3333C4.09169 18.3333 1.66669 15.9083 1.66669 12.9167C1.66669 9.925 4.09169 7.5 7.08335 7.5C7.22502 7.5 7.37501 7.50832 7.51668 7.51666C10.1583 7.72499 12.275 9.84168 12.4834 12.4833C12.4917 12.625 12.5 12.775 12.5 12.9167Z" stroke="#616A7F" stroke-linecap="round" stroke-linejoin="round"/>
<path d="M6.35 12.183L7.08333 10.833L7.81667 12.183L9.16667 12.9163L7.81667 13.6497L7.08333 14.9997L6.35 13.6497L5 12.9163L6.35 12.183Z" stroke="#616A7F" stroke-linecap="round" stroke-linejoin="round"/>
</svg>
