<svg id="icon_settings_inactive" xmlns="http://www.w3.org/2000/svg" width="30" height="30" viewBox="0 0 30 30">
  <g id="settings" transform="translate(2.25 2.75)">
    <path id="Path_118497" data-name="Path 118497" d="M21.157,5.58A1.946,1.946,0,0,0,18.5,4.87a1.944,1.944,0,0,1-2.915-1.68,1.942,1.942,0,0,0-1.944-1.94H10.9A1.942,1.942,0,0,0,8.954,3.19,1.944,1.944,0,0,1,6.038,4.87a1.946,1.946,0,0,0-2.655.71L2.011,7.953a1.938,1.938,0,0,0,.711,2.65,1.938,1.938,0,0,1,0,3.36,1.938,1.938,0,0,0-.711,2.65l1.373,2.373a1.946,1.946,0,0,0,2.655.71,1.944,1.944,0,0,1,2.916,1.68,1.942,1.942,0,0,0,1.944,1.94h2.745a1.942,1.942,0,0,0,1.944-1.94A1.944,1.944,0,0,1,18.5,19.7a1.946,1.946,0,0,0,2.655-.71l1.373-2.373a1.938,1.938,0,0,0-.711-2.65,1.938,1.938,0,0,1,0-3.36,1.938,1.938,0,0,0,.711-2.65Z" fill="none" stroke="#bababa" stroke-width="1.5" opacity="0.4"/>
    <path id="Path_118498" data-name="Path 118498" d="M15.158,12.1a3.079,3.079,0,1,1-3.079-3.079A3.079,3.079,0,0,1,15.158,12.1Z" transform="translate(0.191 0.205)" fill="none" stroke="#bababa" stroke-width="1.5"/>
  </g>
  <rect id="icon_trim" data-name="icon trim" width="30" height="30" fill="none"/>
</svg>
