<svg xmlns="http://www.w3.org/2000/svg" width="70" height="70" viewBox="0 0 70 70">
  <g id="icon_settings" transform="translate(18 18)">
    <rect id="Rectangle_8405" data-name="Rectangle 8405" width="34" height="34" rx="17" fill="#e0e0e0" opacity="0.1"/>
    <g id="Group_46893" data-name="Group 46893" transform="translate(-259.101 -729.758)">
      <path id="Path_118497" data-name="Path 118497" d="M17.155,4.687a1.544,1.544,0,0,0-2.108-.564A1.543,1.543,0,0,1,12.733,2.79,1.541,1.541,0,0,0,11.19,1.25H9.011A1.541,1.541,0,0,0,7.468,2.79,1.543,1.543,0,0,1,5.154,4.124a1.545,1.545,0,0,0-2.108.564L1.957,6.571a1.538,1.538,0,0,0,.565,2.1,1.539,1.539,0,0,1,0,2.667,1.538,1.538,0,0,0-.565,2.1l1.09,1.884a1.545,1.545,0,0,0,2.108.564,1.543,1.543,0,0,1,2.314,1.334,1.541,1.541,0,0,0,1.543,1.54H11.19a1.542,1.542,0,0,0,1.543-1.54,1.543,1.543,0,0,1,2.314-1.334,1.544,1.544,0,0,0,2.108-.564l1.09-1.884a1.538,1.538,0,0,0-.565-2.1,1.539,1.539,0,0,1,0-2.667,1.538,1.538,0,0,0,.565-2.1Z" transform="translate(266.25 736.75)" fill="#e0e0e0"/>
      <path id="Path_118498" data-name="Path 118498" d="M13.888,11.461a2.444,2.444,0,1,1-2.444-2.444A2.444,2.444,0,0,1,13.888,11.461Z" transform="translate(264.907 735.311)" fill="#212121"/>
    </g>
  </g>
</svg>
