<svg width="45" height="45" viewBox="0 0 45 45" fill="none" xmlns="http://www.w3.org/2000/svg">
<g filter="url(#filter0_b_2835_4584)">
<circle cx="22.5" cy="22.5" r="22.5" fill="#0166FF"/>
</g>
<path fill-rule="evenodd" clip-rule="evenodd" d="M27.8075 18.9848H31.3334C31.3334 16.1538 29.6371 14.5 26.763 14.5H19.2371C16.363 14.5 14.6667 16.1538 14.6667 18.9487V25.0513C14.6667 27.8462 16.363 29.5 19.2371 29.5H26.763C29.6371 29.5 31.3334 27.8462 31.3334 25.0513V24.7913H27.8075C26.1711 24.7913 24.8445 23.4979 24.8445 21.9025C24.8445 20.3071 26.1711 19.0137 27.8075 19.0137V18.9848ZM27.8075 20.227H30.7112C31.0548 20.227 31.3334 20.4986 31.3334 20.8337V22.9425C31.3294 23.2759 31.0532 23.5452 30.7112 23.5491H27.8742C27.0457 23.56 26.3213 23.007 26.1334 22.2203C26.0393 21.7319 26.1714 21.228 26.4943 20.8435C26.8172 20.4591 27.2979 20.2334 27.8075 20.227ZM27.9334 22.4441H28.2075C28.5593 22.4441 28.8445 22.1661 28.8445 21.8231C28.8445 21.48 28.5593 21.202 28.2075 21.202H27.9334C27.7651 21.2 27.6031 21.2639 27.4834 21.3792C27.3637 21.4945 27.2964 21.6518 27.2964 21.8158C27.2964 22.16 27.5804 22.4402 27.9334 22.4441ZM18.6149 18.9848H23.3186C23.6704 18.9848 23.9556 18.7068 23.9556 18.3637C23.9556 18.0207 23.6704 17.7427 23.3186 17.7427H18.6149C18.2659 17.7426 17.9819 18.0163 17.9779 18.3565C17.9778 18.7007 18.2619 18.9809 18.6149 18.9848Z" fill="white"/>
<defs>
<filter id="filter0_b_2835_4584" x="-100" y="-100" width="245" height="245" filterUnits="userSpaceOnUse" color-interpolation-filters="sRGB">
<feFlood flood-opacity="0" result="BackgroundImageFix"/>
<feGaussianBlur in="BackgroundImageFix" stdDeviation="50"/>
<feComposite in2="SourceAlpha" operator="in" result="effect1_backgroundBlur_2835_4584"/>
<feBlend mode="normal" in="SourceGraphic" in2="effect1_backgroundBlur_2835_4584" result="shape"/>
</filter>
</defs>
</svg>
