<svg width="20" height="20" viewBox="0 0 20 20" fill="none" xmlns="http://www.w3.org/2000/svg">
<path d="M5.38241 8.4873C5.55669 8.4873 5.69548 8.35293 5.69548 8.18418C5.69548 5.93418 7.58681 4.10605 9.90741 4.10605C12.2312 4.10605 14.1193 5.9373 14.1193 8.18418V10.3373C14.1193 10.5061 14.2581 10.6404 14.4324 10.6404C14.6067 10.6404 14.7455 10.5061 14.7455 10.3373V8.1873C14.7455 5.60293 12.5734 3.50293 9.90741 3.50293C7.24147 3.50293 5.06934 5.60293 5.06934 8.1873C5.06934 8.35293 5.21135 8.4873 5.38241 8.4873Z" fill="#0166FF"/>
<path d="M13.7256 10.2686V8.29043C13.7256 7.30605 13.3286 6.37793 12.6089 5.68105C11.8891 4.98105 10.9305 4.59668 9.91064 4.59668C7.80629 4.59668 6.09569 6.25293 6.09569 8.29043V8.37168C6.09569 8.6748 5.84072 8.92168 5.52442 8.92168H5.38241C5.20812 8.92168 5.06934 9.05605 5.06934 9.2248C5.06934 9.39355 5.20812 9.52793 5.38241 9.52793H5.52442C6.18284 9.52793 6.71861 9.00918 6.71861 8.37168V8.29043C6.71861 6.5873 8.14841 5.20293 9.90741 5.20293C10.7595 5.20293 11.5599 5.5248 12.1602 6.10918C12.4574 6.3948 12.6932 6.73464 12.8538 7.10905C13.0145 7.48345 13.0969 7.88499 13.0962 8.29043V10.2686C13.0962 10.8623 13.4674 11.5811 14.5131 11.6592H14.5389C14.7003 11.6592 14.8391 11.5373 14.852 11.3779C14.8649 11.2123 14.7358 11.0654 14.5647 11.0529C13.8063 10.9998 13.7256 10.4873 13.7256 10.2686Z" fill="#0166FF"/>
<path d="M14.6199 13.2439H14.5328C12.7447 13.2439 11.2859 11.8346 11.2859 10.1002V8.25644C11.2859 7.89707 11.1406 7.56269 10.8824 7.3127C10.6242 7.05957 10.2789 6.91895 9.90771 6.91895C9.53654 6.91895 9.1912 7.05957 8.93299 7.30957C8.67156 7.56269 8.52955 7.89707 8.52955 8.25332C8.52955 9.81582 7.21595 11.0877 5.59895 11.0877H5.37948C5.20519 11.0877 5.06641 11.2221 5.06641 11.3908C5.06641 11.5596 5.20519 11.6939 5.37948 11.6939H5.59895C7.55806 11.6939 9.15247 10.1502 9.15247 8.25332C9.15247 8.05957 9.22993 7.87519 9.37517 7.73769C9.65274 7.46582 10.153 7.45957 10.437 7.74082C10.579 7.87519 10.6565 8.05957 10.6565 8.25644V10.1002C10.6565 12.1658 12.3929 13.8471 14.5263 13.8471H14.6135C14.7877 13.8471 14.9265 13.7127 14.9265 13.5439C14.9265 13.3752 14.791 13.2439 14.6199 13.2439Z" fill="#0166FF"/>
<path d="M14.5451 12.2127C13.409 12.2127 12.4827 11.3158 12.4827 10.2158V8.22207C12.4827 7.55957 12.2148 6.93144 11.7274 6.45957C11.2401 5.9877 10.5946 5.73145 9.91034 5.73145C9.22288 5.73145 8.57737 5.99082 8.09001 6.46269C7.61696 6.92097 7.34717 7.53983 7.338 8.18769C7.32186 9.21894 6.50529 10.0283 5.47571 10.0283H5.38534C5.21105 10.0283 5.07227 10.1627 5.07227 10.3314C5.07227 10.5002 5.21105 10.6346 5.38534 10.6346H5.47571C6.85064 10.6346 7.94477 9.56269 7.96414 8.19707C7.97059 7.70644 8.17393 7.24082 8.53541 6.89082C8.90335 6.53457 9.39394 6.3377 9.91357 6.3377C10.4332 6.3377 10.9206 6.53457 11.2885 6.88769C11.4698 7.06274 11.6135 7.27073 11.7116 7.49972C11.8096 7.72871 11.86 7.97419 11.8598 8.22207V10.2158C11.8598 11.6502 13.0669 12.8189 14.5483 12.8189C14.7226 12.8189 14.8614 12.6846 14.8614 12.5158C14.8595 12.4355 14.8254 12.359 14.7664 12.3024C14.7074 12.2459 14.6281 12.2137 14.5451 12.2127Z" fill="#0166FF"/>
<path d="M5.38241 12.8184C8.05158 12.8184 10.2205 10.7152 10.2205 8.13398V8.07461C10.2205 7.90586 10.0817 7.77148 9.90741 7.77148C9.73313 7.77148 9.59434 7.90586 9.59434 8.07461V8.13398C9.59434 10.384 7.70301 12.2121 5.38241 12.2121C5.29938 12.2121 5.21974 12.244 5.16103 12.3009C5.10232 12.3577 5.06934 12.4348 5.06934 12.5152C5.06934 12.5956 5.10232 12.6727 5.16103 12.7296C5.21974 12.7864 5.29938 12.8184 5.38241 12.8184Z" fill="#0166FF"/>
<path d="M10.5075 11.1596C10.5285 11.1252 10.5422 11.0871 10.5479 11.0475C10.5535 11.0079 10.5511 10.9677 10.5406 10.929C10.53 10.8904 10.5117 10.8541 10.4867 10.8224C10.4616 10.7906 10.4303 10.764 10.3946 10.744C10.3226 10.7038 10.2371 10.6927 10.1567 10.7132C10.0763 10.7337 10.0075 10.784 9.96532 10.8534C9.51497 11.5951 8.87266 12.2103 8.10177 12.6383C7.33088 13.0663 6.45805 13.2923 5.56942 13.294C5.39513 13.294 5.25635 13.4284 5.25635 13.5971C5.25635 13.7659 5.39513 13.9003 5.56942 13.9003C7.59631 13.9034 9.48765 12.8534 10.5075 11.1596Z" fill="#0166FF"/>
<path d="M10.9174 12.4967C10.9435 12.466 10.9631 12.4306 10.9751 12.3926C10.987 12.3545 10.9909 12.3146 10.9867 12.275C10.9825 12.2354 10.9702 12.1971 10.9506 12.1622C10.9309 12.1273 10.9042 12.0965 10.8722 12.0717C10.8405 12.0463 10.804 12.0273 10.7647 12.0158C10.7254 12.0043 10.6841 12.0004 10.6432 12.0045C10.6024 12.0086 10.5628 12.0205 10.5267 12.0395C10.4907 12.0586 10.4589 12.0844 10.4332 12.1154C9.34555 13.3998 7.81247 14.1873 6.11156 14.3342C5.9405 14.3498 5.8114 14.4967 5.82753 14.6623C5.84045 14.8185 5.97923 14.9373 6.14061 14.9373H6.16965C8.03517 14.7748 9.72317 13.9092 10.9174 12.4967Z" fill="#0166FF"/>
<path d="M11.6758 13.3218C11.7888 13.1937 11.7726 13.003 11.6403 12.8937C11.508 12.7843 11.3111 12.7999 11.1981 12.928C10.1234 14.1468 8.64838 14.9999 7.04106 15.3343C6.87323 15.3687 6.76349 15.5312 6.80222 15.6937C6.81936 15.7724 6.86808 15.8413 6.93769 15.8853C7.00729 15.9292 7.09207 15.9446 7.17339 15.928C8.92758 15.5579 10.5087 14.6427 11.6758 13.3218Z" fill="#0166FF"/>
<path d="M12.4056 14.0654C12.5186 13.9373 12.5024 13.7467 12.3701 13.6373C12.2378 13.5279 12.0409 13.5436 11.9279 13.6717C11.0042 14.7227 9.79075 15.4976 8.42928 15.9061C8.26467 15.9561 8.17107 16.1248 8.22272 16.2842C8.26467 16.4154 8.38732 16.4967 8.52288 16.4967C8.55515 16.4967 8.5842 16.4936 8.61647 16.4842C10.085 16.0436 11.3954 15.2092 12.4056 14.0654ZM13.7386 14.4092C13.4158 14.3686 13.0995 14.2873 12.8026 14.1623C12.7649 14.1464 12.7243 14.138 12.6832 14.1374C12.6422 14.1368 12.6013 14.1442 12.5632 14.159C12.5251 14.1738 12.4904 14.1958 12.4611 14.2238C12.4318 14.2517 12.4086 14.285 12.3927 14.3217C12.3249 14.4748 12.3959 14.6529 12.5573 14.7186C12.9091 14.8654 13.2835 14.9654 13.6643 15.0123C13.6773 15.0154 13.6902 15.0154 13.7031 15.0154C13.7834 15.0156 13.8607 14.986 13.9192 14.9326C13.9776 14.8793 14.0127 14.8062 14.0173 14.7286C14.0218 14.6509 13.9955 14.5745 13.9436 14.5151C13.8918 14.4557 13.8184 14.4178 13.7386 14.4092ZM12.8155 15.3217C12.5024 15.2592 12.199 15.1561 11.9182 15.0154C11.7633 14.9373 11.5761 14.9967 11.4954 15.1467C11.4147 15.2967 11.4761 15.4779 11.631 15.5561C11.9667 15.7248 12.3217 15.8467 12.6929 15.9186C12.7154 15.9217 12.7348 15.9248 12.7542 15.9248C12.8994 15.9248 13.0317 15.8248 13.0608 15.6811C13.0693 15.6419 13.0696 15.6014 13.0619 15.5621C13.0541 15.5227 13.0384 15.4853 13.0155 15.4518C12.9927 15.4184 12.9633 15.3897 12.929 15.3674C12.8946 15.345 12.8561 15.3295 12.8155 15.3217Z" fill="#0166FF"/>
<path d="M10.001 18.009C14.5615 18.009 18.2732 14.4152 18.2732 9.99961C18.2732 5.58398 14.5615 1.99024 10.001 1.99024C5.43725 1.98711 1.72559 5.58086 1.72559 9.99961C1.72559 14.4152 5.43725 18.009 10.001 18.009ZM10.001 2.59336C14.2194 2.59336 17.6503 5.91523 17.6503 9.99961C17.6503 14.084 14.2194 17.4058 10.001 17.4058C5.7826 17.4027 2.35173 14.0809 2.35173 9.99961C2.35173 5.91523 5.7826 2.59336 10.001 2.59336Z" fill="#0166FF"/>
<path d="M19.7223 12.3625C19.6826 12.3514 19.6411 12.348 19.6001 12.3525C19.5591 12.357 19.5195 12.3694 19.4835 12.3888C19.4474 12.4083 19.4158 12.4345 19.3903 12.4659C19.3648 12.4974 19.346 12.5334 19.335 12.5719C18.1537 16.5875 14.3129 19.3937 9.99771 19.3937C6.31832 19.3937 3.00686 17.4062 1.35759 14.2687L1.76749 14.4437C1.92564 14.5125 2.10961 14.4437 2.18062 14.2906C2.25162 14.1375 2.18062 13.9594 2.02247 13.8906L0.867008 13.3937C0.786319 13.3594 0.695948 13.3594 0.61526 13.3906C0.534572 13.425 0.473248 13.4875 0.444201 13.5656L0.0181658 14.7187C0.00434657 14.7563 -0.00168877 14.7961 0.000405304 14.8359C0.00249938 14.8757 0.0126817 14.9147 0.0303695 14.9507C0.0480572 14.9867 0.072903 15.019 0.103485 15.0457C0.134066 15.0724 0.169783 15.0929 0.20859 15.1062C0.247133 15.1201 0.288146 15.1264 0.329237 15.1248C0.370328 15.1232 0.410675 15.1137 0.447926 15.0968C0.485178 15.0799 0.518588 15.0561 0.546209 15.0266C0.573829 14.9971 0.595108 14.9625 0.608805 14.925L0.770182 14.4875C1.62642 16.1465 2.94365 17.5413 4.57378 18.5151C6.2039 19.4889 8.08227 20.0032 9.99771 20C14.5937 20 18.6798 17.0125 19.9385 12.7375C19.9607 12.66 19.9504 12.5772 19.9099 12.507C19.8694 12.4368 19.802 12.3849 19.7223 12.3625ZM19.7965 4.89687C19.7186 4.86987 19.6328 4.87376 19.5579 4.90771C19.4829 4.94166 19.4248 5.00291 19.3963 5.07812L19.2349 5.5125C17.4888 2.14062 13.945 0 9.99771 0C5.40492 0 1.31886 2.98437 0.0665788 7.25937C0.0181658 7.42187 0.114992 7.58749 0.282824 7.63437C0.311872 7.64374 0.340919 7.64687 0.369967 7.64687C0.505524 7.64687 0.631398 7.55937 0.670128 7.42812C1.84495 3.40937 5.68249 0.60625 9.99771 0.60625C13.6836 0.60625 16.9982 2.59687 18.6443 5.7375L18.2312 5.55937C18.073 5.49062 17.889 5.55937 17.818 5.7125C17.747 5.86562 17.818 6.04375 17.9762 6.1125L19.1316 6.60937C19.1736 6.62812 19.2156 6.63437 19.2575 6.63437C19.2995 6.63437 19.3414 6.625 19.3802 6.60937C19.4608 6.575 19.5222 6.5125 19.5512 6.43437L19.9805 5.28125C19.9948 5.24433 20.0013 5.20504 19.9998 5.16566C19.9982 5.12627 19.9886 5.08757 19.9715 5.05181C19.9544 5.01604 19.9301 4.98393 19.9001 4.95733C19.87 4.93074 19.8348 4.91018 19.7965 4.89687Z" fill="#0166FF"/>
</svg>
