<svg width="48" height="48" viewBox="0 0 48 48" fill="none" xmlns="http://www.w3.org/2000/svg">
<rect x="0.5" y="0.5" width="47" height="47" rx="14.5" stroke="url(#paint0_linear_246_1623)"/>
<path fill-rule="evenodd" clip-rule="evenodd" d="M32.8064 19.6236L32.184 18.5435C31.6574 17.6296 30.4905 17.3143 29.5753 17.8387V17.8387C29.1397 18.0953 28.6198 18.1682 28.1305 18.0411C27.6411 17.914 27.2224 17.5975 26.9666 17.1614C26.8021 16.8841 26.7137 16.5684 26.7103 16.246V16.246C26.7251 15.7292 26.5302 15.2284 26.1698 14.8577C25.8094 14.4869 25.3143 14.2779 24.7973 14.2781H23.5433C23.0367 14.2781 22.5511 14.4799 22.1938 14.8389C21.8364 15.198 21.6369 15.6846 21.6394 16.1911V16.1911C21.6244 17.2369 20.7722 18.0768 19.7263 18.0767C19.404 18.0734 19.0882 17.9849 18.811 17.8204V17.8204C17.8958 17.296 16.7289 17.6113 16.2023 18.5252L15.5341 19.6236C15.0082 20.5364 15.3192 21.7026 16.2298 22.2323V22.2323C16.8217 22.574 17.1863 23.2056 17.1863 23.8891C17.1863 24.5725 16.8217 25.2041 16.2298 25.5458V25.5458C15.3203 26.0719 15.009 27.2353 15.5341 28.1454V28.1454L16.1657 29.2346C16.4124 29.6798 16.8264 30.0083 17.3159 30.1474C17.8055 30.2866 18.3304 30.2249 18.7744 29.976V29.976C19.2108 29.7213 19.7309 29.6516 20.2191 29.7822C20.7072 29.9128 21.123 30.233 21.3739 30.6717C21.5385 30.9489 21.6269 31.2646 21.6302 31.587V31.587C21.6302 32.6435 22.4867 33.5 23.5433 33.5H24.7973C25.8502 33.5001 26.7053 32.6491 26.7103 31.5962V31.5962C26.7079 31.088 26.9086 30.6 27.2679 30.2407C27.6272 29.8814 28.1152 29.6807 28.6233 29.6831C28.9449 29.6917 29.2594 29.7798 29.5387 29.9394V29.9394C30.4515 30.4653 31.6177 30.1544 32.1474 29.2438V29.2438L32.8064 28.1454C33.0615 27.7075 33.1315 27.186 33.001 26.6964C32.8704 26.2067 32.55 25.7894 32.1108 25.5367V25.5367C31.6715 25.284 31.3511 24.8666 31.2206 24.3769C31.09 23.8873 31.16 23.3658 31.4151 22.928C31.581 22.6383 31.8211 22.3982 32.1108 22.2323V22.2323C33.0159 21.7029 33.3262 20.5435 32.8064 19.6328V19.6328V19.6236Z" stroke="white" stroke-width="1.5" stroke-linecap="round" stroke-linejoin="round"/>
<circle cx="24.1747" cy="23.8891" r="2.63616" stroke="white" stroke-width="1.5" stroke-linecap="round" stroke-linejoin="round"/>
<defs>
<linearGradient id="paint0_linear_246_1623" x1="24" y1="0" x2="24" y2="48" gradientUnits="userSpaceOnUse">
<stop stop-color="#2F2F2F"/>
<stop offset="0.5" stop-color="#191919"/>
<stop offset="1" stop-color="#151515"/>
</linearGradient>
</defs>
</svg>
