<svg width="45" height="45" viewBox="0 0 45 45" fill="none" xmlns="http://www.w3.org/2000/svg">
<g filter="url(#filter0_b_224_1878)">
<circle cx="22.5" cy="22.5" r="22.5" fill="url(#paint0_radial_224_1878)" fill-opacity="0.1"/>
<circle cx="22.5" cy="22.5" r="22.25" stroke="#2D2D2D" stroke-width="0.5"/>
</g>
<path fill-rule="evenodd" clip-rule="evenodd" d="M27.8077 18.9848H31.3337C31.3337 16.1538 29.6374 14.5 26.7633 14.5H19.2374C16.3633 14.5 14.667 16.1538 14.667 18.9487V25.0513C14.667 27.8462 16.3633 29.5 19.2374 29.5H26.7633C29.6374 29.5 31.3337 27.8462 31.3337 25.0513V24.7913H27.8077C26.1713 24.7913 24.8448 23.4979 24.8448 21.9025C24.8448 20.3071 26.1713 19.0137 27.8077 19.0137V18.9848ZM27.8077 20.227H30.7114C31.0551 20.227 31.3337 20.4986 31.3337 20.8337V22.9425C31.3297 23.2759 31.0534 23.5452 30.7114 23.5491H27.8744C27.046 23.56 26.3216 23.007 26.1337 22.2203C26.0396 21.7319 26.1717 21.228 26.4946 20.8435C26.8174 20.4591 27.2981 20.2334 27.8077 20.227ZM27.9337 22.4441H28.2077C28.5596 22.4441 28.8448 22.1661 28.8448 21.8231C28.8448 21.48 28.5596 21.202 28.2077 21.202H27.9337C27.7654 21.2 27.6033 21.2639 27.4836 21.3792C27.364 21.4945 27.2966 21.6518 27.2966 21.8158C27.2966 22.16 27.5806 22.4402 27.9337 22.4441ZM18.6151 18.9848H23.3188C23.6707 18.9848 23.9559 18.7068 23.9559 18.3637C23.9559 18.0207 23.6707 17.7427 23.3188 17.7427H18.6151C18.2662 17.7426 17.9822 18.0163 17.9781 18.3565C17.9781 18.7007 18.2621 18.9809 18.6151 18.9848Z" fill="white"/>
<defs>
<filter id="filter0_b_224_1878" x="-100" y="-100" width="245" height="245" filterUnits="userSpaceOnUse" color-interpolation-filters="sRGB">
<feFlood flood-opacity="0" result="BackgroundImageFix"/>
<feGaussianBlur in="BackgroundImageFix" stdDeviation="50"/>
<feComposite in2="SourceAlpha" operator="in" result="effect1_backgroundBlur_224_1878"/>
<feBlend mode="normal" in="SourceGraphic" in2="effect1_backgroundBlur_224_1878" result="shape"/>
</filter>
<radialGradient id="paint0_radial_224_1878" cx="0" cy="0" r="1" gradientUnits="userSpaceOnUse" gradientTransform="translate(22.5 22.5) rotate(90) scale(22.5)">
<stop stop-color="#D9D9D9"/>
<stop offset="1" stop-color="#1C1C1C"/>
</radialGradient>
</defs>
</svg>
