<svg width="21" height="20" viewBox="0 0 21 20" fill="none" xmlns="http://www.w3.org/2000/svg">
<path d="M16.0142 1.66947C15.9887 1.67249 15.9635 1.67753 15.9388 1.68455L9.89439 3.30494C9.82777 3.31571 9.76415 3.34034 9.70765 3.37724C9.65114 3.41413 9.60301 3.46247 9.56635 3.51914C9.5297 3.5758 9.50534 3.63952 9.49485 3.70619C9.48436 3.77285 9.48798 3.84097 9.50547 3.90615C9.52296 3.97133 9.55392 4.03212 9.59637 4.08458C9.63882 4.13704 9.6918 4.18002 9.7519 4.21072C9.81199 4.24143 9.87786 4.25918 9.94525 4.26284C10.0126 4.2665 10.08 4.25597 10.1431 4.23195L15.7278 2.73215L16.2252 4.51835H2.65915C2.53123 4.51836 2.40855 4.56918 2.31809 4.65964C2.22764 4.75009 2.17682 4.87277 2.1768 5.0007V12.5374C2.1634 12.602 2.1634 12.6687 2.1768 12.7334V17.8508C2.17628 17.9712 2.22085 18.0875 2.30175 18.1768C2.38264 18.2661 2.494 18.3218 2.61393 18.3331C2.629 18.3338 2.64409 18.3338 2.65915 18.3331H18.5013C18.6292 18.3331 18.7519 18.2823 18.8424 18.1918C18.9328 18.1014 18.9836 17.9787 18.9837 17.8508V5.0007C18.9836 4.87277 18.9328 4.75009 18.8424 4.65964C18.7519 4.56918 18.6292 4.51836 18.5013 4.51835H17.2276L16.5267 2.01616C16.4955 1.90746 16.427 1.8132 16.3333 1.74983C16.2397 1.68646 16.1267 1.65802 16.0142 1.66947ZM3.1415 5.48305H18.019V17.3684H7.20378C8.59606 16.0129 10.1173 14.803 11.6278 13.9468C13.4222 12.9297 15.1939 12.4222 16.7151 12.6731C16.7799 12.6889 16.8473 12.6912 16.913 12.6796C16.9787 12.6681 17.0413 12.6431 17.0968 12.6062C17.1524 12.5693 17.1996 12.5212 17.2357 12.4651C17.2717 12.409 17.2957 12.346 17.3062 12.2801C17.3166 12.2142 17.3133 12.1469 17.2964 12.0824C17.2795 12.0178 17.2495 11.9575 17.2081 11.9052C17.1667 11.8529 17.1149 11.8097 17.056 11.7784C16.9971 11.7472 16.9324 11.7284 16.8658 11.7234C16.406 11.6476 15.9445 11.6245 15.4715 11.6556C14.0527 11.7491 12.5849 12.2911 11.153 13.1027C9.28677 14.1605 7.46872 15.6936 5.85471 17.3684H3.1415V12.8464C4.20015 11.9021 5.22917 11.6395 6.38228 11.7084C7.58247 11.78 8.91807 12.2483 10.3767 12.771C10.4366 12.7923 10.5001 12.8016 10.5636 12.7983C10.627 12.7951 10.6892 12.7794 10.7466 12.7521C10.804 12.7248 10.8555 12.6864 10.898 12.6393C10.9406 12.5921 10.9735 12.537 10.9947 12.4771C11.016 12.4172 11.0253 12.3537 11.022 12.2903C11.0188 12.2268 11.0031 12.1646 10.9758 12.1072C10.9485 12.0498 10.9102 11.9984 10.863 11.9558C10.8158 11.9132 10.7607 11.8804 10.7008 11.8591C9.24184 11.3363 7.8357 10.8273 6.43504 10.7437C5.31598 10.6769 4.19731 10.9203 3.1415 11.633V5.48305ZM13.9642 6.53819C12.7352 6.53819 11.7333 7.54823 11.7333 8.77659C11.7333 10.0049 12.7352 11.0075 13.9642 11.0075C15.1932 11.0075 16.2026 10.0049 16.2026 8.77659C16.2026 7.54823 15.1932 6.53819 13.9642 6.53819ZM13.9642 7.50288C14.6717 7.50288 15.2379 8.06946 15.2379 8.77659C15.2379 9.48372 14.6717 10.0428 13.9642 10.0428C13.2567 10.0428 12.698 9.48372 12.698 8.77659C12.698 8.06946 13.2567 7.50288 13.9642 7.50288Z" fill="url(#paint0_linear_5990_7264)"/>
<defs>
<linearGradient id="paint0_linear_5990_7264" x1="4.45996" y1="3.56093" x2="15.815" y2="15.9731" gradientUnits="userSpaceOnUse">
<stop stop-color="#FFD600"/>
<stop offset="0.24" stop-color="#FF423E"/>
<stop offset="0.5" stop-color="#0166FF"/>
<stop offset="0.73" stop-color="#8904F9"/>
<stop offset="1" stop-color="#01FFE3"/>
</linearGradient>
</defs>
</svg>
