<svg id="icon_download" xmlns="http://www.w3.org/2000/svg" width="30" height="30" viewBox="0 0 30 30">
  <rect id="icon_trim" data-name="icon trim" width="30" height="30" fill="none"/>
  <g id="download-1-1" transform="translate(6.806 8.152)">
    <path id="Path_118003" data-name="Path 118003" d="M14.081,17.251v-3.6a.654.654,0,0,1,1.308,0v3.6A2.289,2.289,0,0,1,13.1,19.54H3.289A2.289,2.289,0,0,1,1,17.251v-3.6a.654.654,0,0,1,1.308,0v3.6a.981.981,0,0,0,.981.981H13.1A.981.981,0,0,0,14.081,17.251Z" transform="translate(0 -6.152)" fill="#212121" stroke="#212121" stroke-width="0.6" fill-rule="evenodd"/>
    <path id="Path_118004" data-name="Path 118004" d="M10.578,8.577V1.654a.654.654,0,0,0-1.308,0V8.577L7.117,6.424a.654.654,0,0,0-.925.925l3.27,3.27a.654.654,0,0,0,.925,0l3.27-3.27a.654.654,0,1,0-.925-.925Z" transform="translate(-1.73 -0.692)" fill="#212121" stroke="#212121" stroke-width="0.6"/>
  </g>
</svg>
