<svg width="20" height="20" viewBox="0 0 20 20" fill="none" xmlns="http://www.w3.org/2000/svg">
<path d="M6.6001 11.2256L6.60016 10.7256H6.6001V11.2256ZM8.71631 16.2012L9.21631 16.2012V16.2012H8.71631ZM6.6001 18.334V18.834H6.60016L6.6001 18.334ZM3.78271 18.334L3.78261 18.834H3.78271V18.334ZM1.6665 16.2012H1.1665V16.2012L1.6665 16.2012ZM3.78271 11.2256V10.7256H3.78261L3.78271 11.2256ZM18.3335 16.2012L18.8335 16.2012V16.2012H18.3335ZM13.3999 18.334L13.3999 18.834H13.3999V18.334ZM11.2837 16.2012H10.7837V16.2012L11.2837 16.2012ZM13.3999 11.2256V10.7256H13.3999L13.3999 11.2256ZM6.6001 1.66797L6.60016 1.16797H6.6001V1.66797ZM8.71631 3.80176H9.21631V3.80167L8.71631 3.80176ZM6.6001 8.77637V9.27637H6.60016L6.6001 8.77637ZM3.78271 8.77637L3.78261 9.27637H3.78271V8.77637ZM1.6665 3.80176L1.1665 3.80167V3.80176H1.6665ZM3.78271 1.66797V1.16797H3.78261L3.78271 1.66797ZM18.3335 3.80176H18.8335V3.80167L18.3335 3.80176ZM13.3999 8.77637L13.3999 9.27637H13.3999V8.77637ZM11.2837 3.80176L10.7837 3.80167V3.80176H11.2837ZM13.3999 1.66797V1.16797H13.3999L13.3999 1.66797ZM6.6001 11.2256L6.60004 11.7256C7.49447 11.7257 8.21631 12.4489 8.21631 13.3604H8.71631H9.21631C9.21631 11.9053 8.05548 10.7258 6.60016 10.7256L6.6001 11.2256ZM8.71631 13.3604H8.21631V16.2012H8.71631H9.21631V13.3604H8.71631ZM8.71631 16.2012L8.21631 16.2011C8.21626 17.105 7.49374 17.8339 6.60004 17.834L6.6001 18.334L6.60016 18.834C8.05614 18.8338 9.21623 17.6471 9.21631 16.2012L8.71631 16.2012ZM6.6001 18.334V17.834H3.78271V18.334V18.834H6.6001V18.334ZM3.78271 18.334L3.78282 17.834C2.89619 17.8338 2.16655 17.1036 2.1665 16.2011L1.6665 16.2012L1.1665 16.2012C1.16658 17.6484 2.33641 18.8337 3.78261 18.834L3.78271 18.334ZM1.6665 16.2012H2.1665V13.3604H1.6665H1.1665V16.2012H1.6665ZM1.6665 13.3604H2.1665C2.1665 12.4503 2.89544 11.7258 3.78282 11.7256L3.78271 11.2256L3.78261 10.7256C2.33707 10.7259 1.1665 11.9041 1.1665 13.3604H1.6665ZM3.78271 11.2256V11.7256H6.6001V11.2256V10.7256H3.78271V11.2256ZM16.2163 11.2256V11.7256C17.104 11.7256 17.8335 12.4503 17.8335 13.3604H18.3335H18.8335C18.8335 11.9037 17.6619 10.7256 16.2163 10.7256V11.2256ZM18.3335 13.3604H17.8335V16.2012H18.3335H18.8335V13.3604H18.3335ZM18.3335 16.2012L17.8335 16.2011C17.8334 17.1035 17.1033 17.834 16.2163 17.834V18.334V18.834C17.6626 18.834 18.8334 17.6487 18.8335 16.2012L18.3335 16.2012ZM16.2163 18.334V17.834H13.3999V18.334V18.834H16.2163V18.334ZM13.3999 18.334L13.3999 17.834C12.5062 17.834 11.7837 17.1051 11.7837 16.2011L11.2837 16.2012L10.7837 16.2012C10.7838 17.6471 11.9437 18.834 13.3999 18.834L13.3999 18.334ZM11.2837 16.2012H11.7837V13.3604H11.2837H10.7837V16.2012H11.2837ZM11.2837 13.3604H11.7837C11.7837 12.4487 12.5055 11.7256 13.3999 11.7256L13.3999 11.2256L13.3999 10.7256C11.9444 10.7256 10.7837 11.9053 10.7837 13.3604H11.2837ZM13.3999 11.2256V11.7256H16.2163V11.2256V10.7256H13.3999V11.2256ZM6.6001 1.66797L6.60004 2.16797C7.49342 2.16808 8.21615 2.89704 8.21631 3.80184L8.71631 3.80176L9.21631 3.80167C9.21606 2.35532 8.05628 1.16814 6.60016 1.16797L6.6001 1.66797ZM8.71631 3.80176H8.21631V6.64258H8.71631H9.21631V3.80176H8.71631ZM8.71631 6.64258H8.21631C8.21631 7.55375 7.49477 8.27626 6.60004 8.27637L6.6001 8.77637L6.60016 9.27637C8.05518 9.27619 9.21631 8.0979 9.21631 6.64258H8.71631ZM6.6001 8.77637V8.27637H3.78271V8.77637V9.27637H6.6001V8.77637ZM3.78271 8.77637L3.78282 8.27637C2.89515 8.27618 2.1665 7.55235 2.1665 6.64258H1.6665H1.1665C1.1665 8.09917 2.33737 9.27606 3.78261 9.27637L3.78271 8.77637ZM1.6665 6.64258H2.1665V3.80176H1.6665H1.1665V6.64258H1.6665ZM1.6665 3.80176L2.1665 3.80184C2.16666 2.89844 2.8965 2.16816 3.78282 2.16797L3.78271 1.66797L3.78261 1.16797C2.33626 1.16828 1.16675 2.35406 1.1665 3.80167L1.6665 3.80176ZM3.78271 1.66797V2.16797H6.6001V1.66797V1.16797H3.78271V1.66797ZM16.2163 1.66797V2.16797C17.103 2.16797 17.8333 2.89849 17.8335 3.80184L18.3335 3.80176L18.8335 3.80167C18.8332 2.35371 17.6628 1.16797 16.2163 1.16797V1.66797ZM18.3335 3.80176H17.8335V6.64258H18.3335H18.8335V3.80176H18.3335ZM18.3335 6.64258H17.8335C17.8335 7.55231 17.1043 8.27637 16.2163 8.27637V8.77637V9.27637C17.6616 9.27637 18.8335 8.09952 18.8335 6.64258H18.3335ZM16.2163 8.77637V8.27637H13.3999V8.77637V9.27637H16.2163V8.77637ZM13.3999 8.77637L13.3999 8.27637C12.5052 8.27636 11.7837 7.55388 11.7837 6.64258H11.2837H10.7837C10.7837 8.09793 11.9447 9.27635 13.3999 9.27637L13.3999 8.77637ZM11.2837 6.64258H11.7837V3.80176H11.2837H10.7837V6.64258H11.2837ZM11.2837 3.80176L11.7837 3.80184C11.7838 2.89691 12.5065 2.16798 13.3999 2.16797L13.3999 1.66797L13.3999 1.16797C11.9436 1.16798 10.7839 2.3553 10.7837 3.80167L11.2837 3.80176ZM13.3999 1.66797V2.16797H16.2163V1.66797V1.16797H13.3999V1.66797Z" fill="white"/>
</svg>
