<svg width="19" height="18" viewBox="0 0 19 18" fill="none" xmlns="http://www.w3.org/2000/svg">
<path d="M6.44 1H3.905V2H6.44V1ZM8.845 3.42075C8.845 2.09161 7.77886 1 6.44 1V2C7.21614 2 7.845 2.63339 7.845 3.42075H8.845ZM8.845 5.9775V3.42075H7.845V5.9775H8.845ZM6.44 8.3975C7.77747 8.3975 8.845 7.3148 8.845 5.9775H7.845C7.845 6.7702 7.21753 7.3975 6.44 7.3975V8.3975ZM3.905 8.3975H6.44V7.3975H3.905V8.3975ZM1.5 5.9775C1.5 7.31608 2.57631 8.3975 3.905 8.3975V7.3975C3.13369 7.3975 2.5 6.76892 2.5 5.9775H1.5ZM1.5 3.42075V5.9775H2.5V3.42075H1.5ZM3.905 1C2.57491 1 1.5 2.09032 1.5 3.42075H2.5C2.5 2.63468 3.13509 2 3.905 2V1ZM6.44 9.60227H3.905V10.6023H6.44V9.60227ZM8.845 12.023C8.845 10.686 7.77773 9.60227 6.44 9.60227V10.6023C7.21727 10.6023 7.845 11.2301 7.845 12.023H8.845ZM8.845 14.5798V12.023H7.845V14.5798H8.845ZM6.44 16.9998C7.77874 16.9998 8.845 15.9083 8.845 14.5798H7.845C7.845 15.3663 7.21626 15.9998 6.44 15.9998V16.9998ZM3.905 16.9998H6.44V15.9998H3.905V16.9998ZM1.5 14.5798C1.5 15.9096 2.57504 16.9998 3.905 16.9998V15.9998C3.13496 15.9998 2.5 15.365 2.5 14.5798H1.5ZM1.5 12.023V14.5798H2.5V12.023H1.5ZM3.905 9.60227C2.57605 9.60227 1.5 10.6847 1.5 12.023H2.5C2.5 11.2314 3.13395 10.6023 3.905 10.6023V9.60227ZM12.5601 2H15.0951V1H12.5601V2ZM11.1551 3.42075C11.1551 2.63339 11.7839 2 12.5601 2V1C11.2212 1 10.1551 2.09161 10.1551 3.42075H11.1551ZM11.1551 5.9775V3.42075H10.1551V5.9775H11.1551ZM12.5601 7.3975C11.7825 7.3975 11.1551 6.7702 11.1551 5.9775H10.1551C10.1551 7.3148 11.2226 8.3975 12.5601 8.3975V7.3975ZM15.0951 7.3975H12.5601V8.3975H15.0951V7.3975ZM16.5001 5.9775C16.5001 6.76892 15.8664 7.3975 15.0951 7.3975V8.3975C16.4238 8.3975 17.5001 7.31608 17.5001 5.9775H16.5001ZM16.5001 3.42075V5.9775H17.5001V3.42075H16.5001ZM15.0951 2C15.865 2 16.5001 2.63468 16.5001 3.42075H17.5001C17.5001 2.09032 16.4252 1 15.0951 1V2ZM15.0951 9.60227H12.5601V10.6023H15.0951V9.60227ZM17.5001 12.023C17.5001 10.6847 16.424 9.60227 15.0951 9.60227V10.6023C15.8661 10.6023 16.5001 11.2314 16.5001 12.023H17.5001ZM17.5001 14.5798V12.023H16.5001V14.5798H17.5001ZM15.0951 16.9998C16.425 16.9998 17.5001 15.9096 17.5001 14.5798H16.5001C16.5001 15.365 15.8651 15.9998 15.0951 15.9998V16.9998ZM12.5601 16.9998H15.0951V15.9998H12.5601V16.9998ZM10.1551 14.5798C10.1551 15.9083 11.2213 16.9998 12.5601 16.9998V15.9998C11.7838 15.9998 11.1551 15.3663 11.1551 14.5798H10.1551ZM10.1551 12.023V14.5798H11.1551V12.023H10.1551ZM12.5601 9.60227C11.2223 9.60227 10.1551 10.686 10.1551 12.023H11.1551C11.1551 11.2301 11.7828 10.6023 12.5601 10.6023V9.60227Z" fill="#616A7F"/>
</svg>
