<svg width="7" height="14" viewBox="0 0 7 14" fill="none" xmlns="http://www.w3.org/2000/svg">
<path d="M3.522 2.69V0.589999H4.418V2.69H3.522ZM1.646 2.69V0.589999H2.542V2.69H1.646ZM3.522 13.372V11.272H4.418V13.372H3.522ZM1.646 13.372V11.272H2.542V13.372H1.646ZM0.358 12V2.004H2.654C3.438 2.004 4.09133 2.08333 4.614 2.242C5.146 2.40067 5.54267 2.662 5.804 3.026C6.07467 3.39 6.21 3.87533 6.21 4.482C6.21 4.874 6.14467 5.224 6.014 5.532C5.89267 5.83067 5.706 6.08267 5.454 6.288C5.21133 6.484 4.908 6.61933 4.544 6.694V6.764C4.91733 6.82933 5.24867 6.95067 5.538 7.128C5.83667 7.30533 6.07 7.55733 6.238 7.884C6.41533 8.21067 6.504 8.63533 6.504 9.158C6.504 9.76467 6.37333 10.2827 6.112 10.712C5.86 11.132 5.496 11.454 5.02 11.678C4.544 11.8927 3.97467 12 3.312 12H0.358ZM2.906 6.26C3.67133 6.26 4.194 6.12467 4.474 5.854C4.76333 5.574 4.908 5.16333 4.908 4.622C4.908 4.07133 4.73067 3.67933 4.376 3.446C4.03067 3.20333 3.47533 3.082 2.71 3.082H1.618V6.26H2.906ZM1.618 7.31V10.936H3.074C3.84867 10.936 4.39 10.7633 4.698 10.418C5.006 10.0727 5.16 9.62 5.16 9.06C5.16 8.70533 5.09 8.39733 4.95 8.136C4.81933 7.87467 4.59533 7.674 4.278 7.534C3.96067 7.38467 3.52667 7.31 2.976 7.31H1.618Z" fill="white"/>
</svg>
