<svg width="8" height="16" viewBox="0 0 8 16" fill="none" xmlns="http://www.w3.org/2000/svg">
<path d="M4.01175 3.36V0.959999H5.03575V3.36H4.01175ZM1.86775 3.36V0.959999H2.89175V3.36H1.86775ZM4.01175 15.568V13.168H5.03575V15.568H4.01175ZM1.86775 15.568V13.168H2.89175V15.568H1.86775ZM0.39575 14V2.576H3.01975C3.91575 2.576 4.66242 2.66667 5.25975 2.848C5.86775 3.02933 6.32108 3.328 6.61975 3.744C6.92908 4.16 7.08375 4.71467 7.08375 5.408C7.08375 5.856 7.00908 6.256 6.85975 6.608C6.72108 6.94933 6.50775 7.23733 6.21975 7.472C5.94242 7.696 5.59575 7.85067 5.17975 7.936V8.016C5.60642 8.09067 5.98508 8.22933 6.31575 8.432C6.65708 8.63467 6.92375 8.92267 7.11575 9.296C7.31842 9.66933 7.41975 10.1547 7.41975 10.752C7.41975 11.4453 7.27042 12.0373 6.97175 12.528C6.68375 13.008 6.26775 13.376 5.72375 13.632C5.17975 13.8773 4.52908 14 3.77175 14H0.39575ZM3.30775 7.44C4.18242 7.44 4.77975 7.28533 5.09975 6.976C5.43042 6.656 5.59575 6.18667 5.59575 5.568C5.59575 4.93867 5.39308 4.49067 4.98775 4.224C4.59308 3.94667 3.95842 3.808 3.08375 3.808H1.83575V7.44H3.30775ZM1.83575 8.64V12.784H3.49975C4.38508 12.784 5.00375 12.5867 5.35575 12.192C5.70775 11.7973 5.88375 11.28 5.88375 10.64C5.88375 10.2347 5.80375 9.88267 5.64375 9.584C5.49442 9.28533 5.23842 9.056 4.87575 8.896C4.51308 8.72533 4.01708 8.64 3.38775 8.64H1.83575Z" fill="#091229"/>
</svg>
