<svg width="220" height="231" viewBox="0 0 220 231" fill="none" xmlns="http://www.w3.org/2000/svg">
<g id="Group 55259">
<path id="Vector" d="M197.136 0.219727H166.977V184.021H197.136C209.31 184.021 219.183 174.148 219.183 161.974V22.2668C219.183 10.0926 209.31 0.219727 197.136 0.219727Z" fill="#161C1C"/>
<path id="Vector_2" d="M197.136 184.239H166.757V0H197.136C209.414 0 219.403 9.98909 219.403 22.2669V161.974C219.403 174.252 209.414 184.239 197.136 184.239ZM167.195 183.801H197.135C209.171 183.801 218.962 174.009 218.962 161.973V22.2669C218.962 10.2307 209.17 0.43841 197.135 0.43841H167.195V183.801Z" fill="black"/>
<path id="Vector_3" d="M215.506 22.2668V161.974C215.506 174.148 205.633 184.021 193.458 184.021H120.965C108.785 184.021 98.9182 174.148 98.9182 161.974V22.2668C98.9182 10.0926 108.785 0.219727 120.965 0.219727H193.458C205.633 0.219727 215.506 10.0926 215.506 22.2668Z" fill="white"/>
<path id="Vector_4" d="M193.458 184.239H120.965C108.688 184.239 98.6984 174.25 98.6984 161.973V22.2669C98.6984 9.98909 108.688 0 120.965 0H193.458C205.736 0 215.725 9.98909 215.725 22.2669V161.974C215.725 174.252 205.736 184.239 193.458 184.239ZM120.965 0.43841C108.929 0.43841 99.1368 10.2307 99.1368 22.2669V161.974C99.1368 174.01 108.929 183.802 120.965 183.802H193.458C205.495 183.802 215.287 174.01 215.287 161.974V22.2669C215.287 10.2307 205.495 0.43841 193.458 0.43841H120.965Z" fill="black"/>
<g id="Group">
<path id="Vector_5" d="M166.979 11.3613H147.445C145.942 11.3613 144.725 10.1439 144.725 8.64112C144.725 7.13832 145.942 5.9209 147.445 5.9209H166.979C168.482 5.9209 169.699 7.13832 169.699 8.64112C169.699 10.1428 168.482 11.3613 166.979 11.3613Z" fill="#161C1C"/>
</g>
<g id="Group_2">
<path id="Vector_6" d="M200.62 56.7012C200.243 59.533 197.719 61.5916 194.858 61.5916H151.712V112.352C151.712 116.016 148.742 118.981 145.078 118.981H123.169C119.51 118.981 116.54 116.016 116.54 112.352V56.8876C116.54 53.2238 119.51 50.2539 123.169 50.2539H195.005C196.57 50.2539 197.988 50.8868 199.012 51.9143C200.208 53.1076 200.871 54.8371 200.62 56.7012Z" fill="#242B2B"/>
<path id="Vector_7" d="M145.078 119.201H123.169C119.392 119.201 116.32 116.128 116.32 112.352V56.8877C116.32 53.1088 119.392 50.0342 123.169 50.0342H195.005C196.58 50.0342 198.059 50.6463 199.167 51.7602C200.478 53.0662 201.087 54.8786 200.838 56.7312C200.452 59.6274 197.882 61.8126 194.858 61.8126H151.931V112.353C151.931 116.129 148.857 119.201 145.078 119.201ZM123.169 50.4737C119.634 50.4737 116.758 53.3516 116.758 56.8888V112.353C116.758 115.888 119.634 118.763 123.169 118.763H145.078C148.615 118.763 151.493 115.888 151.493 112.353V61.373H194.859C197.663 61.373 200.046 59.3524 200.404 56.6725C200.635 54.9568 200.071 53.2803 198.859 52.0697C197.833 51.0399 196.465 50.4726 195.007 50.4726H123.169V50.4737Z" fill="#242B2B"/>
<path id="Vector_8" d="M187.105 70.0017C192.848 64.2591 192.847 54.9486 187.105 49.2062C181.362 43.4638 172.052 43.464 166.309 49.2066C160.567 54.9492 160.567 64.2596 166.31 70.002C172.052 75.7444 181.363 75.7443 187.105 70.0017Z" fill="#242B2B"/>
<path id="Vector_9" d="M176.706 74.5265C168.575 74.5265 161.903 67.9722 161.787 59.815C161.67 51.5876 168.269 44.7974 176.496 44.68C176.569 44.6789 176.64 44.6777 176.713 44.6777C184.843 44.6777 191.515 51.232 191.631 59.3892C191.749 67.6178 185.149 74.4068 176.922 74.5242C176.849 74.5265 176.778 74.5265 176.706 74.5265ZM162.225 59.8092C162.338 67.7248 168.814 74.0881 176.706 74.0881C176.776 74.0881 176.845 74.0869 176.915 74.0869C184.901 73.973 191.305 67.383 191.192 59.3961C191.078 51.4104 184.493 44.9988 176.502 45.1196C168.516 45.2335 162.111 51.8235 162.225 59.8092Z" fill="#242B2B"/>
<path id="Vector_10" d="M185.928 70.0183C191.67 64.2757 191.67 54.9652 185.927 49.2228C180.185 43.4804 170.874 43.4806 165.132 49.2232C159.39 54.9658 159.39 64.2762 165.132 70.0186C170.875 75.761 180.185 75.7609 185.928 70.0183Z" fill="white"/>
<path id="Vector_11" d="M183.298 67.7149C187.712 63.3012 187.712 56.1451 183.298 51.7315C178.884 47.3178 171.728 47.318 167.314 51.7318C162.901 56.1455 162.901 63.3016 167.315 67.7152C171.729 72.1289 178.885 72.1287 183.298 67.7149Z" fill="#FFD600"/>
<path id="Vector_12" d="M175.53 74.5436C167.399 74.5436 160.727 67.9893 160.611 59.8321C160.555 55.8462 162.053 52.0765 164.831 49.2182C167.608 46.3599 171.334 44.7547 175.32 44.6972C179.306 44.6546 183.076 46.139 185.934 48.9167C188.792 51.6945 190.399 55.4204 190.455 59.4064C190.573 67.6349 183.973 74.424 175.746 74.5413C175.673 74.5425 175.601 74.5436 175.53 74.5436ZM175.539 45.1344C175.467 45.1344 175.397 45.1356 175.326 45.1356C171.457 45.1908 167.842 46.7489 165.145 49.5231C162.449 52.2974 160.993 55.9566 161.048 59.8252C161.161 67.7408 167.637 74.1029 175.528 74.1041C175.599 74.1041 175.668 74.1029 175.738 74.1018C179.606 74.0465 183.222 72.4885 185.919 69.7142C188.615 66.9399 190.071 63.2807 190.016 59.4121C189.96 55.5435 188.402 51.9269 185.627 49.2309C182.904 46.5855 179.328 45.1344 175.539 45.1344Z" fill="#242B2B"/>
<path id="Vector_13" d="M180.031 62.0736C180.05 60.7745 179.027 59.6997 177.737 59.6525C178.374 59.6456 178.951 59.3879 179.376 58.9771C179.816 58.5502 180.09 57.9541 180.1 57.2959C180.119 55.975 179.063 54.8899 177.744 54.8715L177.158 54.8634L177.18 53.3146L176.042 53.2985L176.02 54.8473L175.028 54.8335L175.05 53.2847L173.912 53.2686L173.89 54.8174L174.019 54.8197L172.867 54.8036L171.136 54.7794L171.12 55.9174L172.808 55.9416L172.705 63.2266L171.017 63.2024L171.001 64.3404L172.731 64.3646L174.249 64.3865L173.753 64.3796L173.731 65.9284L174.869 65.9445L174.891 64.3957L175.883 64.4095L175.861 65.9583L176.999 65.9744L177.021 64.4256L177.607 64.4336C178.268 64.4429 178.869 64.1851 179.308 63.7582C179.747 63.3278 180.022 62.7341 180.031 62.0736ZM174.598 56.0129L176.851 56.0452C177.585 56.0555 178.174 56.6608 178.162 57.3949C178.157 57.7631 178.005 58.0945 177.759 58.3327C177.521 58.5606 177.202 58.7044 176.847 58.7101C176.833 58.7078 176.823 58.7067 176.813 58.7067L174.56 58.6745L174.598 56.0129ZM177.89 62.6616C177.639 62.9032 177.301 63.0563 176.924 63.0597C176.91 63.0563 176.9 63.0563 176.886 63.0563L174.499 63.0218L174.539 60.2003L176.927 60.2348C177.707 60.2463 178.329 60.8872 178.319 61.6674C178.312 62.0563 178.151 62.4061 177.89 62.6616Z" fill="white"/>
<g id="Group_3">
<path id="Vector_14" d="M115.121 75.833H119.805V83.5184H115.005C113.944 83.5184 112.982 83.0858 112.288 82.3919C111.472 81.5761 111.018 80.3874 111.203 79.1056C111.465 77.2955 113.291 75.833 115.121 75.833Z" fill="#242B2B"/>
<path id="Vector_15" d="M120.025 83.7381H115.005C113.92 83.7381 112.9 83.3158 112.133 82.5483C111.217 81.6323 110.799 80.3666 110.987 79.0755C111.258 77.1988 113.152 75.6143 115.121 75.6143H120.025V83.7381ZM115.121 76.0527C113.358 76.0527 111.663 77.4657 111.42 79.1377C111.254 80.2906 111.626 81.4206 112.443 82.2376C113.128 82.9223 114.037 83.2997 115.005 83.2997H119.587V76.0527H115.121Z" fill="#242B2B"/>
<path id="Vector_16" d="M151.643 72.9526C158.008 69.6972 160.528 61.8987 157.273 55.5342C154.018 49.1696 146.219 46.6491 139.854 49.9044C133.49 53.1598 130.969 60.9583 134.225 67.3229C137.48 73.6875 145.279 76.208 151.643 72.9526Z" fill="#242B2B"/>
<path id="Vector_17" d="M145.744 74.5987C138.572 74.5987 132.686 68.8165 132.584 61.6224C132.533 58.1071 133.855 54.7816 136.306 52.2604C138.757 49.7393 142.042 48.3228 145.559 48.2722C149.079 48.2376 152.4 49.5448 154.921 51.9946C157.442 54.4456 158.858 57.7308 158.909 61.2473C159.013 68.5046 153.192 74.4939 145.934 74.5975C145.871 74.5975 145.807 74.5987 145.744 74.5987ZM145.751 48.7094C145.689 48.7094 145.627 48.7094 145.565 48.7106C138.549 48.8107 132.922 54.5998 133.022 61.6155C133.121 68.5691 138.811 74.1591 145.744 74.1591C145.805 74.1591 145.866 74.1591 145.927 74.1579C149.326 74.1096 152.502 72.7403 154.871 70.3032C157.241 67.866 158.518 64.6521 158.47 61.253C158.421 57.8539 157.052 54.678 154.615 52.3088C152.222 49.9832 149.081 48.7094 145.751 48.7094Z" fill="#242B2B"/>
<path id="Vector_18" d="M153.861 70.6016C158.915 65.5465 158.915 57.3508 153.86 52.2959C148.805 47.241 140.609 47.2412 135.555 52.2962C130.5 57.3513 130.5 65.547 135.555 70.6019C140.61 75.6568 148.806 75.6566 153.861 70.6016Z" fill="white"/>
<path id="Vector_19" d="M150.056 69.7962C154.62 66.7364 155.839 60.5563 152.779 55.9925C149.719 51.4287 143.539 50.2095 138.975 53.2693C134.412 56.3291 133.192 62.5092 136.252 67.073C139.312 71.6368 145.492 72.856 150.056 69.7962Z" fill="#FFD600"/>
<path id="Vector_20" d="M144.705 74.6128C141.261 74.6128 138.011 73.2953 135.536 70.8892C133.015 68.4382 131.599 65.153 131.548 61.6365C131.497 58.1212 132.82 54.7957 135.271 52.2746C137.722 49.7534 141.007 48.3369 144.523 48.2863C144.586 48.2852 144.65 48.2852 144.713 48.2852C151.885 48.2852 157.771 54.0673 157.873 61.2614C157.977 68.5188 152.157 74.5081 144.898 74.6117C144.834 74.6128 144.768 74.6128 144.705 74.6128ZM144.712 48.7247C144.651 48.7247 144.59 48.7247 144.529 48.7259C137.513 48.826 131.886 54.6151 131.987 61.6308C132.035 65.0299 133.404 68.2058 135.841 70.5751C138.278 72.9443 141.496 74.2193 144.891 74.1733C148.291 74.1249 151.466 72.7556 153.836 70.3185C156.205 67.8813 157.482 64.6674 157.434 61.2683C157.335 54.3147 151.645 48.7247 144.712 48.7247Z" fill="#242B2B"/>
<path id="Vector_21" d="M148.67 63.6094C148.686 62.4656 147.787 61.5198 146.65 61.4783C147.211 61.4726 147.719 61.2447 148.093 60.8834C148.479 60.5072 148.721 59.9836 148.729 59.4037C148.745 58.2415 147.817 57.2852 146.654 57.2691L146.139 57.2622L146.158 55.8987L145.157 55.8849L145.138 57.2484L144.264 57.2358L144.284 55.8722L143.283 55.8584L143.263 57.222L143.376 57.2231L142.362 57.2081L140.839 57.1863L140.825 58.1874L142.312 58.2081L142.221 64.6209L140.734 64.6002L140.72 65.6012L142.244 65.6231L143.581 65.6427L143.145 65.6369L143.125 67.0005L144.126 67.0143L144.146 65.6507L145.019 65.6634L145 67.0269L146.001 67.0407L146.02 65.6772L146.536 65.6841C147.118 65.6921 147.647 65.4655 148.034 65.0903C148.42 64.7141 148.662 64.1917 148.67 63.6094ZM143.887 58.2748L145.871 58.3036C146.517 58.3128 147.035 58.8456 147.026 59.4923C147.021 59.8168 146.887 60.1079 146.67 60.3185C146.462 60.5187 146.18 60.6452 145.867 60.6498C145.856 60.6475 145.845 60.6475 145.836 60.6475L143.852 60.6188L143.887 58.2748ZM146.786 64.1261C146.565 64.3389 146.267 64.4736 145.935 64.4759C145.924 64.4736 145.913 64.4736 145.902 64.4736L143.8 64.4437L143.835 61.9605L145.937 61.9904C146.624 62.0007 147.172 62.5646 147.163 63.2515C147.157 63.5944 147.016 63.9028 146.786 64.1261Z" fill="white"/>
<g id="Group_4">
<path id="Vector_22" d="M119.805 67.3687V113.207C119.805 116.397 122.391 118.984 125.582 118.984H194.897C198.086 118.984 200.673 116.398 200.673 113.207V55.9229C200.673 59.0562 198.136 61.5934 195.007 61.5934H125.582C122.391 61.5923 119.805 64.179 119.805 67.3687Z" fill="white"/>
<path id="Vector_23" d="M194.897 119.204H125.582C122.276 119.204 119.586 116.513 119.586 113.208V67.3689C119.586 64.063 122.275 61.3727 125.582 61.3727H195.007C198.011 61.3727 200.453 58.9275 200.453 55.9219H200.892V113.208C200.893 116.515 198.203 119.204 194.897 119.204ZM125.582 61.8122C122.518 61.8122 120.025 64.3046 120.025 67.3689V113.208C120.025 116.272 122.518 118.765 125.582 118.765H194.897C197.961 118.765 200.453 116.273 200.453 113.208V58.1542C199.573 60.2979 197.463 61.8122 195.007 61.8122H125.582Z" fill="#242B2B"/>
</g>
<g id="Group_5">
<path id="Vector_24" d="M111.161 79.6768V93.7255C111.161 95.3744 112.499 96.7115 114.148 96.7115H128.357C131.865 96.7115 134.897 94.0465 135.114 90.5461C135.238 88.5508 134.484 86.7385 133.194 85.4532C132.003 84.2576 130.355 83.52 128.531 83.52H115.005C113.944 83.52 112.982 83.0874 112.288 82.3935C111.594 81.6997 111.161 80.7377 111.161 79.6768Z" fill="white"/>
<path id="Vector_25" d="M128.357 96.9313H114.148C112.38 96.9313 110.942 95.4929 110.942 93.7255V79.6768H111.38C111.38 80.6445 111.758 81.5535 112.442 82.2382C113.127 82.9228 114.036 83.3003 115.004 83.3003H128.53C130.353 83.3003 132.064 84.0102 133.348 85.2979C134.731 86.6764 135.455 88.5946 135.332 90.5599C135.111 94.1328 132.046 96.9313 128.357 96.9313ZM111.381 81.5167V93.7255C111.381 95.2513 112.623 96.4917 114.148 96.4917H128.357C131.815 96.4917 134.687 93.8739 134.895 90.5312C135.011 88.6912 134.333 86.8973 133.039 85.6074C131.838 84.4015 130.238 83.7375 128.532 83.7375H115.006C113.921 83.7375 112.901 83.3152 112.134 82.5477C111.825 82.2416 111.573 81.893 111.381 81.5167Z" fill="#242B2B"/>
</g>
<g id="Group_6">
<path id="Vector_26" d="M126.157 89.9183C126.157 91.4591 127.407 92.7088 128.948 92.7088C130.488 92.7088 131.738 91.4591 131.738 89.9183C131.738 88.3776 130.488 87.1279 128.948 87.1279C127.407 87.1291 126.157 88.3776 126.157 89.9183Z" fill="#FF4148"/>
</g>
<g id="Group_7">
<path id="Vector_27" d="M200.673 90.4727H164.835V91.3506H200.673V90.4727Z" fill="#242B2B"/>
<path id="Vector_28" d="M167.898 90.9153C167.898 92.593 166.534 93.9542 164.856 93.9508C163.206 93.9462 161.808 92.5262 161.828 90.8762C161.849 89.2134 163.195 87.874 164.863 87.874C166.538 87.874 167.898 89.2341 167.898 90.9153Z" fill="#FF4148"/>
</g>
</g>
<g id="Group_8">
<path id="Vector_29" d="M169.898 106.75H160.956V105.872H169.898C170.353 105.872 170.782 105.672 171.074 105.324L175.042 100.597C175.502 100.049 176.175 99.7354 176.89 99.7354H200.465V100.613H176.89C176.435 100.613 176.006 100.814 175.714 101.162L171.746 105.889C171.287 106.436 170.613 106.75 169.898 106.75Z" fill="#242B2B"/>
<path id="Vector_30" d="M157.921 106.312C157.921 104.635 159.28 103.276 160.956 103.276C162.633 103.276 163.992 104.635 163.992 106.312C163.992 107.988 162.633 109.347 160.956 109.347C159.28 109.346 157.921 107.987 157.921 106.312Z" fill="#FF4148"/>
<g id="Group_9">
<path id="Vector_31" d="M200.465 81.9823H176.89C176.175 81.9823 175.501 81.6682 175.042 81.1205L171.074 76.3935C170.782 76.0448 170.353 75.8457 169.898 75.8457H160.956V74.9678H169.898C170.613 74.9678 171.287 75.2819 171.746 75.8296L175.714 80.5566C176.006 80.9053 176.435 81.1044 176.89 81.1044H200.465V81.9823Z" fill="#242B2B"/>
<path id="Vector_32" d="M160.955 78.4431C162.631 78.4431 163.991 77.084 163.991 75.4076C163.991 73.7311 162.631 72.3721 160.955 72.3721C159.279 72.3721 157.919 73.7311 157.919 75.4076C157.919 77.084 159.279 78.4431 160.955 78.4431Z" fill="#FF4148"/>
</g>
</g>
<g id="Group_10">
<path id="Vector_33" d="M145.329 113.254H136.387C135.672 113.254 134.999 112.94 134.539 112.392L130.571 107.665C130.279 107.316 129.85 107.117 129.395 107.117H120.015V106.239H129.395C130.11 106.239 130.784 106.553 131.243 107.101L135.211 111.828C135.503 112.177 135.932 112.377 136.387 112.377H145.329V113.254Z" fill="#242B2B"/>
<path id="Vector_34" d="M145.329 115.851C147.005 115.851 148.364 114.492 148.364 112.816C148.364 111.139 147.005 109.78 145.329 109.78C143.652 109.78 142.293 111.139 142.293 112.816C142.293 114.492 143.652 115.851 145.329 115.851Z" fill="#FF4148"/>
<g id="Group_11">
<path id="Vector_35" d="M129.395 75.4794H120.015V74.6014H129.395C129.85 74.6014 130.279 74.4012 130.571 74.0537L134.539 69.3267C134.999 68.779 135.672 68.4648 136.387 68.4648H145.329V69.3428H136.387C135.932 69.3428 135.503 69.543 135.211 69.8905L131.243 74.6176C130.784 75.1653 130.11 75.4794 129.395 75.4794Z" fill="#242B2B"/>
<path id="Vector_36" d="M145.329 71.9402C147.005 71.9402 148.364 70.5811 148.364 68.9046C148.364 67.2282 147.005 65.8691 145.329 65.8691C143.652 65.8691 142.293 67.2282 142.293 68.9046C142.293 70.5811 143.652 71.9402 145.329 71.9402Z" fill="#FF4148"/>
</g>
</g>
</g>
<g id="Group_12">
<path id="Vector_37" d="M169.241 43.0463C174.489 37.7985 174.489 29.2902 169.241 24.0425C163.993 18.7949 155.485 18.795 150.237 24.0429C144.99 29.2907 144.99 37.799 150.238 43.0466C155.485 48.2943 163.994 48.2941 169.241 43.0463Z" fill="#242B2B"/>
<path id="Vector_38" d="M159.739 47.2005C152.297 47.2005 146.192 41.202 146.086 33.7387C145.979 26.2086 152.018 19.996 159.547 19.8879C159.612 19.8867 159.679 19.8867 159.745 19.8867C167.186 19.8867 173.292 25.8852 173.397 33.3486C173.504 40.8786 167.466 47.0912 159.937 47.1994C159.87 47.2005 159.804 47.2005 159.739 47.2005ZM159.747 20.3251C159.682 20.3251 159.618 20.3251 159.554 20.3263C156.023 20.3769 152.723 21.7992 150.263 24.3307C147.802 26.8622 146.475 30.2015 146.524 33.7318C146.575 37.2621 147.997 40.5622 150.529 43.0224C153.061 45.4837 156.418 46.7978 159.93 46.7598C163.46 46.7092 166.76 45.2869 169.22 42.7554C171.682 40.2239 173.008 36.8846 172.959 33.3543C172.908 29.824 171.486 26.5239 168.955 24.0637C166.469 21.6484 163.206 20.3251 159.747 20.3251Z" fill="#242B2B"/>
<path id="Vector_39" d="M168.167 43.0619C173.415 37.8141 173.414 29.3058 168.167 24.0582C162.919 18.8105 154.411 18.8107 149.163 24.0585C143.915 29.3063 143.915 37.8146 149.163 43.0623C154.411 48.3099 162.919 48.3098 168.167 43.0619Z" fill="white"/>
<path id="Vector_40" d="M161.626 43.4928C167.056 41.745 170.041 35.9263 168.293 30.4963C166.545 25.0664 160.726 22.0815 155.296 23.8294C149.866 25.5772 146.881 31.396 148.629 36.8259C150.377 42.2558 156.196 45.2407 161.626 43.4928Z" fill="#FFD600"/>
<path id="Vector_41" d="M158.663 47.2152C151.221 47.2152 145.116 41.2166 145.01 33.7533C144.903 26.2232 150.942 20.0095 158.471 19.9025C158.536 19.9014 158.602 19.9014 158.668 19.9014C166.109 19.9014 172.215 25.8999 172.322 33.3644C172.429 40.8944 166.39 47.107 158.861 47.2152C158.795 47.2152 158.729 47.2152 158.663 47.2152ZM145.448 33.7476C145.499 37.2779 146.921 40.578 149.453 43.0382C151.986 45.4983 155.344 46.8216 158.854 46.7756C166.142 46.672 171.987 40.6574 171.883 33.3701C171.78 26.0828 165.763 20.25 158.478 20.3409C151.189 20.4456 145.345 26.4591 145.448 33.7476Z" fill="#242B2B"/>
<path id="Vector_42" d="M162.778 35.8012C162.795 34.6137 161.859 33.6321 160.68 33.5884C161.262 33.5815 161.789 33.3456 162.178 32.9705C162.58 32.5804 162.831 32.0361 162.84 31.4332C162.857 30.2261 161.893 29.2342 160.686 29.2169L160.15 29.2089L160.17 27.7936L159.13 27.7786L159.109 29.1939L158.203 29.1813L158.223 27.7659L157.183 27.751L157.162 29.1663L157.28 29.1675L156.228 29.1525L154.647 29.1295L154.632 30.1686L156.175 30.1904L156.08 36.8483L154.537 36.8264L154.522 37.8655L156.103 37.8885L157.49 37.9081L157.037 37.9012L157.016 39.3165L158.056 39.3315L158.077 37.9161L158.984 37.9288L158.963 39.3441L160.002 39.3591L160.023 37.9437L160.559 37.9518C161.163 37.961 161.713 37.7251 162.114 37.335C162.518 36.9484 162.769 36.4064 162.778 35.8012ZM157.813 30.2641L159.872 30.294C160.543 30.3032 161.08 30.8567 161.071 31.5275C161.067 31.8647 160.927 32.1673 160.703 32.3848C160.487 32.5931 160.194 32.7242 159.87 32.7288C159.857 32.7265 159.848 32.7265 159.838 32.7254L157.778 32.6955L157.813 30.2641ZM160.82 36.3385C160.591 36.5595 160.282 36.6998 159.938 36.7022C159.925 36.6998 159.916 36.6998 159.903 36.6987L157.72 36.6676L157.757 34.0901L159.94 34.1212C160.652 34.1315 161.222 34.7172 161.212 35.4295C161.207 35.7862 161.06 36.1061 160.82 36.3385Z" fill="white"/>
</g>
<g id="Group_13">
<path id="Vector_43" d="M198.524 162.529H121.955C117.475 162.529 113.844 158.897 113.844 154.417V140.209C113.844 135.729 117.475 132.098 121.955 132.098H198.524C203.003 132.098 206.635 135.729 206.635 140.209V154.417C206.635 158.897 203.003 162.529 198.524 162.529Z" fill="#E5E8FF"/>
</g>
<g id="Group_14">
<path id="Vector_44" d="M196.005 160.385H119.436C114.956 160.385 111.325 156.754 111.325 152.274V138.065C111.325 133.586 114.956 129.954 119.436 129.954H196.005C200.484 129.954 204.116 133.586 204.116 138.065V152.274C204.116 156.754 200.484 160.385 196.005 160.385Z" fill="#0166FF"/>
<path id="Vector_45" d="M196.005 160.605H119.436C114.843 160.605 111.106 156.868 111.106 152.275V138.066C111.106 133.473 114.844 129.736 119.436 129.736H196.005C200.598 129.736 204.335 133.473 204.335 138.066V152.275C204.335 156.867 200.598 160.605 196.005 160.605ZM119.436 130.175C115.084 130.175 111.545 133.714 111.545 138.066V152.275C111.545 156.626 115.084 160.166 119.436 160.166H196.005C200.356 160.166 203.896 156.626 203.896 152.275V138.066C203.896 133.715 200.356 130.175 196.005 130.175H119.436Z" fill="black"/>
</g>
<g id="Group_15">
<path id="Vector_46" d="M119.09 143.047H119.068L117.81 143.726L117.621 142.98L119.202 142.134H120.038V149.371H119.092V143.047H119.09ZM123.787 149.371V148.77L124.554 148.025C126.402 146.265 127.238 145.331 127.249 144.239C127.249 143.504 126.893 142.825 125.813 142.825C125.156 142.825 124.611 143.158 124.277 143.437L123.965 142.746C124.466 142.323 125.179 142.011 126.013 142.011C127.573 142.011 128.23 143.08 128.23 144.116C128.23 145.452 127.261 146.532 125.736 148.002L125.157 148.535V148.557H128.408V149.37H123.787V149.371ZM134.93 142.958H132.168L131.89 144.818C132.057 144.796 132.213 144.773 132.48 144.773C133.037 144.773 133.594 144.895 134.039 145.163C134.607 145.485 135.075 146.11 135.075 147.022C135.075 148.437 133.951 149.494 132.381 149.494C131.591 149.494 130.922 149.271 130.578 149.049L130.823 148.303C131.124 148.481 131.714 148.703 132.371 148.703C133.295 148.703 134.085 148.103 134.085 147.134C134.074 146.198 133.451 145.531 132.004 145.531C131.592 145.531 131.269 145.576 131.002 145.609L131.469 142.135H134.931V142.958H134.93ZM137.511 148.792C137.511 148.38 137.79 148.09 138.18 148.09C138.569 148.09 138.837 148.379 138.837 148.792C138.837 149.193 138.58 149.494 138.168 149.494C137.779 149.494 137.511 149.193 137.511 148.792ZM145.17 142.958H142.408L142.13 144.818C142.297 144.796 142.453 144.773 142.72 144.773C143.277 144.773 143.834 144.895 144.279 145.163C144.847 145.485 145.315 146.11 145.315 147.022C145.315 148.437 144.191 149.494 142.621 149.494C141.831 149.494 141.162 149.271 140.818 149.049L141.063 148.303C141.364 148.481 141.954 148.703 142.611 148.703C143.535 148.703 144.325 148.103 144.325 147.134C144.314 146.198 143.691 145.531 142.244 145.531C141.832 145.531 141.509 145.576 141.242 145.609L141.709 142.135H145.171V142.958H145.17ZM151.994 142.958H149.232L148.953 144.818C149.12 144.796 149.277 144.773 149.544 144.773C150.101 144.773 150.658 144.895 151.103 145.163C151.67 145.485 152.139 146.11 152.139 147.022C152.139 148.437 151.014 149.494 149.445 149.494C148.654 149.494 147.986 149.271 147.642 149.049L147.887 148.303C148.187 148.481 148.777 148.703 149.434 148.703C150.358 148.703 151.149 148.103 151.149 147.134C151.137 146.198 150.515 145.531 149.067 145.531C148.655 145.531 148.332 145.576 148.065 145.609L148.532 142.135H151.995V142.958H151.994ZM157.526 149.371V147.4H154.164V146.754L157.393 142.133H158.45V146.631H159.463V147.4H158.45V149.371H157.526ZM157.526 146.632V144.216C157.526 143.837 157.538 143.459 157.559 143.08H157.526C157.304 143.504 157.126 143.815 156.925 144.149L155.156 146.61V146.632H157.526ZM165.139 141.967C165.562 141.879 166.23 141.812 166.909 141.812C167.878 141.812 168.501 141.979 168.968 142.357C169.359 142.646 169.592 143.093 169.592 143.682C169.592 144.406 169.113 145.04 168.323 145.33V145.352C169.035 145.53 169.871 146.12 169.871 147.233C169.871 147.878 169.615 148.369 169.237 148.736C168.713 149.214 167.867 149.438 166.643 149.438C165.974 149.438 165.463 149.393 165.14 149.349V141.967H165.139ZM166.108 145.04H166.987C168.011 145.04 168.613 144.506 168.613 143.782C168.613 142.903 167.944 142.558 166.965 142.558C166.52 142.558 166.263 142.591 166.108 142.624V145.04ZM166.108 148.637C166.297 148.67 166.575 148.682 166.92 148.682C167.922 148.682 168.846 148.315 168.846 147.223C168.846 146.198 167.967 145.775 166.91 145.775H166.108V148.637ZM173.61 142.691H171.327V141.867H176.883V142.691H174.59V149.372H173.61V142.691ZM183.774 149.126C183.418 149.304 182.705 149.482 181.793 149.482C179.678 149.482 178.085 148.147 178.085 145.685C178.085 143.336 179.678 141.744 182.005 141.744C182.94 141.744 183.53 141.944 183.786 142.078L183.552 142.868C183.185 142.69 182.662 142.557 182.038 142.557C180.279 142.557 179.109 143.681 179.109 145.652C179.109 147.49 180.167 148.669 181.993 148.669C182.583 148.669 183.184 148.547 183.574 148.357L183.774 149.126Z" fill="white"/>
</g>
<g id="Group_16">
<path id="Vector_47" d="M93.2799 217.459L80.2564 213.497L77.5212 211.505L64.9028 215.98L66.1686 225.884C66.1674 226.429 66.6611 226.83 67.1835 226.723L94.5548 221.169C95.0151 221.076 95.312 220.628 95.2188 220.167L95.0174 219.174C94.8402 218.299 94.159 217.624 93.2799 217.459Z" fill="#11559E"/>
<path id="Vector_48" d="M77.5212 211.504L75.679 201.688L62.8615 204.193L64.9028 215.979C70.5343 217.114 75.2947 215.453 77.5212 211.504Z" fill="#FFCFC5"/>
<path id="Vector_49" d="M81.6982 217.752L81.2782 217.627C81.8651 215.672 83.5531 215.146 83.6245 215.125L83.751 215.545C83.6889 215.563 82.2149 216.031 81.6982 217.752ZM84.56 218.665L84.14 218.539C84.7268 216.584 86.4149 216.058 86.4862 216.037L86.6128 216.458C86.5507 216.476 85.0778 216.943 84.56 218.665Z" fill="white"/>
<path id="Vector_50" d="M32.5042 225.984L21.8235 217.544L20.0043 214.691L6.62296 214.254L4.18926 223.937C3.99019 224.444 4.30203 224.997 4.82904 225.089L32.3396 229.902C32.8022 229.983 33.2429 229.674 33.3234 229.212L33.4983 228.213C33.6514 227.336 33.2625 226.46 32.5042 225.984Z" fill="#11559E"/>
<path id="Vector_51" d="M20.0043 214.692L21.8695 204.88L9.021 202.536L6.62183 214.255C11.4524 217.366 16.4901 217.556 20.0043 214.692Z" fill="#FFCFC5"/>
<path id="Vector_52" d="M21.6141 222.034L21.2689 221.763C22.5277 220.158 24.2917 220.286 24.3665 220.29L24.3308 220.728C24.2652 220.724 22.7233 220.618 21.6141 222.034ZM23.9465 223.926L23.6013 223.656C24.8601 222.051 26.6264 222.179 26.6989 222.183L26.6633 222.62C26.5977 222.615 25.0558 222.511 23.9465 223.926Z" fill="white"/>
<path id="Vector_53" d="M84.8477 56.9071C84.8477 56.9071 71.1315 78.1314 65.1042 79.4283C59.0769 80.7251 45.393 72.4125 45.393 72.4125L51.7252 58.5848L61.6844 63.871L77.0081 49.209L84.8477 56.9071Z" fill="#FFCFC5"/>
<path id="Vector_54" d="M80.3623 201.875L71.3513 204.141L59.9422 207.01L48.1558 152.764L15.9493 108.648C16.5626 100.953 30.2281 98.8242 39.2023 95.0557C39.2023 95.0557 63.4323 132.398 68.7542 146.163C73.5917 158.665 78.1921 187.352 79.7777 197.891C80.1552 200.392 80.3623 201.875 80.3623 201.875Z" fill="#444BA1"/>
<path id="Vector_55" d="M80.3623 201.874L71.3513 204.14L63.0192 205.088L79.7789 197.891C80.1552 200.391 80.3623 201.874 80.3623 201.874Z" fill="#11559E"/>
<g id="Group_17">
<path id="Vector_56" d="M28.7265 95.0566C28.7265 95.0566 38.879 135.71 39.1919 149.628C39.5579 165.877 26.4228 209.39 26.4228 209.39L5.47805 208.627L14.5236 153.094C9.5158 131.352 -0.630928 100.565 6.70814 96.4156L28.7265 95.0566Z" fill="#444BA1"/>
</g>
<g id="Group_18">
<path id="Vector_57" d="M27.9014 204.33L13.5432 207.009L26.6805 207.796L27.9014 204.33Z" fill="#11559E"/>
</g>
<g id="Group_19">
<path id="Vector_58" d="M38.9722 149.634C38.7858 141.357 35.1231 123.626 32.0842 110.21L32.5122 110.113C35.5558 123.549 39.2242 141.309 39.4117 149.623L38.9722 149.634Z" fill="white"/>
</g>
<g id="Group_20">
<path id="Vector_59" d="M52.7758 71.5459C50.2881 74.3685 47.8935 76.4731 47.1686 75.892L40.5533 70.4976L28.0833 60.3267L33.3684 45.9443C33.3684 45.9443 40.6269 47.0709 44.9006 48.7244C49.5608 50.5298 59.3485 60.6351 59.3485 60.6351C60.4348 61.5027 56.4983 67.3252 52.7758 71.5459Z" fill="#FF4148"/>
<path id="Vector_60" d="M52.7758 71.5466C50.288 74.3692 47.8935 76.4738 47.1685 75.8927L40.5532 70.4983C40.406 69.1198 42.7545 55.8662 42.7545 55.8662C42.7545 55.8662 47.6771 67.7919 52.7758 71.5466Z" fill="#11559E"/>
<path id="Vector_61" d="M43.8868 102.77C38.9595 105.662 3.76012 108.246 3.08467 101.372C2.87294 99.2427 4.12833 96.167 4.12833 96.167C4.12833 96.167 1.83847 55.4247 5.88888 49.9256C7.91179 47.1812 15.8469 45.8199 18.1414 45.4885C26.867 44.2285 38.688 45.5023 44.2596 49.9026C50.3927 54.7481 42.5727 93.7666 42.5727 93.7666C42.5727 93.7666 43.2481 94.5157 43.9524 95.61C44.0985 95.8413 47.5609 100.613 43.8868 102.77Z" fill="#FF4148"/>
<path id="Vector_62" d="M40.0884 94.6387L20.4163 84.7658L15.0092 66.4078L17.161 56.9883C17.161 56.9883 19.8041 64.1651 20.582 66.6839C21.9386 71.0888 24.8349 83.3999 24.8349 83.3999L40.0884 94.6387Z" fill="#11559E"/>
<path id="Vector_63" d="M25.4424 13.8467C25.5449 14.1942 25.6001 14.5877 25.6116 15.0181C25.5414 14.6337 25.485 14.2437 25.4424 13.8467ZM21.0296 42.4953L23.3804 47.4018L30.1579 48.1152L33.8896 48.9713L32.8172 43.0775L32.9115 41.6138L33.1681 37.7429L21.7303 30.3682C21.7718 30.8757 21.8028 31.3808 21.8235 31.8756C22.0905 37.7683 21.0296 42.4953 21.0296 42.4953Z" fill="#FFCFC5"/>
<path id="Vector_64" d="M21.7315 30.3691C21.7729 30.8766 21.804 31.3817 21.8247 31.8765C21.8972 31.888 21.9674 31.8973 22.0364 31.9019C22.163 32.2068 22.2516 32.5577 22.308 32.9467C23.8361 38.1673 28.9187 41.5446 32.9127 41.6148L33.1693 37.7439L21.7315 30.3691Z" fill="#FC9B88"/>
<path id="Vector_65" d="M21.0284 42.4961C22.1941 45.2589 26.5908 46.8319 30.1568 48.1149C30.1568 48.1149 29.0844 54.4287 28.0096 54.4068C27.0189 54.3861 18.0182 50.4036 18.1402 45.489C19.5613 44.4741 19.933 43.9356 21.0284 42.4961ZM30.1579 48.116C30.1579 48.116 32.1912 52.9155 33.5973 53.3125C35.1979 53.7647 36.4556 49.2759 36.2244 46.9009L32.8172 43.0772C33.1152 44.7158 33.6882 46.1691 30.1579 48.116Z" fill="#F23243"/>
<path id="Vector_66" d="M32.4973 40.139C28.448 40.3196 23.0433 36.8871 21.4553 31.4732C21.4012 31.0854 21.3138 30.7333 21.1861 30.4283C20.2344 30.3524 19.2092 29.7609 18.4716 28.7759C17.3014 27.2122 17.291 25.2272 18.4624 24.3619C19.1298 23.8625 20.017 23.8257 20.8892 24.1916C21.5405 18.5233 24.6956 14.191 28.7691 13.9126C31.487 13.7273 34.0415 15.3774 35.8665 18.1333C36.0863 18.4647 36.2991 18.8133 36.4948 19.1758C37.627 21.247 38.3784 23.8027 38.5614 26.5942C39.07 33.9218 36.7525 39.9468 32.4973 40.139Z" fill="#FFCFC5"/>
<path id="Vector_67" d="M13.5501 31.306C14.1957 32.8756 15.6536 34.0124 17.2519 34.5751C18.9641 35.1746 20.4703 36.2022 22.1814 35.6004L22.0008 35.3047C22.0272 33.9181 21.621 32.5833 21.453 31.4706C21.4024 31.0863 21.3126 30.7307 21.1872 30.4292C20.2333 30.351 19.208 29.7607 18.4705 28.7768C17.3025 27.2096 17.2922 25.2258 18.4613 24.3617C19.1309 23.8611 20.017 23.8243 20.8869 24.1902C20.8869 24.1902 22.8477 25.2293 22.7165 27.0163L24.0605 27.5341L24.8234 24.311C24.8234 24.311 27.1156 22.7657 26.1283 20.9246C27.5091 21.4734 29.0234 21.7531 30.5043 21.8324C31.1521 21.867 31.838 21.8394 32.3788 21.4872C32.8483 21.1766 33.1359 20.5345 32.9495 20.0247C32.6216 19.7842 32.2971 19.5403 31.9737 19.2917C32.2603 19.4643 32.5456 19.6381 32.8356 19.8107C32.8862 19.8774 32.9242 19.9488 32.9495 20.0247C33.8148 20.6553 34.7101 21.2341 35.7054 21.6161C37.0782 22.1489 38.6799 22.2697 39.9871 21.5943C40.5026 21.3308 40.9732 20.928 41.1919 20.3964C41.4105 19.8602 41.3265 19.1755 40.8904 18.7935C40.796 18.7072 40.681 18.6462 40.5601 18.6059C40.1747 18.7486 39.78 18.8648 39.3853 18.9753C39.612 18.5829 40.1344 18.4609 40.5601 18.6059C40.9376 18.4667 41.3023 18.2964 41.6337 18.0697C42.308 17.6094 42.8466 16.8788 42.8558 16.0675C42.8661 15.1274 42.0906 14.2483 41.1585 14.1217C40.2276 13.9986 39.2553 14.6165 38.9549 15.5083C38.7835 13.9307 38.1909 12.4003 37.2554 11.1196C36.7709 10.4545 36.176 9.84807 35.435 9.49827C34.6905 9.14961 33.7723 9.09783 33.0646 9.51092C32.3523 9.92402 31.9404 10.8595 32.2511 11.619C30.9186 10.4902 29.3502 9.5535 27.6161 9.34407C25.8832 9.13465 23.9719 9.78133 23.0237 11.2462C22.5577 11.9665 22.3632 12.7869 22.3137 13.6396C20.269 15.3794 20.3162 17.3908 20.3162 17.3908C19.3013 16.4104 17.2991 16.6659 16.2404 17.5991C15.1818 18.5357 15.0011 20.3043 15.848 21.4343C15.3256 20.6898 14.1738 20.5932 13.404 21.0753C12.6376 21.5586 12.2257 22.4734 12.1256 23.3767C11.9461 25.0244 12.7412 26.747 14.1082 27.6768C12.8091 28.7676 12.908 29.7411 13.5501 31.306Z" fill="#11559E"/>
<path id="Vector_68" d="M31.9726 19.2939C32.2971 19.5425 32.6204 19.7864 32.9484 20.0269C32.9219 19.951 32.8839 19.8796 32.8345 19.8129C32.5456 19.6392 32.2591 19.4665 31.9726 19.2939Z" fill="#11559E"/>
<g id="Group_21">
<path id="Vector_69" d="M35.3614 27.5967L36.5132 32.1557L34.2556 32.4227L35.3614 27.5967Z" fill="#FC9B88"/>
</g>
<g id="Group_22">
<path id="Vector_70" d="M43.9513 95.611C40.6269 96.4061 35.9701 97.6109 34.0485 97.7812C37.9516 97.1794 42.5727 93.7676 42.5727 93.7676C42.5727 93.7676 43.2482 94.5167 43.9513 95.611Z" fill="#11559E"/>
</g>
<g id="Group_23">
<path id="Vector_71" d="M3.98334 93.2529C5.50224 96.4081 15.97 98.4586 16.2266 98.5C7.50558 98.9511 4.12947 96.1688 4.12947 96.1688V96.4875C4.12947 96.4875 4.11336 96.4127 4.08345 96.285C4.08345 96.2804 4.08345 96.2804 4.08345 96.2804L3.98334 93.2529Z" fill="#11559E"/>
</g>
</g>
<g id="Group_24">
<path id="Vector_72" d="M57.9435 208.656C58.0896 209.276 58.4555 209.777 58.9227 210.096C59.3899 210.415 59.9595 210.552 60.5268 210.418L81.1562 205.565C82.292 205.298 82.9743 204.076 82.6832 202.834C82.5371 202.214 82.1711 201.712 81.704 201.394C81.2368 201.075 80.6672 200.938 80.0999 201.071L59.4704 205.925C58.3347 206.192 57.6512 207.414 57.9435 208.656Z" fill="#444BA1"/>
</g>
<g id="Group_25">
<path id="Vector_73" d="M4.64036 206.935C4.55176 207.567 4.7117 208.166 5.03274 208.632C5.35263 209.098 5.83477 209.432 6.41241 209.513L27.4009 212.449C28.5562 212.61 29.6344 211.718 29.8116 210.455C29.9002 209.823 29.7402 209.224 29.4192 208.757C29.0982 208.29 28.6172 207.957 28.0395 207.876L7.05104 204.941C5.89576 204.78 4.81756 205.671 4.64036 206.935Z" fill="#444BA1"/>
</g>
<g id="Group_26">
<path id="Vector_74" d="M80.6573 112.046C90.9949 101.708 90.9946 84.9475 80.6566 74.6099C70.3187 64.2724 53.5579 64.2727 43.2203 74.6106C32.8827 84.9485 32.883 101.709 43.2209 112.047C53.5589 122.385 70.3197 122.384 80.6573 112.046Z" fill="#242B2B"/>
<path id="Vector_75" d="M61.9582 120.019C61.3276 120.019 60.6936 119.997 60.055 119.952C45.3745 118.913 34.2762 106.123 35.3153 91.4415C35.8193 84.3291 39.0619 77.8393 44.4459 73.1675C49.8312 68.4946 56.7145 66.2036 63.8246 66.7018C78.5062 67.7409 89.6034 80.5307 88.5643 95.2112C87.5701 109.254 75.8251 120.019 61.9582 120.019ZM61.9007 67.0723C55.5857 67.0723 49.5515 69.3185 44.7348 73.4978C39.4382 78.0936 36.2485 84.4776 35.7537 91.4714C34.7319 105.911 45.6473 118.491 60.0872 119.512C74.5306 120.542 87.1064 109.619 88.1282 95.1789C89.15 80.7402 78.2346 68.1609 63.7947 67.1379C63.1607 67.0953 62.529 67.0723 61.9007 67.0723Z" fill="#242B2B"/>
<path id="Vector_76" d="M78.5435 111.896C88.8811 101.558 88.8808 84.7971 78.5429 74.4596C68.2049 64.122 51.4441 64.1223 41.1065 74.4602C30.7689 84.7982 30.7692 101.559 41.1072 111.897C51.4451 122.234 68.2059 122.234 78.5435 111.896Z" fill="white"/>
<path id="Vector_77" d="M75.4695 108.822C84.1094 100.182 84.1091 86.1736 75.4689 77.5337C66.8287 68.8938 52.8205 68.8941 44.1806 77.5343C35.5407 86.1745 35.5409 100.183 44.1811 108.823C52.8213 117.463 66.8296 117.462 75.4695 108.822Z" fill="#FFD24F"/>
<path id="Vector_78" d="M68.7012 99.9873C69.173 97.1819 67.3158 94.5169 64.5392 93.9842C65.9211 94.1809 67.2548 93.8139 68.3123 93.0659C69.4043 92.288 70.1971 91.0902 70.4364 89.6668C70.9163 86.8154 68.9935 84.1147 66.1421 83.6349L64.8763 83.422L65.439 80.077L62.9823 79.6639L62.4196 83.0089L60.277 82.6488L60.8397 79.3037L58.383 78.8906L57.8203 82.2357L58.0988 82.2828L55.6122 81.8651L51.8747 81.2369L51.4616 83.6936L55.107 84.3069L52.4604 100.04L48.8151 99.4269L48.402 101.884L52.1394 102.512L55.4188 103.063L54.3487 102.884L53.786 106.229L56.2427 106.642L56.8054 103.297L58.948 103.657L58.3853 107.002L60.842 107.415L61.4047 104.07L62.6705 104.283C64.0996 104.523 65.485 104.165 66.577 103.388C67.669 102.609 68.4607 101.416 68.7012 99.9873ZM58.956 85.0664L63.8234 85.8845C65.4091 86.1514 66.4815 87.6577 66.2146 89.2433C66.0811 90.0384 65.6404 90.7059 65.0294 91.1397C64.4402 91.5539 63.7015 91.7587 62.9305 91.6529C62.9029 91.6425 62.8787 91.6379 62.8557 91.6345L57.9883 90.8163L58.956 85.0664ZM63.8718 100.548C63.2481 100.986 62.4645 101.207 61.6487 101.087C61.6199 101.077 61.5969 101.072 61.5681 101.068L56.4107 100.2L57.436 94.1073L62.5934 94.9749C64.278 95.258 65.4125 96.8528 65.1295 98.5374C64.9868 99.3797 64.5219 100.084 63.8718 100.548Z" fill="white"/>
<path id="Vector_79" d="M59.8674 119.871C59.2276 119.871 58.5855 119.848 57.9423 119.803C50.8299 119.299 44.3401 116.056 39.6683 110.672C34.9954 105.287 32.6997 98.406 33.2026 91.2936C33.7066 84.1812 36.9492 77.6914 42.3333 73.0196C47.7185 68.3467 54.6042 66.0533 61.7119 66.5539C68.8232 67.0579 75.3142 70.3005 79.986 75.6846C84.6589 81.0698 86.9545 87.9509 86.4505 95.0632C85.9465 102.176 82.7039 108.665 77.3198 113.337C72.4225 117.587 66.2871 119.871 59.8674 119.871ZM59.7868 66.9233C53.4719 66.9233 47.4377 69.1694 42.6209 73.3487C37.3243 77.9445 34.1346 84.3285 33.6399 91.3224C33.1451 98.3174 35.4027 105.087 39.9985 110.382C44.5944 115.678 50.9784 118.867 57.9722 119.362C64.9684 119.86 71.7367 117.599 77.0322 113.004C82.3288 108.408 85.5185 102.024 86.0132 95.0299C86.508 88.0349 84.2504 81.2654 79.6546 75.9699C75.0587 70.6745 68.6747 67.4848 61.6809 66.99C61.0469 66.9463 60.4151 66.9233 59.7868 66.9233Z" fill="#242B2B"/>
</g>
<g id="Group_27">
<path id="Vector_80" d="M42.369 96.0733L38.3842 104.508C38.3842 104.508 12.7987 99.1422 9.49394 94.7937C5.02008 88.9137 2.37695 69.9953 2.37695 69.9953L18.3485 68.6709C18.3485 69.2497 20.6164 82.0994 21.0295 82.5136C21.4438 82.9267 42.369 96.0733 42.369 96.0733Z" fill="#FFCFC5"/>
</g>
<g id="Group_28">
<path id="Vector_81" d="M21.0295 73.0378C21.0295 74.0297 3.99941 79.7038 1.76938 76.7246C1.76938 76.7246 -1.3202 62.4354 0.665877 55.4842C2.65196 48.5329 11.8563 46.8184 11.8563 46.8184C15.9665 50.6616 19.7419 63.0154 21.0295 73.0378Z" fill="#FF4148"/>
</g>
<g id="Group_29">
<path id="Vector_82" d="M42.369 96.0719C42.369 96.0719 49.6091 92.9063 50.8185 94.6381C52.029 96.3699 47.7554 98.8278 47.7554 98.8278" fill="#FFCFC5"/>
</g>
<g id="Group_30">
<path id="Vector_83" d="M47.7553 98.828C47.7553 98.828 56.1519 101.019 55.8734 102.608C55.6628 103.819 53.9794 103.679 52.8356 103.293C54.1324 103.943 56.008 105.847 55.7249 106.408C54.9689 107.9 52.1325 105.791 51.2614 105.264C52.0934 105.8 54.1462 108.034 53.7688 108.474C53.0703 109.297 50.6067 107.689 49.4629 107.058C50.4479 107.641 51.1947 109.617 50.7448 109.852C49.1177 110.708 38.4118 104.867 38.383 104.508C36.8284 103.771 40.8132 95.3415 42.3678 96.0733" fill="#FFCFC5"/>
</g>
<g id="Group_31">
<path id="Vector_84" d="M76.6859 50.0669C76.6859 50.0669 80.3565 39.9397 82.3806 39.4472C83.9386 39.0675 83.9755 43.8302 83.9755 43.8302C83.9755 43.8302 94.8137 33.0264 96.1209 34.3555C97.4281 35.6845 91.0084 41.2032 91.0084 41.2032C91.0084 41.2032 92.6643 40.4322 93.1579 41.5806C93.6389 42.6979 92.6332 43.3584 92.6332 43.3584C92.6332 43.3584 93.7448 42.8003 94.4421 43.5678C95.1486 44.3457 94.1176 45.5125 94.1176 45.5125C94.1176 45.5125 95.3753 45.5459 95.2706 46.8876C95.1244 48.739 87.5253 55.2853 86.3976 56.0056C85.27 56.7271 84.0848 57.4704 84.0848 57.4704C82.7684 58.8812 75.3695 51.4776 76.6859 50.0669Z" fill="#FFCFC5"/>
<path id="Vector_85" d="M87.6853 47.5587C87.6772 47.5587 87.668 47.5587 87.6599 47.5587C87.4689 47.5518 87.3101 47.477 87.2008 47.3401C86.9649 47.0467 86.8694 46.6946 86.9166 46.2953C87.0938 44.7706 89.3526 42.9859 89.4492 42.9111L89.7197 43.2563C89.6978 43.2736 87.5092 45.0019 87.3527 46.3459C87.3205 46.6278 87.3826 46.8637 87.5437 47.0651C87.5633 47.0893 87.5943 47.1169 87.676 47.1192C87.6806 47.1192 87.6864 47.1192 87.6921 47.1192C88.5632 47.1192 91.1189 44.7004 92.5342 43.1643L92.8564 43.4612C92.4663 43.8846 89.0396 47.5587 87.6853 47.5587Z" fill="#FFB29F"/>
<path id="Vector_86" d="M89.1892 49.427C89.1524 49.427 89.1156 49.4258 89.0787 49.4224C88.7658 49.3925 88.5138 49.2314 88.3504 48.9586C87.7014 47.8724 89.1409 46.365 89.203 46.3017L89.5183 46.6066C89.1639 46.9737 88.3319 48.0703 88.7278 48.7331C88.8198 48.8885 88.9453 48.9679 89.1213 48.9851C90.3146 49.0967 93.0175 46.4122 93.9542 45.3662L94.281 45.6596C93.9289 46.052 90.8554 49.427 89.1892 49.427Z" fill="#FFB29F"/>
<path id="Vector_87" d="M89.9325 51.4642C89.8646 51.4642 89.7991 51.4596 89.7369 51.4493C89.4976 51.409 89.3146 51.2962 89.1938 51.1121C88.989 50.8026 88.9222 50.4689 88.9936 50.1237C89.1616 49.3159 90.0488 48.7302 90.0867 48.7061L90.3261 49.0731C90.318 49.0777 89.5528 49.5852 89.4228 50.2134C89.3756 50.4436 89.4205 50.6588 89.5597 50.8693C89.6126 50.9499 89.692 50.9959 89.8094 51.0155C90.6931 51.1616 92.8231 49.7117 93.5687 49.1399L93.8357 49.4874C93.5606 49.7002 91.2236 51.4642 89.9325 51.4642Z" fill="#FFB29F"/>
<g id="Group_32">
<path id="Vector_88" d="M82.3162 49.1741L82.1102 48.7863C84.4081 47.5608 83.766 43.9063 83.7591 43.8694L84.1906 43.79C84.2206 43.9534 84.8983 47.7956 82.3162 49.1741Z" fill="#FFB29F"/>
</g>
</g>
</g>
<g id="Group_33">
<path id="Vector_89" d="M52.7758 11.4825V27.523C52.7758 29.3607 54.0737 30.8957 55.8009 31.2547C56.2784 31.3583 56.6259 31.7633 56.6674 32.2454L56.8124 33.9323C56.8745 34.7102 57.6995 35.1831 58.4003 34.846L65.5 31.4469C65.6508 31.3744 65.8165 31.3375 65.9822 31.3375H84.82C86.5173 31.3375 88.0063 30.2214 88.478 28.592L93.1636 12.5515C93.8793 10.1074 92.0475 7.66797 89.5044 7.66797H56.5891C54.4822 7.66912 52.7758 9.37558 52.7758 11.4825Z" fill="white"/>
<path id="Vector_90" d="M52.7758 11.4828V27.5234C52.7758 29.361 54.0737 30.896 55.8009 31.255C56.2784 31.3586 56.6259 31.7636 56.6674 32.2458L56.8124 33.9327C56.8745 34.7105 57.6995 35.1835 58.4003 34.8463L65.5 31.4472C65.6508 31.3747 65.8165 31.3379 65.9822 31.3379H84.82C86.5173 31.3379 88.0063 30.2217 88.478 28.5924L88.5505 28.3484C87.8866 28.8984 87.0351 29.2206 86.1272 29.2206H67.2905C67.1248 29.2206 66.9579 29.2574 66.8084 29.3299L59.7086 32.7291C59.0079 33.0662 58.1828 32.5944 58.1207 31.8154L57.9757 30.1285C57.9343 29.6464 57.5868 29.2413 57.1092 29.1378C55.3809 28.7799 54.0841 27.2437 54.0841 25.4061V9.36557C54.0841 9.07444 54.1152 8.79482 54.1773 8.52441C53.32 9.22633 52.7758 10.2896 52.7758 11.4828Z" fill="#C5CDE3"/>
<path id="Vector_91" d="M57.9205 35.175C57.6915 35.175 57.4625 35.1151 57.2577 34.9978C56.8768 34.7791 56.6282 34.3867 56.5937 33.9495L56.4487 32.2637C56.4154 31.8713 56.1357 31.5514 55.7537 31.4686C53.9011 31.0843 52.556 29.425 52.556 27.5229V11.4824C52.556 9.2581 54.366 7.44922 56.5891 7.44922H89.5067C90.7898 7.44922 91.9669 8.03722 92.7344 9.06363C93.5019 10.0889 93.7355 11.3823 93.3753 12.6135L88.6898 28.654C88.195 30.3628 86.6036 31.5572 84.8212 31.5572H65.9833C65.8475 31.5572 65.714 31.5871 65.5967 31.6447L58.4958 35.0438C58.314 35.1312 58.1172 35.175 57.9205 35.175ZM56.5891 7.88763C54.6065 7.88763 52.9944 9.50089 52.9944 11.4824V27.5229C52.9944 29.2179 54.1934 30.6976 55.8446 31.0394C56.4177 31.1637 56.8354 31.6401 56.8848 32.2258L57.0298 33.9127C57.054 34.2118 57.2162 34.4673 57.4751 34.6169C57.734 34.7642 58.0355 34.7757 58.3036 34.6479L65.4034 31.2488C65.5794 31.1637 65.7796 31.1188 65.981 31.1188H84.8189C86.4079 31.1188 87.8256 30.0544 88.2663 28.5321L92.953 12.4904C93.2741 11.3938 93.0658 10.2408 92.3823 9.32714C91.6976 8.41234 90.6494 7.88878 89.5056 7.88878H56.5891V7.88763Z" fill="black"/>
<g id="Group_34">
<path id="Vector_92" d="M60.9503 24.5779C60.803 24.5779 60.6545 24.5284 60.5314 24.4271C60.2518 24.1958 60.2127 23.7804 60.4439 23.5008L65.2354 17.7094C65.3482 17.5725 65.5116 17.4873 65.6888 17.4724C65.8648 17.4586 66.0409 17.515 66.1744 17.6312L70.1534 21.089L73.9323 15.7429C74.0427 15.5864 74.2165 15.4863 74.4075 15.4679C74.5997 15.4506 74.7872 15.5162 74.9253 15.6474L78.7905 19.3515L84.4426 13.6993C84.6992 13.4427 85.1158 13.4427 85.3735 13.6993C85.6301 13.9559 85.6301 14.3724 85.3735 14.6302L79.2657 20.738C79.0125 20.9912 78.6029 20.9946 78.3451 20.7484L74.5663 17.1272L70.8082 22.4433C70.7011 22.5952 70.5343 22.6942 70.349 22.7172C70.1638 22.7368 69.9785 22.6827 69.8381 22.5607L65.8188 19.0684L61.4577 24.3408C61.3277 24.4962 61.1401 24.5779 60.9503 24.5779Z" fill="#0166FF"/>
</g>
<g id="Group_35">
<path id="Vector_93" d="M85.973 14.0331L85.4908 16.9812C85.3505 17.8327 84.3275 18.2009 83.6785 17.6301L81.3047 15.5509C80.6557 14.9847 80.8835 13.9226 81.7132 13.6729L84.5691 12.8042C85.3505 12.5683 86.1053 13.2311 85.973 14.0331Z" fill="#0166FF"/>
</g>
</g>
<g id="Group_36">
<path id="Vector_94" d="M168.372 217.111C168.372 217.111 162.806 201.823 166.757 196.845C170.707 191.867 175.024 196.539 175.024 196.539C175.024 196.539 175.691 185.855 181.086 180.256C186.482 174.657 193.081 177.294 194.563 181.7C196.045 186.106 189.812 189.933 187.478 191.12C185.145 192.306 181.645 195.53 182.979 196.689C184.313 197.848 188.331 195.756 187.935 200.968C187.539 206.183 168.372 217.111 168.372 217.111Z" fill="#04B5A4"/>
<path id="Vector_95" d="M166.856 222.323L166.429 222.219C169.36 210.143 184.286 185.778 184.437 185.533L184.811 185.763C184.661 186.006 169.77 210.313 166.856 222.323Z" fill="black"/>
<path id="Vector_96" d="M171.853 209.445L171.491 209.199C171.704 208.885 176.753 201.515 181.466 201.082L181.506 201.519C176.998 201.932 171.904 209.369 171.853 209.445Z" fill="black"/>
<g id="Group_37">
<path id="Vector_97" d="M170.623 212.055L170.212 211.901C170.228 211.859 171.721 207.677 167.896 201.806L168.263 201.565C172.219 207.636 170.691 211.878 170.623 212.055Z" fill="black"/>
</g>
<g id="Group_38">
<path id="Vector_98" d="M165.208 214.446C165.208 214.446 176.327 202.568 174.646 196.439C172.965 190.31 167.161 192.913 167.161 192.913C167.161 192.913 170.74 182.825 167.974 175.558C165.208 168.29 158.103 168.128 155.012 171.598C151.92 175.07 156.151 181.035 157.832 183.042C159.513 185.048 161.466 189.388 159.785 189.93C158.104 190.472 155.229 186.971 153.547 191.921C151.866 196.873 165.208 214.446 165.208 214.446Z" fill="#04B5A4"/>
<path id="Vector_99" d="M164.99 219.906L164.558 219.833C166.59 207.643 162.43 179.443 162.388 179.16L162.821 179.096C162.864 179.38 167.033 207.648 164.99 219.906Z" fill="black"/>
<path id="Vector_100" d="M165.013 206.029C164.996 205.94 163.229 197.1 159.245 194.952L159.453 194.565C163.619 196.813 165.371 205.573 165.444 205.945L165.013 206.029Z" fill="black"/>
<path id="Vector_101" d="M158.907 219.915L160.672 229.075C160.765 229.564 161.193 229.917 161.691 229.917H172.356C172.853 229.917 173.282 229.564 173.375 229.075L175.141 219.915C175.264 219.274 174.772 218.681 174.121 218.681H159.926C159.276 218.681 158.785 219.274 158.907 219.915Z" fill="white"/>
<path id="Vector_102" d="M158.907 219.916L160.672 229.075C160.765 229.564 161.193 229.917 161.691 229.917H172.356C172.853 229.917 173.282 229.564 173.375 229.075L173.405 228.913C173.37 228.916 173.336 228.919 173.301 228.919H162.636C162.139 228.919 161.71 228.565 161.617 228.076L159.851 218.917C159.837 218.839 159.831 218.761 159.837 218.686C159.231 218.738 158.791 219.305 158.907 219.916Z" fill="#E5E8FF"/>
<g id="Group_39">
<path id="Vector_103" d="M172.356 230.137H161.691C161.088 230.137 160.57 229.708 160.457 229.116L158.692 219.957C158.62 219.587 158.718 219.208 158.957 218.918C159.197 218.628 159.55 218.461 159.926 218.461H174.121C174.497 218.461 174.85 218.627 175.09 218.918C175.331 219.208 175.427 219.587 175.356 219.957L173.591 229.116C173.478 229.708 172.959 230.137 172.356 230.137ZM159.123 219.874L160.888 229.033C160.962 229.419 161.299 229.697 161.691 229.697H172.356C172.748 229.697 173.087 229.419 173.159 229.033L174.924 219.874C174.97 219.633 174.907 219.386 174.751 219.197C174.594 219.009 174.364 218.901 174.12 218.901H159.925C159.68 218.901 159.451 219.009 159.295 219.197C159.139 219.387 159.076 219.633 159.123 219.874Z" fill="black"/>
</g>
<g id="Group_40">
<path id="Vector_104" d="M165.559 208.931L165.121 208.912C165.129 208.722 165.386 204.221 171.407 200.189L171.651 200.554C165.829 204.454 165.561 208.886 165.559 208.931Z" fill="black"/>
</g>
</g>
</g>
</g>
</svg>
