<svg width="10" height="5" viewBox="0 0 10 5" fill="none" xmlns="http://www.w3.org/2000/svg">
<path d="M2.35227 0C2.65909 0 2.94034 0.0454545 3.19602 0.136364C3.45455 0.224432 3.6875 0.340909 3.89489 0.485795C4.10511 0.627841 4.28977 0.778409 4.44886 0.9375C4.55114 1.03125 4.64489 1.12784 4.73011 1.22727C4.81818 1.3267 4.90057 1.4233 4.97727 1.51705C5.04545 1.4233 5.1179 1.33097 5.1946 1.24006C5.27131 1.14915 5.36932 1.0483 5.48864 0.9375C5.72727 0.698864 6.02131 0.482954 6.37074 0.289773C6.72301 0.0965909 7.13352 0 7.60227 0C8.03409 0 8.42614 0.105114 8.77841 0.315341C9.13352 0.522727 9.41477 0.803977 9.62216 1.15909C9.83239 1.51136 9.9375 1.90341 9.9375 2.33523C9.9375 2.66193 9.87642 2.96875 9.75426 3.25568C9.63494 3.53977 9.46875 3.78977 9.25568 4.00568C9.04261 4.21875 8.79403 4.38636 8.50994 4.50852C8.22869 4.62784 7.92614 4.6875 7.60227 4.6875C7.28977 4.6875 7.00284 4.64347 6.74148 4.5554C6.48295 4.46449 6.24858 4.34943 6.03835 4.21023C5.83097 4.06818 5.64773 3.92045 5.48864 3.76705C5.38636 3.66477 5.29261 3.56392 5.20739 3.46449C5.12216 3.36222 5.04545 3.2642 4.97727 3.17045C4.90057 3.2642 4.81818 3.36222 4.73011 3.46449C4.64489 3.56392 4.55114 3.66477 4.44886 3.76705C4.28977 3.92045 4.10511 4.06818 3.89489 4.21023C3.6875 4.34943 3.45455 4.46449 3.19602 4.5554C2.94034 4.64347 2.65909 4.6875 2.35227 4.6875C1.91477 4.6875 1.51847 4.58239 1.16335 4.37216C0.808239 4.16193 0.525568 3.87926 0.315341 3.52415C0.105114 3.16903 0 2.77273 0 2.33523C0 2.01136 0.0596591 1.70881 0.178977 1.42756C0.301136 1.14347 0.46875 0.894886 0.681818 0.681818C0.897727 0.46875 1.14773 0.302557 1.43182 0.183239C1.71875 0.0610795 2.02557 0 2.35227 0ZM0.971591 2.33523C0.971591 2.59091 1.03267 2.82386 1.15483 3.03409C1.27983 3.24148 1.44602 3.40767 1.65341 3.53267C1.86364 3.65483 2.09659 3.71591 2.35227 3.71591C2.63352 3.71591 2.89062 3.65199 3.12358 3.52415C3.35653 3.39631 3.57102 3.23864 3.76705 3.05114C3.89489 2.9233 4.0071 2.79972 4.10369 2.6804C4.20028 2.56108 4.28693 2.44602 4.36364 2.33523C4.28693 2.23295 4.2017 2.12358 4.10795 2.0071C4.01705 1.88778 3.90341 1.7642 3.76705 1.63636C3.57955 1.44886 3.36648 1.29119 3.12784 1.16335C2.89205 1.03551 2.63352 0.971591 2.35227 0.971591C2.09659 0.971591 1.86364 1.03409 1.65341 1.15909C1.44602 1.28125 1.27983 1.44602 1.15483 1.65341C1.03267 1.85795 0.971591 2.08523 0.971591 2.33523ZM8.96591 2.33523C8.96591 2.08523 8.90341 1.85795 8.77841 1.65341C8.65625 1.44602 8.49148 1.28125 8.28409 1.15909C8.07955 1.03409 7.85227 0.971591 7.60227 0.971591C7.40909 0.971591 7.22727 1.00142 7.05682 1.06108C6.88636 1.1179 6.72727 1.19744 6.57955 1.29972C6.43182 1.39915 6.29545 1.51136 6.17045 1.63636C6.01705 1.78125 5.8892 1.92188 5.78693 2.05824C5.6875 2.19176 5.61648 2.28409 5.57386 2.33523C5.65057 2.44602 5.73722 2.56108 5.83381 2.6804C5.9304 2.79972 6.04261 2.9233 6.17045 3.05114C6.36648 3.23864 6.58097 3.39631 6.81392 3.52415C7.04972 3.65199 7.3125 3.71591 7.60227 3.71591C7.85227 3.71591 8.07955 3.65483 8.28409 3.53267C8.49148 3.40767 8.65625 3.24148 8.77841 3.03409C8.90341 2.82386 8.96591 2.59091 8.96591 2.33523Z" fill="black"/>
</svg>
