<svg width="21" height="21" viewBox="0 0 21 21" fill="none" xmlns="http://www.w3.org/2000/svg">
<path d="M0 10.5C0 4.70101 4.70101 0 10.5 0C16.299 0 21 4.70101 21 10.5C21 16.299 16.299 21 10.5 21C4.70101 21 0 16.299 0 10.5Z" fill="#E9EEEF"/>
<path fill-rule="evenodd" clip-rule="evenodd" d="M10.5001 5.875C13.0541 5.875 15.1251 7.9455 15.1251 10.5C15.1251 13.054 13.0541 15.125 10.5001 15.125C7.94556 15.125 5.87506 13.054 5.87506 10.5C5.87506 7.9455 7.94556 5.875 10.5001 5.875Z" stroke="#091229" stroke-width="0.8" stroke-linecap="round" stroke-linejoin="round"/>
<path d="M10.4976 8.60156V10.8111" stroke="#091229" stroke-width="0.8" stroke-linecap="round" stroke-linejoin="round"/>
<path d="M10.4975 12.3984H10.5025" stroke="#091229" stroke-width="0.8" stroke-linecap="round" stroke-linejoin="round"/>
</svg>
