<svg width="48" height="48" viewBox="0 0 48 48" fill="none" xmlns="http://www.w3.org/2000/svg">
<rect x="0.5" y="0.5" width="47" height="47" rx="14.5" stroke="url(#paint0_linear_11154_24267)"/>
<path d="M17.251 21.5898V17.7408C17.3 15.6608 19.005 14.0028 21.085 14.0118H27.737L32.803 19.2898V28.5898C32.803 32.3648 29.142 32.3438 27.073 32.3648" stroke="white" stroke-width="1.3" stroke-linecap="round" stroke-linejoin="round"/>
<path d="M27.4736 14V16.909C27.4736 18.329 28.6226 19.48 30.0426 19.484H32.7966" stroke="white" stroke-width="1.3" stroke-linecap="round" stroke-linejoin="round"/>
<path fill-rule="evenodd" clip-rule="evenodd" d="M21 23.25C23.7611 23.25 26 25.4884 26 28.25C26 31.0111 23.7611 33.25 21 33.25C18.2384 33.25 16 31.0111 16 28.25C16 25.4884 18.2384 23.25 21 23.25Z" stroke="white" stroke-width="1.1" stroke-linecap="round" stroke-linejoin="round"/>
<path d="M20.9968 26.2031V28.5918" stroke="white" stroke-width="1.1" stroke-linecap="round" stroke-linejoin="round"/>
<path d="M20.9971 30.3054H21.0025" stroke="white" stroke-width="1.1" stroke-linecap="round" stroke-linejoin="round"/>
<defs>
<linearGradient id="paint0_linear_11154_24267" x1="24" y1="0" x2="24" y2="48" gradientUnits="userSpaceOnUse">
<stop stop-color="#2F2F2F"/>
<stop offset="0.5" stop-color="#191919"/>
<stop offset="1" stop-color="#151515"/>
</linearGradient>
</defs>
</svg>
