<svg width="18" height="18" viewBox="0 0 18 18" fill="none" xmlns="http://www.w3.org/2000/svg">
<path fill-rule="evenodd" clip-rule="evenodd" d="M10.8579 3.33157L16.3095 12.7929C16.4295 13.0753 16.482 13.305 16.497 13.5435C16.527 14.1009 16.332 14.6427 15.9496 15.0596C15.5671 15.475 15.0497 15.7203 14.4873 15.75H3.50918C3.27672 15.7359 3.04426 15.6831 2.82679 15.6014C1.73948 15.1629 1.21456 13.9292 1.65699 12.8598L7.14606 3.32488C7.33353 2.98971 7.61848 2.70061 7.97093 2.51482C8.99075 1.94927 10.288 2.32085 10.8579 3.33157ZM9.65064 9.5668C9.65064 9.92352 9.35819 10.2215 8.99825 10.2215C8.63831 10.2215 8.33836 9.92352 8.33836 9.5668V7.46436C8.33836 7.10689 8.63831 6.8178 8.99825 6.8178C9.35819 6.8178 9.65064 7.10689 9.65064 7.46436V9.5668ZM8.99825 12.7632C8.63831 12.7632 8.33836 12.4652 8.33836 12.1092C8.33836 11.7517 8.63831 11.4545 8.99825 11.4545C9.35819 11.4545 9.65064 11.745 9.65064 12.101C9.65064 12.4652 9.35819 12.7632 8.99825 12.7632Z" fill="#FFD600"/>
</svg>
