<svg width="24" height="24" viewBox="0 0 24 24" fill="none" xmlns="http://www.w3.org/2000/svg">
<path d="M12 0.25C14.1041 0.25 15.6672 0.250433 16.9053 0.351562C17.9862 0.439879 18.8029 0.603764 19.5 0.90332L19.791 1.04004C21.0699 1.69168 22.1246 2.70761 22.8242 3.95605L22.96 4.20898C23.3476 4.96995 23.5475 5.85976 23.6484 7.09473C23.7496 8.33277 23.75 9.89587 23.75 12C23.75 14.1041 23.7496 15.6672 23.6484 16.9053C23.5601 17.9862 23.3962 18.8029 23.0967 19.5L22.96 19.791C22.3083 21.0699 21.2924 22.1246 20.0439 22.8242L19.791 22.96C19.0301 23.3476 18.1402 23.5475 16.9053 23.6484C15.6672 23.7496 14.1041 23.75 12 23.75C9.89587 23.75 8.33277 23.7496 7.09473 23.6484C6.01378 23.5601 5.19707 23.3962 4.5 23.0967L4.20898 22.96C2.93007 22.3083 1.87536 21.2924 1.17578 20.0439L1.04004 19.791C0.652396 19.0301 0.452463 18.1402 0.351562 16.9053C0.250433 15.6672 0.25 14.1041 0.25 12C0.25 9.89587 0.250433 8.33277 0.351562 7.09473C0.439879 6.01378 0.603764 5.19707 0.90332 4.5L1.04004 4.20898C1.69168 2.93007 2.70761 1.87536 3.95605 1.17578L4.20898 1.04004C4.96995 0.652396 5.85976 0.452463 7.09473 0.351562C8.33277 0.250433 9.89587 0.25 12 0.25Z" stroke="white" stroke-width="0.5"/>
<path fill-rule="evenodd" clip-rule="evenodd" d="M12 7.375C14.554 7.375 16.625 9.4455 16.625 12C16.625 14.554 14.554 16.625 12 16.625C9.4455 16.625 7.375 14.554 7.375 12C7.375 9.4455 9.4455 7.375 12 7.375Z" stroke="white" stroke-width="0.75" stroke-linecap="round" stroke-linejoin="round"/>
<path d="M11.9976 10.1016V12.3111" stroke="white" stroke-width="0.75" stroke-linecap="round" stroke-linejoin="round"/>
<path d="M11.9975 13.8984H12.0025" stroke="white" stroke-linecap="round" stroke-linejoin="round"/>
</svg>
