<svg width="50" height="50" viewBox="0 0 50 50" fill="none" xmlns="http://www.w3.org/2000/svg">
<path d="M34 0.5C42.5604 0.5 49.5 7.43959 49.5 16V34C49.5 42.5604 42.5604 49.5 34 49.5H16C7.43959 49.5 0.5 42.5604 0.5 34V16C0.5 7.43959 7.43959 0.5 16 0.5H34Z" fill="white"/>
<path d="M34 0.5C42.5604 0.5 49.5 7.43959 49.5 16V34C49.5 42.5604 42.5604 49.5 34 49.5H16C7.43959 49.5 0.5 42.5604 0.5 34V16C0.5 7.43959 7.43959 0.5 16 0.5H34Z" stroke="#E8E8E8"/>
<path d="M18.251 22.5898V18.7408C18.3 16.6608 20.005 15.0028 22.085 15.0118H28.737L33.803 20.2898V29.5898C33.803 33.3648 30.142 33.3438 28.073 33.3648" stroke="#091229" stroke-width="1.3" stroke-linecap="round" stroke-linejoin="round"/>
<path d="M28.4736 15V17.909C28.4736 19.329 29.6226 20.48 31.0426 20.484H33.7966" stroke="#091229" stroke-width="1.3" stroke-linecap="round" stroke-linejoin="round"/>
<path fill-rule="evenodd" clip-rule="evenodd" d="M22 24.25C24.7611 24.25 27 26.4884 27 29.25C27 32.0111 24.7611 34.25 22 34.25C19.2384 34.25 17 32.0111 17 29.25C17 26.4884 19.2384 24.25 22 24.25Z" stroke="#091229" stroke-width="1.1" stroke-linecap="round" stroke-linejoin="round"/>
<path d="M21.9978 27.2012V29.5898" stroke="#091229" stroke-width="1.1" stroke-linecap="round" stroke-linejoin="round"/>
<path d="M21.998 31.3035H22.0034" stroke="#091229" stroke-width="1.1" stroke-linecap="round" stroke-linejoin="round"/>
</svg>
