<svg width="34" height="34" viewBox="0 0 34 34" fill="none" xmlns="http://www.w3.org/2000/svg">
<circle cx="16.5" cy="16.5" r="7.5" fill="black"/>
<path fill-rule="evenodd" clip-rule="evenodd" d="M4.56012 17.3315C4.47247 17.2425 4.42334 17.1226 4.42334 16.9977C4.42334 16.8728 4.47247 16.7529 4.56012 16.6639L6.2416 14.9826C6.45036 14.775 6.60044 14.5158 6.67656 14.2314C6.75268 13.947 6.75213 13.6476 6.67497 13.3634L6.05983 11.0667C6.02818 10.9457 6.0455 10.8172 6.10801 10.7089C6.17052 10.6006 6.2732 10.5213 6.39378 10.4882L8.69051 9.87301C8.97557 9.79883 9.23568 9.64994 9.444 9.4417C9.65233 9.23346 9.80132 8.97342 9.87562 8.68839L10.4908 6.39193C10.5242 6.27145 10.6035 6.16887 10.7117 6.10622C10.8199 6.04356 10.9483 6.02583 11.0694 6.05683L13.3667 6.67345C13.6507 6.7504 13.95 6.75074 14.2342 6.67441C14.5184 6.59809 14.7772 6.44783 14.9845 6.23893L16.6658 4.55772C16.755 4.47003 16.8751 4.4209 17.0002 4.4209C17.1254 4.4209 17.2455 4.47003 17.3347 4.55772L19.016 6.23904C19.2232 6.44794 19.4821 6.59821 19.7663 6.67454C20.0505 6.75087 20.3498 6.75053 20.6338 6.67356L22.9305 6.05716C23.0516 6.02613 23.1801 6.04385 23.2883 6.10651C23.3965 6.16917 23.4758 6.27176 23.5092 6.39226L24.1243 8.68899C24.1989 8.97391 24.348 9.23381 24.5564 9.44192C24.7649 9.65004 25.025 9.79884 25.31 9.87301L27.6067 10.4882C27.7272 10.5214 27.8298 10.6007 27.8922 10.709C27.9547 10.8173 27.9721 10.9458 27.9406 11.0667L27.3254 13.3634C27.2483 13.6475 27.2477 13.947 27.3238 14.2314C27.3999 14.5158 27.5499 14.775 27.7587 14.9826L29.44 16.6639C29.5276 16.7529 29.5768 16.8728 29.5768 16.9977C29.5768 17.1226 29.5276 17.2425 29.44 17.3315L27.7587 19.0128C27.55 19.2205 27.3999 19.4796 27.3238 19.764C27.2477 20.0484 27.2483 20.3479 27.3254 20.632L27.9406 22.9287C27.9721 23.0497 27.9548 23.1782 27.8923 23.2865C27.8299 23.3948 27.7272 23.4741 27.6067 23.5073L25.31 24.1222C25.0248 24.1964 24.7646 24.3453 24.5562 24.5535C24.3477 24.7617 24.1986 25.0218 24.1241 25.3068L23.509 27.6035C23.4756 27.724 23.3963 27.8266 23.2881 27.8893C23.1799 27.9519 23.0514 27.9696 22.9303 27.9386L20.6336 27.3222C20.3496 27.2452 20.0502 27.2449 19.7661 27.3212C19.4819 27.3976 19.223 27.5478 19.0158 27.7567L17.3345 29.438C17.2453 29.5257 17.1251 29.5749 17 29.5749C16.8749 29.5749 16.7548 29.5257 16.6656 29.438L14.9843 27.7567C14.8306 27.601 14.6475 27.4773 14.4457 27.3928C14.2439 27.3083 14.0273 27.2647 13.8086 27.2646C13.6593 27.2644 13.5108 27.2838 13.3666 27.3223L11.0699 27.9387C10.9487 27.9699 10.8201 27.9523 10.7117 27.8897C10.6034 27.827 10.524 27.7243 10.4907 27.6036L9.87557 25.3069C9.80126 25.0219 9.65226 24.7618 9.44393 24.5536C9.23561 24.3453 8.97551 24.1964 8.69046 24.1223L6.39373 23.5071C6.27313 23.474 6.17043 23.3947 6.10792 23.2864C6.0454 23.1781 6.0281 23.0495 6.05977 22.9286L6.67491 20.6318C6.75207 20.3477 6.75262 20.0482 6.6765 19.7638C6.60038 19.4794 6.45031 19.2203 6.24154 19.0127L4.56012 17.3315ZM10.6787 16.998C10.6787 18.2482 11.0495 19.4703 11.7441 20.5097C12.4388 21.5492 13.426 22.3594 14.5811 22.8377C15.7361 23.3161 17.0071 23.4412 18.2333 23.1973C19.4595 22.9533 20.5857 22.3512 21.4697 21.4672C22.3537 20.5831 22.9557 19.4568 23.1995 18.2306C23.4434 17.0044 23.3182 15.7334 22.8397 14.5784C22.3612 13.4234 21.551 12.4362 20.5115 11.7417C19.4719 11.0471 18.2498 10.6764 16.9996 10.6765C15.3236 10.6783 13.7169 11.3449 12.5318 12.53C11.3468 13.7152 10.6803 15.322 10.6787 16.998Z" fill="white"/>
<path fill-rule="evenodd" clip-rule="evenodd" d="M17.0567 3H16.9441C16.4614 3.01334 16.0021 3.21097 15.6605 3.55231L13.9792 5.23384C13.9496 5.26776 13.9105 5.29216 13.8671 5.30398C13.8236 5.31579 13.7776 5.31448 13.7349 5.30023L11.4378 4.68509C10.9525 4.55542 10.4356 4.62363 10.0006 4.87474C9.56559 5.12586 9.24802 5.53935 9.11762 6.02441L8.50237 8.32114C8.49323 8.36526 8.47137 8.40574 8.43948 8.43758C8.4076 8.46941 8.36708 8.49121 8.32295 8.50029L6.02622 9.11548C5.54131 9.24621 5.12801 9.56383 4.87688 9.99875C4.62575 10.4337 4.55727 10.9504 4.68646 11.4357L5.30215 13.7325C5.31636 13.7753 5.31772 13.8214 5.30606 13.865C5.2944 13.9087 5.27023 13.9479 5.23653 13.978L3.5551 15.659C3.20027 16.0144 3.00098 16.4961 3.00098 16.9983C3.00098 17.5005 3.20027 17.9822 3.5551 18.3376L5.23603 20.0189C5.26992 20.0488 5.29426 20.0881 5.30603 20.1317C5.31779 20.1754 5.31646 20.2216 5.3022 20.2645L4.68651 22.5612C4.55731 23.0465 4.62578 23.5633 4.87691 23.9982C5.12804 24.4331 5.54136 24.7508 6.02627 24.8815L8.323 25.4966C8.36714 25.5057 8.40765 25.5275 8.43954 25.5593C8.47142 25.5912 8.49328 25.6317 8.50242 25.6758L9.11767 27.9725C9.24801 28.4576 9.56557 28.8711 10.0006 29.1223C10.4356 29.3734 10.9526 29.4415 11.4378 29.3118L13.7349 28.6966C13.7777 28.6826 13.8236 28.6814 13.867 28.6932C13.9105 28.705 13.9495 28.7293 13.9792 28.763L15.6606 30.4437C16.0164 30.7983 16.4982 30.9975 17.0005 30.9975C17.5029 30.9975 17.9847 30.7983 18.3405 30.4437L20.0205 28.7624C20.0504 28.7284 20.0896 28.704 20.1333 28.6922C20.177 28.6804 20.2231 28.6817 20.2661 28.696L22.5628 29.3111C23.0481 29.4409 23.565 29.3728 24.0001 29.1217C24.4351 28.8705 24.7527 28.457 24.883 27.9719L25.4982 25.6751C25.5074 25.631 25.5292 25.5906 25.561 25.5588C25.5928 25.5269 25.6333 25.5051 25.6774 25.496L27.9751 24.8808C28.4599 24.7499 28.873 24.4323 29.1241 23.9974C29.3751 23.5625 29.4435 23.0458 29.3144 22.5605L28.698 20.2641C28.6843 20.2211 28.6832 20.1751 28.695 20.1315C28.7068 20.0879 28.7309 20.0487 28.7644 20.0185L30.4457 18.3372C30.8007 17.9819 31.0001 17.5001 31.0001 16.9979C31.0001 16.4956 30.8007 16.0139 30.4457 15.6586L28.7644 13.9773C28.7309 13.9471 28.7068 13.9079 28.695 13.8643C28.6832 13.8207 28.6843 13.7747 28.698 13.7317L29.3144 11.435C29.4435 10.9498 29.3751 10.4331 29.1241 9.99822C28.873 9.56333 28.4599 9.24565 27.9751 9.11477L25.6774 8.49957C25.6333 8.49044 25.5928 8.46862 25.561 8.43678C25.5292 8.40495 25.5074 8.36451 25.4982 8.32043L24.883 6.02397C24.7527 5.53884 24.4351 5.12527 24.0001 4.87414C23.565 4.62301 23.0481 4.55486 22.5628 4.68465L20.2661 5.29979C20.2231 5.31405 20.177 5.31536 20.1333 5.30355C20.0896 5.29175 20.0504 5.26735 20.0205 5.23341L18.3401 3.55253C17.9986 3.21115 17.5394 3.01345 17.0567 3ZM16.9998 23.1008C18.2068 23.1009 19.3868 22.7431 20.3905 22.0726C21.3941 21.402 22.1764 20.449 22.6384 19.3338C23.1004 18.2187 23.2213 16.9916 22.9859 15.8078C22.7505 14.6239 22.1693 13.5364 21.3158 12.6829C20.4624 11.8294 19.375 11.2481 18.1911 11.0126C17.0073 10.7771 15.7802 10.8979 14.665 11.3598C13.5499 11.8217 12.5967 12.6039 11.9261 13.6075C11.2555 14.6112 10.8976 15.7911 10.8976 16.9981C10.8994 18.6161 11.5429 20.1672 12.6869 21.3113C13.8309 22.4554 15.3819 23.0989 16.9998 23.1008ZM16.9998 9.25427C12.7301 9.25427 9.25695 12.7284 9.25695 16.9981C9.25695 21.2679 12.7301 24.742 16.9998 24.742C21.2695 24.742 24.7436 21.2678 24.7436 16.9981C24.7436 12.7285 21.2695 9.25427 16.9998 9.25427ZM29.2853 17.1773C29.3322 17.1295 29.3585 17.0651 29.3585 16.9981C29.3585 16.9311 29.3322 16.8668 29.2853 16.819L27.6039 15.1376C27.3675 14.9033 27.1975 14.6103 27.1114 14.2887C27.0253 13.9671 27.0262 13.6284 27.114 13.3072L27.7292 11.0105C27.7379 10.9785 27.74 10.945 27.7355 10.9121C27.731 10.8793 27.7199 10.8476 27.7029 10.8191C27.6696 10.7608 27.6146 10.718 27.5498 10.7001L25.2533 10.0849C24.9312 10.0005 24.6374 9.83206 24.4018 9.59673C24.1662 9.36139 23.9975 9.06767 23.9128 8.74565L23.2978 6.44914C23.2797 6.38457 23.2371 6.32961 23.1791 6.29592C23.1211 6.26223 23.0523 6.25246 22.9872 6.26868L20.6905 6.88508C20.3694 6.97307 20.0308 6.97395 19.7093 6.88763C19.3878 6.80132 19.0951 6.63092 18.8613 6.39397L17.1802 4.71265C17.1318 4.66623 17.0674 4.6403 17.0004 4.6403C16.9334 4.6403 16.869 4.66623 16.8206 4.71265L15.1393 6.39397C14.9055 6.63092 14.6128 6.80132 14.2913 6.88764C13.9699 6.97396 13.6312 6.97307 13.3101 6.88508L11.0129 6.26868C10.9478 6.25257 10.879 6.26239 10.8211 6.29606C10.7631 6.32973 10.7205 6.38463 10.7022 6.44914L10.0871 8.7456C10.0026 9.0676 9.834 9.36134 9.59856 9.59669C9.36313 9.83203 9.06933 10.0005 8.7473 10.0849L6.45057 10.7001C6.386 10.7182 6.33109 10.7608 6.29759 10.8189C6.2641 10.877 6.25468 10.9459 6.27137 11.0108L6.88651 13.3076C6.97451 13.6287 6.97552 13.9675 6.88942 14.2891C6.80331 14.6108 6.63321 14.9037 6.39654 15.1379L4.71495 16.819C4.66815 16.8669 4.64195 16.9312 4.64195 16.9981C4.64195 17.0651 4.66815 17.1294 4.71495 17.1773L6.39643 18.8586C6.63309 19.0928 6.8032 19.3858 6.8893 19.7074C6.9754 20.0291 6.9744 20.3678 6.8864 20.689L6.27126 22.9857C6.25462 23.0507 6.26407 23.1195 6.29759 23.1776C6.3311 23.2357 6.38601 23.2783 6.45057 23.2964L8.7473 23.9116C9.06932 23.9959 9.36312 24.1644 9.59855 24.3998C9.83399 24.6351 10.0026 24.9288 10.0871 25.2508L10.7022 27.5476C10.7203 27.6123 10.763 27.6674 10.8211 27.7011C10.8792 27.7348 10.9482 27.7445 11.0134 27.728L13.3101 27.1116C13.4728 27.0684 13.6405 27.0466 13.8088 27.0465C14.0564 27.0464 14.3015 27.0956 14.5299 27.1911C14.7583 27.2866 14.9655 27.4265 15.1393 27.6027L16.8206 29.2841C16.869 29.3305 16.9334 29.3564 17.0004 29.3564C17.0674 29.3564 17.1318 29.3305 17.1802 29.2841L18.8615 27.6027C19.0953 27.3658 19.388 27.1954 19.7095 27.1091C20.031 27.0228 20.3696 27.0236 20.6907 27.1116L22.9874 27.728C23.0525 27.7442 23.1213 27.7345 23.1793 27.7008C23.2373 27.6671 23.2799 27.6121 23.2981 27.5476L23.9132 25.2508C23.9979 24.9288 24.1667 24.6351 24.4022 24.3998C24.6378 24.1644 24.9317 23.996 25.2538 23.9116L27.5505 23.2964C27.6153 23.2786 27.6703 23.2357 27.7036 23.1774C27.7206 23.1489 27.7317 23.1172 27.7362 23.0843C27.7407 23.0515 27.7386 23.018 27.7299 22.986L27.1147 20.6893C27.0269 20.3681 27.026 20.0294 27.1121 19.7078C27.1982 19.3862 27.3682 19.0932 27.6047 18.8589L29.2853 17.1773Z" fill="url(#paint0_linear_7014_34379)"/>
<path fill-rule="evenodd" clip-rule="evenodd" d="M20.7524 14.2558C20.911 14.4203 21 14.6431 21 14.8754C21 15.1077 20.911 15.3305 20.7524 15.4951L16.6437 19.743C16.4869 19.9057 16.2745 19.998 16.0523 20C15.8302 20.002 15.6162 19.9135 15.4567 19.7538L13.2781 17.5842C13.1941 17.5054 13.1262 17.41 13.0785 17.3036C13.0309 17.1972 13.0043 17.082 13.0005 16.9648C12.9967 16.8476 13.0156 16.7308 13.0562 16.6213C13.0969 16.5118 13.1584 16.4119 13.237 16.3274C13.3157 16.2429 13.41 16.1756 13.5143 16.1295C13.6186 16.0834 13.7307 16.0594 13.8442 16.059C13.9576 16.0585 14.0699 16.0816 14.1746 16.1268C14.2792 16.1721 14.374 16.2386 14.4533 16.3224L16.0339 17.8963L19.5536 14.256C19.7128 14.0921 19.9283 14 20.1529 14C20.3776 14 20.5933 14.0918 20.7524 14.2558Z" fill="white"/>
<defs>
<linearGradient id="paint0_linear_7014_34379" x1="6.81904" y1="6.18153" x2="25.9081" y2="26.8626" gradientUnits="userSpaceOnUse">
<stop stop-color="#FFD600"/>
<stop offset="0.24" stop-color="#FF423E"/>
<stop offset="0.5" stop-color="#0166FF"/>
<stop offset="0.73" stop-color="#8904F9"/>
<stop offset="1" stop-color="#01FFE3"/>
</linearGradient>
</defs>
</svg>
