<svg width="34" height="34" viewBox="0 0 34 34" fill="none" xmlns="http://www.w3.org/2000/svg">
<path d="M24.6584 11.636H29C28.3539 10.2225 27.4484 8.92133 26.3066 7.79151C25.1017 6.59936 23.7041 5.66773 22.1836 5.0232C22.4376 5.41679 22.6804 5.8415 22.9101 6.2976C23.6891 7.84395 24.2792 9.66007 24.6584 11.636ZM22.9101 27.7024C22.6804 28.1585 22.4376 28.5832 22.1836 28.9768C23.7041 28.3323 25.1017 27.4006 26.3066 26.2085C27.4484 25.0787 28.3539 23.7775 29 22.364H24.6584C24.2792 24.34 23.6891 26.1561 22.9101 27.7024ZM17.7712 22.364V30C18.3626 29.9666 18.9511 29.894 19.5327 29.7826C20.2694 29.1187 20.9406 28.1911 21.5298 27.0216C22.2103 25.6707 22.7354 24.0895 23.0881 22.364L17.7712 22.364ZM21.5298 6.9785C20.9406 5.80894 20.2694 4.88138 19.5327 4.21742C18.9511 4.10605 18.3626 4.03345 17.7712 4.0001V11.6361H23.0881C22.7354 9.9105 22.2103 8.32931 21.5298 6.9785ZM16.2288 11.636V4C15.6374 4.03334 15.0489 4.1059 14.4674 4.21722C13.7306 4.88117 13.0594 5.80879 12.4702 6.97845C11.7897 8.32926 11.2646 9.91045 10.9118 11.636H16.2288ZM12.4702 27.0216C13.0594 28.1912 13.7306 29.1188 14.4674 29.7828C15.0489 29.8941 15.6374 29.9667 16.2288 30V22.364H10.9118C11.2646 24.0895 11.7897 25.6707 12.4702 27.0216ZM11.0898 6.29765C11.3196 5.8415 11.5624 5.41679 11.8164 5.02315C10.296 5.66768 8.89826 6.59936 7.69342 7.79151C6.55156 8.92133 5.64615 10.2225 5 11.636H9.34159C9.7207 9.66007 10.3108 7.84395 11.0898 6.29765ZM9.34154 22.364H5C5.64615 23.7775 6.55156 25.0787 7.69342 26.2085C8.89826 27.4007 10.296 28.3323 11.8164 28.9769C11.5624 28.5833 11.3196 28.1586 11.0898 27.7024C10.3108 26.1561 9.7207 24.34 9.34154 22.364Z" fill="white"/>
<rect x="7" y="14" width="20" height="7" fill="white"/>
<path d="M29.2388 13H4.76116C4.3408 13 4 13.3561 4 13.7953V20.2047C4 20.6439 4.3408 21 4.76116 21H29.2388C29.6592 21 30 20.6439 30 20.2047V13.7953C30 13.3561 29.6592 13 29.2388 13ZM12.8872 15.3989L12.1775 18.8339C12.1712 18.8643 12.1629 18.8942 12.1526 18.9234C12.049 19.2169 11.787 19.4081 11.4851 19.4103L11.4797 19.4104C11.18 19.4104 10.9179 19.2237 10.8109 18.9335C10.8074 18.9241 10.8042 18.9147 10.8012 18.9052L10.3014 17.3426L9.79938 18.9051C9.7974 18.9112 9.79537 18.9173 9.79319 18.9235C9.68957 19.217 9.42763 19.4081 9.1258 19.4104L9.12032 19.4104C8.82068 19.4104 8.55859 19.2238 8.45152 18.9335C8.43964 18.9013 8.43017 18.8681 8.4232 18.8343L7.71629 15.3919C7.64281 15.034 7.86091 14.6816 8.20338 14.6049C8.5459 14.5279 8.88314 14.7559 8.95662 15.1138L9.23845 16.4862L9.6881 15.0869C9.74026 14.8771 9.88935 14.6981 10.1008 14.6243C10.4331 14.5082 10.7924 14.6956 10.9034 15.0428L11.3649 16.4857L11.6472 15.1194C11.7211 14.7617 12.0586 14.5342 12.401 14.6115C12.7434 14.6885 12.9611 15.0412 12.8872 15.3989ZM19.5854 15.3989L18.8757 18.8339C18.8694 18.8643 18.8611 18.8942 18.8508 18.9234C18.7472 19.2169 18.4852 19.4081 18.1834 19.4103L18.1779 19.4104C17.8782 19.4104 17.6161 19.2237 17.5091 18.9335C17.5056 18.9241 17.5024 18.9147 17.4994 18.9052L17 17.3437L16.9996 17.3426L16.4975 18.9051C16.4956 18.9112 16.4935 18.9173 16.4913 18.9235C16.3877 19.217 16.1258 19.4081 15.824 19.4104L15.8185 19.4104C15.5188 19.4104 15.2567 19.2238 15.1497 18.9335C15.1378 18.9013 15.1283 18.8681 15.1214 18.8343L14.4144 15.3919C14.341 15.034 14.5591 14.6816 14.9015 14.6049C15.2442 14.5279 15.5813 14.7559 15.6548 15.1138L15.9366 16.4862L16.3863 15.0869C16.4384 14.8771 16.5875 14.6981 16.799 14.6243C16.8638 14.6018 16.9316 14.5903 16.9999 14.5904C17.2653 14.5904 17.5128 14.7653 17.6016 15.0428L18.063 16.4857L18.3453 15.1194C18.4193 14.7617 18.7567 14.5342 19.0992 14.6115C19.4416 14.6885 19.6593 15.0412 19.5854 15.3989ZM26.2836 15.3989L25.5739 18.8339C25.5676 18.8643 25.5593 18.8942 25.549 18.9234C25.4454 19.2169 25.1834 19.4081 24.8816 19.4103L24.8761 19.4104C24.5764 19.4104 24.3143 19.2237 24.2073 18.9335C24.2038 18.9241 24.2006 18.9147 24.1976 18.9052L23.6979 17.3426L23.1958 18.9051C23.1938 18.9112 23.1918 18.9173 23.1896 18.9235C23.086 19.217 22.824 19.4081 22.5222 19.4104L22.5167 19.4104C22.2171 19.4104 21.955 19.2238 21.8479 18.9335C21.8361 18.9013 21.8266 18.8681 21.8196 18.8343L21.1127 15.3919C21.0392 15.034 21.2573 14.6816 21.5998 14.6049C21.9424 14.5279 22.2796 14.7559 22.353 15.1138L22.6349 16.4862L23.0845 15.0869C23.1367 14.8771 23.2858 14.6981 23.4972 14.6243C23.8294 14.5082 24.1888 14.6956 24.2998 15.0428L24.7613 16.4857L25.0436 15.1194C25.1175 14.7617 25.455 14.5342 25.7974 14.6115C26.1399 14.6885 26.3575 15.0412 26.2836 15.3989Z" fill="url(#paint0_linear_9442_8881)"/>
<circle cx="17" cy="17" r="15.5" stroke="url(#paint1_linear_9442_8881)"/>
<defs>
<linearGradient id="paint0_linear_9442_8881" x1="7.54545" y1="13.9091" x2="10.4218" y2="24.0362" gradientUnits="userSpaceOnUse">
<stop stop-color="#FFD600"/>
<stop offset="0.24" stop-color="#FF423E"/>
<stop offset="0.5" stop-color="#0166FF"/>
<stop offset="0.73" stop-color="#8904F9"/>
<stop offset="1" stop-color="#01FFE3"/>
</linearGradient>
<linearGradient id="paint1_linear_9442_8881" x1="5.36364" y1="4.63636" x2="27.1818" y2="28.2727" gradientUnits="userSpaceOnUse">
<stop stop-color="#FFD600"/>
<stop offset="0.24" stop-color="#FF423E"/>
<stop offset="0.5" stop-color="#0166FF"/>
<stop offset="0.73" stop-color="#8904F9"/>
<stop offset="1" stop-color="#01FFE3"/>
</linearGradient>
</defs>
</svg>
