<svg width="36" height="36" viewBox="0 0 36 36" fill="none" xmlns="http://www.w3.org/2000/svg">
<path d="M18 32.5C14.7005 32.5 12.2698 32.499 10.3857 32.2764C8.51275 32.055 7.24466 31.6205 6.24219 30.7979C5.86243 30.4862 5.51381 30.1376 5.20215 29.7578C4.37953 28.7553 3.94503 27.4872 3.72363 25.6143C3.50097 23.7302 3.5 21.2995 3.5 18C3.5 14.7005 3.50097 12.2698 3.72363 10.3857C3.94503 8.51275 4.37953 7.24466 5.20215 6.24219C5.51381 5.86243 5.86243 5.51381 6.24219 5.20215C7.24466 4.37953 8.51275 3.94503 10.3857 3.72363C12.2698 3.50097 14.7005 3.5 18 3.5C21.2995 3.5 23.7302 3.50097 25.6143 3.72363C27.4872 3.94503 28.7553 4.37953 29.7578 5.20215C30.1376 5.51381 30.4862 5.86243 30.7979 6.24219C31.6205 7.24466 32.055 8.51275 32.2764 10.3857C32.499 12.2698 32.5 14.7005 32.5 18C32.5 21.2995 32.499 23.7302 32.2764 25.6143C32.055 27.4872 31.6205 28.7553 30.7979 29.7578C30.4862 30.1376 30.1376 30.4862 29.7578 30.7979C28.7553 31.6205 27.4872 32.055 25.6143 32.2764C23.7302 32.499 21.2995 32.5 18 32.5Z" stroke="#09B96D"/>
<path d="M28 18C28 17.3053 27.7053 16.6316 27.2 16.1684C26.8842 15.8737 26.7579 15.4105 26.8842 14.9895C27.0947 14.3158 27.0105 13.6 26.6737 12.9895C26.3158 12.3789 25.7263 11.9579 25.0526 11.8105C24.6316 11.7263 24.2947 11.3895 24.1895 10.9474C24.0421 10.2737 23.6 9.68421 23.0105 9.32632C22.4 8.96842 21.6842 8.90526 21.0105 9.11579C20.5895 9.24211 20.1263 9.11579 19.8316 8.8C19.3684 8.29474 18.6947 8 18 8C17.3053 8 16.6316 8.29474 16.1684 8.8C15.8737 9.11579 15.4105 9.24211 14.9895 9.11579C14.3158 8.90526 13.6 8.98947 12.9895 9.32632C12.3789 9.68421 11.9579 10.2737 11.8105 10.9474C11.7263 11.3684 11.3895 11.7053 10.9474 11.8105C10.2737 11.9579 9.68421 12.4 9.32632 12.9895C8.96842 13.6 8.90526 14.3158 9.11579 14.9895C9.24211 15.4105 9.11579 15.8737 8.8 16.1684C8.29474 16.6316 8 17.3053 8 18C8 18.6947 8.29474 19.3684 8.8 19.8316C9.11579 20.1263 9.24211 20.5895 9.11579 21.0105C8.90526 21.6842 8.98947 22.4 9.32632 23.0105C9.68421 23.6211 10.2737 24.0421 10.9474 24.1895C11.3684 24.2737 11.7053 24.6105 11.8105 25.0526C11.9579 25.7263 12.4 26.3158 12.9895 26.6737C13.6 27.0316 14.3158 27.0947 14.9895 26.8842C15.4105 26.7579 15.8737 26.8842 16.1684 27.2C16.6316 27.7053 17.3053 28 18 28C18.6947 28 19.3684 27.7053 19.8316 27.2C20.1263 26.8842 20.5895 26.7579 21.0105 26.8842C21.6842 27.0947 22.4 27.0105 23.0105 26.6737C23.6211 26.3158 24.0421 25.7263 24.1895 25.0526C24.2737 24.6316 24.6105 24.2947 25.0526 24.1895C25.7263 24.0421 26.3158 23.6 26.6737 23.0105C27.0316 22.4 27.0947 21.6842 26.8842 21.0105C26.7579 20.5895 26.8842 20.1263 27.2 19.8316C27.7053 19.3684 28 18.6947 28 18ZM26.2737 18.8211C25.5579 19.4737 25.2842 20.4842 25.5789 21.4105C25.6842 21.7053 25.6421 22.0421 25.4737 22.3158C25.3053 22.5895 25.0526 22.7789 24.7368 22.8632C23.7895 23.0737 23.0526 23.8105 22.8421 24.7579C22.7789 25.0737 22.5895 25.3263 22.3158 25.4947C22.0421 25.6632 21.7263 25.6842 21.4105 25.6C20.4842 25.3053 19.4737 25.5789 18.8211 26.2947C18.4 26.7579 17.6 26.7579 17.1579 26.2947C16.6737 25.7684 16 25.4947 15.3263 25.4947C15.0737 25.4947 14.8211 25.5368 14.5895 25.6C14.2737 25.7053 13.9579 25.6632 13.6842 25.4947C13.4105 25.3263 13.2211 25.0737 13.1368 24.7579C12.9263 23.8105 12.1895 23.0737 11.2421 22.8632C10.9263 22.8 10.6737 22.6105 10.5053 22.3158C10.3368 22.0421 10.3158 21.7263 10.4 21.4105C10.6947 20.4842 10.4211 19.4737 9.70526 18.8211C9.49474 18.6105 9.36842 18.3158 9.36842 18C9.36842 17.6842 9.49474 17.3895 9.72632 17.1789C10.4421 16.5263 10.7158 15.5158 10.4211 14.5895C10.3158 14.2947 10.3579 13.9579 10.5263 13.6842C10.6947 13.4105 10.9474 13.2211 11.2632 13.1579C12.2105 12.9474 12.9474 12.2105 13.1579 11.2632C13.2211 10.9474 13.4105 10.6947 13.6842 10.5263C13.9579 10.3579 14.2737 10.3368 14.5895 10.4211C15.5158 10.7158 16.5263 10.4421 17.1789 9.72632C17.3895 9.49474 17.6842 9.36842 18 9.36842C18.3158 9.36842 18.6105 9.49474 18.8211 9.72632C19.4737 10.4421 20.4842 10.7158 21.4105 10.4211C21.7053 10.3158 22.0421 10.3579 22.3158 10.5263C22.5895 10.6947 22.7789 10.9474 22.8421 11.2632C23.0526 12.2105 23.7895 12.9474 24.7368 13.1579C25.0526 13.2211 25.3053 13.4105 25.4737 13.6842C25.6421 13.9579 25.6632 14.2737 25.5789 14.5895C25.2842 15.5158 25.5579 16.5263 26.2737 17.1789C26.5053 17.3895 26.6316 17.6842 26.6316 18C26.6316 18.3158 26.5053 18.6105 26.2737 18.8211Z" fill="#09B96D"/>
<path d="M17.9998 11.9805C14.6735 11.9805 11.9788 14.6752 11.9788 18.0015C11.9788 21.3278 14.6735 24.0226 17.9998 24.0226C21.3261 24.0226 24.0209 21.3278 24.0209 18.0015C24.0209 14.6752 21.3261 11.9805 17.9998 11.9805ZM20.463 17.1594L17.8103 19.812C17.684 19.9384 17.4945 20.0015 17.3261 20.0015C17.1577 20.0015 16.9682 19.9384 16.8419 19.812L15.5156 18.4857C15.2419 18.212 15.2419 17.791 15.5156 17.5173C15.7893 17.2436 16.2103 17.2436 16.484 17.5173L17.3261 18.3594L19.4945 16.191C19.7682 15.9173 20.1893 15.9173 20.463 16.191C20.7367 16.4647 20.7367 16.8857 20.463 17.1594Z" fill="#09B96D"/>
</svg>
