<svg width="30" height="30" viewBox="0 0 30 30" fill="none" xmlns="http://www.w3.org/2000/svg">
<path d="M25.6246 10.6251H14.3746C13.5461 10.6261 12.7518 10.9557 12.166 11.5415C11.5801 12.1273 11.2506 12.9216 11.2496 13.7501V21.2501C11.2506 22.0786 11.5801 22.8729 12.166 23.4587C12.7518 24.0446 13.5461 24.3741 14.3746 24.3751H20.6783L23.3989 27.0964C23.5301 27.2276 23.6971 27.3169 23.8791 27.3531C24.061 27.3893 24.2495 27.3708 24.4209 27.2998C24.5923 27.2288 24.7387 27.1086 24.8417 26.9543C24.9447 26.8001 24.9997 26.6187 24.9996 26.4332V24.3751H25.6246C26.4531 24.3741 27.2473 24.0446 27.8332 23.4587C28.419 22.8729 28.7486 22.0786 28.7496 21.2501V13.7501C28.7486 12.9216 28.419 12.1273 27.8332 11.5415C27.2473 10.9557 26.4531 10.6261 25.6246 10.6251ZM23.1246 16.5626H22.7752C22.6307 17.8531 22.0429 19.0535 21.1121 19.9589C21.6491 20.19 22.2274 20.3103 22.8121 20.3126C22.9802 20.3117 23.142 20.3766 23.263 20.4934C23.384 20.6101 23.4545 20.7696 23.4596 20.9376C23.4621 21.0185 23.4483 21.0991 23.4192 21.1747C23.3901 21.2502 23.3461 21.3191 23.2899 21.3774C23.2336 21.4356 23.1663 21.482 23.0919 21.5138C23.0175 21.5457 22.9374 21.5622 22.8564 21.5626C21.8574 21.5599 20.8765 21.2948 20.0121 20.7939C19.1556 21.2969 18.1804 21.5623 17.1871 21.5626C17.0189 21.5635 16.8571 21.4986 16.7361 21.3819C16.6152 21.2651 16.5446 21.1057 16.5396 20.9376C16.5371 20.8567 16.5508 20.7761 16.5799 20.7006C16.6091 20.6251 16.6531 20.5561 16.7093 20.4979C16.7655 20.4396 16.8328 20.3932 16.9072 20.3614C16.9817 20.3296 17.0617 20.313 17.1427 20.3126C17.7466 20.3133 18.3443 20.1913 18.8996 19.9539C18.415 19.493 18.018 18.9482 17.7277 18.3457C17.6895 18.2713 17.6666 18.1899 17.6604 18.1064C17.6542 18.0229 17.6649 17.939 17.6917 17.8597C17.7186 17.7804 17.7611 17.7073 17.8168 17.6448C17.8725 17.5822 17.9401 17.5315 18.0157 17.4956C18.0914 17.4597 18.1735 17.4394 18.2571 17.4358C18.3408 17.4323 18.4243 17.4456 18.5027 17.4749C18.5811 17.5042 18.6528 17.549 18.7136 17.6066C18.7744 17.6642 18.8229 17.7334 18.8564 17.8101C19.1261 18.3764 19.5147 18.8778 19.9958 19.2801C20.819 18.5922 21.359 17.6244 21.5121 16.5626H16.8746C16.7088 16.5626 16.5498 16.4968 16.4326 16.3796C16.3154 16.2623 16.2496 16.1034 16.2496 15.9376C16.2496 15.7719 16.3154 15.6129 16.4326 15.4957C16.5498 15.3785 16.7088 15.3126 16.8746 15.3126H19.3746V14.0626C19.3746 13.8969 19.4404 13.7379 19.5576 13.6207C19.6748 13.5035 19.8338 13.4376 19.9996 13.4376C20.1653 13.4376 20.3243 13.5035 20.4415 13.6207C20.5587 13.7379 20.6246 13.8969 20.6246 14.0626V15.3126H23.1246C23.2903 15.3126 23.4493 15.3785 23.5665 15.4957C23.6837 15.6129 23.7496 15.7719 23.7496 15.9376C23.7496 16.1034 23.6837 16.2623 23.5665 16.3796C23.4493 16.4968 23.2903 16.5626 23.1246 16.5626ZM9.99957 9.01074L8.98145 11.2501H10.7896C10.8346 11.1876 10.8827 11.1251 10.9314 11.0626L9.99957 9.01074Z" fill="white"/>
<path d="M15.625 3.75H4.375C3.5465 3.75099 2.75222 4.08055 2.16639 4.66639C1.58055 5.25222 1.25099 6.0465 1.25 6.875V14.375C1.25099 15.2035 1.58055 15.9978 2.16639 16.5836C2.75222 17.1695 3.5465 17.499 4.375 17.5H5V19.5581C4.99992 19.7436 5.05485 19.9249 5.15786 20.0792C5.26087 20.2334 5.40732 20.3537 5.57868 20.4247C5.75003 20.4957 5.9386 20.5142 6.12051 20.478C6.30243 20.4418 6.46951 20.3524 6.60063 20.2213L9.32125 17.5H10V13.75C10.0013 13.3264 10.0644 12.9053 10.1875 12.5H8.41375L7.44375 14.6338C7.37279 14.7809 7.24707 14.8944 7.09349 14.9499C6.9399 15.0055 6.77066 14.9988 6.622 14.9311C6.47333 14.8635 6.35704 14.7403 6.29803 14.588C6.23902 14.4357 6.24197 14.2664 6.30625 14.1163L9.43125 7.24125C9.48097 7.13213 9.56102 7.03962 9.66187 6.97475C9.76271 6.90987 9.88009 6.87538 10 6.87538C10.1199 6.87538 10.2373 6.90987 10.3381 6.97475C10.439 7.03962 10.519 7.13213 10.5688 7.24125L11.8919 10.1519C12.6208 9.64536 13.4874 9.37424 14.375 9.375H18.75V6.875C18.749 6.0465 18.4195 5.25222 17.8336 4.66639C17.2478 4.08055 16.4535 3.75099 15.625 3.75Z" fill="white"/>
</svg>
