<svg width="30" height="30" viewBox="0 0 30 30" fill="none" xmlns="http://www.w3.org/2000/svg">
<path d="M25.6251 10.6246H14.3751C13.5466 10.6256 12.7523 10.9552 12.1664 11.541C11.5806 12.1269 11.2511 12.9211 11.2501 13.7496V21.2496C11.2511 22.0781 11.5806 22.8724 12.1664 23.4582C12.7523 24.0441 13.5466 24.3736 14.3751 24.3746H20.6788L23.3994 27.0959C23.5305 27.2271 23.6976 27.3164 23.8795 27.3526C24.0615 27.3889 24.25 27.3703 24.4214 27.2993C24.5927 27.2283 24.7392 27.1081 24.8422 26.9538C24.9452 26.7996 25.0001 26.6182 25.0001 26.4328V24.3746H25.6251C26.4536 24.3736 27.2478 24.0441 27.8337 23.4582C28.4195 22.8724 28.7491 22.0781 28.7501 21.2496V13.7496C28.7491 12.9211 28.4195 12.1269 27.8337 11.541C27.2478 10.9552 26.4536 10.6256 25.6251 10.6246ZM23.1251 16.5621H22.7757C22.6312 17.8526 22.0434 19.053 21.1126 19.9584C21.6496 20.1895 22.2279 20.3098 22.8126 20.3121C22.9807 20.3112 23.1425 20.3761 23.2635 20.4929C23.3845 20.6096 23.455 20.7691 23.4601 20.9371C23.4626 21.018 23.4488 21.0986 23.4197 21.1742C23.3905 21.2497 23.3466 21.3186 23.2903 21.3769C23.2341 21.4351 23.1668 21.4815 23.0924 21.5133C23.0179 21.5452 22.9379 21.5618 22.8569 21.5621C21.8578 21.5594 20.877 21.2943 20.0126 20.7934C19.1561 21.2964 18.1808 21.5618 17.1876 21.5621C17.0194 21.563 16.8576 21.4982 16.7366 21.3814C16.6157 21.2646 16.5451 21.1052 16.5401 20.9371C16.5376 20.8562 16.5513 20.7756 16.5804 20.7001C16.6096 20.6246 16.6536 20.5556 16.7098 20.4974C16.766 20.4391 16.8333 20.3927 16.9077 20.3609C16.9822 20.3291 17.0622 20.3125 17.1432 20.3121C17.7471 20.3129 18.3448 20.1908 18.9001 19.9534C18.4155 19.4925 18.0184 18.9477 17.7282 18.3453C17.6899 18.2708 17.6671 18.1894 17.6609 18.1059C17.6547 18.0224 17.6654 17.9385 17.6922 17.8592C17.7191 17.7799 17.7616 17.7068 17.8173 17.6443C17.8729 17.5817 17.9406 17.531 18.0162 17.4951C18.0919 17.4592 18.1739 17.4389 18.2576 17.4353C18.3412 17.4318 18.4247 17.4451 18.5032 17.4744C18.5816 17.5037 18.6533 17.5485 18.7141 17.6061C18.7748 17.6637 18.8234 17.7329 18.8569 17.8096C19.1265 18.3759 19.5152 18.8773 19.9963 19.2796C20.8195 18.5918 21.3595 17.6239 21.5126 16.5621H16.8751C16.7093 16.5621 16.5503 16.4963 16.4331 16.3791C16.3159 16.2619 16.2501 16.1029 16.2501 15.9371C16.2501 15.7714 16.3159 15.6124 16.4331 15.4952C16.5503 15.378 16.7093 15.3121 16.8751 15.3121H19.3751V14.0621C19.3751 13.8964 19.4409 13.7374 19.5581 13.6202C19.6753 13.503 19.8343 13.4371 20.0001 13.4371C20.1658 13.4371 20.3248 13.503 20.442 13.6202C20.5592 13.7374 20.6251 13.8964 20.6251 14.0621V15.3121H23.1251C23.2908 15.3121 23.4498 15.378 23.567 15.4952C23.6842 15.6124 23.7501 15.7714 23.7501 15.9371C23.7501 16.1029 23.6842 16.2619 23.567 16.3791C23.4498 16.4963 23.2908 16.5621 23.1251 16.5621ZM10.0001 9.01025L8.98193 11.2496H10.7901C10.8351 11.1871 10.8832 11.1246 10.9319 11.0621L10.0001 9.01025Z" fill="#0166FF"/>
<path d="M15.625 3.75H4.375C3.5465 3.75099 2.75222 4.08055 2.16639 4.66639C1.58055 5.25222 1.25099 6.0465 1.25 6.875V14.375C1.25099 15.2035 1.58055 15.9978 2.16639 16.5836C2.75222 17.1695 3.5465 17.499 4.375 17.5H5V19.5581C4.99992 19.7436 5.05485 19.9249 5.15786 20.0792C5.26087 20.2334 5.40732 20.3537 5.57868 20.4247C5.75003 20.4957 5.9386 20.5142 6.12051 20.478C6.30243 20.4418 6.46951 20.3524 6.60063 20.2213L9.32125 17.5H10V13.75C10.0013 13.3264 10.0644 12.9053 10.1875 12.5H8.41375L7.44375 14.6338C7.37279 14.7809 7.24707 14.8944 7.09349 14.9499C6.9399 15.0055 6.77066 14.9988 6.622 14.9311C6.47333 14.8635 6.35704 14.7403 6.29803 14.588C6.23902 14.4357 6.24197 14.2664 6.30625 14.1163L9.43125 7.24125C9.48097 7.13213 9.56102 7.03962 9.66187 6.97475C9.76271 6.90987 9.88009 6.87538 10 6.87538C10.1199 6.87538 10.2373 6.90987 10.3381 6.97475C10.439 7.03962 10.519 7.13213 10.5688 7.24125L11.8919 10.1519C12.6208 9.64536 13.4874 9.37424 14.375 9.375H18.75V6.875C18.749 6.0465 18.4195 5.25222 17.8336 4.66639C17.2478 4.08055 16.4535 3.75099 15.625 3.75Z" fill="#0166FF"/>
</svg>
