<svg width="20" height="20" viewBox="0 0 20 20" fill="none" xmlns="http://www.w3.org/2000/svg">
<g clip-path="url(#clip0_2972_9607)">
<path d="M8.01114 19.9525C8.27571 20.0656 8.58333 19.9712 8.73786 19.7271L15.7691 8.55522C15.8251 8.46657 15.8563 8.36453 15.8594 8.25974C15.8625 8.15494 15.8374 8.05123 15.7868 7.95941C15.7362 7.86759 15.6619 7.79104 15.5716 7.73772C15.4813 7.6844 15.3784 7.65628 15.2736 7.65628H10.5809L12.3261 0.730146C12.3965 0.450341 12.254 0.161357 11.9891 0.0474897C11.7259 -0.0657916 11.4163 0.0291694 11.2624 0.272919L4.23114 11.4448C4.17517 11.5334 4.144 11.6355 4.14088 11.7403C4.13777 11.8451 4.16283 11.9488 4.21344 12.0406C4.26406 12.1324 4.33837 12.209 4.42865 12.2623C4.51892 12.3156 4.62184 12.3437 4.72669 12.3437H9.41934L7.67411 19.2699C7.60372 19.5497 7.74618 19.8387 8.01114 19.9525Z" fill="#616161"/>
</g>
<defs>
<clipPath id="clip0_2972_9607">
<rect width="20" height="20" fill="white"/>
</clipPath>
</defs>
</svg>
