<svg width="36" height="36" viewBox="0 0 36 36" fill="none" xmlns="http://www.w3.org/2000/svg">
<path d="M18 3C9.71572 3 3 9.71572 3 18C3 26.2842 9.71572 33 18 33C26.2842 33 33 26.2842 33 18" stroke="#FFC107" stroke-width="1.5" stroke-linecap="round" stroke-linejoin="round"/>
<g clip-path="url(#clip0_5769_8019)">
<mask id="mask0_5769_8019" style="mask-type:luminance" maskUnits="userSpaceOnUse" x="8" y="10" width="18" height="18">
<path d="M25.4999 27.5V10.5001H8.5V27.5H25.4999Z" fill="white" stroke="white"/>
</mask>
<g mask="url(#mask0_5769_8019)">
<path d="M21.7461 17.418H16.8449L18.582 10.5274L12.2539 20.5821H17.1551L15.418 27.4727L21.7461 17.418Z" stroke="#FFC107" stroke-width="1.2" stroke-miterlimit="10" stroke-linecap="round" stroke-linejoin="round"/>
</g>
</g>
<path d="M25.2766 5.70813H31.3646" stroke="#FFC107" stroke-width="0.65" stroke-linecap="round" stroke-linejoin="round"/>
<path d="M28.3332 8L24.8498 5.3875C24.7929 5.34481 24.7467 5.28945 24.7149 5.22581C24.6831 5.16216 24.6665 5.09199 24.6665 5.02083V2.95833C24.6665 2.83678 24.7148 2.7202 24.8007 2.63424C24.8867 2.54829 25.0033 2.5 25.1248 2.5H31.5415C31.6631 2.5 31.7796 2.54829 31.8656 2.63424C31.9515 2.7202 31.9998 2.83678 31.9998 2.95833V5.00028C31.9998 5.07114 31.9834 5.14104 31.9518 5.20448C31.9203 5.26792 31.8744 5.32318 31.8179 5.36591L28.3332 8Z" stroke="#FFC107" stroke-linecap="round" stroke-linejoin="round"/>
<path d="M28.3332 8L24.8498 10.6125C24.7929 10.6552 24.7467 10.7106 24.7149 10.7742C24.6831 10.8378 24.6665 10.908 24.6665 10.9792V13.0417C24.6665 13.1632 24.7148 13.2798 24.8007 13.3658C24.8867 13.4517 25.0033 13.5 25.1248 13.5H31.5415C31.6631 13.5 31.7796 13.4517 31.8656 13.3658C31.9515 13.2798 31.9998 13.1632 31.9998 13.0417V10.9997C31.9998 10.9289 31.9834 10.859 31.9518 10.7955C31.9203 10.7321 31.8744 10.6768 31.8179 10.6341L28.3332 8Z" stroke="#FFC107" stroke-linecap="round" stroke-linejoin="round"/>
<path d="M28.3328 10.2914V8" stroke="#FFC107" stroke-linecap="round" stroke-linejoin="round"/>
<defs>
<clipPath id="clip0_5769_8019">
<rect width="18" height="18" fill="white" transform="translate(8 10)"/>
</clipPath>
</defs>
</svg>
