<svg width="36" height="36" viewBox="0 0 36 36" fill="none" xmlns="http://www.w3.org/2000/svg">
<path d="M21 3.30006C20.0307 3.10329 19.0273 3 18 3C9.71572 3 3 9.71572 3 18C3 26.2842 9.71572 33 18 33C26.2842 33 33 26.2842 33 18C33 16.9727 32.8966 15.9693 32.7 15" stroke="#4CD964" stroke-width="1.5" stroke-linecap="round" stroke-linejoin="round"/>
<g clip-path="url(#clip0_4872_6831)">
<mask id="mask0_4872_6831" style="mask-type:luminance" maskUnits="userSpaceOnUse" x="8" y="8" width="20" height="20">
<path d="M27.4999 27.5V8.50006H8.5V27.5H27.4999Z" fill="white" stroke="white"/>
</mask>
<g mask="url(#mask0_4872_6831)">
<path d="M23.2734 16.2422H17.8277L19.7578 8.58599L12.7266 19.7578H18.1723L16.2422 27.4141L23.2734 16.2422Z" stroke="#4CD964" stroke-width="1.2" stroke-miterlimit="10" stroke-linecap="round" stroke-linejoin="round"/>
</g>
</g>
<path d="M26.4998 5.12476H31.4808" stroke="#4CD964" stroke-width="0.8" stroke-linecap="round" stroke-linejoin="round"/>
<path d="M29 7L26.15 4.8625C26.1034 4.82757 26.0656 4.78228 26.0396 4.7302C26.0136 4.67813 26 4.62072 26 4.5625V2.875C26 2.77554 26.0395 2.68016 26.1098 2.60984C26.1802 2.53951 26.2755 2.5 26.375 2.5H31.625C31.7245 2.5 31.8198 2.53951 31.8902 2.60984C31.9605 2.68016 32 2.77554 32 2.875V4.54568C32 4.60366 31.9866 4.66085 31.9607 4.71275C31.9349 4.76466 31.8974 4.80987 31.8511 4.84483L29 7Z" stroke="#4CD964" stroke-width="0.8" stroke-linecap="round" stroke-linejoin="round"/>
<path d="M29 7L26.15 9.1375C26.1034 9.17243 26.0656 9.21772 26.0396 9.26979C26.0136 9.32187 26 9.37928 26 9.4375V11.125C26 11.2245 26.0395 11.3198 26.1098 11.3902C26.1802 11.4605 26.2755 11.5 26.375 11.5H31.625C31.7245 11.5 31.8198 11.4605 31.8902 11.3902C31.9605 11.3198 32 11.2245 32 11.125V9.45432C32 9.39634 31.9866 9.33915 31.9607 9.28725C31.9349 9.23534 31.8974 9.19013 31.8511 9.15517L29 7Z" stroke="#4CD964" stroke-width="0.8" stroke-linecap="round" stroke-linejoin="round"/>
<path d="M29 8.87479V7" stroke="#4CD964" stroke-width="0.8" stroke-linecap="round" stroke-linejoin="round"/>
<defs>
<clipPath id="clip0_4872_6831">
<rect width="20" height="20" fill="white" transform="translate(8 8)"/>
</clipPath>
</defs>
</svg>
