<svg width="36" height="36" viewBox="0 0 36 36" fill="none" xmlns="http://www.w3.org/2000/svg">
<path d="M21 3.30006C20.0307 3.10329 19.0273 3 18 3C9.71572 3 3 9.71572 3 18C3 26.2842 9.71572 33 18 33C26.2842 33 33 26.2842 33 18C33 16.9727 32.8966 15.9693 32.7 15" stroke="#FFA500" stroke-width="1.5" stroke-linecap="round" stroke-linejoin="round"/>
<g clip-path="url(#clip0_4872_6818)">
<mask id="mask0_4872_6818" style="mask-type:luminance" maskUnits="userSpaceOnUse" x="8" y="8" width="20" height="20">
<path d="M27.4999 27.5V8.50006H8.5V27.5H27.4999Z" fill="white" stroke="white"/>
</mask>
<g mask="url(#mask0_4872_6818)">
<path d="M23.2734 16.2422H17.8277L19.7578 8.58599L12.7266 19.7578H18.1723L16.2422 27.4141L23.2734 16.2422Z" stroke="#FFA500" stroke-width="1.2" stroke-miterlimit="10" stroke-linecap="round" stroke-linejoin="round"/>
</g>
</g>
<path d="M32 4.58C31.97 4.575 31.935 4.575 31.905 4.58C31.215 4.555 30.665 3.99 30.665 3.29C30.665 2.575 31.24 2 31.955 2C32.67 2 33.245 2.58 33.245 3.29C33.24 3.99 32.69 4.555 32 4.58Z" stroke="#FFA500" stroke-width="0.8" stroke-linecap="round" stroke-linejoin="round"/>
<path d="M31.485 8.21996C32.17 8.33496 32.925 8.21496 33.455 7.85996C34.16 7.38996 34.16 6.61996 33.455 6.14996C32.92 5.79496 32.155 5.67496 31.47 5.79496" stroke="#FFA500" stroke-width="0.8" stroke-linecap="round" stroke-linejoin="round"/>
<path d="M25.985 4.58C26.015 4.575 26.05 4.575 26.08 4.58C26.77 4.555 27.32 3.99 27.32 3.29C27.32 2.575 26.745 2 26.03 2C25.315 2 24.74 2.58 24.74 3.29C24.745 3.99 25.295 4.555 25.985 4.58Z" stroke="#FFA500" stroke-width="0.8" stroke-linecap="round" stroke-linejoin="round"/>
<path d="M26.5 8.21996C25.815 8.33496 25.06 8.21496 24.53 7.85996C23.825 7.38996 23.825 6.61996 24.53 6.14996C25.065 5.79496 25.83 5.67496 26.515 5.79496" stroke="#FFA500" stroke-width="0.8" stroke-linecap="round" stroke-linejoin="round"/>
<path d="M29 8.31499C28.97 8.30999 28.935 8.30999 28.905 8.31499C28.215 8.28999 27.665 7.72499 27.665 7.02499C27.665 6.30999 28.24 5.73499 28.955 5.73499C29.67 5.73499 30.245 6.31499 30.245 7.02499C30.24 7.72499 29.69 8.29499 29 8.31499Z" stroke="#FFA500" stroke-width="0.8" stroke-linecap="round" stroke-linejoin="round"/>
<path d="M27.5451 9.89005C26.8401 10.3601 26.8401 11.1301 27.5451 11.6001C28.3451 12.1351 29.6551 12.1351 30.4551 11.6001C31.1601 11.1301 31.1601 10.3601 30.4551 9.89005C29.6601 9.36005 28.3451 9.36005 27.5451 9.89005Z" stroke="#FFA500" stroke-width="0.8" stroke-linecap="round" stroke-linejoin="round"/>
<defs>
<clipPath id="clip0_4872_6818">
<rect width="20" height="20" fill="white" transform="translate(8 8)"/>
</clipPath>
</defs>
</svg>
