<svg width="151" height="172" viewBox="0 0 151 172" fill="none" xmlns="http://www.w3.org/2000/svg">
<path d="M46.3021 171L76.9118 95.9538H43.7273L75.8289 28.2727H133.866L109.301 75.1766H149.182L46.3021 171Z" fill="#ED3432"/>
<path d="M46.4546 171L121.108 82.5501H94.0387C94.0387 82.5501 112.159 43.3596 119.298 28.2727H133.887L109.356 75.1617H149.182L46.4546 171Z" fill="#B73131"/>
<path d="M46.3021 171L76.9118 95.9538H43.7273L75.8289 28.2727H133.866L109.301 75.1766H149.182L46.3021 171Z" stroke="#231F20" stroke-width="2" stroke-linejoin="round"/>
<path d="M101.059 54.8105C98.687 62.735 94.0181 69.7779 87.6429 75.0485C81.2678 80.3191 73.4728 83.5805 65.2439 84.4203C57.015 85.26 48.7219 83.6404 41.4136 79.7662C34.1053 75.8921 28.1101 69.9374 24.1863 62.6554C20.2625 55.3735 18.5864 47.0914 19.37 38.8567C20.1536 30.622 23.3616 22.8046 28.5884 16.3935C33.8152 9.98231 40.8259 5.26533 48.7337 2.83917C56.6416 0.413007 65.0913 0.386659 73.0141 2.76346C83.6346 5.94647 92.5557 13.2181 97.8151 22.9787C103.075 32.7394 104.241 44.1895 101.059 54.8105Z" fill="#FFD600"/>
<path d="M91.4753 52.5977C89.092 60.4452 83.6428 67.0391 76.3259 70.9295C69.009 74.82 60.4233 75.6886 52.4565 73.3444C48.3377 72.1413 44.5183 70.1065 41.2414 67.3697C35.7271 62.7882 31.9832 56.4751 30.6399 49.493C29.2965 42.5108 30.4357 35.2859 33.8658 29.0342C37.2958 22.7826 42.8072 17.8859 49.4724 15.1683C56.1376 12.4508 63.5496 12.0783 70.4609 14.1136C78.418 16.4742 85.1016 21.8446 89.0485 29.0491C92.9954 36.2536 93.884 44.7052 91.5199 52.5537L91.4753 52.5977Z" fill="#F89520"/>
<path d="M91.4941 52.3773C89.1402 60.3033 83.7586 66.9631 76.5324 70.8924C69.3061 74.8218 60.8268 75.6991 52.9588 73.3314C48.891 72.1163 45.1189 70.0612 41.8826 67.297C39.3967 61.5033 38.6045 55.115 39.5991 48.8832C40.5937 42.6514 43.3338 36.8353 47.497 32.1188C51.6603 27.4023 57.0737 23.9816 63.1006 22.2588C69.1276 20.536 75.5175 20.5828 81.5189 22.3938C83.159 22.8886 84.757 23.5155 86.2973 24.2684C89.335 28.1917 91.3926 32.7929 92.297 37.6846C93.2013 42.5762 92.926 47.6152 91.4941 52.3773Z" fill="#FFD600"/>
<path d="M101.059 54.8105C98.687 62.735 94.0181 69.7779 87.6429 75.0485C81.2678 80.3191 73.4728 83.5805 65.2439 84.4203C57.015 85.26 48.7219 83.6404 41.4136 79.7662C34.1053 75.8921 28.1101 69.9374 24.1863 62.6554C20.2625 55.3735 18.5864 47.0914 19.37 38.8567C20.1536 30.622 23.3616 22.8046 28.5884 16.3935C33.8152 9.98231 40.8259 5.26533 48.7337 2.83917C56.6416 0.413007 65.0913 0.386659 73.0141 2.76346C83.6345 5.94647 92.5557 13.2181 97.8151 22.9787C103.075 32.7394 104.241 44.1895 101.059 54.8105Z" stroke="#231F20" stroke-width="2" stroke-miterlimit="10"/>
<path d="M90.6193 51.6534C88.8714 57.5131 85.4247 62.7226 80.7154 66.623C76.006 70.5233 70.2456 72.9392 64.1629 73.565C58.0802 74.1907 51.9485 72.9982 46.5437 70.1383C41.1389 67.2784 36.7039 62.8796 33.7996 57.4985C30.8954 52.1174 29.6524 45.9958 30.2281 39.9082C30.8038 33.8205 33.1722 28.0404 37.0337 23.2991C40.8952 18.5578 46.0762 15.0684 51.9213 13.2724C57.7664 11.4764 64.0129 11.4544 69.8704 13.2093C77.7171 15.5601 84.3097 20.9294 88.2002 28.1377C92.0906 35.3461 92.9607 43.804 90.6193 51.6534Z" stroke="#231F20" stroke-width="2" stroke-miterlimit="10"/>
<path d="M77.439 45.0781C76.4879 43.8123 75.1911 42.8585 73.7102 42.3354C73.6374 42.3037 73.5754 42.2511 73.5319 42.184C73.4883 42.1169 73.4651 42.0383 73.4651 41.9579C73.4651 41.8775 73.4883 41.7989 73.5319 41.7318C73.5754 41.6647 73.6374 41.6121 73.7102 41.5804C74.9566 40.9527 76.0309 40.022 76.8376 38.871C77.7492 37.5315 78.2235 35.9351 78.1936 34.3072C78.2924 32.8807 78.045 31.4513 77.4731 30.1445C76.9011 28.8377 76.022 27.6934 74.913 26.812C72.8222 25.3726 70.3827 24.543 67.8598 24.4135C67.7622 24.4051 67.6715 24.3589 67.6064 24.2845C67.5413 24.2101 67.5068 24.1132 67.5099 24.0138V18.6839C67.5114 18.6314 67.5026 18.5791 67.4842 18.53C67.4657 18.4809 67.4379 18.4361 67.4024 18.3979C67.3668 18.3597 67.3242 18.3291 67.277 18.3076C67.2298 18.2862 67.1789 18.2744 67.1272 18.273H63.8466C63.7431 18.2787 63.6458 18.3245 63.5746 18.4009C63.5033 18.4774 63.4637 18.5786 63.4639 18.6839V23.8917C63.4639 23.9987 63.4228 24.1016 63.3493 24.1783C63.2757 24.255 63.1756 24.2996 63.0702 24.3025H57.6901C57.5876 24.2996 57.4903 24.2562 57.4188 24.1816C57.3473 24.1069 57.3073 24.0069 57.3074 23.9028V18.6839C57.3075 18.5786 57.2679 18.4774 57.1967 18.4009C57.1255 18.3245 57.0281 18.2787 56.9247 18.273H53.6441C53.5406 18.2787 53.4432 18.3245 53.372 18.4009C53.3008 18.4774 53.2612 18.5786 53.2614 18.6839V23.8917C53.2614 23.9958 53.2214 24.0958 53.15 24.1705C53.0785 24.2451 52.9811 24.2885 52.8786 24.2914H43.201C43.0975 24.2971 43.0001 24.3429 42.9289 24.4193C42.8577 24.4957 42.8181 24.597 42.8183 24.7022V28.7441C42.8168 28.7961 42.8256 28.8478 42.8442 28.8962C42.8628 28.9447 42.8907 28.9889 42.9264 29.0261C42.9621 29.0634 43.0048 29.093 43.052 29.1132C43.0991 29.1335 43.1498 29.1439 43.201 29.1439H49.0513C49.103 29.1453 49.1539 29.1571 49.2012 29.1785C49.2484 29.1999 49.291 29.2306 49.3265 29.2687C49.3621 29.3069 49.3899 29.3518 49.4083 29.4009C49.4268 29.4499 49.4355 29.5022 49.4341 29.5547V56.0045C49.4341 56.1105 49.3926 56.2122 49.3188 56.2872C49.2449 56.3621 49.1448 56.4043 49.0404 56.4043H43.201C43.1493 56.4057 43.0984 56.4175 43.0512 56.4389C43.0039 56.4603 42.9613 56.491 42.9258 56.5291C42.8903 56.5673 42.8625 56.6122 42.844 56.6613C42.8256 56.7103 42.8168 56.7626 42.8183 56.8151V60.857C42.8182 60.9611 42.8582 61.0611 42.9297 61.1358C43.0012 61.2104 43.0985 61.2538 43.201 61.2567H52.8896C52.993 61.2624 53.0904 61.3082 53.1616 61.3846C53.2328 61.4611 53.2725 61.5623 53.2723 61.6676V66.9531C53.2708 67.0056 53.2796 67.0578 53.298 67.1069C53.3165 67.156 53.3443 67.2009 53.3798 67.239C53.4154 67.2772 53.458 67.3079 53.5052 67.3293C53.5524 67.3507 53.6033 67.3625 53.655 67.3639H56.9356C56.9877 67.364 57.0394 67.3533 57.0873 67.3324C57.1352 67.3115 57.1784 67.2808 57.2143 67.2424C57.2501 67.2039 57.2778 67.1584 57.2957 67.1086C57.3136 67.0589 57.3213 67.006 57.3183 66.9531V61.6676C57.3182 61.5623 57.3578 61.4611 57.429 61.3846C57.5002 61.3082 57.5976 61.2624 57.7011 61.2567H63.0812C63.1866 61.2596 63.2867 61.3042 63.3602 61.3809C63.4337 61.4576 63.4749 61.5605 63.4748 61.6676V66.9642C63.4748 67.0683 63.5148 67.1683 63.5862 67.243C63.6577 67.3176 63.7551 67.361 63.8576 67.3639H67.1381C67.2406 67.361 67.3379 67.3176 67.4094 67.243C67.4809 67.1683 67.5209 67.0683 67.5208 66.9642V61.6009C67.5178 61.4997 67.5539 61.4013 67.6213 61.3266C67.6887 61.2519 67.7821 61.2069 67.8817 61.2012C70.7253 61.1437 73.4808 60.189 75.766 58.4696C76.905 57.4964 77.8053 56.2673 78.3956 54.8797C78.9858 53.492 79.2499 51.9839 79.1668 50.4747C79.1973 48.5309 78.5894 46.6321 77.439 45.0781ZM71.709 34.6515C71.7475 35.3864 71.6116 36.1199 71.3129 36.7904C71.0141 37.4609 70.5612 38.0487 69.9922 38.5046C68.6005 39.4838 66.9256 39.9608 65.2354 39.8592H56.3232C56.2711 39.8593 56.2194 39.8486 56.1715 39.8277C56.1236 39.8068 56.0804 39.7762 56.0445 39.7377C56.0087 39.6992 55.981 39.6537 55.9631 39.604C55.9452 39.5542 55.9375 39.5013 55.9405 39.4484V29.8878C55.9375 29.8349 55.9452 29.782 55.9631 29.7323C55.981 29.6825 56.0087 29.637 56.0445 29.5985C56.0804 29.5601 56.1236 29.5294 56.1715 29.5085C56.2194 29.4876 56.2711 29.4769 56.3232 29.477H65.1698C66.8995 29.3443 68.6262 29.7719 70.1015 30.6984C70.6634 31.177 71.1031 31.7863 71.3829 32.4747C71.6628 33.163 71.7747 33.9098 71.709 34.6515ZM70.867 54.6387C69.4965 55.7086 67.7921 56.2408 66.0665 56.1377H56.3232C56.2715 56.1363 56.2206 56.1245 56.1734 56.1031C56.1262 56.0817 56.0836 56.051 56.048 56.0129C56.0125 55.9747 55.9847 55.9298 55.9662 55.8807C55.9478 55.8317 55.939 55.7794 55.9405 55.7269V44.9893C55.9403 44.8841 55.9799 44.7828 56.0512 44.7064C56.1224 44.6299 56.2197 44.5841 56.3232 44.5785H66.6132C70.6009 44.6673 72.5911 46.6327 72.5838 50.4747C72.6245 51.2552 72.4912 52.0349 72.1939 52.7559C71.8967 53.4768 71.4431 54.1204 70.867 54.6387Z" fill="#0166FF"/>
<path d="M77.439 45.0781C76.4879 43.8123 75.1911 42.8585 73.7102 42.3354C73.6374 42.3037 73.5754 42.2511 73.5319 42.184C73.4883 42.1169 73.4651 42.0383 73.4651 41.9579C73.4651 41.8775 73.4883 41.7989 73.5319 41.7318C73.5754 41.6647 73.6374 41.6121 73.7102 41.5804C74.9566 40.9527 76.0309 40.022 76.8376 38.871C77.7492 37.5315 78.2235 35.9351 78.1936 34.3072C78.2924 32.8807 78.045 31.4513 77.4731 30.1445C76.9011 28.8377 76.022 27.6934 74.913 26.812C72.8222 25.3726 70.3827 24.543 67.8598 24.4135C67.7622 24.4051 67.6715 24.3589 67.6064 24.2845C67.5413 24.2101 67.5068 24.1132 67.5099 24.0138V18.6839C67.5114 18.6314 67.5026 18.5791 67.4842 18.53C67.4657 18.481 67.4379 18.4361 67.4024 18.3979C67.3668 18.3597 67.3242 18.3291 67.277 18.3076C67.2298 18.2862 67.1789 18.2744 67.1272 18.273H63.8466C63.7431 18.2787 63.6458 18.3245 63.5746 18.4009C63.5033 18.4774 63.4637 18.5786 63.4639 18.6839V23.8917C63.4639 23.9987 63.4228 24.1016 63.3493 24.1783C63.2757 24.255 63.1756 24.2996 63.0702 24.3025H57.6901C57.5876 24.2996 57.4903 24.2562 57.4188 24.1816C57.3473 24.1069 57.3073 24.0069 57.3074 23.9028V18.6839C57.3075 18.5786 57.2679 18.4774 57.1967 18.4009C57.1255 18.3245 57.0281 18.2787 56.9247 18.273H53.6441C53.5406 18.2787 53.4432 18.3245 53.372 18.4009C53.3008 18.4774 53.2612 18.5786 53.2614 18.6839V23.8917C53.2614 23.9958 53.2214 24.0958 53.15 24.1705C53.0785 24.2451 52.9811 24.2885 52.8786 24.2914H43.201C43.0975 24.2971 43.0001 24.3429 42.9289 24.4193C42.8577 24.4957 42.8181 24.597 42.8183 24.7022V28.7441C42.8168 28.7961 42.8256 28.8478 42.8442 28.8962C42.8628 28.9447 42.8907 28.9889 42.9264 29.0261C42.9621 29.0634 43.0048 29.093 43.052 29.1132C43.0991 29.1335 43.1498 29.1439 43.201 29.1439H49.0513C49.103 29.1453 49.1539 29.1571 49.2012 29.1785C49.2484 29.1999 49.291 29.2306 49.3265 29.2687C49.3621 29.3069 49.3899 29.3518 49.4083 29.4009C49.4268 29.4499 49.4355 29.5022 49.434 29.5547V56.0045C49.434 56.1105 49.3926 56.2122 49.3188 56.2872C49.2449 56.3621 49.1448 56.4043 49.0404 56.4043H43.201C43.1493 56.4057 43.0984 56.4175 43.0512 56.4389C43.0039 56.4603 42.9613 56.491 42.9258 56.5291C42.8903 56.5673 42.8625 56.6122 42.844 56.6613C42.8256 56.7103 42.8168 56.7626 42.8183 56.8151V60.857C42.8182 60.9611 42.8582 61.0611 42.9297 61.1358C43.0012 61.2104 43.0985 61.2538 43.201 61.2567H52.8896C52.993 61.2624 53.0904 61.3082 53.1616 61.3846C53.2328 61.4611 53.2725 61.5623 53.2723 61.6676V66.9531C53.2708 67.0056 53.2796 67.0579 53.298 67.1069C53.3165 67.156 53.3443 67.2009 53.3798 67.239C53.4154 67.2772 53.458 67.3079 53.5052 67.3293C53.5524 67.3507 53.6033 67.3625 53.655 67.3639H56.9356C56.9877 67.364 57.0394 67.3533 57.0873 67.3324C57.1352 67.3115 57.1784 67.2808 57.2143 67.2424C57.2501 67.2039 57.2778 67.1584 57.2957 67.1086C57.3136 67.0589 57.3213 67.006 57.3183 66.9531V61.6676C57.3182 61.5623 57.3578 61.4611 57.429 61.3846C57.5002 61.3082 57.5976 61.2624 57.7011 61.2567H63.0812C63.1866 61.2596 63.2867 61.3042 63.3602 61.3809C63.4337 61.4576 63.4749 61.5605 63.4748 61.6676V66.9642C63.4748 67.0683 63.5148 67.1683 63.5862 67.243C63.6577 67.3176 63.7551 67.361 63.8576 67.3639H67.1381C67.2406 67.361 67.3379 67.3176 67.4094 67.243C67.4809 67.1683 67.5209 67.0683 67.5208 66.9642V61.6009C67.5178 61.4997 67.5539 61.4013 67.6213 61.3266C67.6887 61.2519 67.7821 61.2069 67.8817 61.2012C70.7253 61.1437 73.4808 60.189 75.766 58.4696C76.905 57.4964 77.8053 56.2673 78.3956 54.8797C78.9858 53.492 79.2499 51.9839 79.1668 50.4747C79.1973 48.5309 78.5894 46.6321 77.439 45.0781ZM71.709 34.6515C71.7475 35.3864 71.6116 36.1199 71.3129 36.7904C71.0141 37.4609 70.5612 38.0487 69.9922 38.5046C68.6005 39.4838 66.9256 39.9608 65.2354 39.8592H56.3232C56.2711 39.8593 56.2194 39.8486 56.1715 39.8277C56.1236 39.8068 56.0804 39.7762 56.0445 39.7377C56.0087 39.6992 55.981 39.6537 55.9631 39.604C55.9452 39.5542 55.9375 39.5013 55.9405 39.4484V29.8878C55.9375 29.8349 55.9452 29.782 55.9631 29.7323C55.981 29.6825 56.0087 29.637 56.0445 29.5985C56.0804 29.5601 56.1236 29.5294 56.1715 29.5085C56.2194 29.4876 56.2711 29.4769 56.3232 29.477H65.1698C66.8995 29.3443 68.6262 29.7719 70.1015 30.6984C70.6634 31.177 71.1031 31.7863 71.3829 32.4747C71.6628 33.163 71.7747 33.9098 71.709 34.6515ZM70.867 54.6387C69.4965 55.7086 67.7921 56.2408 66.0665 56.1377H56.3232C56.2715 56.1363 56.2206 56.1245 56.1734 56.1031C56.1262 56.0817 56.0836 56.051 56.048 56.0129C56.0125 55.9747 55.9847 55.9298 55.9662 55.8807C55.9478 55.8317 55.939 55.7794 55.9405 55.7269V44.9893C55.9403 44.8841 55.9799 44.7828 56.0512 44.7064C56.1224 44.6299 56.2197 44.5841 56.3232 44.5785H66.6132C70.6009 44.6673 72.5911 46.6327 72.5838 50.4747C72.6245 51.2552 72.4912 52.0349 72.1939 52.7559C71.8967 53.4768 71.4431 54.1204 70.867 54.6387Z" stroke="#231F20" stroke-width="2" stroke-linejoin="round"/>
<path d="M11.9092 124.636H65.5455" stroke="black" stroke-width="2" stroke-miterlimit="10"/>
<path d="M1.00004 124.903C0.995666 123.776 1.32429 122.672 1.94435 121.733C2.56442 120.793 3.44808 120.06 4.48359 119.624C5.5191 119.189 6.65995 119.072 7.76188 119.287C8.8638 119.503 9.87731 120.041 10.6742 120.835C11.4712 121.629 12.0157 122.642 12.239 123.747C12.4624 124.851 12.3544 125.997 11.9289 127.04C11.5033 128.083 10.7792 128.976 9.84823 129.606C8.91723 130.236 7.8211 130.574 6.69846 130.579C5.95264 130.583 5.21329 130.44 4.52284 130.156C3.8324 129.873 3.20443 129.456 2.67499 128.929C2.14555 128.401 1.72506 127.774 1.43763 127.083C1.1502 126.392 1.00149 125.651 1.00004 124.903ZM36.4544 156.188C36.45 155.061 36.1125 153.96 35.4846 153.025C34.8568 152.09 33.9668 151.363 32.9273 150.936C31.8877 150.51 30.7454 150.402 29.6449 150.627C28.5444 150.852 27.5352 151.4 26.7449 152.201C25.9546 153.002 25.4189 154.021 25.2054 155.128C24.9919 156.235 25.1104 157.38 25.5458 158.42C25.9811 159.459 26.7138 160.345 27.6512 160.966C28.5885 161.588 29.6883 161.916 30.8114 161.909C31.5567 161.908 32.2944 161.758 32.982 161.47C33.6696 161.181 34.2936 160.759 34.818 160.227C35.3424 159.695 35.757 159.065 36.0378 158.372C36.3187 157.679 36.4602 156.937 36.4544 156.188Z" fill="#4CD964" stroke="#231F20" stroke-width="2" stroke-miterlimit="10"/>
<path d="M31.3893 151L31.3226 135.473L60.9683 135.351L70.0909 113.555L21.1111 113.666L21 92.8186" stroke="black" stroke-width="2" stroke-miterlimit="10"/>
<path d="M26.4543 92.7963C26.4501 91.7171 26.1258 90.6633 25.5225 89.7685C24.9191 88.8736 24.0639 88.1778 23.065 87.7692C22.0661 87.3606 20.9684 87.2575 19.9109 87.473C18.8534 87.6884 17.8836 88.2128 17.1242 88.9797C16.3648 89.7465 15.85 90.7214 15.6448 91.781C15.4397 92.8406 15.5535 93.9372 15.9719 94.9321C16.3902 95.927 17.0943 96.7754 17.995 97.3699C18.8957 97.9645 19.9526 98.2785 21.0318 98.2722C21.748 98.2708 22.4569 98.1278 23.1176 97.8515C23.7784 97.5751 24.3779 97.1709 24.8819 96.662C25.3858 96.1531 25.7842 95.5496 26.0541 94.8861C26.3239 94.2227 26.46 93.5125 26.4543 92.7963Z" fill="#4CD964" stroke="#231F20" stroke-width="2" stroke-miterlimit="10"/>
<path d="M138.273 124.636H96.4546" stroke="black" stroke-width="2" stroke-miterlimit="10"/>
<path d="M148.273 124.357C148.279 125.485 147.953 126.589 147.335 127.531C146.718 128.472 145.836 129.208 144.803 129.645C143.769 130.082 142.63 130.201 141.529 129.987C140.429 129.772 139.416 129.234 138.619 128.441C137.823 127.647 137.278 126.634 137.054 125.528C136.83 124.423 136.937 123.276 137.362 122.232C137.786 121.189 138.509 120.295 139.439 119.664C140.368 119.034 141.463 118.695 142.584 118.691C144.085 118.685 145.527 119.278 146.593 120.34C147.66 121.403 148.264 122.847 148.273 124.357ZM122.818 93.0855C122.823 94.2133 123.159 95.3144 123.786 96.2495C124.413 97.1846 125.301 97.9117 126.339 98.3387C127.377 98.7657 128.517 98.8734 129.616 98.6483C130.714 98.4231 131.722 97.8752 132.511 97.0738C133.3 96.2724 133.834 95.2537 134.048 94.1464C134.261 93.0391 134.142 91.8932 133.708 90.8536C133.273 89.8139 132.542 88.9274 131.606 88.3061C130.67 87.6848 129.572 87.3567 128.451 87.3633C126.95 87.3721 125.514 87.9796 124.458 89.0524C123.402 90.1252 122.812 91.5757 122.818 93.0855Z" fill="#4CD964" stroke="#231F20" stroke-width="2" stroke-miterlimit="10"/>
<path d="M128.196 98.2732L128.273 113.812L107.716 113.922L84.6365 135.729L118.683 135.608L118.781 156.455" stroke="black" stroke-width="2" stroke-miterlimit="10"/>
<path d="M123.036 160.493C125.239 158.269 125.223 154.679 122.998 152.475C120.774 150.272 117.184 150.289 114.98 152.513C112.777 154.738 112.794 158.327 115.018 160.531C117.243 162.735 120.832 162.718 123.036 160.493Z" fill="#4CD964" stroke="#231F20" stroke-width="2" stroke-miterlimit="10"/>
<path d="M143.273 126.455C144.528 126.455 145.545 125.437 145.545 124.182C145.545 122.927 144.528 121.909 143.273 121.909C142.018 121.909 141 122.927 141 124.182C141 125.437 142.018 126.455 143.273 126.455Z" fill="#B3D459"/>
<path d="M121.437 155.968C121.439 156.37 121.322 156.764 121.099 157.099C120.876 157.435 120.559 157.696 120.187 157.851C119.814 158.006 119.405 158.047 119.009 157.969C118.613 157.891 118.25 157.698 117.965 157.413C117.68 157.129 117.486 156.766 117.407 156.372C117.329 155.977 117.371 155.568 117.526 155.197C117.681 154.826 117.944 154.509 118.28 154.287C118.616 154.065 119.011 153.947 119.414 153.949C119.951 153.949 120.465 154.162 120.845 154.541C121.224 154.919 121.437 155.432 121.437 155.968ZM33.1392 156.232C33.1414 156.634 33.024 157.027 32.8018 157.363C32.5796 157.698 32.2627 157.96 31.8912 158.115C31.5197 158.27 31.1104 158.312 30.715 158.235C30.3197 158.158 29.9562 157.965 29.6707 157.682C29.3851 157.399 29.1902 157.037 29.1108 156.643C29.0314 156.249 29.0711 155.841 29.2247 155.469C29.3783 155.098 29.6391 154.78 29.9738 154.557C30.3086 154.333 30.7023 154.214 31.1051 154.214C31.6426 154.214 32.1584 154.426 32.5395 154.805C32.9207 155.183 33.1363 155.696 33.1392 156.232ZM9.61373 124.504C9.61373 124.905 9.49443 125.298 9.27091 125.631C9.0474 125.965 8.7297 126.225 8.35801 126.379C7.98631 126.532 7.57731 126.572 7.18273 126.494C6.78814 126.416 6.42568 126.222 6.1412 125.939C5.85672 125.655 5.66299 125.293 5.5845 124.9C5.50601 124.506 5.54629 124.098 5.70025 123.727C5.85421 123.357 6.11493 123.04 6.44945 122.817C6.78397 122.594 7.17725 122.475 7.57957 122.475C7.84711 122.473 8.11228 122.525 8.35974 122.626C8.6072 122.728 8.83202 122.877 9.02121 123.066C9.21039 123.254 9.36017 123.479 9.46187 123.726C9.56358 123.972 9.6152 124.237 9.61373 124.504ZM23.5875 93.1503C23.5875 93.5495 23.4689 93.9397 23.2466 94.2716C23.0243 94.6035 22.7083 94.8621 22.3386 95.0149C21.969 95.1676 21.5622 95.2076 21.1697 95.1297C20.7773 95.0519 20.4168 94.8597 20.1339 94.5774C19.8509 94.2952 19.6582 93.9356 19.5802 93.5441C19.5021 93.1526 19.5422 92.7468 19.6953 92.378C19.8484 92.0092 20.1077 91.694 20.4404 91.4723C20.7731 91.2505 21.1643 91.1322 21.5644 91.1322C22.101 91.1322 22.6156 91.3448 22.995 91.7233C23.3744 92.1017 23.5875 92.6151 23.5875 93.1503ZM131 93.018C131 93.4172 130.881 93.8073 130.659 94.1392C130.437 94.4711 130.121 94.7298 129.751 94.8826C129.381 95.0353 128.975 95.0753 128.582 94.9974C128.19 94.9195 127.829 94.7273 127.546 94.4451C127.263 94.1628 127.071 93.8032 126.993 93.4117C126.915 93.0202 126.955 92.6144 127.108 92.2457C127.261 91.8769 127.52 91.5617 127.853 91.3399C128.186 91.1182 128.577 90.9998 128.977 90.9998C129.513 90.9998 130.028 91.2124 130.407 91.5909C130.787 91.9694 131 92.4827 131 93.018Z" fill="#B3D459"/>
</svg>
