<svg width="151" height="172" viewBox="0 0 151 172" fill="none" xmlns="http://www.w3.org/2000/svg">
<path d="M46.302 171L76.9118 95.9536H43.7273L75.8288 28.2725H133.866L109.301 75.1763H149.182L46.302 171Z" fill="#ED3432"/>
<path d="M46.4546 171L121.108 82.5498H94.0386C94.0386 82.5498 112.159 43.3593 119.298 28.2725H133.887L109.356 75.1614H149.182L46.4546 171Z" fill="#B73131"/>
<path d="M46.302 171L76.9118 95.9536H43.7273L75.8289 28.2725H133.866L109.301 75.1763H149.182L46.302 171Z" stroke="#231F20" stroke-width="2" stroke-linejoin="round"/>
<path d="M101.059 54.8105C98.6869 62.735 94.018 69.7779 87.6429 75.0485C81.2677 80.3191 73.4727 83.5805 65.2438 84.4203C57.015 85.26 48.7219 83.6404 41.4136 79.7662C34.1053 75.8921 28.11 69.9374 24.1862 62.6554C20.2624 55.3735 18.5863 47.0914 19.3699 38.8567C20.1535 30.622 23.3616 22.8046 28.5884 16.3935C33.8152 9.98231 40.8259 5.26533 48.7337 2.83917C56.6415 0.413007 65.0912 0.386659 73.014 2.76346C83.6345 5.94647 92.5556 13.2181 97.8151 22.9787C103.074 32.7394 104.241 44.1895 101.059 54.8105Z" fill="#FFD600"/>
<path d="M91.4754 52.5975C89.092 60.4451 83.6429 67.0389 76.326 70.9294C69.009 74.8199 60.4234 75.6885 52.4566 73.3443C48.3378 72.1412 44.5184 70.1064 41.2415 67.3696C35.7272 62.7881 31.9833 56.475 30.6399 49.4929C29.2966 42.5107 30.4358 35.2858 33.8658 29.0341C37.2959 22.7824 42.8073 17.8858 49.4725 15.1682C56.1377 12.4507 63.5497 12.0782 70.461 14.1134C78.4181 16.4741 85.1016 21.8445 89.0485 29.049C92.9954 36.2535 93.8841 44.7051 91.52 52.5536L91.4754 52.5975Z" fill="#F89520"/>
<path d="M91.494 52.3771C89.1402 60.303 83.7585 66.9628 76.5323 70.8922C69.306 74.8216 60.8267 75.6988 52.9587 73.3312C48.8909 72.116 45.1188 70.061 41.8825 67.2968C39.3967 61.5031 38.6044 55.1147 39.599 48.883C40.5936 42.6512 43.3337 36.8351 47.4969 32.1186C51.6602 27.4021 57.0736 23.9813 63.1006 22.2585C69.1275 20.5357 75.5174 20.5826 81.5188 22.3935C83.1589 22.8883 84.7569 23.5152 86.2972 24.2682C89.3349 28.1915 91.3925 32.7927 92.2969 37.6843C93.2012 42.576 92.9259 47.615 91.494 52.3771Z" fill="#FFD600"/>
<path d="M101.059 54.8105C98.6869 62.735 94.018 69.7779 87.6429 75.0485C81.2677 80.3191 73.4727 83.5805 65.2438 84.4203C57.015 85.26 48.7219 83.6404 41.4136 79.7662C34.1053 75.8921 28.11 69.9374 24.1862 62.6554C20.2624 55.3735 18.5863 47.0914 19.3699 38.8567C20.1535 30.622 23.3616 22.8046 28.5884 16.3935C33.8152 9.98231 40.8259 5.26533 48.7337 2.83917C56.6415 0.413007 65.0912 0.386659 73.014 2.76346C83.6345 5.94647 92.5556 13.2181 97.8151 22.9787C103.074 32.7394 104.241 44.1895 101.059 54.8105Z" stroke="#231F20" stroke-width="2" stroke-miterlimit="10"/>
<path d="M90.6193 51.6535C88.8714 57.5132 85.4248 62.7228 80.7154 66.6231C76.0061 70.5235 70.2456 72.9393 64.1629 73.5651C58.0802 74.1908 51.9486 72.9983 46.5438 70.1384C41.139 67.2785 36.7039 62.8797 33.7997 57.4987C30.8954 52.1176 29.6525 45.9959 30.2282 39.9083C30.8039 33.8207 33.1723 28.0405 37.0338 23.2992C40.8952 18.558 46.0763 15.0686 51.9214 13.2725C57.7665 11.4765 64.0129 11.4545 69.8705 13.2094C77.7171 15.5602 84.3098 20.9295 88.2002 28.1379C92.0907 35.3462 92.9608 43.8041 90.6193 51.6535Z" stroke="#231F20" stroke-width="2" stroke-miterlimit="10"/>
<path d="M77.4391 45.0786C76.4879 43.8127 75.1912 42.8589 73.7102 42.3359C73.6375 42.3042 73.5755 42.2515 73.532 42.1844C73.4884 42.1173 73.4652 42.0387 73.4652 41.9583C73.4652 41.878 73.4884 41.7994 73.532 41.7323C73.5755 41.6652 73.6375 41.6125 73.7102 41.5808C74.9566 40.9531 76.031 40.0224 76.8377 38.8714C77.7492 37.5319 78.2235 35.9356 78.1936 34.3077C78.2925 32.8811 78.0451 31.4517 77.4731 30.1449C76.9012 28.8381 76.0221 27.6938 74.9131 26.8124C72.8223 25.373 70.3827 24.5434 67.8599 24.414C67.7623 24.4055 67.6715 24.3593 67.6064 24.2849C67.5413 24.2106 67.5068 24.1137 67.51 24.0142V18.6843C67.5114 18.6318 67.5027 18.5795 67.4842 18.5304C67.4658 18.4814 67.438 18.4365 67.4024 18.3983C67.3669 18.3602 67.3243 18.3295 67.2771 18.3081C67.2299 18.2866 67.1789 18.2749 67.1272 18.2734H63.8467C63.7432 18.2791 63.6458 18.3249 63.5746 18.4014C63.5034 18.4778 63.4638 18.5791 63.4639 18.6843V23.8921C63.464 23.9991 63.4229 24.102 63.3493 24.1787C63.2758 24.2555 63.1757 24.3 63.0703 24.3029H57.6902C57.5877 24.3 57.4903 24.2566 57.4189 24.182C57.3474 24.1073 57.3074 24.0073 57.3074 23.9032V18.6843C57.3076 18.5791 57.268 18.4778 57.1968 18.4014C57.1256 18.3249 57.0282 18.2791 56.9247 18.2734H53.6442C53.5407 18.2791 53.4433 18.3249 53.3721 18.4014C53.3009 18.4778 53.2613 18.5791 53.2614 18.6843V23.8921C53.2615 23.9962 53.2215 24.0962 53.15 24.1709C53.0785 24.2455 52.9812 24.2889 52.8787 24.2918H43.2011C43.0976 24.2975 43.0002 24.3433 42.929 24.4197C42.8578 24.4962 42.8182 24.5974 42.8183 24.7027V28.7445C42.8169 28.7965 42.8257 28.8482 42.8443 28.8967C42.8628 28.9451 42.8908 28.9893 42.9265 29.0266C42.9622 29.0638 43.0049 29.0935 43.052 29.1137C43.0992 29.1339 43.1499 29.1443 43.2011 29.1443H49.0514C49.1031 29.1457 49.154 29.1575 49.2012 29.1789C49.2484 29.2003 49.291 29.231 49.3266 29.2692C49.3621 29.3073 49.3899 29.3522 49.4084 29.4013C49.4268 29.4504 49.4356 29.5026 49.4341 29.5551V56.0049C49.4341 56.111 49.3926 56.2126 49.3188 56.2876C49.245 56.3626 49.1449 56.4047 49.0404 56.4047H43.2011C43.1494 56.4061 43.0984 56.4179 43.0512 56.4393C43.004 56.4607 42.9614 56.4914 42.9259 56.5296C42.8903 56.5677 42.8625 56.6126 42.8441 56.6617C42.8256 56.7108 42.8169 56.763 42.8183 56.8155V60.8574C42.8183 60.9615 42.8583 61.0615 42.9297 61.1362C43.0012 61.2109 43.0986 61.2542 43.2011 61.2571H52.8896C52.9931 61.2628 53.0905 61.3086 53.1617 61.385C53.2329 61.4615 53.2725 61.5628 53.2724 61.668V66.9535C53.2709 67.006 53.2796 67.0583 53.2981 67.1073C53.3165 67.1564 53.3443 67.2013 53.3799 67.2395C53.4154 67.2776 53.458 67.3083 53.5053 67.3297C53.5525 67.3511 53.6034 67.3629 53.6551 67.3643H56.9356C56.9878 67.3644 57.0394 67.3537 57.0873 67.3328C57.1353 67.3119 57.1785 67.2813 57.2143 67.2428C57.2502 67.2043 57.2779 67.1588 57.2958 67.1091C57.3137 67.0593 57.3214 67.0064 57.3184 66.9535V61.668C57.3182 61.5628 57.3578 61.4615 57.4291 61.385C57.5003 61.3086 57.5976 61.2628 57.7011 61.2571H63.0812C63.1866 61.26 63.2867 61.3046 63.3603 61.3813C63.4338 61.4581 63.4749 61.5609 63.4749 61.668V66.9646C63.4748 67.0687 63.5148 67.1688 63.5863 67.2434C63.6578 67.3181 63.7551 67.3615 63.8576 67.3643H67.1382C67.2407 67.3615 67.338 67.3181 67.4095 67.2434C67.481 67.1688 67.5209 67.0687 67.5209 66.9646V61.6014C67.5179 61.5001 67.5539 61.4017 67.6213 61.327C67.6887 61.2524 67.7822 61.2074 67.8818 61.2016C70.7253 61.1441 73.4808 60.1894 75.766 58.47C76.905 57.4968 77.8053 56.2678 78.3956 54.8801C78.9859 53.4925 79.2499 51.9843 79.1669 50.4751C79.1973 48.5313 78.5894 46.6326 77.4391 45.0786ZM71.7091 34.6519C71.7475 35.3868 71.6117 36.1203 71.3129 36.7908C71.0142 37.4613 70.5612 38.0492 69.9923 38.505C68.6006 39.4842 66.9256 39.9612 65.2354 39.8597H56.3233C56.2711 39.8598 56.2195 39.849 56.1716 39.8281C56.1237 39.8072 56.0804 39.7766 56.0446 39.7381C56.0088 39.6996 55.9811 39.6541 55.9632 39.6044C55.9453 39.5546 55.9376 39.5017 55.9405 39.4488V29.8883C55.9376 29.8354 55.9453 29.7824 55.9632 29.7327C55.9811 29.683 56.0088 29.6374 56.0446 29.599C56.0804 29.5605 56.1237 29.5299 56.1716 29.509C56.2195 29.4881 56.2711 29.4773 56.3233 29.4774H65.1698C66.8996 29.3447 68.6263 29.7723 70.1016 30.6988C70.6635 31.1774 71.1031 31.7868 71.383 32.4751C71.6629 33.1634 71.7748 33.9102 71.7091 34.6519ZM70.8671 54.6391C69.4966 55.709 67.7922 56.2412 66.0665 56.1382H56.3233C56.2716 56.1367 56.2207 56.125 56.1734 56.1035C56.1262 56.0821 56.0836 56.0514 56.0481 56.0133C56.0125 55.9751 55.9847 55.9302 55.9663 55.8812C55.9478 55.8321 55.9391 55.7798 55.9405 55.7273V44.9897C55.9404 44.8845 55.98 44.7832 56.0512 44.7068C56.1224 44.6304 56.2198 44.5846 56.3233 44.5789H66.6133C70.601 44.6677 72.5912 46.6331 72.5839 50.4751C72.6245 51.2556 72.4912 52.0354 72.194 52.7563C71.8967 53.4773 71.4432 54.1208 70.8671 54.6391Z" fill="#0166FF"/>
<path d="M77.4391 45.0786C76.488 43.8127 75.1912 42.8589 73.7102 42.3359C73.6375 42.3042 73.5755 42.2515 73.532 42.1844C73.4884 42.1173 73.4652 42.0387 73.4652 41.9583C73.4652 41.878 73.4884 41.7994 73.532 41.7323C73.5755 41.6652 73.6375 41.6125 73.7102 41.5808C74.9566 40.9532 76.031 40.0224 76.8377 38.8714C77.7492 37.5319 78.2235 35.9356 78.1936 34.3077C78.2925 32.8811 78.0451 31.4517 77.4731 30.1449C76.9012 28.8381 76.0221 27.6938 74.9131 26.8124C72.8223 25.373 70.3827 24.5434 67.8599 24.414C67.7623 24.4055 67.6715 24.3593 67.6064 24.2849C67.5413 24.2106 67.5068 24.1137 67.51 24.0142V18.6843C67.5114 18.6318 67.5027 18.5795 67.4842 18.5304C67.4658 18.4814 67.438 18.4365 67.4024 18.3983C67.3669 18.3602 67.3243 18.3295 67.2771 18.3081C67.2299 18.2866 67.1789 18.2749 67.1272 18.2734H63.8467C63.7432 18.2791 63.6458 18.3249 63.5746 18.4014C63.5034 18.4778 63.4638 18.5791 63.4639 18.6843V23.8921C63.464 23.9991 63.4229 24.102 63.3493 24.1787C63.2758 24.2555 63.1757 24.3 63.0703 24.3029H57.6902C57.5877 24.3 57.4903 24.2566 57.4189 24.182C57.3474 24.1073 57.3074 24.0073 57.3074 23.9032V18.6843C57.3076 18.5791 57.268 18.4778 57.1968 18.4014C57.1256 18.3249 57.0282 18.2791 56.9247 18.2734H53.6442C53.5407 18.2791 53.4433 18.3249 53.3721 18.4014C53.3009 18.4778 53.2613 18.5791 53.2614 18.6843V23.8921C53.2615 23.9962 53.2215 24.0962 53.15 24.1709C53.0785 24.2455 52.9812 24.2889 52.8787 24.2918H43.2011C43.0976 24.2975 43.0002 24.3433 42.929 24.4197C42.8578 24.4962 42.8182 24.5974 42.8183 24.7027V28.7445C42.8169 28.7965 42.8257 28.8482 42.8443 28.8967C42.8628 28.9451 42.8908 28.9893 42.9265 29.0266C42.9622 29.0638 43.0049 29.0935 43.052 29.1137C43.0992 29.1339 43.1499 29.1443 43.2011 29.1443H49.0514C49.1031 29.1457 49.154 29.1575 49.2012 29.1789C49.2484 29.2003 49.291 29.231 49.3266 29.2692C49.3621 29.3073 49.3899 29.3522 49.4084 29.4013C49.4268 29.4504 49.4356 29.5026 49.4341 29.5551V56.0049C49.4341 56.111 49.3926 56.2126 49.3188 56.2876C49.245 56.3626 49.1449 56.4047 49.0404 56.4047H43.2011C43.1494 56.4061 43.0984 56.4179 43.0512 56.4393C43.004 56.4607 42.9614 56.4914 42.9259 56.5296C42.8903 56.5677 42.8625 56.6126 42.8441 56.6617C42.8256 56.7108 42.8169 56.763 42.8183 56.8155V60.8574C42.8183 60.9615 42.8583 61.0615 42.9297 61.1362C43.0012 61.2109 43.0986 61.2542 43.2011 61.2571H52.8896C52.9931 61.2628 53.0905 61.3086 53.1617 61.385C53.2329 61.4615 53.2725 61.5628 53.2724 61.668V66.9535C53.2709 67.006 53.2796 67.0583 53.2981 67.1073C53.3165 67.1564 53.3443 67.2013 53.3799 67.2395C53.4154 67.2776 53.458 67.3083 53.5053 67.3297C53.5525 67.3511 53.6034 67.3629 53.6551 67.3644H56.9356C56.9878 67.3644 57.0394 67.3537 57.0873 67.3328C57.1353 67.3119 57.1785 67.2813 57.2143 67.2428C57.2502 67.2043 57.2779 67.1588 57.2958 67.1091C57.3137 67.0593 57.3214 67.0064 57.3184 66.9535V61.668C57.3182 61.5628 57.3578 61.4615 57.4291 61.385C57.5003 61.3086 57.5976 61.2628 57.7011 61.2571H63.0812C63.1866 61.26 63.2867 61.3046 63.3603 61.3813C63.4338 61.4581 63.4749 61.5609 63.4749 61.668V66.9646C63.4748 67.0687 63.5148 67.1688 63.5863 67.2434C63.6578 67.3181 63.7551 67.3615 63.8576 67.3644H67.1382C67.2407 67.3615 67.338 67.3181 67.4095 67.2434C67.481 67.1688 67.5209 67.0687 67.5209 66.9646V61.6014C67.5179 61.5001 67.5539 61.4017 67.6213 61.327C67.6887 61.2524 67.7822 61.2074 67.8818 61.2016C70.7253 61.1441 73.4808 60.1894 75.766 58.47C76.905 57.4968 77.8053 56.2678 78.3956 54.8801C78.9859 53.4925 79.2499 51.9843 79.1669 50.4751C79.1973 48.5313 78.5894 46.6326 77.4391 45.0786ZM71.7091 34.6519C71.7475 35.3868 71.6117 36.1203 71.3129 36.7908C71.0142 37.4613 70.5612 38.0492 69.9923 38.505C68.6006 39.4842 66.9257 39.9612 65.2354 39.8597H56.3233C56.2711 39.8598 56.2195 39.849 56.1716 39.8281C56.1237 39.8072 56.0804 39.7766 56.0446 39.7381C56.0088 39.6996 55.9811 39.6541 55.9632 39.6044C55.9453 39.5546 55.9376 39.5017 55.9405 39.4488V29.8883C55.9376 29.8354 55.9453 29.7824 55.9632 29.7327C55.9811 29.683 56.0088 29.6374 56.0446 29.599C56.0804 29.5605 56.1237 29.5299 56.1716 29.509C56.2195 29.4881 56.2711 29.4773 56.3233 29.4774H65.1698C66.8996 29.3447 68.6263 29.7723 70.1016 30.6988C70.6635 31.1774 71.1031 31.7868 71.383 32.4751C71.6629 33.1634 71.7748 33.9102 71.7091 34.6519ZM70.8671 54.6391C69.4966 55.709 67.7922 56.2412 66.0665 56.1382H56.3233C56.2716 56.1367 56.2207 56.125 56.1734 56.1035C56.1262 56.0821 56.0836 56.0514 56.0481 56.0133C56.0125 55.9751 55.9847 55.9302 55.9663 55.8812C55.9478 55.8321 55.9391 55.7798 55.9405 55.7273V44.9897C55.9404 44.8845 55.98 44.7832 56.0512 44.7068C56.1224 44.6304 56.2198 44.5846 56.3233 44.5789H66.6133C70.601 44.6677 72.5912 46.6331 72.5839 50.4751C72.6245 51.2556 72.4912 52.0354 72.194 52.7563C71.8967 53.4773 71.4432 54.1208 70.8671 54.6391Z" stroke="#231F20" stroke-width="2" stroke-linejoin="round"/>
<path d="M11.9091 124.637H65.5455" stroke="white" stroke-width="2" stroke-miterlimit="10"/>
<path d="M1.00004 124.902C0.995666 123.775 1.32429 122.672 1.94435 121.733C2.56442 120.793 3.44808 120.059 4.48359 119.624C5.5191 119.189 6.65995 119.071 7.76188 119.287C8.8638 119.502 9.87731 120.041 10.6742 120.835C11.4712 121.629 12.0157 122.642 12.239 123.747C12.4624 124.851 12.3544 125.997 11.9289 127.04C11.5033 128.083 10.7792 128.976 9.84823 129.606C8.91723 130.236 7.8211 130.574 6.69846 130.578C5.95264 130.583 5.21329 130.439 4.52284 130.156C3.8324 129.873 3.20443 129.456 2.67499 128.928C2.14555 128.401 1.72506 127.774 1.43763 127.083C1.1502 126.392 1.00149 125.651 1.00004 124.902ZM36.4544 156.188C36.45 155.061 36.1125 153.96 35.4846 153.025C34.8568 152.09 33.9668 151.363 32.9273 150.936C31.8877 150.509 30.7454 150.402 29.6449 150.627C28.5444 150.852 27.5352 151.4 26.7449 152.201C25.9546 153.002 25.4189 154.02 25.2054 155.127C24.9919 156.234 25.1104 157.38 25.5458 158.419C25.9811 159.459 26.7138 160.345 27.6512 160.966C28.5885 161.587 29.6883 161.915 30.8114 161.909C31.5567 161.907 32.2944 161.758 32.982 161.469C33.6696 161.181 34.2936 160.758 34.818 160.227C35.3424 159.695 35.757 159.064 36.0378 158.371C36.3187 157.678 36.4602 156.936 36.4544 156.188Z" fill="#4CD964" stroke="#231F20" stroke-width="2" stroke-miterlimit="10"/>
<path d="M31.3893 151L31.3226 135.473L60.9683 135.351L70.0909 113.555L21.1111 113.665L21 92.8184" stroke="white" stroke-width="2" stroke-miterlimit="10"/>
<path d="M26.4544 92.7964C26.4501 91.7172 26.1258 90.6634 25.5225 89.7686C24.9192 88.8737 24.0639 88.178 23.065 87.7693C22.0661 87.3607 20.9685 87.2576 19.911 87.4731C18.8534 87.6886 17.8836 88.2129 17.1242 88.9798C16.3648 89.7466 15.85 90.7216 15.6449 91.7811C15.4397 92.8407 15.5536 93.9374 15.9719 94.9322C16.3903 95.9271 17.0944 96.7755 17.9951 97.37C18.8958 97.9646 19.9526 98.2786 21.0318 98.2723C21.748 98.2709 22.4569 98.1279 23.1176 97.8516C23.7784 97.5753 24.378 97.171 24.8819 96.6621C25.3859 96.1532 25.7842 95.5497 26.0541 94.8863C26.3239 94.2228 26.46 93.5126 26.4544 92.7964Z" fill="#4CD964" stroke="#231F20" stroke-width="2" stroke-miterlimit="10"/>
<path d="M138.273 124.637H96.4545" stroke="white" stroke-width="2" stroke-miterlimit="10"/>
<path d="M148.273 124.357C148.279 125.485 147.953 126.589 147.335 127.531C146.718 128.472 145.836 129.208 144.803 129.645C143.769 130.082 142.63 130.201 141.529 129.987C140.429 129.772 139.416 129.234 138.619 128.441C137.823 127.647 137.278 126.634 137.054 125.529C136.83 124.423 136.937 123.276 137.362 122.233C137.786 121.189 138.509 120.295 139.439 119.665C140.368 119.034 141.463 118.695 142.584 118.691C144.085 118.685 145.527 119.278 146.593 120.341C147.66 121.403 148.264 122.847 148.273 124.357ZM122.818 93.0856C122.823 94.2134 123.16 95.3145 123.786 96.2496C124.413 97.1848 125.301 97.9118 126.339 98.3388C127.377 98.7658 128.517 98.8736 129.616 98.6484C130.714 98.4232 131.722 97.8753 132.511 97.0739C133.3 96.2726 133.835 95.2538 134.048 94.1465C134.261 93.0393 134.142 91.8933 133.708 90.8537C133.273 89.8141 132.542 88.9275 131.606 88.3062C130.67 87.6849 129.573 87.3568 128.451 87.3634C126.95 87.3722 125.514 87.9797 124.458 89.0525C123.402 90.1253 122.812 91.5758 122.818 93.0856Z" fill="#4CD964" stroke="#231F20" stroke-width="2" stroke-miterlimit="10"/>
<path d="M128.196 98.2734L128.273 113.812L107.716 113.922L84.6364 135.73L118.683 135.608L118.781 156.455" stroke="white" stroke-width="2" stroke-miterlimit="10"/>
<path d="M123.036 160.493C125.239 158.269 125.223 154.679 122.998 152.475C120.774 150.272 117.184 150.289 114.98 152.513C112.777 154.738 112.794 158.327 115.018 160.531C117.243 162.735 120.832 162.718 123.036 160.493Z" fill="#4CD964" stroke="#231F20" stroke-width="2" stroke-miterlimit="10"/>
<path d="M143.273 126.455C144.528 126.455 145.545 125.437 145.545 124.182C145.545 122.927 144.528 121.909 143.273 121.909C142.018 121.909 141 122.927 141 124.182C141 125.437 142.018 126.455 143.273 126.455Z" fill="#B3D459"/>
<path d="M121.437 155.968C121.439 156.37 121.322 156.764 121.099 157.099C120.876 157.435 120.559 157.696 120.187 157.851C119.815 158.006 119.405 158.048 119.009 157.97C118.613 157.892 118.25 157.698 117.965 157.414C117.68 157.129 117.486 156.767 117.408 156.372C117.329 155.977 117.371 155.568 117.526 155.197C117.681 154.826 117.944 154.509 118.28 154.287C118.616 154.065 119.011 153.947 119.414 153.95C119.951 153.95 120.465 154.162 120.845 154.541C121.224 154.919 121.437 155.433 121.437 155.968ZM33.1393 156.232C33.1415 156.634 33.024 157.028 32.8019 157.363C32.5797 157.698 32.2627 157.96 31.8913 158.115C31.5198 158.27 31.1104 158.312 30.7151 158.235C30.3198 158.158 29.9563 157.966 29.6707 157.682C29.3851 157.399 29.1903 157.037 29.1109 156.643C29.0315 156.25 29.0711 155.841 29.2248 155.47C29.3784 155.098 29.6391 154.781 29.9739 154.557C30.3086 154.334 30.7023 154.214 31.1051 154.214C31.6427 154.214 32.1584 154.427 32.5396 154.805C32.9208 155.183 33.1364 155.696 33.1393 156.232ZM9.61379 124.504C9.61379 124.905 9.49449 125.298 9.27097 125.631C9.04746 125.965 8.72976 126.225 8.35807 126.379C7.98638 126.532 7.57737 126.573 7.18279 126.494C6.7882 126.416 6.42574 126.223 6.14126 125.939C5.85678 125.655 5.66305 125.294 5.58456 124.9C5.50607 124.506 5.54635 124.098 5.70031 123.727C5.85427 123.357 6.115 123.04 6.44951 122.817C6.78403 122.594 7.17731 122.475 7.57963 122.475C7.84717 122.473 8.11234 122.525 8.3598 122.626C8.60726 122.728 8.83208 122.877 9.02127 123.066C9.21045 123.255 9.36023 123.479 9.46193 123.726C9.56364 123.973 9.61526 124.237 9.61379 124.504ZM23.5876 93.1505C23.5876 93.5497 23.4689 93.9399 23.2466 94.2718C23.0243 94.6036 22.7084 94.8623 22.3387 95.0151C21.969 95.1678 21.5622 95.2078 21.1698 95.1299C20.7773 95.052 20.4169 94.8598 20.1339 94.5776C19.851 94.2953 19.6583 93.9357 19.5802 93.5442C19.5022 93.1528 19.5422 92.747 19.6954 92.3782C19.8485 92.0094 20.1078 91.6942 20.4405 91.4725C20.7732 91.2507 21.1643 91.1323 21.5645 91.1323C22.101 91.1323 22.6156 91.345 22.995 91.7234C23.3744 92.1019 23.5876 92.6153 23.5876 93.1505ZM131 93.0182C131 93.4173 130.881 93.8075 130.659 94.1394C130.437 94.4713 130.121 94.73 129.751 94.8827C129.381 95.0355 128.975 95.0755 128.582 94.9976C128.19 94.9197 127.829 94.7275 127.546 94.4452C127.263 94.163 127.071 93.8034 126.993 93.4119C126.915 93.0204 126.955 92.6146 127.108 92.2459C127.261 91.8771 127.52 91.5619 127.853 91.3401C128.186 91.1184 128.577 91 128.977 91C129.513 91 130.028 91.2126 130.407 91.5911C130.787 91.9696 131 92.4829 131 93.0182Z" fill="#B3D459"/>
</svg>
