<svg width="20" height="20" viewBox="0 0 20 20" fill="none" xmlns="http://www.w3.org/2000/svg">
<path d="M11.6665 15.8327H4.99984C4.49984 15.8327 4.1665 15.4993 4.1665 14.9993C4.1665 14.4993 4.49984 14.166 4.99984 14.166H11.6665C12.0832 14.166 12.4998 13.9993 12.8332 13.666C13.1665 13.3327 13.3332 12.916 13.3332 12.4993C13.3332 12.0827 13.1665 11.666 12.8332 11.3327C12.4998 10.9993 12.0832 10.8327 11.6665 10.8327C11.1665 10.8327 10.8332 10.4993 10.8332 9.99935C10.8332 9.49935 11.1665 9.16602 11.6665 9.16602C12.0832 9.16602 12.4998 8.99935 12.8332 8.66602C13.1665 8.33268 13.3332 7.91602 13.3332 7.49935C13.3332 7.08268 13.1665 6.66602 12.8332 6.33268C12.4998 5.99935 12.0832 5.83268 11.6665 5.83268H4.99984C4.49984 5.83268 4.1665 5.49935 4.1665 4.99935C4.1665 4.49935 4.49984 4.16602 4.99984 4.16602H11.6665C12.5832 4.16602 13.4165 4.49935 13.9998 5.16602C14.6665 5.74935 14.9998 6.58268 14.9998 7.49935C14.9998 8.41602 14.6665 9.24935 13.9998 9.83268L13.8332 9.99935L13.9998 10.166C14.6665 10.8327 14.9998 11.666 14.9998 12.4993C14.9998 13.3327 14.6665 14.2493 13.9998 14.8327C13.3332 15.416 12.5832 15.8327 11.6665 15.8327Z" fill="white"/>
<path d="M6.66634 15.8327C6.16634 15.8327 5.83301 15.4993 5.83301 14.9993V4.99935C5.83301 4.49935 6.16634 4.16602 6.66634 4.16602C7.16634 4.16602 7.49967 4.49935 7.49967 4.99935V14.9993C7.49967 15.4993 7.16634 15.8327 6.66634 15.8327Z" fill="white"/>
<path d="M11.6663 10.8327H6.66634C6.16634 10.8327 5.83301 10.4993 5.83301 9.99935C5.83301 9.49935 6.16634 9.16602 6.66634 9.16602H11.6663C12.1663 9.16602 12.4997 9.49935 12.4997 9.99935C12.4997 10.4993 12.1663 10.8327 11.6663 10.8327ZM7.49967 5.83268C6.99967 5.83268 6.66634 5.49935 6.66634 4.99935V2.49935C6.66634 1.99935 6.99967 1.66602 7.49967 1.66602C7.99967 1.66602 8.33301 1.99935 8.33301 2.49935V4.99935C8.33301 5.49935 7.99967 5.83268 7.49967 5.83268ZM10.833 5.83268C10.333 5.83268 9.99967 5.49935 9.99967 4.99935V2.49935C9.99967 1.99935 10.333 1.66602 10.833 1.66602C11.333 1.66602 11.6663 1.99935 11.6663 2.49935V4.99935C11.6663 5.49935 11.333 5.83268 10.833 5.83268ZM7.49967 18.3327C6.99967 18.3327 6.66634 17.9993 6.66634 17.4993V14.9993C6.66634 14.4993 6.99967 14.166 7.49967 14.166C7.99967 14.166 8.33301 14.4993 8.33301 14.9993V17.4993C8.33301 17.9993 7.99967 18.3327 7.49967 18.3327ZM10.833 18.3327C10.333 18.3327 9.99967 17.9993 9.99967 17.4993V14.9993C9.99967 14.4993 10.333 14.166 10.833 14.166C11.333 14.166 11.6663 14.4993 11.6663 14.9993V17.4993C11.6663 17.9993 11.333 18.3327 10.833 18.3327Z" fill="white"/>
</svg>
