<svg width="20" height="20" viewBox="0 0 20 20" fill="none" xmlns="http://www.w3.org/2000/svg">
<path d="M11.667 15.8337H5.00033C4.50033 15.8337 4.16699 15.5003 4.16699 15.0003C4.16699 14.5003 4.50033 14.167 5.00033 14.167H11.667C12.0837 14.167 12.5003 14.0003 12.8337 13.667C13.167 13.3337 13.3337 12.917 13.3337 12.5003C13.3337 12.0837 13.167 11.667 12.8337 11.3337C12.5003 11.0003 12.0837 10.8337 11.667 10.8337C11.167 10.8337 10.8337 10.5003 10.8337 10.0003C10.8337 9.50033 11.167 9.16699 11.667 9.16699C12.0837 9.16699 12.5003 9.00033 12.8337 8.66699C13.167 8.33366 13.3337 7.91699 13.3337 7.50033C13.3337 7.08366 13.167 6.66699 12.8337 6.33366C12.5003 6.00033 12.0837 5.83366 11.667 5.83366H5.00033C4.50033 5.83366 4.16699 5.50033 4.16699 5.00033C4.16699 4.50033 4.50033 4.16699 5.00033 4.16699H11.667C12.5837 4.16699 13.417 4.50033 14.0003 5.16699C14.667 5.75033 15.0003 6.58366 15.0003 7.50033C15.0003 8.41699 14.667 9.25033 14.0003 9.83366L13.8337 10.0003L14.0003 10.167C14.667 10.8337 15.0003 11.667 15.0003 12.5003C15.0003 13.3337 14.667 14.2503 14.0003 14.8337C13.3337 15.417 12.5837 15.8337 11.667 15.8337Z" fill="#0166FF"/>
<path d="M6.66732 15.8337C6.16732 15.8337 5.83398 15.5003 5.83398 15.0003V5.00033C5.83398 4.50033 6.16732 4.16699 6.66732 4.16699C7.16732 4.16699 7.50065 4.50033 7.50065 5.00033V15.0003C7.50065 15.5003 7.16732 15.8337 6.66732 15.8337Z" fill="#0166FF"/>
<path d="M11.6673 10.8337H6.66732C6.16732 10.8337 5.83398 10.5003 5.83398 10.0003C5.83398 9.50033 6.16732 9.16699 6.66732 9.16699H11.6673C12.1673 9.16699 12.5007 9.50033 12.5007 10.0003C12.5007 10.5003 12.1673 10.8337 11.6673 10.8337ZM7.50065 5.83366C7.00065 5.83366 6.66732 5.50033 6.66732 5.00033V2.50033C6.66732 2.00033 7.00065 1.66699 7.50065 1.66699C8.00065 1.66699 8.33398 2.00033 8.33398 2.50033V5.00033C8.33398 5.50033 8.00065 5.83366 7.50065 5.83366ZM10.834 5.83366C10.334 5.83366 10.0007 5.50033 10.0007 5.00033V2.50033C10.0007 2.00033 10.334 1.66699 10.834 1.66699C11.334 1.66699 11.6673 2.00033 11.6673 2.50033V5.00033C11.6673 5.50033 11.334 5.83366 10.834 5.83366ZM7.50065 18.3337C7.00065 18.3337 6.66732 18.0003 6.66732 17.5003V15.0003C6.66732 14.5003 7.00065 14.167 7.50065 14.167C8.00065 14.167 8.33398 14.5003 8.33398 15.0003V17.5003C8.33398 18.0003 8.00065 18.3337 7.50065 18.3337ZM10.834 18.3337C10.334 18.3337 10.0007 18.0003 10.0007 17.5003V15.0003C10.0007 14.5003 10.334 14.167 10.834 14.167C11.334 14.167 11.6673 14.5003 11.6673 15.0003V17.5003C11.6673 18.0003 11.334 18.3337 10.834 18.3337Z" fill="#0166FF"/>
</svg>
