<svg width="113" height="105" viewBox="0 0 113 105" fill="none" xmlns="http://www.w3.org/2000/svg">
<path d="M44.676 57.418L54.1083 64.2717L36.1139 74.5527L26.6918 68.5567L44.676 57.418Z" fill="#FFD600"/>
<path d="M105.504 80.5466V88.2559" stroke="white" stroke-width="1.2" stroke-linecap="round"/>
<path d="M12.9924 25.7248L6.13965 30.0077" stroke="white" stroke-width="1.2" stroke-linecap="round"/>
<path d="M11.2793 75.407L20.7018 81.4031" stroke="white" stroke-width="1.2" stroke-linecap="round"/>
<path d="M84.0889 92.5388V101.105" stroke="white" stroke-width="1.2" stroke-linecap="round"/>
<path d="M36.1202 103.674L1 82.2598V53.9923M36.1202 103.674V74.5505M36.1202 103.674L62.552 88.2559M36.1202 74.5505L1 53.9923M36.1202 74.5505L66.9574 56.5621M1 53.9923L24.9845 40.0014M66.9574 56.5621L31.8372 36.0039L24.9845 40.0014M66.9574 56.5621V85.6861L62.552 88.2559M62.552 88.2559L76.3798 96.8218M76.3798 96.8218L111.5 77.1202V31.721M76.3798 96.8218V50.566M111.5 31.721L76.3798 50.566M111.5 31.721L58.3915 0.883789L24.9845 20.5853M76.3798 50.566L24.9845 20.5853M24.9845 20.5853V40.0014" stroke="white" stroke-width="1.2"/>
<path d="M44.6858 43.7133V57.4187M44.6858 57.4187L25.8408 68.5543M44.6858 57.4187L54 64" stroke="white" stroke-width="1.2"/>
<path d="M11.2785 15.4458L4.42578 11.1629" stroke="white" stroke-width="1.2" stroke-linecap="round"/>
<path d="M20.7012 10.3063V1.74042" stroke="white" stroke-width="1.2" stroke-linecap="round"/>
</svg>
