<svg width="113" height="105" viewBox="0 0 113 105" fill="none" xmlns="http://www.w3.org/2000/svg">
<path d="M44.676 57.4167L54.1083 64.2704L36.1139 74.5514L26.6918 68.5554L44.676 57.4167Z" fill="#0166FF"/>
<path d="M105.504 80.5449V88.2542" stroke="#616A7F" stroke-width="1.2" stroke-linecap="round"/>
<path d="M12.9924 25.7246L6.13965 30.0076" stroke="#616A7F" stroke-width="1.2" stroke-linecap="round"/>
<path d="M11.2791 75.4062L20.7015 81.4024" stroke="#616A7F" stroke-width="1.2" stroke-linecap="round"/>
<path d="M84.0886 92.5371V101.103" stroke="#616A7F" stroke-width="1.2" stroke-linecap="round"/>
<path d="M36.1202 103.674L1 82.2588V53.9913M36.1202 103.674V74.5495M36.1202 103.674L62.552 88.2549M36.1202 74.5495L1 53.9913M36.1202 74.5495L66.9574 56.5611M1 53.9913L24.9845 40.0004M66.9574 56.5611L31.8372 36.003L24.9845 40.0004M66.9574 56.5611V85.6851L62.552 88.2549M62.552 88.2549L76.3798 96.8208M76.3798 96.8208L111.5 77.1192V31.72M76.3798 96.8208V50.565M111.5 31.72L76.3798 50.565M111.5 31.72L58.3915 0.882812L24.9845 20.5844M76.3798 50.565L24.9845 20.5844M24.9845 20.5844V40.0004" stroke="#616A7F" stroke-width="1.2"/>
<path d="M44.686 43.7129V57.4183M44.686 57.4183L25.8411 68.554M44.686 57.4183L54.0002 63.9996" stroke="#616A7F" stroke-width="1.2"/>
<path d="M11.2787 15.4451L4.42603 11.1621" stroke="#616A7F" stroke-width="1.2" stroke-linecap="round"/>
<path d="M20.7014 10.3061V1.74023" stroke="#616A7F" stroke-width="1.2" stroke-linecap="round"/>
</svg>
