<svg width="124" height="95" viewBox="0 0 124 95" fill="none" xmlns="http://www.w3.org/2000/svg">
<path d="M80.3041 1.68218C82.0103 0.752719 84.1465 1.38224 85.0759 3.08841C86.0054 4.79458 85.3759 6.93075 83.6697 7.86021C81.9635 8.78967 79.8274 8.16015 78.8979 6.45398C77.9684 4.74781 78.598 2.61164 80.3041 1.68218Z" stroke="#616A7F"/>
<path d="M116.462 20.549C118.107 19.5143 120.278 20.0084 121.313 21.6529C122.348 23.2973 121.853 25.4688 120.209 26.5036C118.565 27.5383 116.393 27.0442 115.358 25.3997C114.324 23.7553 114.818 21.5838 116.462 20.549Z" fill="#616A7F"/>
<path d="M94.5597 29.0996L97.635 15.5856M89.261 20.679L102.775 23.7542" stroke="#616A7F" stroke-width="1.5" stroke-linecap="round" stroke-linejoin="round"/>
<path d="M6.95449 46.4276L4.74683 56.1289M0.999973 50.1744L10.7013 52.3821" stroke="#616A7F" stroke-width="1.5" stroke-linecap="round" stroke-linejoin="round"/>
<path d="M16.4014 33.5315C18.0459 32.4967 20.2174 32.9909 21.2521 34.6353C22.2869 36.2797 21.7927 38.4512 20.1483 39.486C18.5038 40.5207 16.3323 40.0266 15.2976 38.3821C14.2628 36.7377 14.757 34.5662 16.4014 33.5315Z" fill="#616A7F"/>
<path d="M80.1853 25.4287C77.0683 23.6135 71.8721 20.5993 72.022 20.6824C65.8482 17.0914 58.2046 18.9957 51.9871 22.5826C36.8394 31.3356 24.3994 52.7107 24.451 70.271C24.4725 77.3628 26.6353 84.7727 32.7182 88.309C32.8364 88.3778 40.9791 93.1166 40.8618 93.0483C40.8629 93.0483 40.8629 93.0489 40.8629 93.0489C46.2043 95.2142 51.2632 96.7094 60.9013 91.1458C76.135 82.3501 88.4878 60.9526 88.4385 43.4466C88.4145 34.9071 85.4824 28.5134 80.1853 25.4287ZM63.0288 20.0034L69.5021 23.765C67.5197 24.1007 65.5345 24.7419 63.6955 25.5352L56.8165 21.5375C58.9489 20.6969 61.0272 20.1793 63.0288 20.0034ZM52.5733 23.5983C53.5473 23.0362 54.5123 22.5431 55.468 22.1092L62.3893 26.1315C61.6443 26.4929 60.6737 27.0099 60.1318 27.322C58.3808 28.3333 56.6704 29.5181 55.0099 30.8377L47.9413 26.7412C49.4471 25.5705 50.993 24.5115 52.5733 23.5983ZM46.9549 27.5252L54.0392 31.6307C52.0174 33.3255 50.0776 35.2221 48.2512 37.2856L41.1226 33.1543C42.9629 31.0949 44.9158 29.2017 46.9549 27.5252ZM40.3371 34.0547L47.4731 38.1901C47.3829 38.2961 47.2914 38.4003 47.2018 38.5071C45.625 40.3859 44.1398 42.3824 42.7644 44.4659L35.6173 40.3124C37.0728 38.1139 38.6542 36.0164 40.3371 34.0547ZM34.9802 41.2976L42.1291 45.4522C40.7381 47.6415 39.4693 49.9164 38.3428 52.2439L31.194 48.094C32.3169 45.764 33.5863 43.4871 34.9802 41.2976ZM30.6928 49.1593L37.8386 53.3074C36.7229 55.721 35.7645 58.1815 34.9819 60.6516L27.8608 56.5131C28.6295 54.0408 29.5816 51.5766 30.6928 49.1593ZM27.5165 57.6685L34.6286 61.8016C33.8052 64.6026 33.2511 67.2536 32.929 69.8111L25.8855 65.7229C26.1842 63.0738 26.7393 60.3717 27.5165 57.6685ZM25.6235 70.2676C25.6203 69.1933 25.6653 68.1039 25.7555 67.0035L32.7914 71.0874C32.4967 74.1448 32.5062 77.1698 33.0188 80.2274L26.2118 76.2764C25.8276 74.4271 25.6299 72.4205 25.6235 70.2676ZM27.8837 81.2575C27.3669 80.2063 26.9438 79.0689 26.6034 77.8598L33.3234 81.7603C33.5678 82.8393 33.8989 83.9755 34.2912 84.987L27.8837 81.2575ZM60.315 90.1302C46.2563 98.2478 35.1792 92.4014 33.8995 77.8542C32.9427 66.9793 37.4394 54.8004 43.4242 45.5688C43.4314 45.558 43.4442 45.5539 43.4507 45.5426C43.457 45.5319 43.4568 45.5197 43.4622 45.5089C44.8209 43.418 46.291 41.4115 47.8566 39.5256C51.6804 34.9208 56.0639 31.0273 60.7226 28.3377C75.3622 19.8839 87.2182 26.4857 87.266 43.45C87.3141 60.5816 75.2247 81.5223 60.315 90.1302Z" fill="#616A7F"/>
<path d="M80.7784 44.1274C80.1712 32.6911 72.4388 29.0047 62.1899 34.9224C50.2423 41.8208 40.1806 59.2407 40.2184 72.9615C40.2519 84.6252 47.2576 89.5645 57.6856 84.1826C70.4345 77.6321 81.5637 58.5802 80.7784 44.1274ZM54.613 80.4559C50.8318 82.627 47.2349 83.498 44.4771 82.9043C42.5061 80.8367 41.4037 77.4295 41.3909 72.958C41.3531 59.6054 51.1469 42.6522 62.7762 35.9381C65.712 34.2429 69.6147 32.7483 72.9491 33.5006C74.9307 35.592 75.9881 39.0155 75.9994 43.4331C76.0349 56.7794 66.24 73.7338 54.613 80.4559Z" fill="#0166FF"/>
</svg>
