<svg width="157" height="96" viewBox="0 0 157 96" fill="none" xmlns="http://www.w3.org/2000/svg">
<rect x="56.2266" y="55.5664" width="37" height="12.9676" rx="6.4838" fill="#FFD600"/>
<rect x="83.2266" y="15.666" width="12" height="10.9726" rx="5.48629" fill="#FFD600"/>
<path d="M67.7266 25.1426L56.7266 43.5965V44.594H58.7266H79.7266H91.2266L92.7266 44.0952L86.7266 34.1201H86.2266L80.7266 44.0952H78.7266L67.7266 25.1426Z" fill="#FFD600"/>
<path d="M89.2958 27.656C92.9513 27.656 95.9256 24.6891 95.9256 21.0427C95.9256 17.3963 92.9513 14.4303 89.2958 14.4303C85.6403 14.4303 82.666 17.3965 82.666 21.0427C82.666 24.6889 85.6403 27.656 89.2958 27.656ZM89.2958 16.2539C91.9435 16.2539 94.0975 18.4025 94.0975 21.0427C94.0975 23.6838 91.9435 25.8324 89.2958 25.8324C86.6481 25.8324 84.4941 23.6838 84.4941 21.0427C84.4941 18.4025 86.6481 16.2539 89.2958 16.2539ZM109.913 43.7019C109.828 43.6172 109.727 43.55 109.616 43.5042C109.506 43.4583 109.387 43.4348 109.267 43.4348H105.168V11.9664C105.168 7.01991 101.134 2.99609 96.1748 2.99609H52.7999C47.8411 2.99609 43.8063 7.0201 43.8063 11.9664V43.4346H39.7071C39.5871 43.4346 39.4682 43.4581 39.3573 43.504C39.2464 43.5498 39.1457 43.617 39.0608 43.7017L31.2677 51.4753C31.1828 51.56 31.1155 51.6605 31.0695 51.7711C31.0236 51.8817 31 52.0003 31 52.12V87.3149C31 87.5571 31.0964 87.7887 31.2677 87.9596L39.0608 95.734C39.1457 95.8187 39.2464 95.8859 39.3573 95.9317C39.4682 95.9776 39.5871 96.0011 39.7071 96.0011H109.267C109.387 96.0011 109.506 95.9776 109.616 95.9317C109.727 95.8859 109.828 95.8187 109.913 95.734L117.707 87.9596C117.792 87.875 117.859 87.7745 117.905 87.6639C117.951 87.5532 117.975 87.4347 117.974 87.3149V52.12C117.975 52.0003 117.951 51.8817 117.905 51.7711C117.859 51.6605 117.792 51.56 117.707 51.4753L109.913 43.7019ZM45.6344 11.9664C45.6344 8.02522 48.8489 4.81966 52.7999 4.81966H96.1746C100.126 4.81966 103.34 8.02522 103.34 11.9664V43.4346H93.1598L87.2461 33.0466C87.1662 32.9067 87.0506 32.7903 86.9111 32.7093C86.7716 32.6283 86.6131 32.5856 86.4516 32.5854C86.29 32.5855 86.1303 32.6285 85.9907 32.7098C85.8511 32.7912 85.7357 32.9081 85.6562 33.0485L79.762 43.4346H79.6011L68.4921 23.9135C68.1672 23.3436 67.2263 23.3445 66.9014 23.9144L55.8059 43.4348H45.6344V11.9664ZM91.0577 43.4346H81.8622L86.4527 35.3458L91.0577 43.4346ZM77.4985 43.4346H57.9079L67.6977 26.2117L77.4985 43.4346ZM116.146 86.9373L108.888 94.1775H40.0857L32.8283 86.9373V52.4977L40.0857 45.2584H108.888L116.147 52.4977L116.146 86.9373ZM86.7347 54.8866H62.239C58.1444 54.8866 54.8138 58.2098 54.8138 62.2942C54.8138 66.3787 58.1444 69.7009 62.239 69.7009H86.7347C90.8294 69.7009 94.1609 66.3787 94.1609 62.2942C94.1609 58.2098 90.8294 54.8866 86.7347 54.8866ZM86.7347 67.8774H62.239C59.1531 67.8774 56.6419 65.3726 56.6419 62.2942C56.6419 59.2151 59.1529 56.7102 62.239 56.7102H86.7347C89.8216 56.7102 92.3327 59.2149 92.3327 62.2942C92.3327 65.3726 89.8216 67.8774 86.7347 67.8774Z" fill="white"/>
<path d="M127.514 1.16539C129.454 1.07339 131.102 2.56786 131.194 4.50374C131.287 6.43963 129.788 8.08323 127.848 8.17523C125.907 8.26723 124.259 6.77276 124.167 4.83688C124.075 2.901 125.573 1.25739 127.514 1.16539Z" stroke="white"/>
<path d="M151.822 33.832C153.753 33.6186 155.492 35.0069 155.706 36.9332C155.919 38.8595 154.528 40.5937 152.597 40.807C150.665 41.0204 148.927 39.6321 148.713 37.7058C148.499 35.7795 149.891 34.0453 151.822 33.832Z" fill="white"/>
<path d="M128.383 31.9805L137.045 21.1879M127.288 22.1165L138.108 30.7566" stroke="white" stroke-width="1.5" stroke-linecap="round" stroke-linejoin="round"/>
<path d="M6.95449 37.6763L4.74683 47.3535M0.999973 41.4138L10.7013 43.616" stroke="white" stroke-width="1.5" stroke-linecap="round" stroke-linejoin="round"/>
<path d="M16.4014 24.8107C18.0459 23.7785 20.2174 24.2714 21.2521 25.9118C22.2869 27.5521 21.7927 29.7182 20.1483 30.7504C18.5038 31.7826 16.3323 31.2896 15.2976 29.6493C14.2628 28.009 14.757 25.8429 16.4014 24.8107Z" fill="white"/>
</svg>
