<svg width="87" height="93" viewBox="0 0 87 93" fill="none" xmlns="http://www.w3.org/2000/svg">
<rect x="25.2266" y="52.5664" width="37" height="12.9676" rx="6.4838" fill="#0166FF"/>
<rect x="52.2266" y="12.666" width="12" height="10.9726" rx="5.48629" fill="#0166FF"/>
<path d="M36.7266 22.1426L25.7266 40.5965V41.594H27.7266H48.7266H60.2266L61.7266 41.0952L55.7266 31.1201H55.2266L49.7266 41.0952H47.7266L36.7266 22.1426Z" fill="#0166FF"/>
<path d="M58.2958 24.656C61.9513 24.656 64.9256 21.6891 64.9256 18.0427C64.9256 14.3963 61.9513 11.4303 58.2958 11.4303C54.6403 11.4303 51.666 14.3965 51.666 18.0427C51.666 21.6889 54.6403 24.656 58.2958 24.656ZM58.2958 13.2539C60.9435 13.2539 63.0975 15.4025 63.0975 18.0427C63.0975 20.6838 60.9435 22.8324 58.2958 22.8324C55.6481 22.8324 53.4941 20.6838 53.4941 18.0427C53.4941 15.4025 55.6481 13.2539 58.2958 13.2539ZM78.9129 40.7019C78.8281 40.6172 78.7273 40.55 78.6164 40.5042C78.5055 40.4583 78.3867 40.4348 78.2666 40.4348H74.1684V8.96637C74.1684 4.01991 70.1336 -0.00390625 65.1748 -0.00390625H21.7999C16.8411 -0.00390625 12.8063 4.0201 12.8063 8.96637V40.4346H8.70713C8.58708 40.4346 8.46821 40.4581 8.35731 40.504C8.24641 40.5498 8.14565 40.617 8.06081 40.7017L0.26775 48.4753C0.182828 48.56 0.115469 48.6605 0.0695254 48.7711C0.0235819 48.8817 -4.38238e-05 49.0003 6.10246e-08 49.12V84.3149C6.10246e-08 84.5571 0.096375 84.7887 0.26775 84.9596L8.06081 92.734C8.14565 92.8187 8.24641 92.8859 8.35731 92.9317C8.46821 92.9776 8.58708 93.0011 8.70713 93.0011H78.2666C78.3867 93.0011 78.5055 92.9776 78.6164 92.9317C78.7273 92.8859 78.8281 92.8187 78.9129 92.734L86.7067 84.9596C86.7917 84.875 86.859 84.7745 86.905 84.6639C86.9509 84.5532 86.9745 84.4347 86.9745 84.3149V49.12C86.9745 49.0003 86.9509 48.8817 86.905 48.7711C86.859 48.6605 86.7917 48.56 86.7067 48.4753L78.9129 40.7019ZM14.6344 8.96637C14.6344 5.02522 17.8489 1.81966 21.7999 1.81966H65.1746C69.1256 1.81966 72.3401 5.02522 72.3401 8.96637V40.4346H62.1598L56.2461 30.0466C56.1662 29.9067 56.0506 29.7903 55.9111 29.7093C55.7716 29.6283 55.6131 29.5856 55.4516 29.5854C55.29 29.5855 55.1303 29.6285 54.9907 29.7098C54.8511 29.7912 54.7357 29.9081 54.6562 30.0485L48.762 40.4346H48.6011L37.4921 20.9135C37.1672 20.3436 36.2263 20.3445 35.9014 20.9144L24.8059 40.4348H14.6344V8.96637ZM60.0577 40.4346H50.8622L55.4527 32.3458L60.0577 40.4346ZM46.4985 40.4346H26.9079L36.6977 23.2117L46.4985 40.4346ZM85.1464 83.9373L77.8881 91.1775H9.08569L1.82831 83.9373V49.4977L9.08569 42.2584H77.8882L85.1466 49.4977L85.1464 83.9373ZM55.7347 51.8866H31.239C27.1444 51.8866 23.8138 55.2098 23.8138 59.2942C23.8138 63.3787 27.1444 66.7009 31.239 66.7009H55.7347C59.8294 66.7009 63.1609 63.3787 63.1609 59.2942C63.1609 55.2098 59.8294 51.8866 55.7347 51.8866ZM55.7347 64.8774H31.239C28.1531 64.8774 25.6419 62.3726 25.6419 59.2942C25.6419 56.2151 28.1529 53.7102 31.239 53.7102H55.7347C58.8216 53.7102 61.3327 56.2149 61.3327 59.2942C61.3327 62.3726 58.8216 64.8774 55.7347 64.8774Z" fill="#616A7F"/>
</svg>
