<svg width="297" height="297" viewBox="0 0 297 297" fill="none" xmlns="http://www.w3.org/2000/svg">
<mask id="mask0_3898_42488" style="mask-type:luminance" maskUnits="userSpaceOnUse" x="0" y="0" width="297" height="297">
<path d="M297 0H0V297H297V0Z" fill="white"/>
</mask>
<g mask="url(#mask0_3898_42488)">
<path d="M148.501 104.37C172.996 104.37 192.884 124.259 192.884 148.754C192.884 173.249 172.996 193.137 148.501 193.137C124.006 193.137 104.118 173.249 104.118 148.754C104.118 124.259 124.006 104.37 148.501 104.37Z" fill="#4CD964"/>
<path d="M148.499 91.5176C179.948 91.5176 205.481 117.051 205.481 148.5C205.481 179.949 179.948 205.482 148.499 205.482C117.05 205.482 91.5166 179.949 91.5166 148.5C91.5166 117.051 117.05 91.5176 148.499 91.5176Z" stroke="#4CD964" stroke-width="5.71752"/>
<path d="M228.985 148.589C230.02 148.591 230.982 148.592 231.862 148.594" stroke="#4CD964" stroke-width="2.75" stroke-linecap="round"/>
<path d="M68.0149 148.308C66.9801 148.306 66.0184 148.305 65.1384 148.303" stroke="#4CD964" stroke-width="2.75" stroke-linecap="round"/>
<path d="M148.256 229.724C148.254 230.759 148.253 231.721 148.251 232.601" stroke="#4CD964" stroke-width="2.75" stroke-linecap="round"/>
<path d="M148.536 67.5166C148.538 66.4818 148.539 65.5201 148.541 64.6401" stroke="#4CD964" stroke-width="2.75" stroke-linecap="round"/>
<path d="M205.341 205.34C206.072 206.072 206.751 206.753 207.372 207.377" stroke="#4CD964" stroke-width="2.75" stroke-linecap="round"/>
<path d="M91.7166 91.3176C90.986 90.5847 90.307 89.9037 89.6857 89.2805" stroke="#4CD964" stroke-width="2.75" stroke-linecap="round"/>
<path d="M90.8857 205.626C90.1528 206.357 89.4719 207.036 88.8486 207.657" stroke="#4CD964" stroke-width="2.75" stroke-linecap="round"/>
<path d="M205.783 91.1272C206.516 90.3966 207.197 89.7176 207.82 89.0963" stroke="#4CD964" stroke-width="2.75" stroke-linecap="round"/>
<path d="M224.082 176.052C225.054 176.408 225.957 176.738 226.784 177.04" stroke="#4CD964" stroke-width="2.75" stroke-linecap="round"/>
<path d="M72.9175 120.733C71.9456 120.377 71.0424 120.047 70.216 119.745" stroke="#4CD964" stroke-width="2.75" stroke-linecap="round"/>
<path d="M120.473 224.684C120.117 225.656 119.787 226.559 119.485 227.385" stroke="#4CD964" stroke-width="2.75" stroke-linecap="round"/>
<path d="M176.216 72.354C176.571 71.3822 176.901 70.4789 177.204 69.6525" stroke="#4CD964" stroke-width="2.75" stroke-linecap="round"/>
<path d="M182.454 221.294C182.89 222.233 183.295 223.105 183.666 223.903" stroke="#4CD964" stroke-width="2.75" stroke-linecap="round"/>
<path d="M114.68 75.2864C114.245 74.3478 113.839 73.4757 113.469 72.6775" stroke="#4CD964" stroke-width="2.75" stroke-linecap="round"/>
<path d="M74.8042 182.418C73.8656 182.854 72.9935 183.259 72.1953 183.63" stroke="#4CD964" stroke-width="2.75" stroke-linecap="round"/>
<path d="M221.933 114.121C222.871 113.685 223.743 113.28 224.541 112.909" stroke="#4CD964" stroke-width="2.75" stroke-linecap="round"/>
<path d="M132.589 149.429L142.953 159.793C142.953 159.793 152.874 149.872 159.562 143.184" stroke="white" stroke-width="7.09428" stroke-linecap="round" stroke-linejoin="round"/>
</g>
</svg>
