<svg width="278" height="278" viewBox="0 0 278 278" fill="none" xmlns="http://www.w3.org/2000/svg">
<mask id="mask0_3898_42220" style="mask-type:luminance" maskUnits="userSpaceOnUse" x="0" y="0" width="278" height="278">
<path d="M0 0H278V278H0V0Z" fill="white"/>
</mask>
<g mask="url(#mask0_3898_42220)">
<path d="M222.154 186.744V90.3208L138.649 42.1088L55.1436 90.3208V186.744L138.649 234.956L222.154 186.744Z" stroke="#5F5F5F" stroke-width="2.45776" stroke-miterlimit="10"/>
<path d="M138.65 42.1086V234.956" stroke="#5F5F5F" stroke-width="2.45776" stroke-miterlimit="10"/>
<path d="M222.154 90.3196L55.1436 186.744" stroke="#5F5F5F" stroke-width="2.45776" stroke-miterlimit="10"/>
<path d="M222.154 186.744L55.1436 90.3205" stroke="#5F5F5F" stroke-width="2.45776" stroke-miterlimit="10"/>
<path d="M183.699 138.961C183.699 163.84 163.53 184.009 138.65 184.009C113.77 184.009 93.6016 163.84 93.6016 138.961C93.6016 114.081 113.77 93.9123 138.65 93.9123C163.53 93.9123 183.699 114.081 183.699 138.961Z" fill="#F7B924"/>
<path d="M138.65 176.839C138.65 176.839 138.65 182.14 138.65 183.626" stroke="#353535" stroke-width="3.32344" stroke-miterlimit="10"/>
<path d="M165.598 165.631C165.598 165.631 169.346 169.38 170.397 170.431" stroke="#353535" stroke-width="3.32344" stroke-miterlimit="10"/>
<path d="M176.528 139.197C176.528 139.197 181.828 139.197 183.315 139.197" stroke="#353535" stroke-width="3.32344" stroke-miterlimit="10"/>
<path d="M165.805 112.483C165.805 112.483 169.553 108.735 170.605 107.684" stroke="#353535" stroke-width="3.32344" stroke-miterlimit="10"/>
<path d="M139.313 100.893C139.313 100.893 139.313 95.5917 139.313 94.105" stroke="#353535" stroke-width="3.32344" stroke-miterlimit="10"/>
<path d="M112.366 111.78C112.366 111.78 108.618 108.032 107.566 106.981" stroke="#353535" stroke-width="3.32344" stroke-miterlimit="10"/>
<path d="M100.773 138.534C100.773 138.534 95.472 138.534 93.9854 138.534" stroke="#353535" stroke-width="3.32344" stroke-miterlimit="10"/>
<path d="M111.736 165.641C111.736 165.641 107.988 169.39 106.937 170.441" stroke="#353535" stroke-width="3.32344" stroke-miterlimit="10"/>
<path d="M176.527 138.961C176.527 159.88 159.569 176.838 138.65 176.838C117.731 176.838 100.772 159.88 100.772 138.961C100.772 118.042 117.731 101.083 138.65 101.083C159.569 101.083 176.527 118.042 176.527 138.961Z" fill="#EA930E"/>
<path d="M173.984 138.961C173.984 158.475 158.164 174.294 138.651 174.294C119.136 174.294 103.317 158.475 103.317 138.961C103.317 119.447 119.136 103.628 138.651 103.628C158.164 103.628 173.984 119.447 173.984 138.961Z" fill="#F7B924"/>
<path d="M155.735 146.684C155.735 152.217 151.344 155.418 142.928 155.418H128.044C127.121 155.418 126.373 154.67 126.373 153.747V125.076C126.373 124.153 127.121 123.404 128.044 123.404H142.016C150.018 123.404 154.134 126.743 154.134 131.729C154.134 134.93 152.487 137.399 149.881 138.771C153.448 139.914 155.735 142.658 155.735 146.684ZM133.738 128.985V136.531H141.1C144.712 136.531 146.678 135.25 146.678 132.735C146.678 130.219 144.712 128.985 141.1 128.985H133.738ZM148.28 145.905C148.28 143.207 146.22 141.926 142.381 141.926H133.738V149.837H142.381C146.22 149.837 148.28 148.65 148.28 145.905Z" fill="#353535"/>
<path d="M135.471 114.593H131.27V123.404H135.471V114.593Z" fill="#353535"/>
<path d="M143.699 114.593H139.497V123.404H143.699V114.593Z" fill="#353535"/>
<path d="M139.495 163.298H143.697V154.518H139.495V163.298Z" fill="#353535"/>
<path d="M131.27 163.298H135.471V154.518H131.27V163.298Z" fill="#353535"/>
<path d="M150.059 42.1083C150.059 48.4089 144.951 53.5164 138.651 53.5164C132.35 53.5164 127.242 48.4089 127.242 42.1083C127.242 35.8077 132.35 30.7002 138.651 30.7002C144.951 30.7002 150.059 35.8077 150.059 42.1083Z" fill="#0166FF"/>
<path d="M150.059 234.956C150.059 241.256 144.951 246.364 138.651 246.364C132.35 246.364 127.242 241.256 127.242 234.956C127.242 228.655 132.35 223.548 138.651 223.548C144.951 223.548 150.059 228.655 150.059 234.956Z" fill="#FFD600"/>
<path d="M232.588 90.3205C232.588 96.6211 227.48 101.729 221.18 101.729C214.879 101.729 209.772 96.6211 209.772 90.3205C209.772 84.0199 214.879 78.9124 221.18 78.9124C227.48 78.9124 232.588 84.0199 232.588 90.3205Z" fill="#FFD600"/>
<path d="M66.5521 186.744C66.5521 193.045 61.4443 198.152 55.144 198.152C48.8434 198.152 43.7356 193.045 43.7356 186.744C43.7356 180.444 48.8434 175.336 55.144 175.336C61.4443 175.336 66.5521 180.444 66.5521 186.744Z" fill="#0166FF"/>
<path d="M66.5521 90.3205C66.5521 96.6211 61.4443 101.729 55.144 101.729C48.8434 101.729 43.7356 96.6211 43.7356 90.3205C43.7356 84.0199 48.8434 78.9124 55.144 78.9124C61.4443 78.9124 66.5521 84.0199 66.5521 90.3205Z" fill="#FFD600"/>
<path d="M232.588 186.744C232.588 193.045 227.48 198.152 221.18 198.152C214.879 198.152 209.772 193.045 209.772 186.744C209.772 180.444 214.879 175.336 221.18 175.336C227.48 175.336 232.588 180.444 232.588 186.744Z" fill="#0166FF"/>
</g>
</svg>
