<svg width="104" height="87" viewBox="0 0 104 87" fill="none" xmlns="http://www.w3.org/2000/svg">
<path d="M16 11.5C6.80002 11.1 5.50002 17.6667 6.00002 21V21.5H42.5C50.1 20.7 53.3333 24.5 54 26.5C56.8 30.9 63.5 31.6667 66.5 31.5H87V21C87.8 15.4 83.3333 13 81 12.5L16 11.5Z" fill="#FFD600"/>
<path d="M5.99972 21.5C5.33306 18 6.09972 11.1 14.4997 11.5L80 12.5C82.3333 12.3333 87 13.5 87 19.5V31.5M87 31.5H74.8091C67.285 31.5 58.1736 32.7605 54 26.5V26.5C52.8333 24.5 49 20.7 43 21.5H5.5C4 22 1 23.9 1 27.5L5.5 79.5C5.66667 81.8333 7.5 86.4 13.5 86L83.5 85.5C85.3333 85.3333 89.1 83.2 89.5 76L93 36.5C93 34.8333 91.8 31.5 87 31.5Z" stroke="white" stroke-width="1.2"/>
<path d="M86.5 10.5L90 1" stroke="white" stroke-width="1.2" stroke-linecap="round"/>
<path d="M90.5 14.5L98.5 9" stroke="white" stroke-width="1.2" stroke-linecap="round"/>
<path d="M92.5 19.5H103" stroke="white" stroke-width="1.2" stroke-linecap="round"/>
<path d="M31 63.9325C35.8333 69.2658 49 76.7325 63 63.9325" stroke="white" stroke-width="1.2" stroke-linecap="round"/>
<circle cx="59" cy="49" r="3" stroke="white" stroke-width="1.2" stroke-linecap="round"/>
<circle cx="35" cy="49" r="3" stroke="white" stroke-width="1.2" stroke-linecap="round"/>
<path d="M47 52V58.0836C47 59.0151 47.1639 60.0126 47.9108 60.5691C48.4318 60.9573 49.1386 61.2153 50 61" stroke="white" stroke-width="1.2" stroke-linecap="round"/>
</svg>
