<svg width="105" height="87" viewBox="0 0 105 87" fill="none" xmlns="http://www.w3.org/2000/svg">
<path d="M32.1324 50.6324C32.6177 50.1471 32.6177 49.3382 32.1324 48.8529L28.2501 44.9706L33.2648 39.9559C33.7501 39.4706 33.7501 38.6618 33.2648 38.1765C32.7795 37.6912 31.9706 37.6912 31.4854 38.1765L26.4706 43.1912L21.9412 38.6618C21.4559 38.1765 20.6471 38.1765 20.1618 38.6618C19.6765 39.1471 19.6765 39.9559 20.1618 40.4412L24.6912 44.9706L20.1618 49.5C19.6765 49.9853 19.6765 50.7941 20.1618 51.2794C20.6471 51.7647 21.4559 51.7647 21.9412 51.2794L26.4706 46.75L30.353 50.6324C31.0001 51.1176 31.6471 51.1176 32.1324 50.6324ZM31.6471 66.6471C31.1618 67.1324 31.1618 67.9412 31.8089 68.4265C32.2942 68.9118 33.103 68.9118 33.5883 68.2647C41.5148 59.5294 55.103 59.6912 62.8677 67.7794C63.353 68.2647 64.1618 68.2647 64.6471 67.7794C65.1324 67.2941 65.1324 66.4853 64.6471 66C55.7501 56.9412 40.5442 56.7794 31.6471 66.6471Z" fill="#01FFE3"/>
<path d="M92.1474 76.3529L96.3533 33.4853C96.5151 31.7059 95.868 29.9264 94.7357 28.6323C93.6033 27.3382 91.8239 26.5294 90.0445 26.5294V15.3676C90.0445 11.1617 86.8092 7.76468 82.6033 7.60291L14.5004 6.63232C10.1327 6.63232 6.89743 10.0294 6.73566 14.0735V16.9853C4.79448 17.4706 3.3386 18.7647 2.52978 20.7059C1.55919 21.8382 0.912131 23.2941 0.588602 24.4264C-0.220222 27.3382 -0.058457 30.4117 0.265072 33.4853C1.55919 47.7206 2.85331 61.7941 3.98566 76.0294C4.47095 82.1765 6.0886 84.7647 14.9857 85.25C40.3827 86.5441 65.7798 86.3823 91.1768 85.897C92.1474 85.897 93.2798 85.897 94.0886 85.4117C95.0592 84.9264 95.7063 83.9559 95.5445 82.9853C95.0592 80.8823 91.5004 81.2059 89.3974 81.0441C90.8533 80.0735 91.8239 78.4559 92.1474 76.3529ZM14.5004 9.22056L82.6033 10.1911C85.3533 10.1911 87.7798 12.6176 87.618 15.3676V26.6911H63.8386C62.0592 26.6911 60.2798 25.8823 58.9857 24.5882L55.2651 20.3823C53.3239 18.2794 50.5739 16.9853 47.6621 16.9853H9.16213V14.397C9.16213 11.3235 11.5886 9.0588 14.5004 9.22056ZM85.8386 79.75H12.8827C10.9415 79.75 9.16213 78.2941 9.00037 76.1912L4.30919 23.4559C4.14743 21.1911 5.92684 19.25 8.19154 19.25H47.6621C49.9268 19.25 52.0298 20.2206 53.4857 21.8382L57.2063 26.0441C58.8239 27.9853 61.2504 29.1176 63.8386 29.1176H90.0445C91.1768 29.1176 92.1474 29.6029 92.9563 30.4117C93.7651 31.2206 94.0886 32.3529 93.9268 33.3235L89.721 76.1912C89.5592 78.1323 87.7798 79.75 85.8386 79.75Z" fill="#FFD600"/>
<path d="M68.8536 42.8676L72.4124 39.3088C72.8977 38.8235 72.8977 38.0147 72.4124 37.5294C71.9271 37.0441 71.1183 37.0441 70.633 37.5294L67.0742 41.0882L62.5447 36.5588C62.0595 36.0735 61.2506 36.0735 60.7653 36.5588C60.28 37.0441 60.28 37.8529 60.7653 38.3382L65.2947 42.8676L61.0889 47.0735C60.6036 47.5588 60.6036 48.3677 61.0889 48.8529C61.5742 49.3382 62.383 49.3382 62.8683 48.8529L67.0742 44.6471L71.6036 49.1765C72.0889 49.6618 72.8977 49.6618 73.383 49.1765C73.8683 48.6912 73.8683 47.8824 73.383 47.3971L68.8536 42.8676ZM90.8536 0.485294C89.3977 2.42647 88.2653 4.36765 87.4565 6.63235C87.2948 7.27941 87.6183 7.92647 88.2653 8.08824C88.9124 8.25 89.5595 7.92647 89.7212 7.27941C90.3683 5.33824 91.3389 3.39706 92.633 1.77941C93.1183 1.29412 92.9565 0.485294 92.4712 0C91.9859 0 91.3389 -4.82096e-07 90.8536 0.485294ZM101.207 5.17647C100.883 4.69118 100.074 4.36765 99.5889 4.85294L91.9859 9.70588C91.5006 10.0294 91.3389 10.8382 91.6624 11.3235C91.9859 11.8088 92.7947 12.1324 93.28 11.6471L100.883 6.79412C101.368 6.47059 101.53 5.66176 101.207 5.17647ZM103.471 13.9118L94.8977 14.5588C94.2506 14.5588 93.7653 15.2059 93.7653 15.8529C93.7653 16.5 94.4124 16.9853 95.0595 16.9853L103.633 16.3382C104.28 16.3382 104.765 15.6912 104.765 15.0441C104.604 14.3971 104.118 13.9118 103.471 13.9118Z" fill="#01FFE3"/>
</svg>
