<svg width="258" height="146" viewBox="0 0 258 146" fill="none" xmlns="http://www.w3.org/2000/svg">
<path d="M114.283 60.1284C130.887 60.1284 144.347 46.6682 144.347 30.0642C144.347 13.4602 130.887 0 114.283 0C97.679 0 84.2188 13.4602 84.2188 30.0642C84.2188 46.6682 97.679 60.1284 114.283 60.1284Z" fill="#FFD600"/>
<path d="M104.801 15.4316C104.801 15.4316 96.1144 19.223 95.2765 20.971C94.4387 22.7191 95.6216 23.9311 96.4207 24.1865C97.2198 24.4418 105.383 20.5026 105.383 20.5026L104.801 15.4316ZM114.543 42.9321C114.543 42.9321 106.612 46.8773 106.771 47.7117C106.93 48.5461 108.566 50.74 109.839 50.5493C111.112 50.3587 118.926 47.2549 118.926 47.2549L114.543 42.9321Z" fill="black"/>
<path d="M120.543 27.5399C120.543 27.5399 125.014 21.2535 121.568 15.0171C118.122 8.78062 101.153 16.5007 98.6423 18.6806C98.6423 18.6806 113.14 48.8559 114.895 48.7262C116.65 48.5966 131.123 42.5959 131.503 34.8196C131.883 27.0433 120.543 27.5399 120.543 27.5399ZM117.787 21.0164C118.041 25.068 112.063 28.338 111.232 28.3814C110.401 28.4248 106.57 20.494 106.57 20.494C108.658 17.8289 117.532 16.9651 117.786 21.0167L117.787 21.0164ZM125.773 34.8136C126.782 38.4741 119.407 42.219 118.107 41.7983C116.807 41.3777 114.55 36.5491 114.55 36.5491C113.402 34.3364 116.833 32.7724 118.502 32.087C120.171 31.4016 124.763 31.1535 125.772 34.8137L125.773 34.8136Z" fill="black"/>
<path d="M104.549 12.6644L103.347 13.2195C103.046 13.3582 102.915 13.7144 103.054 14.0149L105.098 18.4437C105.237 18.7442 105.593 18.8754 105.894 18.7367L107.096 18.1816C107.396 18.0429 107.528 17.6867 107.389 17.3861L105.344 12.9574C105.206 12.6568 104.849 12.5257 104.549 12.6644Z" fill="black"/>
<path d="M107.705 11.2084L106.503 11.7634C106.202 11.9022 106.071 12.2583 106.21 12.5589L108.254 16.9876C108.393 17.2882 108.749 17.4194 109.05 17.2806L110.252 16.7256C110.553 16.5868 110.684 16.2307 110.545 15.9301L108.501 11.5014C108.362 11.2008 108.006 11.0696 107.705 11.2084Z" fill="black"/>
<path d="M120.243 42.514L119.041 43.0691C118.74 43.2078 118.609 43.564 118.748 43.8646L120.792 48.2933C120.931 48.5938 121.287 48.725 121.588 48.5863L122.79 48.0312C123.091 47.8925 123.222 47.5363 123.083 47.2357L121.039 42.807C120.9 42.5064 120.544 42.3753 120.243 42.514Z" fill="black"/>
<path d="M123.399 41.058L122.197 41.613C121.896 41.7518 121.765 42.1079 121.904 42.4085L123.948 46.8372C124.087 47.1378 124.443 47.269 124.744 47.1302L125.946 46.5752C126.247 46.4364 126.378 46.0803 126.239 45.7797L124.195 41.351C124.056 41.0504 123.7 40.9192 123.399 41.058Z" fill="black"/>
<path d="M114.323 56.4488C107.818 56.4576 101.538 54.0624 96.691 49.7233C91.8439 45.3842 88.771 39.4071 88.0626 32.9403C87.3541 26.4734 89.06 19.9728 92.8526 14.6872C96.6453 9.4015 102.257 5.70355 108.61 4.30365C114.963 2.90374 121.61 3.9006 127.273 7.10274C132.936 10.3049 137.216 15.4865 139.291 21.6522C141.366 27.8179 141.09 34.533 138.515 40.5074C135.941 46.4819 131.249 51.2944 125.343 54.0207C121.887 55.6141 118.128 56.4424 114.323 56.4488ZM114.269 4.87444C110.629 4.8781 107.033 5.67373 103.731 7.20614C91.1275 13.0237 85.6074 28.0119 91.4254 40.6154C97.2433 53.2189 112.232 58.7391 124.835 52.9207C130.897 50.122 135.599 45.0299 137.907 38.7644C140.214 32.4989 139.939 25.5733 137.14 19.5111C135.119 15.1456 131.892 11.4486 127.84 8.85543C123.788 6.26231 119.08 4.88109 114.269 4.87444Z" fill="black"/>
<path d="M63.4006 141.923H156.248C162.008 141.923 166.678 137.253 166.678 131.493V58.8499C166.678 53.0898 162.008 48.4203 156.248 48.4203L63.4006 48.4203C57.6405 48.4203 52.971 53.0898 52.971 58.8499L52.971 131.493C52.971 137.253 57.6405 141.923 63.4006 141.923Z" fill="#0166FF"/>
<path d="M156.248 142.529H63.4007C60.475 142.526 57.67 141.362 55.6012 139.293C53.5323 137.224 52.3686 134.419 52.3653 131.493V58.8499C52.3686 55.9241 53.5324 53.1191 55.6012 51.0503C57.67 48.9815 60.475 47.8178 63.4007 47.8145H156.248C159.174 47.8178 161.979 48.9815 164.048 51.0503C166.117 53.1191 167.28 55.9241 167.284 58.8499V131.493C167.28 134.419 166.117 137.224 164.048 139.293C161.979 141.362 159.174 142.526 156.248 142.529ZM63.4007 49.0263C60.7963 49.0292 58.2993 50.0651 56.4577 51.9068C54.616 53.7484 53.5801 56.2454 53.5772 58.8499V131.493C53.58 134.098 54.6159 136.595 56.4575 138.437C58.2992 140.278 60.7962 141.314 63.4007 141.317H156.248C158.853 141.314 161.35 140.278 163.191 138.437C165.033 136.595 166.069 134.098 166.072 131.493V58.8499C166.069 56.2454 165.033 53.7484 163.191 51.9068C161.35 50.0651 158.853 49.0292 156.248 49.0263H63.4007Z" fill="white"/>
<path d="M170.298 107.218H143.744C142.657 107.218 141.582 107.004 140.578 106.588C139.575 106.172 138.663 105.563 137.895 104.795C137.127 104.027 136.518 103.115 136.102 102.112C135.686 101.108 135.472 100.033 135.472 98.9465V91.7268C135.472 90.5973 135.695 89.4788 136.127 88.4352C136.559 87.3917 137.193 86.4434 137.992 85.6447C138.79 84.846 139.739 84.2125 140.782 83.7802C141.826 83.3479 142.944 83.1255 144.074 83.1255H170.298C170.616 83.1255 170.931 83.1881 171.225 83.3099C171.519 83.4316 171.786 83.6101 172.011 83.835C172.236 84.06 172.414 84.327 172.536 84.621C172.658 84.9149 172.72 85.2299 172.72 85.548V104.795C172.72 105.113 172.658 105.428 172.536 105.722C172.414 106.016 172.236 106.283 172.011 106.508C171.786 106.733 171.519 106.912 171.225 107.033C170.931 107.155 170.616 107.218 170.298 107.218Z" fill="white"/>
<path d="M149.44 103.216C153.899 103.216 157.514 99.6018 157.514 95.1429C157.514 90.684 153.899 87.0693 149.44 87.0693C144.981 87.0693 141.367 90.684 141.367 95.1429C141.367 99.6018 144.981 103.216 149.44 103.216Z" fill="#0166FF"/>
<path d="M149.44 103.822C147.724 103.822 146.046 103.313 144.619 102.36C143.191 101.406 142.079 100.051 141.422 98.4647C140.765 96.8787 140.593 95.1336 140.928 93.45C141.263 91.7664 142.089 90.2199 143.303 89.0061C144.517 87.7922 146.063 86.9656 147.747 86.6307C149.431 86.2958 151.176 86.4676 152.762 87.1245C154.348 87.7814 155.703 88.8938 156.657 90.321C157.61 91.7483 158.12 93.4264 158.12 95.1429C158.117 97.444 157.202 99.65 155.575 101.277C153.948 102.904 151.742 103.82 149.44 103.822ZM149.44 87.6757C147.964 87.6756 146.52 88.1134 145.292 88.9338C144.063 89.7543 143.106 90.9204 142.541 92.2849C141.976 93.6494 141.828 95.1509 142.116 96.5995C142.404 98.0481 143.115 99.3787 144.159 100.423C145.204 101.468 146.534 102.179 147.983 102.467C149.431 102.755 150.933 102.607 152.297 102.042C153.662 101.477 154.828 100.52 155.649 99.2917C156.469 98.0637 156.907 96.6199 156.907 95.1429C156.905 93.1634 156.117 91.2655 154.718 89.8657C153.318 88.4658 151.42 87.6782 149.44 87.6756V87.6757Z" fill="white"/>
<path d="M87.9427 77.3804C91.4342 77.3804 94.2647 74.55 94.2647 71.0584C94.2647 67.5668 91.4342 64.7363 87.9427 64.7363C84.4511 64.7363 81.6206 67.5668 81.6206 71.0584C81.6206 74.55 84.4511 77.3804 87.9427 77.3804Z" fill="white"/>
<path d="M108.475 101.9C111.967 101.9 114.797 99.0695 114.797 95.5779C114.797 92.0863 111.967 89.2559 108.475 89.2559C104.983 89.2559 102.153 92.0863 102.153 95.5779C102.153 99.0695 104.983 101.9 108.475 101.9Z" fill="white"/>
<path d="M85.7496 118.716C89.2412 118.716 92.0717 115.886 92.0717 112.394C92.0717 108.903 89.2412 106.072 85.7496 106.072C82.258 106.072 79.4276 108.903 79.4276 112.394C79.4276 115.886 82.258 118.716 85.7496 118.716Z" fill="white"/>
<path d="M68.321 77.9855H52.9712C52.8122 77.9829 52.6606 77.9179 52.5491 77.8046C52.4376 77.6912 52.3751 77.5386 52.3751 77.3796C52.3751 77.2206 52.4376 77.068 52.5491 76.9546C52.6606 76.8413 52.8122 76.7763 52.9712 76.7737H67.8619L69.788 69.9051C69.8238 69.7778 69.9002 69.6658 70.0055 69.586C70.1108 69.5062 70.2394 69.4629 70.3715 69.4629H87.9426C88.1016 69.4655 88.2532 69.5305 88.3647 69.6438C88.4762 69.7572 88.5387 69.9098 88.5387 70.0688C88.5387 70.2278 88.4762 70.3804 88.3647 70.4938C88.2532 70.6071 88.1016 70.6721 87.9426 70.6748H70.8308L68.9045 77.5433C68.8687 77.6706 68.7924 77.7826 68.687 77.8625C68.5817 77.9423 68.4531 77.9855 68.321 77.9855ZM107.108 95.7485H85.9207C85.8411 95.7486 85.7623 95.7329 85.6888 95.7024C85.6153 95.672 85.5485 95.6273 85.4923 95.5711L78.0448 88.1236H52.9712C52.8122 88.121 52.6606 88.056 52.5491 87.9426C52.4376 87.8293 52.3751 87.6767 52.3751 87.5177C52.3751 87.3587 52.4376 87.206 52.5491 87.0927C52.6606 86.9793 52.8122 86.9143 52.9712 86.9117H78.2962C78.4569 86.9118 78.611 86.9756 78.7246 87.0892L86.1719 94.5367H107.108C107.188 94.5354 107.268 94.5501 107.343 94.5799C107.418 94.6098 107.486 94.6542 107.543 94.7106C107.6 94.767 107.646 94.8342 107.677 94.9084C107.708 94.9826 107.724 95.0622 107.724 95.1426C107.724 95.223 107.708 95.3027 107.677 95.3768C107.646 95.451 107.6 95.5183 107.543 95.5746C107.486 95.631 107.418 95.6755 107.343 95.7053C107.268 95.7352 107.188 95.7499 107.108 95.7485ZM69.229 117.253H53.3557C53.1967 117.25 53.0451 117.185 52.9336 117.072C52.8221 116.958 52.7596 116.806 52.7596 116.647C52.7596 116.488 52.8221 116.335 52.9336 116.222C53.0451 116.109 53.1967 116.044 53.3557 116.041H68.9778L73.9442 111.074C74.0579 110.961 74.212 110.897 74.3727 110.897H89.6795C89.8385 110.9 89.99 110.965 90.1015 111.078C90.213 111.191 90.2755 111.344 90.2755 111.503C90.2755 111.662 90.213 111.814 90.1015 111.928C89.99 112.041 89.8385 112.106 89.6795 112.109H74.6236L69.6574 117.075C69.5438 117.189 69.3897 117.253 69.229 117.253Z" fill="white"/>
<path d="M227.935 103.513C244.539 103.513 258 90.0521 258 73.4477C258 56.8433 244.539 43.3828 227.935 43.3828C211.331 43.3828 197.87 56.8433 197.87 73.4477C197.87 90.0521 211.331 103.513 227.935 103.513Z" fill="#FFD600"/>
<path d="M229.477 56.0797C229.477 56.0797 220.298 53.7164 218.561 54.5775C216.824 55.4385 217.01 57.1223 217.482 57.8146C217.954 58.5069 226.812 60.4329 226.812 60.4329L229.477 56.0797ZM220.214 83.7461C220.214 83.7461 211.535 81.969 211.146 82.7239C210.757 83.4788 210.695 86.2152 211.816 86.8492C212.936 87.4831 221.003 89.8503 221.003 89.8503L220.214 83.7461Z" fill="black"/>
<path d="M234.421 75.3146C234.421 75.3146 241.816 73.1159 242.942 66.0798C244.069 59.0436 225.945 54.6745 222.625 54.8457C222.625 54.8457 215.46 87.548 216.923 88.5269C218.385 89.5058 233.483 93.6926 238.573 87.8008C243.662 81.9089 234.421 75.3146 234.421 75.3146ZM236.267 68.4777C233.972 71.8262 227.248 70.7207 226.567 70.243C225.886 69.7653 227.752 61.1577 227.752 61.1577C231.04 60.3438 238.563 65.1293 236.267 68.4777ZM234.061 84.2664C232.601 87.7718 224.484 86.1797 223.719 85.0474C222.954 83.9151 224.15 78.7211 224.15 78.7211C224.608 76.2711 228.274 77.1522 230.012 77.64C231.749 78.1279 235.521 80.7609 234.061 84.2664H234.061Z" fill="black"/>
<path d="M231.012 53.7496L229.669 53.4337C229.362 53.3614 229.054 53.552 228.982 53.8594L227.852 58.6615C227.78 58.9689 227.97 59.2768 228.278 59.3491L229.621 59.665C229.928 59.7373 230.236 59.5468 230.308 59.2393L231.438 54.4372C231.51 54.1298 231.32 53.8219 231.012 53.7496Z" fill="black"/>
<path d="M234.396 54.5455L233.053 54.2296C232.746 54.1573 232.438 54.3478 232.366 54.6553L231.236 59.4574C231.164 59.7648 231.354 60.0727 231.662 60.145L233.005 60.4609C233.312 60.5332 233.62 60.3427 233.692 60.0352L234.822 55.2331C234.894 54.9257 234.704 54.6178 234.396 54.5455Z" fill="black"/>
<path d="M224.992 86.9322L223.649 86.6163C223.341 86.544 223.033 86.7346 222.961 87.042L221.831 91.8441C221.759 92.1515 221.95 92.4594 222.257 92.5317L223.6 92.8476C223.907 92.92 224.215 92.7294 224.288 92.4219L225.417 87.6198C225.49 87.3124 225.299 87.0046 224.992 86.9322Z" fill="black"/>
<path d="M228.375 87.7281L227.032 87.4122C226.725 87.3399 226.417 87.5305 226.345 87.8379L225.215 92.64C225.143 92.9474 225.333 93.2553 225.641 93.3276L226.984 93.6435C227.291 93.7159 227.599 93.5253 227.671 93.2178L228.801 88.4157C228.873 88.1083 228.683 87.8004 228.375 87.7281Z" fill="black"/>
<path d="M227.985 99.845C225.934 99.8437 223.889 99.6051 221.893 99.1338C207.729 95.8017 198.917 81.568 202.249 67.4046C205.581 53.2411 219.815 44.429 233.979 47.7609C240.272 49.2457 245.801 52.9891 249.518 58.2806C253.234 63.5722 254.878 70.0439 254.139 76.4676C253.4 82.8914 250.328 88.8203 245.507 93.1295C240.686 97.4387 234.451 99.8284 227.985 99.845ZM227.935 48.2686C216.519 48.2686 206.154 56.0995 203.429 67.6818C200.25 81.195 208.657 94.775 222.17 97.954C235.683 101.133 249.264 92.7258 252.442 79.2128C255.621 65.6997 247.214 52.1195 233.701 48.9407C231.811 48.4948 229.876 48.2692 227.934 48.2686H227.935Z" fill="black"/>
<path d="M17.283 145.065C26.3108 145.065 33.6293 137.747 33.6293 128.719C33.6293 119.692 26.3108 112.373 17.283 112.373C8.25527 112.373 0.936829 119.692 0.936829 128.719C0.936829 137.747 8.25527 145.065 17.283 145.065Z" fill="#FFD600"/>
<path d="M18.1213 119.277C18.1213 119.277 13.1308 117.992 12.1865 118.46C11.2421 118.928 11.3433 119.844 11.5998 120.22C11.8563 120.596 16.6725 121.644 16.6725 121.644L18.1213 119.277ZM13.085 134.319C13.085 134.319 8.36653 133.353 8.15488 133.763C7.94324 134.174 7.90964 135.661 8.51895 136.006C9.12825 136.351 13.514 137.638 13.514 137.638L13.085 134.319Z" fill="black"/>
<path d="M20.8095 129.735C20.8095 129.735 24.8298 128.54 25.4423 124.714C26.0549 120.889 16.201 118.513 14.3957 118.606C14.3957 118.606 10.5005 136.386 11.2956 136.919C12.0907 137.451 20.2996 139.727 23.0667 136.524C25.8337 133.32 20.8095 129.735 20.8095 129.735ZM21.813 126.018C20.5651 127.838 16.9096 127.237 16.5393 126.978C16.169 126.718 17.1837 122.038 17.1837 122.038C18.9709 121.595 23.0615 124.197 21.813 126.018ZM20.6134 134.602C19.8199 136.508 15.4069 135.642 14.9908 135.027C14.5748 134.411 15.2249 131.587 15.2249 131.587C15.4743 130.255 17.4673 130.734 18.412 130.999C19.3567 131.265 21.4073 132.696 20.6137 134.602H20.6134Z" fill="black"/>
<path d="M18.9561 118.01L18.2259 117.838C18.0588 117.798 17.8914 117.902 17.8521 118.069L17.2379 120.68C17.1985 120.847 17.3022 121.015 17.4693 121.054L18.1995 121.226C18.3666 121.265 18.534 121.161 18.5733 120.994L19.1875 118.383C19.2269 118.216 19.1232 118.049 18.9561 118.01Z" fill="black"/>
<path d="M20.7959 118.442L20.0657 118.27C19.8986 118.231 19.7312 118.335 19.6919 118.502L19.0777 121.113C19.0383 121.28 19.142 121.447 19.3091 121.487L20.0393 121.658C20.2064 121.698 20.3738 121.594 20.4131 121.427L21.0273 118.816C21.0667 118.649 20.963 118.482 20.7959 118.442Z" fill="black"/>
<path d="M15.6826 136.051L14.9525 135.879C14.7853 135.839 14.6179 135.943 14.5786 136.11L13.9644 138.721C13.9251 138.888 14.0287 139.056 14.1959 139.095L14.926 139.267C15.0932 139.306 15.2605 139.202 15.2999 139.035L15.9141 136.424C15.9534 136.257 15.8498 136.09 15.6826 136.051Z" fill="black"/>
<path d="M17.5224 136.484L16.7923 136.312C16.6251 136.273 16.4577 136.377 16.4184 136.544L15.8042 139.155C15.7649 139.322 15.8685 139.489 16.0357 139.529L16.7658 139.7C16.933 139.74 17.1003 139.636 17.1397 139.469L17.7539 136.858C17.7932 136.691 17.6896 136.523 17.5224 136.484Z" fill="black"/>
<path d="M17.3103 143.072C16.1949 143.071 15.0834 142.942 13.9979 142.685C6.29715 140.874 1.50608 133.135 3.31764 125.434C5.1292 117.734 12.8682 112.942 20.5688 114.754C23.9905 115.561 26.9968 117.597 29.0173 120.474C31.0378 123.351 31.932 126.869 31.5301 130.362C31.1282 133.854 29.4582 137.078 26.8371 139.421C24.2159 141.764 20.8259 143.063 17.3103 143.072ZM17.2827 115.03C11.076 115.03 5.44055 119.288 3.9591 125.585C2.23054 132.932 6.80174 140.316 14.1487 142.044C21.4956 143.772 28.8792 139.201 30.6075 131.854C32.3358 124.507 27.7651 117.124 20.4181 115.395C19.3904 115.153 18.3382 115.03 17.2824 115.03H17.2827Z" fill="black"/>
</svg>
