<svg width="258" height="146" viewBox="0 0 258 146" fill="none" xmlns="http://www.w3.org/2000/svg">
<path d="M114.283 60.1284C130.887 60.1284 144.347 46.6682 144.347 30.0642C144.347 13.4602 130.887 0 114.283 0C97.679 0 84.2188 13.4602 84.2188 30.0642C84.2188 46.6682 97.679 60.1284 114.283 60.1284Z" fill="#FFD600"/>
<path d="M104.8 15.4336C104.8 15.4336 96.1135 19.225 95.2756 20.973C94.4377 22.721 95.6207 23.9331 96.4198 24.1884C97.2189 24.4438 105.382 20.5045 105.382 20.5045L104.8 15.4336ZM114.542 42.9341C114.542 42.9341 106.611 46.8792 106.77 47.7137C106.929 48.5481 108.565 50.7419 109.838 50.5513C111.111 50.3607 118.925 47.2568 118.925 47.2568L114.542 42.9341Z" fill="black"/>
<path d="M120.543 27.5399C120.543 27.5399 125.015 21.2535 121.568 15.0171C118.122 8.78062 101.153 16.5007 98.6426 18.6806C98.6426 18.6806 113.14 48.8559 114.895 48.7262C116.65 48.5966 131.123 42.5959 131.503 34.8196C131.883 27.0433 120.543 27.5399 120.543 27.5399ZM117.787 21.0164C118.041 25.068 112.064 28.338 111.233 28.3814C110.402 28.4248 106.571 20.494 106.571 20.494C108.658 17.8289 117.533 16.9651 117.786 21.0167L117.787 21.0164ZM125.773 34.8136C126.782 38.4741 119.408 42.219 118.107 41.7983C116.807 41.3777 114.55 36.5491 114.55 36.5491C113.402 34.3364 116.833 32.7724 118.502 32.087C120.171 31.4016 124.763 31.1535 125.772 34.8137L125.773 34.8136Z" fill="black"/>
<path d="M104.549 12.6664L103.347 13.2214C103.046 13.3602 102.915 13.7163 103.054 14.0169L105.098 18.4456C105.237 18.7462 105.593 18.8774 105.894 18.7386L107.096 18.1836C107.397 18.0448 107.528 17.6887 107.389 17.3881L105.345 12.9594C105.206 12.6588 104.85 12.5276 104.549 12.6664Z" fill="black"/>
<path d="M107.706 11.2093L106.503 11.7644C106.203 11.9031 106.071 12.2593 106.21 12.5599L108.255 16.9886C108.393 17.2892 108.75 17.4203 109.05 17.2816L110.253 16.7265C110.553 16.5878 110.684 16.2316 110.546 15.931L108.501 11.5023C108.362 11.2018 108.006 11.0706 107.706 11.2093Z" fill="black"/>
<path d="M120.243 42.514L119.04 43.0691C118.74 43.2078 118.609 43.564 118.747 43.8646L120.792 48.2933C120.931 48.5938 121.287 48.725 121.587 48.5863L122.79 48.0312C123.09 47.8925 123.221 47.5363 123.083 47.2357L121.038 42.807C120.899 42.5064 120.543 42.3753 120.243 42.514Z" fill="black"/>
<path d="M123.399 41.057L122.197 41.612C121.896 41.7508 121.765 42.1069 121.904 42.4075L123.948 46.8362C124.087 47.1368 124.443 47.268 124.744 47.1292L125.946 46.5742C126.246 46.4354 126.378 46.0793 126.239 45.7787L124.194 41.35C124.056 41.0494 123.699 40.9182 123.399 41.057Z" fill="black"/>
<path d="M114.324 56.4508C107.818 56.4596 101.539 54.0644 96.6917 49.7253C91.8446 45.3861 88.7717 39.4091 88.0632 32.9422C87.3547 26.4754 89.0607 19.9748 92.8533 14.6891C96.6459 9.40345 102.258 5.7055 108.611 4.3056C114.964 2.90569 121.61 3.90255 127.273 7.10469C132.936 10.3068 137.216 15.4884 139.291 21.6542C141.367 27.8199 141.09 34.5349 138.516 40.5094C135.941 46.4839 131.25 51.2964 125.343 54.0226C121.888 55.616 118.129 56.4443 114.324 56.4508ZM114.27 4.87639C110.629 4.88005 107.034 5.67569 103.731 7.20809C91.1281 13.0257 85.6081 28.0138 91.426 40.6174C97.244 53.2209 112.232 58.7411 124.836 52.9226C130.898 50.124 135.6 45.0318 137.907 38.7663C140.215 32.5008 139.939 25.5752 137.141 19.5131C135.12 15.1475 131.893 11.4505 127.841 8.85738C123.789 6.26426 119.08 4.88304 114.27 4.87639Z" fill="black"/>
<path d="M63.4008 141.922H156.248C162.008 141.922 166.678 137.252 166.678 131.492V58.8489C166.678 53.0889 162.008 48.4194 156.248 48.4194L63.4008 48.4194C57.6407 48.4194 52.9712 53.0889 52.9712 58.8489L52.9712 131.492C52.9712 137.252 57.6407 141.922 63.4008 141.922Z" fill="#0166FF"/>
<path d="M156.248 142.527H63.4007C60.4749 142.524 57.6699 141.36 55.6011 139.291C53.5322 137.222 52.3685 134.417 52.3652 131.491V58.8479C52.3685 55.9222 53.5323 53.1172 55.6011 51.0483C57.6699 48.9795 60.4749 47.8158 63.4007 47.8125H156.248C159.174 47.8158 161.979 48.9795 164.048 51.0483C166.116 53.1172 167.28 55.9222 167.283 58.8479V131.491C167.28 134.417 166.116 137.222 164.048 139.291C161.979 141.36 159.174 142.524 156.248 142.527ZM63.4007 49.0244C60.7962 49.0273 58.2992 50.0632 56.4576 51.9048C54.6159 53.7465 53.58 56.2434 53.5771 58.8479V131.491C53.5799 134.096 54.6158 136.593 56.4575 138.435C58.2991 140.276 60.7961 141.312 63.4007 141.315H156.248C158.853 141.312 161.35 140.276 163.191 138.435C165.033 136.593 166.069 134.096 166.072 131.491V58.8479C166.069 56.2434 165.033 53.7465 163.191 51.9048C161.349 50.0632 158.852 49.0273 156.248 49.0244H63.4007Z" fill="#E8E8E8"/>
<path d="M170.298 107.215H143.744C142.658 107.215 141.582 107.001 140.579 106.585C139.575 106.17 138.663 105.56 137.895 104.792C137.127 104.024 136.518 103.112 136.102 102.109C135.687 101.105 135.473 100.03 135.473 98.9436V91.7239C135.473 90.5943 135.695 89.4758 136.127 88.4323C136.56 87.3887 137.193 86.4405 137.992 85.6418C138.791 84.8431 139.739 84.2095 140.783 83.7773C141.826 83.345 142.945 83.1225 144.074 83.1225H170.298C170.616 83.1225 170.931 83.1852 171.225 83.3069C171.519 83.4287 171.786 83.6071 172.011 83.8321C172.236 84.057 172.415 84.3241 172.536 84.618C172.658 84.9119 172.721 85.227 172.721 85.5451V104.792C172.721 105.11 172.658 105.425 172.536 105.719C172.415 106.013 172.236 106.28 172.011 106.505C171.786 106.73 171.519 106.909 171.225 107.03C170.931 107.152 170.616 107.215 170.298 107.215Z" fill="#E8E8E8"/>
<path d="M149.441 103.214C153.9 103.214 157.514 99.5989 157.514 95.14C157.514 90.6811 153.9 87.0664 149.441 87.0664C144.982 87.0664 141.367 90.6811 141.367 95.14C141.367 99.5989 144.982 103.214 149.441 103.214Z" fill="#0166FF"/>
<path d="M149.441 103.819C147.725 103.819 146.046 103.31 144.619 102.357C143.192 101.403 142.079 100.048 141.422 98.4617C140.766 96.8758 140.594 95.1307 140.928 93.4471C141.263 91.7635 142.09 90.217 143.304 89.0031C144.517 87.7893 146.064 86.9627 147.748 86.6277C149.431 86.2928 151.176 86.4647 152.762 87.1215C154.348 87.7784 155.704 88.8908 156.657 90.3181C157.611 91.7454 158.12 93.4234 158.12 95.14C158.118 97.4411 157.202 99.6471 155.575 101.274C153.948 102.901 151.742 103.817 149.441 103.819ZM149.441 87.6728C147.964 87.6726 146.52 88.1105 145.292 88.9309C144.064 89.7513 143.107 90.9175 142.542 92.282C141.976 93.6465 141.828 95.148 142.116 96.5965C142.404 98.0451 143.116 99.3758 144.16 100.42C145.204 101.465 146.535 102.176 147.983 102.464C149.432 102.752 150.933 102.604 152.298 102.039C153.662 101.474 154.829 100.517 155.649 99.2888C156.47 98.0607 156.908 96.617 156.908 95.14C156.905 93.1604 156.118 91.2626 154.718 89.8628C153.318 88.4629 151.421 87.6753 149.441 87.6726V87.6728Z" fill="#E8E8E8"/>
<path d="M87.9432 77.3785C91.4347 77.3785 94.2652 74.548 94.2652 71.0564C94.2652 67.5649 91.4347 64.7344 87.9432 64.7344C84.4516 64.7344 81.6211 67.5649 81.6211 71.0564C81.6211 74.548 84.4516 77.3785 87.9432 77.3785Z" fill="#E8E8E8"/>
<path d="M108.474 101.898C111.966 101.898 114.796 99.0675 114.796 95.576C114.796 92.0844 111.966 89.2539 108.474 89.2539C104.983 89.2539 102.152 92.0844 102.152 95.576C102.152 99.0675 104.983 101.898 108.474 101.898Z" fill="#E8E8E8"/>
<path d="M85.7498 118.714C89.2414 118.714 92.0719 115.884 92.0719 112.392C92.0719 108.901 89.2414 106.07 85.7498 106.07C82.2582 106.07 79.4277 108.901 79.4277 112.392C79.4277 115.884 82.2582 118.714 85.7498 118.714Z" fill="#E8E8E8"/>
<path d="M68.3208 77.9836H52.971C52.8121 77.9809 52.6605 77.916 52.549 77.8026C52.4375 77.6893 52.375 77.5366 52.375 77.3776C52.375 77.2186 52.4375 77.066 52.549 76.9527C52.6605 76.8393 52.8121 76.7743 52.971 76.7717H67.8617L69.7879 69.9031C69.8237 69.7759 69.9 69.6638 70.0054 69.584C70.1107 69.5042 70.2392 69.461 70.3714 69.4609H87.9425C88.1015 69.4636 88.253 69.5285 88.3645 69.6419C88.476 69.7552 88.5385 69.9079 88.5385 70.0669C88.5385 70.2259 88.476 70.3785 88.3645 70.4918C88.253 70.6052 88.1015 70.6702 87.9425 70.6728H70.8307L68.9044 77.5414C68.8686 77.6686 68.7922 77.7807 68.6869 77.8605C68.5816 77.9403 68.453 77.9836 68.3208 77.9836ZM107.108 95.7466H85.9205C85.841 95.7466 85.7622 95.7309 85.6887 95.7005C85.6152 95.67 85.5484 95.6254 85.4921 95.5691L78.0447 88.1216H52.971C52.8121 88.119 52.6605 88.054 52.549 87.9407C52.4375 87.8273 52.375 87.6747 52.375 87.5157C52.375 87.3567 52.4375 87.2041 52.549 87.0907C52.6605 86.9774 52.8121 86.9124 52.971 86.9098H78.2961C78.4568 86.9098 78.6108 86.9736 78.7245 87.0872L86.1718 94.5347H107.108C107.188 94.5334 107.268 94.5481 107.343 94.578C107.417 94.6078 107.485 94.6522 107.543 94.7086C107.6 94.765 107.646 94.8323 107.677 94.9064C107.708 94.9806 107.724 95.0602 107.724 95.1407C107.724 95.2211 107.708 95.3007 107.677 95.3749C107.646 95.449 107.6 95.5163 107.543 95.5727C107.485 95.6291 107.417 95.6735 107.343 95.7034C107.268 95.7332 107.188 95.7479 107.108 95.7466ZM69.2289 117.251H53.3555C53.1966 117.248 53.045 117.183 52.9335 117.07C52.822 116.957 52.7595 116.804 52.7595 116.645C52.7595 116.486 52.822 116.333 52.9335 116.22C53.045 116.107 53.1966 116.042 53.3555 116.039H68.9776L73.9441 111.072C74.0577 110.959 74.2119 110.895 74.3726 110.895H89.6794C89.8383 110.898 89.9899 110.963 90.1014 111.076C90.2129 111.189 90.2754 111.342 90.2754 111.501C90.2754 111.66 90.2129 111.812 90.1014 111.926C89.9899 112.039 89.8383 112.104 89.6794 112.107H74.6235L69.6573 117.073C69.5437 117.187 69.3896 117.251 69.2289 117.251Z" fill="#E8E8E8"/>
<path d="M227.936 103.513C244.54 103.513 258.001 90.0521 258.001 73.4477C258.001 56.8433 244.54 43.3828 227.936 43.3828C211.332 43.3828 197.871 56.8433 197.871 73.4477C197.871 90.0521 211.332 103.513 227.936 103.513Z" fill="#FFD600"/>
<path d="M229.477 56.0816C229.477 56.0816 220.298 53.7184 218.561 54.5794C216.824 55.4405 217.01 57.1243 217.482 57.8165C217.954 58.5088 226.812 60.4348 226.812 60.4348L229.477 56.0816ZM220.214 83.7481C220.214 83.7481 211.535 81.971 211.146 82.7259C210.757 83.4807 210.695 86.2172 211.816 86.8511C212.936 87.4851 221.003 89.8522 221.003 89.8522L220.214 83.7481Z" fill="black"/>
<path d="M234.422 75.3136C234.422 75.3136 241.816 73.115 242.943 66.0788C244.069 59.0426 225.946 54.6735 222.625 54.8447C222.625 54.8447 215.461 87.5471 216.923 88.5259C218.386 89.5048 233.484 93.6916 238.573 87.7998C243.663 81.9079 234.422 75.3136 234.422 75.3136ZM236.268 68.4767C233.972 71.8252 227.249 70.7197 226.568 70.242C225.887 69.7643 227.753 61.1567 227.753 61.1567C231.04 60.3428 238.564 65.1283 236.268 68.4767ZM234.061 84.2654C232.602 87.7709 224.485 86.1788 223.72 85.0464C222.955 83.9141 224.15 78.7201 224.15 78.7201C224.609 76.2701 228.275 77.1512 230.012 77.639C231.75 78.1269 235.521 80.76 234.062 84.2654H234.061Z" fill="black"/>
<path d="M231.013 53.7477L229.67 53.4317C229.363 53.3594 229.055 53.55 228.982 53.8574L227.853 58.6596C227.78 58.967 227.971 59.2748 228.278 59.3471L229.621 59.6631C229.929 59.7354 230.237 59.5448 230.309 59.2374L231.439 54.4353C231.511 54.1278 231.32 53.82 231.013 53.7477Z" fill="black"/>
<path d="M234.398 54.5445L233.055 54.2286C232.747 54.1563 232.439 54.3469 232.367 54.6543L231.237 59.4564C231.165 59.7639 231.356 60.0717 231.663 60.144L233.006 60.4599C233.313 60.5323 233.621 60.3417 233.694 60.0343L234.823 55.2321C234.896 54.9247 234.705 54.6169 234.398 54.5445Z" fill="black"/>
<path d="M224.993 86.9313L223.65 86.6153C223.343 86.543 223.035 86.7336 222.963 87.041L221.833 91.8431C221.761 92.1506 221.951 92.4584 222.259 92.5307L223.602 92.8467C223.909 92.919 224.217 92.7284 224.289 92.421L225.419 87.6188C225.491 87.3114 225.301 87.0036 224.993 86.9313Z" fill="black"/>
<path d="M228.376 87.7281L227.033 87.4122C226.726 87.3399 226.418 87.5305 226.346 87.8379L225.216 92.64C225.144 92.9474 225.334 93.2553 225.642 93.3276L226.985 93.6435C227.292 93.7159 227.6 93.5253 227.672 93.2178L228.802 88.4157C228.874 88.1083 228.684 87.8004 228.376 87.7281Z" fill="black"/>
<path d="M227.985 99.843C225.934 99.8418 223.889 99.6031 221.893 99.1319C207.729 95.7998 198.917 81.566 202.249 67.4026C205.581 53.2392 219.815 44.427 233.978 47.7589C240.272 49.2438 245.801 52.9871 249.517 58.2787C253.234 63.5703 254.878 70.0419 254.139 76.4657C253.4 82.8895 250.328 88.8184 245.507 93.1276C240.686 97.4368 234.451 99.8264 227.985 99.843ZM227.935 48.2667C216.519 48.2667 206.154 56.0975 203.429 67.6798C200.25 81.193 208.657 94.7731 222.17 97.952C235.683 101.131 249.264 92.7239 252.442 79.2108C255.621 65.6978 247.214 52.1175 233.701 48.9388C231.811 48.4928 229.876 48.2673 227.934 48.2667H227.935Z" fill="black"/>
<path d="M17.2837 145.064C26.3115 145.064 33.6299 137.745 33.6299 128.717C33.6299 119.69 26.3115 112.371 17.2837 112.371C8.25595 112.371 0.9375 119.69 0.9375 128.717C0.9375 137.745 8.25595 145.064 17.2837 145.064Z" fill="#FFD600"/>
<path d="M18.1228 119.275C18.1228 119.275 13.1323 117.99 12.188 118.458C11.2436 118.926 11.3448 119.842 11.6013 120.218C11.8578 120.595 16.674 121.642 16.674 121.642L18.1228 119.275ZM13.0865 134.317C13.0865 134.317 8.36804 133.351 8.15639 133.761C7.94475 134.172 7.91116 135.66 8.52046 136.004C9.12976 136.349 13.5155 137.636 13.5155 137.636L13.0865 134.317Z" fill="black"/>
<path d="M20.8104 129.733C20.8104 129.733 24.8307 128.538 25.4432 124.712C26.0558 120.887 16.2019 118.511 14.3966 118.604C14.3966 118.604 10.5014 136.384 11.2965 136.917C12.0916 137.449 20.3005 139.725 23.0676 136.522C25.8346 133.318 20.8104 129.733 20.8104 129.733ZM21.814 126.016C20.566 127.836 16.9105 127.235 16.5402 126.976C16.1699 126.716 17.1846 122.036 17.1846 122.036C18.9718 121.594 23.0624 124.195 21.814 126.016ZM20.6143 134.6C19.8208 136.506 15.4078 135.64 14.9917 135.025C14.5757 134.409 15.2258 131.585 15.2258 131.585C15.4752 130.253 17.4682 130.732 18.4129 130.997C19.3576 131.263 21.4082 132.694 20.6146 134.6H20.6143Z" fill="black"/>
<path d="M18.9566 118.009L18.2265 117.837C18.0593 117.798 17.892 117.901 17.8526 118.068L17.2384 120.679C17.1991 120.846 17.3027 121.014 17.4699 121.053L18.2 121.225C18.3672 121.264 18.5346 121.16 18.5739 120.993L19.1881 118.382C19.2274 118.215 19.1238 118.048 18.9566 118.009Z" fill="black"/>
<path d="M20.7965 118.438L20.0663 118.267C19.8992 118.227 19.7318 118.331 19.6925 118.498L19.0783 121.109C19.0389 121.276 19.1426 121.443 19.3097 121.483L20.0399 121.654C20.207 121.694 20.3744 121.59 20.4137 121.423L21.0279 118.812C21.0673 118.645 20.9636 118.478 20.7965 118.438Z" fill="black"/>
<path d="M15.6832 136.048L14.953 135.876C14.7859 135.837 14.6185 135.94 14.5792 136.107L13.965 138.718C13.9257 138.885 14.0293 139.053 14.1964 139.092L14.9266 139.264C15.0938 139.303 15.2611 139.2 15.3004 139.032L15.9147 136.421C15.954 136.254 15.8504 136.087 15.6832 136.048Z" fill="black"/>
<path d="M17.523 136.481L16.7929 136.309C16.6257 136.27 16.4584 136.374 16.419 136.541L15.8048 139.152C15.7655 139.319 15.8691 139.486 16.0363 139.526L16.7664 139.697C16.9336 139.737 17.101 139.633 17.1403 139.466L17.7545 136.855C17.7938 136.688 17.6902 136.521 17.523 136.481Z" fill="black"/>
<path d="M17.3111 143.068C16.1957 143.067 15.0842 142.938 13.9987 142.681C6.29796 140.87 1.50689 133.131 3.31845 125.43C5.13001 117.73 12.869 112.939 20.5696 114.75C23.9913 115.557 26.9976 117.593 29.0181 120.47C31.0386 123.347 31.9328 126.865 31.5309 130.358C31.129 133.85 29.4591 137.074 26.8379 139.417C24.2167 141.76 20.8267 143.059 17.3111 143.068ZM17.2836 115.026C11.0768 115.026 5.44137 119.284 3.95992 125.581C2.23136 132.928 6.80256 140.312 14.1495 142.04C21.4964 143.768 28.8801 139.197 30.6084 131.85C32.3367 124.503 27.7659 117.12 20.4189 115.392C19.3913 115.149 18.339 115.026 17.2832 115.026H17.2836Z" fill="black"/>
</svg>
