<svg width="62" height="62" viewBox="0 0 62 62" fill="none" xmlns="http://www.w3.org/2000/svg">
<circle cx="31" cy="31" r="30" stroke="url(#paint0_linear_3456_12678)"/>
<g clip-path="url(#clip0_3456_12678)">
<path d="M25.5 19C24.5717 19 23.6815 19.3687 23.0251 20.0251C22.3687 20.6815 22 21.5717 22 22.5V39.5C22 40.4283 22.3687 41.3185 23.0251 41.9749C23.6815 42.6313 24.5717 43 25.5 43C26.4283 43 27.3185 42.6313 27.9749 41.9749C28.6313 41.3185 29 40.4283 29 39.5V22.5C29 21.5717 28.6313 20.6815 27.9749 20.0251C27.3185 19.3687 26.4283 19 25.5 19ZM27 39.5C27 39.8978 26.842 40.2794 26.5607 40.5607C26.2794 40.842 25.8978 41 25.5 41C25.1022 41 24.7206 40.842 24.4393 40.5607C24.158 40.2794 24 39.8978 24 39.5V22.5C24 22.1022 24.158 21.7206 24.4393 21.4393C24.7206 21.158 25.1022 21 25.5 21C25.8978 21 26.2794 21.158 26.5607 21.4393C26.842 21.7206 27 22.1022 27 22.5V39.5Z" fill="white"/>
<path d="M36.5 19C35.5717 19 34.6815 19.3687 34.0251 20.0251C33.3687 20.6815 33 21.5717 33 22.5V39.5C33 40.4283 33.3687 41.3185 34.0251 41.9749C34.6815 42.6313 35.5717 43 36.5 43C37.4283 43 38.3185 42.6313 38.9749 41.9749C39.6313 41.3185 40 40.4283 40 39.5V22.5C40 21.5717 39.6313 20.6815 38.9749 20.0251C38.3185 19.3687 37.4283 19 36.5 19ZM38 39.5C38 39.8978 37.842 40.2794 37.5607 40.5607C37.2794 40.842 36.8978 41 36.5 41C36.1022 41 35.7206 40.842 35.4393 40.5607C35.158 40.2794 35 39.8978 35 39.5V22.5C35 22.1022 35.158 21.7206 35.4393 21.4393C35.7206 21.158 36.1022 21 36.5 21C36.8978 21 37.2794 21.158 37.5607 21.4393C37.842 21.7206 38 22.1022 38 22.5V39.5Z" fill="white"/>
</g>
<defs>
<linearGradient id="paint0_linear_3456_12678" x1="9.18182" y1="7.81818" x2="50.0909" y2="52.1364" gradientUnits="userSpaceOnUse">
<stop stop-color="#FFD600"/>
<stop offset="0.24" stop-color="#FF423E"/>
<stop offset="0.5" stop-color="#0166FF"/>
<stop offset="0.73" stop-color="#8904F9"/>
<stop offset="1" stop-color="#01FFE3"/>
</linearGradient>
<clipPath id="clip0_3456_12678">
<rect width="24" height="24" fill="white" transform="translate(19 19)"/>
</clipPath>
</defs>
</svg>
