<svg width="60" height="60" viewBox="0 0 60 60" fill="none" xmlns="http://www.w3.org/2000/svg">
<circle cx="30" cy="30" r="29.5" fill="url(#paint0_linear_3456_12695)"/>
<circle cx="30" cy="30" r="29.5" fill="black" fill-opacity="0.2"/>
<circle cx="30" cy="30" r="29.5" stroke="url(#paint1_linear_3456_12695)"/>
<g clip-path="url(#clip0_3456_12695)">
<path d="M24.5 18C23.5717 18 22.6815 18.3687 22.0251 19.0251C21.3687 19.6815 21 20.5717 21 21.5V38.5C21 39.4283 21.3687 40.3185 22.0251 40.9749C22.6815 41.6313 23.5717 42 24.5 42C25.4283 42 26.3185 41.6313 26.9749 40.9749C27.6313 40.3185 28 39.4283 28 38.5V21.5C28 20.5717 27.6313 19.6815 26.9749 19.0251C26.3185 18.3687 25.4283 18 24.5 18ZM26 38.5C26 38.8978 25.842 39.2794 25.5607 39.5607C25.2794 39.842 24.8978 40 24.5 40C24.1022 40 23.7206 39.842 23.4393 39.5607C23.158 39.2794 23 38.8978 23 38.5V21.5C23 21.1022 23.158 20.7206 23.4393 20.4393C23.7206 20.158 24.1022 20 24.5 20C24.8978 20 25.2794 20.158 25.5607 20.4393C25.842 20.7206 26 21.1022 26 21.5V38.5Z" fill="#787878"/>
<path d="M35.5 18C34.5717 18 33.6815 18.3687 33.0251 19.0251C32.3687 19.6815 32 20.5717 32 21.5V38.5C32 39.4283 32.3687 40.3185 33.0251 40.9749C33.6815 41.6313 34.5717 42 35.5 42C36.4283 42 37.3185 41.6313 37.9749 40.9749C38.6313 40.3185 39 39.4283 39 38.5V21.5C39 20.5717 38.6313 19.6815 37.9749 19.0251C37.3185 18.3687 36.4283 18 35.5 18ZM37 38.5C37 38.8978 36.842 39.2794 36.5607 39.5607C36.2794 39.842 35.8978 40 35.5 40C35.1022 40 34.7206 39.842 34.4393 39.5607C34.158 39.2794 34 38.8978 34 38.5V21.5C34 21.1022 34.158 20.7206 34.4393 20.4393C34.7206 20.158 35.1022 20 35.5 20C35.8978 20 36.2794 20.158 36.5607 20.4393C36.842 20.7206 37 21.1022 37 21.5V38.5Z" fill="#787878"/>
</g>
<defs>
<linearGradient id="paint0_linear_3456_12695" x1="1.10769" y1="1.8" x2="67.9386" y2="14.8052" gradientUnits="userSpaceOnUse">
<stop stop-color="#1A1A1A"/>
<stop offset="0.5" stop-color="#0B0B0B"/>
<stop offset="1" stop-color="#121212"/>
</linearGradient>
<linearGradient id="paint1_linear_3456_12695" x1="1.84615" y1="3.35426e-06" x2="68.0707" y2="14.2175" gradientUnits="userSpaceOnUse">
<stop stop-color="#2F2F2F"/>
<stop offset="0.5798" stop-color="#191919"/>
<stop offset="1" stop-color="#151515"/>
</linearGradient>
<clipPath id="clip0_3456_12695">
<rect width="24" height="24" fill="white" transform="translate(18 18)"/>
</clipPath>
</defs>
</svg>
