<svg width="60" height="60" viewBox="0 0 60 60" fill="none" xmlns="http://www.w3.org/2000/svg">
<circle cx="30" cy="30" r="29.5" fill="white" stroke="#E8E8E8"/>
<path d="M38.494 25.9676L28.954 18.9676C28.2089 18.422 27.3272 18.0934 26.4068 18.0183C25.4863 17.9432 24.563 18.1244 23.7393 18.542C22.9156 18.9595 22.2236 19.5971 21.7401 20.3839C21.2565 21.1707 21.0004 22.0761 21 22.9996V36.9996C21.0002 37.9236 21.2563 38.8294 21.7401 39.6166C22.2238 40.4037 22.9162 41.0415 23.7404 41.459C24.5646 41.8766 25.4884 42.0576 26.4092 41.982C27.3301 41.9063 28.212 41.577 28.957 41.0306L38.497 34.0306C39.1303 33.5662 39.6452 32.9592 40.0002 32.2587C40.3552 31.5582 40.5401 30.7839 40.5401 29.9986C40.5401 29.2133 40.3552 28.4391 40.0002 27.7386C39.6452 27.0381 39.1303 26.431 38.497 25.9666L38.494 25.9676ZM37.31 32.4176L27.77 39.4176C27.323 39.7442 26.7944 39.9408 26.2426 39.9856C25.6908 40.0304 25.1374 39.9216 24.6436 39.6712C24.1498 39.4209 23.7349 39.0389 23.4448 38.5674C23.1547 38.0958 23.0008 37.5532 23 36.9996V22.9996C22.9945 22.445 23.1455 21.9 23.4358 21.4273C23.7261 20.9547 24.1438 20.5735 24.641 20.3276C25.0639 20.1125 25.5315 20.0001 26.006 19.9996C26.6419 20.002 27.2602 20.2085 27.77 20.5886L37.31 27.5886C37.6895 27.8673 37.9981 28.2314 38.2107 28.6515C38.4234 29.0716 38.5343 29.5358 38.5343 30.0066C38.5343 30.4775 38.4234 30.9417 38.2107 31.3618C37.9981 31.7818 37.6895 32.1459 37.31 32.4246V32.4176Z" fill="#616A7F"/>
</svg>
