<svg width="62" height="62" viewBox="0 0 62 62" fill="none" xmlns="http://www.w3.org/2000/svg">
<circle cx="31" cy="31" r="30" stroke="url(#paint0_linear_3491_6830)"/>
<path d="M39.494 26.9676L29.954 19.9676C29.2089 19.422 28.3272 19.0934 27.4068 19.0183C26.4863 18.9432 25.563 19.1244 24.7393 19.542C23.9156 19.9595 23.2236 20.5971 22.7401 21.3839C22.2565 22.1707 22.0004 23.0761 22 23.9996V37.9996C22.0002 38.9236 22.2563 39.8294 22.7401 40.6166C23.2238 41.4037 23.9162 42.0415 24.7404 42.459C25.5646 42.8766 26.4884 43.0576 27.4092 42.982C28.3301 42.9063 29.212 42.577 29.957 42.0306L39.497 35.0306C40.1303 34.5662 40.6452 33.9592 41.0002 33.2587C41.3552 32.5582 41.5401 31.7839 41.5401 30.9986C41.5401 30.2133 41.3552 29.4391 41.0002 28.7386C40.6452 28.0381 40.1303 27.431 39.497 26.9666L39.494 26.9676ZM38.31 33.4176L28.77 40.4176C28.323 40.7442 27.7944 40.9408 27.2426 40.9856C26.6908 41.0304 26.1374 40.9216 25.6436 40.6712C25.1498 40.4209 24.7349 40.0389 24.4448 39.5674C24.1547 39.0958 24.0008 38.5532 24 37.9996V23.9996C23.9945 23.445 24.1455 22.9 24.4358 22.4273C24.7261 21.9547 25.1438 21.5735 25.641 21.3276C26.0639 21.1125 26.5315 21.0001 27.006 20.9996C27.6419 21.002 28.2602 21.2085 28.77 21.5886L38.31 28.5886C38.6895 28.8673 38.9981 29.2314 39.2107 29.6515C39.4234 30.0716 39.5343 30.5358 39.5343 31.0066C39.5343 31.4775 39.4234 31.9417 39.2107 32.3618C38.9981 32.7818 38.6895 33.1459 38.31 33.4246V33.4176Z" fill="#091229"/>
<defs>
<linearGradient id="paint0_linear_3491_6830" x1="9.18182" y1="7.81818" x2="50.0909" y2="52.1364" gradientUnits="userSpaceOnUse">
<stop stop-color="#FFD600"/>
<stop offset="0.24" stop-color="#FF423E"/>
<stop offset="0.5" stop-color="#0166FF"/>
<stop offset="0.73" stop-color="#8904F9"/>
<stop offset="1" stop-color="#01FFE3"/>
</linearGradient>
</defs>
</svg>
