<svg width="62" height="62" viewBox="0 0 62 62" fill="none" xmlns="http://www.w3.org/2000/svg">
<circle cx="31" cy="31" r="30" stroke="url(#paint0_linear_3456_12681)"/>
<path d="M39.494 26.9679L29.954 19.9679C29.2089 19.4223 28.3272 19.0937 27.4068 19.0185C26.4863 18.9434 25.563 19.1247 24.7393 19.5422C23.9156 19.9598 23.2236 20.5973 22.7401 21.3842C22.2565 22.171 22.0004 23.0763 22 23.9999V37.9999C22.0002 38.9238 22.2563 39.8296 22.7401 40.6168C23.2238 41.404 23.9162 42.0417 24.7404 42.4593C25.5646 42.8768 26.4884 43.0578 27.4092 42.9822C28.3301 42.9066 29.212 42.5773 29.957 42.0309L39.497 35.0309C40.1303 34.5665 40.6452 33.9594 41.0002 33.2589C41.3552 32.5584 41.5401 31.7842 41.5401 30.9989C41.5401 30.2136 41.3552 29.4393 41.0002 28.7388C40.6452 28.0383 40.1303 27.4313 39.497 26.9669L39.494 26.9679ZM38.31 33.4179L28.77 40.4179C28.323 40.7445 27.7944 40.9411 27.2426 40.9858C26.6908 41.0306 26.1374 40.9218 25.6436 40.6715C25.1498 40.4212 24.7349 40.0391 24.4448 39.5676C24.1547 39.0961 24.0008 38.5535 24 37.9999V23.9999C23.9945 23.4452 24.1455 22.9002 24.4358 22.4276C24.7261 21.9549 25.1438 21.5738 25.641 21.3279C26.0639 21.1128 26.5315 21.0004 27.006 20.9999C27.6419 21.0023 28.2602 21.2088 28.77 21.5889L38.31 28.5889C38.6895 28.8676 38.9981 29.2317 39.2107 29.6517C39.4234 30.0718 39.5343 30.536 39.5343 31.0069C39.5343 31.4777 39.4234 31.9419 39.2107 32.362C38.9981 32.7821 38.6895 33.1462 38.31 33.4249V33.4179Z" fill="white"/>
<defs>
<linearGradient id="paint0_linear_3456_12681" x1="9.18182" y1="7.81818" x2="50.0909" y2="52.1364" gradientUnits="userSpaceOnUse">
<stop stop-color="#FFD600"/>
<stop offset="0.24" stop-color="#FF423E"/>
<stop offset="0.5" stop-color="#0166FF"/>
<stop offset="0.73" stop-color="#8904F9"/>
<stop offset="1" stop-color="#01FFE3"/>
</linearGradient>
</defs>
</svg>
