<svg width="60" height="60" viewBox="0 0 60 60" fill="none" xmlns="http://www.w3.org/2000/svg">
<circle cx="30" cy="30" r="29.5" fill="url(#paint0_linear_3456_12698)"/>
<circle cx="30" cy="30" r="29.5" fill="black" fill-opacity="0.2"/>
<circle cx="30" cy="30" r="29.5" stroke="url(#paint1_linear_3456_12698)"/>
<path d="M38.494 25.9679L28.954 18.9679C28.2089 18.4223 27.3272 18.0937 26.4068 18.0185C25.4863 17.9434 24.563 18.1247 23.7393 18.5422C22.9156 18.9598 22.2236 19.5973 21.7401 20.3842C21.2565 21.171 21.0004 22.0763 21 22.9999V36.9999C21.0002 37.9238 21.2563 38.8296 21.7401 39.6168C22.2238 40.404 22.9162 41.0417 23.7404 41.4593C24.5646 41.8768 25.4884 42.0578 26.4092 41.9822C27.3301 41.9066 28.212 41.5773 28.957 41.0309L38.497 34.0309C39.1303 33.5665 39.6452 32.9594 40.0002 32.2589C40.3552 31.5584 40.5401 30.7842 40.5401 29.9989C40.5401 29.2136 40.3552 28.4393 40.0002 27.7388C39.6452 27.0383 39.1303 26.4313 38.497 25.9669L38.494 25.9679ZM37.31 32.4179L27.77 39.4179C27.323 39.7445 26.7944 39.9411 26.2426 39.9858C25.6908 40.0306 25.1374 39.9218 24.6436 39.6715C24.1498 39.4212 23.7349 39.0391 23.4448 38.5676C23.1547 38.0961 23.0008 37.5535 23 36.9999V22.9999C22.9945 22.4452 23.1455 21.9002 23.4358 21.4276C23.7261 20.9549 24.1438 20.5738 24.641 20.3279C25.0639 20.1128 25.5315 20.0004 26.006 19.9999C26.6419 20.0023 27.2602 20.2088 27.77 20.5889L37.31 27.5889C37.6895 27.8676 37.9981 28.2317 38.2107 28.6517C38.4234 29.0718 38.5343 29.536 38.5343 30.0069C38.5343 30.4777 38.4234 30.9419 38.2107 31.362C37.9981 31.7821 37.6895 32.1462 37.31 32.4249V32.4179Z" fill="#787878"/>
<defs>
<linearGradient id="paint0_linear_3456_12698" x1="1.10769" y1="1.8" x2="67.9386" y2="14.8052" gradientUnits="userSpaceOnUse">
<stop stop-color="#1A1A1A"/>
<stop offset="0.5" stop-color="#0B0B0B"/>
<stop offset="1" stop-color="#121212"/>
</linearGradient>
<linearGradient id="paint1_linear_3456_12698" x1="1.84615" y1="3.35426e-06" x2="68.0707" y2="14.2175" gradientUnits="userSpaceOnUse">
<stop stop-color="#2F2F2F"/>
<stop offset="0.5798" stop-color="#191919"/>
<stop offset="1" stop-color="#151515"/>
</linearGradient>
</defs>
</svg>
