<svg width="50" height="50" viewBox="0 0 50 50" fill="none" xmlns="http://www.w3.org/2000/svg">
<path d="M34 0.5C42.5604 0.5 49.5 7.43959 49.5 16V34C49.5 42.5604 42.5604 49.5 34 49.5H16C7.43959 49.5 0.5 42.5604 0.5 34V16C0.5 7.43959 7.43959 0.5 16 0.5H34Z" fill="white"/>
<path d="M34 0.5C42.5604 0.5 49.5 7.43959 49.5 16V34C49.5 42.5604 42.5604 49.5 34 49.5H16C7.43959 49.5 0.5 42.5604 0.5 34V16C0.5 7.43959 7.43959 0.5 16 0.5H34Z" stroke="#E8E8E8"/>
<path d="M26.748 33.4438H34.0006" stroke="#091229" stroke-width="1.5" stroke-linecap="round" stroke-linejoin="round"/>
<path fill-rule="evenodd" clip-rule="evenodd" d="M25.78 16.7948C26.5557 15.8678 27.95 15.7319 28.8962 16.4917C28.9485 16.533 30.6295 17.8388 30.6295 17.8388C31.669 18.4672 31.992 19.8031 31.3494 20.8226C31.3153 20.8772 21.8119 32.7645 21.8119 32.7645C21.4958 33.1589 21.0158 33.3918 20.5029 33.3973L16.8635 33.443L16.0435 29.9723C15.9287 29.4843 16.0435 28.9718 16.3597 28.5773L25.78 16.7948Z" stroke="#091229" stroke-width="1.5" stroke-linecap="round" stroke-linejoin="round"/>
<path d="M24.0205 19L29.4728 23.1871" stroke="#091229" stroke-width="1.5" stroke-linecap="round" stroke-linejoin="round"/>
</svg>
