<svg width="184" height="188" viewBox="0 0 184 188" fill="none" xmlns="http://www.w3.org/2000/svg">
<path d="M70.5833 160.572C76.9673 160.572 82.1426 155.397 82.1426 149.012C82.1426 142.628 76.9673 137.453 70.5833 137.453C64.1992 137.453 59.0239 142.628 59.0239 149.012C59.0239 155.397 64.1992 160.572 70.5833 160.572Z" fill="#4CD964"/>
<path d="M72.3755 159.568C65.8015 159.568 60.4537 154.219 60.4537 147.645C60.4537 141.071 65.8025 135.723 72.3755 135.723C78.9494 135.723 84.2982 141.071 84.2982 147.645C84.2982 154.219 78.9494 159.568 72.3755 159.568ZM72.3755 136.448C66.2015 136.448 61.1795 141.471 61.1795 147.645C61.1795 153.819 66.2024 158.842 72.3755 158.842C78.5495 158.842 83.5724 153.819 83.5724 147.645C83.5724 141.471 78.5495 136.448 72.3755 136.448Z" fill="black"/>
<path d="M70.2667 151.393C69.9879 151.393 69.709 151.287 69.4968 151.074L67.8153 149.392C67.39 148.967 67.39 148.278 67.8153 147.852C68.2406 147.427 68.9297 147.427 69.3541 147.852L70.2695 148.768L75.5844 143.506C76.0116 143.084 76.6998 143.087 77.1233 143.514C77.5467 143.941 77.5429 144.63 77.1157 145.054L71.0319 151.076C70.8206 151.288 70.5437 151.393 70.2667 151.393Z" fill="black"/>
<path d="M91.1519 36.4755V133.972C91.1519 141.063 95.8359 147.278 101.722 147.866L145.93 152.282C152.884 152.977 158.634 147.13 158.634 139.205V31.2413C158.634 23.3248 152.885 17.4785 145.93 18.1732L101.722 22.5897C95.8359 23.1774 91.1519 29.3918 91.1519 36.4755Z" fill="black"/>
<path d="M147.042 152.696C146.662 152.696 146.279 152.677 145.895 152.639L101.686 148.222C95.6773 147.623 90.7896 141.228 90.7896 133.968V36.4709C90.7896 29.2153 95.6782 22.8235 101.686 22.2236L145.895 17.8072C149.099 17.4879 152.194 18.5132 154.606 20.6961C157.397 23.2216 158.996 27.0635 158.996 31.2367V139.201C158.996 143.379 157.396 147.224 154.604 149.75C152.482 151.671 149.831 152.696 147.042 152.696ZM147.04 18.4756C146.684 18.4756 146.326 18.4935 145.967 18.5291L101.758 22.9456C96.1101 23.5098 91.5153 29.5777 91.5153 36.4709V133.968C91.5153 140.866 96.1101 146.936 101.758 147.5L145.967 151.917C148.963 152.217 151.86 151.256 154.117 149.213C156.756 146.824 158.271 143.175 158.271 139.202V31.2377C158.271 27.2691 156.757 23.6234 154.119 21.235C152.131 19.4361 149.65 18.4756 147.04 18.4756Z" fill="black"/>
<path d="M33.7711 187.409L28.7904 143.467L28.8974 124.812L48.3771 132.726L55.3097 187.409H33.7711Z" fill="white"/>
<path d="M55.3097 187.776C55.1294 187.776 54.9736 187.642 54.9501 187.459L48.0447 132.987L29.258 125.355L29.1538 143.452L34.1316 187.372C34.1542 187.571 34.0115 187.751 33.8124 187.774C33.6134 187.798 33.4341 187.653 33.4115 187.454L28.4318 143.512C28.4299 143.498 28.429 143.484 28.429 143.469L28.536 124.814C28.5369 124.694 28.597 124.581 28.6975 124.514C28.797 124.448 28.9237 124.435 29.0355 124.48L48.5151 132.393C48.6362 132.443 48.7216 132.554 48.7385 132.683L55.6711 187.367C55.6965 187.566 55.5557 187.747 55.3566 187.772C55.3397 187.775 55.3247 187.776 55.3097 187.776Z" fill="black"/>
<path d="M30.2034 149.953L22.3029 187.409H0.363403C3.19878 172.053 6.54209 134.891 7.02561 132.731C7.65465 129.923 33.5176 135.774 33.5176 135.774" fill="white"/>
<path d="M0.363365 187.774C0.343649 187.774 0.323932 187.772 0.304216 187.769C0.106115 187.736 -0.0272017 187.55 0.00471983 187.352C1.94536 175.52 4.147 152.153 5.46142 138.192C6.09421 131.473 6.51295 127.035 6.6688 126.251C6.72326 125.974 6.89413 125.743 7.17485 125.566C10.3632 123.556 31.2371 128.791 33.6068 129.395C33.8011 129.445 33.9185 129.642 33.8687 129.836C33.819 130.031 33.6199 130.148 33.4275 130.098C27.0723 128.48 10.0356 124.621 7.56167 126.18C7.403 126.281 7.3861 126.364 7.38046 126.393C7.23212 127.14 6.79273 131.804 6.18434 138.261C4.86805 152.231 2.66547 175.614 0.720137 187.47C0.691971 187.647 0.537995 187.774 0.363365 187.774Z" fill="black"/>
<path d="M22.3029 187.775C22.2785 187.775 22.2531 187.773 22.2278 187.768C22.0316 187.727 21.9058 187.534 21.9471 187.338L29.8486 149.882C29.8899 149.685 30.0814 149.56 30.2786 149.602C30.4748 149.643 30.6006 149.836 30.5593 150.032L22.6578 187.488C22.6212 187.658 22.4709 187.775 22.3029 187.775Z" fill="black"/>
<path d="M65.1208 79.3984C65.1208 79.3984 67.7262 81.7184 67.0033 85.9592C66.3367 89.8706 63.1455 102.372 59.0783 100.134C55.0111 97.8969 57.9808 82.5793 57.9808 82.5793L65.1208 79.3984Z" fill="black"/>
<path d="M60.049 100.767C59.665 100.767 59.2819 100.663 58.9036 100.455C54.6533 98.1175 57.5009 83.1491 57.6248 82.5135C57.6474 82.3971 57.7253 82.2994 57.8333 82.2515L64.9733 79.0707C65.1039 79.0124 65.2559 79.0359 65.362 79.1307C65.4747 79.2312 68.1092 81.6347 67.3609 86.0239C66.8088 89.2649 64.4692 98.8836 61.078 100.52C60.7362 100.684 60.3917 100.767 60.049 100.767ZM58.3018 82.8365C57.4859 87.1618 56.1527 98.1147 59.2538 99.8196C59.7598 100.098 60.2527 100.113 60.7635 99.8657C63.6195 98.4874 65.9995 89.6986 66.6464 85.9009C67.2229 82.5163 65.5733 80.4123 65.04 79.834L58.3018 82.8365Z" fill="black"/>
<path d="M102.984 42.6968C103.024 45.5988 100.999 50.7748 100.159 52.614C98.1942 56.9234 96.7427 61.0244 96.7427 61.0244L96.6563 60.9944C94.8002 66.7881 84.6773 95.6405 78.4386 99.3387C71.506 103.449 54.2815 95.2086 54.2815 95.2086L58.7374 77.8142L70.5906 83.545L83.4296 56.4859C83.4296 56.4859 79.3192 44.9651 81.4936 43.1193C83.9535 41.0275 87.1728 47.6869 87.1728 47.6869C87.1728 47.6869 87.4968 36.2101 90.5941 36.0872C93.1403 35.9839 91.8925 42.4987 91.8324 42.8968C91.9686 42.5682 94.1561 37.2457 95.5344 36.7115C96.9559 36.1566 97.7295 37.7142 97.4797 38.946C97.4797 38.946 100.202 37.256 100.458 40.4632C100.458 40.4623 102.951 39.7882 102.984 42.6968Z" fill="white"/>
<path d="M73.2457 100.858C65.3555 100.858 54.6871 95.8089 54.1238 95.5394C53.968 95.4643 53.8863 95.2897 53.9285 95.1226L58.3844 77.7282C58.4116 77.623 58.4839 77.5347 58.5835 77.4887C58.682 77.4427 58.7966 77.4437 58.8942 77.4916L70.4179 83.0628L83.0363 56.4694C82.4288 54.7447 79.031 44.7363 81.2571 42.8464C81.7594 42.4192 82.3265 42.2681 82.9396 42.3976C84.5159 42.73 86.0425 44.957 86.8687 46.3681C87.0593 43.2003 87.7991 35.8377 90.5782 35.7279C91.0683 35.7091 91.4917 35.8884 91.8081 36.248C92.5282 37.0667 92.6371 38.7539 92.5057 40.4898C93.3629 38.7032 94.4858 36.7315 95.4011 36.3767C96.033 36.1307 96.6405 36.2124 97.1108 36.6076C97.5728 36.9963 97.8554 37.6601 97.8845 38.3539C98.3821 38.1652 99.1059 38.0065 99.7303 38.322C100.286 38.6027 100.635 39.1829 100.772 40.0486C101.199 40.0101 101.877 40.0373 102.44 40.4635C103.029 40.9095 103.334 41.6606 103.346 42.6952C103.388 45.7334 101.296 50.9967 100.487 52.7684C98.5511 57.0139 97.0977 61.1074 97.0827 61.1487C97.0536 61.2322 96.9963 61.298 96.9249 61.3402C94.4848 68.8906 84.7375 96.0286 78.6208 99.6545C77.1721 100.514 75.3028 100.858 73.2457 100.858ZM54.7069 95.0099C56.916 96.0239 72.0318 102.719 78.2527 99.0301C84.177 95.5178 94.1572 67.6072 96.31 60.8867C96.3381 60.7975 96.4001 60.7234 96.4818 60.6792C96.816 59.7563 98.1398 56.1689 99.8279 52.467C100.565 50.8531 102.66 45.5954 102.621 42.7056V42.7046C102.613 41.9075 102.405 41.3489 102.007 41.0447C101.418 40.5959 100.56 40.8137 100.552 40.8166C100.448 40.8438 100.337 40.8241 100.249 40.7621C100.161 40.7001 100.105 40.6025 100.096 40.4955C100.032 39.6833 99.7997 39.1698 99.4064 38.9707C98.8374 38.6816 97.9605 39.0797 97.6704 39.258C97.5474 39.3341 97.3906 39.3294 97.2723 39.2468C97.154 39.1642 97.0949 39.0196 97.124 38.8778C97.2535 38.2384 97.0479 37.5014 96.6461 37.1634C96.3813 36.94 96.0518 36.9034 95.6659 37.0536C94.8284 37.3784 93.268 40.3781 92.1724 43.0276C92.1029 43.1975 91.9142 43.2933 91.7377 43.2445C91.5612 43.1957 91.4457 43.0285 91.4729 42.8473L91.4926 42.7281C92.0043 39.7162 91.9189 37.4733 91.2645 36.7287C91.0899 36.5306 90.8805 36.4424 90.6082 36.4546C88.5991 36.5344 87.6574 43.3956 87.5353 47.7022C87.5306 47.8693 87.4123 48.012 87.249 48.0468C87.0837 48.0815 86.9194 48.0008 86.8462 47.8496C86.2641 46.646 84.4004 43.4482 82.7912 43.1093C82.4025 43.0276 82.0561 43.1234 81.7284 43.4013C80.2835 44.6274 82.2147 52.0069 83.7705 56.3698C83.8033 56.4609 83.7977 56.5604 83.7564 56.6477L70.9174 83.7069C70.876 83.7942 70.8019 83.8618 70.7099 83.8937C70.6197 83.9256 70.5193 83.92 70.431 83.8777L58.9778 78.3403L54.7069 95.0099Z" fill="black"/>
<path d="M95.3458 44.6487C95.3007 44.6487 95.2557 44.6402 95.2115 44.6224C95.0256 44.5482 94.9346 44.3369 95.0087 44.1511L97.1418 38.8108C97.216 38.6239 97.4273 38.5338 97.6132 38.608C97.7991 38.6822 97.8901 38.8934 97.8159 39.0793L95.6828 44.4196C95.6265 44.5623 95.4904 44.6487 95.3458 44.6487ZM98.1727 46.1396C98.1248 46.1396 98.076 46.1302 98.0291 46.1095C97.8451 46.0307 97.7606 45.8166 97.8394 45.6326L100.125 40.3214C100.204 40.1365 100.418 40.0529 100.602 40.1318C100.786 40.2106 100.87 40.4247 100.791 40.6087L98.506 45.9199C98.4469 46.0579 98.3126 46.1396 98.1727 46.1396Z" fill="black"/>
<path d="M85.6576 36.7812V134.021C85.6576 141.091 90.4956 147.288 96.5747 147.875L142.235 152.278C149.417 152.971 155.355 147.14 155.355 139.24V31.563C155.355 23.6699 149.418 17.8396 142.235 18.5324L96.5747 22.9357C90.4956 23.5207 85.6576 29.7172 85.6576 36.7812Z" fill="white"/>
<path d="M143.389 152.7C142.995 152.7 142.599 152.681 142.201 152.643L96.541 148.24C90.3407 147.642 85.2961 141.265 85.2961 134.025V36.7857C85.2961 29.5499 90.3407 23.1759 96.541 22.5778L142.201 18.1745C145.591 17.8478 148.844 18.9247 151.36 21.208C154.13 23.7242 155.719 27.4994 155.719 31.5666V139.243C155.719 143.314 154.129 147.093 151.358 149.61C149.139 151.624 146.345 152.7 143.389 152.7ZM143.386 18.843C143.016 18.843 142.644 18.8609 142.269 18.8965L96.6095 23.2998C90.7707 23.8631 86.021 29.9123 86.021 36.7848V134.024C86.021 140.901 90.7716 146.953 96.6095 147.517L142.269 151.92C145.456 152.227 148.508 151.216 150.869 149.072C153.489 146.692 154.992 143.11 154.992 139.242V31.5666C154.992 27.7041 153.49 24.1251 150.87 21.746C148.787 19.8532 146.163 18.843 143.386 18.843Z" fill="black"/>
<path d="M144.709 97.2496L95.6162 98.2908V85.4227L144.709 83.2539V97.2496Z" fill="white"/>
<path d="M136.971 136.74L102.321 135.209C100.848 135.145 99.6589 133.81 99.6589 132.231V123.351C99.6589 121.771 100.848 120.512 102.321 120.539L136.971 121.173C138.639 121.203 139.998 122.601 139.998 124.294V133.809C139.997 135.501 138.639 136.814 136.971 136.74Z" fill="#FFD600"/>
<path d="M137.106 137.11C137.056 137.11 137.005 137.109 136.956 137.106L102.305 135.576C100.646 135.503 99.2957 134.004 99.2957 132.235V123.356C99.2957 122.467 99.644 121.614 100.252 121.017C100.816 120.464 101.54 120.163 102.326 120.18L136.977 120.814C138.843 120.848 140.36 122.411 140.36 124.297V133.812C140.36 134.737 140 135.59 139.349 136.213C138.742 136.795 137.951 137.11 137.106 137.11ZM136.987 136.381C137.69 136.413 138.349 136.166 138.847 135.69C139.355 135.203 139.635 134.537 139.635 133.812V124.297C139.635 122.804 138.437 121.566 136.965 121.539L102.314 120.905C101.721 120.895 101.185 121.118 100.762 121.533C100.292 121.995 100.022 122.659 100.022 123.355V132.234C100.022 133.62 101.061 134.794 102.338 134.85L136.987 136.381Z" fill="black"/>
<path d="M95.6162 97.7614C95.5214 97.7614 95.4303 97.7238 95.3627 97.6581C95.2932 97.5896 95.2538 97.4966 95.2538 97.399V84.5309C95.2538 84.3365 95.4068 84.1769 95.6002 84.1685L106.563 83.684C106.662 83.6793 106.759 83.7159 106.83 83.7845C106.901 83.853 106.942 83.9478 106.942 84.0464V97.1661C106.942 97.3633 106.784 97.5248 106.587 97.5285L95.6237 97.7614C95.6209 97.7614 95.619 97.7614 95.6162 97.7614ZM95.9795 84.8782V97.0281L106.217 96.8113V84.4257L95.9795 84.8782Z" fill="black"/>
<path d="M95.6162 97.7621C95.5214 97.7621 95.4303 97.7246 95.3627 97.6588C95.2932 97.5903 95.2538 97.4974 95.2538 97.3997V84.5316C95.2538 84.3372 95.4068 84.1776 95.6002 84.1692L144.693 82.0004C144.789 81.9957 144.888 82.0323 144.959 82.1009C145.031 82.1694 145.071 82.2642 145.071 82.3628V96.3585C145.071 96.5557 144.913 96.7171 144.716 96.7209L95.6237 97.7621C95.6209 97.7621 95.619 97.7621 95.6162 97.7621ZM95.9795 84.879V97.0289L144.346 96.0036V82.7421L95.9795 84.879Z" fill="black"/>
<path d="M106.579 97.1666L95.6162 97.3995V84.5313L106.579 84.0469V97.1666Z" fill="#01FFE3"/>
<path d="M140.193 90.5155L110.836 91.4262V89.6649L140.193 88.6641V90.5155Z" fill="black"/>
<path d="M95.3624 78.7621C95.2676 78.7621 95.1765 78.7246 95.1089 78.6588C95.0394 78.5903 95 78.4974 95 78.3997V65.5316C95 65.3372 95.153 65.1776 95.3464 65.1692L144.439 63.0004C144.536 62.9957 144.634 63.0323 144.706 63.1009C144.777 63.1694 144.817 63.2642 144.817 63.3628V77.3585C144.817 77.5557 144.66 77.7171 144.462 77.7209L95.3699 78.7621C95.3671 78.7621 95.3652 78.7621 95.3624 78.7621ZM95.7257 65.879V78.0289L144.092 77.0036V63.7421L95.7257 65.879Z" fill="black"/>
<path d="M106.325 78.1666L95.3623 78.3995V65.5313L106.325 65.0469V78.1666Z" fill="#01FFE3"/>
<path d="M139.939 71.5155L110.582 72.4262V70.6649L139.939 69.6641V71.5155Z" fill="black"/>
<path d="M95.3624 59.7621C95.2676 59.7621 95.1765 59.7246 95.1089 59.6588C95.0394 59.5903 95 59.4974 95 59.3997V46.5316C95 46.3372 95.153 46.1776 95.3464 46.1692L144.439 44.0004C144.536 43.9957 144.634 44.0323 144.706 44.1009C144.777 44.1694 144.817 44.2642 144.817 44.3628V58.3585C144.817 58.5557 144.66 58.7171 144.462 58.7209L95.3699 59.7621C95.3671 59.7621 95.3652 59.7621 95.3624 59.7621ZM95.7257 46.879V59.0289L144.092 58.0036V44.7421L95.7257 46.879Z" fill="black"/>
<path d="M106.325 59.1666L95.3623 59.3995V46.5313L106.325 46.0469V59.1666Z" fill="#01FFE3"/>
<path d="M139.939 52.5155L110.582 53.4262V51.6649L139.939 50.6641V52.5155Z" fill="black"/>
<path d="M144.709 115.359L95.6162 114.942V102.075L144.709 101.363V115.359Z" fill="white"/>
<path d="M106.579 115.399C106.578 115.399 106.577 115.399 106.577 115.399L95.6134 115.306C95.4143 115.304 95.2538 115.143 95.2538 114.944V102.076C95.2538 101.878 95.4124 101.716 95.6115 101.713L106.575 101.555C106.685 101.554 106.765 101.591 106.835 101.659C106.904 101.727 106.943 101.82 106.943 101.917V115.037C106.943 115.134 106.904 115.227 106.836 115.294C106.767 115.362 106.675 115.399 106.579 115.399ZM95.9795 114.583L106.217 114.67V102.284L95.9795 102.433V114.583Z" fill="black"/>
<path d="M144.709 115.72C144.708 115.72 144.707 115.72 144.706 115.72L95.6134 115.305C95.4143 115.303 95.2538 115.141 95.2538 114.942V102.074C95.2538 101.876 95.4124 101.714 95.6115 101.712L144.704 101C144.803 101.003 144.895 101.037 144.964 101.104C145.033 101.173 145.072 101.266 145.072 101.362V115.358C145.072 115.455 145.033 115.548 144.965 115.615C144.896 115.683 144.804 115.72 144.709 115.72ZM95.9795 114.582L144.346 114.992V101.73L95.9795 102.431V114.582Z" fill="black"/>
<path d="M106.579 115.034L95.6162 114.94V102.073L106.579 101.914V115.034Z" fill="#01FFE3"/>
<path d="M140.357 108.871L111 109.782V108.02L140.357 107.02V108.871Z" fill="black"/>
<path d="M108.269 29.5665C108.269 30.3373 108.813 30.91 109.484 30.8555L119.827 30.0115C120.522 29.9551 121.089 29.2782 121.089 28.4914C121.089 27.7047 120.523 27.116 119.827 27.1761L109.484 28.0671C109.151 28.0962 108.843 28.2821 108.625 28.5506C108.403 28.8201 108.269 29.1778 108.269 29.5665Z" fill="black"/>
<path d="M125.012 27.1482C124.776 27.4252 124.637 27.7932 124.637 28.1923C124.637 28.9837 125.209 29.5705 125.917 29.5132L127.935 29.3489C128.295 29.3198 128.616 29.1358 128.848 28.8589C129.08 28.581 129.229 28.2101 129.229 27.8083C129.229 27.0121 128.648 26.4159 127.934 26.477L125.916 26.6506C125.566 26.6797 125.241 26.8722 125.012 27.1482Z" fill="black"/>
<path d="M35.0901 91.4503L59.2227 100.189C57.2483 92.0409 58.9373 85.0256 65.1217 79.4009C65.1217 79.4009 53.2187 73.8137 48.6952 72.9809C44.1755 72.15 41.5401 72.5265 41.5401 72.5265L35.0901 91.4503Z" fill="white"/>
<path d="M55.273 98.7597L59.2238 100.19C57.2484 92.0403 58.9374 85.0269 65.1227 79.4012C65.1227 79.4012 63.6909 78.729 61.6329 77.8164C55.5265 83.5632 53.6507 90.6198 55.273 98.7597Z" fill="#01FFE3"/>
<path d="M59.2219 100.553C59.1806 100.553 59.1383 100.545 59.098 100.531L34.9653 91.7921C34.7794 91.7245 34.6818 91.5208 34.7456 91.3339L41.1956 72.4101C41.2491 72.2533 41.4078 72.1529 41.5665 72.1651C41.59 72.1669 43.9118 72.3481 48.3996 73.1734C52.908 74.0043 64.7556 78.8592 65.2579 79.0657C65.3734 79.1127 65.456 79.216 65.4776 79.339C65.4992 79.4619 65.456 79.5868 65.364 79.6704C59.4407 85.0576 57.547 91.7414 59.573 100.105C59.605 100.234 59.5618 100.371 59.4622 100.461C59.3965 100.521 59.3102 100.553 59.2219 100.553ZM35.5483 91.2306L58.7187 99.6213C56.9545 91.5855 58.883 84.8285 64.457 79.523C62.0648 78.555 52.1729 74.6061 48.2681 73.8869C44.7042 73.2316 42.5251 72.9866 41.7909 72.9143L35.5483 91.2306Z" fill="black"/>
<path d="M30.1038 71.3956C30.1038 71.3956 8.89476 70.3507 3.78638 77.64C-0.556825 83.8375 5.03131 105.42 5.05572 114.293C5.10173 131.168 3.67653 138.006 3.67653 138.006C20.7245 143.901 32.6303 143.833 50.5476 138.126C50.5476 138.126 50.1674 126.233 49.8547 112.212C49.5214 97.2577 53.7548 83.6882 48.9938 76.2439C45.4026 70.6276 30.1038 71.3956 30.1038 71.3956Z" fill="white"/>
<path d="M26.7361 142.788C19.3115 142.788 12.0719 141.309 3.5573 138.347C3.37516 138.284 3.2747 138.09 3.32728 137.905C3.34136 137.853 4.79567 132.561 4.7506 115.97C4.74309 113.125 4.13658 108.676 3.49534 103.964C2.07671 93.5469 0.469366 81.7397 3.4897 77.4303C8.65348 70.0611 29.2485 70.9887 30.1216 71.0319C30.1798 71.031 38.225 70.9953 44.0957 72.3754C44.291 72.4214 44.4121 72.6167 44.3661 72.812C44.3201 73.0073 44.123 73.1275 43.9296 73.0824C38.1442 71.722 30.1827 71.7577 30.1057 71.7577C29.8747 71.7473 9.01776 70.8047 4.08307 77.8472C1.22515 81.9247 2.88226 94.0905 4.21357 103.867C4.85857 108.603 5.4679 113.076 5.47541 115.969C5.51578 130.581 4.42575 136.391 4.10842 137.771C20.61 143.462 32.312 143.482 50.1758 137.861C50.1176 135.996 49.7749 124.915 49.4923 112.219C49.3731 106.858 49.8472 101.57 50.266 96.9034C50.6387 92.7536 50.9898 88.8328 50.8922 85.4116C50.8866 85.2116 51.0443 85.0445 51.2452 85.0389C51.4386 85.0323 51.6123 85.191 51.6179 85.391C51.7165 88.8554 51.3635 92.7967 50.9889 96.9691C50.5514 101.844 50.0989 106.884 50.2181 112.204C50.527 126.063 50.9063 137.996 50.91 138.115C50.9157 138.277 50.8115 138.424 50.6575 138.473C41.5702 141.347 34.063 142.788 26.7361 142.788Z" fill="black"/>
<path d="M21.1319 53.582C21.1319 53.582 20.4221 68.6753 17.9595 71.8909C17.9595 71.8909 29.1451 78.2958 35.6553 77.5504C39.883 77.0659 37.7677 71.9284 37.7677 71.9284C37.7677 71.9284 32.0838 68.0406 34.0207 61.8009C35.9566 55.5612 21.1319 53.582 21.1319 53.582Z" fill="white"/>
<path d="M34.5352 77.9745C27.934 77.9745 18.2148 72.4549 17.7801 72.2061C17.6891 72.1544 17.6252 72.0652 17.6046 71.9629C17.5839 71.8606 17.6083 71.7535 17.6722 71.6709C20.0381 68.5811 20.7629 53.7151 20.7704 53.5648C20.7751 53.4635 20.8221 53.3686 20.9009 53.3029C20.9789 53.2381 21.0784 53.2081 21.1817 53.2222C21.5957 53.2776 31.3637 54.6239 33.9343 58.6479C34.5803 59.6581 34.7258 60.7556 34.3681 61.9086C32.5354 67.8122 37.7508 71.4766 37.9743 71.6296C38.0325 71.67 38.0775 71.7254 38.1048 71.7911C38.1526 71.9075 39.2671 74.665 38.2024 76.4704C37.7179 77.2919 36.8758 77.7764 35.6984 77.9116C35.3229 77.9548 34.9342 77.9745 34.5352 77.9745ZM18.4815 71.7667C20.3987 72.8173 29.9253 77.8421 35.6139 77.1905C36.5519 77.0835 37.211 76.7173 37.5743 76.1033C38.3611 74.772 37.64 72.6276 37.4663 72.1591C36.7134 71.5958 31.8219 67.6573 33.6724 61.6936C33.9681 60.7406 33.8526 59.8722 33.3212 59.0384C31.206 55.728 23.3242 54.2944 21.4737 54.0005C21.345 56.3908 20.6052 68.2431 18.4815 71.7667Z" fill="black"/>
<path d="M28.3724 61.2744C31.8359 63.0197 36.0411 63.9426 39.8144 61.4556C45.3782 57.7836 44.8205 45.3502 40.8021 37.3811C38.8305 33.4745 36.028 30.6438 32.7072 30.4448C24.4743 29.9537 19.2429 34.2744 18.5575 36.8582C17.874 39.4419 20.4005 49.3939 20.4005 49.3939C20.4005 49.3939 18.8692 45.8666 16.7577 47.0186C14.6471 48.1715 16.1841 56.504 21.131 55.9059" fill="white"/>
<path d="M34.7136 63.35C32.7017 63.35 30.5291 62.7651 28.2092 61.5962C28.0298 61.5061 27.9585 61.2883 28.0486 61.109C28.1388 60.9296 28.3566 60.8583 28.5359 60.9484C32.8181 63.1059 36.5454 63.1745 39.6145 61.1503C44.921 57.6483 44.4262 45.3717 40.4783 37.5424C38.3733 33.3729 35.6056 30.9797 32.6857 30.8042C24.726 30.3291 19.5613 34.4874 18.9078 36.9491C18.2562 39.4127 20.7273 49.2041 20.7527 49.3027C20.7987 49.4858 20.6973 49.6735 20.5189 49.7355C20.3386 49.7965 20.1443 49.7102 20.0682 49.5374C20.0598 49.5186 19.2251 47.6296 18.0365 47.2231C17.6657 47.0964 17.3042 47.133 16.9324 47.3367C16.1081 47.7864 15.9504 49.8491 16.5879 51.8395C16.8958 52.799 18.1314 55.902 21.0879 55.5452C21.2916 55.5199 21.4681 55.6626 21.4916 55.8616C21.516 56.0607 21.3733 56.2409 21.1752 56.2653C18.3895 56.6043 16.6188 54.3144 15.8969 52.0611C15.2378 50.004 15.2547 47.4259 16.5841 46.7001C17.138 46.3978 17.7061 46.3424 18.2731 46.5377C18.7689 46.7077 19.2017 47.0541 19.5613 47.4447C18.8562 44.3633 17.6967 38.6954 18.2065 36.766C18.8731 34.2555 23.9664 29.5611 32.7289 30.0831C35.9182 30.2747 38.9001 32.8087 41.1261 37.2185C45.2919 45.4787 45.7134 57.9985 40.0145 61.7596C38.4034 62.8186 36.6318 63.35 34.7136 63.35Z" fill="black"/>
<path d="M48.653 34.8167C47.6832 35.61 46.4119 35.8156 45.213 35.9921C43.9746 36.1714 42.9391 35.6898 41.8594 36.6127C41.1853 37.1873 40.6942 37.9572 39.9873 38.4923C38.7789 39.4087 37.1519 39.4819 35.6347 39.5213C32.7824 39.5946 29.8175 39.6471 27.2252 38.4585C26.0995 37.944 25.0734 37.2033 23.8951 36.8315C23.1684 36.6024 22.3413 36.5395 21.6042 36.7648C20.5649 37.084 20.6513 37.422 20.947 38.3083C21.4587 39.8452 21.684 41.4789 21.777 43.0928C21.853 44.471 21.8333 45.8587 21.6944 47.2294C21.6409 47.7477 21.6681 48.8593 21.2822 49.2818C20.8841 49.7202 20.4025 49.3945 20.4025 49.3945C20.4025 49.3945 18.8684 45.8653 16.7606 47.0172C14.6491 48.173 16.186 56.5026 21.1329 55.9055C12.8221 60.3717 5.3684 44.3584 6.85932 37.8774C7.44705 35.334 8.57557 32.5023 10.8401 30.9917C11.2382 30.726 11.5077 30.7063 11.5246 30.2049C11.5546 29.2586 11.0899 28.1601 11.0467 27.1733C10.9603 25.1247 11.3358 23.0564 12.1555 21.174C12.1883 21.1007 12.2221 21.0247 12.2588 20.9515C12.7902 19.7929 13.5103 18.6869 14.5562 17.963C16.1231 16.874 18.2713 16.8176 20.0213 17.5743C21.5085 18.2184 22.7177 19.3939 23.5806 20.7712C23.8763 20.6679 24.188 20.6022 24.5006 20.5656C25.2912 20.4689 26.0911 20.5393 26.8844 20.5656C29.6672 20.6585 32.4622 20.2032 35.0685 19.2305C36.0252 18.8756 36.9773 18.4437 37.9941 18.3677C39.0137 18.2879 40.1422 18.6494 40.6501 19.5366C41.5364 21.0838 40.1422 23.3014 41.2012 24.736C41.8218 25.5791 42.9945 25.7256 44.0235 25.9284C46.0786 26.333 48.1273 27.3329 49.253 29.0989C50.3768 30.8687 50.2773 33.4919 48.653 34.8167Z" fill="black"/>
<path d="M18.2046 57.0404C16.6883 57.0404 15.1589 56.4705 13.6745 55.3382C8.63093 51.4889 5.46507 42.3218 6.50627 37.7955C7.29492 34.3836 8.68538 31.9923 10.6392 30.6892C10.7321 30.6272 10.8185 30.5775 10.8974 30.5315C11.1405 30.3916 11.1555 30.3831 11.1621 30.1916C11.1762 29.7306 11.0579 29.2142 10.933 28.6678C10.8213 28.1805 10.7058 27.6773 10.6842 27.1882C10.595 25.0729 10.9884 22.9426 11.8231 21.0282L11.8494 20.97C11.8766 20.9099 11.9038 20.848 11.9339 20.7888C12.5883 19.3608 13.3797 18.3356 14.3496 17.6643C15.9334 16.5639 18.2168 16.3977 20.1649 17.2408C21.5544 17.8427 22.7844 18.912 23.7354 20.3429C23.9636 20.28 24.2058 20.234 24.4574 20.2049C25.1137 20.1251 25.7728 20.1542 26.4103 20.1823C26.5727 20.1898 26.7342 20.1964 26.8957 20.202C29.6165 20.2931 32.3974 19.8396 34.9408 18.8895C35.1023 18.8294 35.2629 18.7674 35.4243 18.7055C36.2327 18.3938 37.0683 18.0717 37.9649 18.0051C39.2549 17.9028 40.4351 18.4332 40.9627 19.3552C41.45 20.2049 41.3383 21.1794 41.2303 22.122C41.1261 23.0327 41.0275 23.8927 41.4904 24.5199C41.9682 25.1696 42.8958 25.3442 43.7934 25.5142L44.091 25.5714C46.5556 26.0568 48.4962 27.2407 49.5562 28.9035C50.8584 30.9521 50.5561 33.7302 48.8821 35.0962C47.8061 35.9769 46.3978 36.1834 45.2655 36.3496C44.8355 36.4116 44.4431 36.4003 44.0619 36.39C43.3136 36.3684 42.7212 36.3524 42.095 36.8867C41.8058 37.1326 41.5523 37.4181 41.2838 37.7194C40.9561 38.0875 40.6182 38.4677 40.2041 38.7794C38.8615 39.7971 37.0767 39.8441 35.6422 39.8816C32.8978 39.9521 29.7874 40.0309 27.0712 38.786C26.6281 38.5832 26.199 38.3466 25.784 38.1166C25.1109 37.7448 24.4762 37.3936 23.7833 37.1749C23.0557 36.9458 22.3187 36.9223 21.7084 37.1092C21.2672 37.2444 21.1554 37.3533 21.1282 37.4059C21.0672 37.5251 21.1845 37.879 21.2887 38.1917C21.7507 39.5793 22.0276 41.1745 22.1365 43.07C22.2163 44.5159 22.1882 45.927 22.053 47.264C22.0427 47.3644 22.0361 47.4874 22.0276 47.6235C21.9891 48.2779 21.9422 49.0919 21.5479 49.5238C21.0653 50.0543 20.4532 49.8656 20.1968 49.6928C20.1405 49.6543 20.0954 49.5999 20.0673 49.537C20.0588 49.5182 19.2223 47.6264 18.0337 47.2198C17.6638 47.0931 17.3033 47.1306 16.9324 47.3334C16.1071 47.785 15.9494 49.8487 16.5888 51.84C16.8967 52.7986 18.1313 55.9006 21.0878 55.5429C21.2625 55.5222 21.4249 55.6274 21.4775 55.7936C21.53 55.9598 21.4568 56.14 21.3038 56.2226C20.2898 56.7691 19.2505 57.0404 18.2046 57.0404ZM17.5774 17.4305C16.5475 17.4305 15.5532 17.7112 14.7627 18.2605C13.9027 18.8557 13.1919 19.7852 12.5883 21.1015C12.5573 21.1634 12.5338 21.216 12.5103 21.2677L12.485 21.323C11.6973 23.1322 11.3236 25.1517 11.4081 27.1572C11.4269 27.5797 11.5348 28.051 11.6391 28.5063C11.7696 29.0734 11.9038 29.6602 11.886 30.2151C11.8663 30.8112 11.5433 30.9971 11.2579 31.1605C11.1912 31.1981 11.1189 31.2403 11.041 31.2919C9.24589 32.489 7.95776 34.732 7.2123 37.9579C6.22649 42.2429 9.39611 51.1612 14.1139 54.7608C15.9278 56.1447 17.7455 56.6095 19.5359 56.1494C17.6835 55.6311 16.4677 53.837 15.8987 52.0635C15.2387 50.0055 15.2546 47.4264 16.586 46.6988C17.138 46.3965 17.7051 46.3411 18.2722 46.5354C19.5791 46.9832 20.4569 48.661 20.6804 49.1295C20.7705 49.1624 20.8954 49.167 21.0146 49.0365C21.2352 48.7943 21.2794 48.0366 21.3056 47.5832C21.3141 47.4348 21.3225 47.3006 21.3329 47.1917C21.4653 45.8923 21.4925 44.5197 21.4146 43.1123C21.3094 41.2824 21.0437 39.7483 20.6024 38.4226C20.4316 37.91 20.2842 37.4669 20.486 37.0754C20.6738 36.712 21.1028 36.5383 21.4981 36.4172C22.2483 36.1881 23.1374 36.2116 24.004 36.4848C24.7654 36.7252 25.4629 37.111 26.1371 37.4828C26.5398 37.7053 26.9576 37.9363 27.3754 38.1278C29.9385 39.3033 32.9589 39.2263 35.6253 39.1578C36.9556 39.123 38.6109 39.0799 39.7675 38.202C40.1243 37.9326 40.4247 37.5955 40.743 37.2378C41.0162 36.9308 41.2979 36.6144 41.6246 36.3355C42.4621 35.6192 43.2864 35.6427 44.0826 35.6652C44.4328 35.6746 44.7933 35.6849 45.1604 35.6323C46.2035 35.4793 47.5019 35.2887 48.422 34.5357C48.422 34.5357 48.422 34.5357 48.423 34.5357C49.9402 33.2974 49.9176 30.8253 48.944 29.294C47.6597 27.2783 45.2646 26.5432 43.9511 26.285L43.6591 26.2286C42.6724 26.0418 41.5542 25.8306 40.9073 24.9518C40.2745 24.0955 40.3947 23.0506 40.5102 22.0413C40.6088 21.1775 40.7027 20.3616 40.3337 19.7185C39.8605 18.8933 38.7892 18.6717 38.0203 18.7308C37.2288 18.79 36.4787 19.0792 35.6844 19.3852C35.521 19.4481 35.3567 19.511 35.1934 19.5721C32.5627 20.5541 29.686 21.0235 26.8703 20.9297C26.706 20.924 26.5408 20.9165 26.3765 20.909C25.7409 20.8808 25.14 20.8536 24.5429 20.9268C24.2387 20.9625 23.9551 21.0254 23.6988 21.1146C23.5383 21.17 23.3618 21.108 23.2716 20.9644C22.3797 19.5401 21.2052 18.483 19.8757 17.9074C19.1387 17.5873 18.3482 17.4305 17.5774 17.4305Z" fill="black"/>
<path d="M33.1167 47.0807C33.6455 47.0282 34.0187 46.4259 33.9501 45.7355C33.8815 45.0452 33.3972 44.5281 32.8683 44.5806C32.3394 44.6332 31.9663 45.2354 32.0348 45.9258C32.1034 46.6162 32.5878 47.1333 33.1167 47.0807Z" fill="black"/>
<path d="M39.3573 45.694C39.8861 45.6415 40.2593 45.0392 40.1907 44.3488C40.1221 43.6584 39.6378 43.1414 39.1089 43.1939C38.58 43.2465 38.2069 43.8487 38.2754 44.5391C38.344 45.2295 38.8284 45.7466 39.3573 45.694Z" fill="black"/>
<path d="M33.7063 42.1031C33.7063 42.1031 31.975 41.2036 30.1827 43.04L33.7063 42.1031Z" fill="white"/>
<path d="M30.1837 43.4036C30.0926 43.4036 30.0006 43.3688 29.9302 43.3003C29.7866 43.1604 29.7837 42.9304 29.9236 42.7867C31.8812 40.7804 33.7936 41.7389 33.8734 41.7812C34.0509 41.8732 34.1204 42.0929 34.0284 42.2703C33.9363 42.4478 33.7185 42.5173 33.5411 42.4262C33.4772 42.3943 32.0117 41.6864 30.4428 43.2937C30.3715 43.3669 30.2776 43.4036 30.1837 43.4036Z" fill="black"/>
<path d="M40.7131 41.2515C40.7131 41.2515 38.9819 40.3521 37.1896 42.1885L40.7131 41.2515Z" fill="white"/>
<path d="M37.1896 42.5516C37.0985 42.5516 37.0065 42.5169 36.9361 42.4484C36.7924 42.3085 36.7896 42.0785 36.9295 41.9348C38.887 39.9294 40.7995 40.887 40.8802 40.9293C41.0577 41.0213 41.1272 41.241 41.0352 41.4184C40.9422 41.5959 40.7244 41.6654 40.5479 41.5743C40.4812 41.5414 39.0166 40.8354 37.4496 42.4418C37.3783 42.515 37.2834 42.5516 37.1896 42.5516Z" fill="black"/>
<path d="M36.9134 46.0508C37.4739 47.8891 38.0353 49.7264 38.5958 51.5648C38.6879 51.8671 38.7817 52.1844 38.7217 52.4952C38.6447 52.8989 38.317 53.2172 37.9452 53.3918C37.5734 53.5655 37.1584 53.619 36.751 53.6688" fill="white"/>
<path d="M36.751 54.031C36.5707 54.031 36.414 53.8968 36.3914 53.7127C36.367 53.5137 36.5078 53.3325 36.7069 53.3081C37.0815 53.2621 37.4692 53.2133 37.7922 53.0621C38.0983 52.9185 38.3189 52.6744 38.3668 52.4256C38.4109 52.1955 38.3255 51.9158 38.2494 51.6698L36.567 46.1558C36.5088 45.9643 36.6158 45.7615 36.8083 45.7033C37.0007 45.6451 37.2026 45.753 37.2608 45.9446L38.9433 51.4585C39.039 51.7693 39.1564 52.1561 39.0794 52.5626C38.9874 53.0433 38.6212 53.4762 38.0992 53.7203C37.672 53.9202 37.2064 53.9784 36.7961 54.0291C36.7801 54.031 36.7651 54.031 36.751 54.031Z" fill="black"/>
<path d="M33.6189 56.4883C34.8713 57.2835 36.4646 57.522 37.8954 57.1276L33.6189 56.4883Z" fill="white"/>
<path d="M36.5031 57.6751C35.4206 57.6751 34.3362 57.3728 33.4237 56.7935C33.2547 56.6865 33.204 56.4621 33.3119 56.2931C33.4199 56.1241 33.6443 56.0744 33.8133 56.1814C34.9784 56.9212 36.4684 57.1437 37.7988 56.7776C37.9903 56.7241 38.1912 56.8377 38.2447 57.0311C38.2983 57.2245 38.1847 57.4245 37.9912 57.477C37.5077 57.6094 37.0064 57.6751 36.5031 57.6751Z" fill="black"/>
<path d="M16.3889 107.697C16.3889 107.697 21.7799 107.707 26.0564 101.98C30.5902 95.9089 30.9029 89.2721 29.4842 87.7511C26.477 84.5298 19.7501 90.8343 19.275 91.47C18.8009 92.1056 15.0473 94.4734 15.0369 94.7673C15.0266 95.0611 14.1779 99.579 14.1957 99.7442C14.2136 99.9104 16.3889 107.697 16.3889 107.697Z" fill="black"/>
<path d="M16.3898 108.058C16.2396 108.065 16.0828 107.95 16.0387 107.794C15.0425 104.228 13.8521 99.9437 13.8352 99.7831C13.823 99.6704 13.8586 99.4301 14.2661 97.144C14.4435 96.1469 14.6642 94.9057 14.6745 94.7517C14.6848 94.4635 14.897 94.2804 16.7372 92.9754C17.5981 92.3651 18.7783 91.5286 18.9839 91.2526C19.2562 90.8873 23.5393 86.6765 27.0497 86.4831C28.1585 86.424 29.0598 86.7657 29.749 87.5027C31.4427 89.3176 30.7601 96.2858 26.3465 102.196C22.024 107.983 16.6471 108.058 16.3898 108.058ZM14.56 99.7211C14.6482 100.091 15.8274 104.336 16.6593 107.317C17.785 107.221 22.1939 106.542 25.7654 101.76C30.1893 95.8371 30.5198 89.3917 29.2176 87.9966C28.6758 87.4154 27.9783 87.1582 27.0892 87.206C24.066 87.3732 19.9462 91.1737 19.5651 91.6854C19.3097 92.0271 18.4459 92.6524 17.1569 93.5659C16.494 94.0354 15.6021 94.6682 15.388 94.8869C15.3524 95.1686 15.2237 95.8971 14.9796 97.2698C14.8041 98.2603 14.5863 99.4817 14.56 99.7211Z" fill="black"/>
<path d="M93.0672 94.1994C91.7227 96.9719 79.5973 101.175 79.5973 101.175C79.5973 101.175 55.443 122.181 42.9795 121.079C30.5189 119.977 10.0863 99.903 10.0863 99.903L20.5979 83.8831L46.0074 103.306L74.0861 87.755C74.0861 87.755 78.0106 77.2867 80.6835 78.771C83.2767 80.2122 81.4703 83.3527 81.3605 83.5423C81.659 83.2306 91.8157 72.5961 93.1038 74.7639C94.3919 76.9318 87.3833 84.499 87.1805 84.7178C87.3861 84.5357 90.6862 84.6183 90.2149 87.5663C90.2149 87.5663 93.6709 88.5625 91.5068 91.5368C91.5068 91.5368 94.2624 91.7386 93.0672 94.1994Z" fill="white"/>
<path d="M43.9616 121.483C43.6161 121.483 43.2781 121.469 42.9467 121.44C30.4992 120.339 10.6703 100.985 9.83192 100.162C9.70893 100.041 9.68827 99.848 9.7831 99.7035L20.2947 83.6836C20.3501 83.5991 20.4374 83.5418 20.5369 83.5249C20.6364 83.508 20.7387 83.5333 20.8185 83.5944L46.0394 102.873L73.7942 87.501C74.2082 86.4222 77.0229 79.3028 79.5485 78.3733C80.0151 78.2015 80.4564 78.2287 80.8591 78.4522C81.6224 78.8766 82.1163 79.4756 82.3247 80.2332C82.4928 80.8416 82.4524 81.4697 82.3313 82.0255C85.0437 79.2897 90.6666 73.8865 92.6842 74.1165C93.0053 74.1531 93.2588 74.3127 93.4156 74.5775C94.6107 76.5885 90.1511 81.9542 88.0218 84.3314C88.4433 84.3886 88.9109 84.5229 89.2977 84.736C90.2469 85.2571 90.706 86.1678 90.6102 87.3226C91.1172 87.5273 92.1265 88.0465 92.4682 89.0417C92.7011 89.7205 92.58 90.4716 92.1077 91.2818C92.5678 91.4076 93.1865 91.6761 93.5132 92.2432C93.8399 92.8112 93.7996 93.5229 93.394 94.3585C92.0382 97.1544 80.8563 101.12 79.7832 101.496C78.251 102.82 56.4711 121.482 43.9616 121.483ZM10.5539 99.8509C12.764 101.978 31.4972 119.699 43.0106 120.717C43.3185 120.744 43.6349 120.758 43.9579 120.758C56.3772 120.759 79.1241 101.104 79.3588 100.901C79.3936 100.87 79.4339 100.847 79.4781 100.832C82.8111 99.6762 91.6909 96.2034 92.7405 94.0412C93.0353 93.4346 93.0832 92.9511 92.8832 92.6047C92.5302 91.9925 91.4899 91.8996 91.4796 91.8986C91.3482 91.8893 91.2327 91.8085 91.1773 91.6893C91.1219 91.57 91.135 91.4292 91.213 91.3231C91.7857 90.5364 91.9772 89.8491 91.7819 89.2792C91.4543 88.3169 90.1267 87.9188 90.1126 87.915C89.9371 87.8634 89.8263 87.6897 89.8554 87.5094C89.9859 86.6926 89.8047 86.0598 89.3174 85.6308C88.6471 85.0402 87.5936 84.9839 87.3533 85.0365C87.2134 85.1135 87.0359 85.0909 86.9195 84.9726C86.7843 84.8346 86.7806 84.6149 86.912 84.4722C89.7361 81.4143 93.6277 76.3604 92.7893 74.9493C92.7555 74.892 92.7095 74.8516 92.5987 74.8394C92.5725 74.8366 92.5452 74.8347 92.5161 74.8347C90.9191 74.8347 85.7873 79.4371 81.6253 83.7878C81.4985 83.9201 81.2901 83.9399 81.1427 83.83C80.9962 83.7202 80.9521 83.5193 81.0441 83.3606C81.1399 83.1944 81.9745 81.6988 81.6234 80.4276C81.4656 79.8567 81.1004 79.4192 80.5052 79.0878C80.2883 78.9676 80.0639 78.9573 79.7973 79.0549C77.8341 79.7769 75.2532 85.6721 74.4241 87.8822C74.3941 87.9629 74.3359 88.0305 74.2598 88.0718L46.1811 103.623C46.0553 103.693 45.8995 103.681 45.7849 103.594L20.6852 84.4084L10.5539 99.8509ZM87.4209 84.9876C87.4199 84.9876 87.4199 84.9886 87.419 84.9886C87.4199 84.9886 87.4209 84.9876 87.4209 84.9876Z" fill="black"/>
<path d="M88.2865 93.6117C88.156 93.6117 88.0311 93.5423 87.9654 93.4193C87.8715 93.2428 87.9381 93.0231 88.1156 92.9282L91.3359 91.2148C91.5124 91.12 91.733 91.1876 91.8269 91.365C91.9208 91.5415 91.8542 91.7612 91.6767 91.8561L88.4564 93.5695C88.4019 93.5986 88.3437 93.6117 88.2865 93.6117Z" fill="black"/>
<path d="M4.18168 76.9844C4.18168 76.9844 0.589571 81.4393 1.88802 88.2527C3.69441 97.7249 16.3879 107.698 16.3879 107.698C16.3879 107.698 15.3429 91.7838 29.4823 87.7513L17.5127 78.5701" fill="white"/>
<path d="M14.2633 105.505V105.508C16.5748 107.604 16.3889 107.696 16.3889 107.696C16.3889 107.696 15.342 91.7799 29.4823 87.7493L26.9427 85.6406C14.6867 89.4271 13.7704 101.904 14.2633 105.505Z" fill="#01FFE3"/>
<path d="M16.388 108.06C16.3082 108.06 16.2293 108.033 16.1636 107.982C15.6406 107.572 3.34241 97.8167 1.53134 88.32C0.215982 81.4212 3.748 76.9428 3.89822 76.756C4.02403 76.6002 4.25124 76.5757 4.40803 76.7016C4.56388 76.8274 4.58829 77.0555 4.46342 77.2114C4.42868 77.2546 0.993364 81.6287 2.24394 88.1849C3.77992 96.2403 13.485 104.807 16.0124 106.92C16.0387 103.663 16.9363 91.4108 28.7022 87.6093L17.293 78.8572C17.1344 78.7351 17.1034 78.507 17.2264 78.3483C17.3475 78.1897 17.5756 78.1596 17.7353 78.2817L29.7039 87.4629C29.8128 87.5464 29.8654 87.6844 29.8401 87.8187C29.8138 87.9529 29.7152 88.0619 29.5828 88.0994C15.8951 92.0032 16.7401 107.516 16.7504 107.673C16.7598 107.816 16.6837 107.951 16.557 108.017C16.5044 108.046 16.4462 108.06 16.388 108.06Z" fill="black"/>
<path d="M85.6586 90.5616C85.5328 90.5616 85.4117 90.4968 85.3441 90.3804C85.2436 90.2067 85.3037 89.9851 85.4774 89.8846L90.0338 87.2521C90.2065 87.1516 90.429 87.2107 90.5295 87.3844C90.6299 87.5581 90.5698 87.7797 90.3962 87.8802L85.8398 90.5127C85.7826 90.5456 85.7196 90.5616 85.6586 90.5616Z" fill="black"/>
<path d="M83.1997 87.1299C83.0682 87.1299 82.9405 87.0576 82.8767 86.9327C82.7856 86.7543 82.8551 86.5356 83.0335 86.4445L87.0143 84.3959C87.1936 84.3039 87.4114 84.3743 87.5034 84.5527C87.5945 84.7311 87.525 84.9498 87.3466 85.0409L83.3658 87.0895C83.3123 87.1167 83.256 87.1299 83.1997 87.1299Z" fill="black"/>
<path d="M38.3386 37.4956C38.0607 37.4956 37.7828 37.4702 37.5087 37.4195C36.8083 37.2899 36.2553 36.9961 35.9116 36.5708C35.7858 36.4149 35.8093 36.1868 35.9652 36.061C36.121 35.9352 36.3492 35.9596 36.475 36.1154C36.7707 36.4806 37.2721 36.6393 37.6401 36.7069C38.4682 36.8599 39.3366 36.736 40.0877 36.3576C40.8388 35.9802 41.4575 35.3559 41.8274 34.601C41.8772 34.4996 41.9242 34.3945 41.9702 34.2893C42.1448 33.8969 42.342 33.4528 42.7297 33.1448C43.3888 32.621 44.2676 32.7139 45.0412 32.8735C45.6862 33.0068 46.3462 33.143 46.8307 32.8669C47.3574 32.5665 47.5095 31.8492 47.4278 31.3094C47.3264 30.6428 46.9508 30.0316 46.5875 29.4401C46.4824 29.2692 46.5359 29.0457 46.7067 28.9406C46.8767 28.8354 47.1011 28.889 47.2053 29.0598C47.5883 29.6823 48.0221 30.3883 48.1451 31.2004C48.2662 32.0032 48.0183 33.0247 47.1903 33.4969C46.4673 33.9081 45.6355 33.7373 44.9022 33.5852C44.2854 33.4584 43.6057 33.3758 43.1813 33.7129C42.9334 33.91 42.7879 34.2377 42.6339 34.5841C42.5832 34.6977 42.5325 34.8113 42.479 34.9212C42.0396 35.8169 41.3054 36.5567 40.4135 37.0055C39.7723 37.3284 39.0559 37.4956 38.3386 37.4956Z" fill="white"/>
<path d="M39.1499 24.0517C39.1433 24.0517 39.1368 24.0517 39.1311 24.0517C38.9312 24.0413 38.7772 23.8704 38.7875 23.6705C38.8354 22.7494 38.8335 21.7195 38.2176 21.1571C37.7801 20.7581 37.0459 20.6445 36.2526 20.8548C35.7869 20.9778 35.3484 21.1825 34.8837 21.3984C34.6124 21.5252 34.3307 21.6557 34.0434 21.7693C32.6896 22.3044 31.1555 22.4537 29.7227 22.1918C29.5256 22.1561 29.3951 21.9664 29.4317 21.7693C29.4674 21.5721 29.6561 21.4416 29.8542 21.4782C31.1536 21.7167 32.5469 21.5806 33.7768 21.0952C34.0443 20.9891 34.3157 20.8633 34.5776 20.7412C35.0499 20.5215 35.54 20.2934 36.0667 20.1544C37.0985 19.8803 38.0862 20.0558 38.7068 20.622C39.5564 21.3975 39.5677 22.6218 39.5123 23.709C39.502 23.9005 39.3414 24.0517 39.1499 24.0517Z" fill="white"/>
<path d="M14.4877 28.5371C14.3431 28.5371 14.207 28.4507 14.1507 28.308C13.2221 25.9721 13.4033 23.2701 14.637 21.0797C15.0933 20.2685 15.6087 19.6789 16.2124 19.2771C16.9757 18.7672 17.862 18.5964 18.645 18.8067C19.2393 18.9663 19.7191 19.3231 20.1829 19.6686C20.2956 19.7521 20.4073 19.8357 20.5209 19.9155C21.6945 20.7436 23.0718 21.2327 24.5045 21.3285C24.7045 21.3416 24.8556 21.5153 24.8425 21.7144C24.8284 21.9143 24.6651 22.0646 24.4557 22.0523C22.8897 21.9472 21.3847 21.413 20.1022 20.5079C19.9839 20.4244 19.8665 20.337 19.7491 20.2497C19.321 19.9314 18.9173 19.631 18.4563 19.5071C17.8846 19.3531 17.1954 19.493 16.6152 19.8807C16.1092 20.2178 15.6698 20.7267 15.2698 21.4355C14.1601 23.4071 13.9901 25.9374 14.8257 28.0395C14.8999 28.2254 14.8088 28.4366 14.622 28.5108C14.5779 28.5287 14.5328 28.5371 14.4877 28.5371Z" fill="white"/>
<path d="M10.2037 47.8891C10.0732 47.8891 9.94828 47.8187 9.88256 47.6957C7.65651 43.4961 7.70063 38.093 9.99335 33.93C10.0901 33.7544 10.3107 33.6906 10.4863 33.7873C10.6618 33.884 10.7257 34.1046 10.629 34.2802C8.45079 38.2347 8.40948 43.3666 10.5238 47.3558C10.6177 47.5333 10.5501 47.753 10.3736 47.8459C10.3191 47.875 10.2609 47.8891 10.2037 47.8891Z" fill="white"/>
<path d="M19.3529 39.3276C19.2195 39.3276 19.0909 39.2534 19.028 39.1257C18.6177 38.2995 18.153 37.3634 18.0572 36.3466C17.9446 35.1646 18.4131 34.0558 19.2496 33.5225C20.2166 32.9066 21.4353 33.1188 22.3901 33.3732C23.4416 33.653 24.4885 34.0145 25.5015 34.3638C27.5567 35.0726 29.6804 35.8059 31.8483 35.8443C32.4923 35.8556 32.8998 35.7401 33.1026 35.4782C33.2246 35.3195 33.4537 35.2904 33.6115 35.4134C33.7701 35.5364 33.7992 35.7645 33.6762 35.9223C33.2096 36.5241 32.4003 36.5814 31.8351 36.5692C29.5527 36.5278 27.3727 35.7758 25.2649 35.0491C24.2641 34.7036 23.2295 34.3469 22.2033 34.0736C21.3921 33.8577 20.3678 33.669 19.6392 34.1337C18.8985 34.606 18.7126 35.5843 18.7783 36.2772C18.8618 37.1606 19.2768 37.9953 19.6768 38.8027C19.766 38.982 19.6927 39.1999 19.5134 39.2891C19.4618 39.3153 19.4073 39.3276 19.3529 39.3276Z" fill="white"/>
<path d="M181.903 30.4164C179.764 38.2241 171.298 41.3298 166.793 43.4817C164.478 44.5849 157.82 48.4474 157.82 48.4474C157.82 48.4474 152.741 42.6593 150.904 40.8745C147.318 37.395 140.293 31.7468 140.762 23.666C141.225 15.5842 147.07 1.42702 147.07 1.42702L165.71 0.363281L183.029 7.32686C183.028 7.32686 184.042 22.6088 181.903 30.4164Z" fill="white"/>
<path d="M157.82 48.8094C157.719 48.8094 157.618 48.7672 157.547 48.6855C157.496 48.6273 152.456 42.888 150.651 41.1342C150.29 40.785 149.895 40.4132 149.476 40.0188C145.69 36.4586 139.968 31.0799 140.399 23.644C140.861 15.5942 146.676 1.42949 146.734 1.28772C146.787 1.15909 146.909 1.07178 147.049 1.06427L165.69 0.000528096C165.741 -0.00228851 165.796 0.00616171 165.845 0.0258779L183.164 6.98946C183.293 7.0411 183.382 7.16315 183.391 7.3021C183.401 7.45514 184.384 22.7352 182.254 30.5119C180.288 37.6886 173.153 40.9577 168.431 43.1218C167.903 43.3631 167.407 43.5912 166.949 43.809C164.674 44.8934 158.069 48.7221 158.002 48.7606C157.945 48.7935 157.882 48.8094 157.82 48.8094ZM147.319 1.77499C146.595 3.56635 141.547 16.2908 141.123 23.6853C140.712 30.7822 146.285 36.0221 149.973 39.4893C150.394 39.8865 150.793 40.2611 151.157 40.6131C152.799 42.2092 156.931 46.8867 157.896 47.9832C159.16 47.2528 164.567 44.1405 166.637 43.1537C167.097 42.934 167.597 42.7049 168.129 42.4618C172.727 40.3549 179.677 37.1703 181.554 30.3203C183.511 23.1755 182.794 9.50563 182.68 7.57719L165.65 0.729089L147.319 1.77499Z" fill="black"/>
<path d="M158.651 43.3781C156.995 41.5238 154.825 39.1306 153.68 38.0181C153.302 37.651 152.89 37.2632 152.453 36.8529C149.065 33.6673 144.424 29.3044 144.738 23.8956C145.031 18.7938 147.982 10.1299 149.839 5.25814L165.049 4.39062L179.18 10.0727C179.383 15.2824 179.412 24.4364 178.063 29.3636C176.633 34.5837 170.846 37.235 166.62 39.171C166.071 39.4226 165.552 39.6601 165.077 39.8873C163.634 40.5755 160.813 42.15 158.651 43.3781Z" fill="#0166FF"/>
<path d="M106.524 126.154L106.451 128.08C106.45 128.118 106.47 128.142 106.512 128.155C106.714 128.189 106.91 128.21 107.102 128.217C107.534 128.234 107.865 128.153 108.096 127.975C108.333 127.792 108.458 127.524 108.471 127.173C108.498 126.464 108.069 126.092 107.185 126.059C106.993 126.051 106.795 126.057 106.591 126.076C106.548 126.085 106.526 126.111 106.524 126.154ZM105.681 131.053C105.559 131.049 105.454 130.999 105.367 130.905C105.285 130.811 105.246 130.703 105.251 130.58L105.437 125.696C105.442 125.568 105.489 125.455 105.578 125.357C105.667 125.259 105.776 125.207 105.904 125.201C106.359 125.176 106.797 125.171 107.218 125.187C108.017 125.218 108.611 125.401 108.998 125.736C109.386 126.065 109.568 126.531 109.545 127.133C109.52 127.8 109.306 128.296 108.904 128.622C108.507 128.949 107.931 129.097 107.174 129.069C106.998 129.062 106.767 129.042 106.48 129.01C106.437 129.008 106.415 129.029 106.413 129.072L106.354 130.622C106.35 130.745 106.3 130.85 106.206 130.937C106.112 131.024 106.004 131.065 105.881 131.061L105.681 131.053ZM114.57 129.31C114.515 130.749 113.768 131.441 112.329 131.386C110.89 131.332 110.198 130.585 110.253 129.146L110.378 125.844C110.383 125.722 110.432 125.617 110.527 125.53C110.621 125.442 110.729 125.401 110.851 125.406L111.075 125.414C111.198 125.419 111.303 125.468 111.39 125.563C111.477 125.657 111.518 125.765 111.514 125.887L111.385 129.253C111.37 129.669 111.441 129.973 111.599 130.166C111.762 130.354 112.023 130.454 112.38 130.468C112.737 130.481 113.002 130.401 113.174 130.226C113.351 130.046 113.448 129.748 113.464 129.332L113.592 125.967C113.597 125.844 113.646 125.739 113.74 125.652C113.834 125.565 113.943 125.524 114.065 125.528L114.257 125.536C114.38 125.54 114.484 125.59 114.572 125.684C114.659 125.778 114.7 125.886 114.695 126.009L114.57 129.31ZM116.119 131.451C115.996 131.446 115.892 131.397 115.804 131.303C115.723 131.209 115.684 131.101 115.689 130.978L115.876 126.054C115.881 125.931 115.928 125.826 116.016 125.739C116.11 125.652 116.219 125.61 116.341 125.615L116.597 125.625C116.72 125.629 116.825 125.679 116.912 125.773C116.999 125.867 117.04 125.975 117.036 126.098L116.869 130.479C116.867 130.527 116.887 130.551 116.93 130.553L118.984 130.631C119.107 130.636 119.209 130.685 119.291 130.779C119.378 130.868 119.42 130.973 119.415 131.096L119.414 131.12C119.409 131.243 119.36 131.347 119.266 131.435C119.177 131.522 119.072 131.563 118.949 131.559L116.119 131.451ZM120.905 131.633C120.782 131.628 120.677 131.579 120.59 131.485C120.508 131.391 120.47 131.283 120.474 131.16L120.662 126.236C120.667 126.113 120.713 126.008 120.802 125.921C120.896 125.834 121.004 125.793 121.127 125.797L121.383 125.807C121.505 125.812 121.61 125.861 121.697 125.955C121.785 126.049 121.826 126.158 121.821 126.28L121.654 130.661C121.652 130.709 121.673 130.734 121.715 130.735L123.77 130.814C123.892 130.818 123.995 130.868 124.077 130.961C124.164 131.05 124.205 131.156 124.201 131.278L124.2 131.302C124.195 131.425 124.146 131.53 124.052 131.617C123.963 131.704 123.857 131.746 123.735 131.741L120.905 131.633Z" fill="#091229"/>
<path d="M131.034 130.637L131.197 126.353C131.201 126.238 131.16 126.126 131.082 126.042C131.004 125.958 130.895 125.908 130.78 125.904C130.666 125.899 130.554 125.941 130.469 126.019C130.385 126.097 130.335 126.205 130.331 126.32L130.168 130.604L128.636 128.951L128.636 128.951L128.635 128.95C128.556 128.868 128.448 128.82 128.335 128.817C128.221 128.814 128.111 128.855 128.028 128.932C127.944 129.009 127.895 129.116 127.889 129.23C127.884 129.343 127.923 129.454 127.999 129.539L127.999 129.539L128 129.54L130.243 131.961L130.243 131.961C130.321 132.045 130.43 132.095 130.545 132.099C130.659 132.104 130.771 132.062 130.856 131.984L130.856 131.984L133.276 129.741L133.276 129.741L133.277 129.74C133.359 129.661 133.407 129.554 133.41 129.44C133.414 129.326 133.372 129.216 133.295 129.133C133.218 129.049 133.111 129 132.997 128.994C132.884 128.989 132.773 129.029 132.688 129.104L132.688 129.104L132.687 129.105L131.034 130.637Z" fill="#091229" stroke="#091229" stroke-width="0.2"/>
<path d="M172.24 22.797C173.04 17.3415 169.252 12.2517 163.797 11.4514C158.341 10.6511 153.252 14.4386 152.451 19.8941C151.651 25.3496 155.439 30.4393 160.894 31.2396C166.35 32.0399 171.439 28.2524 172.24 22.797ZM153.44 20.0391C154.16 15.1284 158.741 11.7196 163.652 12.44C168.563 13.1604 171.971 17.7412 171.251 22.6519C170.531 27.5627 165.95 30.9714 161.039 30.251C156.128 29.5307 152.72 24.9499 153.44 20.0391Z" fill="white"/>
<path d="M162.015 26.0446L165.203 23.6723C165.425 23.507 165.47 23.1963 165.305 22.9742C165.14 22.7521 164.829 22.7065 164.607 22.8718L162.386 24.5245L163.472 17.1201C163.512 16.8457 163.323 16.5912 163.049 16.551C162.774 16.5107 162.52 16.7001 162.48 16.9745L161.394 24.3749L159.741 22.1539C159.576 21.9318 159.265 21.8862 159.043 22.0515C158.821 22.2168 158.776 22.5275 158.941 22.7496L161.313 25.9376C161.396 26.0487 161.514 26.1154 161.643 26.1344C161.772 26.1533 161.904 26.1273 162.015 26.0446Z" fill="white"/>
</svg>
