<svg width="48" height="48" viewBox="0 0 48 48" fill="none" xmlns="http://www.w3.org/2000/svg">
<rect x="0.5" y="0.5" width="47" height="47" rx="14.5" stroke="url(#paint0_linear_2609_11254)"/>
<path d="M26.5 21.25H14C13.59 21.25 13.25 20.91 13.25 20.5C13.25 20.09 13.59 19.75 14 19.75H26.5C26.91 19.75 27.25 20.09 27.25 20.5C27.25 20.91 26.91 21.25 26.5 21.25ZM20 29.25H18C17.59 29.25 17.25 28.91 17.25 28.5C17.25 28.09 17.59 27.75 18 27.75H20C20.41 27.75 20.75 28.09 20.75 28.5C20.75 28.91 20.41 29.25 20 29.25ZM26.5 29.25H22.5C22.09 29.25 21.75 28.91 21.75 28.5C21.75 28.09 22.09 27.75 22.5 27.75H26.5C26.91 27.75 27.25 28.09 27.25 28.5C27.25 28.91 26.91 29.25 26.5 29.25Z" fill="white"/>
<path d="M29.56 33.25H18.44C14.46 33.25 13.25 32.05 13.25 28.11V19.89C13.25 15.95 14.46 14.75 18.44 14.75H26.5C26.91 14.75 27.25 15.09 27.25 15.5C27.25 15.91 26.91 16.25 26.5 16.25H18.44C15.3 16.25 14.75 16.79 14.75 19.89V28.1C14.75 31.2 15.3 31.74 18.44 31.74H29.55C32.69 31.74 33.24 31.2 33.24 28.1V26.02C33.24 25.61 33.58 25.27 33.99 25.27C34.4 25.27 34.74 25.61 34.74 26.02V28.1C34.75 32.05 33.54 33.25 29.56 33.25Z" fill="white"/>
<path d="M32 22.25C31.8013 22.2492 31.611 22.1699 31.4705 22.0295C31.3301 21.889 31.2508 21.6987 31.25 21.5V15.5C31.25 15.09 31.59 14.75 32 14.75C32.41 14.75 32.75 15.09 32.75 15.5V19.69L33.47 18.97C33.76 18.68 34.24 18.68 34.53 18.97C34.82 19.26 34.82 19.74 34.53 20.03L32.53 22.03C32.3895 22.1707 32.1988 22.2498 32 22.25Z" fill="white"/>
<path d="M31.9999 22.2499C31.8099 22.2499 31.6199 22.1799 31.4699 22.0299L29.4699 20.0299C29.1799 19.7399 29.1799 19.2599 29.4699 18.9699C29.7599 18.6799 30.2399 18.6799 30.5299 18.9699L32.5299 20.9699C32.8199 21.2599 32.8199 21.7399 32.5299 22.0299C32.3799 22.1799 32.1899 22.2499 31.9999 22.2499Z" fill="white"/>
<defs>
<linearGradient id="paint0_linear_2609_11254" x1="24" y1="0" x2="24" y2="48" gradientUnits="userSpaceOnUse">
<stop stop-color="#2F2F2F"/>
<stop offset="0.5" stop-color="#191919"/>
<stop offset="1" stop-color="#151515"/>
</linearGradient>
</defs>
</svg>
