<svg width="50" height="50" viewBox="0 0 50 50" fill="none" xmlns="http://www.w3.org/2000/svg">
<path d="M16 0.5C7.43959 0.5 0.5 7.43959 0.5 16V34C0.5 42.5604 7.43959 49.5 16 49.5H34C42.5604 49.5 49.5 42.5604 49.5 34V16C49.5 7.43959 42.5604 0.5 34 0.5H16Z" fill="white"/>
<path d="M16 0.5C7.43959 0.5 0.5 7.43959 0.5 16V34C0.5 42.5604 7.43959 49.5 16 49.5H34C42.5604 49.5 49.5 42.5604 49.5 34V16C49.5 7.43959 42.5604 0.5 34 0.5H16Z" stroke="#E8E8E8"/>
<path d="M27.5 22.25H15C14.59 22.25 14.25 21.91 14.25 21.5C14.25 21.09 14.59 20.75 15 20.75H27.5C27.91 20.75 28.25 21.09 28.25 21.5C28.25 21.91 27.91 22.25 27.5 22.25ZM21 30.25H19C18.59 30.25 18.25 29.91 18.25 29.5C18.25 29.09 18.59 28.75 19 28.75H21C21.41 28.75 21.75 29.09 21.75 29.5C21.75 29.91 21.41 30.25 21 30.25ZM27.5 30.25H23.5C23.09 30.25 22.75 29.91 22.75 29.5C22.75 29.09 23.09 28.75 23.5 28.75H27.5C27.91 28.75 28.25 29.09 28.25 29.5C28.25 29.91 27.91 30.25 27.5 30.25Z" fill="#091229"/>
<path d="M30.56 34.25H19.44C15.46 34.25 14.25 33.05 14.25 29.11V20.89C14.25 16.95 15.46 15.75 19.44 15.75H27.5C27.91 15.75 28.25 16.09 28.25 16.5C28.25 16.91 27.91 17.25 27.5 17.25H19.44C16.3 17.25 15.75 17.79 15.75 20.89V29.1C15.75 32.2 16.3 32.74 19.44 32.74H30.55C33.69 32.74 34.24 32.2 34.24 29.1V27.02C34.24 26.61 34.58 26.27 34.99 26.27C35.4 26.27 35.74 26.61 35.74 27.02V29.1C35.75 33.05 34.54 34.25 30.56 34.25Z" fill="#091229"/>
<path d="M33 23.25C32.8013 23.2492 32.611 23.1699 32.4705 23.0295C32.3301 22.889 32.2508 22.6987 32.25 22.5V16.5C32.25 16.09 32.59 15.75 33 15.75C33.41 15.75 33.75 16.09 33.75 16.5V20.69L34.47 19.97C34.76 19.68 35.24 19.68 35.53 19.97C35.82 20.26 35.82 20.74 35.53 21.03L33.53 23.03C33.3895 23.1707 33.1988 23.2498 33 23.25Z" fill="#091229"/>
<path d="M33.0004 23.2504C32.8104 23.2504 32.6204 23.1804 32.4704 23.0304L30.4704 21.0304C30.1804 20.7404 30.1804 20.2604 30.4704 19.9704C30.7604 19.6804 31.2404 19.6804 31.5304 19.9704L33.5304 21.9704C33.8204 22.2604 33.8204 22.7404 33.5304 23.0304C33.3804 23.1804 33.1904 23.2504 33.0004 23.2504Z" fill="#091229"/>
</svg>
