<svg width="62" height="62" viewBox="0 0 62 62" fill="none" xmlns="http://www.w3.org/2000/svg">
<circle cx="31" cy="31" r="30" stroke="url(#paint0_linear_3491_6824)"/>
<g clip-path="url(#clip0_3491_6824)">
<path d="M31.0012 21C32.3277 21.0044 33.6402 21.2718 34.8626 21.7867C36.0851 22.3017 37.1934 23.0539 38.1232 24H35.0012C34.736 24 34.4816 24.1054 34.2941 24.2929C34.1065 24.4805 34.0012 24.7348 34.0012 25C34.0012 25.2652 34.1065 25.5196 34.2941 25.7071C34.4816 25.8947 34.736 26 35.0012 26H39.1442C39.6366 25.9998 40.1088 25.804 40.457 25.4558C40.8052 25.1076 41.0009 24.6355 41.0012 24.143V20C41.0012 19.7348 40.8958 19.4805 40.7083 19.2929C40.5208 19.1054 40.2664 19 40.0012 19C39.736 19 39.4816 19.1054 39.2941 19.2929C39.1065 19.4805 39.0012 19.7348 39.0012 20V22.078C37.3483 20.5895 35.3138 19.5904 33.1253 19.1928C30.9368 18.7951 28.6808 19.0145 26.61 19.8265C24.5391 20.6384 22.7352 22.0108 21.4002 23.79C20.0652 25.5691 19.2518 27.6848 19.0512 29.9C19.0383 30.0393 19.0545 30.1797 19.0988 30.3123C19.1432 30.445 19.2147 30.5669 19.3088 30.6704C19.4028 30.7739 19.5174 30.8567 19.6453 30.9134C19.7731 30.9702 19.9113 30.9997 20.0512 31C20.2958 31.0031 20.5327 30.9149 20.7156 30.7525C20.8986 30.5901 21.0143 30.3653 21.0402 30.122C21.2628 27.6328 22.4082 25.3167 24.2513 23.6289C26.0944 21.941 28.502 21.0033 31.0012 21Z" fill="#091229"/>
<path d="M41.951 31.0003C41.7064 30.9972 41.4695 31.0855 41.2865 31.2479C41.1036 31.4103 40.9879 31.6351 40.962 31.8783C40.7967 33.7816 40.0889 35.5974 38.9227 37.1105C37.7564 38.6236 36.1806 39.7704 34.3821 40.4149C32.5837 41.0594 30.6382 41.1744 28.7764 40.7464C26.9145 40.3185 25.2145 39.3654 23.878 38.0003H27C27.2652 38.0003 27.5196 37.895 27.7071 37.7074C27.8946 37.5199 28 37.2656 28 37.0003C28 36.7351 27.8946 36.4808 27.7071 36.2932C27.5196 36.1057 27.2652 36.0003 27 36.0003H22.857C22.6131 36.0002 22.3716 36.0481 22.1462 36.1414C21.9208 36.2347 21.7161 36.3715 21.5436 36.5439C21.3711 36.7164 21.2344 36.9212 21.1411 37.1465C21.0478 37.3719 20.9999 37.6134 21 37.8573V42.0004C21 42.2656 21.1054 42.5199 21.2929 42.7075C21.4804 42.895 21.7348 43.0004 22 43.0004C22.2652 43.0004 22.5196 42.895 22.7071 42.7075C22.8946 42.5199 23 42.2656 23 42.0004V39.9223C24.6528 41.4109 26.6874 42.4099 28.8759 42.8076C31.0644 43.2053 33.3204 42.9858 35.3912 42.1739C37.4621 41.362 39.266 39.9896 40.601 38.2104C41.936 36.4313 42.7494 34.3156 42.95 32.1003C42.9629 31.9611 42.9467 31.8206 42.9023 31.688C42.858 31.5554 42.7865 31.4334 42.6924 31.3299C42.5983 31.2265 42.4837 31.1437 42.3559 31.087C42.2281 31.0302 42.0899 31.0007 41.95 31.0003H41.951Z" fill="#091229"/>
</g>
<defs>
<linearGradient id="paint0_linear_3491_6824" x1="9.18182" y1="7.81818" x2="50.0909" y2="52.1364" gradientUnits="userSpaceOnUse">
<stop stop-color="#FFD600"/>
<stop offset="0.24" stop-color="#FF423E"/>
<stop offset="0.5" stop-color="#0166FF"/>
<stop offset="0.73" stop-color="#8904F9"/>
<stop offset="1" stop-color="#01FFE3"/>
</linearGradient>
<clipPath id="clip0_3491_6824">
<rect width="24" height="24" fill="white" transform="translate(19 19)"/>
</clipPath>
</defs>
</svg>
