<svg width="62" height="62" viewBox="0 0 62 62" fill="none" xmlns="http://www.w3.org/2000/svg">
<circle cx="31" cy="31" r="30" stroke="url(#paint0_linear_3456_12675)"/>
<g clip-path="url(#clip0_3456_12675)">
<path d="M31.0002 21.0003C32.3267 21.0046 33.6392 21.272 34.8617 21.787C36.0842 22.3019 37.1924 23.0542 38.1222 24.0003H35.0002C34.735 24.0003 34.4806 24.1056 34.2931 24.2932C34.1056 24.4807 34.0002 24.7351 34.0002 25.0003C34.0002 25.2655 34.1056 25.5198 34.2931 25.7074C34.4806 25.8949 34.735 26.0003 35.0002 26.0003H39.1432C39.6356 26 40.1078 25.8043 40.456 25.4561C40.8042 25.1079 40.9999 24.6357 41.0002 24.1433V20.0003C41.0002 19.7351 40.8948 19.4807 40.7073 19.2932C40.5198 19.1056 40.2654 19.0003 40.0002 19.0003C39.735 19.0003 39.4806 19.1056 39.2931 19.2932C39.1056 19.4807 39.0002 19.7351 39.0002 20.0003V22.0783C37.3474 20.5897 35.3128 19.5907 33.1243 19.193C30.9358 18.7954 28.6798 19.0148 26.609 19.8267C24.5381 20.6387 22.7342 22.011 21.3992 23.7902C20.0642 25.5694 19.2508 27.685 19.0502 29.9003C19.0373 30.0395 19.0535 30.18 19.0979 30.3126C19.1422 30.4452 19.2137 30.5672 19.3078 30.6707C19.4019 30.7741 19.5165 30.8569 19.6443 30.9136C19.7721 30.9704 19.9103 30.9999 20.0502 31.0003C20.2948 31.0034 20.5317 30.9151 20.7147 30.7527C20.8976 30.5903 21.0133 30.3655 21.0392 30.1223C21.2618 27.633 22.4072 25.317 24.2503 23.6291C26.0934 21.9412 28.501 21.0036 31.0002 21.0003Z" fill="white"/>
<path d="M41.951 31.0001C41.7064 30.997 41.4695 31.0852 41.2865 31.2476C41.1036 31.41 40.9879 31.6348 40.962 31.8781C40.7967 33.7813 40.0889 35.5972 38.9227 37.1103C37.7564 38.6234 36.1806 39.7702 34.3821 40.4147C32.5837 41.0591 30.6382 41.1742 28.7764 40.7462C26.9145 40.3182 25.2145 39.3652 23.878 38.0001H27C27.2652 38.0001 27.5196 37.8947 27.7071 37.7072C27.8946 37.5197 28 37.2653 28 37.0001C28 36.7349 27.8946 36.4805 27.7071 36.293C27.5196 36.1054 27.2652 36.0001 27 36.0001H22.857C22.6131 36 22.3716 36.0479 22.1462 36.1412C21.9208 36.2345 21.7161 36.3712 21.5436 36.5437C21.3711 36.7162 21.2344 36.9209 21.1411 37.1463C21.0478 37.3717 20.9999 37.6132 21 37.8571V42.0001C21 42.2653 21.1054 42.5197 21.2929 42.7072C21.4804 42.8948 21.7348 43.0001 22 43.0001C22.2652 43.0001 22.5196 42.8948 22.7071 42.7072C22.8946 42.5197 23 42.2653 23 42.0001V39.9221C24.6528 41.4107 26.6874 42.4097 28.8759 42.8074C31.0644 43.205 33.3204 42.9856 35.3912 42.1737C37.4621 41.3617 39.266 39.9893 40.601 38.2102C41.936 36.431 42.7494 34.3153 42.95 32.1001C42.9629 31.9608 42.9467 31.8204 42.9023 31.6878C42.858 31.5551 42.7865 31.4332 42.6924 31.3297C42.5983 31.2262 42.4837 31.1435 42.3559 31.0867C42.2281 31.03 42.0899 31.0005 41.95 31.0001H41.951Z" fill="white"/>
</g>
<defs>
<linearGradient id="paint0_linear_3456_12675" x1="9.18182" y1="7.81818" x2="50.0909" y2="52.1364" gradientUnits="userSpaceOnUse">
<stop stop-color="#FFD600"/>
<stop offset="0.24" stop-color="#FF423E"/>
<stop offset="0.5" stop-color="#0166FF"/>
<stop offset="0.73" stop-color="#8904F9"/>
<stop offset="1" stop-color="#01FFE3"/>
</linearGradient>
<clipPath id="clip0_3456_12675">
<rect width="24" height="24" fill="white" transform="translate(19 19)"/>
</clipPath>
</defs>
</svg>
