<svg width="60" height="60" viewBox="0 0 60 60" fill="none" xmlns="http://www.w3.org/2000/svg">
<circle cx="30" cy="30" r="29.5" fill="white" stroke="#E8E8E8"/>
<g clip-path="url(#clip0_3491_6844)">
<path d="M30.0012 20C31.3277 20.0044 32.6402 20.2718 33.8626 20.7867C35.0851 21.3017 36.1934 22.0539 37.1232 23H34.0012C33.736 23 33.4816 23.1054 33.2941 23.2929C33.1065 23.4805 33.0012 23.7348 33.0012 24C33.0012 24.2652 33.1065 24.5196 33.2941 24.7071C33.4816 24.8947 33.736 25 34.0012 25H38.1442C38.6366 24.9998 39.1088 24.804 39.457 24.4558C39.8052 24.1076 40.0009 23.6355 40.0012 23.143V19C40.0012 18.7348 39.8958 18.4805 39.7083 18.2929C39.5208 18.1054 39.2664 18 39.0012 18C38.736 18 38.4816 18.1054 38.2941 18.2929C38.1065 18.4805 38.0012 18.7348 38.0012 19V21.078C36.3483 19.5895 34.3138 18.5904 32.1253 18.1928C29.9368 17.7951 27.6808 18.0145 25.61 18.8265C23.5391 19.6384 21.7352 21.0108 20.4002 22.79C19.0652 24.5691 18.2518 26.6848 18.0512 28.9C18.0383 29.0393 18.0545 29.1797 18.0988 29.3123C18.1432 29.445 18.2147 29.5669 18.3088 29.6704C18.4028 29.7739 18.5174 29.8567 18.6453 29.9134C18.7731 29.9702 18.9113 29.9997 19.0512 30C19.2958 30.0031 19.5327 29.9149 19.7156 29.7525C19.8986 29.5901 20.0143 29.3653 20.0402 29.122C20.2628 26.6328 21.4082 24.3167 23.2513 22.6289C25.0944 20.941 27.502 20.0033 30.0012 20Z" fill="#616A7F"/>
<path d="M40.951 30.0003C40.7064 29.9972 40.4695 30.0855 40.2865 30.2479C40.1036 30.4103 39.9879 30.6351 39.962 30.8783C39.7967 32.7816 39.0889 34.5974 37.9227 36.1105C36.7564 37.6236 35.1806 38.7704 33.3821 39.4149C31.5837 40.0594 29.6382 40.1744 27.7764 39.7464C25.9145 39.3185 24.2145 38.3654 22.878 37.0003H26C26.2652 37.0003 26.5196 36.895 26.7071 36.7074C26.8946 36.5199 27 36.2656 27 36.0003C27 35.7351 26.8946 35.4808 26.7071 35.2932C26.5196 35.1057 26.2652 35.0003 26 35.0003H21.857C21.6131 35.0002 21.3716 35.0481 21.1462 35.1414C20.9208 35.2347 20.7161 35.3715 20.5436 35.5439C20.3711 35.7164 20.2344 35.9212 20.1411 36.1465C20.0478 36.3719 19.9999 36.6134 20 36.8573V41.0004C20 41.2656 20.1054 41.5199 20.2929 41.7075C20.4804 41.895 20.7348 42.0004 21 42.0004C21.2652 42.0004 21.5196 41.895 21.7071 41.7075C21.8946 41.5199 22 41.2656 22 41.0004V38.9223C23.6528 40.4109 25.6874 41.4099 27.8759 41.8076C30.0644 42.2053 32.3204 41.9858 34.3912 41.1739C36.4621 40.362 38.266 38.9896 39.601 37.2104C40.936 35.4313 41.7494 33.3156 41.95 31.1003C41.9629 30.9611 41.9467 30.8206 41.9023 30.688C41.858 30.5554 41.7865 30.4334 41.6924 30.3299C41.5983 30.2265 41.4837 30.1437 41.3559 30.087C41.2281 30.0302 41.0899 30.0007 40.95 30.0003H40.951Z" fill="#616A7F"/>
</g>
<defs>
<clipPath id="clip0_3491_6844">
<rect width="24" height="24" fill="white" transform="translate(18 18)"/>
</clipPath>
</defs>
</svg>
