<svg width="60" height="60" viewBox="0 0 60 60" fill="none" xmlns="http://www.w3.org/2000/svg">
<circle cx="30" cy="30" r="29.5" fill="url(#paint0_linear_3456_12692)"/>
<circle cx="30" cy="30" r="29.5" fill="black" fill-opacity="0.2"/>
<circle cx="30" cy="30" r="29.5" stroke="url(#paint1_linear_3456_12692)"/>
<g clip-path="url(#clip0_3456_12692)">
<path d="M30.0002 20.0003C31.3267 20.0046 32.6392 20.272 33.8617 20.787C35.0842 21.3019 36.1924 22.0542 37.1222 23.0003H34.0002C33.735 23.0003 33.4806 23.1056 33.2931 23.2932C33.1056 23.4807 33.0002 23.7351 33.0002 24.0003C33.0002 24.2655 33.1056 24.5198 33.2931 24.7074C33.4806 24.8949 33.735 25.0003 34.0002 25.0003H38.1432C38.6356 25 39.1078 24.8043 39.456 24.4561C39.8042 24.1079 39.9999 23.6357 40.0002 23.1433V19.0003C40.0002 18.7351 39.8948 18.4807 39.7073 18.2932C39.5198 18.1056 39.2654 18.0003 39.0002 18.0003C38.735 18.0003 38.4806 18.1056 38.2931 18.2932C38.1056 18.4807 38.0002 18.7351 38.0002 19.0003V21.0783C36.3474 19.5897 34.3128 18.5907 32.1243 18.193C29.9358 17.7954 27.6798 18.0148 25.609 18.8267C23.5381 19.6387 21.7342 21.011 20.3992 22.7902C19.0642 24.5694 18.2508 26.685 18.0502 28.9003C18.0373 29.0395 18.0535 29.18 18.0979 29.3126C18.1422 29.4452 18.2137 29.5672 18.3078 29.6707C18.4019 29.7741 18.5165 29.8569 18.6443 29.9136C18.7721 29.9704 18.9103 29.9999 19.0502 30.0003C19.2948 30.0034 19.5317 29.9151 19.7147 29.7527C19.8976 29.5903 20.0133 29.3655 20.0392 29.1223C20.2618 26.633 21.4072 24.317 23.2503 22.6291C25.0934 20.9412 27.501 20.0036 30.0002 20.0003Z" fill="#787878"/>
<path d="M40.951 30.0001C40.7064 29.997 40.4695 30.0852 40.2865 30.2476C40.1036 30.41 39.9879 30.6348 39.962 30.8781C39.7967 32.7813 39.0889 34.5972 37.9227 36.1103C36.7564 37.6234 35.1806 38.7702 33.3821 39.4147C31.5837 40.0591 29.6382 40.1742 27.7764 39.7462C25.9145 39.3182 24.2145 38.3652 22.878 37.0001H26C26.2652 37.0001 26.5196 36.8947 26.7071 36.7072C26.8946 36.5197 27 36.2653 27 36.0001C27 35.7349 26.8946 35.4805 26.7071 35.293C26.5196 35.1054 26.2652 35.0001 26 35.0001H21.857C21.6131 35 21.3716 35.0479 21.1462 35.1412C20.9208 35.2345 20.7161 35.3712 20.5436 35.5437C20.3711 35.7162 20.2344 35.9209 20.1411 36.1463C20.0478 36.3717 19.9999 36.6132 20 36.8571V41.0001C20 41.2653 20.1054 41.5197 20.2929 41.7072C20.4804 41.8948 20.7348 42.0001 21 42.0001C21.2652 42.0001 21.5196 41.8948 21.7071 41.7072C21.8946 41.5197 22 41.2653 22 41.0001V38.9221C23.6528 40.4107 25.6874 41.4097 27.8759 41.8074C30.0644 42.205 32.3204 41.9856 34.3912 41.1737C36.4621 40.3617 38.266 38.9893 39.601 37.2102C40.936 35.431 41.7494 33.3153 41.95 31.1001C41.9629 30.9608 41.9467 30.8204 41.9023 30.6878C41.858 30.5551 41.7865 30.4332 41.6924 30.3297C41.5983 30.2262 41.4837 30.1435 41.3559 30.0867C41.2281 30.03 41.0899 30.0005 40.95 30.0001H40.951Z" fill="#787878"/>
</g>
<defs>
<linearGradient id="paint0_linear_3456_12692" x1="1.10769" y1="1.8" x2="67.9386" y2="14.8052" gradientUnits="userSpaceOnUse">
<stop stop-color="#1A1A1A"/>
<stop offset="0.5" stop-color="#0B0B0B"/>
<stop offset="1" stop-color="#121212"/>
</linearGradient>
<linearGradient id="paint1_linear_3456_12692" x1="1.84615" y1="3.35426e-06" x2="68.0707" y2="14.2175" gradientUnits="userSpaceOnUse">
<stop stop-color="#2F2F2F"/>
<stop offset="0.5798" stop-color="#191919"/>
<stop offset="1" stop-color="#151515"/>
</linearGradient>
<clipPath id="clip0_3456_12692">
<rect width="24" height="24" fill="white" transform="translate(18 18)"/>
</clipPath>
</defs>
</svg>
