<svg width="50" height="50" viewBox="0 0 50 50" fill="none" xmlns="http://www.w3.org/2000/svg">
<path d="M34 0.5C42.5604 0.5 49.5 7.43959 49.5 16V34C49.5 42.5604 42.5604 49.5 34 49.5H16C7.43959 49.5 0.5 42.5604 0.5 34V16C0.5 7.43959 7.43959 0.5 16 0.5H34Z" fill="white"/>
<path d="M34 0.5C42.5604 0.5 49.5 7.43959 49.5 16V34C49.5 42.5604 42.5604 49.5 34 49.5H16C7.43959 49.5 0.5 42.5604 0.5 34V16C0.5 7.43959 7.43959 0.5 16 0.5H34Z" stroke="#E8E8E8"/>
<path d="M23.1333 18.8797V24.8414C23.1335 24.9926 23.104 25.1424 23.0463 25.2821C22.9887 25.4219 22.9041 25.5488 22.7974 25.6558C22.6907 25.7627 22.564 25.8475 22.4245 25.9052C22.2851 25.963 22.1356 25.9927 21.9848 25.9925H16.0314C15.8805 25.9927 15.731 25.963 15.5916 25.9052C15.4522 25.8475 15.3255 25.7627 15.2188 25.6558C15.1121 25.5488 15.0275 25.4219 14.9698 25.2821C14.9122 25.1424 14.8826 24.9926 14.8828 24.8414V18.8804C14.8828 18.2436 15.396 17.7294 16.0314 17.7294H21.9855C22.6202 17.7294 23.1333 18.2429 23.1333 18.8797ZM23.1333 28.4731V34.4356C23.1335 34.5868 23.104 34.7366 23.0463 34.8763C22.9887 35.016 22.9041 35.143 22.7974 35.2499C22.6907 35.3569 22.564 35.4416 22.4245 35.4994C22.2851 35.5572 22.1356 35.5868 21.9848 35.5866H16.0314C15.8805 35.5868 15.731 35.5572 15.5916 35.4994C15.4522 35.4416 15.3255 35.3569 15.2188 35.2499C15.1121 35.143 15.0275 35.016 14.9698 34.8763C14.9122 34.7366 14.8826 34.5868 14.8828 34.4356V28.4731C14.8828 27.8363 15.396 27.3228 16.0314 27.3228H21.9855C22.6202 27.3228 23.1333 27.837 23.1333 28.4731ZM31.5544 35.5866H25.6048C25.4539 35.5868 25.3044 35.5572 25.165 35.4994C25.0256 35.4416 24.8989 35.3569 24.7922 35.2499C24.6855 35.143 24.6009 35.016 24.5432 34.8763C24.4856 34.7366 24.456 34.5868 24.4562 34.4356V28.4693C24.4562 27.8325 24.9694 27.3182 25.6048 27.3182H31.5544C32.1898 27.3182 32.703 27.8325 32.703 28.4693V34.4363C32.7031 34.5875 32.6734 34.7372 32.6157 34.8768C32.558 35.0165 32.4734 35.1434 32.3667 35.2502C32.26 35.357 32.1334 35.4418 31.994 35.4995C31.8546 35.5572 31.7052 35.5868 31.5544 35.5866ZM30.1077 24.7779L25.1143 21.535C24.9875 21.4529 24.8781 21.3466 24.7924 21.2221C24.7067 21.0977 24.6464 20.9575 24.6148 20.8096C24.5833 20.6617 24.5812 20.509 24.6086 20.3603C24.636 20.2116 24.6925 20.0698 24.7747 19.943L28.0121 14.9364C28.094 14.8093 28.2001 14.6996 28.3243 14.6136C28.4486 14.5277 28.5886 14.4672 28.7362 14.4355C28.8839 14.4039 29.0363 14.4018 29.1848 14.4294C29.3332 14.4569 29.4748 14.5136 29.6014 14.5961L34.5933 17.839C34.7201 17.9211 34.8295 18.0274 34.9152 18.1518C35.0009 18.2763 35.0612 18.4165 35.0928 18.5644C35.1243 18.7123 35.1264 18.8649 35.099 19.0136C35.0716 19.1623 35.0151 19.3042 34.9329 19.431L31.6955 24.4376C31.6136 24.5646 31.5076 24.6742 31.3834 24.7601C31.2592 24.846 31.1193 24.9065 30.9717 24.9381C30.8241 24.9697 30.6718 24.9718 30.5234 24.9443C30.375 24.9168 30.2343 24.8603 30.1077 24.7779Z" stroke="#091229" stroke-width="1.1"/>
</svg>
