<svg width="48" height="48" viewBox="0 0 48 48" fill="none" xmlns="http://www.w3.org/2000/svg">
<rect x="0.5" y="0.5" width="47" height="47" rx="14.5" stroke="url(#paint0_linear_13098_66036)"/>
<path d="M22.1333 17.8797V23.8414C22.1335 23.9926 22.104 24.1424 22.0463 24.2821C21.9887 24.4219 21.9041 24.5488 21.7974 24.6558C21.6907 24.7627 21.564 24.8475 21.4245 24.9052C21.2851 24.963 21.1356 24.9927 20.9848 24.9925H15.0314C14.8805 24.9927 14.731 24.963 14.5916 24.9052C14.4522 24.8475 14.3255 24.7627 14.2188 24.6558C14.1121 24.5488 14.0275 24.4219 13.9698 24.2821C13.9122 24.1424 13.8826 23.9926 13.8828 23.8414V17.8804C13.8828 17.2436 14.396 16.7294 15.0314 16.7294H20.9855C21.6202 16.7294 22.1333 17.2429 22.1333 17.8797ZM22.1333 27.4731V33.4356C22.1335 33.5868 22.104 33.7366 22.0463 33.8763C21.9887 34.016 21.9041 34.143 21.7974 34.2499C21.6907 34.3569 21.564 34.4416 21.4245 34.4994C21.2851 34.5572 21.1356 34.5868 20.9848 34.5866H15.0314C14.8805 34.5868 14.731 34.5572 14.5916 34.4994C14.4522 34.4416 14.3255 34.3569 14.2188 34.2499C14.1121 34.143 14.0275 34.016 13.9698 33.8763C13.9122 33.7366 13.8826 33.5868 13.8828 33.4356V27.4731C13.8828 26.8363 14.396 26.3228 15.0314 26.3228H20.9855C21.6202 26.3228 22.1333 26.837 22.1333 27.4731ZM30.5544 34.5866H24.6048C24.4539 34.5868 24.3044 34.5572 24.165 34.4994C24.0256 34.4416 23.8989 34.3569 23.7922 34.2499C23.6855 34.143 23.6009 34.016 23.5432 33.8763C23.4856 33.7366 23.456 33.5868 23.4562 33.4356V27.4693C23.4562 26.8325 23.9694 26.3182 24.6048 26.3182H30.5544C31.1898 26.3182 31.703 26.8325 31.703 27.4693V33.4363C31.7031 33.5875 31.6734 33.7372 31.6157 33.8768C31.558 34.0165 31.4734 34.1434 31.3667 34.2502C31.26 34.357 31.1334 34.4418 30.994 34.4995C30.8546 34.5572 30.7052 34.5868 30.5544 34.5866ZM29.1077 23.7779L24.1143 20.535C23.9875 20.4529 23.8781 20.3466 23.7924 20.2221C23.7067 20.0977 23.6464 19.9575 23.6148 19.8096C23.5833 19.6617 23.5812 19.509 23.6086 19.3603C23.636 19.2116 23.6925 19.0698 23.7747 18.943L27.0121 13.9364C27.094 13.8093 27.2001 13.6996 27.3243 13.6136C27.4486 13.5277 27.5886 13.4672 27.7362 13.4355C27.8839 13.4039 28.0363 13.4018 28.1848 13.4294C28.3332 13.4569 28.4748 13.5136 28.6014 13.5961L33.5933 16.839C33.7201 16.9211 33.8295 17.0274 33.9152 17.1518C34.0009 17.2763 34.0612 17.4165 34.0928 17.5644C34.1243 17.7123 34.1264 17.8649 34.099 18.0136C34.0716 18.1623 34.0151 18.3042 33.9329 18.431L30.6955 23.4376C30.6136 23.5646 30.5076 23.6742 30.3834 23.7601C30.2592 23.846 30.1193 23.9065 29.9717 23.9381C29.8241 23.9697 29.6718 23.9718 29.5234 23.9443C29.375 23.9168 29.2343 23.8603 29.1077 23.7779Z" stroke="white" stroke-width="1.1"/>
<defs>
<linearGradient id="paint0_linear_13098_66036" x1="24" y1="0" x2="24" y2="48" gradientUnits="userSpaceOnUse">
<stop stop-color="#2F2F2F"/>
<stop offset="0.5" stop-color="#191919"/>
<stop offset="1" stop-color="#151515"/>
</linearGradient>
</defs>
</svg>
