<svg width="224" height="224" viewBox="0 0 224 224" fill="none" xmlns="http://www.w3.org/2000/svg">
<mask id="mask0_3715_11083" style="mask-type:luminance" maskUnits="userSpaceOnUse" x="0" y="0" width="224" height="224">
<path d="M224 0H0V224H224V0Z" fill="white"/>
</mask>
<g mask="url(#mask0_3715_11083)">
<path d="M69.9374 20.732C69.9374 16.3924 73.4553 12.8745 77.7946 12.8745H155.809C160.148 12.8745 163.666 16.3924 163.666 20.732V177.32C163.666 181.66 160.148 185.178 155.809 185.178H77.7946C73.4553 185.178 69.9374 181.66 69.9374 177.32V20.732ZM69.3762 135.788C69.3762 145.862 61.2096 154.029 51.1356 154.029C41.0616 154.029 32.895 145.862 32.895 135.788C32.895 125.714 41.0616 117.547 51.1356 117.547C61.2096 117.547 69.3762 125.714 69.3762 135.788Z" fill="#F1F1F1"/>
<path d="M34.5786 38.9727C34.5786 37.4228 35.835 36.1665 37.3849 36.1665H78.3559C79.906 36.1665 81.1619 37.4228 81.1619 38.9727V93.4137C81.1619 94.9637 79.906 96.2204 78.3559 96.2204H37.3849C35.835 96.2204 34.5786 94.9637 34.5786 93.4137V38.9727Z" fill="#F1F1F1"/>
<path d="M41.875 36.1661H51.4162V96.22H41.875V36.1661ZM62.08 13.1549C62.08 8.8153 65.5979 5.29736 69.9374 5.29736H147.951C152.29 5.29736 155.809 8.8153 155.809 13.1549V169.743C155.809 174.082 152.29 177.601 147.951 177.601H69.9374C65.5979 177.601 62.08 174.082 62.08 169.743V13.1549Z" fill="#F1F1F1"/>
<path fill-rule="evenodd" clip-rule="evenodd" d="M61.5186 13.1555C61.5186 8.50598 65.2877 4.73682 69.9372 4.73682H147.95C152.601 4.73682 156.37 8.50598 156.37 13.1555V169.744C156.37 174.394 152.601 178.163 147.95 178.163H69.9372C65.2877 178.163 61.5186 174.394 61.5186 169.744V13.1555ZM69.9372 5.85931C65.9077 5.85931 62.641 9.12593 62.641 13.1555V169.744C62.641 173.773 65.9077 177.04 69.9372 177.04H147.95C151.98 177.04 155.247 173.773 155.247 169.744V13.1555C155.247 9.12593 151.98 5.85931 147.95 5.85931H69.9372Z" fill="#3E3D3D"/>
<path d="M65.4473 14.2776C65.4473 11.1779 67.96 8.66504 71.0597 8.66504H146.828C149.928 8.66504 152.441 11.1779 152.441 14.2776V164.692C152.441 167.792 149.928 170.304 146.828 170.304H71.0597C67.96 170.304 65.4473 167.792 65.4473 164.692V14.2776Z" fill="white"/>
<path d="M90.1421 8.66504H129.429L128.125 12.2527C127.561 13.8052 126.085 14.8388 124.433 14.8388H95.1388C93.4872 14.8388 92.0117 13.8052 91.4465 12.2527L90.1421 8.66504Z" fill="#F1F1F1"/>
<path fill-rule="evenodd" clip-rule="evenodd" d="M137.848 28.8705H81.1621V27.748H137.848V28.8705ZM106.98 41.7793H81.1621V40.6567H106.98V41.7793Z" fill="#F1F1F1"/>
<path d="M81.1621 88.9245H107.541V112.497H81.1621V88.9245ZM81.1621 69.8419H107.541V76.0153H81.1621V69.8419ZM81.1621 54.127H107.541V60.3007H81.1621V54.127Z" fill="#F1F1F1"/>
<path d="M82.8457 134.946C82.8457 132.157 85.1073 129.895 87.8976 129.895H129.991C132.781 129.895 135.042 132.157 135.042 134.946V148.978C135.042 151.767 132.781 154.029 129.991 154.029H87.8976C85.1073 154.029 82.8457 151.767 82.8457 148.978V134.946Z" fill="#FFD600"/>
<path d="M91.3051 142.178H93.6751V143.052C93.6751 143.359 93.7201 143.644 93.8101 143.907C93.9026 144.169 94.0339 144.395 94.2039 144.585C94.3739 144.775 94.5789 144.924 94.8189 145.032C95.0589 145.139 95.3264 145.193 95.6214 145.193C95.9189 145.193 96.1876 145.139 96.4276 145.032C96.6676 144.922 96.8714 144.77 97.0389 144.578C97.2064 144.385 97.3351 144.158 97.4251 143.895C97.5151 143.63 97.5601 143.343 97.5601 143.033V136.275H99.9301V143.063C99.9301 143.493 99.8826 143.894 99.7876 144.267C99.6926 144.639 99.5564 144.979 99.3789 145.287C99.2014 145.594 98.9851 145.869 98.7301 146.112C98.4751 146.352 98.1876 146.554 97.8676 146.719C97.5476 146.884 97.1989 147.009 96.8214 147.094C96.4439 147.182 96.0426 147.225 95.6176 147.225C95.1951 147.225 94.7939 147.182 94.4139 147.094C94.0364 147.009 93.6876 146.884 93.3676 146.719C93.0501 146.554 92.7639 146.352 92.5089 146.112C92.2539 145.869 92.0364 145.594 91.8564 145.287C91.6789 144.979 91.5426 144.639 91.4476 144.267C91.3526 143.894 91.3051 143.493 91.3051 143.063V142.178ZM100.856 141.638C100.856 141.075 100.913 140.548 101.028 140.055C101.146 139.56 101.312 139.107 101.527 138.694C101.742 138.279 102.004 137.908 102.314 137.58C102.624 137.253 102.972 136.977 103.357 136.752C103.742 136.524 104.162 136.35 104.617 136.23C105.074 136.11 105.558 136.05 106.068 136.05C106.578 136.05 107.061 136.11 107.516 136.23C107.973 136.35 108.394 136.524 108.779 136.752C109.167 136.977 109.514 137.253 109.822 137.58C110.132 137.908 110.394 138.279 110.609 138.694C110.827 139.107 110.993 139.56 111.108 140.055C111.226 140.55 111.284 141.078 111.284 141.638C111.284 142.198 111.226 142.725 111.108 143.22C110.993 143.715 110.827 144.17 110.609 144.585C110.394 144.998 110.132 145.368 109.822 145.695C109.514 146.023 109.167 146.3 108.779 146.528C108.394 146.753 107.973 146.925 107.516 147.045C107.061 147.165 106.578 147.225 106.068 147.225C105.558 147.225 105.074 147.165 104.617 147.045C104.162 146.925 103.742 146.753 103.357 146.528C102.972 146.3 102.624 146.023 102.314 145.695C102.004 145.368 101.742 144.998 101.527 144.585C101.312 144.17 101.146 143.715 101.028 143.22C100.913 142.725 100.856 142.198 100.856 141.638ZM103.241 141.638C103.241 142.21 103.303 142.718 103.428 143.16C103.556 143.603 103.739 143.975 103.979 144.278C104.219 144.578 104.514 144.805 104.864 144.96C105.217 145.115 105.618 145.193 106.068 145.193C106.518 145.193 106.918 145.115 107.268 144.96C107.621 144.805 107.917 144.578 108.157 144.278C108.399 143.975 108.583 143.603 108.708 143.16C108.836 142.718 108.899 142.21 108.899 141.638C108.899 141.065 108.836 140.558 108.708 140.115C108.583 139.673 108.399 139.302 108.157 139.002C107.917 138.699 107.621 138.47 107.268 138.315C106.918 138.16 106.518 138.083 106.068 138.083C105.618 138.083 105.217 138.16 104.864 138.315C104.514 138.47 104.219 138.699 103.979 139.002C103.739 139.302 103.556 139.673 103.428 140.115C103.303 140.558 103.241 141.065 103.241 141.638ZM114.574 147H112.204V136.275H114.574V147ZM125.438 147H122.074L117.889 138.398V147H115.617V136.275H119.202L123.165 144.372V136.275H125.438V147Z" fill="#1A1A1A"/>
<path d="M95.7549 42.3405C95.7549 40.7906 97.0115 39.5342 98.5609 39.5342H174.891C176.44 39.5342 177.697 40.7906 177.697 42.3405V115.302C177.697 116.852 176.44 118.109 174.891 118.109H98.5609C97.0115 118.109 95.7549 116.852 95.7549 115.302V42.3405Z" fill="white"/>
<path fill-rule="evenodd" clip-rule="evenodd" d="M95.1934 42.3411C95.1934 40.4813 96.7009 38.9736 98.5608 38.9736H174.891C176.751 38.9736 178.259 40.4813 178.259 42.3411V115.303C178.259 117.163 176.751 118.671 174.891 118.671H98.5608C96.7009 118.671 95.1934 117.163 95.1934 115.303V42.3411ZM98.5608 40.0961C97.3214 40.0961 96.3163 41.1013 96.3163 42.3411V115.303C96.3163 116.543 97.3214 117.548 98.5608 117.548H174.891C176.131 117.548 177.136 116.543 177.136 115.303V42.3411C177.136 41.1013 176.131 40.0961 174.891 40.0961H98.5608Z" fill="#3E3D3D"/>
<path d="M160.829 76.4152C160.829 89.8992 149.899 100.83 136.415 100.83C122.931 100.83 112 89.8992 112 76.4152C112 62.9317 122.931 52.001 136.415 52.001C149.899 52.001 160.829 62.9317 160.829 76.4152Z" fill="#039BE5"/>
<path d="M123.211 75.0829L146.268 66.1103C147.339 65.7201 148.273 66.3738 147.926 68.007L147.928 68.005L144.002 86.6723C143.712 87.9957 142.932 88.3176 141.842 87.694L135.864 83.247L132.98 86.0508C132.661 86.3726 132.392 86.6441 131.774 86.6441L132.199 80.5035L143.279 70.4005C143.761 69.9721 143.171 69.7307 142.536 70.1571L128.843 78.8582L122.94 76.9997C121.658 76.5894 121.63 75.7064 123.211 75.0829Z" fill="white"/>
<path d="M202.392 141.401C202.392 149.925 195.482 156.835 186.958 156.835C178.433 156.835 171.523 149.925 171.523 141.401C171.523 132.877 178.433 125.967 186.958 125.967C195.482 125.967 202.392 132.877 202.392 141.401Z" fill="#F1F1F1"/>
<path fill-rule="evenodd" clip-rule="evenodd" d="M63.2026 193.265H37.1045V192.142H63.2026V193.265ZM93.229 206.173H37.1045V205.051H93.229V206.173ZM181.441 15.4004H171.524V14.2778H181.441V15.4004ZM192.851 28.309H171.524V27.1866H192.851V28.309Z" fill="#F1F1F1"/>
<path fill-rule="evenodd" clip-rule="evenodd" d="M-0.21875 221.644C-0.21875 221.334 0.0325297 221.083 0.342498 221.083H223.438C223.748 221.083 224 221.334 224 221.644C224 221.954 223.748 222.205 223.438 222.205H0.342498C0.0325297 222.205 -0.21875 221.954 -0.21875 221.644Z" fill="#3E3D3D"/>
<path fill-rule="evenodd" clip-rule="evenodd" d="M191.167 111.654V45.9883H192.29V111.654H191.167ZM198.937 138.86L181.007 149.983L174.921 140.497L178.228 138.376L182.224 144.604L196.867 135.522L198.937 138.86Z" fill="#F1F1F1"/>
<path d="M130.628 206.147L105.641 201.579C102.167 200.944 98.7662 203.003 97.7193 206.377C96.6897 209.696 98.2569 213.268 101.411 214.729C105.88 216.797 111.318 219.268 116.734 221.643H189.193C187.758 214.932 186.359 206.453 185.866 199.728C184.811 185.327 173.567 169.641 167.204 164.435C162.113 160.269 157.848 162.609 156.351 164.299C153.135 161.215 148.557 163.374 146.67 164.839C141.455 163.054 137.497 167.204 136.169 169.503L122.961 148.07C121.291 145.36 117.873 144.301 114.964 145.594C111.91 146.95 110.427 150.436 111.566 153.576L130.628 206.147Z" fill="#EFCB96"/>
</g>
<path d="M192.296 138.846C192.501 138.123 192.5 137.353 192.294 136.626C192.088 135.898 191.685 135.241 191.13 134.729C190.576 134.218 189.893 133.873 189.158 133.732C188.424 133.592 187.667 133.663 186.975 133.937L186.448 134.148L185.731 132.364L184.327 132.928L185.044 134.713L183.639 135.277L182.922 133.493L181.517 134.057L182.234 135.841L179.425 136.97L180.285 139.112L182.392 138.265L185.834 146.831L183.727 147.678L184.587 149.819L187.397 148.691L188.114 150.475L189.518 149.911L188.801 148.126L190.206 147.562L190.923 149.347L192.328 148.782L191.611 146.998L192.84 146.504C196.387 145.079 196.025 139.835 192.296 138.846ZM184.499 137.419C187.948 136.033 188.301 135.713 189.142 136.101C189.452 136.237 189.718 136.463 189.904 136.749C190.09 137.036 190.188 137.372 190.186 137.713C190.185 138.054 190.083 138.386 189.894 138.667C189.706 138.948 189.438 139.165 189.126 139.291L185.79 140.631L184.499 137.419ZM191.979 144.362L187.941 145.985L186.65 142.773L190.689 141.15C190.896 141.066 191.118 141.025 191.343 141.029C191.567 141.033 191.788 141.081 191.995 141.173C192.306 141.309 192.571 141.534 192.757 141.821C192.943 142.108 193.041 142.443 193.04 142.785C193.038 143.126 192.936 143.458 192.748 143.739C192.559 144.02 192.292 144.237 191.979 144.362Z" fill="#1A1A1A"/>
<path d="M56.0783 135.222C56.5379 134.627 56.824 133.913 56.9041 133.161C56.9843 132.409 56.8551 131.649 56.5314 130.968C56.2077 130.286 55.7025 129.711 55.0731 129.307C54.4437 128.903 53.7155 128.687 52.9712 128.683H52.4035V126.76H50.8897V128.683H49.3759V126.76H47.8621V128.683H44.8345V130.991H47.1052V140.223H44.8345V142.53H47.8621V144.454H49.3759V142.53H50.8897V144.454H52.4035V142.53H53.7281C57.5504 142.53 59.1702 137.53 56.0783 135.222ZM49.3759 130.991C53.0923 130.991 53.5389 130.826 54.1746 131.499C54.4125 131.741 54.5745 132.049 54.6401 132.385C54.7057 132.72 54.6719 133.068 54.5432 133.384C54.4144 133.7 54.1963 133.97 53.9165 134.161C53.6368 134.351 53.3078 134.453 52.9712 134.453H49.3759V130.991ZM53.7281 140.223H49.3759V136.761H53.7281C53.9518 136.76 54.1734 136.805 54.38 136.892C54.5866 136.979 54.7741 137.107 54.9316 137.268C55.1694 137.511 55.3314 137.819 55.397 138.154C55.4626 138.49 55.4288 138.838 55.3001 139.154C55.1713 139.47 54.9532 139.74 54.6734 139.93C54.3937 140.121 54.0647 140.222 53.7281 140.223Z" fill="#1A1A1A"/>
</svg>
