<svg width="18" height="18" viewBox="0 0 18 18" fill="none" xmlns="http://www.w3.org/2000/svg">
<path d="M5.94 1H3.405V2H5.94V1ZM8.345 3.42075C8.345 2.09161 7.27886 1 5.94 1V2C6.71614 2 7.345 2.63339 7.345 3.42075H8.345ZM8.345 5.9775V3.42075H7.345V5.9775H8.345ZM5.94 8.3975C7.27747 8.3975 8.345 7.3148 8.345 5.9775H7.345C7.345 6.7702 6.71753 7.3975 5.94 7.3975V8.3975ZM3.405 8.3975H5.94V7.3975H3.405V8.3975ZM1 5.9775C1 7.31608 2.07631 8.3975 3.405 8.3975V7.3975C2.63369 7.3975 2 6.76892 2 5.9775H1ZM1 3.42075V5.9775H2V3.42075H1ZM3.405 1C2.07491 1 1 2.09032 1 3.42075H2C2 2.63468 2.63509 2 3.405 2V1ZM5.94 9.60227H3.405V10.6023H5.94V9.60227ZM8.345 12.023C8.345 10.686 7.27773 9.60227 5.94 9.60227V10.6023C6.71727 10.6023 7.345 11.2301 7.345 12.023H8.345ZM8.345 14.5798V12.023H7.345V14.5798H8.345ZM5.94 16.9998C7.27874 16.9998 8.345 15.9083 8.345 14.5798H7.345C7.345 15.3663 6.71626 15.9998 5.94 15.9998V16.9998ZM3.405 16.9998H5.94V15.9998H3.405V16.9998ZM1 14.5798C1 15.9096 2.07504 16.9998 3.405 16.9998V15.9998C2.63496 15.9998 2 15.365 2 14.5798H1ZM1 12.023V14.5798H2V12.023H1ZM3.405 9.60227C2.07605 9.60227 1 10.6847 1 12.023H2C2 11.2314 2.63395 10.6023 3.405 10.6023V9.60227ZM12.0601 2H14.5951V1H12.0601V2ZM10.6551 3.42075C10.6551 2.63339 11.2839 2 12.0601 2V1C10.7212 1 9.65508 2.09161 9.65508 3.42075H10.6551ZM10.6551 5.9775V3.42075H9.65508V5.9775H10.6551ZM12.0601 7.3975C11.2825 7.3975 10.6551 6.7702 10.6551 5.9775H9.65508C9.65508 7.3148 10.7226 8.3975 12.0601 8.3975V7.3975ZM14.5951 7.3975H12.0601V8.3975H14.5951V7.3975ZM16.0001 5.9775C16.0001 6.76892 15.3664 7.3975 14.5951 7.3975V8.3975C15.9238 8.3975 17.0001 7.31608 17.0001 5.9775H16.0001ZM16.0001 3.42075V5.9775H17.0001V3.42075H16.0001ZM14.5951 2C15.365 2 16.0001 2.63468 16.0001 3.42075H17.0001C17.0001 2.09032 15.9252 1 14.5951 1V2ZM14.5951 9.60227H12.0601V10.6023H14.5951V9.60227ZM17.0001 12.023C17.0001 10.6847 15.924 9.60227 14.5951 9.60227V10.6023C15.3661 10.6023 16.0001 11.2314 16.0001 12.023H17.0001ZM17.0001 14.5798V12.023H16.0001V14.5798H17.0001ZM14.5951 16.9998C15.925 16.9998 17.0001 15.9096 17.0001 14.5798H16.0001C16.0001 15.365 15.3651 15.9998 14.5951 15.9998V16.9998ZM12.0601 16.9998H14.5951V15.9998H12.0601V16.9998ZM9.65508 14.5798C9.65508 15.9083 10.7213 16.9998 12.0601 16.9998V15.9998C11.2838 15.9998 10.6551 15.3663 10.6551 14.5798H9.65508ZM9.65508 12.023V14.5798H10.6551V12.023H9.65508ZM12.0601 9.60227C10.7223 9.60227 9.65508 10.686 9.65508 12.023H10.6551C10.6551 11.2301 11.2828 10.6023 12.0601 10.6023V9.60227Z" fill="#0166FF"/>
</svg>
