<svg width="198" height="172" viewBox="0 0 198 172" fill="none" xmlns="http://www.w3.org/2000/svg">
<path d="M72.6199 161.456C72.6199 166.404 68.6013 170.362 63.7109 170.362C58.7628 170.362 54.805 166.404 54.805 161.456C54.805 156.565 58.7628 152.547 63.7109 152.547C68.6013 152.547 72.6199 156.565 72.6199 161.456Z" stroke="#1E1B19" stroke-width="2.5" stroke-linejoin="round"/>
<path d="M69.0083 8.07803C69.0083 11.4557 66.2654 14.1561 62.9303 14.1561C59.5556 14.1561 56.8522 11.4557 56.8522 8.07803C56.8522 4.74286 59.5556 2 62.9303 2C66.2654 2 69.0083 4.74286 69.0083 8.07803Z" stroke="#1E1B19" stroke-width="2.5" stroke-linejoin="round"/>
<path d="M197.5 104.812L128.883 144.034C126.18 145.613 123.689 145.765 121.897 144.733L13.2459 81.583C15.038 82.6157 17.4984 82.4638 20.2322 80.8843L87.3001 42.1562L197.5 104.812Z" fill="#0166FF"/>
<path d="M186.18 99.6188L195.967 105.305L128.896 144.036C126.183 145.61 123.686 145.764 121.897 144.716L13.2277 81.5608C15.0168 82.6088 17.5136 82.4569 20.2261 80.8835L87.2971 42.1523" stroke="#1E1B19" stroke-width="2.5" stroke-linejoin="round"/>
<path d="M195.879 72.6719L195.909 82.7381L128.832 121.466C123.416 124.592 119.021 132.207 119.039 138.428C119.057 144.648 123.48 147.17 128.896 144.044L195.973 105.316L196 115.361L128.923 154.089C118.665 160.012 110.309 155.249 110.276 143.485C110.242 131.7 118.544 117.32 128.801 111.397L195.879 72.6719Z" fill="#E5E8ED"/>
<path d="M195.872 72.683L128.804 111.414C118.535 117.334 110.239 131.705 110.27 143.484C110.3 149.343 112.369 153.441 115.698 155.385L7.02816 92.2323C3.69907 90.2883 1.63053 86.1877 1.60015 80.3284C1.56978 68.549 9.86518 54.1786 20.135 48.2585L87.2029 9.52734L195.872 72.683Z" fill="white"/>
<path d="M68.1487 20.5322L87.2029 9.52734L195.872 72.683L195.906 82.7341L128.835 121.465C123.407 124.579 119.027 132.197 119.027 138.427C119.057 144.657 123.468 147.184 128.896 144.037L195.967 105.306L195.997 115.36L128.926 154.091C123.777 157.083 119.091 157.359 115.698 155.385L115.637 155.355C115.576 155.324 115.512 155.294 115.482 155.263H115.452L7.02816 92.2323C3.69907 90.2883 1.63053 86.1877 1.60015 80.3284C1.56978 68.549 9.86518 54.1786 20.135 48.2585L52.4843 29.5779" stroke="#1E1B19" stroke-width="2.5" stroke-linejoin="round"/>
<path d="M158.557 42.7109L158.536 50.253L130.505 66.5401L130.527 59.001L158.557 42.7109Z" fill="#C2D4EE"/>
<path d="M111.849 62.0343L111.87 54.4922C111.864 56.1203 112.934 57.7514 115.081 58.9907C119.373 61.4693 126.302 61.4572 130.527 59.0029L130.505 66.5419C126.28 68.9962 119.352 69.0114 115.06 66.5328C112.912 65.2935 111.843 63.6624 111.849 62.0343Z" fill="#C2D4EE"/>
<path d="M158.557 42.715L130.527 59.0051C126.301 61.4594 119.373 61.4715 115.081 58.9929C110.807 56.5265 110.807 52.5139 115.032 50.0596L143.062 33.7695L158.557 42.715Z" fill="white"/>
<path d="M158.551 42.7276L158.52 50.2514L130.521 66.5324C126.265 68.9989 119.358 68.9989 115.072 66.5324C112.912 65.2992 111.834 63.665 111.864 62.0308V54.507C111.864 52.9032 112.943 51.269 115.039 50.0661L143.072 33.7852L158.551 42.7276Z" stroke="#1E1B19" stroke-width="2.5" stroke-linejoin="round"/>
<path d="M126.815 52.3659C128.862 53.5474 128.853 55.4459 126.857 56.6062C124.822 57.7878 121.566 57.7878 119.519 56.6062C117.49 55.4368 117.481 53.5474 119.516 52.3659C121.511 51.2055 124.786 51.1964 126.815 52.3659Z" fill="#19181D"/>
</svg>
