<svg width="152" height="151" viewBox="0 0 152 151" fill="none" xmlns="http://www.w3.org/2000/svg">
<path d="M121.819 12.664L121.266 18.3544C121.178 19.2641 121.891 20.0552 122.811 20.0552C123.601 20.0552 124.276 19.4553 124.353 18.6533L124.906 12.963C124.989 12.1105 124.365 11.351 123.512 11.2702C122.668 11.1591 121.9 11.8095 121.819 12.664ZM126.621 22.9115C127.235 23.5171 128.216 23.5057 128.815 22.8994C131.027 20.6612 132.635 17.8716 133.463 14.8355C133.689 14.0093 133.2 13.1569 132.374 12.9306C131.53 12.7064 130.693 13.1932 130.469 14.0194C129.78 16.5424 128.445 18.8594 126.609 20.7178C126.007 21.3278 126.011 22.3096 126.621 22.9115ZM142.817 21.2268C142.444 20.4592 141.519 20.1401 140.743 20.5097L131.911 24.8063C131.142 25.182 130.821 26.1112 131.194 26.8809C131.567 27.6452 132.49 27.9727 133.269 27.598L142.1 23.3014C142.87 22.9257 143.191 21.9965 142.817 21.2268ZM116.492 81.9742L116.464 82.1812C114.338 82.9716 113.15 85.6531 113.981 87.7635C114.812 89.8739 117.495 91.0274 119.603 90.1911C121.711 89.3543 122.875 86.6899 122.068 84.5704C121.262 82.4504 118.635 81.2328 116.492 81.9742Z" fill="#0166FF"/>
<path d="M139.328 133.698C139.993 132.213 139.143 130.4 137.825 129.445C137.046 128.882 136.142 128.557 135.206 128.318C136.226 125.83 135.858 129.665 136.198 50.0963C136.234 42.2361 134.613 36.2205 126.502 35.0594C125.731 34.6998 124.933 34.3887 124.117 34.115C124.261 31.0933 124.07 29.0089 124.11 26.7571C124.175 23.0379 121.103 20.1133 117.499 20.1133C117.493 20.1133 117.486 20.1133 117.48 20.1133L37.1728 20.3658C29.6115 20.389 21.7741 20.7082 16.4611 26.1935C13.4638 28.2773 11.3403 32.2419 10.3206 35.8507C8.53422 42.1722 8.99787 39.8963 9.37881 127.133C9.41721 135.953 11.6662 139.188 21.9089 139.375C59.5067 140.059 97.2184 140.209 134.589 136.024C136.424 135.818 138.573 135.383 139.328 133.698ZM21.5015 26.1592C26.192 23.5049 32.0298 23.4847 37.1809 23.4685L117.488 23.216H117.499C119.452 23.216 121.041 24.7941 121.007 26.7026C120.973 28.7169 121.113 30.8261 121.052 33.2807C114.537 31.8807 116.005 32.2695 29.0042 32.0192C27.8627 32.0162 18.5702 32.8894 15.3637 34.7432C15.9471 31.3769 18.2604 27.9964 21.5015 26.1592ZM132.909 94.3094L122.029 94.4114C114.852 94.4667 105.8 93.0952 106.609 85.9556C107.11 81.5183 111.985 79.6538 116.41 78.932C121.854 78.0432 127.568 78.2593 132.934 79.5562C132.946 79.5592 132.959 79.5552 132.971 79.5577L132.909 94.3094ZM132.984 76.4136C127.416 75.1576 121.532 74.9531 115.909 75.8697C109.964 76.8425 104.198 79.6202 103.526 85.6082C102.488 94.788 112.781 97.5847 122.058 97.5141L132.896 97.4126C132.712 125.595 133.182 126.404 131.861 127.944C130.932 129.03 127.294 130.196 125.152 130.307C89.3135 132.155 55.4055 134.08 20.0188 131.996C18.2938 131.895 16.9403 130.442 16.9343 128.689C16.8805 108.468 14.7188 40.1176 15.191 39.3761C17.8222 39.3761 29.4417 38.8257 67.479 38.7681C84.9399 38.7456 103.152 38.7129 120.842 37.9864C135.981 37.3927 132.924 42.8199 132.984 76.4136Z" fill="#616A7F"/>
<path d="M58.2531 60.6942C51.1273 61.3851 44.3186 65.1804 40.1322 70.9607C33.759 79.7605 34.1083 92.7188 40.808 101.277C47.5077 109.834 59.9393 113.388 70.2605 109.847C84.6964 104.894 93.3861 86.8412 85.6966 72.8612C80.5787 63.5559 69.1712 58.5655 58.2531 60.6942ZM85.9847 91.5437C84.0543 95.6536 81.6449 99.2351 78.1669 102.131C65.8594 111.278 47.9995 105.29 42.1217 94.3844C37.1306 85.1218 40.1648 72.8889 48.8565 66.3075C60.2571 57.6704 77.7549 61.3162 84.4698 73.5259C87.4743 78.9879 87.9919 85.6695 85.9847 91.5437Z" fill="#0166FF"/>
<path d="M67.9357 67.4224C65.0383 67.1235 62.0981 67.1354 59.1951 67.46C58.807 67.5031 58.5263 67.8441 58.5636 68.2264C59.3248 76.0343 60.4912 87.1278 60.8182 90.5688C60.8509 90.9053 61.1205 91.1721 61.4628 91.2042C62.7771 91.3297 63.89 91.2317 65.1867 91.0318C65.4992 90.9832 65.7436 90.7384 65.7855 90.4304C66.0868 88.2384 66.4143 85.5321 66.793 82.3986C68.652 66.9846 68.7301 68.07 68.4236 67.6864C68.3042 67.5379 68.1279 67.4425 67.9357 67.4224ZM59.4833 96.7506C59.4274 98.2073 60.2716 99.4064 61.7427 99.9583C64.951 101.163 68.5059 97.7698 66.4768 94.5953C64.4026 91.3534 59.621 93.2031 59.4833 96.7506Z" fill="#0166FF"/>
</svg>
