<svg width="10" height="12" viewBox="0 0 10 12" fill="none" xmlns="http://www.w3.org/2000/svg">
<path fill-rule="evenodd" clip-rule="evenodd" d="M5.51758 0.75C5.51758 0.335786 5.18179 0 4.76758 0C4.35336 0 4.01758 0.335786 4.01758 0.75L4.01758 8.93507L1.28143 6.18757C0.989141 5.89407 0.514268 5.89308 0.220769 6.18537C-0.0727299 6.47766 -0.0737131 6.95253 0.218573 7.24603L4.23524 11.2794C4.37599 11.4207 4.56724 11.5001 4.7667 11.5001C4.7898 11.5001 4.81279 11.4991 4.8356 11.497C5.02629 11.4798 5.19642 11.3913 5.31905 11.2583L9.31414 7.24598C9.6064 6.95246 9.60538 6.47759 9.31185 6.18533C9.01833 5.89306 8.54346 5.89409 8.2512 6.18761L5.51758 8.93303L5.51758 0.75Z" fill="#0166FF"/>
</svg>
