<svg width="20" height="20" viewBox="0 0 20 20" fill="none" xmlns="http://www.w3.org/2000/svg">
<path d="M15.8337 16.6667H14.167C11.8337 16.6667 10.0003 14.8333 10.0003 12.5V11.6667C10.0003 9.33333 11.8337 7.5 14.167 7.5H15.8337C16.0837 7.5 16.3337 7.5 16.5837 7.58333C16.3337 6.41667 15.3337 5.41667 14.167 5.16667V4.16667C14.167 3.25 13.417 2.5 12.5003 2.5H5.00033C3.16699 2.5 1.66699 4 1.66699 5.83333V15C1.66699 16.8333 3.16699 18.3333 5.00033 18.3333H13.3337C14.5837 18.3333 15.667 17.6667 16.2503 16.6667H15.8337ZM3.58366 5C3.83366 4.5 4.41699 4.16667 5.00033 4.16667H12.5003V5H3.58366ZM7.50033 15H5.83366C5.33366 15 5.00033 14.6667 5.00033 14.1667C5.00033 13.6667 5.33366 13.3333 5.83366 13.3333H7.50033C8.00033 13.3333 8.33366 13.6667 8.33366 14.1667C8.33366 14.6667 8.00033 15 7.50033 15Z" fill="#0166FF"/>
<path d="M15.8337 9.16699H14.167C12.8337 9.16699 11.667 10.3337 11.667 11.667V12.5003C11.667 13.8337 12.8337 15.0003 14.167 15.0003H15.8337C17.167 15.0003 18.3337 13.8337 18.3337 12.5003V11.667C18.3337 10.3337 17.167 9.16699 15.8337 9.16699Z" fill="#0166FF"/>
</svg>
