<svg width="18" height="17" viewBox="0 0 18 17" fill="none" xmlns="http://www.w3.org/2000/svg">
<path d="M14.8332 14.6667H13.1665C10.8332 14.6667 8.99984 12.8333 8.99984 10.5V9.66667C8.99984 7.33333 10.8332 5.5 13.1665 5.5H14.8332C15.0832 5.5 15.3332 5.5 15.5832 5.58333C15.3332 4.41667 14.3332 3.41667 13.1665 3.16667V2.16667C13.1665 1.25 12.4165 0.5 11.4998 0.5H3.99984C2.1665 0.5 0.666504 2 0.666504 3.83333V13C0.666504 14.8333 2.1665 16.3333 3.99984 16.3333H12.3332C13.5832 16.3333 14.6665 15.6667 15.2498 14.6667H14.8332ZM2.58317 3C2.83317 2.5 3.4165 2.16667 3.99984 2.16667H11.4998V3H2.58317ZM6.49984 13H4.83317C4.33317 13 3.99984 12.6667 3.99984 12.1667C3.99984 11.6667 4.33317 11.3333 4.83317 11.3333H6.49984C6.99984 11.3333 7.33317 11.6667 7.33317 12.1667C7.33317 12.6667 6.99984 13 6.49984 13Z" fill="white"/>
<path d="M14.8332 7.16602H13.1665C11.8332 7.16602 10.6665 8.33268 10.6665 9.66602V10.4993C10.6665 11.8327 11.8332 12.9993 13.1665 12.9993H14.8332C16.1665 12.9993 17.3332 11.8327 17.3332 10.4993V9.66602C17.3332 8.33268 16.1665 7.16602 14.8332 7.16602Z" fill="white"/>
</svg>
