<svg width="56" height="56" viewBox="0 0 56 56" fill="none" xmlns="http://www.w3.org/2000/svg">
<rect x="0.5" y="0.5" width="55" height="55" rx="17.5" fill="#01FFE3" fill-opacity="0.1" stroke="#01FFE3"/>
<path d="M33 23.0002V29.2502C33 30.2448 33.3951 31.1986 34.0984 31.9019C34.8016 32.6051 35.7555 33.0002 36.75 33.0002C37.7446 33.0002 38.6984 32.6051 39.4017 31.9019C40.1049 31.1986 40.5 30.2448 40.5 29.2502V28.0002C40.4998 25.179 39.5453 22.4408 37.7916 20.2309C36.0379 18.0209 33.5882 16.4692 30.8408 15.8281C28.0934 15.1869 25.2099 15.494 22.6592 16.6994C20.1085 17.9048 18.0405 19.9376 16.7916 22.4674C15.5427 24.9971 15.1862 27.8749 15.7802 30.6328C16.3742 33.3908 17.8837 35.8667 20.0633 37.658C22.2429 39.4493 24.9643 40.4506 27.7851 40.4991C30.6059 40.5476 33.3601 39.6405 35.6 37.9252M33 28.0002C33 30.7616 30.7614 33.0002 28 33.0002C25.2386 33.0002 23 30.7616 23 28.0002C23 25.2388 25.2386 23.0002 28 23.0002C30.7614 23.0002 33 25.2388 33 28.0002Z" stroke="#01FFE3" stroke-width="2" stroke-linecap="round" stroke-linejoin="round"/>
</svg>
