<svg width="56" height="56" viewBox="0 0 56 56" fill="none" xmlns="http://www.w3.org/2000/svg">
<rect x="0.5" y="0.5" width="55" height="55" rx="17.5" fill="#E2EBFB" stroke="#0166FF"/>
<path d="M33 23V29.25C33 30.2445 33.3951 31.1983 34.0984 31.9016C34.8016 32.6049 35.7555 33 36.75 33C37.7446 33 38.6984 32.6049 39.4017 31.9016C40.1049 31.1983 40.5 30.2445 40.5 29.25V28C40.4998 25.1787 39.5453 22.4406 37.7916 20.2306C36.0379 18.0207 33.5882 16.469 30.8408 15.8278C28.0934 15.1867 25.2099 15.4938 22.6592 16.6992C20.1085 17.9046 18.0405 19.9374 16.7916 22.4671C15.5427 24.9968 15.1862 27.8746 15.7802 30.6326C16.3742 33.3906 17.8837 35.8665 20.0633 37.6578C22.2429 39.4491 24.9643 40.4504 27.7851 40.4989C30.6059 40.5474 33.3601 39.6403 35.6 37.925M33 28C33 30.7614 30.7614 33 28 33C25.2386 33 23 30.7614 23 28C23 25.2385 25.2386 23 28 23C30.7614 23 33 25.2385 33 28Z" stroke="#0166FF" stroke-width="2" stroke-linecap="round" stroke-linejoin="round"/>
</svg>
