<svg width="36" height="36" viewBox="0 0 36 36" fill="none" xmlns="http://www.w3.org/2000/svg">
<path d="M18 3.5C21.2995 3.5 23.7302 3.50097 25.6143 3.72363C27.3702 3.93119 28.5943 4.32635 29.5664 5.05273L29.7578 5.20215C30.0425 5.43578 30.3095 5.69028 30.5566 5.96289L30.7979 6.24219C31.6205 7.24466 32.055 8.51275 32.2764 10.3857C32.499 12.2698 32.5 14.7005 32.5 18C32.5 21.2995 32.499 23.7302 32.2764 25.6143C32.0688 27.3702 31.6736 28.5943 30.9473 29.5664L30.7979 29.7578C30.5642 30.0425 30.3097 30.3095 30.0371 30.5566L29.7578 30.7979C28.7553 31.6205 27.4872 32.055 25.6143 32.2764C23.7302 32.499 21.2995 32.5 18 32.5C14.7005 32.5 12.2698 32.499 10.3857 32.2764C8.62982 32.0688 7.40572 31.6736 6.43359 30.9473L6.24219 30.7979C5.95751 30.5642 5.69048 30.3097 5.44336 30.0371L5.20215 29.7578C4.37953 28.7553 3.94503 27.4872 3.72363 25.6143C3.50097 23.7302 3.5 21.2995 3.5 18C3.5 14.7005 3.50097 12.2698 3.72363 10.3857C3.93119 8.62982 4.32635 7.40572 5.05273 6.43359L5.20215 6.24219C5.43578 5.95751 5.69029 5.69048 5.96289 5.44336L6.24219 5.20215C7.24466 4.37953 8.51275 3.94503 10.3857 3.72363C12.2698 3.50097 14.7005 3.5 18 3.5Z" stroke="#EC5557"/>
<path d="M14.6757 13.459C14.3175 13.459 14.0271 13.7494 14.0271 14.1076C14.0271 14.4659 14.3175 14.7563 14.6757 14.7563H19.0001C19.3583 14.7563 19.6487 14.4659 19.6487 14.1076C19.6487 13.7494 19.3583 13.459 19.0001 13.459H14.6757Z" fill="#EC5557"/>
<path d="M14.6757 16.4866C14.3175 16.4866 14.0271 16.777 14.0271 17.1352C14.0271 17.4934 14.3175 17.7839 14.6757 17.7839H19.0001C19.3583 17.7839 19.6487 17.4934 19.6487 17.1352C19.6487 16.777 19.3583 16.4866 19.0001 16.4866H14.6757Z" fill="#EC5557"/>
<path fill-rule="evenodd" clip-rule="evenodd" d="M13.3784 10C12.0648 10 11 11.0648 11 12.3784V23.6216C11 24.9352 12.0648 26 13.3784 26H22.8919C24.2054 26 25.2703 24.9352 25.2703 23.6216V21.8919C25.2703 20.5783 24.2054 19.5135 22.8919 19.5135H22.6757V12.3784C22.6757 11.0648 21.6109 10 20.2973 10H13.3784ZM21.3784 12.3784V19.5135H15.973C14.6594 19.5135 13.5946 20.5783 13.5946 21.8919V24.7027H13.3784C12.7813 24.7027 12.2973 24.2187 12.2973 23.6216V12.3784C12.2973 11.7813 12.7813 11.2973 13.3784 11.2973H20.2973C20.8944 11.2973 21.3784 11.7813 21.3784 12.3784ZM14.8919 21.8919V24.7027H22.8919C23.489 24.7027 23.973 24.2187 23.973 23.6216V21.8919C23.973 21.2948 23.489 20.8108 22.8919 20.8108H15.973C15.3759 20.8108 14.8919 21.2948 14.8919 21.8919Z" fill="#EC5557"/>
</svg>
