<svg width="22" height="22" viewBox="0 0 22 22" fill="none" xmlns="http://www.w3.org/2000/svg">
<path d="M16.6316 13.3276C16.0993 13.3281 15.575 13.4581 15.104 13.7063C14.6331 13.9546 14.2296 14.3138 13.9285 14.7528L9.3453 12.6834C9.67082 11.8973 9.67209 11.0144 9.34882 10.2274L13.9257 8.14736C14.372 8.79288 15.0349 9.25705 15.7941 9.45567C16.5534 9.65429 17.3587 9.57422 18.0639 9.22996C18.7692 8.88571 19.3277 8.30009 19.6382 7.57932C19.9486 6.85855 19.9905 6.05037 19.7561 5.30139C19.5218 4.55241 19.0267 3.91223 18.3608 3.49698C17.6949 3.08172 16.9022 2.9189 16.1265 3.03804C15.3508 3.15718 14.6435 3.5504 14.1328 4.14636C13.6222 4.74232 13.3421 5.50156 13.3433 6.28635C13.3463 6.4721 13.3652 6.65725 13.3997 6.8398L8.53414 9.05076C8.06684 8.61295 7.48182 8.32117 6.85097 8.21127C6.22012 8.10138 5.5709 8.17815 4.98308 8.43215C4.39526 8.68616 3.89443 9.10634 3.54214 9.64108C3.18984 10.1758 3.00141 10.8018 3.00001 11.4422C2.9986 12.0825 3.18427 12.7093 3.53422 13.2456C3.88416 13.7819 4.38313 14.2043 4.96983 14.4609C5.55653 14.7174 6.2054 14.7971 6.83674 14.6899C7.46807 14.5828 8.05436 14.2936 8.52358 13.8579L13.4018 16.0604C13.3679 16.2428 13.3493 16.4276 13.3462 16.6131C13.346 17.2631 13.5387 17.8986 13.8997 18.4391C14.2607 18.9796 14.774 19.4009 15.3744 19.6497C15.9749 19.8985 16.6357 19.9637 17.2733 19.8369C17.9108 19.7101 18.4964 19.3971 18.956 18.9375C19.4156 18.4779 19.7286 17.8923 19.8554 17.2548C19.9822 16.6172 19.917 15.9564 19.6682 15.3559C19.4194 14.7554 18.9981 14.2422 18.4576 13.8812C17.9171 13.5201 17.2816 13.3275 16.6316 13.3276ZM16.6316 4.40843C17.0031 4.40829 17.3662 4.51831 17.6751 4.72458C17.9841 4.93084 18.2249 5.22408 18.3671 5.56721C18.5093 5.91035 18.5466 6.28795 18.4743 6.65228C18.4019 7.01661 18.2231 7.35128 17.9605 7.61399C17.6979 7.87669 17.3633 8.05561 16.999 8.12813C16.6347 8.20065 16.257 8.1635 15.9139 8.02138C15.5707 7.87927 15.2773 7.63857 15.071 7.32974C14.8646 7.0209 14.7544 6.6578 14.7544 6.28635C14.7548 5.78853 14.9527 5.3112 15.3046 4.95912C15.6566 4.60705 16.1338 4.40899 16.6316 4.40843ZM6.30486 13.3276C5.93342 13.3278 5.57027 13.2178 5.26136 13.0115C4.95245 12.8052 4.71164 12.512 4.5694 12.1689C4.42715 11.8257 4.38986 11.4481 4.46224 11.0838C4.53462 10.7195 4.71342 10.3848 4.97603 10.1221C5.23863 9.8594 5.57324 9.68047 5.93754 9.60795C6.30184 9.53544 6.67946 9.57259 7.02264 9.7147C7.36583 9.85681 7.65916 10.0975 7.86554 10.4063C8.07192 10.7152 8.18208 11.0783 8.18208 11.4497C8.18152 11.9475 7.98358 12.4247 7.63168 12.7768C7.27977 13.1288 6.80262 13.3269 6.30486 13.3276ZM16.6316 18.491C16.2602 18.491 15.8971 18.3809 15.5883 18.1745C15.2795 17.9682 15.0388 17.6749 14.8967 17.3318C14.7545 16.9886 14.7173 16.611 14.7898 16.2468C14.8623 15.8825 15.0411 15.5479 15.3037 15.2852C15.5664 15.0226 15.901 14.8437 16.2653 14.7713C16.6296 14.6988 17.0071 14.736 17.3503 14.8782C17.6934 15.0203 17.9867 15.261 18.1931 15.5698C18.3994 15.8786 18.5095 16.2417 18.5095 16.6131C18.5092 17.1111 18.3112 17.5885 17.9591 17.9406C17.607 18.2927 17.1296 18.4907 16.6316 18.491Z" fill="white"/>
</svg>
