<svg width="80" height="80" viewBox="0 0 80 80" fill="none" xmlns="http://www.w3.org/2000/svg">
<path d="M40 0C17.9412 0 0 17.9378 0 40C0 62.0622 17.9412 80 40 80C62.0588 80 80 62.0622 80 40C80 17.9378 62.3529 0 40 0ZM40 76.8576C19.8366 76.8576 3.46404 60.1637 3.46404 40C3.46404 19.8363 19.8366 3.10966 40 3.10966C60.1634 3.10966 76.8301 19.8363 76.8301 40C76.8301 60.1637 60.4575 76.8576 40 76.8576ZM21.4052 30.2782C21.4052 26.8085 24.2484 23.9607 27.4183 23.9607C30.8823 23.9607 33.6928 26.8412 33.6928 30.2782C33.6928 33.3879 30.8823 36.2684 27.4183 36.2684C24.2484 36.2684 21.4052 33.3879 21.4052 30.2782ZM47.8758 30.2782C47.8758 26.8085 50.3922 23.9607 53.8562 23.9607C57.3203 23.9607 60.1634 26.8412 60.1634 30.2782C60.1634 33.3879 57.3203 36.2684 53.8562 36.2684C50.3922 36.2684 47.8758 33.3879 47.8758 30.2782ZM62.0262 45.9902C59.5098 55.1227 51.0131 62.0622 40.915 62.0622C30.817 62.0622 22.3529 55.1227 19.8039 45.9902C24.5425 52.5696 32.0915 44.419 40.915 44.419C49.7386 44.419 57.6144 52.9296 62.0262 45.9902Z" fill="#4CD964"/>
</svg>
