<svg width="20" height="22" viewBox="0 0 20 22" fill="none" xmlns="http://www.w3.org/2000/svg">
<path d="M6.11102 7.29592L7.0162 7.4598C7.12242 7.86446 7.27972 8.25313 7.48409 8.61592L6.95716 9.38816C6.8628 9.52563 6.81873 9.69289 6.83273 9.86045C6.84673 10.028 6.9179 10.1851 7.03369 10.3041L7.57592 10.8608C7.69177 10.9797 7.84479 11.0528 8.00799 11.0672C8.17119 11.0815 8.33409 11.0363 8.46797 10.9394L9.2201 10.3984C9.57347 10.6081 9.95201 10.7696 10.3461 10.8788L10.5057 11.8082C10.534 11.9735 10.6181 12.1233 10.7432 12.2312C10.8684 12.3392 11.0266 12.3985 11.1901 12.3986H11.9662C12.1297 12.3985 12.2879 12.3392 12.4131 12.2312C12.5382 12.1233 12.6223 11.9735 12.6506 11.8082L12.8102 10.8788C13.2035 10.7695 13.5813 10.608 13.934 10.3984L14.6861 10.9394C14.82 11.0363 14.9829 11.0815 15.1461 11.0672C15.3093 11.0528 15.4623 10.9797 15.5782 10.8608L16.1204 10.3041C16.2362 10.1851 16.3074 10.028 16.3214 9.86045C16.3354 9.69289 16.2913 9.52563 16.1969 9.38816L15.6613 8.61592C15.8626 8.25265 16.0169 7.864 16.1204 7.4598L17.0256 7.29592C17.1866 7.26689 17.3325 7.18054 17.4377 7.05204C17.5428 6.92354 17.6005 6.76111 17.6006 6.59327V5.80531C17.6005 5.63747 17.5428 5.47503 17.4377 5.34653C17.3325 5.21803 17.1866 5.13168 17.0256 5.10265L16.1204 4.93878C16.0141 4.53413 15.8568 4.14547 15.6525 3.78265L16.1794 3.01041C16.2761 2.87498 16.3231 2.70892 16.3123 2.54142C16.3015 2.37391 16.2336 2.21566 16.1204 2.09449L15.5694 1.53776C15.4539 1.41853 15.301 1.34504 15.1378 1.33025C14.9746 1.31547 14.8115 1.36033 14.6774 1.45694L13.934 1.99796C13.5807 1.78812 13.2021 1.62662 12.808 1.51755L12.6484 0.588163C12.6197 0.423643 12.5358 0.274664 12.4111 0.167185C12.2864 0.0597065 12.129 0.000541681 11.9662 0H11.1879C11.0244 0.000109577 10.8662 0.0593536 10.741 0.167327C10.6159 0.2753 10.5318 0.425097 10.5035 0.590408L10.3439 1.5198C9.94992 1.6282 9.57139 1.78895 9.21791 1.99796L8.46797 1.45694C8.33384 1.36033 8.17079 1.31547 8.00759 1.33025C7.84438 1.34504 7.6915 1.41853 7.57592 1.53776L7.03369 2.09449C6.9179 2.21344 6.84673 2.37055 6.83273 2.53812C6.81873 2.70568 6.8628 2.87294 6.95716 3.01041L7.48409 3.78265C7.27898 4.14534 7.12095 4.53401 7.01401 4.93878L6.10884 5.10265C5.94783 5.13168 5.80194 5.21803 5.69678 5.34653C5.59162 5.47503 5.53392 5.63747 5.53381 5.80531V6.59327C5.53401 6.76143 5.59202 6.92413 5.69761 7.05267C5.80321 7.18122 5.94962 7.26736 6.11102 7.29592ZM11.5771 3.54694C12.0875 3.54827 12.5861 3.70489 13.0098 3.99702C13.4336 4.28915 13.7635 4.70368 13.958 5.18824C14.1524 5.67281 14.2026 6.20566 14.1022 6.71951C14.0019 7.23335 13.7554 7.70512 13.394 8.07523C13.0327 8.44534 12.5725 8.69717 12.0718 8.79893C11.5711 8.90068 11.0523 8.84778 10.5808 8.64692C10.1094 8.44606 9.7065 8.10625 9.42306 7.6704C9.13962 7.23456 8.98834 6.72224 8.98834 6.19816C8.9895 5.49499 9.26222 4.82099 9.74669 4.32398C10.2312 3.82698 10.8878 3.54753 11.5727 3.54694H11.5771ZM4.33566 22L0 17.6629L3.1047 14.4953C3.73531 13.8522 4.5295 13.4044 5.39641 13.2031C6.26332 13.0018 7.1679 13.0552 8.00664 13.3571L8.68661 13.6018H12.8845C13.0611 13.6017 13.2359 13.6382 13.3984 13.7091C13.561 13.78 13.7079 13.8838 13.8304 14.0144C13.9529 14.145 14.0484 14.2997 14.1113 14.4691C14.1742 14.6385 14.2031 14.8192 14.1964 15.0004C14.1767 15.3599 14.0223 15.6976 13.7655 15.9428C13.5087 16.188 13.1695 16.3217 12.8189 16.3159H10.3089C10.1727 16.3159 10.042 16.3715 9.94562 16.4704C9.84926 16.5694 9.79513 16.7036 9.79513 16.8435C9.79513 16.9834 9.84926 17.1176 9.94562 17.2165C10.042 17.3154 10.1727 17.371 10.3089 17.371H12.8277C13.4424 17.3714 14.0339 17.1302 14.4807 16.6969C14.9276 16.2635 15.1959 15.6709 15.2305 15.0408C15.2305 15.0408 15.2305 15.0184 15.2305 15.0071L17.5613 12.3133C17.7985 12.032 18.132 11.8553 18.4927 11.8198C18.8533 11.7843 19.2135 11.8927 19.4984 12.1224C19.6408 12.2425 19.7581 12.3907 19.8435 12.5583C19.9289 12.7259 19.9806 12.9094 19.9955 13.0979C20.0104 13.2864 19.9882 13.4761 19.9302 13.6556C19.8722 13.8351 19.7797 14.0008 19.658 14.1429L15.0053 19.6047C14.6991 19.9655 14.3211 20.2548 13.8968 20.453C13.4725 20.6513 13.0118 20.7539 12.5456 20.7541H5.54911L4.33566 22ZM10.1974 6.19816C10.1974 5.91889 10.2781 5.64588 10.4292 5.41368C10.5803 5.18147 10.7951 5.00048 11.0464 4.89361C11.2977 4.78673 11.5742 4.75877 11.841 4.81325C12.1077 4.86774 12.3528 5.00222 12.5451 5.1997C12.7375 5.39718 12.8684 5.64878 12.9215 5.92269C12.9746 6.1966 12.9473 6.48051 12.8432 6.73853C12.7392 6.99654 12.5629 7.21707 12.3367 7.37223C12.1106 7.52739 11.8447 7.6102 11.5727 7.6102C11.2079 7.6102 10.8581 7.46144 10.6002 7.19663C10.3423 6.93182 10.1974 6.57266 10.1974 6.19816Z" fill="white"/>
</svg>
