<svg width="186" height="142" viewBox="0 0 186 142" fill="none" xmlns="http://www.w3.org/2000/svg">
<path d="M47.015 52.316H28.9284L24.9293 43.623L11.7708 43.6261" stroke="white" stroke-width="2.5" stroke-linecap="round" stroke-linejoin="round"/>
<path d="M20.6161 90.7304L33.7981 90.7291L37.7972 82.0361H49.6242" stroke="white" stroke-width="2.5" stroke-linecap="round" stroke-linejoin="round"/>
<path d="M46.146 69.1875L15.0958 69.1897" stroke="white" stroke-width="2.5" stroke-linecap="round" stroke-linejoin="round"/>
<path d="M4.76154 43.6315C4.76154 47.5152 7.8985 50.6546 11.7822 50.6546C15.6371 50.6546 18.7741 47.5152 18.7741 43.6315C18.7741 39.7449 15.6371 36.6104 11.7822 36.6104C7.8985 36.6104 4.76154 39.7449 4.76154 43.6315Z" fill="#AC7E99"/>
<path d="M4.76154 43.6315C4.76154 47.5152 7.8985 50.6546 11.7822 50.6546C15.6371 50.6546 18.7741 47.5152 18.7741 43.6315C18.7741 39.7449 15.6371 36.6104 11.7822 36.6104C7.8985 36.6104 4.76154 39.7449 4.76154 43.6315Z" stroke="white" stroke-width="2.5" stroke-linecap="round" stroke-linejoin="round"/>
<path d="M2 69.1867C2 73.0704 5.13985 76.2074 9.02358 76.2074C12.8785 76.2074 16.0154 73.0704 16.0154 69.1867C16.0154 65.3001 12.8785 62.1631 9.02358 62.1631C5.13985 62.1631 2 65.3001 2 69.1867Z" fill="#F2931F"/>
<path d="M2 69.1867C2 73.0704 5.13985 76.2074 9.02358 76.2074C12.8785 76.2074 16.0154 73.0704 16.0154 69.1867C16.0154 65.3001 12.8785 62.1631 9.02358 62.1631C5.13985 62.1631 2 65.3001 2 69.1867Z" stroke="white" stroke-width="2.5" stroke-linecap="round" stroke-linejoin="round"/>
<path d="M10.9965 90.7326C10.9965 94.6163 14.1363 97.7533 18.02 97.7533C21.8749 97.7533 25.0119 94.6163 25.0119 90.7326C25.0119 86.8488 21.8749 83.709 18.02 83.709C14.1363 83.709 10.9965 86.8488 10.9965 90.7326Z" fill="#1FB9EA"/>
<path d="M10.9965 90.7326C10.9965 94.6163 14.1363 97.7533 18.02 97.7533C21.8749 97.7533 25.0119 94.6163 25.0119 90.7326C25.0119 86.8488 21.8749 83.709 18.02 83.709C14.1363 83.709 10.9965 86.8488 10.9965 90.7326Z" stroke="white" stroke-width="2.5" stroke-linecap="round" stroke-linejoin="round"/>
<path d="M12.0728 43.743C10.761 44.8617 8.88685 44.8156 7.88349 43.6392C6.88012 42.4629 7.13096 40.6032 8.44284 39.4845C9.75471 38.3658 11.6317 38.4119 12.6351 39.5883C13.6384 40.7646 13.3847 42.6243 12.0728 43.743Z" fill="#D8BAC8"/>
<path d="M9.11587 69.309C7.80399 70.4277 5.92989 70.3787 4.92652 69.2023C3.92315 68.0259 4.17399 66.1663 5.48587 65.0476C6.79774 63.9289 8.67185 63.9779 9.67522 65.1542C10.6786 66.3306 10.4277 68.1903 9.11587 69.309Z" fill="#F2B71A"/>
<path d="M18.0736 90.9032C16.7617 92.0219 14.8847 91.9753 13.8814 90.7989C12.878 89.6226 13.1288 87.7633 14.4407 86.6446C15.7526 85.5259 17.6296 85.5721 18.6329 86.7484C19.6363 87.9248 19.3855 89.7845 18.0736 90.9032Z" fill="#86D4EE"/>
<path d="M139.125 52.316H157.212L161.211 43.623L174.369 43.6261" stroke="white" stroke-width="2.5" stroke-linecap="round" stroke-linejoin="round"/>
<path d="M165.524 90.7304L152.342 90.7291L148.343 82.0361H136.516" stroke="white" stroke-width="2.5" stroke-linecap="round" stroke-linejoin="round"/>
<path d="M139.994 69.1875L171.044 69.1897" stroke="white" stroke-width="2.5" stroke-linecap="round" stroke-linejoin="round"/>
<path d="M181.379 43.6315C181.379 47.5152 178.242 50.6546 174.358 50.6546C170.503 50.6546 167.366 47.5152 167.366 43.6315C167.366 39.7449 170.503 36.6104 174.358 36.6104C178.242 36.6104 181.379 39.7449 181.379 43.6315Z" fill="#DA4435"/>
<path d="M181.379 43.6315C181.379 47.5152 178.242 50.6546 174.358 50.6546C170.503 50.6546 167.366 47.5152 167.366 43.6315C167.366 39.7449 170.503 36.6104 174.358 36.6104C178.242 36.6104 181.379 39.7449 181.379 43.6315Z" stroke="white" stroke-width="2.5" stroke-linecap="round" stroke-linejoin="round"/>
<path d="M184.14 69.1867C184.14 73.0704 181 76.2074 177.117 76.2074C173.262 76.2074 170.125 73.0704 170.125 69.1867C170.125 65.3001 173.262 62.1631 177.117 62.1631C181 62.1631 184.14 65.3001 184.14 69.1867Z" fill="#1FB9EA"/>
<path d="M184.14 69.1867C184.14 73.0704 181 76.2074 177.117 76.2074C173.262 76.2074 170.125 73.0704 170.125 69.1867C170.125 65.3001 173.262 62.1631 177.117 62.1631C181 62.1631 184.14 65.3001 184.14 69.1867Z" stroke="white" stroke-width="2.5" stroke-linecap="round" stroke-linejoin="round"/>
<path d="M175.144 90.7326C175.144 94.6163 172.004 97.7533 168.12 97.7533C164.265 97.7533 161.128 94.6163 161.128 90.7326C161.128 86.8488 164.265 83.709 168.12 83.709C172.004 83.709 175.144 86.8488 175.144 90.7326Z" fill="#25B172"/>
<path d="M175.144 90.7326C175.144 94.6163 172.004 97.7533 168.12 97.7533C164.265 97.7533 161.128 94.6163 161.128 90.7326C161.128 86.8488 164.265 83.709 168.12 83.709C172.004 83.709 175.144 86.8488 175.144 90.7326Z" stroke="white" stroke-width="2.5" stroke-linecap="round" stroke-linejoin="round"/>
<path d="M174.067 43.743C175.379 44.8617 177.253 44.8156 178.257 43.6392C179.26 42.4629 179.009 40.6032 177.697 39.4845C176.385 38.3658 174.508 38.4119 173.505 39.5883C172.502 40.7646 172.755 42.6243 174.067 43.743Z" fill="#ED6B5A"/>
<path d="M177.024 69.309C178.336 70.4277 180.21 70.3787 181.214 69.2023C182.217 68.0259 181.966 66.1663 180.654 65.0476C179.342 63.9289 177.468 63.9779 176.465 65.1542C175.462 66.3306 175.712 68.1903 177.024 69.309Z" fill="#86D4EE"/>
<path d="M168.067 90.9032C169.378 92.0219 171.255 91.9753 172.259 90.7989C173.262 89.6226 173.011 87.7633 171.699 86.6446C170.388 85.5259 168.511 85.5721 167.507 86.7484C166.504 87.9248 166.755 89.7845 168.067 90.9032Z" fill="#78C592"/>
<path d="M138.709 18.2478C144.605 20.4823 148.503 26.1277 148.503 32.4333V57.1168C148.503 90.9228 130.068 121.998 100.373 138.194C95.8264 140.696 90.3165 140.702 85.7639 138.208L85.7379 138.194C56.0723 121.998 37.608 90.9228 37.608 57.1168V32.4362C37.608 26.1306 41.509 20.4823 47.4052 18.2478L87.6928 2.98391C91.1584 1.67203 94.9816 1.67203 98.4473 2.98391L138.709 18.2478Z" fill="black"/>
<path d="M138.709 18.2478C144.605 20.4823 148.503 26.1277 148.503 32.4333V57.1168C148.503 90.9228 130.068 121.998 100.373 138.194C95.8264 140.696 90.3165 140.702 85.7639 138.208L85.7379 138.194C56.0723 121.998 37.608 90.9228 37.608 57.1168V32.4362C37.608 26.1306 41.509 20.4823 47.4052 18.2478L87.6928 2.98391C91.1584 1.67203 94.9816 1.67203 98.4473 2.98391L138.709 18.2478Z" stroke="white" stroke-width="2.5" stroke-linecap="round" stroke-linejoin="round"/>
<path d="M116.834 32.8977C132.99 46.0428 135.43 69.7795 122.303 85.9137C109.176 102.048 85.4414 104.485 69.2848 91.34C53.1506 78.2131 50.7115 54.4806 63.8384 38.3464C76.9653 22.2122 100.7 19.7708 116.834 32.8977Z" fill="#FFD600"/>
<path d="M116.834 32.8977C132.99 46.0428 135.43 69.7795 122.303 85.9137C109.176 102.048 85.4414 104.485 69.2848 91.34C53.1506 78.2131 50.7115 54.4806 63.8384 38.3464C76.9653 22.2122 100.7 19.7708 116.834 32.8977Z" stroke="#F89520" stroke-width="2.5" stroke-linecap="round" stroke-linejoin="round"/>
<path d="M108.14 42.9819C118.395 51.325 119.943 66.3896 111.618 76.6216C103.273 86.8783 88.2105 88.4243 77.9561 80.0812C67.7241 71.7563 66.1763 56.6958 74.5211 46.4392C82.846 36.2071 97.9083 34.6571 108.14 42.9819Z" fill="white"/>
<path d="M108.14 42.9819C118.395 51.325 119.943 66.3896 111.618 76.6216C103.273 86.8783 88.2105 88.4243 77.9561 80.0812C67.7241 71.7563 66.1763 56.6958 74.5211 46.4392C82.846 36.2071 97.9083 34.6571 108.14 42.9819Z" stroke="#F89520" stroke-width="2.5" stroke-linecap="round" stroke-linejoin="round"/>
<path d="M63.8417 38.3564L66.8342 40.7911" stroke="#F89520" stroke-width="2.5" stroke-linecap="round" stroke-linejoin="round"/>
<path d="M55.5888 65.9844L59.4259 65.59" stroke="#F89520" stroke-width="2.5" stroke-linecap="round" stroke-linejoin="round"/>
<path d="M69.2887 91.3564L71.7216 88.3662" stroke="#F89520" stroke-width="2.5" stroke-linecap="round" stroke-linejoin="round"/>
<path d="M96.9164 99.6082L96.5243 95.7729" stroke="#F89520" stroke-width="2.5" stroke-linecap="round" stroke-linejoin="round"/>
<path d="M122.288 85.9094L119.297 83.4766" stroke="#F89520" stroke-width="2.5" stroke-linecap="round" stroke-linejoin="round"/>
<path d="M130.541 58.2816L126.706 58.6777" stroke="#F89520" stroke-width="2.5" stroke-linecap="round" stroke-linejoin="round"/>
<path d="M116.841 32.9102L114.408 35.9004" stroke="#F89520" stroke-width="2.5" stroke-linecap="round" stroke-linejoin="round"/>
<path d="M89.2129 24.6587L89.6073 28.4958" stroke="#F89520" stroke-width="2.5" stroke-linecap="round" stroke-linejoin="round"/>
<path d="M101.621 64.0893L101.621 64.0892L101.617 64.0831C101.031 63.278 100.352 62.6474 99.6111 62.2059C99.9411 62.0002 100.265 61.7392 100.565 61.4585C101.022 61.031 101.4 60.4721 101.711 59.8493L101.711 59.8494L101.715 59.8417C102.049 59.1437 102.191 58.342 102.191 57.5152C102.191 56.2152 101.91 55.0359 101.355 54.0421L101.355 54.042L101.349 54.0327C100.761 53.0302 99.8813 52.2469 98.7401 51.6763L98.7321 51.6723L98.7239 51.6686C98.1307 51.3982 97.4049 51.1856 96.6147 51.0462V47.4008C96.6147 47.2188 96.5701 46.9616 96.3616 46.7531L96.3616 46.7531C96.2777 46.6693 96.1757 46.5971 96.0473 46.5517C95.9261 46.5088 95.8099 46.5 95.714 46.5H93.0441C92.8622 46.5 92.6049 46.5446 92.3964 46.7531L92.3964 46.7531C92.188 46.9616 92.1433 47.2188 92.1433 47.4008V50.8508H90.8483V47.4008C90.8483 47.2188 90.8036 46.9616 90.5951 46.7531L90.5953 46.753L90.5854 46.7437C90.5313 46.6924 90.4464 46.6222 90.3193 46.5706C90.1967 46.5208 90.0638 46.5 89.9215 46.5H87.2805C87.0986 46.5 86.8413 46.5446 86.6328 46.7531L86.6328 46.7531C86.4244 46.9616 86.3797 47.2188 86.3797 47.4008V50.8508H84.5039C84.2432 50.8508 83.9713 50.9342 83.7755 51.1299L83.7564 51.149L83.7395 51.1701C83.5703 51.3805 83.4705 51.6242 83.4705 51.9102V73.6931C83.4705 73.9057 83.5041 74.199 83.7496 74.4445C83.9539 74.6488 84.2153 74.7524 84.5039 74.7524H86.3797V77.6431C86.3797 77.8213 86.4227 78.0831 86.636 78.291C86.7805 78.4341 86.9861 78.541 87.2805 78.541H89.9475C90.1742 78.541 90.3591 78.4724 90.5433 78.333L90.5985 78.2912L90.6403 78.236C90.6999 78.1573 90.7567 78.0664 90.7957 77.9578C90.836 77.8457 90.8483 77.7401 90.8483 77.6431V74.7524H92.1433V77.6431C92.1433 77.8212 92.1863 78.083 92.3995 78.291C92.4828 78.3735 92.5839 78.4444 92.7108 78.4893C92.832 78.5322 92.9482 78.541 93.0441 78.541H95.714C95.895 78.541 96.1505 78.4968 96.3584 78.2911C96.5718 78.0831 96.6147 77.8213 96.6147 77.6431V74.5564C97.4885 74.4126 98.2761 74.1669 98.9542 73.817C100.176 73.2205 101.112 72.384 101.727 71.2718C102.365 70.1956 102.672 68.9335 102.672 67.5806C102.672 66.2604 102.327 65.0905 101.621 64.0893ZM96.0965 55.5883L96.0964 55.5884L96.1058 55.5966C96.6216 56.0474 96.9208 56.7031 96.9208 57.5959C96.9208 58.457 96.6226 59.1534 96.0886 59.6657L96.0885 59.6656L96.0812 59.6729C95.5948 60.1594 94.7852 60.4607 93.6063 60.4607H88.5791V54.8667H93.6063C94.7762 54.8667 95.5883 55.1213 96.0965 55.5883ZM96.5079 69.7874L96.501 69.7943L96.4943 69.8016C95.9479 70.3929 95.1087 70.7365 93.9264 70.7365H88.5791V64.3958H93.9264C95.0862 64.3958 95.9288 64.7131 96.5046 65.2869C97.0732 65.8794 97.3764 66.6581 97.3764 67.5806C97.3764 68.4534 97.098 69.1973 96.5079 69.7874Z" fill="#F89520" stroke="black"/>
</svg>
