<svg width="30" height="30" viewBox="0 0 30 30" fill="none" xmlns="http://www.w3.org/2000/svg">
<path d="M29.5174 16.0919C29.5638 17.1995 29.1689 18.2803 28.4194 19.0971C27.67 19.9139 26.6271 20.4001 25.5196 20.4489C25.4548 20.452 25.3902 20.4535 25.3256 20.4535C25.0314 20.4533 24.738 20.4214 24.4505 20.3585C23.5976 21.6754 22.4793 22.7997 21.167 23.6596C19.8546 24.5196 18.3773 25.0961 16.8294 25.3524C16.6463 25.8903 16.2811 26.3473 15.7968 26.6444C15.3125 26.9415 14.7397 27.0601 14.1772 26.9796C13.6148 26.8992 13.0982 26.6248 12.7166 26.2038C12.335 25.7828 12.1125 25.2417 12.0876 24.6741C12.0626 24.1065 12.2368 23.548 12.5799 23.0952C12.9231 22.6424 13.4137 22.3237 13.9669 22.1942C14.5201 22.0647 15.1011 22.1325 15.6096 22.386C16.1181 22.6395 16.522 23.0626 16.7516 23.5824C18.9308 23.1793 20.8995 22.0244 22.3145 20.3188C23.7296 18.6132 24.5013 16.4652 24.4951 14.249C24.4951 9.01338 20.2356 4.75391 15 4.75391C9.76431 4.75391 5.50484 9.01338 5.50484 14.249C5.50455 15.868 5.91831 17.4601 6.70677 18.8741C6.73349 18.9207 6.75355 18.9709 6.76636 19.0231C6.84252 19.2348 6.83438 19.4677 6.74362 19.6735C6.65287 19.8793 6.48645 20.0424 6.2788 20.129C5.77036 20.3429 5.22427 20.4531 4.67263 20.453C4.60771 20.453 4.54265 20.4515 4.47746 20.4485C3.37043 20.399 2.32821 19.9126 1.57932 19.0958C0.830423 18.2791 0.435979 17.1987 0.482475 16.0915C0.501166 15.65 0.490736 15.2561 0.480541 14.8752C0.471049 14.5165 0.461146 14.1456 0.477435 13.7586C0.526049 12.6776 0.991064 11.6573 1.77508 10.9114C2.5591 10.1656 3.60131 9.75204 4.68341 9.7574C6.42107 5.7817 10.391 2.99609 15 2.99609C19.6089 2.99609 23.5789 5.7817 25.3166 9.75746C26.3988 9.75129 27.4413 10.1645 28.2255 10.9103C29.0096 11.6562 29.4744 12.6768 29.5224 13.7579C29.5388 14.1455 29.5289 14.5164 29.5193 14.875C29.5092 15.256 29.4987 15.6501 29.5174 16.0919ZM22.3713 14.249C22.3709 15.3783 22.1111 16.4924 21.612 17.5055C21.1129 18.5185 20.3877 19.4033 19.4926 20.0918C18.5974 20.7802 17.556 21.2539 16.4488 21.4762C15.3416 21.6985 14.1981 21.6635 13.1066 21.374L10.1229 23.0971C9.97236 23.184 9.79941 23.2244 9.62594 23.213C9.45247 23.2017 9.28626 23.1391 9.14834 23.0333C9.01041 22.9274 8.90697 22.7831 8.8511 22.6185C8.79522 22.4538 8.78942 22.2764 8.83443 22.1084L9.59697 19.2638C8.33416 17.8989 7.63152 16.1085 7.62886 14.249C7.62886 10.1833 10.9354 6.87594 15 6.87594C19.0645 6.87594 22.3713 10.1833 22.3713 14.249ZM12.9506 14.249C12.9506 14.0159 12.858 13.7924 12.6932 13.6275C12.5284 13.4627 12.3048 13.3701 12.0717 13.3701H12.0703C11.8965 13.3704 11.7267 13.4223 11.5824 13.519C11.4381 13.6158 11.3257 13.7532 11.2594 13.9138C11.1932 14.0744 11.176 14.2511 11.2101 14.4215C11.2442 14.5919 11.328 14.7483 11.451 14.8711C11.574 14.9938 11.7306 15.0774 11.901 15.1112C12.0715 15.1449 12.2481 15.1274 12.4086 15.0609C12.5691 14.9943 12.7063 14.8816 12.8028 14.7371C12.8993 14.5926 12.9508 14.4228 12.9508 14.249H12.9506ZM15.879 14.249C15.879 14.2203 15.8774 14.1915 15.8744 14.1629C15.8716 14.1342 15.8673 14.1056 15.8615 14.0773C15.8563 14.0492 15.8492 14.0214 15.8404 13.9941C15.8322 13.9666 15.8223 13.9396 15.8117 13.9127C15.8012 13.8857 15.7883 13.8605 15.7748 13.8354C15.7614 13.81 15.7467 13.7854 15.7309 13.7615C15.7148 13.7374 15.6976 13.7142 15.6792 13.6918C15.6612 13.6694 15.6418 13.6481 15.6213 13.6279C15.6014 13.6074 15.5797 13.5881 15.5574 13.5693C15.5351 13.5518 15.5117 13.5342 15.4876 13.5184C15.4638 13.5025 15.4392 13.4878 15.4139 13.4744C15.3886 13.4609 15.3623 13.4486 15.3359 13.4375C15.3095 13.4265 15.2825 13.4169 15.2551 13.4088C15.2003 13.3912 15.1437 13.3798 15.0863 13.3748C15.0002 13.3665 14.9134 13.3707 14.8285 13.3871C14.8002 13.3929 14.7723 13.4001 14.7448 13.4088C14.7173 13.4168 14.6903 13.4264 14.6639 13.4375C14.6376 13.4486 14.6112 13.4609 14.586 13.4744C14.5608 13.4879 14.5362 13.5025 14.5121 13.5184C14.464 13.5503 14.4193 13.587 14.3786 13.6279C14.358 13.6481 14.3386 13.6694 14.3205 13.6918C14.3024 13.7142 14.2854 13.7374 14.2696 13.7615C14.2535 13.7854 14.2386 13.81 14.2251 13.8354C14.2115 13.8605 14.1994 13.8863 14.1887 13.9127C14.1775 13.9393 14.1678 13.9665 14.1594 13.9941C14.1512 14.0211 14.1442 14.0492 14.1383 14.0773C14.1325 14.1056 14.1282 14.1342 14.1254 14.1629C14.1225 14.1916 14.1213 14.2203 14.1213 14.249C14.1213 14.2777 14.1225 14.307 14.1254 14.3357C14.1283 14.3643 14.1326 14.3926 14.1383 14.4207C14.1442 14.4488 14.1512 14.477 14.1594 14.5045C14.1678 14.5319 14.1775 14.5589 14.1887 14.5854C14.1994 14.612 14.2115 14.638 14.2251 14.6633C14.2385 14.6885 14.2538 14.7131 14.2696 14.7371C14.2854 14.761 14.3024 14.7841 14.3205 14.8062C14.3388 14.8287 14.3581 14.8502 14.3786 14.8707C14.3991 14.8906 14.4202 14.9105 14.443 14.9287C14.4651 14.947 14.4881 14.964 14.5121 14.9797C14.5362 14.9955 14.5607 15.0107 14.586 15.0242C14.6369 15.0507 14.69 15.0727 14.7448 15.0898C14.7723 15.098 14.8004 15.1051 14.8285 15.1109C14.885 15.1225 14.9425 15.1282 15.0002 15.1279C15.233 15.1273 15.4562 15.0349 15.6213 14.8707C15.6618 14.8296 15.6985 14.7849 15.7309 14.7371C15.7467 14.7131 15.7613 14.6885 15.7748 14.6633C15.7883 14.6381 15.8006 14.6117 15.8117 14.5854C15.8228 14.559 15.8322 14.5314 15.8404 14.5045C15.8491 14.477 15.8562 14.449 15.8615 14.4207C15.8673 14.3926 15.8715 14.3643 15.8744 14.3357C15.8773 14.3069 15.8789 14.2779 15.8789 14.2489L15.879 14.249ZM18.8087 14.249C18.8087 14.0159 18.7161 13.7924 18.5513 13.6275C18.3865 13.4627 18.1629 13.3701 17.9298 13.3701H17.9281C17.7544 13.3705 17.5846 13.4223 17.4403 13.5191C17.296 13.6158 17.1836 13.7532 17.1173 13.9139C17.0511 14.0745 17.0339 14.2512 17.068 14.4215C17.1021 14.5919 17.186 14.7484 17.3089 14.8711C17.4319 14.9938 17.5885 15.0774 17.759 15.1112C17.9294 15.1449 18.1061 15.1274 18.2666 15.0609C18.4271 14.9943 18.5642 14.8816 18.6607 14.7371C18.7572 14.5926 18.8087 14.4228 18.8087 14.249Z" fill="white"/>
</svg>
