<svg width="186" height="142" viewBox="0 0 186 142" fill="none" xmlns="http://www.w3.org/2000/svg">
<path d="M47.0156 52.3157H28.9291L24.93 43.6227L11.7715 43.6258" stroke="#231F20" stroke-width="2.5" stroke-linecap="round" stroke-linejoin="round"/>
<path d="M20.6152 90.7298L33.7973 90.7285L37.7963 82.0355H49.6234" stroke="#231F20" stroke-width="2.5" stroke-linecap="round" stroke-linejoin="round"/>
<path d="M46.1459 69.1871L15.0957 69.1893" stroke="#231F20" stroke-width="2.5" stroke-linecap="round" stroke-linejoin="round"/>
<path d="M4.76172 43.6311C4.76172 47.5149 7.89868 50.6543 11.7824 50.6543C15.6373 50.6543 18.7743 47.5149 18.7743 43.6311C18.7743 39.7445 15.6373 36.61 11.7824 36.61C7.89868 36.61 4.76172 39.7445 4.76172 43.6311Z" fill="#AC7E99"/>
<path d="M4.76172 43.6311C4.76172 47.5149 7.89869 50.6543 11.7824 50.6543C15.6373 50.6543 18.7743 47.5149 18.7743 43.6311C18.7743 39.7445 15.6373 36.61 11.7824 36.61C7.89869 36.61 4.76172 39.7445 4.76172 43.6311Z" stroke="#231F20" stroke-width="2.5" stroke-linecap="round" stroke-linejoin="round"/>
<path d="M2 69.1863C2 73.07 5.13985 76.207 9.02358 76.207C12.8785 76.207 16.0154 73.07 16.0154 69.1863C16.0154 65.2997 12.8785 62.1627 9.02358 62.1627C5.13985 62.1627 2 65.2997 2 69.1863Z" fill="#F2931F"/>
<path d="M2 69.1863C2 73.07 5.13985 76.207 9.02358 76.207C12.8785 76.207 16.0154 73.07 16.0154 69.1863C16.0154 65.2997 12.8785 62.1627 9.02358 62.1627C5.13985 62.1627 2 65.2997 2 69.1863Z" stroke="#231F20" stroke-width="2.5" stroke-linecap="round" stroke-linejoin="round"/>
<path d="M10.9961 90.7323C10.9961 94.616 14.1359 97.753 18.0197 97.753C21.8746 97.753 25.0115 94.616 25.0115 90.7323C25.0115 86.8486 21.8746 83.7087 18.0197 83.7087C14.1359 83.7087 10.9961 86.8486 10.9961 90.7323Z" fill="#1FB9EA"/>
<path d="M10.9961 90.7323C10.9961 94.616 14.1359 97.753 18.0197 97.753C21.8746 97.753 25.0115 94.616 25.0115 90.7323C25.0115 86.8486 21.8746 83.7087 18.0197 83.7087C14.1359 83.7087 10.9961 86.8486 10.9961 90.7323Z" stroke="#231F20" stroke-width="2.5" stroke-linecap="round" stroke-linejoin="round"/>
<path d="M12.0719 43.7427C10.76 44.8614 8.88594 44.8152 7.88257 43.6389C6.8792 42.4625 7.13005 40.6028 8.44192 39.4841C9.7538 38.3654 11.6308 38.4115 12.6342 39.5879C13.6375 40.7643 13.3838 42.624 12.0719 43.7427Z" fill="#D8BAC8"/>
<path d="M9.11684 69.3084C7.80497 70.4271 5.93086 70.3781 4.9275 69.2017C3.92412 68.0253 4.17497 66.1656 5.48685 65.0469C6.79872 63.9282 8.67283 63.9773 9.67619 65.1536C10.6796 66.33 10.4287 68.1897 9.11684 69.3084Z" fill="#F2B71A"/>
<path d="M18.0728 90.9028C16.761 92.0215 14.884 91.9749 13.8806 90.7986C12.8773 89.6222 13.1281 87.763 14.44 86.6443C15.7518 85.5256 17.6288 85.5717 18.6322 86.7481C19.6356 87.9244 19.3847 89.7841 18.0728 90.9028Z" fill="#86D4EE"/>
<path d="M139.125 52.3157H157.212L161.211 43.6227L174.369 43.6258" stroke="#231F20" stroke-width="2.5" stroke-linecap="round" stroke-linejoin="round"/>
<path d="M165.525 90.7298L152.343 90.7285L148.344 82.0355H136.517" stroke="#231F20" stroke-width="2.5" stroke-linecap="round" stroke-linejoin="round"/>
<path d="M139.995 69.1871L171.045 69.1893" stroke="#231F20" stroke-width="2.5" stroke-linecap="round" stroke-linejoin="round"/>
<path d="M181.379 43.6311C181.379 47.5149 178.242 50.6543 174.358 50.6543C170.503 50.6543 167.366 47.5149 167.366 43.6311C167.366 39.7445 170.503 36.61 174.358 36.61C178.242 36.61 181.379 39.7445 181.379 43.6311Z" fill="#DA4435"/>
<path d="M181.379 43.6311C181.379 47.5149 178.242 50.6543 174.358 50.6543C170.503 50.6543 167.366 47.5149 167.366 43.6311C167.366 39.7445 170.503 36.61 174.358 36.61C178.242 36.61 181.379 39.7445 181.379 43.6311Z" stroke="#231F20" stroke-width="2.5" stroke-linecap="round" stroke-linejoin="round"/>
<path d="M184.141 69.1863C184.141 73.07 181.001 76.207 177.117 76.207C173.262 76.207 170.125 73.07 170.125 69.1863C170.125 65.2997 173.262 62.1627 177.117 62.1627C181.001 62.1627 184.141 65.2997 184.141 69.1863Z" fill="#1FB9EA"/>
<path d="M184.141 69.1863C184.141 73.07 181.001 76.207 177.117 76.207C173.262 76.207 170.125 73.07 170.125 69.1863C170.125 65.2997 173.262 62.1627 177.117 62.1627C181.001 62.1627 184.141 65.2997 184.141 69.1863Z" stroke="#231F20" stroke-width="2.5" stroke-linecap="round" stroke-linejoin="round"/>
<path d="M175.145 90.7323C175.145 94.616 172.005 97.753 168.121 97.753C164.266 97.753 161.129 94.616 161.129 90.7323C161.129 86.8486 164.266 83.7087 168.121 83.7087C172.005 83.7087 175.145 86.8486 175.145 90.7323Z" fill="#25B172"/>
<path d="M175.145 90.7323C175.145 94.616 172.005 97.753 168.121 97.753C164.266 97.753 161.129 94.616 161.129 90.7323C161.129 86.8486 164.266 83.7087 168.121 83.7087C172.005 83.7087 175.145 86.8486 175.145 90.7323Z" stroke="#231F20" stroke-width="2.5" stroke-linecap="round" stroke-linejoin="round"/>
<path d="M174.069 43.7427C175.381 44.8614 177.255 44.8152 178.258 43.6389C179.261 42.4625 179.011 40.6028 177.699 39.4841C176.387 38.3654 174.51 38.4115 173.506 39.5879C172.503 40.7643 172.757 42.624 174.069 43.7427Z" fill="#ED6B5A"/>
<path d="M177.026 69.3084C178.338 70.4271 180.212 70.3781 181.215 69.2017C182.218 68.0253 181.968 66.1656 180.656 65.0469C179.344 63.9282 177.47 63.9773 176.466 65.1536C175.463 66.33 175.714 68.1897 177.026 69.3084Z" fill="#86D4EE"/>
<path d="M168.068 90.9028C169.38 92.0215 171.257 91.9749 172.26 90.7986C173.263 89.6222 173.013 87.763 171.701 86.6443C170.389 85.5256 168.512 85.5717 167.508 86.7481C166.505 87.9244 166.756 89.7841 168.068 90.9028Z" fill="#78C592"/>
<path d="M138.708 18.2478C144.605 20.4823 148.503 26.1277 148.503 32.4333V57.1168C148.503 90.9228 130.067 121.998 100.373 138.194C95.8259 140.696 90.316 140.702 85.7633 138.208L85.7374 138.194C56.0717 121.998 37.6074 90.9228 37.6074 57.1168V32.4362C37.6074 26.1306 41.5085 20.4823 47.4047 18.2478L87.6922 2.98391C91.1579 1.67203 94.9811 1.67203 98.4467 2.98391L138.708 18.2478Z" fill="#F5F5F5"/>
<path d="M138.708 18.2478C144.605 20.4823 148.503 26.1277 148.503 32.4333V57.1168C148.503 90.9228 130.067 121.998 100.373 138.194C95.8259 140.696 90.316 140.702 85.7633 138.208L85.7374 138.194C56.0717 121.998 37.6074 90.9228 37.6074 57.1168V32.4362C37.6074 26.1306 41.5085 20.4823 47.4047 18.2478L87.6922 2.98391C91.1579 1.67203 94.9811 1.67203 98.4467 2.98391L138.708 18.2478Z" fill="#F5F5F5" stroke="#231F20" stroke-width="2.5" stroke-linecap="round" stroke-linejoin="round"/>
<path d="M116.834 32.8981C132.99 46.0432 135.43 69.7798 122.303 85.914C109.176 102.048 85.441 104.486 69.2845 91.3404C53.1503 78.2135 50.7112 54.4809 63.8381 38.3467C76.965 22.2125 100.699 19.7712 116.834 32.8981Z" fill="#FFD600"/>
<path d="M116.834 32.8981C132.99 46.0432 135.43 69.7798 122.303 85.914C109.176 102.048 85.441 104.486 69.2845 91.3404C53.1503 78.2135 50.7112 54.4809 63.8381 38.3467C76.965 22.2125 100.699 19.7712 116.834 32.8981Z" stroke="#F89520" stroke-width="2.5" stroke-linecap="round" stroke-linejoin="round"/>
<path d="M108.14 42.9827C118.395 51.3257 119.943 66.3903 111.618 76.6223C103.273 86.879 88.2105 88.425 77.9561 80.0819C67.7241 71.7571 66.1763 56.6966 74.5211 46.4399C82.846 36.2079 97.9083 34.6578 108.14 42.9827Z" fill="white"/>
<path d="M108.14 42.9827C118.395 51.3257 119.943 66.3903 111.618 76.6223C103.273 86.879 88.2105 88.425 77.9561 80.0819C67.7241 71.7571 66.1763 56.6966 74.5211 46.4399C82.846 36.2079 97.9083 34.6578 108.14 42.9827Z" fill="white" stroke="#F89520" stroke-width="2.5" stroke-linecap="round" stroke-linejoin="round"/>
<path d="M63.8418 38.3572L66.8343 40.7919" stroke="#F89520" stroke-width="2.5" stroke-linecap="round" stroke-linejoin="round"/>
<path d="M55.5898 65.9846L59.427 65.5903" stroke="#F89520" stroke-width="2.5" stroke-linecap="round" stroke-linejoin="round"/>
<path d="M69.2891 91.3566L71.7219 88.3664" stroke="#F89520" stroke-width="2.5" stroke-linecap="round" stroke-linejoin="round"/>
<path d="M96.9162 99.609L96.5241 95.7737" stroke="#F89520" stroke-width="2.5" stroke-linecap="round" stroke-linejoin="round"/>
<path d="M122.287 85.9094L119.297 83.4766" stroke="#F89520" stroke-width="2.5" stroke-linecap="round" stroke-linejoin="round"/>
<path d="M130.54 58.2817L126.705 58.6779" stroke="#F89520" stroke-width="2.5" stroke-linecap="round" stroke-linejoin="round"/>
<path d="M116.841 32.9101L114.408 35.9003" stroke="#F89520" stroke-width="2.5" stroke-linecap="round" stroke-linejoin="round"/>
<path d="M89.2136 24.6587L89.6079 28.4958" stroke="#F89520" stroke-width="2.5" stroke-linecap="round" stroke-linejoin="round"/>
<path d="M101.621 64.0893L101.621 64.0892L101.617 64.0831C101.031 63.278 100.352 62.6474 99.6112 62.2059C99.9413 62.0002 100.265 61.7392 100.565 61.4585C101.022 61.031 101.4 60.4721 101.712 59.8493L101.712 59.8494L101.715 59.8417C102.05 59.1437 102.191 58.342 102.191 57.5152C102.191 56.2152 101.91 55.0359 101.355 54.0421L101.355 54.042L101.35 54.0327C100.761 53.0302 99.8815 52.2469 98.7403 51.6763L98.7322 51.6723L98.7241 51.6686C98.1309 51.3982 97.405 51.1856 96.6149 51.0462V47.4008C96.6149 47.2188 96.5703 46.9616 96.3618 46.7531L96.3618 46.7531C96.2779 46.6693 96.1759 46.5971 96.0474 46.5517C95.9263 46.5088 95.81 46.5 95.7142 46.5H93.0443C92.8623 46.5 92.6051 46.5446 92.3966 46.7531L92.3966 46.7531C92.1881 46.9616 92.1435 47.2188 92.1435 47.4008V50.8508H90.8484V47.4008C90.8484 47.2188 90.8038 46.9616 90.5953 46.7531L90.5954 46.753L90.5856 46.7437C90.5315 46.6924 90.4466 46.6222 90.3195 46.5706C90.1969 46.5208 90.064 46.5 89.9217 46.5H87.2807C87.0987 46.5 86.8415 46.5446 86.633 46.7531L86.633 46.7531C86.4245 46.9616 86.3799 47.2188 86.3799 47.4008V50.8508H84.5041C84.2434 50.8508 83.9714 50.9342 83.7757 51.1299L83.7566 51.149L83.7397 51.1701C83.5704 51.3805 83.4707 51.6242 83.4707 51.9102V73.6931C83.4707 73.9057 83.5043 74.199 83.7498 74.4445C83.954 74.6488 84.2155 74.7524 84.5041 74.7524H86.3799V77.6431C86.3799 77.8213 86.4228 78.0831 86.6362 78.291C86.7807 78.4341 86.9863 78.541 87.2807 78.541H89.9477C90.1744 78.541 90.3592 78.4724 90.5435 78.333L90.5987 78.2912L90.6405 78.236C90.7001 78.1573 90.7569 78.0664 90.7959 77.9578C90.8362 77.8457 90.8484 77.7401 90.8484 77.6431V74.7524H92.1435V77.6431C92.1435 77.8212 92.1864 78.083 92.3997 78.291C92.483 78.3735 92.5841 78.4444 92.711 78.4893C92.8321 78.5322 92.9484 78.541 93.0443 78.541H95.7142C95.8951 78.541 96.1507 78.4968 96.3586 78.2911C96.572 78.0831 96.6149 77.8213 96.6149 77.6431V74.5564C97.4887 74.4126 98.2763 74.1669 98.9544 73.817C100.176 73.2205 101.112 72.384 101.727 71.2718C102.365 70.1956 102.673 68.9335 102.673 67.5806C102.673 66.2604 102.327 65.0905 101.621 64.0893ZM96.0967 55.5883L96.0965 55.5884L96.106 55.5966C96.6217 56.0474 96.921 56.7031 96.921 57.5959C96.921 58.457 96.6228 59.1534 96.0888 59.6657L96.0887 59.6656L96.0814 59.6729C95.595 60.1594 94.7854 60.4607 93.6065 60.4607H88.5793V54.8667H93.6065C94.7764 54.8667 95.5885 55.1213 96.0967 55.5883ZM96.5081 69.7874L96.5011 69.7943L96.4945 69.8016C95.948 70.3929 95.1089 70.7365 93.9265 70.7365H88.5793V64.3958H93.9265C95.0864 64.3958 95.929 64.7131 96.5048 65.2869C97.0734 65.8794 97.3766 66.6581 97.3766 67.5806C97.3766 68.4534 97.0982 69.1973 96.5081 69.7874Z" fill="#F89520" stroke="black"/>
</svg>
