<svg width="20" height="16" viewBox="0 0 20 16" fill="none" xmlns="http://www.w3.org/2000/svg">
<path d="M19.6783 8.72762C19.7092 9.46601 19.4459 10.1865 18.9463 10.7311C18.4466 11.2756 17.7514 11.5997 17.0131 11.6323C16.9699 11.6343 16.9268 11.6353 16.8838 11.6353C16.6876 11.6352 16.492 11.6139 16.3004 11.572C15.7318 12.4499 14.9862 13.1995 14.1113 13.7728C13.2364 14.3461 12.2515 14.7304 11.2196 14.9013C11.0976 15.2599 10.8541 15.5645 10.5312 15.7626C10.2084 15.9607 9.82645 16.0397 9.45149 15.9861C9.07654 15.9325 8.7321 15.7495 8.47773 15.4689C8.22336 15.1882 8.07503 14.8275 8.0584 14.4491C8.04176 14.0707 8.15786 13.6984 8.38663 13.3965C8.61539 13.0946 8.94244 12.8821 9.31124 12.7958C9.68005 12.7094 10.0674 12.7547 10.4064 12.9237C10.7454 13.0927 11.0147 13.3748 11.1677 13.7212C12.6205 13.4526 13.933 12.6826 14.8764 11.5455C15.8197 10.4085 16.3342 8.97645 16.33 7.49902C16.33 4.00859 13.4904 1.16895 9.99997 1.16895C6.50954 1.16895 3.66989 4.00859 3.66989 7.49902C3.6697 8.57832 3.94554 9.63974 4.47118 10.5824C4.489 10.6135 4.50237 10.6469 4.51091 10.6818C4.56168 10.8229 4.55625 10.9781 4.49575 11.1153C4.43525 11.2526 4.3243 11.3613 4.18587 11.419C3.84691 11.5616 3.48285 11.6351 3.11509 11.635C3.07181 11.635 3.02843 11.634 2.98497 11.632C2.24696 11.599 1.55214 11.2747 1.05288 10.7302C0.553616 10.1857 0.290653 9.46544 0.32165 8.72734C0.334111 8.43301 0.327157 8.17039 0.320361 7.91644C0.314032 7.67734 0.307431 7.43008 0.31829 7.17207C0.3507 6.45139 0.66071 5.7712 1.18339 5.27397C1.70607 4.77674 2.40087 4.50104 3.12227 4.50461C4.28071 1.85414 6.92731 -0.00292969 9.99997 -0.00292969C13.0726 -0.00292969 15.7193 1.85414 16.8777 4.50465C17.5992 4.50054 18.2942 4.776 18.817 5.27324C19.3398 5.77048 19.6496 6.45087 19.6816 7.17164C19.6925 7.43004 19.6859 7.67727 19.6795 7.91637C19.6728 8.17035 19.6658 8.43309 19.6783 8.72762ZM14.9142 7.49902C14.9139 8.25189 14.7407 8.99464 14.408 9.66998C14.0752 10.3453 13.5918 10.9352 12.995 11.3942C12.3982 11.8531 11.704 12.1689 10.9659 12.3171C10.2277 12.4653 9.46541 12.442 8.73771 12.249L6.7486 13.3977C6.64824 13.4557 6.53294 13.4826 6.41729 13.475C6.30164 13.4674 6.19084 13.4257 6.09889 13.3552C6.00694 13.2846 5.93798 13.1884 5.90073 13.0787C5.86348 12.9689 5.85961 12.8506 5.88962 12.7386L6.39798 10.8422C5.55611 9.93226 5.08768 8.7387 5.08591 7.49902C5.08591 4.78855 7.29024 2.58363 9.99997 2.58363C12.7097 2.58363 14.9142 4.78855 14.9142 7.49902ZM8.63376 7.49902C8.63376 7.34362 8.57203 7.19459 8.46214 7.0847C8.35226 6.97482 8.20322 6.91309 8.04782 6.91309H8.04685C7.93101 6.9133 7.81783 6.94785 7.72161 7.01237C7.6254 7.07688 7.55047 7.16847 7.50629 7.27555C7.46211 7.38264 7.45066 7.50041 7.47339 7.614C7.49613 7.72759 7.55202 7.83189 7.63401 7.91373C7.71599 7.99556 7.8204 8.05126 7.93403 8.07378C8.04766 8.0963 8.16542 8.08463 8.27242 8.04025C8.37942 7.99587 8.47087 7.92077 8.5352 7.82444C8.59954 7.72811 8.63388 7.61486 8.63388 7.49902H8.63376ZM10.586 7.49902C10.586 7.47984 10.5849 7.46068 10.5829 7.4416C10.5811 7.42245 10.5782 7.40342 10.5743 7.38457C10.5708 7.3658 10.5661 7.34727 10.5602 7.3291C10.5548 7.31074 10.5482 7.29277 10.5411 7.2748C10.5341 7.25684 10.5255 7.24004 10.5165 7.22324C10.5076 7.20635 10.4978 7.18992 10.4872 7.17402C10.4766 7.15796 10.4651 7.14244 10.4528 7.12754C10.4408 7.11261 10.4279 7.09839 10.4142 7.08496C10.4009 7.07129 10.3865 7.0584 10.3716 7.0459C10.3567 7.03418 10.3411 7.02246 10.3251 7.01191C10.3092 7.00132 10.2928 6.99154 10.2759 6.98262C10.2591 6.97363 10.2415 6.96543 10.2239 6.95801C10.2063 6.95064 10.1883 6.94425 10.17 6.93887C10.1335 6.92713 10.0958 6.91953 10.0575 6.91621C10.0002 6.91068 9.94228 6.91345 9.88567 6.92441C9.86683 6.92826 9.8482 6.93309 9.82985 6.93887C9.81154 6.94424 9.79355 6.95063 9.77595 6.95801C9.75837 6.96543 9.74079 6.97363 9.72399 6.98262C9.7072 6.9916 9.69079 7.00137 9.67474 7.01191C9.64267 7.0332 9.61285 7.05767 9.58571 7.08496C9.572 7.0984 9.55908 7.11262 9.547 7.12754C9.53491 7.14245 9.52358 7.15796 9.51306 7.17402C9.50232 7.18991 9.49241 7.20634 9.48337 7.22324C9.47436 7.23998 9.46626 7.25719 9.45911 7.2748C9.4517 7.29256 9.44518 7.31069 9.43958 7.3291C9.43415 7.34707 9.42946 7.36582 9.42556 7.38457C9.4217 7.40342 9.41882 7.42245 9.41692 7.4416C9.41501 7.46074 9.41419 7.47988 9.41419 7.49902C9.41419 7.51816 9.41501 7.5377 9.41692 7.55684C9.41885 7.57585 9.42173 7.59475 9.42556 7.61348C9.42946 7.63223 9.43415 7.65098 9.43958 7.66934C9.44518 7.68762 9.4517 7.70561 9.45911 7.72324C9.46626 7.74098 9.47435 7.75833 9.48337 7.7752C9.49231 7.79199 9.50251 7.8084 9.51306 7.82441C9.52358 7.84035 9.53491 7.85573 9.547 7.87051C9.55918 7.88547 9.57209 7.89981 9.58571 7.91348C9.59939 7.92676 9.61345 7.94004 9.62868 7.95215C9.64337 7.96435 9.65875 7.97569 9.67474 7.98613C9.69079 7.99668 9.70716 8.00684 9.72399 8.01582C9.75792 8.0335 9.79334 8.04814 9.82985 8.05957C9.84817 8.06504 9.86692 8.06973 9.88567 8.07363C9.92333 8.08134 9.96169 8.08513 10.0001 8.08496C10.1553 8.08455 10.3041 8.02293 10.4142 7.91348C10.4412 7.88607 10.4656 7.85626 10.4872 7.82441C10.4978 7.8084 10.5075 7.79199 10.5165 7.7752C10.5255 7.7584 10.5337 7.74082 10.5411 7.72324C10.5486 7.70566 10.5548 7.6873 10.5602 7.66934C10.5661 7.65102 10.5708 7.63237 10.5743 7.61348C10.5782 7.59476 10.581 7.57585 10.5829 7.55684C10.5849 7.5376 10.5859 7.51828 10.5859 7.49895L10.586 7.49902ZM12.5392 7.49902C12.5392 7.34362 12.4774 7.19459 12.3675 7.0847C12.2576 6.97482 12.1086 6.91309 11.9532 6.91309H11.9521C11.8362 6.91331 11.7231 6.94787 11.6269 7.01238C11.5307 7.0769 11.4557 7.16849 11.4116 7.27558C11.3674 7.38266 11.3559 7.50044 11.3787 7.61403C11.4014 7.72761 11.4573 7.83191 11.5393 7.91374C11.6213 7.99557 11.7257 8.05127 11.8393 8.07378C11.9529 8.0963 12.0707 8.08463 12.1777 8.04025C12.2847 7.99587 12.3761 7.92077 12.4405 7.82443C12.5048 7.7281 12.5392 7.61486 12.5392 7.49902Z" fill="#0166FF"/>
</svg>
