<svg width="60" height="44" viewBox="0 0 60 44" fill="none" xmlns="http://www.w3.org/2000/svg">
<rect width="60" height="44" rx="12" fill="white"/>
<g clip-path="url(#clip0_5376_16324)">
<path d="M22 28.325C22 28.0375 22.1125 27.7525 22.3375 27.54L28.1925 22L22.3375 16.4625C22.2343 16.3651 22.1513 16.2482 22.0933 16.1187C22.0352 15.9892 22.0033 15.8494 21.9994 15.7076C21.9955 15.5657 22.0195 15.4244 22.0703 15.2918C22.121 15.1593 22.1974 15.038 22.295 14.935C22.492 14.7262 22.7638 14.6041 23.0507 14.5957C23.3376 14.5872 23.6162 14.6931 23.825 14.89L30.51 21.215C30.725 21.42 30.8475 21.7025 30.8475 22C30.8475 22.2975 30.725 22.58 30.51 22.785L23.825 29.11C23.722 29.2077 23.6008 29.284 23.4682 29.3348C23.3356 29.3855 23.1944 29.4096 23.0525 29.4056C22.9106 29.4017 22.7709 29.3698 22.6413 29.3118C22.5118 29.2537 22.3949 29.1707 22.2975 29.0675C22.0975 28.8575 22 28.59 22 28.325Z" fill="black"/>
<path d="M29.1525 28.325C29.1525 28.0375 29.265 27.7525 29.49 27.54L35.345 22L29.49 16.4625C29.3868 16.3651 29.3038 16.2482 29.2457 16.1187C29.1877 15.9892 29.1558 15.8494 29.1519 15.7076C29.1479 15.5657 29.172 15.4244 29.2227 15.2918C29.2735 15.1593 29.3498 15.038 29.4475 14.935C29.6444 14.7262 29.9163 14.6041 30.2032 14.5957C30.4901 14.5872 30.7686 14.6931 30.9775 14.89L37.6625 21.215C37.8775 21.42 38 21.7025 38 22C38 22.2975 37.8775 22.58 37.6625 22.785L30.9775 29.11C30.8745 29.2077 30.7532 29.284 30.6207 29.3348C30.4881 29.3855 30.3468 29.4096 30.2049 29.4056C30.063 29.4017 29.9233 29.3698 29.7938 29.3118C29.6642 29.2537 29.5474 29.1707 29.45 29.0675C29.25 28.8575 29.1525 28.59 29.1525 28.325Z" fill="black"/>
</g>
<defs>
<clipPath id="clip0_5376_16324">
<rect width="16" height="16" fill="white" transform="translate(38 14) rotate(90)"/>
</clipPath>
</defs>
</svg>
