<svg width="34" height="34" viewBox="0 0 34 34" fill="none" xmlns="http://www.w3.org/2000/svg">
<path d="M0.5 16C0.5 12.2146 0.501062 9.4259 0.788435 7.28845C1.07387 5.16538 1.63351 3.75989 2.6967 2.6967C3.75989 1.63351 5.16538 1.07387 7.28845 0.788435C9.4259 0.501062 12.2146 0.5 16 0.5H18C21.7854 0.5 24.5741 0.501062 26.7116 0.788435C28.8346 1.07387 30.2401 1.63351 31.3033 2.6967C32.3665 3.75989 32.9261 5.16538 33.2116 7.28845C33.4989 9.4259 33.5 12.2146 33.5 16V18C33.5 21.7854 33.4989 24.5741 33.2116 26.7116C32.9261 28.8346 32.3665 30.2401 31.3033 31.3033C30.2401 32.3665 28.8346 32.9261 26.7116 33.2116C24.5741 33.4989 21.7854 33.5 18 33.5H16C12.2146 33.5 9.4259 33.4989 7.28845 33.2116C5.16538 32.9261 3.75989 32.3665 2.6967 31.3033C1.63351 30.2401 1.07387 28.8346 0.788435 26.7116C0.501062 24.5741 0.5 21.7854 0.5 18V16Z" fill="#EC5557" fill-opacity="0.1" stroke="#EC5557"/>
<path d="M22.657 21.5254C22.9695 21.8379 22.9695 22.3441 22.657 22.6566C22.5008 22.8129 22.2961 22.891 22.0914 22.891C21.8867 22.891 21.682 22.8129 21.5258 22.6566L20.3945 21.5254C20.082 21.2129 20.082 20.7066 20.3945 20.3941C20.707 20.0816 21.2133 20.0816 21.5258 20.3941L22.657 21.5254ZM12.4742 11.3434C12.1617 11.0309 11.6555 11.0309 11.343 11.3434C11.0305 11.6559 11.0305 12.1621 11.343 12.4746L12.4742 13.6059C12.6305 13.7621 12.8352 13.8402 13.0398 13.8402C13.2445 13.8402 13.4492 13.7621 13.6055 13.6059C13.918 13.2934 13.918 12.7871 13.6055 12.4746L12.4742 11.3434ZM20.9602 13.8402C21.1648 13.8402 21.3695 13.7621 21.5258 13.6059L22.657 12.4746C22.9695 12.1621 22.9695 11.6559 22.657 11.3434C22.3445 11.0309 21.8383 11.0309 21.5258 11.3434L20.3945 12.4746C20.082 12.7871 20.082 13.2934 20.3945 13.6059C20.5508 13.7621 20.7555 13.8402 20.9602 13.8402ZM12.4742 20.3941L11.343 21.5254C11.0305 21.8379 11.0305 22.3441 11.343 22.6566C11.4992 22.8129 11.7039 22.891 11.9086 22.891C12.1133 22.891 12.318 22.8129 12.4742 22.6566L13.6055 21.5254C13.918 21.2129 13.918 20.7066 13.6055 20.3941C13.293 20.0816 12.7867 20.0816 12.4742 20.3941ZM24.2 16.2H22.6C22.1578 16.2 21.8 16.5582 21.8 17C21.8 17.4418 22.1578 17.8 22.6 17.8H24.2C24.6422 17.8 25 17.4418 25 17C25 16.5582 24.6422 16.2 24.2 16.2ZM12.2 17C12.2 16.5582 11.8422 16.2 11.4 16.2H9.8C9.35782 16.2 9 16.5582 9 17C9 17.4418 9.35782 17.8 9.8 17.8H11.4C11.8422 17.8 12.2 17.4418 12.2 17ZM17 9C16.5578 9 16.2 9.3582 16.2 9.8V11.4C16.2 11.8418 16.5578 12.2 17 12.2C17.4422 12.2 17.8 11.8418 17.8 11.4V9.8C17.8 9.3582 17.4422 9 17 9ZM17 21.8C16.5578 21.8 16.2 22.1582 16.2 22.6V24.2C16.2 24.6418 16.5578 25 17 25C17.4422 25 17.8 24.6418 17.8 24.2V22.6C17.8 22.1582 17.4422 21.8 17 21.8Z" fill="#EC5557"/>
</svg>
