<svg width="183" height="62" viewBox="0 0 183 62" fill="none" xmlns="http://www.w3.org/2000/svg">
<path d="M43.1172 5.80469V17.4844H27.7656V61H15.3438V17.4844H-0.0078125V5.80469H43.1172ZM67.1813 19.5547H68.9391V31.5469H67.1813C63.6656 31.5469 60.9443 32.4844 59.0172 34.3594C57.1161 36.2344 56.1656 38.7734 56.1656 41.9766V61H44.4859V20.2188H56.1656V24.8281C59.1865 21.3125 62.8583 19.5547 67.1813 19.5547ZM78.8625 14.9844C76.8313 14.9844 75.1255 14.3073 73.7453 12.9531C72.3651 11.5729 71.675 9.85417 71.675 7.79688C71.675 5.76562 72.3651 4.07292 73.7453 2.71875C75.1255 1.36458 76.8313 0.6875 78.8625 0.6875C80.9458 0.6875 82.6776 1.36458 84.0578 2.71875C85.4641 4.07292 86.1672 5.76562 86.1672 7.79688C86.1672 9.85417 85.4641 11.5729 84.0578 12.9531C82.6776 14.3073 80.9458 14.9844 78.8625 14.9844ZM73.0422 61V20.2188H84.7219V61H73.0422ZM116.364 19.2422C121.989 19.2422 126.677 21.2865 130.427 25.375C134.177 29.4375 136.052 34.5156 136.052 40.6094C136.052 46.7031 134.177 51.7943 130.427 55.8828C126.677 59.9453 121.989 61.9766 116.364 61.9766C111.442 61.9766 107.341 60.2969 104.059 56.9375V61H92.3797V3.38281H104.059V24.2812C107.341 20.9219 111.442 19.2422 116.364 19.2422ZM106.911 47.7969C108.812 49.724 111.195 50.6875 114.059 50.6875C116.924 50.6875 119.307 49.724 121.208 47.7969C123.109 45.8698 124.059 43.474 124.059 40.6094C124.059 37.7448 123.109 35.349 121.208 33.4219C119.307 31.4948 116.924 30.5312 114.059 30.5312C111.195 30.5312 108.812 31.4948 106.911 33.4219C105.01 35.349 104.059 37.7448 104.059 40.6094C104.059 43.474 105.01 45.8698 106.911 47.7969ZM182.264 40.7656C182.264 42.1719 182.186 43.3958 182.03 44.4375H151.639C152.368 46.7292 153.657 48.526 155.506 49.8281C157.355 51.1302 159.556 51.7812 162.108 51.7812C164.295 51.7812 166.288 51.3516 168.084 50.4922C169.881 49.6328 171.301 48.5521 172.342 47.25L180.194 54.0469C177.98 56.5469 175.285 58.5 172.108 59.9062C168.931 61.2865 165.493 61.9766 161.795 61.9766C155.311 61.9766 149.894 59.9193 145.545 55.8047C141.222 51.6641 139.061 46.5208 139.061 40.375C139.061 36.4427 139.998 32.862 141.873 29.6328C143.774 26.4036 146.392 23.8646 149.725 22.0156C153.058 20.1667 156.756 19.2422 160.819 19.2422C166.939 19.2422 172.043 21.2865 176.131 25.375C180.22 29.4635 182.264 34.5938 182.264 40.7656ZM160.663 29.3203C158.475 29.3203 156.561 29.9844 154.92 31.3125C153.28 32.6146 152.16 34.3984 151.561 36.6641H169.881C169.23 34.3724 168.084 32.5755 166.444 31.2734C164.803 29.9714 162.876 29.3203 160.663 29.3203Z" fill="url(#paint0_linear_598_3341)"/>
<defs>
<linearGradient id="paint0_linear_598_3341" x1="23.5" y1="-4.18182" x2="81.3042" y2="108.416" gradientUnits="userSpaceOnUse">
<stop stop-color="#FFD600"/>
<stop offset="0.24" stop-color="#FF423E"/>
<stop offset="0.5" stop-color="#0166FF"/>
<stop offset="0.73" stop-color="#8904F9"/>
<stop offset="1" stop-color="#01FFE3"/>
</linearGradient>
</defs>
</svg>
