<svg width="175" height="184" viewBox="0 0 175 184" fill="none" xmlns="http://www.w3.org/2000/svg">
<path d="M89.985 166.196C90.0852 166.384 90.312 166.441 90.5548 166.506C91.5537 166.773 92.6169 166.849 93.6425 166.942C95.3837 167.099 97.1309 167.191 98.8775 167.262C101.137 167.354 103.398 167.404 105.659 167.427C106.56 167.436 107.461 167.44 108.363 167.44C118.513 167.44 126.741 166.884 126.743 166.197C126.745 165.55 126.74 164.888 126.751 164.234C126.207 164.276 125.662 164.318 125.118 164.361C123.915 164.453 122.711 164.546 121.507 164.639C120.284 164.734 119.061 164.828 117.838 164.923C117.092 164.981 116.338 165.076 115.59 165.054C113.193 164.985 110.796 164.955 108.363 164.954C107.257 164.954 106.16 164.995 105.058 164.943C104.135 164.9 103.212 164.857 102.289 164.813C101.035 164.755 99.7813 164.696 98.5276 164.637C97.2321 164.577 95.9366 164.516 94.6411 164.455C93.5925 164.406 92.544 164.357 91.4954 164.308C90.9826 164.284 90.4697 164.26 89.9175 164.234C89.922 164.81 89.9228 165.386 89.9311 165.961C89.9325 166.057 89.9518 166.134 89.985 166.196Z" fill="black"/>
<path d="M108.363 165.481C118.514 165.481 126.744 164.924 126.744 164.238C126.744 163.552 118.514 162.996 108.363 162.996C98.2117 162.996 89.9824 163.552 89.9824 164.238C89.9824 164.924 98.2117 165.481 108.363 165.481Z" fill="white"/>
<path d="M108.363 165.661C107.605 165.661 89.8027 165.644 89.8027 164.238C89.8027 162.833 107.605 162.816 108.363 162.816C109.121 162.816 126.923 162.833 126.923 164.238C126.923 165.644 109.121 165.661 108.363 165.661ZM90.2031 164.238C90.938 164.698 97.4159 165.302 108.363 165.302C119.309 165.302 125.787 164.698 126.522 164.238C125.787 163.778 119.309 163.175 108.363 163.175C97.4159 163.175 90.938 163.778 90.2031 164.238Z" fill="black"/>
<path d="M106.742 163.824C106.742 164.696 114.404 164.696 114.404 163.824L114.404 96.1758H106.742L106.742 163.824Z" fill="black"/>
<path d="M104.948 163.82C104.948 164.692 112.611 164.692 112.611 163.82L112.611 96.1719H104.948L104.948 163.82Z" fill="white"/>
<path d="M108.779 164.653C107.574 164.653 104.769 164.572 104.769 163.819V96.1717C104.769 96.0728 104.85 95.9922 104.949 95.9922H112.611C112.71 95.9922 112.79 96.0728 112.79 96.1717V163.819C112.79 164.572 109.985 164.653 108.779 164.653ZM105.128 163.812C105.235 164.015 106.555 164.294 108.779 164.294C111.017 164.294 112.339 164.012 112.433 163.809L112.431 96.3512H105.128V163.812Z" fill="black"/>
<g opacity="0.2">
<path d="M61.8495 181.499C66.3355 182.013 70.0467 183.515 74.573 183.901C80.8205 184.433 85.5798 182.668 91.5154 182.34C95.5277 182.119 99.8846 182.566 104.117 182.838C109.258 183.17 114.418 183.25 119.567 183.05C121.764 182.965 124.12 182.469 126.298 182.558C128.783 182.659 130.603 183.102 133.129 182.41C135.475 181.767 137.955 180.957 140.282 181.667C141.928 182.169 143.488 183.418 145.168 183.047C146.71 182.706 147.693 181.099 149.206 180.646C151.194 180.05 153.165 181.626 155.233 181.806C156.833 181.946 158.48 181.163 159.383 179.835C159.763 179.277 160.02 178.595 159.906 177.929C159.686 176.64 158.196 175.953 156.888 175.961C155.58 175.969 154.31 176.439 153.002 176.466C151.883 176.49 150.786 176.187 149.685 175.989C145.779 175.284 142.266 174.04 138.178 174.037C129.985 174.032 122.508 175.627 114.256 174.743C107.23 173.991 101.874 171.667 95.429 170.236C89.8494 168.996 82.7998 168.468 77.9645 169.488C74.9203 170.131 73.0203 171.313 69.6983 171.795C65.9333 172.341 61.2332 171.877 56.8709 171.487C51.3961 170.998 45.593 170.639 40.8028 171.281C38.4353 171.598 36.4478 172.146 34.1377 172.501C27.592 173.507 19.3925 172.877 11.7142 172.543C9.17665 172.432 6.54692 172.361 4.35898 172.677C3.04037 172.868 -0.314241 173.205 0.0237886 175.059C0.962 174.833 1.76553 175.357 2.04545 176.298C2.30955 177.187 2.22957 178.207 2.76928 178.962C3.41292 179.862 4.67957 180.025 5.78364 179.956C7.46618 179.85 9.11525 179.392 10.8003 179.338C12.4853 179.284 14.3178 179.726 15.3638 181.048C15.643 181.401 15.8727 181.82 16.2677 182.035C17.2019 182.545 18.2393 181.639 19.2438 181.288C19.9886 181.028 20.8017 181.083 21.5885 181.141C29.4799 181.724 37.5493 183.315 45.4541 182.543C50.645 182.037 55.7601 180.8 61.8495 181.499Z" fill="#EFEFEF"/>
</g>
<path d="M154.128 6.95904C153.915 6.79061 153.697 6.62917 153.484 6.47301C151.896 5.31171 150.307 4.15041 148.719 2.9891C148.371 2.73468 148.011 2.47422 147.613 2.36067C146.843 2.14118 146.124 2.52073 145.598 3.00094C144.439 4.06102 143.833 5.60995 142.861 6.84827C140.775 9.50779 136.576 8.21949 133.274 8.08331C129.589 7.93137 125.905 7.77942 122.22 7.62747C115.862 7.36528 109.505 7.10309 103.147 6.8409C101.416 6.76951 99.6843 6.69812 97.9531 6.62672C96.623 6.57187 95.5671 7.42437 95.3778 8.70614C95.1312 10.3752 94.8846 12.0443 94.6381 13.7133C93.3422 22.4851 92.0463 31.2569 90.7504 40.0287C88.992 51.9309 87.2337 63.8332 85.4753 75.7354C84.6552 81.2868 83.835 86.8382 83.0149 92.3896C82.6603 94.79 82.2994 97.1885 81.951 99.5908C81.758 100.922 82.133 102.378 81.8203 103.631C81.4299 105.195 80.1476 106.491 78.7046 107.077C77.9451 107.386 77.1053 107.533 76.3551 107.859C75.5301 108.218 74.8262 108.793 74.3203 109.523C74.1675 109.743 74.0288 109.991 74.0349 110.28C74.0407 110.56 74.1817 110.84 74.319 111.106C75.4541 113.308 76.5892 115.509 77.7243 117.711C77.9966 118.239 78.3124 118.812 78.8404 119.083C79.1909 119.262 79.576 119.275 79.9442 119.283C83.7617 119.37 87.5838 119.558 91.4162 119.75C102.246 120.295 113.074 120.824 123.894 121.283C126.471 121.393 129.051 121.525 131.628 121.629C133.299 121.697 134.969 121.759 136.637 121.807C138.258 121.854 140.193 122.156 141.581 121.441C142.65 120.89 142.688 119.762 142.823 118.621C143.144 115.913 143.476 113.208 143.808 110.503C144.89 101.684 145.989 92.8689 147.088 84.0544C148.421 73.3661 149.759 62.6793 151.1 51.9931C152.273 42.6369 153.448 33.2813 154.624 23.926C154.915 21.6173 155.205 19.3086 155.496 17C155.789 14.6699 156.582 11.6319 155.922 9.24292C155.668 8.32204 154.928 7.59123 154.128 6.95904Z" fill="#8904F9"/>
<path d="M146.758 2.44144L91.9744 0.182188C90.6443 0.127334 89.5885 0.979841 89.3991 2.2616L73.6282 109.013C73.3544 110.867 74.9585 112.771 76.8848 112.87C80.3935 113.051 83.9019 113.229 87.41 113.405C92.1502 113.642 96.8899 113.874 101.629 114.1C106.583 114.335 111.536 114.564 116.488 114.778C120.639 114.957 124.789 115.129 128.934 115.261C129.799 115.289 130.663 115.315 131.527 115.337C132.116 115.352 132.669 115.5 133.226 115.366C134.055 115.167 134.856 114.846 135.513 114.346C136.951 113.253 136.917 111.559 137.127 109.821C137.267 108.664 137.408 107.507 137.549 106.35C137.913 103.368 138.281 100.387 138.649 97.4064C139.105 93.7226 139.562 90.0394 140.02 86.3564C140.538 82.1952 141.056 78.0344 141.576 73.8738C142.127 69.4599 142.679 65.0462 143.231 60.6326C143.787 56.1904 144.343 51.7483 144.9 47.3064C145.433 43.0606 145.966 38.8148 146.499 34.5692C146.979 30.7443 147.459 26.9195 147.94 23.0947C148.34 19.9153 148.739 16.736 149.139 13.5567C149.43 11.2475 149.72 8.93829 150.011 6.62912C150.028 6.49727 150.044 6.36542 150.061 6.23356C150.294 4.38008 148.67 2.52028 146.758 2.44144Z" fill="white"/>
<path d="M132.713 115.6C132.498 115.6 132.285 115.578 132.076 115.557C131.894 115.539 131.71 115.521 131.523 115.516C130.658 115.494 129.793 115.468 128.928 115.44C125.018 115.315 121.124 115.156 116.48 114.956C112.153 114.77 107.43 114.555 101.62 114.278C96.8813 114.053 92.1411 113.82 87.4008 113.583C83.8926 113.408 80.3844 113.23 76.8755 113.049C75.8875 112.998 74.9338 112.496 74.2578 111.672C73.6099 110.881 73.3154 109.902 73.4507 108.987L89.2219 2.23522C89.4245 0.861535 90.5549 -0.0465402 91.9819 0.0018437L146.766 2.26116C147.748 2.30183 148.703 2.78918 149.387 3.59768C150.044 4.37323 150.354 5.34231 150.239 6.25529L141.754 73.896C141.234 78.0563 140.715 82.2174 140.198 86.3784C139.74 90.0612 139.283 93.7439 138.827 97.4274C138.459 100.408 138.091 103.389 137.727 106.371L137.305 109.842C137.277 110.075 137.253 110.308 137.23 110.538C137.074 112.06 136.927 113.496 135.622 114.489C135.001 114.96 134.209 115.313 133.268 115.54C133.082 115.585 132.896 115.6 132.713 115.6ZM91.8557 0.35876C90.6755 0.35876 89.7464 1.13851 89.5767 2.2871L73.8055 109.039C73.6856 109.854 73.9514 110.731 74.5355 111.444C75.1477 112.191 76.0067 112.645 76.8937 112.69C80.4026 112.871 83.9108 113.049 87.419 113.224C92.1593 113.461 96.8981 113.694 101.637 113.919C107.447 114.196 112.168 114.412 116.496 114.597C121.138 114.797 125.03 114.956 128.939 115.081C129.804 115.109 130.668 115.135 131.532 115.157C131.728 115.162 131.921 115.182 132.111 115.2C132.486 115.24 132.839 115.275 133.184 115.191C134.077 114.976 134.824 114.644 135.404 114.203C136.586 113.305 136.725 111.943 136.872 110.502C136.896 110.27 136.92 110.035 136.948 109.799L137.371 106.328C137.735 103.346 138.103 100.365 138.471 97.384C138.927 93.7005 139.384 90.0163 139.842 86.3335C140.359 82.1725 140.878 78.0115 141.398 73.8511L149.883 6.21041C149.985 5.3963 149.705 4.5289 149.113 3.82978C148.494 3.09771 147.633 2.65665 146.751 2.62019L91.9665 0.360864C91.9293 0.359461 91.8921 0.35876 91.8557 0.35876Z" fill="black"/>
<path d="M140.25 9.05175L95.0917 7.18947C93.9953 7.14426 93.129 7.88008 92.9787 8.98428L80.4589 100.948C80.2415 102.545 81.572 104.182 83.1599 104.265C88.7167 104.554 94.2727 104.834 99.8275 105.105C106.625 105.437 113.422 105.759 120.212 106.031C121.805 106.095 123.397 106.155 124.989 106.209C126.961 106.276 129.11 106.56 130.703 105.494C132.131 104.54 132.662 103.18 132.802 101.457C132.866 100.676 132.974 99.9032 133.061 99.128C133.275 97.2046 133.491 95.2817 133.708 93.3589C134.271 88.3655 134.839 83.3734 135.408 78.3816C136.078 72.4975 136.751 66.614 137.424 60.7308C138.113 54.7207 138.802 48.7109 139.492 42.7013C140.109 37.33 140.726 31.9588 141.344 26.5877C141.801 22.6199 142.258 18.6522 142.715 14.6845C142.806 13.8939 142.897 13.1033 142.988 12.3127C143.172 10.716 141.825 9.11673 140.25 9.05175Z" fill="#D4EEF4"/>
<path d="M102.791 118.418L113.605 118.846L113.368 116.91L102.554 116.48L102.791 118.418Z" fill="black"/>
<path d="M135.165 25.9159L98.3561 23.5761C96.835 23.4794 95.5624 24.6147 95.4161 26.1988L93.7118 44.6509C93.5443 46.4648 94.8944 48.13 96.6361 48.2415C106.039 48.8438 115.444 49.4267 124.847 49.8758C126.563 49.9578 128.28 50.0347 129.996 50.0969C131.514 50.1518 133.689 50.5444 134.884 49.457C135.989 48.4516 135.952 46.5317 136.094 45.0838C136.267 43.3265 136.476 41.5754 136.695 39.8267C137.12 36.4339 137.591 33.0502 138.082 29.6714C138.353 27.8084 136.971 26.0308 135.165 25.9159Z" fill="white"/>
<path d="M132.228 50.3896C131.743 50.3896 131.259 50.3559 130.811 50.3251C130.524 50.3055 130.247 50.2858 129.99 50.2767C128.1 50.2087 126.244 50.1231 124.838 50.0558C115.086 49.5902 105.161 48.9675 96.6248 48.4206C95.7637 48.3659 94.9643 47.9557 94.3745 47.265C93.7526 46.5378 93.4461 45.5793 93.5331 44.6347L95.237 26.1822C95.3934 24.4909 96.7559 23.2869 98.3673 23.3977L135.176 25.7376C136.061 25.7937 136.908 26.2432 137.498 26.9704C138.122 27.7403 138.4 28.7346 138.26 29.6981C137.687 33.6418 137.246 36.8674 136.873 39.8496C136.679 41.3937 136.457 43.2253 136.273 45.1017C136.251 45.3191 136.235 45.547 136.216 45.7805C136.113 47.1437 135.996 48.6885 135.005 49.5902C134.293 50.2381 133.258 50.3896 132.228 50.3896ZM98.1738 23.7504C96.8218 23.7504 95.7272 24.7819 95.5947 26.2159L93.8907 44.6684C93.8122 45.5162 94.0877 46.3779 94.6473 47.0322C95.1739 47.6479 95.8843 48.0139 96.6472 48.063C105.182 48.6092 115.105 49.2319 124.855 49.6968C126.26 49.7641 128.114 49.8497 130.002 49.9177C130.264 49.9275 130.544 49.9464 130.836 49.9668C132.238 50.0635 133.829 50.1757 134.763 49.3252C135.649 48.5195 135.761 47.0497 135.859 45.7539C135.876 45.5169 135.894 45.2862 135.916 45.0667C136.1 43.186 136.323 41.3516 136.517 39.8047C136.89 36.8204 137.331 33.5927 137.905 29.6462C138.03 28.7816 137.78 27.889 137.219 27.1962C136.692 26.5469 135.939 26.1458 135.153 26.0953L98.3449 23.7553C98.2874 23.7518 98.2306 23.7504 98.1738 23.7504Z" fill="black"/>
<path d="M129.147 57.7962L92.2758 55.5095C90.7522 55.415 89.5102 56.5245 89.4066 58.0727L88.2004 76.1057C88.0818 77.8784 89.4769 79.5058 91.2216 79.6148C100.641 80.2033 110.062 80.7731 119.476 81.2119C121.195 81.292 122.914 81.3672 124.631 81.428C126.151 81.4817 128.337 81.8653 129.503 80.8026C130.581 79.82 130.491 77.9438 130.594 76.5288C130.72 74.8113 130.882 73.1 131.053 71.3911C131.387 68.0753 131.767 64.7685 132.167 61.4664C132.387 59.6458 130.957 57.9085 129.147 57.7962Z" fill="white"/>
<path d="M126.866 81.7172C126.382 81.7172 125.898 81.6849 125.449 81.6548C125.161 81.6352 124.883 81.6162 124.625 81.6071C122.907 81.5461 121.187 81.4711 119.468 81.3911C109.635 80.9325 99.7263 80.326 91.21 79.7938C90.3327 79.7391 89.5123 79.3261 88.9015 78.6304C88.2817 77.925 87.9605 77.0001 88.0215 76.0934L89.2276 58.0603C89.3384 56.4026 90.6371 55.228 92.287 55.3304L129.159 57.6164C130.063 57.6725 130.933 58.1262 131.543 58.8603C132.165 59.6064 132.456 60.5636 132.345 61.4878C131.881 65.3094 131.528 68.4621 131.232 71.4093C131.08 72.9183 130.907 74.7078 130.773 76.5415C130.757 76.754 130.746 76.9763 130.735 77.2056C130.668 78.5393 130.593 80.0511 129.623 80.9346C128.927 81.5692 127.896 81.7172 126.866 81.7172ZM92.0935 55.6831C90.7436 55.6831 89.6792 56.688 89.5852 58.0841L88.3791 76.1173C88.3251 76.9293 88.614 77.7588 89.1715 78.3934C89.7192 79.0168 90.4505 79.3864 91.2324 79.4347C99.7473 79.9677 109.655 80.5742 119.485 81.0321C121.203 81.1121 122.921 81.1871 124.638 81.2481C124.899 81.2572 125.181 81.2768 125.474 81.2965C126.879 81.3911 128.471 81.4998 129.381 80.6696C130.242 79.8849 130.314 78.4523 130.377 77.1873C130.388 76.9559 130.399 76.7301 130.415 76.5149C130.549 74.6777 130.723 72.8847 130.875 71.3729C131.171 68.4235 131.525 65.2688 131.989 61.4443C132.088 60.6183 131.826 59.76 131.268 59.0896C130.72 58.4312 129.943 58.0252 129.136 57.9754L92.2646 55.6887C92.2071 55.6845 92.1503 55.6831 92.0935 55.6831Z" fill="black"/>
<path d="M38.1507 151.897L24.7017 151.203L24.986 160.182L39.4676 161.639" fill="#FFC69F"/>
<path d="M14.8726 177.09C14.6867 175.278 14.5516 173.457 14.9284 171.737C15.1321 170.783 15.0626 169.67 15.135 168.677C15.1944 167.634 15.2538 166.591 15.331 165.534C15.4664 163.45 15.6195 161.354 15.7714 159.272C16.0894 155.145 16.4571 151.026 16.8579 146.912C16.899 146.579 17.8847 146.611 19.2252 146.832L19.2418 146.835C20.2678 147.004 21.5198 147.291 22.7363 147.604C24.921 148.19 26.9971 148.888 27.4371 149.285C29.3994 151.082 25.2164 152.403 25.1771 154.777C25.1416 156.181 25.7267 157.573 26.5432 158.777C27.0272 159.488 27.8066 160.054 28.2598 160.728C28.8184 161.565 28.367 161.782 27.8537 162.621C25.9367 165.708 24.1109 168.923 23.3434 172.555C23.0655 173.838 22.8964 175.235 22.0557 176.199C21.3271 177.002 20.0428 177.617 18.9 177.672C18.53 177.692 14.907 177.307 14.8726 177.09Z" fill="#EC5557"/>
<path d="M15.7033 147.256L13.6072 175.969C13.5579 176.645 14.0841 177.286 14.7826 177.401C15.4811 177.516 16.0873 177.061 16.1367 176.386L18.2328 147.672C18.2821 146.996 17.7558 146.355 17.0573 146.24C16.3589 146.125 15.7526 146.58 15.7033 147.256Z" fill="black"/>
<path d="M20.6681 150.698C19.4765 150.502 18.5892 149.352 18.6791 148.119C18.7165 147.607 18.9171 147.154 19.2252 146.832L19.2418 146.835C20.2679 147.004 21.5198 147.291 22.7363 147.604C22.9103 147.973 22.9969 148.392 22.9654 148.825C22.8754 150.057 21.8431 150.892 20.6681 150.698Z" fill="white"/>
<path d="M27.2681 159.678C27.2233 159.678 27.1784 159.661 27.1433 159.627C25.9625 158.489 25.215 156.931 25.0929 155.353C24.9632 153.663 26.0094 152.531 27.1868 151.426L27.3383 151.283C27.4112 151.216 27.5248 151.218 27.5921 151.29C27.6601 151.363 27.6573 151.477 27.5851 151.544L27.4329 151.687C26.3215 152.73 25.3335 153.793 25.4506 155.325C25.5663 156.817 26.2738 158.291 27.393 159.369C27.4638 159.438 27.4659 159.552 27.3972 159.623C27.3621 159.66 27.3151 159.678 27.2681 159.678Z" fill="black"/>
<path d="M13.3605 161.92C13.3394 162.683 13.3339 163.446 13.3448 164.209C13.3779 166.538 13.5511 168.876 13.9673 171.169C14.1338 172.087 14.3402 172.999 14.6165 173.89C14.7336 174.267 14.8634 174.641 15.012 175.008C15.1731 175.405 15.3389 175.697 15.3383 176.136C15.3375 176.659 15.3801 177.184 15.4878 177.696C15.9748 177.67 16.4618 177.645 16.9488 177.619C17.3176 177.6 17.6892 177.593 18.0281 177.429C19.0522 176.933 19.6439 175.667 20.0657 174.681C20.8122 172.935 21.2526 171.057 21.5832 169.193C22.0088 166.793 22.2261 164.356 22.2932 161.92C22.3168 161.063 22.3209 160.205 22.3041 159.347C22.2881 158.53 22.2532 157.713 22.197 156.898C22.1445 156.136 22.0734 155.375 21.9802 154.617C21.8947 153.922 21.7906 153.229 21.6625 152.541C21.5477 151.923 21.4137 151.309 21.2528 150.702C21.1125 150.172 20.9519 149.648 20.7597 149.135C20.5979 148.703 20.414 148.278 20.192 147.873C20.0126 147.546 19.8078 147.23 19.5585 146.952C19.3619 146.732 19.134 146.534 18.8679 146.404C18.7524 146.347 18.6302 146.305 18.5039 146.28C18.3684 146.254 18.2392 146.269 18.1035 146.26C17.6595 146.229 17.2156 146.197 16.7716 146.166C16.6129 146.155 16.4543 146.144 16.2956 146.133C16.2597 146.457 16.4189 146.779 16.406 147.105C16.403 147.179 16.3917 147.252 16.3895 147.326C16.3871 147.406 16.3955 147.487 16.3905 147.566C16.3804 147.73 16.2714 147.811 16.1937 147.943C16.1368 148.04 16.082 148.137 16.029 148.236C15.9149 148.448 15.809 148.664 15.7094 148.883C15.4829 149.381 15.2883 149.893 15.1141 150.411C14.9137 151.007 14.7405 151.612 14.5865 152.222C14.4144 152.902 14.2666 153.589 14.1374 154.279C13.9964 155.033 13.8778 155.79 13.7778 156.55C13.6707 157.363 13.5851 158.179 13.5186 158.997C13.4484 159.859 13.3995 160.723 13.3706 161.588C13.3669 161.698 13.3635 161.809 13.3605 161.92Z" fill="black"/>
<path d="M20.3815 162.059C20.6408 153.409 18.8529 146.336 16.3881 146.263C13.9234 146.189 11.7151 153.141 11.4558 161.791C11.1965 170.441 12.9844 177.513 15.4491 177.587C17.9139 177.661 20.1222 170.708 20.3815 162.059Z" fill="white"/>
<path d="M15.4891 177.763C15.0221 177.763 14.5712 177.543 14.1498 177.111C12.2333 175.141 11.0777 169.035 11.2741 161.916C11.5188 153.036 13.7494 146.078 16.3516 146.078C16.8186 146.078 17.2695 146.298 17.6909 146.73C19.6067 148.701 20.7623 154.807 20.5659 161.927C20.3212 170.807 18.0913 177.763 15.4891 177.763ZM16.3516 146.437C14.0249 146.437 11.8645 153.531 11.6331 161.927C11.4424 168.844 12.5832 174.985 14.4071 176.86C14.7584 177.221 15.1224 177.404 15.4891 177.404C17.815 177.404 19.9755 170.312 20.2069 161.916C20.3976 154.998 19.2568 148.856 17.4336 146.981C17.0823 146.619 16.7183 146.437 16.3516 146.437Z" fill="black"/>
<path d="M23.4545 170.367C23.4005 170.367 23.3472 170.344 23.3115 170.296C22.8669 169.711 22.646 168.906 22.6895 168.03C22.7294 167.234 22.9657 166.474 23.2154 165.77C24.066 163.365 25.2679 161.068 26.4298 158.847C26.4754 158.758 26.5869 158.719 26.6745 158.767C26.7622 158.811 26.7979 158.917 26.7523 159.004L26.7481 159.012C25.5918 161.224 24.3962 163.508 23.5534 165.891C23.3136 166.568 23.0857 167.299 23.0485 168.046C23.0085 168.839 23.2035 169.561 23.5975 170.08C23.6572 170.159 23.6417 170.271 23.5632 170.331C23.5309 170.356 23.4924 170.367 23.4545 170.367Z" fill="black"/>
<path d="M26.6937 163.799C26.6263 163.799 26.5618 163.761 26.531 163.695C26.294 163.192 25.8711 162.764 25.3705 162.522C25.2814 162.478 25.2442 162.371 25.2877 162.282C25.3305 162.193 25.4385 162.153 25.5275 162.199C26.1088 162.481 26.5808 162.958 26.8563 163.544C26.8984 163.632 26.8599 163.74 26.7701 163.782C26.7456 163.794 26.7196 163.799 26.6937 163.799Z" fill="black"/>
<path d="M25.2589 166.774C25.2084 166.774 25.158 166.753 25.1222 166.711C24.7541 166.28 24.3151 165.924 23.8179 165.654C23.731 165.607 23.6987 165.498 23.7457 165.411C23.7934 165.323 23.9021 165.29 23.989 165.339C24.5255 165.63 24.9981 166.014 25.3957 166.478C25.4595 166.554 25.4511 166.666 25.3753 166.731C25.3417 166.76 25.3003 166.774 25.2589 166.774Z" fill="black"/>
<path d="M15.3584 156.886C14.4412 156.886 13.524 156.755 12.6356 156.491C12.5409 156.463 12.4862 156.362 12.515 156.268C12.5423 156.173 12.6433 156.124 12.738 156.146C14.376 156.633 16.1158 156.654 17.7671 156.206C17.8688 156.182 17.9621 156.239 17.9873 156.334C18.0133 156.429 17.9565 156.527 17.8611 156.554C17.0407 156.776 16.1992 156.886 15.3584 156.886Z" fill="black"/>
<path d="M16.1738 163.134C15.2327 163.134 14.2931 162.954 13.4152 162.597C13.3233 162.559 13.2798 162.454 13.317 162.362C13.3541 162.27 13.4579 162.226 13.5512 162.263C14.9964 162.853 16.6197 162.935 18.121 162.497C18.2164 162.473 18.316 162.524 18.344 162.619C18.3714 162.714 18.3174 162.814 18.222 162.842C17.5545 163.037 16.8638 163.134 16.1738 163.134Z" fill="black"/>
<path d="M16.3019 167.945C15.0741 167.945 13.8477 167.596 12.8127 166.923C12.7292 166.87 12.7054 166.759 12.7594 166.675C12.8134 166.593 12.9249 166.568 13.0076 166.623C14.4795 167.577 16.3594 167.84 18.0361 167.331C18.1314 167.302 18.2317 167.355 18.2604 167.45C18.2892 167.544 18.2359 167.645 18.1412 167.673C17.5438 167.856 16.9225 167.945 16.3019 167.945Z" fill="black"/>
<path d="M42.4549 156.803L29.0059 156.109L29.2902 165.088L43.7718 166.547" fill="#FFC69F"/>
<path d="M19.1768 181.996C18.9909 180.184 18.8558 178.363 19.2326 176.644C19.4363 175.689 19.3668 174.576 19.4392 173.584C19.4986 172.54 19.558 171.497 19.6352 170.44C19.7706 168.357 19.9237 166.26 20.0756 164.179C20.3936 160.051 20.7613 155.932 21.1621 151.819C21.2032 151.485 22.1889 151.518 23.5294 151.738L23.546 151.741C24.572 151.91 25.824 152.197 27.0405 152.51C29.2252 153.097 31.3013 153.795 31.7413 154.191C33.7036 155.988 29.5206 157.309 29.4813 159.684C29.4458 161.087 30.0309 162.479 30.8474 163.683C31.3314 164.395 32.1108 164.96 32.564 165.634C33.1226 166.471 32.6712 166.689 32.1579 167.527C30.2409 170.614 28.4151 173.829 27.6476 177.461C27.3697 178.744 27.2006 180.142 26.3599 181.105C25.6313 181.908 24.347 182.524 23.2042 182.578C22.8342 182.598 19.2112 182.213 19.1768 181.996Z" fill="#EC5557"/>
<path d="M20.0075 152.162L17.9114 180.876C17.8621 181.551 18.3883 182.192 19.0868 182.307C19.7853 182.422 20.3915 181.968 20.4409 181.292L22.537 152.578C22.5863 151.902 22.06 151.262 21.3615 151.147C20.6631 151.032 20.0568 151.486 20.0075 152.162Z" fill="black"/>
<path d="M24.9723 155.605C23.7807 155.408 22.8934 154.258 22.9833 153.026C23.0207 152.513 23.2212 152.06 23.5294 151.738L23.546 151.741C24.5721 151.91 25.824 152.197 27.0405 152.51C27.2145 152.879 27.3011 153.299 27.2696 153.731C27.1796 154.963 26.1473 155.798 24.9723 155.605Z" fill="white"/>
<path d="M31.5722 164.585C31.5274 164.585 31.4825 164.568 31.4474 164.534C30.2659 163.395 29.5191 161.837 29.3977 160.26C29.2673 158.571 30.3135 157.438 31.4909 156.333L31.6424 156.19C31.7153 156.122 31.8282 156.124 31.8962 156.197C31.9642 156.27 31.9614 156.383 31.8892 156.451L31.7356 156.595C30.6256 157.638 29.6376 158.702 29.7554 160.232C29.8704 161.722 30.5779 163.196 31.697 164.276C31.7679 164.345 31.77 164.458 31.7013 164.53C31.6662 164.566 31.6192 164.585 31.5722 164.585Z" fill="black"/>
<path d="M17.6647 166.83C17.6436 167.593 17.6381 168.356 17.649 169.12C17.6821 171.448 17.8553 173.786 18.2715 176.079C18.438 176.997 18.6444 177.909 18.9207 178.8C19.0378 179.178 19.1676 179.552 19.3162 179.918C19.4773 180.315 19.6431 180.607 19.6425 181.046C19.6417 181.569 19.6843 182.094 19.792 182.606C20.279 182.58 20.766 182.555 21.253 182.53C21.6218 182.51 21.9934 182.503 22.3323 182.339C23.3564 181.843 23.9482 180.578 24.3699 179.591C25.1164 177.845 25.5569 175.967 25.8874 174.103C26.313 171.703 26.5303 169.266 26.5974 166.83C26.621 165.973 26.6251 165.115 26.6083 164.258C26.5923 163.44 26.5574 162.623 26.5012 161.808C26.4487 161.046 26.3776 160.285 26.2844 159.527C26.1989 158.832 26.0948 158.139 25.9667 157.451C25.8519 156.833 25.7179 156.219 25.557 155.612C25.4167 155.083 25.2561 154.558 25.0639 154.045C24.9021 153.613 24.7182 153.188 24.4962 152.783C24.3168 152.457 24.112 152.14 23.8626 151.862C23.6661 151.642 23.4382 151.444 23.1721 151.314C23.0566 151.257 22.9344 151.215 22.8081 151.191C22.6726 151.165 22.5434 151.179 22.4077 151.17C21.9637 151.139 21.5198 151.108 21.0758 151.076C20.9171 151.065 20.7585 151.054 20.5998 151.043C20.5639 151.367 20.7231 151.689 20.7102 152.015C20.7072 152.089 20.6959 152.163 20.6937 152.237C20.6913 152.317 20.6997 152.397 20.6947 152.477C20.6846 152.64 20.5756 152.721 20.4978 152.853C20.441 152.95 20.3862 153.047 20.3332 153.146C20.2191 153.358 20.1132 153.574 20.0135 153.793C19.7871 154.291 19.5925 154.803 19.4183 155.322C19.2179 155.917 19.0447 156.522 18.8907 157.132C18.7186 157.813 18.5708 158.499 18.4416 159.19C18.3006 159.943 18.182 160.7 18.082 161.46C17.9749 162.273 17.8893 163.09 17.8228 163.907C17.7526 164.77 17.7037 165.633 17.6748 166.498C17.6711 166.609 17.6677 166.719 17.6647 166.83Z" fill="black"/>
<path d="M24.6867 166.965C24.946 158.315 23.1581 151.243 20.6933 151.169C18.2286 151.095 16.0203 158.047 15.761 166.697C15.5017 175.347 17.2896 182.419 19.7543 182.493C22.2191 182.567 24.4274 175.615 24.6867 166.965Z" fill="white"/>
<path d="M19.7931 182.67C19.3261 182.67 18.8752 182.449 18.4538 182.017C16.538 180.047 15.3824 173.941 15.5787 166.822C15.8228 157.942 18.0527 150.984 20.6556 150.984C21.1226 150.984 21.5735 151.205 21.9949 151.637C23.9107 153.607 25.0663 159.713 24.8699 166.833C24.6259 175.713 22.396 182.67 19.7931 182.67ZM20.6556 151.343C18.3289 151.343 16.1685 158.437 15.9378 166.833C15.747 173.751 16.8872 179.891 18.7111 181.766C19.0624 182.127 19.4263 182.31 19.7931 182.31C22.1197 182.31 24.2802 175.218 24.5109 166.822C24.7016 159.904 23.5607 153.763 21.7376 151.888C21.3863 151.526 21.0223 151.343 20.6556 151.343Z" fill="black"/>
<path d="M27.7582 175.278C27.7042 175.278 27.6509 175.254 27.6152 175.206C27.1706 174.622 26.9497 173.817 26.9932 172.94C27.0331 172.145 27.2695 171.385 27.5191 170.681C28.3711 168.271 29.5751 165.971 30.7384 163.749C30.7854 163.662 30.8934 163.627 30.981 163.673C31.0687 163.718 31.1023 163.827 31.0568 163.914C29.8983 166.127 28.7014 168.414 27.8571 170.801C27.6173 171.479 27.3894 172.209 27.3522 172.957C27.3122 173.749 27.5072 174.472 27.9013 174.99C27.9609 175.069 27.9454 175.181 27.8669 175.241C27.8346 175.267 27.7961 175.278 27.7582 175.278Z" fill="black"/>
<path d="M30.9979 168.706C30.9305 168.706 30.866 168.669 30.8352 168.603C30.5996 168.099 30.1767 167.67 29.6747 167.427C29.5856 167.384 29.5484 167.277 29.5919 167.188C29.6354 167.098 29.7434 167.06 29.8317 167.105C30.4144 167.387 30.8864 167.865 31.1605 168.451C31.2026 168.541 31.1641 168.648 31.0736 168.69C31.0491 168.701 31.0238 168.706 30.9979 168.706Z" fill="black"/>
<path d="M29.5631 171.681C29.5126 171.681 29.4622 171.66 29.4264 171.618C29.0576 171.186 28.6186 170.831 28.1221 170.56C28.0352 170.514 28.0029 170.405 28.0499 170.318C28.0969 170.229 28.2056 170.196 28.2932 170.246C28.829 170.537 29.3016 170.919 29.6999 171.385C29.7637 171.461 29.7553 171.573 29.6795 171.637C29.6459 171.667 29.6045 171.681 29.5631 171.681Z" fill="black"/>
<path d="M19.6631 161.793C18.7452 161.793 17.8287 161.661 16.9403 161.398C16.8456 161.37 16.7909 161.269 16.8197 161.175C16.8477 161.079 16.9424 161.029 17.0427 161.053C18.6807 161.539 20.4197 161.563 22.0711 161.113C22.1721 161.089 22.2654 161.145 22.2913 161.241C22.3173 161.336 22.2605 161.434 22.1651 161.461C21.3447 161.682 20.5032 161.793 19.6631 161.793Z" fill="black"/>
<path d="M20.4775 168.039C19.5364 168.039 18.5968 167.86 17.7189 167.502C17.627 167.464 17.5835 167.359 17.6207 167.268C17.6572 167.176 17.7623 167.133 17.8549 167.169C19.3008 167.758 20.9241 167.84 22.4248 167.403C22.5194 167.377 22.6197 167.429 22.6477 167.525C22.6751 167.62 22.6211 167.72 22.5257 167.748C21.8582 167.943 21.1675 168.039 20.4775 168.039Z" fill="black"/>
<path d="M20.6056 172.852C19.3785 172.852 18.1521 172.502 17.1164 171.829C17.0329 171.776 17.0091 171.665 17.0631 171.581C17.1171 171.5 17.2286 171.474 17.3113 171.529C18.7825 172.483 20.6624 172.746 22.3398 172.237C22.4358 172.208 22.5347 172.26 22.5642 172.357C22.5929 172.451 22.5396 172.551 22.445 172.58C21.8482 172.762 21.2269 172.852 20.6056 172.852Z" fill="black"/>
<path d="M81.606 135.904C85.6903 138.678 89.7961 141.636 92.6178 145.719C95.4395 149.802 96.7807 155.273 94.8557 159.861C93.5529 162.966 90.9016 165.341 87.9318 166.862C81.9168 169.94 74.8509 169.757 68.1185 169.503C58.3303 169.135 48.5422 168.767 38.754 168.399C39.0226 162.375 37.606 156.627 37.4874 150.682C33.3878 151.291 29.1016 149.388 26.5001 146.162C22.6467 141.383 23.4225 135.431 23.5097 129.741C23.5446 127.462 22.4943 125.488 24.7904 124.973C25.8741 124.73 27.2083 124.888 28.3163 124.85C36.1177 124.578 43.9191 124.307 51.7204 124.035C55.1294 123.916 58.5384 123.798 61.9474 123.679C65.4095 123.558 69.127 126.869 71.7924 128.735C75.1106 131.057 78.2562 133.629 81.606 135.904Z" fill="white"/>
<path d="M45.2779 149.116C45.2688 149.116 45.2597 149.114 45.2498 149.113C32.3186 147.064 34.3872 132.321 34.4097 132.172C34.4237 132.074 34.5078 132.007 34.6137 132.021C34.7119 132.036 34.7792 132.127 34.7645 132.225C34.7427 132.371 32.7288 146.767 45.3059 148.759C45.4041 148.775 45.4707 148.866 45.4553 148.964C45.4413 149.053 45.3648 149.116 45.2779 149.116Z" fill="black"/>
<path d="M43.3744 150.895C43.2776 150.895 43.1977 150.818 43.1949 150.719C43.1921 150.621 43.2706 150.539 43.3695 150.536L70.9667 149.781H70.9717C71.0684 149.781 71.1484 149.858 71.1512 149.957C71.154 150.055 71.0754 150.137 70.9766 150.14L43.3793 150.895H43.3744Z" fill="black"/>
<path d="M37.4945 152.918C37.416 152.918 37.3438 152.866 37.3213 152.786C37.2954 152.691 37.3508 152.591 37.4468 152.566L39.5 151.998C39.5961 151.963 39.6943 152.027 39.7209 152.123C39.7468 152.218 39.6915 152.318 39.5954 152.343L37.5422 152.911C37.5261 152.917 37.51 152.918 37.4945 152.918Z" fill="black"/>
<path d="M31.6303 154.761C31.5384 154.761 31.4599 154.691 31.4515 154.598C31.4423 154.5 31.5146 154.412 31.6134 154.403C32.0524 154.359 39.5435 154.401 39.8612 154.402C39.9608 154.402 40.0407 154.483 40.04 154.583C40.0393 154.681 39.9594 154.761 39.8605 154.761C37.1671 154.748 31.9865 154.729 31.6471 154.76C31.6415 154.761 31.6359 154.761 31.6303 154.761Z" fill="black"/>
<path d="M64.5657 131.987C64.4886 131.987 64.4178 131.937 64.3939 131.86C64.3652 131.764 64.4185 131.664 64.5131 131.635C65.309 131.393 65.9457 130.648 66.0614 129.824C66.1926 128.897 65.7206 127.851 64.767 126.953C64.3638 126.573 63.9073 126.234 63.4655 125.906C62.9985 125.559 62.5168 125.202 62.0862 124.789C62.0147 124.721 62.0119 124.607 62.0806 124.536C62.1493 124.463 62.2629 124.463 62.3344 124.53C62.7482 124.927 63.2215 125.278 63.6794 125.618C64.1296 125.952 64.5952 126.298 65.0131 126.692C66.053 127.671 66.5649 128.831 66.4169 129.874C66.2809 130.847 65.5572 131.693 64.6183 131.979C64.6008 131.984 64.5833 131.987 64.5657 131.987Z" fill="black"/>
<path d="M46.8236 162.288C46.7261 162.288 46.6462 162.211 46.6441 162.113C46.642 162.013 46.7205 161.932 46.8194 161.929L67.7452 161.463C68.3237 161.451 68.9071 161.444 69.4934 161.437C72.9812 161.397 76.5883 161.355 79.8153 159.992C82.9267 158.677 84.9041 155.964 84.9763 152.911C85.0394 150.217 82.7941 148.329 80.83 146.987L74.9755 142.986C74.0436 142.349 73.1173 141.7 72.1903 141.05C70.2381 139.681 68.2192 138.265 66.1689 136.996C66.0847 136.944 66.0588 136.834 66.1107 136.749C66.164 136.664 66.2741 136.639 66.3582 136.691C68.417 137.965 70.44 139.383 72.3964 140.756C73.3227 141.406 74.2476 142.054 75.1775 142.689L81.0327 146.69C83.0711 148.085 85.4027 150.053 85.3353 152.92C85.2596 156.116 83.198 158.951 79.9556 160.323C76.6626 161.714 73.0198 161.756 69.4976 161.796C68.9121 161.803 68.33 161.81 67.7536 161.822L46.8278 162.288H46.8236Z" fill="black"/>
<path d="M25.7145 77.4336C21.4453 84.1386 17.9038 91.3065 15.1722 98.7712C14.4543 100.733 13.7862 102.745 13.6657 104.83C13.5452 106.916 14.0284 109.11 15.3868 110.697C16.4002 111.881 17.8147 112.643 19.2371 113.28C24.8019 115.771 31.0393 116.74 37.0978 116.055" fill="#0166FF"/>
<path d="M21.071 93.8393C21.2804 90.1534 22.2812 86.5607 23.3939 83.0406C24.2533 80.3219 25.2501 77.5167 27.2989 75.5338C30.1502 72.7743 34.4245 72.174 38.391 72.0539C51.0706 71.6701 60.5533 81.4474 62.683 93.46C64.1174 101.551 62.9296 110.053 63.2578 118.24C63.2916 119.082 63.3295 119.945 63.649 120.725C63.8579 121.235 64.1844 121.702 64.2984 122.241C64.6319 123.818 62.9897 125.188 61.3964 125.432C59.803 125.676 58.1827 125.223 56.5726 125.298C54.0177 125.416 51.6084 126.851 49.057 126.672C47.8763 126.589 46.7397 126.161 45.5585 126.087C43.8522 125.979 42.1995 126.609 40.5365 127.006C37.7318 127.675 34.8673 127.673 32.1039 126.947C29.4094 126.238 26.573 126.999 23.8303 126.409C23.5206 126.342 23.2033 126.253 22.9631 126.046C22.3933 125.556 22.4858 124.669 22.5821 123.924C23.333 118.115 21.217 112.616 20.6508 106.91C20.4606 104.994 20.9508 103.495 21.1941 101.642C21.5309 99.0791 20.9238 96.4297 21.071 93.8393Z" fill="#0166FF"/>
<path d="M85.3337 83.601C86.033 82.4442 86.7323 81.2874 87.4316 80.1306C87.8747 79.3975 88.3219 78.6556 88.5799 77.8387C88.8378 77.0218 88.8921 76.1099 88.5524 75.3235C88.3192 74.7836 87.8304 74.2904 87.2424 74.2999C87.135 73.8551 86.9182 73.4186 86.5493 73.1478C86.1607 72.8625 85.8023 73.1003 85.4618 72.9653C85.1708 72.85 85.0674 72.3315 84.7134 72.1387C84.3594 71.9459 83.9095 71.9413 83.5517 72.1269C83.4856 72.1612 83.4158 72.247 83.4701 72.298C84.4125 70.3606 84.9904 68.4177 85.4343 66.3095C85.5243 65.8821 85.6031 65.4343 85.4867 65.0134C85.3703 64.5924 85.0005 64.2093 84.5639 64.223C84.0249 64.24 83.6871 64.7947 83.4511 65.2796C82.485 67.2653 81.8305 69.2734 81.1819 71.3764C81.0489 71.8076 80.9131 72.2448 80.6691 72.6243C80.4252 73.0038 80.055 73.325 79.6114 73.4072C78.1639 73.6751 77.7227 71.2558 77.3461 70.3189C77.2337 70.0392 77.0986 69.7575 76.8715 69.5591C76.5914 69.3144 76.1818 69.2273 75.8262 69.3368C75.4707 69.4463 75.1812 69.7488 75.0873 70.1088C75.0329 70.3173 75.041 70.5368 75.0613 70.7512C75.3937 74.27 78.7584 76.9096 79.1891 80.4177C79.2789 81.1494 79.237 81.9039 79.4518 82.6092" fill="#FFC69F"/>
<path d="M85.3339 83.7808C85.3023 83.7808 85.2701 83.7724 85.2413 83.7549C85.1565 83.7037 85.1291 83.5936 85.1803 83.5087L87.2777 80.0384C87.7096 79.3232 88.1563 78.5841 88.4088 77.7847C88.6843 76.9131 88.6766 76.0639 88.3877 75.3943C88.19 74.9371 87.765 74.4792 87.2587 74.4792C87.2531 74.4799 87.2454 74.4771 87.2426 74.4792C87.1599 74.4792 87.0877 74.4224 87.068 74.3417C86.9888 74.0143 86.8156 73.5662 86.4425 73.292C86.2679 73.1637 86.0982 73.1721 85.9061 73.184C85.7511 73.1945 85.5737 73.2037 85.3956 73.1321C85.1979 73.0543 85.0794 72.8664 84.9644 72.6848C84.8669 72.5312 84.7666 72.372 84.6278 72.2963C84.3445 72.142 83.9826 72.1294 83.6874 72.2612C83.6692 72.2998 83.6503 72.3384 83.6313 72.3769C83.6068 72.4281 83.5584 72.4646 83.503 72.4751C83.442 72.4849 83.3887 72.4681 83.3473 72.4295C83.2891 72.3748 83.2625 72.2984 83.2737 72.2199C83.2863 72.1266 83.348 72.0516 83.4126 72.0032C84.2091 70.3189 84.7813 68.5392 85.2582 66.2721C85.3472 65.85 85.418 65.4391 85.3136 65.0611C85.2245 64.7386 84.9412 64.402 84.5878 64.402C84.5815 64.402 84.5759 64.4027 84.5696 64.4027C84.1257 64.4167 83.8249 64.9209 83.6124 65.3585C82.6377 67.3604 81.9877 69.3722 81.3538 71.4289C81.2184 71.8664 81.0789 72.3187 80.8194 72.7212C80.5214 73.1861 80.093 73.5003 79.6442 73.5837C78.2936 73.8333 77.7544 72.1294 77.3919 71.0025C77.3154 70.7655 77.2467 70.5517 77.1794 70.3855C77.0763 70.1302 76.9536 69.8694 76.7538 69.6948C76.5182 69.49 76.1767 69.4178 75.8793 69.5089C75.582 69.6001 75.3394 69.8539 75.2609 70.1548C75.2118 70.3434 75.2223 70.5538 75.2398 70.7347C75.4046 72.4793 76.3597 74.0472 77.2832 75.564C78.2011 77.0709 79.1505 78.6297 79.3672 80.396C79.3981 80.6478 79.4135 80.9023 79.4289 81.1562C79.4591 81.647 79.4871 82.1105 79.6232 82.5572C79.6519 82.6518 79.5986 82.7521 79.5032 82.7809C79.4128 82.8089 79.309 82.7563 79.2796 82.661C79.1316 82.175 79.1007 81.668 79.0706 81.1779C79.0559 80.9311 79.0411 80.6842 79.011 80.4395C78.8034 78.7503 77.875 77.2251 76.9767 75.7505C76.0322 74.1994 75.0547 72.595 74.8822 70.7683C74.8626 70.5566 74.8499 70.3069 74.9131 70.0643C75.0224 69.6457 75.3597 69.293 75.7735 69.1654C76.1865 69.0384 76.664 69.1394 76.9894 69.4241C77.2467 69.6485 77.3926 69.9542 77.5125 70.2515C77.5819 70.4247 77.6541 70.6463 77.7334 70.8924C78.077 71.9597 78.5391 73.4337 79.5783 73.2303C79.9303 73.1658 80.2725 72.9091 80.5179 72.5277C80.75 72.1659 80.8825 71.7374 81.0102 71.323C81.649 69.253 82.3039 67.2265 83.2898 65.2014C83.5465 64.6727 83.9223 64.0633 84.5583 64.0437C84.5682 64.0437 84.5787 64.043 84.5885 64.043C85.1242 64.043 85.5316 64.503 85.66 64.9658C85.7855 65.4209 85.7041 65.897 85.6102 66.3465C85.1572 68.4957 84.6194 70.2151 83.8887 71.8293C84.1958 71.776 84.5219 71.8286 84.7989 71.9807C85.0198 72.1013 85.1516 72.3089 85.268 72.4926C85.3556 72.6322 85.4384 72.7633 85.5274 72.7984C85.6319 72.8397 85.7483 72.8341 85.8858 72.8257C86.1066 72.8159 86.3766 72.7984 86.655 73.0031C87.0652 73.3039 87.2749 73.7583 87.3822 74.1258C88.0329 74.1903 88.5034 74.7583 88.7173 75.2519C89.0406 76.0015 89.0525 76.939 88.7509 77.8927C88.4859 78.7334 88.028 79.4908 87.5848 80.2235L85.4875 83.6939C85.4538 83.75 85.3942 83.7808 85.3339 83.7808Z" fill="black"/>
<path d="M85.1009 73.7267C85.0714 73.7267 85.0413 73.7197 85.0132 73.7043C84.927 73.6559 84.8961 73.5465 84.9438 73.4596C85.0385 73.2906 85.1205 73.1111 85.1871 72.9267C85.2215 72.8341 85.3281 72.7864 85.4171 72.8187C85.5104 72.853 85.5588 72.9561 85.5251 73.0487C85.4515 73.2513 85.361 73.4484 85.2579 73.6349C85.225 73.6938 85.164 73.7267 85.1009 73.7267Z" fill="black"/>
<path d="M86.8704 74.9289C86.8249 74.9289 86.7793 74.9121 86.7442 74.877C86.6741 74.8076 86.6727 74.694 86.7428 74.6232C86.8599 74.504 86.9644 74.3693 87.0535 74.2235C87.1053 74.1379 87.2168 74.1113 87.3003 74.1632C87.3851 74.2151 87.4118 74.3259 87.3606 74.41C87.2568 74.5797 87.1348 74.7368 86.9981 74.8756C86.963 74.9107 86.9167 74.9289 86.8704 74.9289Z" fill="black"/>
<path d="M83.1661 73.2336C83.1416 73.2336 83.1163 73.2287 83.0925 73.2175C83.002 73.1768 82.9621 73.071 83.0027 72.9805C83.117 72.7267 83.2306 72.4728 83.3323 72.2134C83.3596 72.1418 83.3828 72.078 83.3793 72.0275C83.3723 71.9287 83.4466 71.8424 83.5455 71.8361C83.645 71.8319 83.7306 71.9041 83.7369 72.0023C83.7467 72.1376 83.6983 72.2618 83.6668 72.3438C83.563 72.6089 83.4466 72.8683 83.3295 73.1278C83.3 73.1944 83.2341 73.2336 83.1661 73.2336Z" fill="black"/>
<path d="M45.3071 72.5938C50.6954 74.3541 55.2942 77.9094 59.1943 81.9406C61.2444 84.0596 63.054 86.4196 65.0696 88.6064C67.3484 91.0786 69.6271 93.5508 71.9059 96.0231C72.0882 96.2208 72.2705 96.4186 72.4528 96.6164C72.7967 96.9895 73.1494 97.3696 73.5962 97.6103C74.0429 97.8509 74.609 97.9309 75.054 97.687C75.9696 97.1849 75.9573 95.6668 75.9447 94.7733C75.9241 93.3128 75.9287 91.8419 75.95 90.3723C75.9968 87.1296 75.9808 83.8859 75.902 80.6438C75.902 80.6438 90.3313 81.4059 90.3429 81.4065C91.7779 81.4823 90.9973 92.3759 90.927 93.5645C90.6037 99.0296 89.6118 105.43 86.0093 109.778C82.5013 114.013 77.0076 115.019 71.902 113.404C65.9667 111.528 60.3638 107.04 56.5193 102.224" fill="#0166FF"/>
<path d="M21.7589 115.105C21.6642 115.105 21.585 115.031 21.5794 114.935C21.1018 106.358 20.6082 97.4902 22.8037 88.9816C22.8282 88.8856 22.9264 88.8302 23.0225 88.8526C23.1185 88.8772 23.176 88.9753 23.1515 89.0714C20.97 97.526 21.4623 106.366 21.9384 114.915C21.9433 115.014 21.8676 115.099 21.7687 115.105C21.7652 115.105 21.7624 115.105 21.7589 115.105Z" fill="black"/>
<path d="M62.2783 110.045C62.2446 110.045 62.211 110.036 62.1808 110.016C58.9433 107.927 55.9961 105.416 53.4212 102.553C53.3546 102.48 53.3609 102.366 53.4345 102.3C53.5074 102.234 53.6217 102.239 53.6877 102.313C56.2415 105.153 59.1649 107.643 62.3758 109.715C62.4592 109.769 62.4831 109.88 62.4291 109.963C62.3947 110.016 62.3372 110.045 62.2783 110.045Z" fill="black"/>
<path d="M108.625 41.4953C111.32 39.4517 111.944 35.7348 110.017 33.1934C108.09 30.652 104.343 30.2484 101.648 32.292C98.9519 34.3355 98.3285 38.0524 100.255 40.5938C102.182 43.1353 105.929 43.5388 108.625 41.4953Z" fill="#EFCB00"/>
<path d="M101.17 71.0109C103.865 68.9673 104.489 65.2504 102.562 62.709C100.635 60.1676 96.8881 59.764 94.1924 61.8076C91.4968 63.8512 90.8734 67.568 92.8001 70.1095C94.7268 72.6509 98.4739 73.0545 101.17 71.0109Z" fill="#31CDFE"/>
<path d="M132.54 36.2406L113.335 35.0781L113.271 36.1346L132.476 37.2971L132.54 36.2406Z" fill="black"/>
<path d="M131.795 41.4593L112.59 40.2969L112.526 41.3533L131.731 42.5158L131.795 41.4593Z" fill="black"/>
<path d="M125.914 65.9632L106.709 64.8008L106.646 65.8572L125.85 67.0197L125.914 65.9632Z" fill="black"/>
<path d="M125.168 71.182L105.964 70.0195L105.9 71.076L125.104 72.2385L125.168 71.182Z" fill="black"/>
<path d="M45.7295 75.3437C45.4394 75.4721 45.1267 75.5551 44.8169 75.6293C42.3305 76.2245 39.7386 76.3763 37.1997 76.0754C36.3222 75.9714 35.4399 75.8104 34.6375 75.4403C34.1872 75.2325 33.3413 74.7577 33.4937 74.1458C33.6393 73.5612 34.5443 73.4978 34.8368 73.0115C35.2289 72.3591 34.7657 70.8687 34.7228 70.1294C34.6606 69.0604 34.5985 67.9914 34.5363 66.9224C34.4653 65.7016 34.3944 64.4809 34.3234 63.2601L44.7765 62.6523C44.8476 63.8762 44.9188 65.1001 44.9899 66.324C45.0522 67.3947 45.1144 68.4654 45.1767 69.5361C45.2433 70.6811 45.0948 71.5349 45.9366 72.4276C46.3518 72.868 46.8225 73.3542 46.8209 73.9594C46.8196 74.4299 46.5146 74.859 46.1265 75.125C46.0011 75.2109 45.8679 75.2824 45.7295 75.3437Z" fill="#FFC69F"/>
<path d="M39.3025 68.7967C42.0141 69.1689 44.7852 68.4543 47.0116 66.8904C48.9012 65.5631 50.6484 63.4408 51.1466 61.1627C51.4641 61.1112 51.7915 61.1419 52.1076 61.0823C52.4237 61.0227 52.7498 60.8385 52.8333 60.5319C52.931 60.1729 52.6687 59.8294 52.5006 59.4971C52.2044 58.9113 51.9701 58.0031 51.9824 57.3484C52.0851 51.8526 48.2729 46.6589 42.576 45.8769C36.5242 45.0463 30.8854 49.5036 29.9815 55.8328C29.0775 62.1619 33.2507 67.966 39.3025 68.7967Z" fill="#FFC69F"/>
<path d="M49.8887 56.6987C50.2767 56.6753 50.5585 56.1153 50.5182 55.4479C50.478 54.7805 50.1309 54.2584 49.7429 54.2818C49.355 54.3052 49.0732 54.8652 49.1134 55.5326C49.1537 56.2 49.5008 56.7221 49.8887 56.6987Z" fill="black"/>
<path d="M35.344 54.4712C35.4987 54.4219 35.6572 54.3877 35.8192 54.3806C36.1803 54.3649 36.5337 54.4854 36.8632 54.6341C37.0936 54.738 37.3194 54.8611 37.5177 55.019C37.692 55.1577 37.8056 55.4275 37.9681 55.5445C38.1622 55.6842 38.1283 55.5177 38.1671 55.3197C38.1994 55.155 38.2442 54.9928 38.3016 54.835C38.5314 54.2038 38.9601 53.671 39.4755 53.2477C41.127 51.8913 43.4758 51.4527 45.5438 51.2236C48.4048 50.9065 51.5769 50.7021 53.5927 48.6472C55.8647 46.3312 55.6276 42.2554 53.5341 39.7768C51.4406 37.2982 47.947 36.319 44.7193 36.6474C42.2949 36.8941 39.615 38.1753 39.1413 40.5657C35.6533 38.3645 30.7687 38.6682 27.5803 41.2847C26.4991 42.1719 25.5857 43.3409 25.2985 44.7098C25.0114 46.0786 25.4642 47.6526 26.6224 48.4365C23.6333 48.5994 21.1239 51.466 21.1586 54.4593C21.1876 56.9672 22.9088 59.4 25.0127 60.621C26.0056 61.1973 27.1184 61.7833 28.2445 61.5598C28.2833 62.1207 28.3251 62.6943 28.5493 63.2099C28.877 63.9635 29.8365 64.5613 30.5259 64.9726C31.4526 65.5254 32.4862 65.9026 33.5565 66.0495C32.9707 65.9691 33.5392 63.915 33.7143 63.6606C34.1589 63.0148 34.863 62.3553 35.4706 61.8564C35.9507 61.4622 36.6521 61.0529 36.7221 60.3756C36.2182 60.6623 35.5785 60.6542 35.044 60.4297C34.5095 60.2052 34.0745 59.7839 33.7545 59.3005C33.3217 58.6466 33.0816 57.8549 33.1432 57.073C33.2048 56.2912 33.5821 55.5269 34.2051 55.0506C34.4365 54.8737 34.6967 54.7379 34.9629 54.6196C35.0872 54.5644 35.2143 54.5125 35.344 54.4712Z" fill="white"/>
<path d="M42.9489 68.6406C41.0682 68.6406 39.4912 67.7402 39.4063 67.6904C39.3208 67.6407 39.292 67.5313 39.3418 67.445C39.3909 67.3595 39.501 67.3293 39.5872 67.3805C39.6125 67.3945 42.1558 68.8439 44.5238 68.0284C44.6157 67.9955 44.7202 68.046 44.7517 68.1399C44.784 68.2332 44.7342 68.3356 44.6402 68.3678C44.0708 68.5642 43.4965 68.6406 42.9489 68.6406Z" fill="black"/>
<path d="M47.339 54.6164C47.3278 54.6164 47.3166 54.6157 47.3047 54.6129C47.2072 54.594 47.1441 54.5 47.163 54.4025C47.21 54.1592 47.3839 53.9874 47.548 53.8507C48.5592 53.0127 49.9763 52.7161 51.2427 53.0765C51.3381 53.1032 51.3935 53.2028 51.3661 53.2981C51.3395 53.3935 51.2371 53.4496 51.1446 53.4215C50.0086 53.0997 48.6854 53.3753 47.7773 54.127C47.6623 54.223 47.541 54.3387 47.515 54.4713C47.4989 54.5568 47.4232 54.6164 47.339 54.6164Z" fill="black"/>
<path d="M51.2828 61.3662C51.2408 61.3662 51.1994 61.3515 51.1657 61.3227C50.9476 61.3045 50.7534 61.3171 50.5662 61.355C50.4673 61.369 50.3733 61.3122 50.3537 61.2154C50.3341 61.1187 50.3965 61.0233 50.4933 61.003C50.719 60.9574 50.9497 60.9406 51.1847 60.963C51.2365 60.9679 51.3522 60.9798 51.4266 61.0787C51.4862 61.1586 51.4701 61.2708 51.3908 61.3304C51.3586 61.3543 51.3207 61.3662 51.2828 61.3662Z" fill="black"/>
<path d="M35.6136 57.6418C35.568 57.6418 35.5224 57.6242 35.4874 57.5899C35.2749 57.3802 35.1795 57.0668 35.2392 56.7723C35.2995 56.4784 35.5098 56.2274 35.7882 56.1173C36.0652 56.0072 36.3906 56.0437 36.636 56.2155C36.7173 56.2723 36.737 56.3845 36.6802 56.4658C36.6227 56.5472 36.5112 56.5668 36.4298 56.51C36.284 56.409 36.0855 56.3845 35.9207 56.4511C35.756 56.5163 35.6269 56.6706 35.5912 56.8445C35.5561 57.0177 35.6143 57.2105 35.7398 57.3346C35.8099 57.4041 35.8106 57.5176 35.7412 57.5885C35.7062 57.6242 35.6599 57.6418 35.6136 57.6418Z" fill="black"/>
<path d="M49.1839 63.7915C48.7835 63.9833 48.2952 63.9808 47.8968 63.7849C47.4984 63.5889 47.1983 63.2038 47.1058 62.7695C46.9615 63.2261 46.87 63.6567 47.0137 64.1135C47.1087 64.4154 47.2755 64.7086 47.5426 64.8782C47.9667 65.1474 48.5538 65.0324 48.9441 64.7162C49.3344 64.4 49.5603 63.9242 49.716 63.4466C49.4662 63.6731 49.488 63.6458 49.1839 63.7915Z" fill="black"/>
<path d="M25.1131 60.005C23.7492 59.6312 22.3043 59.4101 20.9224 59.7109C19.5405 60.0117 18.2288 60.9136 17.7374 62.2397C17.3171 63.3737 17.5448 64.6749 18.1236 65.7369C18.7023 66.7988 19.5997 67.6521 20.5494 68.4009C22.2757 69.762 24.2253 70.8391 26.2964 71.5759C27.72 72.0824 29.3425 72.4167 30.7048 71.7632C32.2859 71.0046 33.0379 69.0605 32.8371 67.3183C32.6362 65.5762 31.662 64.0179 30.5514 62.6608" fill="white"/>
<path d="M36.2276 77.641C36.2276 77.641 36.2213 77.641 36.2178 77.641C35.7346 77.6144 35.2676 77.3619 34.9373 76.9475C34.6064 76.5331 34.464 76.0219 34.5461 75.5451C34.5959 75.2548 34.7144 74.9876 34.8294 74.7296C34.9717 74.4091 35.1063 74.1069 35.1007 73.7906C35.0832 72.8335 33.8477 72.3538 33.469 72.2297C33.0574 72.0951 31.8057 71.6835 31.9452 70.7663C31.9999 70.4115 32.2468 70.1759 32.4852 69.9473C32.6633 69.7769 32.8309 69.6163 32.9059 69.4207C32.9901 69.1998 32.9501 68.9354 32.9003 68.7054C32.6794 67.6999 32.1535 66.7483 31.4186 66.0261C31.3485 65.9559 31.3471 65.8424 31.4165 65.7722C31.4873 65.7021 31.6002 65.7007 31.6711 65.7694C32.4543 66.5401 33.0153 67.5554 33.2509 68.6283C33.3126 68.9102 33.3596 69.2397 33.2411 69.549C33.138 69.8197 32.9326 70.0167 32.7334 70.2067C32.5294 70.4024 32.3358 70.5868 32.3001 70.8203C32.2369 71.2354 32.6563 71.5853 33.5812 71.8889C34.7424 72.2697 35.445 72.9779 35.4598 73.7836C35.4668 74.1805 35.3097 74.5339 35.1575 74.8754C35.0467 75.1244 34.9423 75.36 34.8995 75.6054C34.835 75.9819 34.9514 76.3893 35.2178 76.7238C35.4843 77.0583 35.8559 77.2617 36.2374 77.282C36.3363 77.2876 36.412 77.3725 36.4071 77.4713C36.4015 77.5667 36.3223 77.641 36.2276 77.641Z" fill="black"/>
<path d="M27.8913 80.6871C27.8016 80.6871 27.7237 80.6198 27.7132 80.5286C27.7013 80.4297 27.7721 80.3407 27.8703 80.3295C28.5147 80.2537 28.9039 79.4803 28.8955 78.8064C28.8899 78.3584 28.7728 77.9264 28.6487 77.4685C28.5736 77.1901 28.4958 76.9019 28.4453 76.6109C28.3128 75.8438 28.4264 74.8537 29.1416 74.3726C29.3071 74.2618 29.488 74.1903 29.6633 74.1202C29.8653 74.0396 30.0567 73.9638 30.204 73.8362C30.6142 73.4786 30.5847 72.8082 30.3737 72.3019C30.2551 72.0187 30.0925 71.7585 29.9207 71.4836C29.7587 71.2256 29.5911 70.9577 29.4642 70.6688C29.3674 70.4493 29.4698 70.1156 29.6626 70.0195C29.7881 69.9564 29.9305 70.0055 30.0062 70.138C30.0546 70.2242 30.0244 70.3343 29.9382 70.3827C29.8947 70.4066 29.8449 70.4129 29.8001 70.3988C29.786 70.4409 29.779 70.4928 29.7923 70.5244C29.9094 70.7894 30.0623 71.0341 30.225 71.2936C30.3968 71.5685 30.5749 71.8525 30.7046 72.1631C30.9655 72.7886 30.9851 73.6322 30.4396 74.1069C30.246 74.2745 30.0174 74.3656 29.7958 74.454C29.6311 74.5192 29.4754 74.5816 29.3422 74.6714C28.7686 75.0556 28.6858 75.8936 28.7987 76.5492C28.8464 76.8248 28.9221 77.1046 28.9951 77.3752C29.1199 77.8338 29.2482 78.3086 29.2545 78.8022C29.2657 79.6493 28.7665 80.5854 27.9124 80.6857C27.9054 80.6864 27.8983 80.6871 27.8913 80.6871ZM29.6928 70.314C29.6928 70.3133 29.6935 70.314 29.6928 70.314V70.314Z" fill="black"/>
<path d="M19.5939 67.9857C19.5455 67.9857 19.4964 67.9661 19.4614 67.9275C18.1157 66.4536 16.7014 64.7146 16.9538 62.7266C17.0092 62.2912 17.1501 61.8326 17.3836 61.3249C17.9895 60.0087 18.9586 58.9239 20.1128 58.2704C21.3785 57.5516 22.8525 57.3567 24.1609 57.7382C24.2563 57.7662 24.311 57.8658 24.2837 57.9604C24.2556 58.0558 24.1532 58.1098 24.0614 58.0832C22.8455 57.7305 21.4725 57.9114 20.2895 58.5831C19.2005 59.1995 18.2847 60.2268 17.7104 61.4749C17.4916 61.949 17.3605 62.3732 17.31 62.7715C17.0772 64.608 18.4355 66.2706 19.7264 67.6849C19.793 67.7585 19.7881 67.8721 19.7152 67.9388C19.6801 67.9703 19.6374 67.9857 19.5939 67.9857Z" fill="white"/>
<path d="M45.652 94.7682C45.5903 94.7682 45.53 94.736 45.4971 94.6792L42.2651 89.1178C42.2153 89.0316 42.2441 88.9222 42.3296 88.8724C42.4152 88.8219 42.5253 88.8513 42.5751 88.9369L45.807 94.4982C45.8568 94.5845 45.828 94.6939 45.7425 94.7437C45.7137 94.7605 45.6829 94.7682 45.652 94.7682Z" fill="black"/>
<path d="M147.195 42.249L149.917 42.7358L152.113 24.6641L149.391 24.1758L147.195 42.249Z" fill="white"/>
<path d="M145.726 54.4626L148.447 54.9494L149.762 44.1314L147.04 43.6445L145.726 54.4626Z" fill="white"/>
<path d="M132.945 4.31554L115.472 3.58594L115.4 5.29627L132.874 6.02587L132.945 4.31554Z" fill="black"/>
<path d="M113.155 5.51649C113.881 5.51649 114.469 4.98026 114.469 4.31879C114.469 3.65732 113.881 3.12109 113.155 3.12109C112.43 3.12109 111.841 3.65732 111.841 4.31879C111.841 4.98026 112.43 5.51649 113.155 5.51649Z" fill="black"/>
<path d="M130.872 178.005C130.907 178.128 130.951 178.234 131.004 178.318C131.413 178.957 132.579 179.057 133.128 179.189C134.512 179.524 135.917 179.705 137.318 179.856C140.529 180.201 143.754 180.316 146.974 180.316C150.816 180.316 154.678 180.183 158.501 179.621C159.646 179.453 160.815 179.279 161.93 178.869C162.19 178.773 162.615 178.684 162.824 178.425C163.134 178.041 163.003 177.993 162.983 177.409C162.906 175.207 163.051 172.951 163.084 170.746L130.798 170.746C130.806 171.884 130.814 173.022 130.823 174.16C130.829 175.021 130.596 177.043 130.872 178.005Z" fill="white"/>
<path d="M146.974 180.496C143.35 180.496 140.186 180.344 137.298 180.034C135.952 179.89 134.509 179.709 133.085 179.364C132.988 179.341 132.871 179.319 132.742 179.294C132.103 179.17 131.229 179.002 130.853 178.414C130.793 178.32 130.742 178.204 130.699 178.057C130.493 177.339 130.557 176.103 130.608 175.112C130.627 174.736 130.645 174.403 130.643 174.162L130.618 170.747C130.618 170.7 130.636 170.653 130.67 170.62C130.703 170.586 130.749 170.566 130.797 170.566H163.084C163.133 170.566 163.178 170.586 163.212 170.62C163.246 170.655 163.264 170.701 163.264 170.749C163.252 171.484 163.229 172.224 163.205 172.966C163.159 174.427 163.111 175.941 163.162 177.405C163.167 177.551 163.18 177.663 163.189 177.754C163.224 178.061 163.228 178.21 162.963 178.538C162.762 178.787 162.426 178.895 162.156 178.982C162.098 179.001 162.041 179.019 161.992 179.037C160.844 179.461 159.613 179.64 158.527 179.799C154.325 180.416 150.145 180.496 146.974 180.496ZM131.044 177.957C131.077 178.068 131.114 178.158 131.155 178.221C131.448 178.679 132.235 178.831 132.809 178.94C132.944 178.967 133.068 178.991 133.169 179.016C134.574 179.355 136.002 179.535 137.336 179.678C140.211 179.987 143.364 180.137 146.974 180.137C150.133 180.137 154.295 180.058 158.475 179.442C159.596 179.28 160.755 179.11 161.868 178.701C161.922 178.681 161.983 178.661 162.047 178.64C162.271 178.569 162.55 178.479 162.684 178.313C162.865 178.088 162.86 178.043 162.833 177.795C162.822 177.695 162.809 177.574 162.803 177.416C162.752 175.941 162.8 174.423 162.846 172.953C162.868 172.276 162.89 171.599 162.902 170.925H130.978L131.002 174.159C131.004 174.406 130.987 174.747 130.966 175.13C130.919 176.044 130.855 177.297 131.044 177.957Z" fill="black"/>
<path d="M146.973 172.724C155.87 172.724 163.083 171.846 163.083 170.762C163.083 169.679 155.87 168.801 146.973 168.801C138.076 168.801 130.863 169.679 130.863 170.762C130.863 171.846 138.076 172.724 146.973 172.724Z" fill="#6566FF"/>
<path d="M147.04 171.592C152.019 171.592 156.055 171.222 156.055 170.765C156.055 170.308 152.019 169.938 147.04 169.938C142.062 169.938 138.026 170.308 138.026 170.765C138.026 171.222 142.062 171.592 147.04 171.592Z" fill="white"/>
<path d="M157.293 173.418C157.366 173.849 157.293 178.649 157.293 178.649V173.418Z" fill="white"/>
<path d="M157.293 178.827H157.29C157.192 178.826 157.112 178.744 157.114 178.645C157.143 176.722 157.168 173.752 157.117 173.446C157.1 173.349 157.166 173.257 157.263 173.24C157.365 173.227 157.454 173.289 157.47 173.387C157.544 173.822 157.481 178.157 157.473 178.65C157.471 178.749 157.391 178.827 157.293 178.827Z" fill="black"/>
<path d="M150.956 178.828C150.857 178.828 150.776 178.748 150.776 178.648V174.226C150.776 174.127 150.857 174.047 150.956 174.047C151.055 174.047 151.135 174.127 151.135 174.226V178.648C151.135 178.748 151.055 178.828 150.956 178.828Z" fill="black"/>
<path d="M143.963 178.828C143.864 178.828 143.784 178.748 143.784 178.649V173.418C143.784 173.318 143.864 173.238 143.963 173.238C144.062 173.238 144.143 173.318 144.143 173.418V178.649C144.143 178.748 144.062 178.828 143.963 178.828Z" fill="black"/>
<path d="M138.5 178.828C138.401 178.828 138.32 178.748 138.32 178.649V173.418C138.32 173.318 138.401 173.238 138.5 173.238C138.599 173.238 138.679 173.318 138.679 173.418V178.649C138.679 178.748 138.599 178.828 138.5 178.828Z" fill="black"/>
<path d="M132.891 177.656C132.793 177.656 132.712 177.576 132.712 177.476V172.726C132.712 172.627 132.793 172.547 132.891 172.547C132.99 172.547 133.071 172.627 133.071 172.726V177.476C133.071 177.576 132.99 177.656 132.891 177.656Z" fill="black"/>
<path d="M133.059 169.017C133.094 169.14 133.138 169.246 133.191 169.329C133.6 169.969 134.766 170.068 135.315 170.201C136.699 170.536 138.104 170.717 139.505 170.868C142.716 171.213 145.941 171.327 149.161 171.327C153.003 171.327 156.865 171.194 160.688 170.632C161.833 170.464 163.002 170.291 164.117 169.88C164.377 169.785 164.802 169.696 165.011 169.437C165.321 169.053 165.19 169.005 165.17 168.421C165.094 166.219 165.238 163.963 165.271 161.758L132.985 161.758C132.993 162.896 133.001 164.034 133.01 165.172C133.016 166.033 132.783 168.055 133.059 169.017Z" fill="white"/>
<path d="M149.161 171.507C145.537 171.507 142.373 171.356 139.486 171.046C138.135 170.9 136.691 170.718 135.272 170.376C135.175 170.353 135.057 170.329 134.928 170.305C134.29 170.182 133.415 170.014 133.039 169.426C132.978 169.328 132.927 169.21 132.887 169.066C132.68 168.348 132.744 167.114 132.795 166.121C132.814 165.746 132.832 165.414 132.83 165.174L132.829 165.125L132.805 161.759C132.805 161.711 132.823 161.665 132.857 161.631C132.891 161.598 132.937 161.578 132.985 161.578H165.271C165.319 161.578 165.365 161.598 165.399 161.631C165.433 161.666 165.451 161.713 165.451 161.76C165.439 162.495 165.416 163.236 165.392 163.978C165.346 165.439 165.298 166.951 165.349 168.415C165.354 168.562 165.366 168.674 165.377 168.766C165.411 169.073 165.415 169.223 165.15 169.55C164.95 169.799 164.615 169.907 164.345 169.994C164.285 170.012 164.229 170.031 164.179 170.049C163.038 170.468 161.856 170.642 160.714 170.81C156.511 171.427 152.332 171.507 149.161 171.507ZM133.166 161.937L133.189 165.171C133.191 165.417 133.173 165.757 133.154 166.14C133.107 167.053 133.042 168.306 133.232 168.968C133.263 169.077 133.3 169.167 133.342 169.234C133.635 169.691 134.422 169.843 134.996 169.952C135.131 169.979 135.255 170.003 135.356 170.028C136.755 170.364 138.186 170.545 139.524 170.69C142.398 170.998 145.551 171.148 149.161 171.148C152.32 171.148 156.482 171.07 160.662 170.454C161.786 170.289 162.949 170.119 164.056 169.712C164.11 169.693 164.171 169.673 164.235 169.652C164.459 169.58 164.737 169.491 164.871 169.325C165.052 169.099 165.047 169.054 165.02 168.805C165.009 168.707 164.996 168.586 164.99 168.426C164.939 166.951 164.987 165.433 165.033 163.965C165.055 163.288 165.077 162.61 165.089 161.937H133.166Z" fill="black"/>
<path d="M149.161 163.736C158.059 163.736 165.272 162.858 165.272 161.774C165.272 160.691 158.059 159.812 149.161 159.812C140.264 159.812 133.051 160.691 133.051 161.774C133.051 162.858 140.264 163.736 149.161 163.736Z" fill="#FF9A32"/>
<path d="M149.229 162.6C154.207 162.6 158.243 162.229 158.243 161.773C158.243 161.316 154.207 160.945 149.229 160.945C144.25 160.945 140.214 161.316 140.214 161.773C140.214 162.229 144.25 162.6 149.229 162.6Z" fill="white"/>
<path d="M159.48 164.43C159.553 164.861 159.48 169.661 159.48 169.661V164.43Z" fill="white"/>
<path d="M159.48 169.839H159.478C159.379 169.837 159.299 169.756 159.301 169.656C159.33 167.734 159.355 164.763 159.304 164.457C159.287 164.361 159.353 164.268 159.45 164.251C159.554 164.24 159.641 164.3 159.657 164.399C159.731 164.833 159.668 169.168 159.66 169.662C159.658 169.76 159.578 169.839 159.48 169.839Z" fill="black"/>
<path d="M153.143 169.839C153.045 169.839 152.964 169.76 152.964 169.66V165.238C152.964 165.139 153.045 165.059 153.143 165.059C153.242 165.059 153.323 165.139 153.323 165.238V169.66C153.323 169.76 153.242 169.839 153.143 169.839Z" fill="black"/>
<path d="M146.15 169.84C146.051 169.84 145.971 169.76 145.971 169.661V164.43C145.971 164.33 146.051 164.25 146.15 164.25C146.249 164.25 146.33 164.33 146.33 164.43V169.661C146.33 169.76 146.249 169.84 146.15 169.84Z" fill="black"/>
<path d="M140.688 169.84C140.589 169.84 140.508 169.76 140.508 169.661V164.43C140.508 164.33 140.589 164.25 140.688 164.25C140.787 164.25 140.867 164.33 140.867 164.43V169.661C140.867 169.76 140.787 169.84 140.688 169.84Z" fill="black"/>
<path d="M135.079 168.664C134.98 168.664 134.899 168.584 134.899 168.484V163.734C134.899 163.635 134.98 163.555 135.079 163.555C135.178 163.555 135.258 163.635 135.258 163.734V168.484C135.258 168.584 135.178 168.664 135.079 168.664Z" fill="black"/>
<path d="M140.979 154.054C140.972 154.181 140.979 154.295 141.001 154.391C141.176 155.127 142.241 155.602 142.714 155.907C143.907 156.676 145.17 157.306 146.438 157.907C149.346 159.284 152.343 160.448 155.373 161.503C158.988 162.762 162.665 163.902 166.447 164.626C167.579 164.842 168.736 165.062 169.92 165.041C170.196 165.036 170.624 165.092 170.906 164.917C171.323 164.657 171.216 164.569 171.388 164.013C172.038 161.916 172.913 159.841 173.667 157.777L143.287 147.199C142.922 148.273 142.557 149.346 142.192 150.42C141.916 151.232 141.035 153.058 140.979 154.054Z" fill="white"/>
<path d="M170.28 165.226C170.163 165.226 170.05 165.222 169.953 165.221C169.888 165.224 169.825 165.222 169.761 165.222C168.612 165.222 167.495 165.009 166.413 164.803C162.254 164.006 158.297 162.712 155.314 161.673C151.901 160.485 148.972 159.305 146.361 158.07C145.143 157.493 143.846 156.85 142.616 156.059C142.534 156.004 142.431 155.945 142.319 155.881C141.757 155.557 140.988 155.112 140.827 154.433C140.8 154.324 140.792 154.196 140.8 154.045C140.842 153.3 141.306 152.16 141.679 151.243C141.82 150.898 141.945 150.589 142.023 150.363L143.118 147.142C143.133 147.096 143.166 147.059 143.209 147.038C143.251 147.017 143.302 147.013 143.346 147.03L173.726 157.607C173.772 157.622 173.809 157.656 173.829 157.7C173.85 157.743 173.852 157.794 173.836 157.838C173.585 158.524 173.321 159.213 173.056 159.901C172.533 161.263 171.991 162.671 171.56 164.067C171.516 164.207 171.491 164.316 171.471 164.406C171.402 164.706 171.357 164.848 171.001 165.071C170.786 165.204 170.522 165.226 170.28 165.226ZM169.952 164.862C170.049 164.862 170.16 164.867 170.276 164.867C170.47 164.867 170.673 164.852 170.811 164.765C171.055 164.612 171.065 164.569 171.121 164.326C171.143 164.229 171.17 164.112 171.216 163.96C171.652 162.555 172.195 161.141 172.721 159.774C172.963 159.143 173.204 158.514 173.436 157.886L143.399 147.428L142.362 150.478C142.283 150.711 142.156 151.025 142.011 151.379C141.668 152.223 141.197 153.38 141.159 154.065C141.152 154.18 141.158 154.275 141.176 154.349C141.302 154.878 141.994 155.278 142.499 155.569C142.616 155.638 142.724 155.7 142.811 155.756C144.023 156.537 145.307 157.174 146.515 157.744C149.114 158.976 152.03 160.15 155.432 161.333C158.404 162.368 162.345 163.659 166.48 164.45C167.595 164.663 168.747 164.894 169.916 164.862C169.928 164.862 169.94 164.862 169.952 164.862Z" fill="black"/>
<path d="M173.66 157.796C174.015 156.777 167.516 153.587 159.144 150.672C150.772 147.757 143.698 146.221 143.343 147.24C142.988 148.26 149.487 151.449 157.859 154.364C166.231 157.279 173.305 158.815 173.66 157.796Z" fill="#FF2E2C"/>
<path d="M167.046 155.499C167.196 155.069 163.52 153.398 158.836 151.767C154.151 150.136 150.232 149.163 150.083 149.593C149.933 150.023 153.609 151.693 158.293 153.324C162.978 154.955 166.897 155.929 167.046 155.499Z" fill="white"/>
<path d="M167.342 158.398C167.269 158.828 165.628 163.321 165.628 163.321L167.342 158.398Z" fill="white"/>
<path d="M165.628 163.499C165.607 163.499 165.586 163.496 165.566 163.488C165.473 163.454 165.425 163.352 165.459 163.258C166.116 161.459 167.113 158.671 167.165 158.368C167.182 158.269 167.266 158.208 167.372 158.22C167.469 158.237 167.535 158.33 167.518 158.427C167.445 158.86 165.965 162.92 165.796 163.381C165.77 163.454 165.701 163.499 165.628 163.499Z" fill="black"/>
<path d="M159.665 161.427C159.646 161.427 159.626 161.424 159.607 161.417C159.513 161.385 159.463 161.282 159.496 161.189L160.944 157.027C160.978 156.934 161.08 156.883 161.173 156.917C161.267 156.949 161.316 157.051 161.284 157.145L159.835 161.306C159.809 161.381 159.74 161.427 159.665 161.427Z" fill="black"/>
<path d="M153.085 159.137C153.065 159.137 153.046 159.134 153.026 159.127C152.932 159.095 152.883 158.993 152.915 158.899L154.63 153.976C154.663 153.882 154.764 153.833 154.858 153.865C154.952 153.898 155.001 154 154.969 154.094L153.255 159.017C153.229 159.091 153.159 159.137 153.085 159.137Z" fill="black"/>
<path d="M147.945 157.343C147.926 157.343 147.906 157.34 147.886 157.333C147.792 157.301 147.743 157.199 147.776 157.105L149.489 152.184C149.522 152.09 149.624 152.039 149.718 152.073C149.812 152.105 149.861 152.208 149.829 152.302L148.115 157.223C148.089 157.297 148.02 157.343 147.945 157.343Z" fill="black"/>
<path d="M143.053 154.4C143.033 154.4 143.013 154.397 142.994 154.39C142.9 154.357 142.851 154.255 142.883 154.161L144.439 149.692C144.472 149.598 144.573 149.547 144.668 149.581C144.762 149.613 144.811 149.715 144.778 149.809L143.222 154.279C143.196 154.353 143.127 154.4 143.053 154.4Z" fill="black"/>
</svg>
