<svg width="195" height="198" viewBox="0 0 195 198" fill="none" xmlns="http://www.w3.org/2000/svg">
<path d="M97.5554 156.044C97.352 156.044 97.1823 155.885 97.1718 155.679C97.0097 152.543 96.8416 149.299 96.1308 146.173C95.2151 142.152 93.5616 138.151 91.3497 134.601C91.0793 134.169 91.7342 133.764 92.0012 134.194C94.2589 137.816 95.9461 141.899 96.8798 146.002C97.6056 149.193 97.7753 152.47 97.9389 155.64C97.9502 155.852 97.7873 156.033 97.5749 156.043C97.5681 156.044 97.5614 156.044 97.5554 156.044ZM153.678 41.9257C156.565 39.0785 159.594 36.3311 163.058 34.2239C166.603 32.0673 170.912 30.2397 174.939 29.2449C176.814 28.7816 177.386 29.0937 178.423 30.1559C183.167 35.0164 185.084 37.0884 182.963 43.5413C181.431 48.2036 178.036 52.1995 174.392 55.3842C169.084 60.0224 162.089 64.0934 154.831 64.012C149.805 63.9557 146.44 60.8799 143.958 56.7146C143.461 55.88 143.02 54.8191 143.507 53.9787C143.922 53.2635 144.823 53.0365 145.543 52.6294C148.29 51.0752 148.489 47.0431 153.678 41.9257Z" fill="white"/>
<path d="M149.361 37.4834C152.249 34.6361 155.277 31.8888 158.742 29.7816C169.895 22.9978 178.109 27.0214 179.175 32.4784C180.551 39.522 175.051 46.5939 170.075 50.9418C164.767 55.58 157.772 59.6511 150.515 59.5697C147.203 59.5325 144.562 58.643 142.828 55.6347C139.773 50.3329 145.066 41.7187 149.361 37.4834Z" fill="#FFD600"/>
<path d="M150.51 59.9529C146.587 59.9094 144.116 58.6364 142.495 55.8255C140.316 52.0427 142.409 47.0912 143.409 45.1383C145.078 41.8853 146.83 39.4392 149.092 37.2085C151.719 34.6176 154.897 31.6694 158.542 29.4522C169.998 22.4835 178.444 26.7278 179.553 32.4034C181.174 40.7032 173.642 48.3342 170.328 51.2306C164.778 56.0801 157.826 60.026 150.51 59.9529ZM144.094 45.4888C143.15 47.3299 141.17 51.9864 143.162 55.4412C144.65 58.0239 146.851 59.1438 150.519 59.1843C158.322 59.2894 165.312 54.5931 169.822 50.6511C173.036 47.8433 180.343 40.4577 178.798 32.5505C178.094 28.9441 174.411 26.9806 171.072 26.6338C166.54 26.1685 161.975 28.2648 158.942 30.1082C155.364 32.2856 152.227 35.1963 149.632 37.7565C147.43 39.9263 145.723 42.3109 144.094 45.4888Z" fill="white"/>
<path d="M180.04 48.4549C179.92 48.4549 179.801 48.3986 179.726 48.292C178.765 46.9328 177.516 45.7409 176.112 44.8447C175.686 44.5709 176.092 43.9245 176.526 44.1962C178.013 45.1464 179.337 46.4089 180.354 47.8492C180.476 48.0226 180.435 48.262 180.261 48.3844C180.194 48.4324 180.117 48.4549 180.04 48.4549ZM116.622 8.59844C120.185 9.10402 123.754 9.763 127.106 11.0742C130.535 12.4157 134.144 14.4732 137.013 16.7798C138.349 17.854 138.437 18.4255 138.245 19.7289C137.368 25.6934 136.937 28.1612 131.241 30.1368C122.852 33.0464 107.694 29.4059 101.654 21.2981C98.989 17.72 99.3492 13.6902 100.953 9.69685C101.275 8.89674 101.786 8.01466 102.642 7.90641C103.37 7.81428 104.015 8.32816 104.689 8.61698C107.265 9.71953 110.217 7.68974 116.622 8.59844Z" fill="white"/>
<path d="M117.434 3.16405C120.997 3.66963 124.566 4.32861 127.918 5.63983C138.708 9.86103 140.288 17.8237 137.011 21.5128C132.78 26.2746 124.829 26.1982 119.082 25.026C112.952 23.7756 106.315 21.0298 102.466 15.8638C100.711 13.5067 99.9172 11.1639 101.107 8.32134C103.205 3.31158 112.133 2.41199 117.434 3.16405Z" fill="#FFD600"/>
<path d="M119.006 25.4017C113.673 24.3141 106.422 21.8155 102.158 16.0924C100.068 13.2853 99.6344 10.843 100.753 8.17171C102.928 2.97631 111.979 2.00297 117.488 2.78191C120.734 3.24276 124.529 3.90025 128.058 5.28054C139.165 9.62867 140.718 17.9185 137.298 21.7667C133.056 26.542 125.247 26.6755 119.006 25.4017ZM108.956 3.79592C107.156 4.11942 102.821 5.22275 101.461 8.46894C100.447 10.8925 100.84 13.0354 102.775 15.6331C106.893 21.1625 113.957 23.5875 119.159 24.6481C122.863 25.4032 131.988 26.5853 136.723 21.2563C138.875 18.8342 138.281 15.1985 136.737 12.6706C134.635 9.22926 130.706 7.14194 127.778 5.99658C124.323 4.64481 120.583 3.99783 117.38 3.54298C114.667 3.15945 112.069 3.23675 108.956 3.79592Z" fill="white"/>
<path d="M12.788 28.0266C19.0182 55.3237 25.3628 80.1536 31.4952 101.979C33.2476 108.189 35.0306 114.399 36.9213 120.579C35.2765 121.778 33.7087 123.115 32.4636 124.683C30.2962 117.612 28.221 110.495 26.2074 103.378C19.2279 78.6757 13.1316 53.8977 7.50022 29.4409C6.1628 23.6304 10.1595 19.1573 16.1697 16.7747C24.5929 13.4158 39.03 9.65771 39.1963 9.65771C33.4259 11.2424 27.1974 13.0653 21.4421 15.3451C15.4319 17.7431 11.4353 22.2316 12.788 28.0266ZM78.5321 137.103C77.8435 137.297 72.3371 138.791 68.4484 139.747C68.4484 139.732 68.433 139.716 68.433 139.701C68.4176 139.686 68.4176 139.67 68.4176 139.655C72.8496 138.585 74.3336 138.181 78.5321 137.103Z" fill="white"/>
<path d="M99.1454 141.361C93.7807 143.36 79.8848 151.537 76.9181 143.098C76.0573 140.639 76.7337 138.717 78.2247 137.18C78.8008 137.098 89.4912 134.19 97.7005 131.723C99.6678 132.991 100.35 135.414 100.929 137.657C101.573 140.02 100.932 140.655 99.1454 141.361Z" fill="white"/>
<path d="M68.313 139.281C79.9619 136.489 93.992 132.612 107.682 128.236C113.436 126.7 117.416 121.43 116.005 116.158C106.852 74.1071 98.6431 44.3545 90.5402 18.7498C89.0711 14.1867 88.4432 8.35841 85.1789 4.71804C82.6818 1.90643 78.5251 0.85114 73.7823 1.82537C59.4784 4.83575 35.1438 10.3277 21.5829 15.7018C15.1235 18.2792 11.9749 22.8539 13.1623 27.939C19.4217 55.3583 25.7544 80.1296 31.8648 101.874C33.4163 107.373 35.2747 113.882 37.2892 120.465C37.4366 120.953 36.7037 121.177 36.5536 120.691C34.5376 114.1 32.6777 107.586 31.1248 102.083C25.0688 80.5264 18.7031 55.6711 12.4132 28.1116C11.1328 22.6258 14.4548 17.7186 21.2992 14.9873C35.0569 9.55458 59.1381 4.12908 73.6255 1.07256C78.652 0.0442836 83.0683 1.18589 85.7523 4.20616C89.17 8.01741 89.799 13.9411 91.272 18.5164C99.3368 43.9974 107.562 73.751 116.752 115.977C118.282 121.695 113.98 127.35 107.898 128.974C94.2206 133.344 80.1944 137.223 68.4916 140.028C68.0023 140.151 67.8148 139.4 68.313 139.281Z" fill="white"/>
<path d="M112.888 117.242C105.892 85.5198 97.7242 52.9659 88.0167 22.2459C86.6179 17.8189 85.9262 12.0698 82.8058 8.39612C80.1619 5.27565 76.0885 4.461 71.9381 5.27565C58.9816 7.84485 36.2783 13.0858 24.1633 18.0033C18.6603 20.2475 15.0788 24.5209 16.3853 30.1776C21.9463 54.0734 27.946 78.2842 34.6929 102.27C36.2453 107.773 37.8286 113.276 39.4734 118.764C45.6066 114.644 52.3855 111.478 59.4871 109.464C62.792 108.526 67.0038 108.127 69.0021 110.909C70.2626 112.661 70.0781 115.121 69.1097 117.058C67.8065 119.643 66.5845 120.434 52.2472 133.628C58.3342 132.46 65.6973 134.089 68.4027 139.638C80.6384 136.733 92.9049 133.275 105.202 129.324C110.828 127.802 114.271 122.407 112.888 117.242ZM44.6997 85.592L41.9328 86.5296C39.9192 87.2214 37.8133 86.1301 37.2291 84.0856C34.6621 76.7687 32.5408 69.6517 31.0497 62.796C30.4503 60.7516 31.6032 58.5381 33.6169 57.8464L36.3837 56.9087C38.3974 56.217 40.5033 57.3237 41.0874 59.3528C43.4239 67.4074 45.5759 74.8012 47.2668 80.6578C47.8509 82.6868 46.7134 84.9003 44.6997 85.592ZM78.7015 78.3827L75.9347 79.3204C73.921 80.0121 71.5846 78.1061 70.7084 75.0625C67.0807 64.1026 63.9603 53.4962 61.5008 43.351C60.6247 40.3228 61.5469 37.2946 63.5452 36.6029L66.3121 35.6652C68.3258 34.9735 70.6623 36.8796 71.5538 39.9232C75.0278 51.913 78.225 62.9343 80.746 71.6346C81.6222 74.6628 80.7152 77.691 78.7015 78.3827Z" fill="#0166FF"/>
<path d="M23.9428 14.4009C25.2167 15.785 27.0008 16.9266 28.3634 17.7238C32.7904 20.3047 37.5499 19.3811 42.6957 18.2129C48.2619 16.9312 53.7052 15.1906 59.1103 13.4593C60.8451 12.8885 62.6186 12.3072 64.068 11.2849C66.4819 9.61424 69.264 5.40634 68.4918 2.52612C55.7347 5.16936 34.917 10.3528 23.9428 14.4009ZM54.7541 185.943C47.5112 177.57 42.2527 169.691 38.6778 161.856C34.6514 153.068 29.2371 144.643 29.0818 134.449C28.9656 128.483 30.6704 124.538 37.3583 119.758C43.9823 115.073 51.0637 111.453 59.3814 109.094C62.7131 108.15 67.1399 107.659 69.3143 110.684C70.5362 112.384 70.591 114.954 69.4532 117.229C68.1382 119.838 66.8983 120.662 53.4421 133.05C59.1757 132.333 66.0306 133.965 68.7251 139.424C68.7537 139.462 68.7754 139.505 68.7882 139.552C68.7927 139.564 68.7964 139.574 68.8002 139.586C68.8039 139.595 68.8077 139.604 68.8107 139.614C71.2455 144.779 68.9225 150.716 66.553 155.877C66.3417 156.337 65.6422 156.019 65.855 155.556C68.157 150.542 70.4184 144.785 68.1014 139.911C68.0967 139.902 68.0618 139.818 68.0579 139.806C65.3551 134.264 58.0056 132.912 52.3193 134.006C51.9243 134.072 51.7106 133.599 51.986 133.345C66.4093 120.068 67.5404 119.317 68.7664 116.885C69.7774 114.862 69.7474 112.604 68.6898 111.133C66.6761 108.329 62.1254 109.113 59.5915 109.834C51.4099 112.154 44.3859 115.725 37.8041 120.384C31.3454 125.014 29.7365 128.671 29.8504 134.435C30.0022 144.433 35.4036 152.861 39.3766 161.537C42.9215 169.305 48.1409 177.123 55.3351 185.44C55.6684 185.825 55.0854 186.326 54.7541 185.943Z" fill="white"/>
<path d="M87.4274 153.541C91.4425 153.129 98.0303 152.454 101.494 154.884C104.469 156.971 109.888 166.433 110.26 177.502C110.407 181.846 109.09 182.942 106.324 184.071C96.3211 188.154 85.9285 191.187 75.4641 193.831C67.3086 195.892 54.8804 202.109 49.1164 193.074C46.9969 189.752 45.2957 186.153 44.1525 182.379C43.3964 179.882 42.38 177.081 43.0112 174.448C43.6621 171.733 46.5665 170.065 48.6732 168.521C59.9989 160.223 73.5168 154.969 87.4274 153.541Z" fill="#B0D8FF"/>
<path d="M46.845 190.392C43.9191 178.753 42.875 176.062 43.9952 172.901C45.0504 169.923 47.9259 168.147 50.5378 166.715C61.9306 160.469 74.131 155.829 86.7998 152.924C87.2891 152.804 87.4711 153.559 86.9709 153.673C74.372 156.563 62.2384 161.177 50.9071 167.389C44.1628 171.087 43.4592 173.77 45.1105 180.335L47.5911 190.204C47.7153 190.698 46.9703 190.885 46.845 190.392ZM176.624 183.672C176.062 182.646 175.912 181.531 175.508 180.521C173.913 176.532 169.251 179.971 165.881 182.175C164.687 182.983 163.453 183.819 161.977 183.944C160.766 184.049 159.595 183.631 158.579 182.744C157.306 181.632 156.463 179.885 156.378 178.186C156.086 172.336 161.767 168.23 162.629 162.84C162.828 161.606 162.533 161.016 160.851 160.779C153.033 159.675 145.483 163.583 139.023 167.337C135.882 169.163 132.706 171.048 129.117 171.443C126.11 171.78 124.706 169.768 126.701 166.411C132.643 156.41 136.708 154.71 137.954 150.965C138.544 149.189 138.11 146.754 136.379 145.914C135.428 145.453 134.274 145.538 133.266 145.656C124.4 146.688 116.228 150.915 108.325 155.005C99.1424 159.757 97.3069 160.747 95.5379 159.781C94.0998 158.994 93.8213 157.062 94.2889 155.561C94.729 154.147 95.6335 153.014 96.2021 151.73C97.7761 148.178 96.2472 143.563 92.8644 141.653C92.4234 141.404 92.7966 140.733 93.2426 140.983C96.9542 143.08 98.6317 148.144 96.9046 152.041C96.3362 153.324 95.4221 154.504 95.023 155.79C94.6575 156.963 94.8428 158.524 95.9072 159.107C96.8731 159.636 98.1491 159.178 99.2712 158.659C110.284 153.582 120.979 146.311 133.178 144.892C134.292 144.764 135.577 144.672 136.715 145.222C138.848 146.257 139.391 149.078 138.683 151.207C137.382 155.116 133.252 156.888 127.361 166.804C125.961 169.162 126.248 170.982 129.033 170.679C132.485 170.298 135.631 168.42 138.637 166.672C145.206 162.854 152.888 158.872 160.959 160.018C162.836 160.282 163.688 161.099 163.389 162.962C162.507 168.461 156.872 172.688 157.145 178.147C157.274 180.7 159.342 183.379 161.912 183.178C163.396 183.053 164.775 181.995 166.133 181.075C168.19 179.671 171.632 177.329 174.086 178.07C176.526 178.815 176.368 181.605 177.298 183.303C178.453 185.411 181.194 186.049 183.305 185.587C188.077 184.542 190.731 179.459 194.364 176.411C194.749 176.083 195.249 176.672 194.858 177C191.278 180.004 188.544 185.227 183.469 186.338C180.962 186.888 177.914 186.027 176.624 183.672Z" fill="white"/>
<path d="M111.639 151.019C111.923 151.065 112.213 151.117 112.461 151.261C114.689 152.553 111.39 158.806 106.015 157.58C103.466 156.999 103.615 154.449 104.85 152.604C106.265 150.491 109.466 150.668 111.639 151.019ZM136.497 155.741C137.075 156.744 136.439 159.182 135.756 160.214C134.239 162.509 130.191 163.047 129.703 159.769C128.959 154.765 135.357 153.766 136.497 155.741ZM155.291 158.5C158.51 158.53 159.18 160.778 157.799 162.102C155.945 163.88 148.794 164.612 150.128 161.198C150.996 158.979 153.113 158.48 155.291 158.5ZM170.116 179.694C170.793 180.653 170.383 182.069 169.512 182.855C168.641 183.641 167.444 183.942 166.291 184.159C165.481 184.312 164.572 184.418 163.896 183.948C162.407 182.911 163.275 180.039 164.498 179.102C165.93 178.004 169.051 178.186 170.116 179.694ZM193.799 181.616C194.25 182.723 193.678 184.047 192.734 184.779C191.789 185.51 190.56 185.76 189.369 185.865C186.507 186.118 186.16 182.726 187.582 180.817C188.967 178.959 192.934 179.492 193.799 181.616Z" fill="white"/>
<path d="M33.8249 57.725C33.5487 56.4355 33.2567 55.1295 32.9648 53.8243C32.855 53.3275 33.6018 53.1603 33.7153 53.6562C34.0073 54.9644 34.2993 56.2719 34.577 57.5644C34.6213 57.7715 34.4892 57.9757 34.2813 58.0207C34.0591 58.0639 33.8676 57.9228 33.8249 57.725ZM44.2975 89.6855C43.968 88.4463 43.5988 87.2409 43.1995 86.1015C43.0308 85.6242 43.7552 85.3668 43.9245 85.8479C44.3306 87.0052 44.7059 88.2301 45.0406 89.4873C45.0946 89.693 44.9731 89.9031 44.7681 89.9579C44.571 90.0117 44.3537 89.8962 44.2975 89.6855ZM48.262 49.6917C47.9055 48.4848 47.6931 47.2276 47.6308 45.9539C47.6065 45.4651 48.3714 45.3824 48.3979 45.9164C48.5529 49.0846 49.4374 49.7453 48.7394 49.9514C48.5331 50.0116 48.3217 49.8932 48.262 49.6917ZM59.832 86.8251C59.4529 84.9014 58.6393 83.0768 57.4774 81.5501C57.1708 81.1467 57.7782 80.6811 58.0899 81.0848C59.3216 82.7045 60.1847 84.6379 60.5855 86.6765C60.6268 86.8851 60.491 87.087 60.2831 87.1276C60.0808 87.1692 59.8737 87.0374 59.832 86.8251ZM64.0929 36.3812C63.876 35.452 63.7184 34.4838 63.6238 33.502C63.6035 33.2904 63.7589 33.1027 63.9698 33.0825C64.5956 33.0486 64.2357 33.6152 64.842 36.2056C64.9571 36.7021 64.2101 36.875 64.0929 36.3812ZM78.2478 81.424C78.0669 80.5354 77.7952 79.6655 77.4409 78.8398C77.3576 78.6447 77.4477 78.4188 77.6428 78.3347C77.8357 78.2529 78.0624 78.3415 78.148 78.5366C78.5225 79.411 78.81 80.3305 79.0014 81.2709C79.0434 81.4788 78.909 81.6815 78.7011 81.7243C78.4984 81.766 78.2915 81.6364 78.2478 81.424ZM83.6083 43.6076C83.2728 41.7199 82.5605 39.8826 81.548 38.2951C81.2744 37.8666 81.9215 37.4563 82.1965 37.8823C83.2623 39.5538 84.0121 41.4873 84.3649 43.474C84.4548 43.9741 83.6968 44.1082 83.6083 43.6076ZM93.0144 73.4455C91.7333 67.7439 90.5274 67.0303 91.2821 66.725C91.4787 66.6409 91.7039 66.7392 91.7827 66.9359C92.6106 68.9744 93.2771 71.1083 93.7649 73.2774C93.8766 73.7743 93.1267 73.9403 93.0144 73.4455Z" fill="white"/>
<path d="M93.4441 68.9179L90.6805 69.8631C88.6705 70.5505 86.5616 69.4538 85.9701 67.4137C83.4061 60.0982 81.2914 52.9752 79.7956 46.1178C79.2041 44.0778 80.3539 41.8665 82.3638 41.1791L85.1274 40.2339C87.1374 39.5465 89.2463 40.6432 89.8378 42.6833C92.1741 50.7412 94.3177 58.1342 96.0123 63.9792C96.6038 66.0192 95.4541 68.2305 93.4441 68.9179ZM59.9375 82.8169L57.1739 83.7621C55.164 84.4495 52.9573 83.0157 52.2453 80.5599C49.2409 71.7255 46.7044 63.1479 44.8125 54.9244C44.1005 52.4686 45.1525 49.9203 47.1625 49.2329L49.9261 48.2877C51.9361 47.6002 54.1427 49.034 54.8547 51.4898C57.6671 61.1897 60.2475 70.0893 62.2875 77.1253C62.9995 79.5811 61.9475 82.1294 59.9375 82.8169Z" fill="#01FFE3"/>
<path d="M134.257 137.929C151.316 133.137 161.222 115.285 156.382 98.0548C151.542 80.8251 133.789 70.7426 116.729 75.535C99.6694 80.3274 89.7634 98.1798 94.6036 115.41C99.4437 132.639 117.197 142.722 134.257 137.929Z" fill="white"/>
<path d="M139.349 136.5C156.409 131.708 166.315 113.855 161.475 96.6256C156.635 79.3959 138.881 69.3135 121.822 74.1058C104.762 78.8982 94.856 96.7507 99.6962 113.98C104.536 131.21 122.29 141.293 139.349 136.5Z" fill="#FFD600"/>
<path d="M134.092 129.136C146.672 125.602 153.976 112.438 150.407 99.7327C146.838 87.0276 133.747 79.5928 121.168 83.1265C108.588 86.6602 101.284 99.8244 104.853 112.53C108.422 125.235 121.513 132.669 134.092 129.136Z" fill="white"/>
<path d="M137.048 128.306C149.627 124.772 156.931 111.608 153.362 98.9032C149.793 86.1981 136.702 78.7632 124.123 82.2969C111.544 85.8307 104.24 98.9948 107.809 111.7C111.378 124.405 124.469 131.84 137.048 128.306Z" fill="#FFD600"/>
<path d="M130.715 129.565C120.18 129.565 110.449 122.526 107.437 111.803C103.817 98.9152 111.255 85.5124 124.019 81.9262C136.781 78.34 150.112 85.9094 153.732 98.7989C158.081 114.281 146.59 129.565 130.715 129.565ZM124.226 82.6662C111.871 86.1376 104.671 99.1156 108.177 111.596C111.683 124.076 124.58 131.403 136.943 127.935C149.308 124.461 156.512 111.535 152.992 99.006C149.501 86.5782 136.634 79.1832 124.226 82.6662Z" fill="white"/>
<path d="M19.0219 184.074C4.31998 184.074 -2.66372 167.151 4.77019 158.363C2.2857 155.734 1.52321 152.051 1.13296 148.469C-0.69316 131.697 4.65911 113.939 15.45 100.97C15.5873 100.808 15.8298 100.787 15.9911 100.919C16.1547 101.055 16.1765 101.298 16.0414 101.461C5.3804 114.274 0.0934309 131.816 1.89704 148.387C2.2654 151.768 2.97013 155.305 5.28883 157.794C8.78233 154.231 13.3537 154.842 14.2115 157.096C15.3125 159.984 10.1397 163.26 5.31585 158.897C0.490778 164.657 2.36058 174.13 8.02314 179.178C11.7617 182.511 17.1387 183.98 22.0512 183.015C22.2598 182.97 22.4617 183.108 22.5023 183.317C22.5435 183.526 22.4077 183.728 22.1998 183.768C21.1543 183.974 20.0885 184.074 19.0219 184.074ZM5.83074 158.328C7.15549 159.527 8.74893 160.234 10.3401 160.27C11.3932 160.305 12.6676 159.708 13.2561 158.874C14.286 157.416 12.8899 155.946 10.6944 156.038C8.79021 156.116 7.13822 156.996 5.83074 158.328Z" fill="white"/>
<path d="M11.9271 12.7854L2.8385 1.69204C2.51562 1.29881 3.11352 0.810883 3.43295 1.20568L12.5215 12.2983C12.8442 12.6931 12.2473 13.1786 11.9271 12.7854Z" fill="white"/>
<path d="M14.0551 1.92571C13.8898 1.44417 14.6166 1.1941 14.7817 1.67502C15.593 4.02879 16.1694 6.47337 16.4974 8.94198C16.5252 9.15214 16.3774 9.34503 16.1664 9.37355C15.2963 9.48704 16.1073 7.8824 14.0551 1.92571Z" fill="white"/>
<path d="M8.97344 15.1334L1.57663 12.7444C1.09267 12.5879 1.32869 11.8587 1.81231 12.0133L9.20911 14.4024C9.69504 14.5595 9.45399 15.2905 8.97344 15.1334Z" fill="white"/>
<path d="M137.718 101.512C138.027 100.421 138.026 99.2612 137.715 98.1638C137.405 97.0663 136.797 96.0757 135.961 95.3044C135.125 94.5332 134.095 94.0123 132.987 93.801C131.879 93.5897 130.739 93.6965 129.695 94.1092L128.9 94.4283L127.819 91.7371L125.701 92.5882L126.782 95.2793L124.664 96.1303L123.583 93.4392L121.465 94.2902L122.546 96.9813L118.309 98.6833L119.607 101.913L122.784 100.636L127.974 113.554L124.796 114.83L126.094 118.06L130.33 116.358L131.412 119.049L133.53 118.198L132.449 115.507L134.567 114.656L135.648 117.347L137.766 116.496L136.685 113.805L138.538 113.06C143.887 110.911 143.342 103.004 137.718 101.512ZM125.961 99.3597C131.162 97.2705 131.694 96.788 132.962 97.3725C133.431 97.5775 133.83 97.9178 134.111 98.3505C134.391 98.7832 134.54 99.2888 134.537 99.8035C134.535 100.318 134.381 100.819 134.097 101.242C133.812 101.666 133.409 101.993 132.938 102.183L127.908 104.204L125.961 99.3597ZM137.241 109.831L131.151 112.277L129.205 107.433L135.295 104.987C135.608 104.86 135.943 104.798 136.281 104.803C136.619 104.809 136.953 104.883 137.264 105.02C137.733 105.225 138.133 105.566 138.414 105.998C138.694 106.431 138.842 106.937 138.84 107.451C138.837 107.966 138.684 108.467 138.4 108.89C138.115 109.314 137.712 109.641 137.241 109.831Z" fill="#1A1A1A"/>
<path d="M163.921 46.1686C164.751 45.9686 165.589 45.554 166.34 44.9719C167.092 44.3898 167.726 43.6636 168.172 42.8759C168.618 42.0882 168.857 41.2706 168.861 40.516C168.866 39.7615 168.637 39.1002 168.2 38.6075L167.863 38.2344L169.663 36.6112L168.766 35.6161L166.966 37.2393L166.069 36.2442L167.869 34.621L166.971 33.6259L165.171 35.2491L163.377 33.2589L161.217 35.2067L162.563 36.6993L153.922 44.4904L152.576 42.9977L150.416 44.9455L152.211 46.9357L150.411 48.5588L151.308 49.5539L153.108 47.9308L154.006 48.9259L152.206 50.549L153.103 51.5441L154.903 49.921L155.688 50.7917C157.954 53.3043 163.594 50.1489 163.921 46.1686ZM163.909 38.1919C166.111 40.6349 166.531 40.7889 166.278 41.7749C166.192 42.1356 166 42.5022 165.725 42.8285C165.449 43.1548 165.104 43.4262 164.732 43.6083C164.359 43.7904 163.977 43.8752 163.633 43.8518C163.29 43.8284 162.999 43.698 162.8 43.477L160.669 41.1136L163.909 38.1919ZM157.848 48.8439L155.268 45.983L158.508 43.0614L161.088 45.9223C161.221 46.0688 161.311 46.252 161.352 46.4614C161.393 46.6708 161.384 46.9021 161.326 47.1419C161.241 47.5025 161.048 47.8692 160.773 48.1955C160.498 48.5218 160.152 48.7932 159.78 48.9753C159.408 49.1574 159.026 49.2421 158.682 49.2188C158.338 49.1954 158.048 49.0649 157.848 48.8439Z" fill="#1A1A1A"/>
<path d="M120.59 9.83181C120 9.21597 119.219 8.70069 118.338 8.34455C117.457 7.98842 116.51 7.80572 115.605 7.81723C114.7 7.82875 113.873 8.03401 113.219 8.40968C112.564 8.78535 112.109 9.31636 111.903 9.94232L111.75 10.4209L109.441 9.68296L109.033 10.9593L111.342 11.6972L110.934 12.9735L108.626 12.2356L108.218 13.5119L110.526 14.2498L109.71 16.8024L112.481 17.688L113.093 15.7735L124.175 19.3158L123.563 21.2302L126.333 22.1158L127.149 19.5632L129.458 20.3012L129.866 19.0249L127.557 18.2869L127.965 17.0106L130.274 17.7486L130.682 16.4723L128.373 15.7343L128.73 14.6175C129.76 11.3949 124.194 8.11053 120.59 9.83181ZM113.705 13.8591C114.706 10.7258 114.628 10.2858 115.607 10.008C115.962 9.90038 116.376 9.88212 116.796 9.95559C117.217 10.029 117.625 10.1909 117.97 10.4208C118.315 10.6507 118.58 10.9382 118.733 11.2471C118.886 11.5559 118.92 11.8723 118.829 12.1562L117.86 15.1874L113.705 13.8591ZM125.959 13.732L124.786 17.4013L120.631 16.073L121.804 12.4036C121.863 12.2148 121.976 12.0451 122.137 11.9043C122.297 11.7636 122.501 11.6546 122.738 11.5838C123.092 11.4761 123.506 11.4579 123.926 11.5313C124.347 11.6048 124.755 11.7667 125.1 11.9965C125.445 12.2264 125.71 12.5139 125.863 12.8228C126.016 13.1317 126.05 13.4481 125.959 13.732Z" fill="#1A1A1A"/>
</svg>
