<svg width="195" height="198" viewBox="0 0 195 198" fill="none" xmlns="http://www.w3.org/2000/svg">
<path d="M97.555 156.043C97.3516 156.043 97.182 155.884 97.1715 155.678C97.0093 152.541 96.8412 149.297 96.1304 146.172C95.2147 142.15 93.5612 138.149 91.3493 134.6C91.0789 134.167 91.7338 133.763 92.0008 134.193C94.2585 137.814 95.9458 141.898 96.8795 146.001C97.6053 149.192 97.7749 152.468 97.9385 155.639C97.9498 155.851 97.7869 156.031 97.5745 156.042C97.5678 156.043 97.561 156.043 97.555 156.043ZM153.678 41.9243C156.565 39.077 159.594 36.3297 163.058 34.2225C166.603 32.0658 170.912 30.2383 174.938 29.2435C176.814 28.7802 177.385 29.0922 178.422 30.1544C183.167 35.015 185.084 37.0869 182.963 43.5398C181.43 48.2021 178.036 52.1981 174.391 55.3828C169.083 60.0209 162.089 64.092 154.831 64.0106C149.804 63.9542 146.44 60.8784 143.958 56.7131C143.461 55.8786 143.02 54.8176 143.507 53.9772C143.922 53.262 144.823 53.035 145.543 52.6279C148.29 51.0737 148.488 47.0416 153.678 41.9243Z" fill="#091229"/>
<path d="M149.362 37.4834C152.249 34.6361 155.278 31.8888 158.742 29.7816C169.896 22.9978 178.11 27.0214 179.176 32.4784C180.552 39.522 175.052 46.5939 170.076 50.9418C164.767 55.58 157.773 59.6511 150.515 59.5697C147.204 59.5325 144.563 58.643 142.829 55.6347C139.773 50.3329 145.067 41.7187 149.362 37.4834Z" fill="#FFD600"/>
<path d="M150.51 59.9543C146.587 59.9108 144.115 58.6379 142.495 55.827C140.315 52.0442 142.408 47.0927 143.409 45.1397C145.077 41.8868 146.829 39.4407 149.091 37.21C151.718 34.6191 154.896 31.6708 158.542 29.4537C169.998 22.485 178.444 26.7292 179.552 32.4049C181.174 40.7046 173.642 48.3356 170.328 51.232C164.777 56.0816 157.826 60.0275 150.51 59.9543ZM144.093 45.4902C143.149 47.3314 141.169 51.9879 143.161 55.4427C144.65 58.0254 146.85 59.1452 150.519 59.1858C158.321 59.2909 165.312 54.5946 169.822 50.6526C173.035 47.8447 180.343 40.4592 178.797 32.552C178.093 28.9455 174.41 26.9821 171.072 26.6353C166.539 26.17 161.974 28.2663 158.941 30.1097C155.363 32.2871 152.227 35.1977 149.631 37.7579C147.43 39.9278 145.722 42.3123 144.093 45.4902Z" fill="#091229"/>
<path d="M180.041 48.4539C179.921 48.4539 179.802 48.3977 179.727 48.2911C178.766 46.9318 177.517 45.7399 176.113 44.8437C175.687 44.5699 176.093 43.9235 176.527 44.1952C178.014 45.1455 179.338 46.4079 180.355 47.8482C180.477 48.0216 180.436 48.261 180.262 48.3834C180.195 48.4314 180.118 48.4539 180.041 48.4539ZM116.623 8.59746C120.186 9.10304 123.755 9.76203 127.107 11.0732C130.536 12.4147 134.145 14.4722 137.014 16.7788C138.35 17.853 138.438 18.4245 138.246 19.728C137.369 25.6924 136.938 28.1602 131.242 30.1358C122.853 33.0455 107.695 29.405 101.655 21.2972C98.9899 17.719 99.3502 13.6892 100.954 9.69588C101.276 8.89576 101.787 8.01369 102.643 7.90543C103.371 7.81331 104.016 8.32718 104.69 8.61601C107.266 9.71855 110.218 7.68877 116.623 8.59746Z" fill="#091229"/>
<path d="M117.435 3.16307C120.998 3.66866 124.567 4.32764 127.918 5.63886C138.708 9.86006 140.289 17.8227 137.011 21.5119C132.78 26.2737 124.829 26.1972 119.083 25.0251C112.953 23.7746 106.315 21.0289 102.467 15.8628C100.711 13.5058 99.9178 11.1629 101.108 8.32037C103.206 3.3106 112.134 2.41101 117.435 3.16307Z" fill="#FFD600"/>
<path d="M119.007 25.4002C113.674 24.3126 106.423 21.814 102.159 16.0909C100.069 13.2838 99.6355 10.8415 100.754 8.17025C102.929 2.97485 111.98 2.0015 117.489 2.78045C120.735 3.24129 124.53 3.89879 128.059 5.27908C139.166 9.6272 140.719 17.917 137.299 21.7652C133.057 26.5406 125.248 26.674 119.007 25.4002ZM108.958 3.79446C107.157 4.11795 102.822 5.22128 101.462 8.46747C100.448 10.891 100.841 13.0339 102.776 15.6316C106.894 21.161 113.959 23.5861 119.16 24.6466C122.864 25.4017 131.989 26.5838 136.724 21.2548C138.877 18.8328 138.282 15.197 136.738 12.6691C134.637 9.22779 130.707 7.14047 127.779 5.99511C124.324 4.64335 120.584 3.99636 117.381 3.54152C114.668 3.15798 112.07 3.23529 108.958 3.79446Z" fill="#091229"/>
<path d="M12.7885 28.0252C19.0186 55.3222 25.3632 80.1521 31.4956 101.978C33.248 108.188 35.031 114.398 36.9217 120.577C35.277 121.776 33.7091 123.114 32.464 124.681C30.2966 117.611 28.2215 110.494 26.2078 103.377C19.2284 78.6743 13.132 53.8962 7.50064 29.4394C6.16323 23.6289 10.1599 19.1559 16.1701 16.7733C24.5933 13.4144 39.0304 9.65625 39.1968 9.65625C33.4263 11.2409 27.1979 13.0638 21.4426 15.3436C15.4323 17.7416 11.4358 22.2302 12.7885 28.0252ZM78.5325 137.102C77.8439 137.295 72.3375 138.789 68.4488 139.746C68.4488 139.73 68.4334 139.715 68.4334 139.7C68.418 139.684 68.418 139.669 68.418 139.653C72.8501 138.584 74.3341 138.18 78.5325 137.102Z" fill="#091229"/>
<path d="M99.1456 141.361C93.7808 143.359 79.885 151.537 76.9183 143.098C76.0575 140.638 76.7338 138.717 78.2248 137.18C78.8009 137.097 89.4913 134.189 97.7006 131.723C99.6679 132.99 100.35 135.413 100.929 137.656C101.573 140.019 100.932 140.654 99.1456 141.361Z" fill="#091229"/>
<path d="M68.3125 139.281C79.9614 136.489 93.9915 132.612 107.682 128.236C113.436 126.7 117.415 121.43 116.005 116.158C106.852 74.1071 98.6426 44.3545 90.5397 18.7498C89.0706 14.1867 88.4427 8.35841 85.1784 4.71804C82.6813 1.90643 78.5247 0.85114 73.7818 1.82537C59.4779 4.83575 35.1433 10.3277 21.5824 15.7018C15.123 18.2792 11.9744 22.8539 13.1618 27.939C19.4212 55.3583 25.7539 80.1296 31.8644 101.874C33.4158 107.373 35.2742 113.882 37.2887 120.465C37.4361 120.953 36.7032 121.177 36.5531 120.691C34.5371 114.1 32.6772 107.586 31.1243 102.083C25.0683 80.5264 18.7026 55.6711 12.4127 28.1116C11.1323 22.6258 14.4543 17.7186 21.2987 14.9873C35.0564 9.55458 59.1376 4.12908 73.625 1.07256C78.6515 0.0442836 83.0678 1.18589 85.7518 4.20616C89.1695 8.01741 89.7985 13.9411 91.2715 18.5164C99.3363 43.9974 107.561 73.751 116.752 115.977C118.281 121.695 113.98 127.35 107.898 128.974C94.2202 133.344 80.1939 137.223 68.4911 140.028C68.0019 140.151 67.8143 139.4 68.3125 139.281Z" fill="#091229"/>
<path d="M112.889 117.243C105.893 85.5203 97.7255 52.9663 88.018 22.2464C86.6193 17.8194 85.9275 12.0703 82.8072 8.39661C80.1632 5.27614 76.0898 4.46149 71.9395 5.27614C58.983 7.84534 36.2797 13.0863 24.1647 18.0038C18.6616 20.248 15.0801 24.5213 16.3867 30.1781C21.9476 54.0739 27.9473 78.2847 34.6942 102.271C36.2467 107.774 37.83 113.277 39.4748 118.764C45.608 114.645 52.3868 111.478 59.4884 109.465C62.7934 108.527 67.0052 108.127 69.0034 110.909C70.2639 112.662 70.0795 115.121 69.1111 117.058C67.8078 119.644 66.5858 120.434 52.2485 133.629C58.3356 132.46 65.6986 134.09 68.404 139.639C80.6397 136.734 92.9063 133.275 105.204 129.325C110.829 127.803 114.273 122.407 112.889 117.243ZM44.701 85.5925L41.9342 86.5301C39.9205 87.2219 37.8146 86.1305 37.2305 84.0861C34.6635 76.7692 32.5422 69.6522 31.0511 62.7965C30.4517 60.7521 31.6045 58.5386 33.6182 57.8469L36.3851 56.9092C38.3987 56.2175 40.5046 57.3242 41.0888 59.3532C43.4253 67.4079 45.5772 74.8017 47.2681 80.6583C47.8523 82.6872 46.7147 84.9007 44.701 85.5925ZM78.7029 78.3832L75.936 79.3209C73.9224 80.0126 71.5859 78.1066 70.7098 75.063C67.082 64.1031 63.9616 53.4967 61.5021 43.3515C60.626 40.3233 61.5483 37.2951 63.5466 36.6034L66.3134 35.6657C68.3271 34.974 70.6636 36.88 71.5552 39.9237C75.0292 51.9135 78.2264 62.9348 80.7473 71.6351C81.6235 74.6633 80.7166 77.6915 78.7029 78.3832Z" fill="#0166FF"/>
<path d="M23.9434 14.4021C25.2173 15.7862 27.0014 16.9278 28.3639 17.725C32.7909 20.3059 37.5504 19.3823 42.6962 18.2142C48.2625 16.9324 53.7057 15.1918 59.1109 13.4606C60.8456 12.8897 62.6192 12.3084 64.0685 11.2861C66.4824 9.61546 69.2646 5.40756 68.4923 2.52734C55.7353 5.17058 34.9175 10.3541 23.9434 14.4021ZM54.7547 185.944C47.5117 177.571 42.2533 169.693 38.6783 161.857C34.652 153.069 29.2377 144.644 29.0824 134.45C28.9661 128.485 30.671 124.539 37.3589 119.759C43.9829 115.075 51.0643 111.454 59.3819 109.095C62.7137 108.151 67.1405 107.66 69.3149 110.686C70.5368 112.386 70.5916 114.955 69.4537 117.23C68.1388 119.839 66.8989 120.663 53.4427 133.052C59.1763 132.334 66.0312 133.967 68.7257 139.425C68.7542 139.463 68.776 139.506 68.7887 139.554C68.7932 139.565 68.797 139.575 68.8007 139.587C68.8045 139.596 68.8082 139.605 68.8112 139.615C71.2461 144.78 68.9231 150.717 66.5535 155.878C66.3422 156.339 65.6428 156.021 65.8555 155.557C68.1575 150.543 70.4189 144.786 68.102 139.912C68.0973 139.903 68.0623 139.82 68.0584 139.807C65.3556 134.265 58.0061 132.913 52.3198 134.007C51.9249 134.073 51.7111 133.601 51.9866 133.347C66.4098 120.069 67.5409 119.319 68.767 116.886C69.778 114.863 69.7479 112.605 68.6904 111.134C66.6766 108.33 62.126 109.115 59.5921 109.835C51.4104 112.155 44.3865 115.727 37.8047 120.385C31.3459 125.015 29.7371 128.672 29.851 134.436C30.0028 144.435 35.4042 152.863 39.3771 161.538C42.922 169.306 48.1415 177.125 55.3356 185.441C55.669 185.827 55.0859 186.328 54.7547 185.944Z" fill="#091229"/>
<path d="M87.4283 153.543C91.4434 153.13 98.0312 152.456 101.495 154.886C104.47 156.973 109.889 166.434 110.261 177.504C110.407 181.847 109.091 182.943 106.325 184.072C96.322 188.156 85.9294 191.188 75.465 193.832C67.3095 195.893 54.8814 202.11 49.1173 193.075C46.9978 189.753 45.2966 186.154 44.1534 182.38C43.3973 179.884 42.3809 177.082 43.0121 174.449C43.6631 171.734 46.5674 170.066 48.6741 168.523C59.9998 160.225 73.5177 154.971 87.4283 153.543Z" fill="#B0D8FF"/>
<path d="M46.8444 190.394C43.9185 178.755 42.8744 176.063 43.9945 172.902C45.0498 169.925 47.9252 168.148 50.5372 166.716C61.93 160.471 74.1304 155.831 86.7992 152.925C87.2885 152.806 87.4705 153.56 86.9703 153.674C74.3714 156.564 62.2377 161.179 50.9065 167.39C44.1622 171.088 43.4586 173.772 45.1099 180.336L47.5905 190.206C47.7147 190.699 46.9697 190.886 46.8444 190.394ZM176.624 183.674C176.061 182.648 175.911 181.532 175.508 180.522C173.913 176.533 169.251 179.973 165.88 182.176C164.687 182.985 163.452 183.821 161.976 183.945C160.766 184.051 159.594 183.632 158.579 182.745C157.306 181.633 156.462 179.886 156.377 178.187C156.085 172.337 161.766 168.232 162.629 162.842C162.827 161.607 162.532 161.017 160.851 160.78C153.032 159.676 145.482 163.585 139.022 167.338C135.881 169.165 132.706 171.049 129.116 171.445C126.11 171.782 124.706 169.77 126.7 166.412C132.642 156.412 136.707 154.711 137.953 150.966C138.543 149.191 138.109 146.755 136.378 145.916C135.427 145.454 134.273 145.54 133.266 145.658C124.399 146.689 116.227 150.917 108.325 155.006C99.1418 159.758 97.3063 160.749 95.5373 159.783C94.0992 158.995 93.8207 157.063 94.2883 155.563C94.7284 154.148 95.6329 153.016 96.2015 151.731C97.7754 148.18 96.2465 143.564 92.8638 141.654C92.4228 141.405 92.796 140.734 93.242 140.985C96.9536 143.081 98.6311 148.145 96.904 152.043C96.3355 153.326 95.4215 154.506 95.0224 155.791C94.6568 156.964 94.8422 158.525 95.9065 159.109C96.8725 159.638 98.1485 159.179 99.2706 158.66C110.284 153.584 120.978 146.313 133.177 144.894C134.292 144.765 135.577 144.674 136.714 145.224C138.847 146.259 139.39 149.08 138.683 151.209C137.382 155.118 133.251 156.89 127.36 166.806C125.961 169.163 126.248 170.983 129.032 170.681C132.484 170.3 135.63 168.421 138.636 166.673C145.206 162.855 152.888 158.874 160.959 160.019C162.835 160.283 163.688 161.1 163.388 162.963C162.506 168.462 156.872 172.69 157.144 178.148C157.273 180.702 159.341 183.381 161.912 183.18C163.396 183.054 164.774 181.996 166.132 181.076C168.19 179.673 171.632 177.33 174.085 178.072C176.526 178.817 176.367 181.606 177.298 183.304C178.452 185.413 181.194 186.05 183.304 185.588C188.077 184.544 190.73 179.461 194.363 176.413C194.749 176.085 195.248 176.673 194.857 177.001C191.277 180.006 188.543 185.229 183.468 186.339C180.962 186.889 177.913 186.028 176.624 183.674Z" fill="#091229"/>
<path d="M111.64 151.02C111.924 151.065 112.213 151.117 112.462 151.262C114.689 152.553 111.391 158.806 106.016 157.581C103.467 156.999 103.616 154.449 104.851 152.604C106.266 150.491 109.467 150.668 111.64 151.02ZM136.497 155.741C137.076 156.744 136.44 159.182 135.757 160.215C134.24 162.51 130.192 163.048 129.704 159.769C128.96 154.765 135.357 153.766 136.497 155.741ZM155.291 158.501C158.511 158.531 159.181 160.778 157.8 162.103C155.946 163.881 148.795 164.612 150.129 161.198C150.997 158.98 153.114 158.481 155.291 158.501ZM170.117 179.694C170.794 180.653 170.384 182.069 169.513 182.855C168.641 183.642 167.445 183.942 166.292 184.16C165.482 184.313 164.573 184.419 163.897 183.948C162.408 182.912 163.276 180.04 164.499 179.102C165.931 178.004 169.052 178.186 170.117 179.694ZM193.8 181.617C194.251 182.724 193.679 184.048 192.734 184.779C191.789 185.511 190.561 185.761 189.37 185.866C186.508 186.119 186.16 182.726 187.583 180.818C188.968 178.959 192.935 179.492 193.8 181.617Z" fill="#091229"/>
<path d="M33.8262 57.726C33.55 56.4365 33.258 55.1305 32.9661 53.8253C32.8563 53.3285 33.603 53.1613 33.7166 53.6571C34.0086 54.9654 34.3006 56.2729 34.5783 57.5653C34.6226 57.7725 34.4905 57.9766 34.2826 58.0217C34.0604 58.0649 33.8689 57.9238 33.8262 57.726ZM44.2988 89.6865C43.9693 88.4473 43.6001 87.2419 43.2008 86.1025C43.0321 85.6252 43.7564 85.3678 43.9258 85.8488C44.3319 87.0062 44.7071 88.2311 45.0419 89.4883C45.0959 89.694 44.9743 89.9041 44.7694 89.9589C44.5723 90.0127 44.355 89.8972 44.2988 89.6865ZM48.2633 49.6927C47.9068 48.4858 47.6944 47.2286 47.6321 45.9549C47.6078 45.4661 48.3726 45.3834 48.3992 45.9173C48.5541 49.0856 49.4387 49.7463 48.7407 49.9524C48.5343 50.0125 48.3229 49.8941 48.2633 49.6927ZM59.8332 86.8261C59.4542 84.9024 58.6406 83.0777 57.4787 81.5511C57.1721 81.1477 57.7795 80.6821 58.0912 81.0858C59.3229 82.7055 60.186 84.6389 60.5868 86.6774C60.6281 86.8861 60.4922 87.088 60.2843 87.1285C60.0821 87.1702 59.875 87.0384 59.8332 86.8261ZM64.0942 36.3822C63.8773 35.453 63.7197 34.4847 63.6251 33.503C63.6048 33.2913 63.7602 33.1037 63.9711 33.0834C64.5969 33.0495 64.237 33.6162 64.8433 36.2065C64.9584 36.703 64.2114 36.8759 64.0942 36.3822ZM78.2491 81.425C78.0682 80.5363 77.7965 79.6664 77.4422 78.8408C77.3589 78.6457 77.449 78.4197 77.6441 78.3357C77.837 78.2539 78.0637 78.3424 78.1493 78.5376C78.5238 79.412 78.8112 80.3314 79.0026 81.2719C79.0447 81.4798 78.9103 81.6824 78.7024 81.7252C78.4996 81.767 78.2928 81.6373 78.2491 81.425ZM83.6096 43.6086C83.2741 41.7209 82.5618 39.8835 81.5493 38.2961C81.2757 37.8676 81.9227 37.4572 82.1978 37.8833C83.2636 39.5548 84.0134 41.4883 84.3662 43.475C84.4561 43.975 83.6981 44.1091 83.6096 43.6086ZM93.0157 73.4465C91.7346 67.7449 90.5287 67.0313 91.2834 66.726C91.48 66.6419 91.7052 66.7402 91.784 66.9369C92.6119 68.9754 93.2784 71.1093 93.7662 73.2784C93.8778 73.7752 93.1279 73.9413 93.0157 73.4465Z" fill="#091229"/>
<path d="M93.4461 68.9204L90.6825 69.8655C88.6725 70.553 86.5636 69.4562 85.9721 67.4162C83.4081 60.1006 81.2933 52.9776 79.7976 46.1203C79.2061 44.0803 80.3558 41.869 82.3658 41.1815L85.1294 40.2364C87.1394 39.5489 89.2483 40.6457 89.8398 42.6857C92.1761 50.7436 94.3196 58.1366 96.0143 63.9816C96.6058 66.0216 95.456 68.2329 93.4461 68.9204ZM59.9395 82.8193L57.1759 83.7645C55.1659 84.4519 52.9593 83.0181 52.2473 80.5624C49.2429 71.728 46.7063 63.1503 44.8145 54.9268C44.1024 52.4711 45.1545 49.9227 47.1645 49.2353L49.9281 48.2901C51.938 47.6027 54.1446 49.0365 54.8567 51.4922C57.6691 61.1922 60.2494 70.0917 62.2895 77.1278C63.0015 79.5836 61.9494 82.1319 59.9395 82.8193Z" fill="#01FFE3"/>
<path d="M134.257 137.932C151.317 133.139 161.223 115.287 156.382 98.0573C151.542 80.8275 133.789 70.7451 116.729 75.5375C99.6695 80.3299 89.7635 98.1823 94.6037 115.412C99.4438 132.642 117.197 142.724 134.257 137.932Z" fill="#091229"/>
<path d="M139.349 136.502C156.408 131.71 166.314 113.857 161.474 96.6276C156.634 79.3979 138.881 69.3154 121.821 74.1078C104.761 78.9002 94.8553 96.7526 99.6955 113.982C104.536 131.212 122.289 141.295 139.349 136.502Z" fill="#FFD600"/>
<path d="M134.092 129.138C146.671 125.604 153.976 112.44 150.406 99.7352C146.837 87.0301 133.747 79.5952 121.167 83.129C108.588 86.6627 101.284 99.8269 104.853 112.532C108.422 125.237 121.513 132.672 134.092 129.138Z" fill="#091229"/>
<path d="M137.047 128.306C149.626 124.772 156.931 111.608 153.362 98.9032C149.792 86.1981 136.702 78.7632 124.122 82.2969C111.543 85.8307 104.239 98.9948 107.808 111.7C111.377 124.405 124.468 131.84 137.047 128.306Z" fill="#FFD600"/>
<path d="M130.715 129.565C120.18 129.565 110.449 122.525 107.437 111.803C103.817 98.9147 111.256 85.5119 124.019 81.9257C136.781 78.3395 150.112 85.9089 153.732 98.7984C158.081 114.281 146.59 129.565 130.715 129.565ZM124.226 82.6658C111.871 86.1371 104.672 99.1151 108.177 111.595C111.683 124.075 124.58 131.403 136.944 127.935C149.308 124.461 156.512 111.535 152.992 99.0055C149.501 86.5777 136.634 79.1827 124.226 82.6658Z" fill="#091229"/>
<path d="M19.0223 184.074C4.32035 184.074 -2.66335 167.151 4.77056 158.363C2.28607 155.734 1.52357 152.051 1.13333 148.469C-0.692794 131.697 4.65948 113.939 15.4503 100.969C15.5877 100.807 15.8301 100.786 15.9915 100.919C16.1551 101.055 16.1769 101.297 16.0418 101.46C5.38077 114.274 0.0937971 131.816 1.8974 148.386C2.26577 151.768 2.97049 155.305 5.2892 157.794C8.78269 154.231 13.3541 154.842 14.2119 157.096C15.3129 159.984 10.1401 163.259 5.31622 158.896C0.491145 164.657 2.36095 174.13 8.02351 179.177C11.7621 182.511 17.1391 183.98 22.0515 183.014C22.2602 182.97 22.4621 183.108 22.5026 183.317C22.5439 183.525 22.4081 183.727 22.2002 183.768C21.1546 183.974 20.0888 184.074 19.0223 184.074ZM5.83111 158.327C7.15585 159.527 8.7493 160.234 10.3405 160.27C11.3935 160.305 12.668 159.708 13.2564 158.874C14.2864 157.416 12.8903 155.945 10.6948 156.038C8.79058 156.116 7.13859 156.996 5.83111 158.327Z" fill="#091229"/>
<path d="M11.9275 12.7844L2.83893 1.69107C2.51605 1.29783 3.11395 0.809907 3.43338 1.2047L12.522 12.2973C12.8447 12.6921 12.2478 13.1776 11.9275 12.7844Z" fill="#091229"/>
<path d="M14.0555 1.92375C13.8902 1.44221 14.617 1.19215 14.7821 1.67306C15.5934 4.02683 16.1699 6.47142 16.4979 8.94002C16.5256 9.15018 16.3778 9.34308 16.1669 9.3716C15.2968 9.48509 16.1077 7.88045 14.0555 1.92375Z" fill="#091229"/>
<path d="M8.97313 15.1337L1.57632 12.7446C1.09236 12.5881 1.32838 11.859 1.812 12.0136L9.20881 14.4026C9.69473 14.5598 9.45369 15.2908 8.97313 15.1337Z" fill="#091229"/>
<path d="M137.719 101.512C138.027 100.421 138.026 99.2612 137.716 98.1638C137.405 97.0663 136.797 96.0757 135.961 95.3044C135.125 94.5332 134.095 94.0123 132.987 93.801C131.88 93.5897 130.739 93.6965 129.695 94.1092L128.901 94.4283L127.82 91.7371L125.701 92.5882L126.783 95.2793L124.664 96.1303L123.583 93.4392L121.465 94.2902L122.546 96.9813L118.31 98.6833L119.607 101.913L122.784 100.636L127.974 113.554L124.797 114.83L126.094 118.06L130.331 116.358L131.412 119.049L133.53 118.198L132.449 115.507L134.567 114.656L135.648 117.347L137.767 116.496L136.685 113.805L138.539 113.06C143.887 110.911 143.343 103.004 137.719 101.512ZM125.962 99.3597C131.162 97.2705 131.694 96.788 132.962 97.3725C133.431 97.5775 133.831 97.9178 134.111 98.3505C134.392 98.7832 134.54 99.2888 134.538 99.8035C134.535 100.318 134.382 100.819 134.097 101.242C133.813 101.666 133.41 101.993 132.939 102.183L127.908 104.204L125.962 99.3597ZM137.241 109.831L131.152 112.277L129.205 107.433L135.295 104.987C135.608 104.86 135.943 104.798 136.281 104.803C136.619 104.809 136.954 104.883 137.265 105.02C137.734 105.225 138.134 105.566 138.414 105.998C138.694 106.431 138.843 106.937 138.84 107.451C138.838 107.966 138.685 108.467 138.4 108.89C138.115 109.314 137.712 109.641 137.241 109.831Z" fill="#1A1A1A"/>
<path d="M163.922 46.1696C164.752 45.9696 165.59 45.5549 166.341 44.9728C167.092 44.3908 167.727 43.6646 168.173 42.8769C168.619 42.0892 168.857 41.2716 168.862 40.517C168.867 39.7624 168.638 39.1012 168.201 38.6085L167.864 38.2353L169.664 36.6122L168.767 35.6171L166.967 37.2402L166.07 36.2452L167.87 34.622L166.972 33.6269L165.172 35.2501L163.378 33.2599L161.218 35.2076L162.564 36.7003L153.923 44.4913L152.577 42.9987L150.417 44.9465L152.212 46.9367L150.412 48.5598L151.309 49.5549L153.109 47.9318L154.007 48.9269L152.207 50.55L153.104 51.5451L154.904 49.922L155.689 50.7927C157.955 53.3053 163.595 50.1499 163.922 46.1696ZM163.91 38.1929C166.112 40.6359 166.532 40.7898 166.279 41.7759C166.193 42.1365 166.001 42.5032 165.726 42.8295C165.45 43.1558 165.105 43.4272 164.733 43.6093C164.36 43.7914 163.978 43.8761 163.634 43.8528C163.291 43.8294 163 43.6989 162.801 43.4779L160.669 41.1146L163.91 38.1929ZM157.849 48.8449L155.269 45.984L158.509 43.0623L161.089 45.9232C161.222 46.0697 161.312 46.253 161.353 46.4624C161.394 46.6718 161.385 46.9031 161.327 47.1429C161.242 47.5035 161.049 47.8702 160.774 48.1965C160.499 48.5228 160.153 48.7941 159.781 48.9763C159.409 49.1584 159.027 49.2431 158.683 49.2197C158.339 49.1963 158.049 49.0659 157.849 48.8449Z" fill="#1A1A1A"/>
<path d="M120.591 9.83376C120 9.21792 119.22 8.70264 118.339 8.34651C117.458 7.99037 116.511 7.80768 115.606 7.81919C114.701 7.8307 113.874 8.03596 113.22 8.41163C112.565 8.7873 112.109 9.31831 111.904 9.94427L111.751 10.4229L109.442 9.68491L109.034 10.9612L111.343 11.6992L110.935 12.9755L108.626 12.2375L108.218 13.5138L110.527 14.2518L109.711 16.8044L112.482 17.6899L113.093 15.7755L124.175 19.3177L123.563 21.2322L126.334 22.1177L127.15 19.5651L129.458 20.3031L129.866 19.0268L127.558 18.2888L127.966 17.0126L130.274 17.7505L130.682 16.4742L128.374 15.7363L128.731 14.6195C129.761 11.3968 124.195 8.11248 120.591 9.83376ZM113.705 13.861C114.707 10.7277 114.629 10.2878 115.608 10.01C115.963 9.90233 116.377 9.88408 116.797 9.95754C117.218 10.031 117.626 10.1929 117.971 10.4227C118.315 10.6526 118.581 10.9401 118.734 11.249C118.887 11.5579 118.92 11.8743 118.83 12.1582L117.861 15.1894L113.705 13.861ZM125.96 13.7339L124.787 17.4033L120.632 16.0749L121.804 12.4056C121.864 12.2167 121.977 12.047 122.137 11.9063C122.298 11.7655 122.502 11.6566 122.738 11.5858C123.093 11.4781 123.507 11.4598 123.927 11.5333C124.348 11.6068 124.756 11.7686 125.101 11.9985C125.446 12.2284 125.711 12.5159 125.864 12.8248C126.017 13.1336 126.05 13.45 125.96 13.7339Z" fill="#1A1A1A"/>
</svg>
