<svg width="204" height="186" viewBox="0 0 204 186" fill="none" xmlns="http://www.w3.org/2000/svg">
<path d="M88.2075 132.666H66.6923V106.062H88.2075V132.666ZM62.1602 101.387V136.832C62.6373 137.007 63.1302 137.182 63.6232 137.341H114.271V101.387H62.1602Z" fill="#FFD600"/>
<path d="M75.4491 157.779L74.32 165.841L74.2087 166.62L74.177 166.875L67.832 165.65L67.8479 165.571L67.9593 164.792L68.9452 157.684C70.9977 159.189 73.6318 159.051 75.4491 157.779Z" fill="#787878"/>
<path d="M77.8025 140.845L77.7071 141.576L76.578 149.654C75.0894 147.86 72.5988 147.107 70.2969 147.985C70.3195 147.823 71.5821 138.818 71.5053 139.366L77.8025 140.845Z" fill="#787878"/>
<path d="M90.1919 170.454H124.37C124.59 170.454 124.768 170.276 124.768 170.057C124.768 169.838 124.59 169.659 124.37 169.659H90.1919C89.9721 169.659 89.7943 169.838 89.7943 170.057C89.7943 170.276 89.9721 170.454 90.1919 170.454ZM48.3384 67.6572C47.4746 68.0329 46.5062 67.4685 45.738 67.0158C45.2856 66.7499 44.8806 67.4334 45.3342 67.7022C46.3486 68.2977 47.4979 68.8932 48.6583 68.3839C48.8594 68.297 48.9502 68.0625 48.8625 67.8606C48.7747 67.6587 48.5402 67.5687 48.3384 67.6572ZM33.5445 70.0611C34.395 70.1784 35.2552 70.1488 36.0944 69.9664C37.3326 69.6986 37.4515 68.905 37.0207 68.7038C36.8235 68.6122 36.5843 68.6992 36.4935 68.8995C36.4368 69.0222 36.2458 69.12 35.9259 69.1899C35.1789 69.353 34.4164 69.3825 33.6547 69.2722C33.442 69.2551 33.237 69.3949 33.2059 69.6123C33.1756 69.8297 33.3271 70.03 33.5445 70.0611ZM43.6198 78.7264C44.3178 78.1705 44.3326 77.2123 44.2682 76.4405C44.0694 74.0537 43.6004 71.687 42.8729 69.4027C42.8061 69.1946 42.5817 69.0797 42.3736 69.1449C42.1639 69.2116 42.0483 69.4353 42.115 69.6449C42.8247 71.8718 43.282 74.1794 43.4762 76.5057C43.5243 77.0819 43.5274 77.7838 43.1244 78.1052C42.7137 78.436 42.0281 78.2062 41.6686 77.7962C41.2299 77.2946 41.073 76.5616 40.934 75.9125C40.8874 75.6982 40.6724 75.5631 40.4619 75.6081C40.2469 75.6532 40.1102 75.8644 40.156 76.0802C40.3074 76.7852 40.4961 77.6642 41.0707 78.3211C41.6996 79.0362 42.8688 79.3272 43.6198 78.7264ZM40.9542 84.3666C42.2199 84.3542 43.4109 83.8774 44.3078 83.4628C44.7825 83.244 44.4556 82.5219 43.9739 82.7422C43.15 83.1227 42.0615 83.5606 40.9465 83.5715C40.934 83.5715 40.9208 83.5715 40.9084 83.5715C39.8423 83.5715 38.8617 83.1351 38.3422 82.427C38.031 82.001 37.3905 82.4722 37.7009 82.896C38.4291 83.891 39.6633 84.3666 40.9542 84.3666ZM44.5671 63.6134C45.8754 63.2127 47.214 62.8866 48.5464 62.6412C49.0699 62.5433 48.9131 61.7574 48.402 61.8586C47.0409 62.1101 45.672 62.444 44.3342 62.8524C43.8464 63.0042 44.043 63.7601 44.5671 63.6134ZM31.2663 63.882C31.0668 63.8649 30.8486 64.0047 30.8183 64.2221C30.788 64.4395 30.9394 64.6399 31.1568 64.6709C33.4481 64.9865 33.9556 65.1861 35.5237 65.9956C35.7102 66.095 35.9561 66.0262 36.0594 65.8263C36.1604 65.6306 36.0835 65.3915 35.8886 65.2905C34.2303 64.4333 33.665 64.218 31.2663 63.882Z" fill="white"/>
<path d="M199.378 87.6626H196.182C196.023 87.6459 195.868 87.6143 195.705 87.6143H158.94V6.62655C158.94 2.96903 156.093 0.0112994 152.579 0.0112994C69.846 0.0633739 74.5982 -0.116929 73.3613 0.153877H67.3128C63.4724 0.153877 60.348 3.28612 60.348 7.13581V87.6143C57.342 87.6296 57.7976 87.5844 57.0527 87.6501C54.7613 87.9482 53.0329 89.9142 53.0329 92.2265V100.461C49.9141 99.7374 48.4331 99.9452 47.6508 99.9073L44.7029 88.1622C48.9155 84.8046 50.8585 79.1992 51.5959 73.824C52.8827 73.0644 53.8133 71.7307 53.9763 70.144C54.372 65.6609 54.5055 65.7803 54.3025 65.5489C54.1008 65.3191 53.9374 65.449 52.1204 65.34C52.111 63.2662 51.8325 61.1185 50.462 59.5744C50.6993 59.6114 50.9338 59.6643 51.1728 59.6909C52.1096 59.8002 53.0933 59.4878 53.9209 58.9258C53.9365 58.9258 53.9365 58.9102 53.9365 58.9102C57.5276 57.3143 58.2948 52.2882 55.0451 48.9795C53.9677 47.8865 52.6562 47.1995 51.3133 46.9497V46.8872V46.8716C51.9536 43.2959 49.299 39.6266 45.1145 38.4399C41.5587 37.4461 37.5737 38.5092 35.7147 41.8125C35.6835 41.8438 35.6679 41.875 35.6523 41.9062C35.3243 42.4996 35.0901 43.1398 34.9028 43.8112C29.7189 38.6891 19.8207 39.505 18.1018 45.5912C17.6646 47.1215 17.8675 48.7297 18.5859 50.1974C14.8228 48.3081 10.607 48.9326 8.95184 51.7432C7.43726 54.3039 8.577 57.8797 11.4657 60.2686C11.7156 60.6122 11.9965 60.94 12.2621 61.2523C10.0604 64.625 9.514 69.0283 10.8412 72.8226C12.1684 76.6168 15.3068 79.7397 19.1323 81.0201C20.9237 81.6243 22.9569 81.7766 24.3562 80.4824C25.5758 82.1355 27.9147 85.0495 29.3633 86.5062V99.9454L28.34 99.9865C23.7666 100.142 19.649 101.726 16.4329 104.571C11.7338 108.736 9.23282 115.295 9.57446 122.519L8.83139 131.63L0.00537084 184.695C-0.0340315 184.933 0.148038 185.158 0.39826 185.158C0.588492 185.158 0.756984 185.02 0.789596 184.826L0.800563 184.76H0.874715L11.7834 138.946C11.7834 138.883 11.5926 138.628 11.5926 138.565C24.1459 145.756 34.5115 151.564 36.7915 153.022C44.3976 157.875 52.0497 161.377 60.348 163.751V178.876C60.348 182.717 63.4724 185.841 67.3128 185.841H73.3036C73.7457 185.943 74.203 186 74.6754 186H152.579C156.093 186 158.94 183.042 158.94 179.385V149.632C197.078 149.486 195.899 149.97 197.559 149.235H199.378C201.716 149.235 203.608 147.327 203.608 144.989V91.9084C203.608 89.5708 201.716 87.6626 199.378 87.6626ZM127.917 93.9642C127.786 93.985 127.655 93.973 127.523 93.9848L121.952 89.4277C120.568 88.2828 118.04 87.6626 117.054 87.6626H112.985C112.792 87.6536 112.604 87.6143 112.41 87.6143H67.8532V13.6705C67.8532 11.1191 69.9225 9.04435 72.4654 9.04435H89.5555L94.5844 14.0753C95.1147 14.6058 96.0656 15.0017 96.7504 15.0017H115.761C116.446 15.0017 117.397 14.6058 117.927 14.0753L122.956 9.04435H142.449C145.001 9.04435 147.077 11.1191 147.077 13.6705V87.6143H141.479C138.67 87.6143 135.921 88.5524 133.658 90.3925L130.861 92.68C130.012 93.3695 128.996 93.8136 127.917 93.9642ZM61.1431 7.13581C61.1431 3.72404 63.9111 0.948972 67.3128 0.948972H147.824C151.226 0.948972 153.994 3.72404 153.994 7.13581V87.6143H147.872V13.6705C147.872 10.6811 145.439 8.24925 142.449 8.24925H72.4654C69.4838 8.24925 67.0581 10.6811 67.0581 13.6705V87.6143H61.1431V7.13581ZM57.6443 88.4094H112.41C120.503 88.4094 121.781 95.7055 128.034 94.7516C132.79 94.0833 134.132 88.4094 141.479 88.4094H195.705C197.809 88.4094 199.521 90.1223 199.521 92.2265V145.006C199.521 147.118 197.809 148.837 195.705 148.837H99.5032C99.456 148.598 99.4176 148.352 99.3294 148.146C99.0149 147.406 98.4496 146.948 97.7198 146.85L89.0071 146.096L90.2813 145.096C91.6478 144.03 91.6206 141.98 90.2603 140.951C89.2657 140.201 87.8758 140.258 86.9588 141.081L81.3763 146.004L81.4918 141.874C81.5077 141.668 81.3645 141.509 81.1737 141.461C71.8423 139.704 62.2912 136.967 53.828 133.006V92.2265C53.828 90.1276 55.5455 88.4094 57.6443 88.4094ZM96.9907 152.402C96.8532 152.388 96.7418 152.454 96.6573 152.55L91.8924 151.915C91.6758 151.896 91.4747 152.039 91.4452 152.256C91.4165 152.474 91.5694 152.674 91.7868 152.703C97.0967 153.346 96.9019 153.512 97.1694 153.289C99.2113 153.873 98.6545 157.011 96.4997 156.812C96.2087 156.689 97.5025 156.942 91.3365 156.084C91.1183 156.064 90.9188 156.208 90.8892 156.426C90.8605 156.643 91.0135 156.844 91.2309 156.873L96.1907 157.535C96.2288 157.553 96.2538 157.591 96.2981 157.597C96.2988 157.597 96.3004 157.597 96.3012 157.597C98.8938 157.946 98.3539 162.11 95.767 161.771C93.5208 161.474 90.5061 161.076 90.668 161.097C90.4498 161.077 90.2502 161.22 90.2207 161.439C90.192 161.656 90.3449 161.856 90.5624 161.886L95.6381 162.563C98.8513 162.842 97.6161 167.234 94.2443 166.779L80.8502 164.811L81.3518 146.876L81.4056 146.88C81.5143 146.897 81.6168 146.852 81.6967 146.782L87.4876 141.675C88.1258 141.103 89.0902 141.064 89.7812 141.585C90.719 142.295 90.7515 143.72 89.7913 144.47L87.7244 146.093C87.4409 146.315 87.5766 146.77 87.9356 146.801L97.6328 147.641C99.6017 147.902 98.9202 152.688 96.9907 152.402ZM53.0329 101.274V132.63C52.3412 132.301 51.6586 131.972 50.9792 131.633C49.1143 122.766 46.2959 113.847 42.602 105.113C43.6179 104.839 44.539 104.427 45.3297 103.909C46.8003 102.945 47.7088 101.702 47.732 100.702C48.4681 100.74 49.9171 100.532 53.0329 101.274ZM53.1851 70.0648C52.9607 72.2482 51.0064 73.8663 48.8284 73.6924C47.152 73.548 45.7606 72.4221 45.2831 70.8242C45.0521 70.0464 45.1414 69.8465 44.8444 65.8595C45.2493 65.8748 53.9385 66.2044 53.5656 66.1903L53.1851 70.0648ZM50.4993 60.9988C51.1885 62.3642 51.317 63.9131 51.3253 65.3097L44.4329 65.0473C44.1549 65.059 44.0069 65.2629 44.0213 65.4713L44.0315 65.6227L40.3019 66.6224C40.277 66.4627 40.3344 66.2038 40.1375 66.0412C39.8888 65.8358 40.2082 65.9522 30.3199 67.1655C30.2081 67.1795 30.108 67.24 30.0435 67.3332C29.8785 67.5746 30.041 67.7466 30.1894 68.5232L29.1012 68.0478C29.093 67.3733 28.9744 66.6855 28.8288 66.0303C28.5165 64.6562 28.1105 63.2197 27.0332 62.2984C32.4044 64.1565 38.7751 62.6264 42.6943 58.5198C43.1916 58.0227 43.3363 57.8726 44.162 58.067C45.8004 58.4408 47.4248 58.9544 49.0758 59.3227C49.6545 59.823 50.1724 60.3376 50.4993 60.9988ZM30.8588 67.8985L39.5163 66.7959L39.7757 70.6797C39.9131 72.8694 38.2515 74.7965 36.0727 74.9736C34.4095 75.0963 32.8388 74.2235 32.105 72.7234C31.9652 72.4392 31.8604 72.1519 31.7952 71.8677L30.8588 67.8985ZM28.7189 84.6358C27.4062 83.1049 26.0993 81.5123 24.8866 79.8565C25.2341 79.3228 25.4174 78.7012 25.3155 78.0689C25.0813 76.4918 23.4418 75.6018 22.4114 74.3995C20.8316 72.5219 20.8737 69.96 21.8336 68.872C22.3176 68.3568 23.1295 68.0913 23.7698 68.4193C24.6754 68.9033 24.7535 70.2305 25.5342 70.8863C26.5334 71.7295 28.1885 71.0268 28.7508 69.8558C28.8987 69.5477 28.9887 69.2236 29.0431 68.8915C29.2051 68.9616 30.5783 69.5551 30.4163 69.485C31.017 71.9023 30.9952 72.2709 31.3914 73.0743C32.2762 74.8807 34.1599 75.9292 36.1356 75.7656C38.7445 75.5544 40.733 73.2498 40.5692 70.6285L40.3559 67.4304L44.0858 66.4307C44.3533 69.922 44.2554 70.1644 44.5206 71.0509C45.2897 73.6222 48.0496 75.1517 50.7202 74.2238C49.728 80.7859 46.7116 87.7425 40.3603 89.571C36.4151 90.7093 32.4994 89.0461 28.7189 84.6358ZM44.0113 88.6745L46.9036 100.197C46.8808 100.276 46.8736 100.359 46.902 100.438C47.5816 102.335 39.7652 109.018 30.1584 100.245V87.2506C34.8892 91.5341 39.7224 91.6544 44.0113 88.6745ZM10.5375 131.395C10.3307 131.236 10.1081 131.029 9.88544 130.854L9.77421 130.743C9.75286 130.726 9.72481 130.732 9.70151 130.719L10.3672 122.533C10.0388 115.5 12.4419 109.17 16.9602 105.167C22.4451 100.315 28.8465 100.855 29.5046 100.737C34.0451 104.934 38.4101 105.919 41.8156 105.29C45.4261 113.804 48.1913 122.495 50.0557 131.14C39.6123 125.677 30.7653 118.341 23.0363 108.687C22.8933 108.512 22.6388 108.496 22.4798 108.624C22.3049 108.767 22.2731 109.021 22.4161 109.18C35.3469 125.357 51.21 134.824 71.4099 140.078L71.5053 139.362L77.8025 140.841L77.7071 141.572C78.693 141.779 79.6948 141.986 80.6967 142.177C80.4518 150.867 80.2622 157.595 80.0129 166.443C78.0728 166.284 76.1805 166.077 74.32 165.839L74.2087 166.618C76.2123 166.888 78.2636 167.095 80.3627 167.27C80.6432 167.27 80.7921 167.086 80.7921 166.888L80.8278 165.61C94.6555 167.625 94.1218 167.605 94.711 167.605C97.9919 167.605 99.4575 163.826 97.2562 162.314C99.0186 161.423 99.3331 158.629 97.7928 157.382C99.4952 156.566 99.7541 153.989 98.2167 152.876C99.0156 152.335 99.4376 151.281 99.5662 150.324C99.5981 150.087 99.5794 149.862 99.5777 149.632H147.077V172.325C147.077 174.876 145.001 176.952 142.449 176.952H72.4654C69.9225 176.952 67.8532 174.876 67.8532 172.325V165.531L67.9592 164.789C44.0072 160.06 29.2336 147.596 10.5375 131.395ZM61.1431 178.876V163.966C63.077 164.499 65.0441 164.98 67.0581 165.394V172.325C67.0581 175.314 69.4838 177.747 72.4654 177.747H142.449C145.439 177.747 147.872 175.314 147.872 172.325V149.632H153.994V178.876C153.994 182.279 151.226 185.046 147.824 185.046H67.3128C63.9111 185.046 61.1431 182.279 61.1431 178.876Z" fill="white"/>
<path d="M142.329 116.571C142.428 116.571 142.527 116.534 142.604 116.461L149.175 110.157H191.841C191.841 110.157 191.841 110.157 191.841 110.157L192.307 110.157V109.407C192.307 108.647 191.691 108.031 190.931 108.031H151.003C150.259 108.031 149.661 108.625 149.636 109.362H149.015C148.912 109.362 148.814 109.403 148.74 109.473L142.054 115.886C141.895 116.038 141.89 116.29 142.042 116.448C142.12 116.531 142.224 116.571 142.329 116.571ZM142.329 135.023C142.428 135.023 142.527 134.985 142.604 134.912L149.175 128.608H191.841C192.033 128.608 192.172 128.462 192.209 128.282H192.244V127.532C192.244 126.772 191.628 126.156 190.868 126.156H150.941C150.181 126.156 149.565 126.772 149.565 127.532V127.813H149.015C148.912 127.813 148.814 127.853 148.74 127.923L142.054 134.338C141.895 134.49 141.89 134.742 142.042 134.9C142.12 134.982 142.224 135.023 142.329 135.023ZM94.3046 121.731C94.3046 121.95 94.4824 122.129 94.7022 122.129H108.953C109.173 122.129 109.351 121.95 109.351 121.731C109.351 121.512 109.173 121.334 108.953 121.334H94.7022C94.4824 121.334 94.3046 121.512 94.3046 121.731ZM94.4366 127.617H108.688C108.907 127.617 109.085 127.438 109.085 127.219C109.085 127 108.907 126.822 108.688 126.822H94.4366C94.2169 126.822 94.0391 127 94.0391 127.219C94.0391 127.438 94.2169 127.617 94.4366 127.617ZM95.3298 113.885C95.9625 113.885 96.4753 113.372 96.4753 112.739C96.4753 112.107 95.9625 111.594 95.3298 111.594C94.6971 111.594 94.1843 112.107 94.1843 112.739C94.1843 113.372 94.6971 113.885 95.3298 113.885ZM101.815 113.885C102.447 113.885 102.96 113.372 102.96 112.739C102.96 112.107 102.447 111.594 101.815 111.594C101.182 111.594 100.669 112.107 100.669 112.739C100.669 113.372 101.182 113.885 101.815 113.885Z" fill="white"/>
<path d="M107.793 113.884C108.426 113.884 108.938 113.371 108.938 112.739C108.938 112.106 108.426 111.594 107.793 111.594C107.161 111.594 106.648 112.106 106.648 112.739C106.648 113.371 107.161 113.884 107.793 113.884Z" fill="white"/>
<path d="M126.825 143.315C129.665 143.315 131.976 141.005 131.976 138.164V104.034C131.976 103.815 131.798 103.637 131.578 103.637C131.358 103.637 131.181 103.815 131.181 104.034V138.164C131.181 140.567 129.226 142.52 126.825 142.52C124.422 142.52 122.468 140.567 122.468 138.164V104.034C122.468 103.815 122.29 103.637 122.07 103.637C121.851 103.637 121.673 103.815 121.673 104.034V138.164C121.673 141.005 123.984 143.315 126.825 143.315ZM66.6925 133.061H88.2082C88.4279 133.061 88.6057 132.883 88.6057 132.664V106.061C88.6057 105.842 88.4279 105.663 88.2082 105.663H66.6925C66.4727 105.663 66.2949 105.842 66.2949 106.061V132.664C66.2949 132.883 66.4727 133.061 66.6925 133.061ZM67.09 106.458H87.8106V132.266H67.09V106.458Z" fill="white"/>
<path d="M77.4525 118.995C79.7632 118.995 81.6438 117.114 81.6438 114.803C81.6438 112.491 79.7632 110.611 77.4525 110.611C75.1418 110.611 73.2612 112.491 73.2612 114.803C73.2612 117.114 75.1418 118.995 77.4525 118.995ZM77.4525 111.406C79.3253 111.406 80.8487 112.931 80.8487 114.803C80.8487 116.676 79.3253 118.2 77.4525 118.2C75.5797 118.2 74.0563 116.676 74.0563 114.803C74.0563 112.931 75.5797 111.406 77.4525 111.406ZM77.4525 121.08C73.2022 121.08 69.8727 122.911 69.8727 125.25C69.8727 127.589 73.2022 129.421 77.4525 129.421C81.7028 129.421 85.0323 127.589 85.0323 125.25C85.0323 122.911 81.7028 121.08 77.4525 121.08ZM77.4525 128.626C73.7752 128.626 70.6678 127.079 70.6678 125.25C70.6678 123.421 73.7752 121.875 77.4525 121.875C81.1298 121.875 84.2372 123.421 84.2372 125.25C84.2372 127.079 81.1298 128.626 77.4525 128.626ZM72.2331 159.17C77.3762 159.17 80.066 153.25 76.8896 149.396C75.2916 147.466 72.5821 146.682 70.1639 147.606C67.4843 148.598 65.8933 151.378 66.3802 154.215C66.8751 157.096 69.3972 159.17 72.2331 159.17ZM67.1644 154.081C66.6124 150.865 69.1029 148.011 72.2533 148.011C74.7329 148.011 76.9366 149.771 77.3842 152.31C77.7266 154.293 76.881 156.31 75.2295 157.447L75.2264 157.448C72.1828 159.585 67.81 157.852 67.1644 154.081ZM106.875 37.5332H78.9425C78.7228 37.5332 78.545 37.7118 78.545 37.9308C78.545 38.1497 78.7228 38.3283 78.9425 38.3283H106.875C107.095 38.3283 107.272 38.1497 107.272 37.9308C107.272 37.7118 107.095 37.5332 106.875 37.5332ZM100.044 46.3895H78.9425C78.7228 46.3895 78.545 46.5681 78.545 46.7871C78.545 47.006 78.7228 47.1846 78.9425 47.1846H100.044C100.264 47.1846 100.442 47.006 100.442 46.7871C100.442 46.5681 100.264 46.3895 100.044 46.3895ZM98.0761 55.2443H78.9425C78.7228 55.2443 78.545 55.4228 78.545 55.6418C78.545 55.8608 78.7228 56.0394 78.9425 56.0394H98.0761C98.2958 56.0394 98.4736 55.8608 98.4736 55.6418C98.4736 55.4228 98.2958 55.2443 98.0761 55.2443Z" fill="white"/>
<path d="M142.328 118.51C143.665 118.51 144.749 117.427 144.749 116.09C144.749 114.754 143.665 113.67 142.328 113.67C140.992 113.67 139.908 114.754 139.908 116.09C139.908 117.427 140.992 118.51 142.328 118.51Z" fill="#787878"/>
<path d="M142.329 137.195C143.749 137.195 144.9 136.044 144.9 134.624C144.9 133.204 143.749 132.053 142.329 132.053C140.909 132.053 139.758 133.204 139.758 134.624C139.758 136.044 140.909 137.195 142.329 137.195Z" fill="#787878"/>
</svg>
