<svg width="20" height="20" viewBox="0 0 20 20" fill="none" xmlns="http://www.w3.org/2000/svg">
<path d="M0 3C0 1.34315 1.34315 0 3 0C4.65685 0 6 1.34315 6 3C6 4.30622 5.16519 5.41746 4 5.82929V9.8394C4 10.1982 4.19229 10.5296 4.50386 10.7076L9.5039 13.5647C9.8113 13.7404 10.1887 13.7404 10.4961 13.5647L15.4961 10.7076C15.8077 10.5296 16 10.1982 16 9.8394V5.82929C14.8348 5.41746 14 4.30622 14 3C14 1.34315 15.3431 0 17 0C18.6569 0 20 1.34315 20 3C20 4.30622 19.1652 5.41746 18 5.82929V9.8394C18 10.9159 17.4231 11.91 16.4884 12.4441L12.1596 14.9177C12.68 15.4572 13 16.1912 13 17C13 18.6569 11.6569 20 10 20C8.3431 20 7 18.6569 7 17C7 16.1912 7.32004 15.4572 7.84038 14.9177L3.51158 12.4441C2.57686 11.91 2 10.9159 2 9.8394V5.82929C0.83481 5.41746 0 4.30622 0 3Z" fill="white"/>
</svg>
