<svg width="36" height="36" viewBox="0 0 36 36" fill="none" xmlns="http://www.w3.org/2000/svg">
<path d="M18 3C9.71572 3 3 9.71572 3 18C3 26.2842 9.71572 33 18 33C26.2842 33 33 26.2842 33 18" stroke="#4CD964" stroke-width="1.5" stroke-linecap="round" stroke-linejoin="round"/>
<path d="M33 3L24 12M24 12H32.1M24 12V3.9" stroke="#4CD964" stroke-width="1.5" stroke-linecap="round" stroke-linejoin="round"/>
<path d="M20.4999 17.1765C20.4649 17.1707 20.424 17.1707 20.389 17.1765C19.584 17.1473 18.9424 16.4882 18.9424 15.6715C18.9424 14.8373 19.6132 14.1665 20.4474 14.1665C21.2815 14.1665 21.9524 14.8432 21.9524 15.6715C21.9465 16.4882 21.3049 17.1473 20.4999 17.1765Z" stroke="#4CD964" stroke-width="0.8" stroke-linecap="round" stroke-linejoin="round"/>
<path d="M19.8991 21.4233C20.6983 21.5574 21.5791 21.4174 22.1974 21.0033C23.0199 20.4549 23.0199 19.5566 22.1974 19.0083C21.5733 18.5941 20.6808 18.4541 19.8816 18.5941" stroke="#4CD964" stroke-width="0.8" stroke-linecap="round" stroke-linejoin="round"/>
<path d="M13.4825 17.1765C13.5175 17.1707 13.5584 17.1707 13.5934 17.1765C14.3984 17.1473 15.04 16.4882 15.04 15.6715C15.04 14.8373 14.3692 14.1665 13.535 14.1665C12.7009 14.1665 12.03 14.8432 12.03 15.6715C12.0359 16.4882 12.6775 17.1473 13.4825 17.1765Z" stroke="#4CD964" stroke-width="0.8" stroke-linecap="round" stroke-linejoin="round"/>
<path d="M14.0832 21.4233C13.284 21.5574 12.4032 21.4174 11.7848 21.0033C10.9623 20.4549 10.9623 19.5566 11.7848 19.0083C12.409 18.5941 13.3015 18.4541 14.1007 18.5941" stroke="#4CD964" stroke-width="0.8" stroke-linecap="round" stroke-linejoin="round"/>
<path d="M16.9999 21.5342C16.9649 21.5283 16.924 21.5283 16.889 21.5342C16.084 21.505 15.4424 20.8458 15.4424 20.0292C15.4424 19.195 16.1132 18.5242 16.9474 18.5242C17.7815 18.5242 18.4524 19.2008 18.4524 20.0292C18.4465 20.8458 17.8049 21.5108 16.9999 21.5342Z" stroke="#4CD964" stroke-width="0.8" stroke-linecap="round" stroke-linejoin="round"/>
<path d="M15.3024 23.3717C14.4799 23.92 14.4799 24.8184 15.3024 25.3667C16.2358 25.9909 17.7641 25.9909 18.6974 25.3667C19.5199 24.8184 19.5199 23.92 18.6974 23.3717C17.7699 22.7534 16.2358 22.7534 15.3024 23.3717Z" stroke="#4CD964" stroke-width="0.8" stroke-linecap="round" stroke-linejoin="round"/>
</svg>
