<svg width="36" height="36" viewBox="0 0 36 36" fill="none" xmlns="http://www.w3.org/2000/svg">
<path d="M3.5 18C3.5 14.7003 3.50082 12.2694 3.72353 10.3853C3.94494 8.51215 4.37969 7.24455 5.20242 6.24205C5.51408 5.86229 5.86229 5.51408 6.24205 5.20242C7.24455 4.37969 8.51215 3.94494 10.3853 3.72353C12.2694 3.50082 14.7003 3.5 18 3.5C21.2997 3.5 23.7306 3.50082 25.6147 3.72353C27.4879 3.94494 28.7554 4.37969 29.7579 5.20242C30.1377 5.51408 30.4859 5.86229 30.7976 6.24205C31.6203 7.24455 32.0551 8.51215 32.2765 10.3853C32.4992 12.2694 32.5 14.7003 32.5 18C32.5 21.2997 32.4992 23.7306 32.2765 25.6147C32.0551 27.4879 31.6203 28.7554 30.7976 29.7579C30.4859 30.1377 30.1377 30.4859 29.7579 30.7976C28.7554 31.6203 27.4879 32.0551 25.6147 32.2765C23.7306 32.4992 21.2997 32.5 18 32.5C14.7003 32.5 12.2694 32.4992 10.3853 32.2765C8.51215 32.0551 7.24455 31.6203 6.24205 30.7976C5.86229 30.4859 5.51408 30.1377 5.20242 29.7579C4.37969 28.7554 3.94494 27.4879 3.72353 25.6147C3.50082 23.7306 3.5 21.2997 3.5 18Z" stroke="#AB47FF"/>
<path d="M21.9997 14.7733C21.9597 14.7666 21.9131 14.7666 21.8731 14.7733C20.9531 14.7399 20.2197 13.9866 20.2197 13.0533C20.2197 12.0999 20.9864 11.3333 21.9397 11.3333C22.8931 11.3333 23.6597 12.1066 23.6597 13.0533C23.6531 13.9866 22.9197 14.7399 21.9997 14.7733Z" stroke="#AB47FF" stroke-width="0.8" stroke-linecap="round" stroke-linejoin="round"/>
<path d="M21.3135 19.6266C22.2268 19.7799 23.2335 19.6199 23.9401 19.1466C24.8801 18.5199 24.8801 17.4932 23.9401 16.8666C23.2268 16.3932 22.2068 16.2332 21.2935 16.3932" stroke="#AB47FF" stroke-width="0.8" stroke-linecap="round" stroke-linejoin="round"/>
<path d="M13.9798 14.7733C14.0198 14.7666 14.0665 14.7666 14.1065 14.7733C15.0265 14.7399 15.7598 13.9866 15.7598 13.0533C15.7598 12.0999 14.9932 11.3333 14.0398 11.3333C13.0865 11.3333 12.3198 12.1066 12.3198 13.0533C12.3265 13.9866 13.0598 14.7399 13.9798 14.7733Z" stroke="#AB47FF" stroke-width="0.8" stroke-linecap="round" stroke-linejoin="round"/>
<path d="M14.6666 19.6266C13.7533 19.7799 12.7466 19.6199 12.04 19.1466C11.1 18.5199 11.1 17.4932 12.04 16.8666C12.7533 16.3932 13.7733 16.2332 14.6866 16.3932" stroke="#AB47FF" stroke-width="0.8" stroke-linecap="round" stroke-linejoin="round"/>
<path d="M18.0002 19.7534C17.9602 19.7467 17.9135 19.7467 17.8735 19.7534C16.9535 19.72 16.2202 18.9667 16.2202 18.0334C16.2202 17.08 16.9869 16.3134 17.9402 16.3134C18.8935 16.3134 19.6602 17.0867 19.6602 18.0334C19.6535 18.9667 18.9202 19.7267 18.0002 19.7534Z" stroke="#AB47FF" stroke-width="0.8" stroke-linecap="round" stroke-linejoin="round"/>
<path d="M16.06 21.8534C15.12 22.48 15.12 23.5067 16.06 24.1334C17.1266 24.8467 18.8733 24.8467 19.94 24.1334C20.88 23.5067 20.88 22.48 19.94 21.8534C18.88 21.1467 17.1266 21.1467 16.06 21.8534Z" stroke="#AB47FF" stroke-width="0.8" stroke-linecap="round" stroke-linejoin="round"/>
</svg>
