<svg width="36" height="36" viewBox="0 0 36 36" fill="none" xmlns="http://www.w3.org/2000/svg">
<path d="M18 3C9.71572 3 3 9.71572 3 18C3 26.2842 9.71572 33 18 33C26.2842 33 33 26.2842 33 18" stroke="#0166FF" stroke-width="1.5" stroke-linecap="round" stroke-linejoin="round"/>
<path d="M24 12L33 3M33 3H24.9M33 3V11.1" stroke="#0166FF" stroke-width="1.5" stroke-linecap="round" stroke-linejoin="round"/>
<g clip-path="url(#clip0_11045_27122)">
<path d="M19.075 25.1997C19.05 25.0247 18.9 24.8747 18.675 24.7997C18.4 24.6997 18.1 24.5997 17.8 24.4997C17.2 24.2997 16.6 24.0747 16 23.8747C15.8 23.7997 15.6 23.8247 15.45 23.9497C15.3 24.0747 15.25 24.2497 15.3 24.4497C15.325 24.5247 15.325 24.5997 15.35 24.6747C15.35 24.7247 15.375 24.7997 15.375 24.8747C15.375 24.9497 15.4 24.9997 15.425 25.0747L15.475 25.3497L15.2 25.3247H15.025C12.5 24.9497 10.45 23.0247 9.94999 20.4997C9.84999 20.0497 9.82499 19.5747 9.84999 19.1247C9.89999 17.4497 10.625 15.9247 11.85 14.8247C12.925 13.8747 14.275 13.2747 15.725 13.2247C16.1 13.1997 16.475 13.2247 16.825 13.2747C17 13.2997 17.15 13.3247 17.325 13.3747C17.575 13.4247 17.825 13.2997 17.9 13.0747C18.025 12.7997 17.85 12.4747 17.55 12.3997C17.175 12.3247 16.775 12.2747 16.375 12.2497C15.125 12.1997 14 12.3997 13.025 12.8247C12.5 13.0747 12 13.3997 11.55 13.7747C11.275 13.9997 11.025 14.2497 10.775 14.4997C9.14999 16.3247 8.52499 18.3497 8.94999 20.4997C9.04999 20.9997 9.19999 21.5247 9.42499 22.0497C10.275 24.1247 11.85 25.4747 14.1 26.0997C14.4 26.1747 14.725 26.2247 15.075 26.2997C15.225 26.3247 15.4 26.3497 15.575 26.3747L15.725 26.3997L15.75 26.5497C15.775 26.6247 15.775 26.6997 15.8 26.7497C15.825 26.8247 15.825 26.8997 15.85 26.9747C15.875 27.0747 15.9 27.1747 15.9 27.2497C15.95 27.4747 16.075 27.6247 16.225 27.6747C16.375 27.7247 16.575 27.6747 16.75 27.5247C17.45 26.9247 18.15 26.2747 18.875 25.6497C19.025 25.5497 19.1 25.3497 19.075 25.1997Z" fill="#0166FF"/>
<path d="M19.7499 13.7508L19.4249 14.3008C19.3499 14.4008 19.2249 14.4508 19.1499 14.4008L19.1249 14.3758C19.0999 14.3508 19.0749 14.3258 19.0499 14.2758C19.0249 14.2258 19.0499 14.1508 19.0749 14.1008C19.1749 13.9008 19.2999 13.7258 19.3999 13.5508C19.4499 13.4758 19.5249 13.4258 19.5999 13.4258C19.6249 13.4258 19.6749 13.4258 19.6999 13.4508L19.7249 13.4758C19.8499 13.5508 19.7749 13.7008 19.7499 13.7508ZM21.4499 15.4508L20.9499 15.8758C20.8249 15.9758 20.6749 15.9758 20.5499 15.9008C20.5249 15.9008 20.5249 15.8758 20.4999 15.8508C20.4499 15.8008 20.4249 15.7258 20.4249 15.6508C20.4249 15.5758 20.4749 15.4758 20.5499 15.4258C20.7249 15.2758 20.8749 15.1508 21.0499 15.0008C21.1249 14.9508 21.1999 14.9258 21.2749 14.9258C21.3499 14.9258 21.3999 14.9508 21.4499 14.9758L21.4999 15.0258C21.6249 15.1508 21.5999 15.3258 21.4499 15.4508ZM21.4499 17.8258C21.5249 17.8758 21.5999 17.9008 21.6999 17.9008C21.7499 17.9008 21.7999 17.9008 21.8749 17.8758L22.4749 17.6508C22.6999 17.5758 22.8249 17.3508 22.7249 17.1508C22.6999 17.0758 22.6499 17.0258 22.5999 16.9758C22.4999 16.8758 22.3249 16.8758 22.1999 16.9258L22.0999 16.9758C21.9249 17.0258 21.7749 17.1008 21.5999 17.1758C21.4749 17.2258 21.3999 17.3008 21.3499 17.4008C21.2999 17.5008 21.2999 17.6008 21.3499 17.7008C21.3749 17.7508 21.3999 17.8008 21.4499 17.8258ZM22.9999 19.2008C22.8999 19.1258 22.7999 19.1008 22.6499 19.1008H21.9999C21.8499 19.1008 21.7249 19.1508 21.6249 19.2508C21.5249 19.3508 21.4999 19.4508 21.4999 19.6008C21.4999 19.7508 21.5749 19.8758 21.6749 19.9508C21.7749 20.0258 21.8749 20.0508 21.9999 20.0758H22.6499C22.9499 20.0758 23.1749 19.8508 23.1499 19.5758C23.1749 19.4258 23.0999 19.3008 22.9999 19.2008ZM22.5749 21.4258C22.5249 21.3758 22.4499 21.3508 22.3749 21.3258C22.1749 21.2508 21.9749 21.1758 21.7499 21.1258C21.5749 21.0758 21.3999 21.0758 21.2499 21.1508C21.1249 21.2258 20.9999 21.3508 20.9749 21.5008C20.8999 21.7258 20.9749 21.9758 21.1749 22.1258C21.2249 22.1758 21.2999 22.2008 21.3749 22.2258L21.9999 22.4258C22.0749 22.4508 22.1499 22.4508 22.2249 22.4508C22.4749 22.4508 22.6999 22.3008 22.7749 22.0508C22.8499 21.8258 22.7749 21.5758 22.5749 21.4258ZM21.4499 23.3508C21.2499 23.2008 21.0249 23.0258 20.8249 22.8508C20.6749 22.7508 20.5249 22.7008 20.3749 22.7008H20.2999C20.1249 22.7258 19.9749 22.8258 19.8499 22.9508C19.6249 23.2508 19.6749 23.6758 19.9999 23.9258L20.6499 24.4258C20.7999 24.5258 20.9499 24.6008 21.0999 24.6008C21.2999 24.6008 21.4999 24.5008 21.6249 24.3508C21.8499 24.0258 21.7999 23.6258 21.4499 23.3508Z" fill="#0166FF"/>
</g>
<defs>
<clipPath id="clip0_11045_27122">
<rect width="16" height="16" fill="white" transform="translate(8 12)"/>
</clipPath>
</defs>
</svg>
