<svg width="36" height="36" viewBox="0 0 36 36" fill="none" xmlns="http://www.w3.org/2000/svg">
<path d="M18 3C9.71572 3 3 9.71572 3 18C3 26.2842 9.71572 33 18 33C26.2842 33 33 26.2842 33 18" stroke="#0166FF" stroke-width="1.5" stroke-linecap="round" stroke-linejoin="round"/>
<path d="M24 12L33 3M33 3H24.9M33 3V11.1" stroke="#0166FF" stroke-width="1.5" stroke-linecap="round" stroke-linejoin="round"/>
<g clip-path="url(#clip0_6893_24961)">
<path d="M19.075 25.2C19.05 25.025 18.9 24.875 18.675 24.8C18.4 24.7 18.1 24.6 17.8 24.5C17.2 24.3 16.6 24.075 16 23.875C15.8 23.8 15.6 23.825 15.45 23.95C15.3 24.075 15.25 24.25 15.3 24.45C15.325 24.525 15.325 24.6 15.35 24.675C15.35 24.725 15.375 24.8 15.375 24.875C15.375 24.95 15.4 25 15.425 25.075L15.475 25.35L15.2 25.325H15.025C12.5 24.95 10.45 23.025 9.94999 20.5C9.84999 20.05 9.82499 19.575 9.84999 19.125C9.89999 17.45 10.625 15.925 11.85 14.825C12.925 13.875 14.275 13.275 15.725 13.225C16.1 13.2 16.475 13.225 16.825 13.275C17 13.3 17.15 13.325 17.325 13.375C17.575 13.425 17.825 13.3 17.9 13.075C18.025 12.8 17.85 12.475 17.55 12.4C17.175 12.325 16.775 12.275 16.375 12.25C15.125 12.2 14 12.4 13.025 12.825C12.5 13.075 12 13.4 11.55 13.775C11.275 14 11.025 14.25 10.775 14.5C9.14999 16.325 8.52499 18.35 8.94999 20.5C9.04999 21 9.19999 21.525 9.42499 22.05C10.275 24.125 11.85 25.475 14.1 26.1C14.4 26.175 14.725 26.225 15.075 26.3C15.225 26.325 15.4 26.35 15.575 26.375L15.725 26.4L15.75 26.55C15.775 26.625 15.775 26.7 15.8 26.75C15.825 26.825 15.825 26.9 15.85 26.975C15.875 27.075 15.9 27.175 15.9 27.25C15.95 27.475 16.075 27.625 16.225 27.675C16.375 27.725 16.575 27.675 16.75 27.525C17.45 26.925 18.15 26.275 18.875 25.65C19.025 25.55 19.1 25.35 19.075 25.2Z" fill="#0166FF"/>
<path d="M19.7499 13.75L19.4249 14.3C19.3499 14.4 19.2249 14.45 19.1499 14.4L19.1249 14.375C19.0999 14.35 19.0749 14.325 19.0499 14.275C19.0249 14.225 19.0499 14.15 19.0749 14.1C19.1749 13.9 19.2999 13.725 19.3999 13.55C19.4499 13.475 19.5249 13.425 19.5999 13.425C19.6249 13.425 19.6749 13.425 19.6999 13.45L19.7249 13.475C19.8499 13.55 19.7749 13.7 19.7499 13.75ZM21.4499 15.45L20.9499 15.875C20.8249 15.975 20.6749 15.975 20.5499 15.9C20.5249 15.9 20.5249 15.875 20.4999 15.85C20.4499 15.8 20.4249 15.725 20.4249 15.65C20.4249 15.575 20.4749 15.475 20.5499 15.425C20.7249 15.275 20.8749 15.15 21.0499 15C21.1249 14.95 21.1999 14.925 21.2749 14.925C21.3499 14.925 21.3999 14.95 21.4499 14.975L21.4999 15.025C21.6249 15.15 21.5999 15.325 21.4499 15.45ZM21.4499 17.825C21.5249 17.875 21.5999 17.9 21.6999 17.9C21.7499 17.9 21.7999 17.9 21.8749 17.875L22.4749 17.65C22.6999 17.575 22.8249 17.35 22.7249 17.15C22.6999 17.075 22.6499 17.025 22.5999 16.975C22.4999 16.875 22.3249 16.875 22.1999 16.925L22.0999 16.975C21.9249 17.025 21.7749 17.1 21.5999 17.175C21.4749 17.225 21.3999 17.3 21.3499 17.4C21.2999 17.5 21.2999 17.6 21.3499 17.7C21.3749 17.75 21.3999 17.8 21.4499 17.825ZM22.9999 19.2C22.8999 19.125 22.7999 19.1 22.6499 19.1H21.9999C21.8499 19.1 21.7249 19.15 21.6249 19.25C21.5249 19.35 21.4999 19.45 21.4999 19.6C21.4999 19.75 21.5749 19.875 21.6749 19.95C21.7749 20.025 21.8749 20.05 21.9999 20.075H22.6499C22.9499 20.075 23.1749 19.85 23.1499 19.575C23.1749 19.425 23.0999 19.3 22.9999 19.2ZM22.5749 21.425C22.5249 21.375 22.4499 21.35 22.3749 21.325C22.1749 21.25 21.9749 21.175 21.7499 21.125C21.5749 21.075 21.3999 21.075 21.2499 21.15C21.1249 21.225 20.9999 21.35 20.9749 21.5C20.8999 21.725 20.9749 21.975 21.1749 22.125C21.2249 22.175 21.2999 22.2 21.3749 22.225L21.9999 22.425C22.0749 22.45 22.1499 22.45 22.2249 22.45C22.4749 22.45 22.6999 22.3 22.7749 22.05C22.8499 21.825 22.7749 21.575 22.5749 21.425ZM21.4499 23.35C21.2499 23.2 21.0249 23.025 20.8249 22.85C20.6749 22.75 20.5249 22.7 20.3749 22.7H20.2999C20.1249 22.725 19.9749 22.825 19.8499 22.95C19.6249 23.25 19.6749 23.675 19.9999 23.925L20.6499 24.425C20.7999 24.525 20.9499 24.6 21.0999 24.6C21.2999 24.6 21.4999 24.5 21.6249 24.35C21.8499 24.025 21.7999 23.625 21.4499 23.35Z" fill="#0166FF"/>
</g>
<defs>
<clipPath id="clip0_6893_24961">
<rect width="16" height="16" fill="white" transform="translate(8 12)"/>
</clipPath>
</defs>
</svg>
