<svg width="36" height="36" viewBox="0 0 36 36" fill="none" xmlns="http://www.w3.org/2000/svg">
<path d="M3.5 18C3.5 14.7003 3.50082 12.2694 3.72353 10.3853C3.94494 8.51215 4.37969 7.24455 5.20242 6.24205C5.51408 5.86229 5.86229 5.51408 6.24205 5.20242C7.24455 4.37969 8.51215 3.94494 10.3853 3.72353C12.2694 3.50082 14.7003 3.5 18 3.5C21.2997 3.5 23.7306 3.50082 25.6147 3.72353C27.4879 3.94494 28.7554 4.37969 29.7579 5.20242C30.1377 5.51408 30.4859 5.86229 30.7976 6.24205C31.6203 7.24455 32.0551 8.51215 32.2765 10.3853C32.4992 12.2694 32.5 14.7003 32.5 18C32.5 21.2997 32.4992 23.7306 32.2765 25.6147C32.0551 27.4879 31.6203 28.7554 30.7976 29.7579C30.4859 30.1377 30.1377 30.4859 29.7579 30.7976C28.7554 31.6203 27.4879 32.0551 25.6147 32.2765C23.7306 32.4992 21.2997 32.5 18 32.5C14.7003 32.5 12.2694 32.4992 10.3853 32.2765C8.51215 32.0551 7.24455 31.6203 6.24205 30.7976C5.86229 30.4859 5.51408 30.1377 5.20242 29.7579C4.37969 28.7554 3.94494 27.4879 3.72353 25.6147C3.50082 23.7306 3.5 21.2997 3.5 18Z" stroke="#00CED1"/>
<g clip-path="url(#clip0_5764_9546)">
<path d="M21.0752 23.2C21.0502 23.025 20.9002 22.875 20.6752 22.8C20.4002 22.7 20.1002 22.6 19.8002 22.5C19.2002 22.3 18.6002 22.075 18.0002 21.875C17.8002 21.8 17.6002 21.825 17.4502 21.95C17.3002 22.075 17.2502 22.25 17.3002 22.45C17.3252 22.525 17.3252 22.6 17.3502 22.675C17.3502 22.725 17.3752 22.8 17.3752 22.875C17.3752 22.95 17.4002 23 17.4252 23.075L17.4752 23.35L17.2002 23.325H17.0252C14.5002 22.95 12.4502 21.025 11.9502 18.5C11.8502 18.05 11.8252 17.575 11.8502 17.125C11.9002 15.45 12.6252 13.925 13.8502 12.825C14.9252 11.875 16.2752 11.275 17.7252 11.225C18.1002 11.2 18.4752 11.225 18.8252 11.275C19.0002 11.3 19.1502 11.325 19.3252 11.375C19.5752 11.425 19.8252 11.3 19.9002 11.075C20.0252 10.8 19.8502 10.475 19.5502 10.4C19.1752 10.325 18.7752 10.275 18.3752 10.25C17.1252 10.2 16.0002 10.4 15.0252 10.825C14.5002 11.075 14.0002 11.4 13.5502 11.775C13.2752 12 13.0252 12.25 12.7752 12.5C11.1502 14.325 10.5252 16.35 10.9502 18.5C11.0502 19 11.2002 19.525 11.4252 20.05C12.2752 22.125 13.8502 23.475 16.1002 24.1C16.4002 24.175 16.7252 24.225 17.0752 24.3C17.2252 24.325 17.4002 24.35 17.5752 24.375L17.7252 24.4L17.7502 24.55C17.7752 24.625 17.7752 24.7 17.8002 24.75C17.8252 24.825 17.8252 24.9 17.8502 24.975C17.8752 25.075 17.9002 25.175 17.9002 25.25C17.9502 25.475 18.0752 25.625 18.2252 25.675C18.3752 25.725 18.5752 25.675 18.7502 25.525C19.4502 24.925 20.1502 24.275 20.8752 23.65C21.0252 23.55 21.1002 23.35 21.0752 23.2Z" fill="#00CED1"/>
<path d="M21.7504 11.7499L21.4254 12.2999C21.3504 12.3999 21.2254 12.4499 21.1504 12.3999L21.1254 12.3749C21.1004 12.3499 21.0754 12.3249 21.0504 12.2749C21.0254 12.2249 21.0504 12.1499 21.0754 12.0999C21.1754 11.8999 21.3004 11.7249 21.4004 11.5499C21.4504 11.4749 21.5254 11.4249 21.6004 11.4249C21.6254 11.4249 21.6754 11.4249 21.7004 11.4499L21.7254 11.4749C21.8504 11.5499 21.7754 11.6999 21.7504 11.7499ZM23.4504 13.4499L22.9504 13.8749C22.8254 13.9749 22.6754 13.9749 22.5504 13.8999C22.5254 13.8999 22.5254 13.8749 22.5004 13.8499C22.4504 13.7999 22.4254 13.7249 22.4254 13.6499C22.4254 13.5749 22.4754 13.4749 22.5504 13.4249C22.7254 13.2749 22.8754 13.1499 23.0504 12.9999C23.1254 12.9499 23.2004 12.9249 23.2754 12.9249C23.3504 12.9249 23.4004 12.9499 23.4504 12.9749L23.5004 13.0249C23.6254 13.1499 23.6004 13.3249 23.4504 13.4499ZM23.4504 15.8249C23.5254 15.8749 23.6004 15.8999 23.7004 15.8999C23.7504 15.8999 23.8004 15.8999 23.8754 15.8749L24.4754 15.6499C24.7004 15.5749 24.8254 15.3499 24.7254 15.1499C24.7004 15.0749 24.6504 15.0249 24.6004 14.9749C24.5004 14.8749 24.3254 14.8749 24.2004 14.9249L24.1004 14.9749C23.9254 15.0249 23.7754 15.0999 23.6004 15.1749C23.4754 15.2249 23.4004 15.2999 23.3504 15.3999C23.3004 15.4999 23.3004 15.5999 23.3504 15.6999C23.3754 15.7499 23.4004 15.7999 23.4504 15.8249ZM25.0004 17.1999C24.9004 17.1249 24.8004 17.0999 24.6504 17.0999H24.0004C23.8504 17.0999 23.7254 17.1499 23.6254 17.2499C23.5254 17.3499 23.5004 17.4499 23.5004 17.5999C23.5004 17.7499 23.5754 17.8749 23.6754 17.9499C23.7754 18.0249 23.8754 18.0499 24.0004 18.0749H24.6504C24.9504 18.0749 25.1754 17.8499 25.1504 17.5749C25.1754 17.4249 25.1004 17.2999 25.0004 17.1999ZM24.5754 19.4249C24.5254 19.3749 24.4504 19.3499 24.3754 19.3249C24.1754 19.2499 23.9754 19.1749 23.7504 19.1249C23.5754 19.0749 23.4004 19.0749 23.2504 19.1499C23.1254 19.2249 23.0004 19.3499 22.9754 19.4999C22.9004 19.7249 22.9754 19.9749 23.1754 20.1249C23.2254 20.1749 23.3004 20.1999 23.3754 20.2249L24.0004 20.4249C24.0754 20.4499 24.1504 20.4499 24.2254 20.4499C24.4754 20.4499 24.7004 20.2999 24.7754 20.0499C24.8504 19.8249 24.7754 19.5749 24.5754 19.4249ZM23.4504 21.3499C23.2504 21.1999 23.0254 21.0249 22.8254 20.8499C22.6754 20.7499 22.5254 20.6999 22.3754 20.6999H22.3004C22.1254 20.7249 21.9754 20.8249 21.8504 20.9499C21.6254 21.2499 21.6754 21.6749 22.0004 21.9249L22.6504 22.4249C22.8004 22.5249 22.9504 22.5999 23.1004 22.5999C23.3004 22.5999 23.5004 22.4999 23.6254 22.3499C23.8504 22.0249 23.8004 21.6249 23.4504 21.3499Z" fill="#00CED1"/>
</g>
<defs>
<clipPath id="clip0_5764_9546">
<rect width="16" height="16" fill="white" transform="translate(10 10)"/>
</clipPath>
</defs>
</svg>
