<svg width="151" height="151" viewBox="0 0 151 151" fill="none" xmlns="http://www.w3.org/2000/svg">
<path d="M139.727 118.058L86.0101 30.8239C78.9543 19.3638 70.2006 18.1177 61.3853 29.5374C44.2311 51.7606 29.9873 76.0581 15.7941 100.28C13.349 104.452 10.8798 108.68 9.54435 113.329C8.20887 117.977 8.10737 123.167 10.3019 127.476C13.755 134.258 21.6905 135.459 29.2709 135.352C138.415 134.081 132.816 134.519 136.421 133.243C142.245 131.179 144.723 126.18 139.727 118.058ZM135.385 130.318C132.294 131.412 137.445 130.989 29.2346 132.249C23.5967 132.342 16.7509 131.802 14.1329 127.215C11.6806 122.92 14.0521 117.341 16.6943 112.451C37.8235 73.3262 54.8336 51.5892 63.0566 38.6596C65.8099 34.3287 68.6571 29.8523 71.8689 26.4688C72.7795 25.5085 73.849 24.8692 75.1656 25.0043C78.0148 25.3012 81.2711 29.0463 83.3679 32.4521L137.085 119.686C140.044 124.489 140.747 128.42 135.385 130.318ZM98.1766 15.7344C97.3686 15.4476 96.4818 15.8698 96.195 16.6778L92.3418 27.5091C92.0549 28.3151 92.4761 29.2019 93.2831 29.4907C94.0856 29.774 94.9754 29.361 95.2647 28.5474L99.1179 17.7161C99.4048 16.9101 98.9836 16.0233 98.1766 15.7344ZM107.325 24.4427C104.808 27.8303 101.803 30.8078 98.3917 33.2924C97.6989 33.7974 97.5463 34.767 98.0513 35.4599C98.5556 36.1557 99.5288 36.3028 100.218 35.8013C103.882 33.1308 107.111 29.9331 109.816 26.2931C110.327 25.6062 110.184 24.6346 109.496 24.1236C108.811 23.6105 107.839 23.7539 107.325 24.4427ZM102.655 40.5604C102.677 41.4027 103.367 42.0714 104.205 42.0714C105.388 41.9381 108.287 42.084 112.647 40.3624C113.444 40.0493 113.835 39.1484 113.521 38.3505C113.204 37.5526 112.303 37.1607 111.508 37.4779C109.161 38.403 106.692 38.904 104.167 38.9686C103.31 38.9909 102.634 39.7039 102.655 40.5604Z" fill="#EC5557"/>
<path d="M76.7531 48.9492H75.1069C72.901 48.9492 71.1128 50.7374 71.1128 52.9433V96.2251C71.1128 98.431 72.901 100.219 75.1069 100.219C77.2497 100.219 79.0171 98.5284 79.1065 96.3875C79.7084 81.9633 80.1353 67.5288 80.7345 53.1044C80.8287 50.8369 79.0224 48.9492 76.7531 48.9492ZM73.3665 106.495L72.8257 106.674C70.3563 107.645 68.9605 110.734 69.8632 113.23C70.766 115.725 73.8152 117.205 76.3344 116.372C78.8535 115.538 80.4179 112.531 79.6543 109.99C78.8908 107.449 75.9279 105.802 73.3665 106.495Z" fill="#EC5557"/>
</svg>
