<svg width="50" height="50" viewBox="0 0 50 50" fill="none" xmlns="http://www.w3.org/2000/svg">
<rect width="48" height="48" rx="15" transform="matrix(1 0 0 -1 1 49)" fill="white" stroke="url(#paint0_linear_5138_22323)"/>
<path fill-rule="evenodd" clip-rule="evenodd" d="M15 16.0359C15 16.7127 15.2169 17.3334 15.5741 17.8376L22.7162 26.9592C22.7389 26.9845 22.7595 27.0112 22.7829 27.0357C24.0074 28.3222 25.9926 28.3222 27.2182 27.0357C27.2419 27.0105 27.2621 26.9834 27.2852 26.9574L29.5853 24.02C29.8842 23.7409 30.2292 23.5003 30.6585 23.5003L32.1042 23.5003C32.9147 23.5003 33.5714 24.1899 33.5714 25.041C33.5714 25.3629 33.4745 25.6584 33.3144 25.9056C31.2817 28.5284 28.0807 32.6545 26.3009 34.9484C25.5762 35.6878 24.4183 35.6834 23.7015 34.9309C23.6541 34.8814 23.6101 34.829 23.5693 34.7763C23.5596 34.7642 23.5516 34.7577 23.5428 34.7466C21.7386 32.419 18.6607 28.4508 16.686 25.9038C16.6096 25.7862 16.5489 25.6573 16.505 25.5203L16.5025 25.5211C16.4094 25.22 16.1436 25.0007 15.8266 25.0007C15.4317 25.0007 15.1123 25.3361 15.1123 25.7507C15.1123 25.8305 15.1273 25.9056 15.1489 25.9777L15.1475 25.9785C15.1489 25.9843 15.1531 25.9906 15.1545 25.9964C15.1649 26.0272 15.1771 26.0569 15.1914 26.0873C15.2884 26.3561 15.4133 26.6102 15.5733 26.8373L22.7173 35.9592C22.7396 35.9844 22.7595 36.0115 22.7829 36.0357C23.3898 36.6729 24.1835 36.9943 24.979 36.9999C25.7886 37.0056 26.6 36.6842 27.2182 36.0357C27.2429 36.0097 27.2635 35.9811 27.2876 35.9544L34.4217 26.8431C34.7813 26.337 35 25.7144 35 25.0351C35 23.3593 33.7057 22.0003 32.1097 22.0003L31.167 22.0003L30.7146 22.0003C29.857 22.0003 29.0897 22.3995 28.5658 23.0287C27.7121 24.1302 26.92 25.1505 26.3009 25.9485C25.5762 26.6875 24.4183 26.6835 23.7015 25.9305C23.6541 25.8811 23.6101 25.8298 23.5693 25.776C23.5596 25.7643 23.5516 25.7573 23.5428 25.7467C21.7386 23.419 18.6607 19.4515 16.686 16.9045C16.5255 16.6574 16.4289 16.3622 16.4289 16.0418C16.4289 15.1907 17.0864 14.5004 17.8969 14.5004L32.1042 14.5004C32.9147 14.5004 33.5714 15.1907 33.5714 16.0418C33.5714 16.3644 33.4727 16.6614 33.3109 16.9093C32.78 17.5941 32.1704 18.38 31.5259 19.2109C31.3913 19.3472 31.3065 19.538 31.3065 19.75C31.3065 20.1646 31.626 20.5 32.0201 20.5C32.2834 20.5 32.5108 20.3487 32.635 20.1258L34.4217 17.8439C34.7813 17.3385 35 16.7152 35 16.0359C35 14.359 33.7057 13 32.1097 13L17.891 13C16.2943 13 15 14.359 15 16.0359ZM17.5004 23.1253C17.5004 22.7108 17.1809 22.3753 16.7861 22.3753C16.3912 22.3753 16.0714 22.7108 16.0714 23.1253C16.0714 23.5391 16.3912 23.8753 16.7861 23.8753C17.1809 23.8753 17.5004 23.5391 17.5004 23.1253Z" fill="#091229"/>
<defs>
<linearGradient id="paint0_linear_5138_22323" x1="6.54545" y1="5.45455" x2="39.2727" y2="40.9091" gradientUnits="userSpaceOnUse">
<stop stop-color="#FFD600"/>
<stop offset="0.24" stop-color="#FF423E"/>
<stop offset="0.5" stop-color="#0166FF"/>
<stop offset="0.73" stop-color="#8904F9"/>
<stop offset="1" stop-color="#01FFE3"/>
</linearGradient>
</defs>
</svg>
