<svg width="50" height="50" viewBox="0 0 50 50" fill="none" xmlns="http://www.w3.org/2000/svg">
<rect x="1" y="1" width="48" height="48" rx="15" fill="white" stroke="url(#paint0_linear_5138_22319)"/>
<path fill-rule="evenodd" clip-rule="evenodd" d="M15 33.9641C15 33.2873 15.2169 32.6666 15.5741 32.1624L22.7162 23.0408C22.7389 23.0155 22.7595 22.9888 22.7829 22.9643C24.0074 21.6778 25.9926 21.6778 27.2182 22.9643C27.2419 22.9895 27.2621 23.0166 27.2852 23.0426L29.5853 25.98C29.8842 26.2591 30.2292 26.4997 30.6585 26.4997L32.1042 26.4997C32.9147 26.4997 33.5714 25.8101 33.5714 24.959C33.5714 24.6371 33.4745 24.3416 33.3144 24.0944C31.2817 21.4716 28.0807 17.3455 26.3009 15.0516C25.5762 14.3122 24.4183 14.3166 23.7015 15.0691C23.6541 15.1186 23.6101 15.171 23.5693 15.2237C23.5596 15.2358 23.5516 15.2423 23.5428 15.2534C21.7386 17.581 18.6607 21.5492 16.686 24.0962C16.6096 24.2138 16.5489 24.3427 16.505 24.4797L16.5025 24.4789C16.4094 24.78 16.1436 24.9993 15.8266 24.9993C15.4317 24.9993 15.1123 24.6639 15.1123 24.2493C15.1123 24.1695 15.1273 24.0944 15.1489 24.0223L15.1475 24.0215C15.1489 24.0157 15.1531 24.0094 15.1545 24.0036C15.1649 23.9728 15.1771 23.9431 15.1914 23.9127C15.2884 23.6439 15.4133 23.3898 15.5733 23.1627L22.7173 14.0408C22.7396 14.0156 22.7595 13.9885 22.7829 13.9643C23.3898 13.3271 24.1835 13.0057 24.979 13.0001C25.7886 12.9944 26.6 13.3158 27.2182 13.9643C27.2429 13.9903 27.2635 14.0189 27.2876 14.0456L34.4217 23.1569C34.7813 23.663 35 24.2856 35 24.9649C35 26.6407 33.7057 27.9997 32.1097 27.9997L31.167 27.9997L30.7146 27.9997C29.857 27.9997 29.0897 27.6005 28.5658 26.9713C27.7121 25.8698 26.92 24.8495 26.3009 24.0515C25.5762 23.3125 24.4183 23.3165 23.7015 24.0695C23.6541 24.1189 23.6101 24.1702 23.5693 24.224C23.5596 24.2357 23.5516 24.2427 23.5428 24.2533C21.7386 26.581 18.6607 30.5485 16.686 33.0955C16.5255 33.3426 16.4289 33.6378 16.4289 33.9582C16.4289 34.8093 17.0864 35.4996 17.8969 35.4996L32.1042 35.4996C32.9147 35.4996 33.5714 34.8093 33.5714 33.9582C33.5714 33.6356 33.4727 33.3386 33.3109 33.0907C32.78 32.4059 32.1704 31.62 31.5259 30.7891C31.3913 30.6528 31.3065 30.462 31.3065 30.25C31.3065 29.8354 31.626 29.5 32.0201 29.5C32.2834 29.5 32.5108 29.6513 32.635 29.8742L34.4217 32.1561C34.7813 32.6615 35 33.2848 35 33.9641C35 35.641 33.7057 37 32.1097 37L17.891 37C16.2943 37 15 35.641 15 33.9641ZM17.5004 26.8747C17.5004 27.2892 17.1809 27.6247 16.7861 27.6247C16.3912 27.6247 16.0714 27.2892 16.0714 26.8747C16.0714 26.4609 16.3912 26.1247 16.7861 26.1247C17.1809 26.1247 17.5004 26.4609 17.5004 26.8747Z" fill="#091229"/>
<defs>
<linearGradient id="paint0_linear_5138_22319" x1="7.54545" y1="6.45455" x2="40.2727" y2="41.9091" gradientUnits="userSpaceOnUse">
<stop stop-color="#FFD600"/>
<stop offset="0.24" stop-color="#FF423E"/>
<stop offset="0.5" stop-color="#0166FF"/>
<stop offset="0.73" stop-color="#8904F9"/>
<stop offset="1" stop-color="#01FFE3"/>
</linearGradient>
</defs>
</svg>
