<svg width="50" height="50" viewBox="0 0 50 50" fill="none" xmlns="http://www.w3.org/2000/svg">
<rect x="1" y="1" width="48" height="48" rx="15" stroke="url(#paint0_linear_5303_14206)"/>
<path d="M16 25V19C18.1047 19.6213 22.5762 20.4267 28.0038 20.8028C30.9252 21.0053 32.3859 21.1065 33.1929 21.9769C34 22.8473 34 24.2497 34 27.0546V29.0683C34 31.9566 34 33.4008 33.0163 34.2998C32.0325 35.1987 30.6919 35.0677 28.0106 34.8058C26.7295 34.6806 25.3748 34.509 24 34.2775" stroke="#091229" stroke-width="1.5" stroke-linecap="round" stroke-linejoin="round"/>
<path d="M30.6258 21C31.0035 19.5767 31.3453 16.9882 30.327 15.7029C29.6816 14.8883 28.7223 14.9665 27.7818 15.0493C22.8379 15.4841 19.3454 16.3673 17.393 16.9674C16.5535 17.2254 16 18.0452 16 18.9604" stroke="#091229" stroke-width="1.5" stroke-linejoin="round"/>
<path d="M28 28C28 28.8284 28.6716 29.5 29.5 29.5C30.3284 29.5 31 28.8284 31 28C31 27.1716 30.3284 26.5 29.5 26.5C28.6716 26.5 28 27.1716 28 28Z" stroke="#091229" stroke-width="1.5"/>
<path fill-rule="evenodd" clip-rule="evenodd" d="M19.6696 27.1904C19.5477 27.0685 19.3824 27 19.21 27C19.0376 27 18.8723 27.0685 18.7504 27.1904L16.1904 29.7504C15.9365 30.0042 15.9365 30.4158 16.1904 30.6696C16.4442 30.9235 16.8558 30.9235 17.1096 30.6696L18.5601 29.2192V34.7207C18.5601 35.0797 18.8511 35.3707 19.2101 35.3707C19.5691 35.3707 19.8601 35.0797 19.8601 34.7207V29.2193L21.3104 30.6696C21.5642 30.9235 21.9758 30.9235 22.2296 30.6696C22.4835 30.4158 22.4835 30.0042 22.2296 29.7504L19.6696 27.1904Z" fill="#091229"/>
<defs>
<linearGradient id="paint0_linear_5303_14206" x1="7.54545" y1="6.45455" x2="40.2727" y2="41.9091" gradientUnits="userSpaceOnUse">
<stop stop-color="#FFD600"/>
<stop offset="0.24" stop-color="#FF423E"/>
<stop offset="0.5" stop-color="#0166FF"/>
<stop offset="0.73" stop-color="#8904F9"/>
<stop offset="1" stop-color="#01FFE3"/>
</linearGradient>
</defs>
</svg>
