<svg width="151" height="151" viewBox="0 0 151 151" fill="none" xmlns="http://www.w3.org/2000/svg">
<path d="M121.319 12.664L120.766 18.3544C120.678 19.2641 121.391 20.0552 122.311 20.0552C123.101 20.0552 123.776 19.4553 123.853 18.6533L124.406 12.963C124.489 12.1105 123.865 11.351 123.012 11.2702C122.168 11.1591 121.4 11.8095 121.319 12.664ZM126.121 22.9115C126.735 23.5171 127.716 23.5057 128.315 22.8994C130.527 20.6612 132.135 17.8716 132.963 14.8355C133.189 14.0093 132.7 13.1569 131.874 12.9306C131.03 12.7064 130.193 13.1932 129.969 14.0194C129.28 16.5424 127.945 18.8594 126.109 20.7178C125.507 21.3278 125.511 22.3096 126.121 22.9115ZM142.317 21.2268C141.944 20.4592 141.019 20.1401 140.243 20.5097L131.411 24.8063C130.642 25.182 130.321 26.1112 130.694 26.8809C131.067 27.6452 131.99 27.9727 132.769 27.598L141.6 23.3014C142.37 22.9257 142.691 21.9965 142.317 21.2268ZM115.992 81.9742L115.964 82.1812C113.838 82.9716 112.65 85.6531 113.481 87.7635C114.312 89.8739 116.995 91.0274 119.103 90.1911C121.211 89.3543 122.375 86.6899 121.568 84.5704C120.762 82.4504 118.135 81.2328 115.992 81.9742Z" fill="#0166FF"/>
<path d="M138.828 133.698C139.493 132.213 138.643 130.4 137.325 129.445C136.546 128.882 135.642 128.557 134.706 128.318C135.726 125.83 135.358 129.665 135.698 50.0963C135.734 42.2361 134.113 36.2205 126.002 35.0594C125.231 34.6998 124.433 34.3887 123.617 34.115C123.761 31.0933 123.57 29.0089 123.61 26.7571C123.675 23.0379 120.603 20.1133 116.999 20.1133C116.993 20.1133 116.986 20.1133 116.98 20.1133L36.6728 20.3658C29.1115 20.389 21.2741 20.7082 15.9611 26.1935C12.9637 28.2773 10.8403 32.2419 9.82061 35.8507C8.03419 42.1722 8.49784 39.8963 8.87878 127.133C8.91718 135.953 11.1662 139.188 21.4089 139.375C59.0067 140.059 96.7184 140.209 134.089 136.024C135.924 135.818 138.073 135.383 138.828 133.698ZM21.0015 26.1592C25.692 23.5049 31.5298 23.4847 36.6808 23.4685L116.988 23.216H116.999C118.952 23.216 120.541 24.7941 120.507 26.7026C120.473 28.7169 120.613 30.8261 120.552 33.2807C114.037 31.8807 115.505 32.2695 28.5042 32.0192C27.3626 32.0162 18.0702 32.8894 14.8637 34.7432C15.4471 31.3769 17.7604 27.9964 21.0015 26.1592ZM132.409 94.3094L121.529 94.4114C114.352 94.4667 105.3 93.0952 106.109 85.9556C106.61 81.5183 111.485 79.6538 115.91 78.932C121.354 78.0432 127.068 78.2593 132.433 79.5562C132.446 79.5592 132.458 79.5552 132.471 79.5577L132.409 94.3094ZM132.484 76.4136C126.916 75.1576 121.032 74.9531 115.409 75.8697C109.464 76.8425 103.698 79.6202 103.026 85.6082C101.988 94.788 112.281 97.5847 121.558 97.5141L132.396 97.4126C132.212 125.595 132.682 126.404 131.361 127.944C130.432 129.03 126.794 130.196 124.652 130.307C88.8135 132.155 54.9055 134.08 19.5188 131.996C17.7937 131.895 16.4403 130.442 16.4343 128.689C16.3805 108.468 14.2188 40.1176 14.691 39.3761C17.3222 39.3761 28.9417 38.8257 66.979 38.7681C84.4399 38.7456 102.652 38.7129 120.342 37.9864C135.481 37.3927 132.424 42.8199 132.484 76.4136Z" fill="#616A7F"/>
<path fill-rule="evenodd" clip-rule="evenodd" d="M81.4367 75.2054C80.9383 75.6081 80.3004 75.7963 79.6633 75.7288C79.0261 75.6613 78.4418 75.3435 78.0389 74.8453C75.5261 71.7349 72.1107 69.4801 68.263 68.3916C64.4154 67.303 60.325 67.4343 56.5551 68.7672C52.7852 70.1002 49.5213 72.5693 47.2131 75.8344C44.9049 79.0996 43.6658 83.0001 43.6666 86.9987C43.6666 87.6396 43.412 88.2543 42.9588 88.7075C42.5056 89.1608 41.8909 89.4154 41.25 89.4154C40.609 89.4154 39.9944 89.1608 39.5411 88.7075C39.0879 88.2543 38.8333 87.6396 38.8333 86.9987C38.8333 73.6539 49.6527 62.832 63 62.832C66.6042 62.8292 70.1633 63.634 73.4156 65.1872C76.668 66.7404 79.5311 69.0026 81.7944 71.8075C81.9943 72.0542 82.1436 72.3379 82.2338 72.6423C82.324 72.9468 82.3534 73.266 82.3202 73.5818C82.2869 73.8976 82.1918 74.2037 82.0402 74.4827C81.8887 74.7617 81.6836 75.0057 81.4367 75.2054Z" fill="#0166FF"/>
<path fill-rule="evenodd" clip-rule="evenodd" d="M81.125 62.832C81.7659 62.832 82.3806 63.0866 82.8338 63.5399C83.2871 63.9931 83.5417 64.6078 83.5417 65.2487V74.9154C83.5417 75.5563 83.2871 76.171 82.8338 76.6242C82.3806 77.0774 81.7659 77.332 81.125 77.332H71.4583C70.8174 77.332 70.2027 77.0774 69.7495 76.6242C69.2963 76.171 69.0417 75.5563 69.0417 74.9154C69.0417 74.2744 69.2963 73.6597 69.7495 73.2065C70.2027 72.7533 70.8174 72.4987 71.4583 72.4987H78.7083V65.2487C78.7083 64.6078 78.9629 63.9931 79.4162 63.5399C79.8694 63.0866 80.4841 62.832 81.125 62.832ZM44.5632 98.792C45.0613 98.3891 45.699 98.2004 46.3362 98.2675C46.9734 98.3345 47.5578 98.6519 47.9611 99.1497C50.4738 102.26 53.889 104.515 57.7363 105.603C61.5837 106.692 65.674 106.561 69.4438 105.228C73.2136 103.895 76.4774 101.427 78.7858 98.162C81.0943 94.8973 82.3337 90.9971 82.3333 86.9987C82.3333 86.3578 82.5879 85.7431 83.0412 85.2899C83.4944 84.8366 84.1091 84.582 84.75 84.582C85.3909 84.582 86.0056 84.8366 86.4588 85.2899C86.9121 85.7431 87.1667 86.3578 87.1667 86.9987C87.1667 100.346 76.3472 111.165 63 111.165C59.3958 111.168 55.8367 110.363 52.5843 108.81C49.332 107.257 46.4689 104.995 44.2056 102.19C43.8026 101.692 43.6139 101.054 43.681 100.417C43.7481 99.7798 44.0654 99.1953 44.5632 98.792Z" fill="#0166FF"/>
<path fill-rule="evenodd" clip-rule="evenodd" d="M44.875 111.164C44.234 111.164 43.6194 110.909 43.1661 110.456C42.7129 110.003 42.4583 109.388 42.4583 108.747V99.0807C42.4583 98.4398 42.7129 97.8251 43.1661 97.3719C43.6194 96.9187 44.234 96.6641 44.875 96.6641H54.5416C55.1826 96.6641 55.7973 96.9187 56.2505 97.3719C56.7037 97.8251 56.9583 98.4398 56.9583 99.0807C56.9583 99.7217 56.7037 100.336 56.2505 100.79C55.7973 101.243 55.1826 101.497 54.5416 101.497H47.2916V108.747C47.2916 109.388 47.037 110.003 46.5838 110.456C46.1306 110.909 45.5159 111.164 44.875 111.164Z" fill="#0166FF"/>
</svg>
