<svg width="30" height="30" viewBox="0 0 30 30" fill="none" xmlns="http://www.w3.org/2000/svg">
<path fill-rule="evenodd" clip-rule="evenodd" d="M2.50024 14.999C2.50024 8.10027 8.10024 2.49902 15.0002 2.49902C21.9127 2.49902 27.5002 8.10027 27.5002 14.999C27.5002 21.9003 21.9127 27.499 15.0002 27.499C8.10024 27.499 2.50024 21.9003 2.50024 14.999ZM13.9002 10.2615C13.9002 9.66277 14.4002 9.16152 15.0002 9.16152C15.6002 9.16152 16.0877 9.66277 16.0877 10.2615V15.7865C16.0877 16.3878 15.6002 16.874 15.0002 16.874C14.4002 16.874 13.9002 16.3878 13.9002 15.7865V10.2615ZM15.0127 20.8503C14.4002 20.8503 13.9127 20.3503 13.9127 19.7503C13.9127 19.1503 14.4002 18.6628 15.0002 18.6628C15.6127 18.6628 16.1002 19.1503 16.1002 19.7503C16.1002 20.3503 15.6127 20.8503 15.0127 20.8503Z" fill="black"/>
</svg>
